<svg width="180" height="180" viewBox="0 0 180 180" fill="none" xmlns="http://www.w3.org/2000/svg">
<rect width="180" height="180" fill="black"/>
<path d="M28.4766 59.2383C28.4766 42.2491 42.2491 28.4766 59.2383 28.4766H120.762C126.218 28.4766 131.342 29.897 135.785 32.3882L112.011 56.1621H67.8516C61.3957 56.1621 56.1621 61.3957 56.1621 67.8516V112.011L32.3882 135.785C29.897 131.342 28.4766 126.218 28.4766 120.762V59.2383Z" fill="white"/>
<path d="M67.8273 123.838L44.1116 147.554C48.5784 150.081 53.7398 151.523 59.2383 151.523H120.762C137.751 151.523 151.523 137.751 151.523 120.762V59.2383C151.523 53.7398 150.081 48.5783 147.554 44.1116L123.838 67.8273C123.838 67.8354 123.838 67.8435 123.838 67.8516V112.148C123.838 118.604 118.604 123.838 112.148 123.838H67.8516C67.8435 123.838 67.8354 123.838 67.8273 123.838Z" fill="white"/>
</svg>
