<svg width="224" height="224" viewBox="0 0 224 224" fill="none" xmlns="http://www.w3.org/2000/svg">
<path fill-rule="evenodd" clip-rule="evenodd" d="M111.788 0C173.527 0 223.576 50.0491 223.576 111.788C223.576 173.527 173.527 223.576 111.788 223.576C50.0491 223.576 0 173.527 0 111.788C0 50.0491 50.0491 0 111.788 0Z" fill="#2775CA"/>
<path fill-rule="evenodd" clip-rule="evenodd" d="M137.331 33.0735C134.81 32.2682 132.749 33.7644 132.749 36.411V42.9197C132.749 44.6942 134.086 46.7139 135.752 47.3245C162.509 57.1246 181.656 82.8429 181.656 112.953C181.656 143.063 162.509 168.78 135.752 178.581C133.925 179.25 132.749 181.04 132.749 182.986V189.494C132.749 192.141 134.81 193.637 137.331 192.832C171.144 182.028 195.629 150.35 195.629 112.953C195.629 75.5556 171.144 43.8771 137.331 33.0735Z" fill="white"/>
<path fill-rule="evenodd" clip-rule="evenodd" d="M90.8278 36.411C90.8278 33.7644 88.7666 32.2682 86.2458 33.0735C52.4319 43.8771 27.9468 75.5552 27.9468 112.953C27.9468 150.351 52.4319 182.028 86.2458 192.832C88.7665 193.637 90.8278 192.141 90.8278 189.494V182.986C90.8278 181.211 89.4903 179.191 87.824 178.581C61.0676 168.78 41.9203 143.062 41.9203 112.953C41.9203 82.8433 61.0676 57.1246 87.824 47.3245C89.4903 46.7139 90.8278 44.6942 90.8278 42.9196V36.411Z" fill="white"/>
<path d="M140.376 134.769L133.981 131.912C132.573 131.283 130.913 131.871 130.231 133.255C127.213 139.38 122.197 143.284 115.57 143.284C109.571 143.284 104.759 140.346 101.071 134.409C99.6296 132.112 98.4842 129.548 97.6119 126.739H114.784C115.872 126.739 116.868 126.126 117.359 125.154L121.456 119.624C122.425 117.705 121.031 115.439 118.882 115.439H95.6796C95.6123 114.249 95.5719 113.036 95.5719 111.786C95.559 110.547 95.5939 109.333 95.6584 108.137H114.784C115.872 108.137 116.868 107.525 117.359 106.553L121.456 101.023C122.426 99.104 121.031 96.8376 118.882 96.8376H97.5909C100.705 86.6847 107.206 80.0329 115.57 80.1636C121.944 80.1636 126.892 83.6531 130.066 89.368C130.777 90.649 132.378 91.1399 133.718 90.5482L140.146 87.7106C141.684 87.0316 142.338 85.1718 141.524 83.7009C135.59 72.9848 126.939 67.6021 115.57 67.6021C105.196 67.6021 96.884 71.7267 90.5719 79.9137C86.8828 84.7355 84.3147 90.3931 82.7907 96.8376H73.4534C72.3649 96.8376 71.3691 97.4502 70.8785 98.4218L66.7808 103.952C65.8118 105.871 67.2062 108.137 69.3557 108.137H81.2479C81.1905 109.338 81.1356 110.541 81.1356 111.786C81.1204 113.02 81.1495 114.235 81.2017 115.439H73.4534C72.3649 115.439 71.3691 116.052 70.8785 117.023L66.7808 122.553C65.8118 124.472 67.2062 126.739 69.3557 126.739H82.7636C87.0039 144.265 99.2116 156.217 115.57 155.97C127.185 155.97 135.939 150.196 141.783 138.699C142.527 137.235 141.875 135.439 140.376 134.769Z" fill="white"/>
</svg>
