<svg width="1148" height="637" viewBox="0 0 1148 637" fill="none" xmlns="http://www.w3.org/2000/svg">
<g clip-path="url(#clip0_320_11)">
<path fill-rule="evenodd" clip-rule="evenodd" d="M67.2727 1.37578C65.54 3.46408 66.4073 10.2232 71.115 31.2658C74.4592 46.2223 77.6592 59.6674 78.2265 61.1442C78.7938 62.621 78.515 63.8229 77.6092 63.8171C76.7034 63.8094 73.7977 58.0387 71.1534 50.9931C68.5092 43.9456 64.1823 35.3693 61.538 31.933C58.8938 28.4968 53.4842 20.3589 49.515 13.8498C44.4303 5.51007 41.3073 2.20455 38.938 2.65451C33.0073 3.78519 33.9573 12.1557 41.9438 29.1563C52.9592 52.6045 60.1073 71.0069 59.2246 73.6548C58.8054 74.9105 55.2688 71.6992 51.365 66.5188C29.5707 37.5941 22.9169 30.1774 18.763 30.1774C16.288 30.1774 14.215 31.535 13.8573 33.3868C13.5169 35.152 21.6611 49.2355 31.9534 64.6843C52.9803 96.2415 53.5342 99.7797 36.288 92.413C30.6092 89.9862 21.888 85.4827 16.9073 82.408C11.513 79.0755 6.56689 77.3084 4.66881 78.0372C-0.296576 79.9428 4.75727 86.2096 20.3496 97.4799C33.2784 106.823 94.2746 167.378 99.9304 176.483C102.54 180.683 102.363 181.42 97.5265 186.465C94.6554 189.463 92.3073 193.142 92.3073 194.642C92.3073 196.141 97.6438 202.753 104.167 209.335C114.044 219.299 116.623 220.982 119.592 219.392C121.552 218.344 123.867 217.924 124.738 218.463C125.607 218.999 130.455 226.61 135.513 235.377C148.846 258.491 189.913 319.636 205.625 339.769C213.053 349.287 223.263 363.475 228.315 371.295C273.744 441.632 304.123 483.488 326.359 506.383C333.088 513.309 335.419 517.413 336.736 524.651C338.457 534.104 345.253 542.638 351.063 542.638C355.761 542.638 369.278 556.323 374.23 566.092C380.311 578.091 388.148 607.346 389.709 623.881L390.936 636.861H547.425H703.913L716.563 623.455C725.09 614.415 732.753 608.396 740.086 604.977C753.671 598.647 763.461 589.59 763.461 583.356C763.461 580.235 767.675 574.214 776.132 565.249C800.288 539.644 857.757 458.494 876.927 422.922C882.588 412.415 889.259 403.889 899.494 394.078C934.782 360.254 948.259 345.23 974.086 310.925C1011.7 260.965 1017.37 253.514 1019.35 251.456C1020.39 250.374 1022.68 251.131 1025.18 253.379L1029.29 257.083L1041.57 243.884C1048.32 236.625 1053.85 229.758 1053.85 228.624C1053.85 227.491 1052.06 224.668 1049.89 222.351L1045.93 218.136L1060.78 204.92C1068.95 197.651 1082.2 185.835 1090.22 178.664C1098.53 171.236 1113.61 160.702 1125.26 154.187C1142.97 144.282 1148.08 140.117 1148.08 135.571C1148.08 133.485 1135.18 136.625 1123.7 141.505C1107.04 148.584 1100 149.822 1100 145.67C1100 143.882 1109.52 131.012 1121.15 117.067C1132.79 103.122 1142.31 90.7362 1142.31 89.544C1142.31 88.3498 1140.99 86.2788 1139.37 84.9405C1136.89 82.8772 1134.17 84.6847 1121.65 96.7223C1113.52 104.543 1103.64 114.615 1099.69 119.105C1084.29 136.642 1091.01 119.53 1114.85 80.4966C1125.65 62.8018 1126.78 57.4964 1119.93 56.5157C1117.04 56.1004 1114.04 58.3175 1109.52 64.2074C1106.04 68.759 1100.37 75.5104 1096.93 79.2121C1093.5 82.9137 1087.3 92.2168 1083.16 99.8855C1079.03 107.554 1075.1 113.281 1074.43 112.611C1073.76 111.944 1074.01 109.915 1074.97 108.106C1078.83 100.905 1094.14 53.6986 1093.14 52.0892C1092.56 51.1431 1090.18 50.3739 1087.87 50.3816C1083.07 50.3951 1074.18 65.2593 1062.72 92.4322C1059.02 101.187 1053.69 111.387 1050.86 115.098C1046.26 121.128 1035.72 129.181 1032.4 129.2C1030.16 129.214 1026.92 117.298 1026.92 109.017C1026.92 104.574 1026 98.2817 1024.87 95.0358C1022.77 89.0325 1017.82 85.5558 1015.24 88.2825C1012.78 90.8919 1010.5 163.077 1012.58 172.474C1013.05 174.589 1012.18 177.954 1010.64 179.954C1008.01 183.366 1007.54 183.394 1003.02 180.435C996.955 176.458 994.467 176.472 990.013 180.502C986.65 183.546 986.061 183.362 979.325 177.137C969.111 167.703 969.011 167.501 970.209 158.844C970.807 154.522 970.436 148.726 969.388 145.966C966.409 138.136 954.911 126.508 941.513 117.778C925.915 107.618 918.14 106.231 907.588 111.731C899.775 115.803 899.507 115.815 893.561 112.352C888.309 109.292 887.367 107.506 886.5 98.9836C885.903 93.1206 884 87.4883 881.786 85.0424C875.034 77.5814 847.88 65.5439 835.215 64.3959C823.994 63.3767 823.38 63.5633 815.978 70.2512C808.971 76.5815 807.786 77.0045 801.763 75.3278C796.138 73.7625 794.777 72.1818 792.307 64.3382C789.836 56.4907 788.169 54.5524 780.688 50.8373C770.592 45.8243 756.85 44.2128 756.776 48.0337C756.751 49.3951 755.488 51.2758 753.969 52.2141C749.994 54.6716 754.209 59.1886 763.134 62.0403C772.007 64.8728 775.263 67.6745 769.682 67.6745C767.369 67.6745 764.519 69.5416 763.271 71.878C761.328 75.5046 761.703 76.668 765.996 80.36C771.669 85.2404 769.815 86.9038 758.701 86.9038C752.263 86.9038 748.175 91.3169 752.269 93.8475C753.596 94.6685 752.68 96.4453 749.78 98.674C745.198 102.197 745.209 102.203 758.653 102.233C775.671 102.274 785.757 99.497 789.536 93.7302C793.676 87.4134 802.607 89.6074 803.496 97.1607C804.825 108.446 829.817 124.989 852.267 129.441C862.176 131.406 864.003 131.212 872.021 127.331C880.317 123.316 881.148 123.245 885.621 126.176C889.35 128.618 890.384 130.935 890.384 136.835C890.384 143.342 891.892 146.001 901.405 156.275C913.213 169.028 921.067 174.664 934.267 179.858C941.257 182.608 943.788 182.76 950.248 180.825C957.902 178.533 957.95 178.551 966.648 187.248C974.582 195.184 975.142 196.336 972.84 200.022C970.59 203.624 970.923 204.712 975.842 209.846L981.375 215.621L959.438 237.327C947.371 249.264 926.388 269.842 912.807 283.056C895.842 299.56 885.744 311.125 880.538 320.011C876.221 327.381 869.08 336.063 863.93 340.202C842.544 357.391 819.909 381.366 780.576 428.497C757.503 456.146 735.775 480.485 732.292 482.583C728.811 484.683 721.521 487.84 716.094 489.6C710.667 491.359 700.548 496.224 693.603 500.412C686.661 504.598 680.101 508.025 679.028 508.025C677.955 508.025 675.982 504.368 674.642 499.899C671.548 489.569 660.015 477.868 651.323 476.237L644.736 475.003L643.648 457.381C643.048 447.691 641.99 437.898 641.296 435.619C640.361 432.558 640.986 431.175 643.696 430.316C647.705 429.045 664.146 407.694 667.102 399.922C668.161 397.134 671.061 394.53 673.898 393.819C679.627 392.38 680.157 389.594 675.651 384.617C673.896 382.675 672.815 380.86 673.248 380.581C673.682 380.302 678.148 378.154 683.173 375.81C695.544 370.036 695.519 365.102 683.069 355.808C672.538 347.945 669.23 340.096 669.23 322.955C669.23 303.314 660.178 288.811 647.917 288.811C641.367 288.811 639.871 287.711 630.909 276.308C607.703 246.784 577.369 239.304 543.573 254.773C523.634 263.9 516.638 272.749 505.586 302.818C494.807 332.139 492.536 343.865 490.23 382.073C487.709 423.837 488.355 434.331 494.298 448.143L498.542 458.01L491.736 465.54C487.994 469.684 483.992 474.83 482.842 476.977C480.767 480.854 480.673 480.846 469.802 475.872C462.936 472.728 454.638 470.649 447.55 470.297C436.636 469.755 435.813 469.328 423.575 457.881C411.359 446.457 391.44 434.958 383.855 434.956C378.342 434.954 342.309 398.453 323.111 373.42C304.615 349.307 297.127 341.611 280.213 329.343C271.625 323.114 268.042 318.922 264.542 311.011C256.121 291.971 233.278 261.108 198.202 221.376C190.2 212.313 179.184 199.185 173.721 192.203C164.077 179.875 163.892 179.41 167.421 176.218C172.728 171.415 173.792 166.159 170.477 161.102C167.667 156.814 167.932 156.323 177.552 148.02C187.271 139.629 187.838 139.417 198.223 140.277C212.85 141.49 227.503 134.023 243.75 117.078C254.365 106.008 255.769 103.652 255.769 96.9184C255.769 90.2631 256.502 88.9901 261.527 86.9076C266.369 84.9039 268.04 85.0193 272.036 87.6364C289.107 98.8221 340.036 78.8679 342.613 59.9828C343.117 56.2908 344.852 54.7851 350.088 53.4891C356.225 51.9738 357.496 52.3911 362.757 57.6522C366.905 61.7999 371.282 63.9017 377.817 64.8805C400.367 68.261 429.527 60.0885 436.096 48.5471C439.996 41.6938 448.973 40.2555 450.853 46.1838C454.05 56.2542 476.846 68.1571 485.438 64.2421C488.63 62.7864 489.907 60.7154 489.707 57.3118C489.469 53.2275 487.596 51.7719 477.884 48.1279L466.346 43.7975L472.877 42.7572C485.234 40.7862 485.919 29.5794 473.832 27.1238L468.269 25.9931L473.673 24.4836C476.644 23.6529 482.959 23.4106 487.707 23.9452C495.909 24.8701 496.186 24.747 493.223 21.4723C490.327 18.2725 490.384 17.938 494.052 16.7746C498.088 15.492 498.63 12.0615 495.192 9.53475C492.011 7.1984 468.621 7.94257 463.461 10.5443C460.817 11.8769 456.561 16.1919 454.003 20.1301C448.059 29.2909 440.03 30.1178 435.809 22.0049C430.702 12.1865 424.286 7.90988 412.909 6.73689C401.805 5.59083 380.303 8.78482 369.888 13.1268C362.996 16.0016 355.769 24.2471 355.769 29.239C355.769 33.6079 352.459 36.1423 344.544 37.8364C339.275 38.9633 337.621 38.4864 335.292 35.1635C331.523 29.7813 322.677 25.3701 315.652 25.3701C300.057 25.3701 267.461 40.8842 262.319 50.7527C260.832 53.6102 259.615 59.0309 259.615 62.8037C259.615 68.7071 258.707 70.0916 253.077 72.7779C246.844 75.7489 246.115 75.6912 237.523 71.5319C229.692 67.7418 227.561 67.4495 221.317 69.3205C204.75 74.2855 178.58 95.9761 175.8 107.052C175.128 109.725 174.936 114.957 175.371 118.68C176.096 124.897 175.263 126.23 165.13 135.042C158.948 140.419 153.571 143.78 152.898 142.69C151.292 140.092 143.611 140.211 140.948 142.874C139.392 144.43 137.978 143.721 135.694 140.234C133.019 136.15 132.859 133.423 134.578 121.28C138.709 92.1264 141.127 48.4183 138.74 46.0319C135.236 42.5284 129.423 49.7451 126.728 60.9442C125.457 66.2323 123.65 73.8048 122.711 77.7699C120.555 86.8845 116.292 87.1691 108.284 78.7313C100.571 70.6031 97.8977 64.9612 90.6977 41.613C79.8977 6.58114 72.9111 -5.41793 67.2727 1.37578ZM381.388 25.9969C378.027 27.2391 374.565 29.0429 373.696 30.0043C372.784 31.0139 373.117 31.1792 374.478 30.3966C378.365 28.1622 384.615 32.7733 384.615 37.8749C384.615 41.0246 382.888 43.4591 379.33 45.3224L374.044 48.0914L381.265 49.4471C385.238 50.1912 392.417 50.2124 397.221 49.4913C406.632 48.0799 420.373 42.8764 415.013 42.7514C410.04 42.636 405.542 35.1559 407.852 30.8408C408.896 28.889 411.069 27.293 412.68 27.293C414.292 27.293 415.077 26.4277 414.423 25.3701C412.805 22.751 388.948 23.2048 381.388 25.9969ZM298.409 45.5301C289.567 48.2895 275 57.456 275 60.2597C275 61.1827 276.734 60.8558 278.852 59.5328C286.784 54.5793 294.878 67.3245 287.315 72.8549C284.153 75.1662 284.265 75.3662 288.713 75.3662C296.092 75.3662 309.909 70.1032 316.346 64.8382C321.765 60.4077 321.857 60.1174 317.855 60.052C311.065 59.9424 308.932 53.6794 313.644 47.6895L317.586 42.6764L312.159 42.8053C309.173 42.8764 302.986 44.1013 298.409 45.5301ZM833.355 84.652C838.89 90.7669 836.101 98.4413 828.348 98.4413C826.238 98.4413 825.309 99.3086 826.078 100.555C828.24 104.051 850.561 113.821 856.386 113.823C861.319 113.825 861.538 113.55 858.79 110.804C854.642 106.654 855.003 103.041 859.913 99.6028C862.894 97.5145 865.05 97.2337 867.605 98.6009C869.977 99.8701 871.153 99.8489 871.153 98.5356C871.153 93.5533 845.378 81.135 835.036 81.135C830.446 81.135 830.352 81.333 833.355 84.652ZM214.423 90.5804C206.667 94.2013 192.307 106.983 192.307 110.265C192.307 111.273 193.907 111.181 196.015 110.054C198.053 108.962 201.09 108.594 202.761 109.237C206.975 110.854 208.68 118.969 205.59 122.693C203.282 125.474 203.688 125.48 210.182 122.766C219.155 119.019 229.569 111.135 233.525 105.099C236.523 100.524 236.488 100.47 231.157 101.537C224.34 102.901 220.23 98.5317 221.936 91.7361C222.603 89.0786 222.917 86.923 222.632 86.9461C222.348 86.9692 218.653 88.6036 214.423 90.5804ZM924.578 132.975C925.271 137.692 924.536 139.117 920.459 140.975C916.584 142.74 914.853 142.699 912.557 140.794C908.419 137.359 908.902 140.111 913.588 146.693C918.05 152.958 931.177 162.517 938.446 164.796C942.677 166.123 942.94 165.94 940.702 163.242C939.307 161.561 938.45 158.192 938.794 155.754C939.54 150.489 948.409 148.58 953.315 152.626C956.038 154.872 956.155 154.718 954.317 151.322C949.986 143.317 935.401 130.766 927.732 128.445C924.2 127.376 923.832 127.901 924.578 132.975Z" fill="black"/>
</g>
<defs>
<clipPath id="clip0_320_11">
<rect width="1148" height="637" fill="white"/>
</clipPath>
</defs>
</svg>
