<svg width="926" height="400" viewBox="0 0 926 400" fill="none" xmlns="http://www.w3.org/2000/svg">
<g clip-path="url(#clip0_302_2)">
<path d="M341.689 9.07762C328.999 3.24953 314.879 0 300 0H100C44.7715 0 0 44.7715 0 100V300C0 314.879 3.24953 328.999 9.07762 341.689L100.006 250.761C100.002 250.508 100 250.254 100 250V150C100 122.386 122.386 100 150 100H250C250.254 100 250.508 100.002 250.761 100.006L341.689 9.07762Z" fill="url(#paint0_linear_302_2)"/>
<path d="M149.762 299.999C149.841 300 149.921 300 150 300H250C277.614 300 300 277.614 300 250V150C300 149.921 300 149.841 299.999 149.762L391.088 58.6735C396.812 71.2698 400 85.2626 400 100V300C400 355.228 355.228 400 300 400H100C85.2626 400 71.2698 396.812 58.6735 391.088L149.762 299.999Z" fill="url(#paint1_linear_302_2)"/>
<path d="M454 38.8H471.6V161.2H534.4V178H454V38.8ZM568.216 38.8H585.816V178H568.216V38.8ZM744.078 38.8V178H726.478L651.678 70.6V178H634.078V38.8H651.678L726.478 146.2V38.8H744.078ZM789.239 108.6C789.239 94.2 791.772 81.6 796.839 70.8C801.906 59.8667 809.372 51.4 819.239 45.4C829.239 39.4 841.239 36.4 855.239 36.4C863.239 36.4 870.772 37.4 877.839 39.4C884.906 41.2667 891.172 43.8667 896.639 47.2L896.439 67H895.639C890.439 62.4667 884.239 58.9333 877.039 56.4C869.972 53.7333 862.506 52.4 854.639 52.4C839.039 52.4 827.372 57.4667 819.639 67.6C812.039 77.6 808.239 91.2667 808.239 108.6C808.239 125.8 811.972 139.4 819.439 149.4C827.039 159.4 838.439 164.4 853.639 164.4C859.906 164.4 865.639 163.6 870.839 162C876.039 160.267 880.572 157.867 884.439 154.8V125H855.039V109.6H902.039V164C893.772 169.467 885.906 173.6 878.439 176.4C871.106 179.067 862.772 180.4 853.439 180.4C839.839 180.4 828.172 177.4 818.439 171.4C808.839 165.4 801.572 157 796.639 146.2C791.706 135.4 789.239 122.867 789.239 108.6ZM454 220.8H499.2C533.867 220.8 551.2 236 551.2 266.4C551.2 281.733 546.867 293.467 538.2 301.6C529.667 309.6 517.133 313.6 500.6 313.6H471.6V360H454V220.8ZM500 297.2C511.467 297.2 519.667 294.867 524.6 290.2C529.667 285.533 532.2 277.867 532.2 267.2C532.2 256.533 529.667 248.933 524.6 244.4C519.667 239.867 511.2 237.6 499.2 237.6H471.6V297.2H500ZM660.023 323.2H593.023L578.823 360H561.223L614.823 220.8H639.223L692.823 360H674.223L660.023 323.2ZM654.223 308.2L626.623 236.2L598.823 308.2H654.223ZM813.156 220.8L763.956 309.2V360H746.356V309.2L697.156 220.8H717.756L755.156 290.4L793.556 220.8H813.156Z" fill="black"/>
<path d="M454 38.8V33.8H449V38.8H454ZM471.6 38.8H476.6V33.8H471.6V38.8ZM471.6 161.2H466.6V166.2H471.6V161.2ZM534.4 161.2H539.4V156.2H534.4V161.2ZM534.4 178V183H539.4V178H534.4ZM454 178H449V183H454V178ZM454 43.8H471.6V33.8H454V43.8ZM466.6 38.8V161.2H476.6V38.8H466.6ZM471.6 166.2H534.4V156.2H471.6V166.2ZM529.4 161.2V178H539.4V161.2H529.4ZM534.4 173H454V183H534.4V173ZM459 178V38.8H449V178H459ZM568.216 38.8V33.8H563.216V38.8H568.216ZM585.816 38.8H590.816V33.8H585.816V38.8ZM585.816 178V183H590.816V178H585.816ZM568.216 178H563.216V183H568.216V178ZM568.216 43.8H585.816V33.8H568.216V43.8ZM580.816 38.8V178H590.816V38.8H580.816ZM585.816 173H568.216V183H585.816V173ZM573.216 178V38.8H563.216V178H573.216ZM744.078 38.8H749.078V33.8H744.078V38.8ZM744.078 178V183H749.078V178H744.078ZM726.478 178L722.375 180.858L723.867 183H726.478V178ZM651.678 70.6L655.781 67.7424L646.678 54.6721V70.6H651.678ZM651.678 178V183H656.678V178H651.678ZM634.078 178H629.078V183H634.078V178ZM634.078 38.8V33.8H629.078V38.8H634.078ZM651.678 38.8L655.781 35.9424L654.289 33.8H651.678V38.8ZM726.478 146.2L722.375 149.058L731.478 162.128V146.2H726.478ZM726.478 38.8V33.8H721.478V38.8H726.478ZM739.078 38.8V178H749.078V38.8H739.078ZM744.078 173H726.478V183H744.078V173ZM730.581 175.142L655.781 67.7424L647.575 73.4576L722.375 180.858L730.581 175.142ZM646.678 70.6V178H656.678V70.6H646.678ZM651.678 173H634.078V183H651.678V173ZM639.078 178V38.8H629.078V178H639.078ZM634.078 43.8H651.678V33.8H634.078V43.8ZM647.575 41.6576L722.375 149.058L730.581 143.342L655.781 35.9424L647.575 41.6576ZM731.478 146.2V38.8H721.478V146.2H731.478ZM726.478 43.8H744.078V33.8H726.478V43.8ZM796.839 70.8L801.366 72.9236L801.371 72.913L801.376 72.9023L796.839 70.8ZM819.239 45.4L816.667 41.1125L816.654 41.1202L816.641 41.1279L819.239 45.4ZM877.839 39.4L876.477 44.211L876.52 44.223L876.562 44.2342L877.839 39.4ZM896.639 47.2L901.639 47.2505L901.668 44.4099L899.242 42.931L896.639 47.2ZM896.439 67V72H901.389L901.439 67.0505L896.439 67ZM895.639 67L892.353 70.7689L893.766 72H895.639V67ZM877.039 56.4L875.274 61.078L875.326 61.0979L875.38 61.1166L877.039 56.4ZM819.639 67.6L815.664 64.5666L815.658 64.5746L819.639 67.6ZM819.439 149.4L815.433 152.391L815.445 152.408L815.458 152.425L819.439 149.4ZM870.839 162L872.309 166.779L872.365 166.762L872.42 166.743L870.839 162ZM884.439 154.8L887.546 158.717L889.439 157.216V154.8H884.439ZM884.439 125H889.439V120H884.439V125ZM855.039 125H850.039V130H855.039V125ZM855.039 109.6V104.6H850.039V109.6H855.039ZM902.039 109.6H907.039V104.6H902.039V109.6ZM902.039 164L904.797 168.171L907.039 166.688V164H902.039ZM878.439 176.4L880.148 181.099L880.171 181.09L880.195 181.082L878.439 176.4ZM818.439 171.4L815.789 175.64L815.802 175.648L815.815 175.656L818.439 171.4ZM796.639 146.2L801.187 144.123L796.639 146.2ZM794.239 108.6C794.239 94.7845 796.669 82.9358 801.366 72.9236L792.312 68.6764C786.876 80.2642 784.239 93.6155 784.239 108.6H794.239ZM801.376 72.9023C806.045 62.827 812.855 55.1338 821.837 49.6721L816.641 41.1279C805.889 47.6662 797.767 56.9063 792.303 68.6977L801.376 72.9023ZM821.812 49.6875C830.892 44.2394 841.963 41.4 855.239 41.4V31.4C840.515 31.4 827.586 34.5606 816.667 41.1125L821.812 49.6875ZM855.239 41.4C862.819 41.4 869.891 42.347 876.477 44.211L879.201 34.589C871.653 32.453 863.659 31.4 855.239 31.4V41.4ZM876.562 44.2342C883.227 45.9946 889.035 48.4198 894.036 51.469L899.242 42.931C893.309 39.3136 886.585 36.5387 879.116 34.5658L876.562 44.2342ZM891.639 47.1495L891.439 66.9495L901.439 67.0505L901.639 47.2505L891.639 47.1495ZM896.439 62H895.639V72H896.439V62ZM898.925 63.2311C893.199 58.2397 886.432 54.4045 878.699 51.6834L875.38 61.1166C882.046 63.4621 887.679 66.6936 892.353 70.7689L898.925 63.2311ZM878.804 51.722C871.15 48.8336 863.083 47.4 854.639 47.4V57.4C861.928 57.4 868.795 58.633 875.274 61.078L878.804 51.722ZM854.639 47.4C837.869 47.4 824.557 52.9146 815.664 64.5666L823.614 70.6334C830.188 62.0187 840.21 57.4 854.639 57.4V47.4ZM815.658 64.5746C807.187 75.7214 803.239 90.5819 803.239 108.6H813.239C813.239 91.9514 816.891 79.4786 823.62 70.6254L815.658 64.5746ZM803.239 108.6C803.239 126.478 807.117 141.254 815.433 152.391L823.445 146.409C816.828 137.546 813.239 125.122 813.239 108.6H803.239ZM815.458 152.425C824.206 163.935 837.244 169.4 853.639 169.4V159.4C839.634 159.4 829.872 154.865 823.42 146.375L815.458 152.425ZM853.639 169.4C860.33 169.4 866.567 168.546 872.309 166.779L869.369 157.221C864.711 158.654 859.481 159.4 853.639 159.4V169.4ZM872.42 166.743C878.112 164.846 883.175 162.184 887.546 158.717L881.332 150.883C877.97 153.549 873.966 155.687 869.258 157.257L872.42 166.743ZM889.439 154.8V125H879.439V154.8H889.439ZM884.439 120H855.039V130H884.439V120ZM860.039 125V109.6H850.039V125H860.039ZM855.039 114.6H902.039V104.6H855.039V114.6ZM897.039 109.6V164H907.039V109.6H897.039ZM899.281 159.829C891.256 165.136 883.725 169.078 876.683 171.718L880.195 181.082C888.086 178.122 896.289 173.797 904.797 168.171L899.281 159.829ZM876.73 171.701C870.04 174.134 862.301 175.4 853.439 175.4V185.4C863.244 185.4 872.171 184 880.148 181.099L876.73 171.701ZM853.439 175.4C840.588 175.4 829.869 172.572 821.063 167.144L815.815 175.656C826.476 182.228 839.09 185.4 853.439 185.4V175.4ZM821.089 167.16C812.362 161.705 805.734 154.077 801.187 144.123L792.091 148.277C797.411 159.923 805.316 169.095 815.789 175.64L821.089 167.16ZM801.187 144.123C796.605 134.093 794.239 122.292 794.239 108.6H784.239C784.239 123.441 786.806 136.707 792.091 148.277L801.187 144.123ZM454 220.8V215.8H449V220.8H454ZM538.2 301.6L541.62 305.248L541.622 305.246L538.2 301.6ZM471.6 313.6V308.6H466.6V313.6H471.6ZM471.6 360V365H476.6V360H471.6ZM454 360H449V365H454V360ZM524.6 290.2L521.213 286.522L521.188 286.545L521.164 286.568L524.6 290.2ZM524.6 244.4L521.217 248.082L521.241 248.104L521.266 248.126L524.6 244.4ZM471.6 237.6V232.6H466.6V237.6H471.6ZM471.6 297.2H466.6V302.2H471.6V297.2ZM454 225.8H499.2V215.8H454V225.8ZM499.2 225.8C515.912 225.8 527.512 229.478 534.903 235.959C542.169 242.331 546.2 252.154 546.2 266.4H556.2C556.2 250.246 551.564 237.269 541.497 228.441C531.554 219.722 517.154 215.8 499.2 215.8V225.8ZM546.2 266.4C546.2 280.775 542.166 291.021 534.778 297.954L541.622 305.246C551.567 295.912 556.2 282.691 556.2 266.4H546.2ZM534.78 297.952C527.497 304.78 516.389 308.6 500.6 308.6V318.6C517.878 318.6 531.836 314.42 541.62 305.248L534.78 297.952ZM500.6 308.6H471.6V318.6H500.6V308.6ZM466.6 313.6V360H476.6V313.6H466.6ZM471.6 355H454V365H471.6V355ZM459 360V220.8H449V360H459ZM500 302.2C511.924 302.2 521.713 299.813 528.036 293.832L521.164 286.568C517.62 289.92 511.009 292.2 500 292.2V302.2ZM527.987 293.878C534.531 287.851 537.2 278.507 537.2 267.2H527.2C527.2 277.227 524.802 283.216 521.213 286.522L527.987 293.878ZM537.2 267.2C537.2 255.91 534.538 246.582 527.934 240.674L521.266 248.126C524.796 251.284 527.2 257.157 527.2 267.2H537.2ZM527.983 240.718C521.63 234.881 511.557 232.6 499.2 232.6V242.6C510.843 242.6 517.703 244.853 521.217 248.082L527.983 240.718ZM499.2 232.6H471.6V242.6H499.2V232.6ZM466.6 237.6V297.2H476.6V237.6H466.6ZM471.6 302.2H500V292.2H471.6V302.2ZM660.023 323.2L664.688 321.4L663.453 318.2H660.023V323.2ZM593.023 323.2V318.2H589.593L588.359 321.4L593.023 323.2ZM578.823 360V365H582.253L583.488 361.8L578.823 360ZM561.223 360L556.557 358.203L553.94 365H561.223V360ZM614.823 220.8V215.8H611.391L610.157 219.003L614.823 220.8ZM639.223 220.8L643.889 219.003L642.656 215.8H639.223V220.8ZM692.823 360V365H700.107L697.489 358.203L692.823 360ZM674.223 360L669.559 361.8L670.793 365H674.223V360ZM654.223 308.2V313.2H661.495L658.892 306.41L654.223 308.2ZM626.623 236.2L631.292 234.41L626.64 222.275L621.959 234.399L626.623 236.2ZM598.823 308.2L594.159 306.399L591.533 313.2H598.823V308.2ZM660.023 318.2H593.023V328.2H660.023V318.2ZM588.359 321.4L574.159 358.2L583.488 361.8L597.688 325L588.359 321.4ZM578.823 355H561.223V365H578.823V355ZM565.889 361.797L619.489 222.597L610.157 219.003L556.557 358.203L565.889 361.797ZM614.823 225.8H639.223V215.8H614.823V225.8ZM634.557 222.597L688.157 361.797L697.489 358.203L643.889 219.003L634.557 222.597ZM692.823 355H674.223V365H692.823V355ZM678.888 358.2L664.688 321.4L655.359 325L669.559 361.8L678.888 358.2ZM658.892 306.41L631.292 234.41L621.955 237.99L649.555 309.99L658.892 306.41ZM621.959 234.399L594.159 306.399L603.488 310.001L631.288 238.001L621.959 234.399ZM598.823 313.2H654.223V303.2H598.823V313.2ZM813.156 220.8L817.525 223.232L821.661 215.8H813.156V220.8ZM763.956 309.2L759.587 306.768L758.956 307.902V309.2H763.956ZM763.956 360V365H768.956V360H763.956ZM746.356 360H741.356V365H746.356V360ZM746.356 309.2H751.356V307.902L750.725 306.768L746.356 309.2ZM697.156 220.8V215.8H688.651L692.787 223.232L697.156 220.8ZM717.756 220.8L722.161 218.433L720.746 215.8H717.756V220.8ZM755.156 290.4L750.752 292.767L755.098 300.855L759.534 292.815L755.156 290.4ZM793.556 220.8V215.8H790.604L789.178 218.385L793.556 220.8ZM808.787 218.368L759.587 306.768L768.325 311.632L817.525 223.232L808.787 218.368ZM758.956 309.2V360H768.956V309.2H758.956ZM763.956 355H746.356V365H763.956V355ZM751.356 360V309.2H741.356V360H751.356ZM750.725 306.768L701.525 218.368L692.787 223.232L741.987 311.632L750.725 306.768ZM697.156 225.8H717.756V215.8H697.156V225.8ZM713.352 223.167L750.752 292.767L759.561 288.033L722.161 218.433L713.352 223.167ZM759.534 292.815L797.934 223.215L789.178 218.385L750.778 287.985L759.534 292.815ZM793.556 225.8H813.156V215.8H793.556V225.8Z" fill="black"/>
</g>
<defs>
<linearGradient id="paint0_linear_302_2" x1="13" y1="-35" x2="163.5" y2="158" gradientUnits="userSpaceOnUse">
<stop stop-color="#3D96FF" stop-opacity="0.3"/>
<stop offset="1" stop-color="#3D96FF"/>
</linearGradient>
<linearGradient id="paint1_linear_302_2" x1="13" y1="-35" x2="163.5" y2="158" gradientUnits="userSpaceOnUse">
<stop stop-color="#3D96FF" stop-opacity="0.3"/>
<stop offset="1" stop-color="#3D96FF"/>
</linearGradient>
<clipPath id="clip0_302_2">
<rect width="926" height="400" fill="white"/>
</clipPath>
</defs>
</svg>
