<svg width="994" height="400" viewBox="0 0 994 400" fill="none" xmlns="http://www.w3.org/2000/svg">
<g clip-path="url(#clip0_516_2)">
<path fill-rule="evenodd" clip-rule="evenodd" d="M341.254 8.87932C328.677 3.17587 314.709 0 300 0H100C44.7715 0 0 44.7715 0 100V300C0 314.709 3.17587 328.677 8.87932 341.254L116.156 233.978C116.053 232.665 116 231.339 116 230V170C116 142.386 138.386 120 166 120H230.134L341.254 8.87932ZM169.129 280H233C260.614 280 283 257.614 283 230V170C283 168.744 282.954 167.499 282.863 166.266L390.889 58.2393C396.738 70.9479 400 85.093 400 100V300C400 355.228 355.228 400 300 400H100C85.093 400 70.9479 396.738 58.2393 390.889L169.129 280Z" fill="url(#paint0_linear_516_2)"/>
<mask id="path-2-outside-1_516_2" maskUnits="userSpaceOnUse" x="444" y="20" width="504" height="358" fill="black">
<rect fill="white" x="444" y="20" width="504" height="358"/>
<path d="M474.9 150.82H531C538.04 150.82 544.2 156.54 544.2 164.02C544.2 171.28 538.04 177 531 177H461.48C452.02 177 445.2 170.18 445.2 160.72V37.52C445.2 29.16 451.8 22.34 460.16 22.34C468.3 22.34 474.9 29.16 474.9 37.52V150.82ZM589.063 22.34C597.203 22.34 604.023 29.38 604.023 37.52V163.36C604.023 171.5 597.203 178.54 589.063 178.54C580.703 178.54 573.883 171.5 573.883 163.36V37.52C573.883 29.38 580.703 22.34 589.063 22.34ZM751.607 22.34C760.187 22.34 766.787 29.38 766.787 37.52V163.8C766.787 173.26 760.627 178.32 752.927 178.32C746.547 178.32 741.487 175.02 737.527 169.52L669.327 76.68V163.14C669.327 171.28 662.727 178.32 654.587 178.32C646.007 178.32 639.187 171.28 639.187 163.14V36.64C639.187 27.4 645.347 22.34 653.267 22.34C659.647 22.34 664.707 25.64 668.447 30.92L736.647 123.98V37.52C736.647 29.38 743.467 22.34 751.607 22.34ZM930.29 94.72C941.29 94.72 946.79 102.42 946.13 113.2C944.37 156.32 912.03 178.54 877.93 178.54C838.77 178.54 799.83 146.42 799.83 100C799.83 53.58 838.99 21.46 877.27 21.46C892.67 21.46 904.77 25.42 914.01 30.92C922.15 36.2 927.21 41.04 927.21 48.3C927.21 56.88 920.39 61.72 913.35 61.72C907.85 61.72 903.89 58.86 901.47 57.1C898.17 54.9 890.03 49.62 877.71 49.62C852.85 49.62 830.85 71.62 830.85 100C830.85 128.38 852.63 150.38 877.93 150.38C895.31 150.38 914.67 139.6 917.31 119.14H892.23C885.41 119.14 879.25 114.08 879.25 107.04C879.25 99.78 885.41 94.72 892.23 94.72H930.29ZM501.74 221C536.06 221 558.06 243.22 558.06 270.94C558.06 299.1 536.06 320.44 501.74 320.44H474.9V361.58C474.9 369.72 468.3 376.54 460.16 376.54C451.8 376.54 445.2 369.72 445.2 361.58V237.28C445.2 227.82 452.02 221 461.48 221H501.74ZM500.42 295.14C516.92 295.14 529.24 289.2 529.24 270.94C529.24 252.9 516.92 246.3 500.42 246.3H474.9V295.14H500.42ZM704.65 354.1C705.75 356.52 706.41 359.38 706.41 362.46C706.41 369.72 700.25 375.88 692.11 375.88C685.51 375.88 680.23 372.14 677.81 366.42L666.81 340.46H604.33L593.33 366.42C590.91 372.14 585.63 375.88 579.25 375.88C571.11 375.88 564.73 369.72 564.73 362.46C564.73 359.38 565.61 356.52 566.71 354.1L621.27 231.12C624.35 223.64 628.97 220.12 635.57 220.12C642.17 220.12 646.79 223.64 650.09 231.12L704.65 354.1ZM614.45 316.92H656.69L635.57 267.2L614.45 316.92ZM818.447 220.34C825.927 220.34 832.087 226.28 832.087 233.76C832.087 236.62 831.427 239.04 829.887 241.24L785.227 306.36V362.24C785.227 370.16 778.407 376.54 770.487 376.54C762.787 376.54 755.967 370.16 755.967 362.24V306.36L711.307 241.24C709.767 239.04 709.107 236.62 709.107 233.76C709.107 226.28 715.047 220.34 722.747 220.34C727.147 220.34 730.887 222.32 733.527 225.84L770.487 281.28L807.667 225.84C810.087 222.32 814.047 220.34 818.447 220.34Z"/>
</mask>
<path d="M474.9 150.82H531C538.04 150.82 544.2 156.54 544.2 164.02C544.2 171.28 538.04 177 531 177H461.48C452.02 177 445.2 170.18 445.2 160.72V37.52C445.2 29.16 451.8 22.34 460.16 22.34C468.3 22.34 474.9 29.16 474.9 37.52V150.82ZM589.063 22.34C597.203 22.34 604.023 29.38 604.023 37.52V163.36C604.023 171.5 597.203 178.54 589.063 178.54C580.703 178.54 573.883 171.5 573.883 163.36V37.52C573.883 29.38 580.703 22.34 589.063 22.34ZM751.607 22.34C760.187 22.34 766.787 29.38 766.787 37.52V163.8C766.787 173.26 760.627 178.32 752.927 178.32C746.547 178.32 741.487 175.02 737.527 169.52L669.327 76.68V163.14C669.327 171.28 662.727 178.32 654.587 178.32C646.007 178.32 639.187 171.28 639.187 163.14V36.64C639.187 27.4 645.347 22.34 653.267 22.34C659.647 22.34 664.707 25.64 668.447 30.92L736.647 123.98V37.52C736.647 29.38 743.467 22.34 751.607 22.34ZM930.29 94.72C941.29 94.72 946.79 102.42 946.13 113.2C944.37 156.32 912.03 178.54 877.93 178.54C838.77 178.54 799.83 146.42 799.83 100C799.83 53.58 838.99 21.46 877.27 21.46C892.67 21.46 904.77 25.42 914.01 30.92C922.15 36.2 927.21 41.04 927.21 48.3C927.21 56.88 920.39 61.72 913.35 61.72C907.85 61.72 903.89 58.86 901.47 57.1C898.17 54.9 890.03 49.62 877.71 49.62C852.85 49.62 830.85 71.62 830.85 100C830.85 128.38 852.63 150.38 877.93 150.38C895.31 150.38 914.67 139.6 917.31 119.14H892.23C885.41 119.14 879.25 114.08 879.25 107.04C879.25 99.78 885.41 94.72 892.23 94.72H930.29ZM501.74 221C536.06 221 558.06 243.22 558.06 270.94C558.06 299.1 536.06 320.44 501.74 320.44H474.9V361.58C474.9 369.72 468.3 376.54 460.16 376.54C451.8 376.54 445.2 369.72 445.2 361.58V237.28C445.2 227.82 452.02 221 461.48 221H501.74ZM500.42 295.14C516.92 295.14 529.24 289.2 529.24 270.94C529.24 252.9 516.92 246.3 500.42 246.3H474.9V295.14H500.42ZM704.65 354.1C705.75 356.52 706.41 359.38 706.41 362.46C706.41 369.72 700.25 375.88 692.11 375.88C685.51 375.88 680.23 372.14 677.81 366.42L666.81 340.46H604.33L593.33 366.42C590.91 372.14 585.63 375.88 579.25 375.88C571.11 375.88 564.73 369.72 564.73 362.46C564.73 359.38 565.61 356.52 566.71 354.1L621.27 231.12C624.35 223.64 628.97 220.12 635.57 220.12C642.17 220.12 646.79 223.64 650.09 231.12L704.65 354.1ZM614.45 316.92H656.69L635.57 267.2L614.45 316.92ZM818.447 220.34C825.927 220.34 832.087 226.28 832.087 233.76C832.087 236.62 831.427 239.04 829.887 241.24L785.227 306.36V362.24C785.227 370.16 778.407 376.54 770.487 376.54C762.787 376.54 755.967 370.16 755.967 362.24V306.36L711.307 241.24C709.767 239.04 709.107 236.62 709.107 233.76C709.107 226.28 715.047 220.34 722.747 220.34C727.147 220.34 730.887 222.32 733.527 225.84L770.487 281.28L807.667 225.84C810.087 222.32 814.047 220.34 818.447 220.34Z" fill="black"/>
<path d="M474.9 150.82H473.9V151.82H474.9V150.82ZM474.9 151.82H531V149.82H474.9V151.82ZM531 151.82C537.51 151.82 543.2 157.114 543.2 164.02H545.2C545.2 155.966 538.57 149.82 531 149.82V151.82ZM543.2 164.02C543.2 170.695 537.521 176 531 176V178C538.559 178 545.2 171.865 545.2 164.02H543.2ZM531 176H461.48V178H531V176ZM461.48 176C452.572 176 446.2 169.628 446.2 160.72H444.2C444.2 170.732 451.468 178 461.48 178V176ZM446.2 160.72V37.52H444.2V160.72H446.2ZM446.2 37.52C446.2 29.6931 452.371 23.34 460.16 23.34V21.34C451.229 21.34 444.2 28.6268 444.2 37.52H446.2ZM460.16 23.34C467.719 23.34 473.9 29.6833 473.9 37.52H475.9C475.9 28.6366 468.881 21.34 460.16 21.34V23.34ZM473.9 37.52V150.82H475.9V37.52H473.9ZM589.063 23.34C596.632 23.34 603.023 29.9133 603.023 37.52H605.023C605.023 28.8467 597.774 21.34 589.063 21.34V23.34ZM603.023 37.52V163.36H605.023V37.52H603.023ZM603.023 163.36C603.023 170.967 596.632 177.54 589.063 177.54V179.54C597.774 179.54 605.023 172.033 605.023 163.36H603.023ZM589.063 177.54C581.264 177.54 574.883 170.957 574.883 163.36H572.883C572.883 172.043 580.141 179.54 589.063 179.54V177.54ZM574.883 163.36V37.52H572.883V163.36H574.883ZM574.883 37.52C574.883 29.9229 581.264 23.34 589.063 23.34V21.34C580.141 21.34 572.883 28.8371 572.883 37.52H574.883ZM737.527 169.52L738.338 168.936L738.333 168.928L737.527 169.52ZM669.327 76.68L670.133 76.088L668.327 73.6296V76.68H669.327ZM668.447 30.92L667.631 31.498L667.635 31.5046L667.64 31.5111L668.447 30.92ZM736.647 123.98L735.84 124.571L737.647 127.036V123.98H736.647ZM751.607 23.34C759.616 23.34 765.787 29.9133 765.787 37.52H767.787C767.787 28.8467 760.758 21.34 751.607 21.34V23.34ZM765.787 37.52V163.8H767.787V37.52H765.787ZM765.787 163.8C765.787 168.305 764.326 171.662 762.045 173.893C759.758 176.13 756.558 177.32 752.927 177.32V179.32C756.995 179.32 760.726 177.98 763.443 175.322C766.168 172.658 767.787 168.755 767.787 163.8H765.787ZM752.927 177.32C746.954 177.32 742.167 174.253 738.338 168.936L736.715 170.104C740.807 175.787 746.14 179.32 752.927 179.32V177.32ZM738.333 168.928L670.133 76.088L668.521 77.272L736.721 170.112L738.333 168.928ZM668.327 76.68V163.14H670.327V76.68H668.327ZM668.327 163.14C668.327 170.766 662.137 177.32 654.587 177.32V179.32C663.317 179.32 670.327 171.794 670.327 163.14H668.327ZM654.587 177.32C646.559 177.32 640.187 170.728 640.187 163.14H638.187C638.187 171.832 645.454 179.32 654.587 179.32V177.32ZM640.187 163.14V36.64H638.187V163.14H640.187ZM640.187 36.64C640.187 32.2521 641.643 28.9525 643.948 26.7476C646.261 24.5351 649.518 23.34 653.267 23.34V21.34C649.095 21.34 645.312 22.6749 642.566 25.3024C639.811 27.9375 638.187 31.7879 638.187 36.64H640.187ZM653.267 23.34C659.246 23.34 664.029 26.4138 667.631 31.498L669.263 30.342C665.384 24.8662 660.047 21.34 653.267 21.34V23.34ZM667.64 31.5111L735.84 124.571L737.453 123.389L669.253 30.3289L667.64 31.5111ZM737.647 123.98V37.52H735.647V123.98H737.647ZM737.647 37.52C737.647 29.9133 744.038 23.34 751.607 23.34V21.34C742.896 21.34 735.647 28.8467 735.647 37.52H737.647ZM946.13 113.2L945.132 113.139L945.131 113.149L945.131 113.159L946.13 113.2ZM914.01 30.92L914.554 30.081L914.538 30.0706L914.521 30.0607L914.01 30.92ZM901.47 57.1L902.058 56.2913L902.041 56.2793L902.024 56.2679L901.47 57.1ZM917.31 119.14L918.301 119.268L918.447 118.14H917.31V119.14ZM930.29 95.72C935.541 95.72 939.36 97.5474 941.807 100.549C944.272 103.574 945.451 107.921 945.132 113.139L947.128 113.261C947.468 107.699 946.227 102.806 943.357 99.2857C940.469 95.7426 936.038 93.72 930.29 93.72V95.72ZM945.131 113.159C944.261 134.459 935.85 150.531 923.5 161.286C911.137 172.054 894.769 177.54 877.93 177.54V179.54C895.191 179.54 912.043 173.916 924.814 162.794C937.599 151.659 946.238 135.061 947.129 113.241L945.131 113.159ZM877.93 177.54C839.268 177.54 800.83 145.816 800.83 100H798.83C798.83 147.024 838.271 179.54 877.93 179.54V177.54ZM800.83 100C800.83 54.1809 839.492 22.46 877.27 22.46V20.46C838.487 20.46 798.83 52.9791 798.83 100H800.83ZM877.27 22.46C892.49 22.46 904.413 26.3716 913.498 31.7793L914.521 30.0607C905.126 24.4684 892.849 20.46 877.27 20.46V22.46ZM913.465 31.759C921.604 37.0381 926.21 41.6153 926.21 48.3H928.21C928.21 40.4647 922.695 35.3619 914.554 30.081L913.465 31.759ZM926.21 48.3C926.21 56.2144 919.958 60.72 913.35 60.72V62.72C920.821 62.72 928.21 57.5456 928.21 48.3H926.21ZM913.35 60.72C908.204 60.72 904.478 58.0516 902.058 56.2913L900.882 57.9087C903.301 59.6684 907.496 62.72 913.35 62.72V60.72ZM902.024 56.2679C898.675 54.0347 890.33 48.62 877.71 48.62V50.62C889.729 50.62 897.665 55.7653 900.915 57.932L902.024 56.2679ZM877.71 48.62C852.251 48.62 829.85 71.1153 829.85 100H831.85C831.85 72.1247 853.448 50.62 877.71 50.62V48.62ZM829.85 100C829.85 128.885 852.031 151.38 877.93 151.38V149.38C853.228 149.38 831.85 127.875 831.85 100H829.85ZM877.93 151.38C895.625 151.38 915.576 140.393 918.301 119.268L916.318 119.012C913.764 138.807 894.995 149.38 877.93 149.38V151.38ZM917.31 118.14H892.23V120.14H917.31V118.14ZM892.23 118.14C885.856 118.14 880.25 113.428 880.25 107.04H878.25C878.25 114.732 884.963 120.14 892.23 120.14V118.14ZM880.25 107.04C880.25 100.421 885.869 95.72 892.23 95.72V93.72C884.95 93.72 878.25 99.1391 878.25 107.04H880.25ZM892.23 95.72H930.29V93.72H892.23V95.72ZM474.9 320.44V319.44H473.9V320.44H474.9ZM474.9 246.3V245.3H473.9V246.3H474.9ZM474.9 295.14H473.9V296.14H474.9V295.14ZM501.74 222C535.586 222 557.06 243.848 557.06 270.94H559.06C559.06 242.592 536.534 220 501.74 220V222ZM557.06 270.94C557.06 284.747 551.672 296.849 542.099 305.508C532.521 314.172 518.692 319.44 501.74 319.44V321.44C519.108 321.44 533.439 316.038 543.441 306.992C553.448 297.941 559.06 285.293 559.06 270.94H557.06ZM501.74 319.44H474.9V321.44H501.74V319.44ZM473.9 320.44V361.58H475.9V320.44H473.9ZM473.9 361.58C473.9 369.187 467.729 375.54 460.16 375.54V377.54C468.871 377.54 475.9 370.253 475.9 361.58H473.9ZM460.16 375.54C452.362 375.54 446.2 369.177 446.2 361.58H444.2C444.2 370.263 451.238 377.54 460.16 377.54V375.54ZM446.2 361.58V237.28H444.2V361.58H446.2ZM446.2 237.28C446.2 228.372 452.572 222 461.48 222V220C451.468 220 444.2 227.268 444.2 237.28H446.2ZM461.48 222H501.74V220H461.48V222ZM500.42 296.14C508.76 296.14 516.217 294.644 521.608 290.694C527.06 286.701 530.24 280.319 530.24 270.94H528.24C528.24 279.821 525.26 285.539 520.427 289.081C515.533 292.666 508.58 294.14 500.42 294.14V296.14ZM530.24 270.94C530.24 261.669 527.059 255.187 521.622 251.059C516.235 246.967 508.778 245.3 500.42 245.3V247.3C508.562 247.3 515.515 248.933 520.413 252.651C525.261 256.333 528.24 262.171 528.24 270.94H530.24ZM500.42 245.3H474.9V247.3H500.42V245.3ZM473.9 246.3V295.14H475.9V246.3H473.9ZM474.9 296.14H500.42V294.14H474.9V296.14ZM704.65 354.1L703.736 354.506L703.74 354.514L704.65 354.1ZM677.81 366.42L678.731 366.03L678.731 366.03L677.81 366.42ZM666.81 340.46L667.731 340.07L667.473 339.46H666.81V340.46ZM604.33 340.46V339.46H603.668L603.41 340.07L604.33 340.46ZM593.33 366.42L592.41 366.03L592.41 366.03L593.33 366.42ZM566.71 354.1L567.621 354.514L567.625 354.506L566.71 354.1ZM621.27 231.12L622.185 231.526L622.19 231.513L622.195 231.501L621.27 231.12ZM650.09 231.12L649.176 231.524L649.176 231.526L650.09 231.12ZM614.45 316.92L613.53 316.529L612.939 317.92H614.45V316.92ZM656.69 316.92V317.92H658.202L657.611 316.529L656.69 316.92ZM635.57 267.2L636.491 266.809L635.57 264.642L634.65 266.809L635.57 267.2ZM703.74 354.514C704.781 356.803 705.41 359.522 705.41 362.46H707.41C707.41 359.238 706.72 356.237 705.561 353.686L703.74 354.514ZM705.41 362.46C705.41 369.127 699.74 374.88 692.11 374.88V376.88C700.761 376.88 707.41 370.313 707.41 362.46H705.41ZM692.11 374.88C685.925 374.88 681 371.392 678.731 366.03L676.89 366.81C679.461 372.888 685.096 376.88 692.11 376.88V374.88ZM678.731 366.03L667.731 340.07L665.89 340.85L676.89 366.81L678.731 366.03ZM666.81 339.46H604.33V341.46H666.81V339.46ZM603.41 340.07L592.41 366.03L594.251 366.81L605.251 340.85L603.41 340.07ZM592.41 366.03C590.138 371.4 585.208 374.88 579.25 374.88V376.88C586.053 376.88 591.683 372.88 594.251 366.81L592.41 366.03ZM579.25 374.88C571.6 374.88 565.73 369.107 565.73 362.46H563.73C563.73 370.333 570.621 376.88 579.25 376.88V374.88ZM565.73 362.46C565.73 359.568 566.558 356.853 567.621 354.514L565.8 353.686C564.663 356.187 563.73 359.192 563.73 362.46H565.73ZM567.625 354.506L622.185 231.526L620.356 230.714L565.796 353.694L567.625 354.506ZM622.195 231.501C623.692 227.866 625.526 225.284 627.709 223.608C629.878 221.944 632.461 221.12 635.57 221.12V219.12C632.08 219.12 629.053 220.056 626.492 222.022C623.945 223.976 621.929 226.894 620.346 230.739L622.195 231.501ZM635.57 221.12C638.678 221.12 641.265 221.944 643.464 223.612C645.679 225.292 647.569 227.882 649.176 231.524L651.005 230.716C649.312 226.878 647.242 223.968 644.672 222.018C642.086 220.056 639.063 219.12 635.57 219.12V221.12ZM649.176 231.526L703.736 354.506L705.565 353.694L651.005 230.714L649.176 231.526ZM614.45 317.92H656.69V315.92H614.45V317.92ZM657.611 316.529L636.491 266.809L634.65 267.591L655.77 317.311L657.611 316.529ZM634.65 266.809L613.53 316.529L615.371 317.311L636.491 267.591L634.65 266.809ZM829.887 241.24L829.068 240.667L829.063 240.674L829.887 241.24ZM785.227 306.36L784.403 305.794L784.227 306.05V306.36H785.227ZM755.967 306.36H756.967V306.05L756.792 305.794L755.967 306.36ZM711.307 241.24L712.132 240.674L712.126 240.667L711.307 241.24ZM733.527 225.84L734.359 225.285L734.344 225.262L734.327 225.24L733.527 225.84ZM770.487 281.28L769.655 281.835L770.485 283.079L771.318 281.837L770.487 281.28ZM807.667 225.84L806.843 225.273L806.837 225.283L807.667 225.84ZM818.447 221.34C825.396 221.34 831.087 226.853 831.087 233.76H833.087C833.087 225.707 826.458 219.34 818.447 219.34V221.34ZM831.087 233.76C831.087 236.45 830.472 238.661 829.068 240.667L830.706 241.813C832.383 239.419 833.087 236.79 833.087 233.76H831.087ZM829.063 240.674L784.403 305.794L786.052 306.926L830.712 241.806L829.063 240.674ZM784.227 306.36V362.24H786.227V306.36H784.227ZM784.227 362.24C784.227 369.569 777.895 375.54 770.487 375.54V377.54C778.92 377.54 786.227 370.751 786.227 362.24H784.227ZM770.487 375.54C763.31 375.54 756.967 369.578 756.967 362.24H754.967C754.967 370.742 762.265 377.54 770.487 377.54V375.54ZM756.967 362.24V306.36H754.967V362.24H756.967ZM756.792 305.794L712.132 240.674L710.483 241.806L755.143 306.926L756.792 305.794ZM712.126 240.667C710.723 238.661 710.107 236.45 710.107 233.76H708.107C708.107 236.79 708.812 239.419 710.488 241.813L712.126 240.667ZM710.107 233.76C710.107 226.843 715.589 221.34 722.747 221.34V219.34C714.506 219.34 708.107 225.717 708.107 233.76H710.107ZM722.747 221.34C726.815 221.34 730.265 223.157 732.727 226.44L734.327 225.24C731.509 221.483 727.48 219.34 722.747 219.34V221.34ZM732.695 226.395L769.655 281.835L771.319 280.725L734.359 225.285L732.695 226.395ZM771.318 281.837L808.498 226.397L806.837 225.283L769.657 280.723L771.318 281.837ZM808.491 226.407C810.712 223.176 814.354 221.34 818.447 221.34V219.34C813.74 219.34 809.462 221.464 806.843 225.273L808.491 226.407Z" fill="black" mask="url(#path-2-outside-1_516_2)"/>
</g>
<defs>
<linearGradient id="paint0_linear_516_2" x1="180" y1="181.5" x2="-5.6608e-06" y2="-29" gradientUnits="userSpaceOnUse">
<stop stop-color="#3D96FF"/>
<stop offset="1" stop-color="#3D96FF" stop-opacity="0.3"/>
</linearGradient>
<clipPath id="clip0_516_2">
<rect width="994" height="400" fill="white"/>
</clipPath>
</defs>
</svg>
