<svg width="180" height="180" viewBox="0 0 180 180" fill="none" xmlns="http://www.w3.org/2000/svg">
<rect width="180" height="180" fill="white"/>
<path d="M137.173 24.9968C132.928 23.0719 128.214 22 123.25 22H55.75C37.1104 22 22 37.1104 22 55.75V123.25C22 128.214 23.0719 132.928 24.9968 137.173L61.2026 100.968C61.1678 100.525 61.15 100.077 61.15 99.625V79.375C61.15 70.0552 68.7052 62.5 78.025 62.5H99.6702L137.173 24.9968Z" fill="url(#paint0_linear_503_33)"/>
<path d="M79.081 116.5H100.638C109.957 116.5 117.513 108.945 117.513 99.625V79.375C117.513 78.9511 117.497 78.5308 117.466 78.1148L153.925 41.6558C155.899 45.9449 157 50.7189 157 55.75V123.25C157 141.89 141.89 157 123.25 157H55.75C50.7189 157 45.9449 155.899 41.6558 153.925L79.081 116.5Z" fill="url(#paint1_linear_503_33)"/>
<defs>
<linearGradient id="paint0_linear_503_33" x1="82.75" y1="83.2562" x2="22" y2="12.2125" gradientUnits="userSpaceOnUse">
<stop stop-color="#3D96FF"/>
<stop offset="1" stop-color="#3D96FF" stop-opacity="0.3"/>
</linearGradient>
<linearGradient id="paint1_linear_503_33" x1="82.75" y1="83.2562" x2="22" y2="12.2125" gradientUnits="userSpaceOnUse">
<stop stop-color="#3D96FF"/>
<stop offset="1" stop-color="#3D96FF" stop-opacity="0.3"/>
</linearGradient>
</defs>
</svg>
