<svg width="425" height="600" viewBox="0 0 425 600" fill="none" xmlns="http://www.w3.org/2000/svg">
<rect width="424.26" height="600" fill="#636890"/>
<path d="M82.92 503.08H84.48V517.46C84.48 518.54 84.22 519.06 83.44 519.3C82.64 519.56 81.24 519.58 79.26 519.58C79.16 519.14 78.86 518.4 78.62 517.96C80.24 518.04 81.86 518.02 82.34 518C82.78 517.98 82.92 517.84 82.92 517.42V503.08ZM71.16 507.08H72.62V516.14H71.16V507.08ZM71.78 507.08H79.36V514.54H71.78V513.1H77.86V508.5H71.78V507.08ZM69.1 502.62H86.94V504.14H69.1V502.62ZM91.9 502.62H104.84V504.06H91.9V502.62ZM91.9 507.28H104.82V508.7H91.9V507.28ZM91.8 512.06H104.86V513.48H91.8V512.06ZM91.06 502.62H92.54V509.88C92.54 512.92 92.18 517.06 89.8 519.72C89.56 519.42 88.96 518.92 88.64 518.72C90.84 516.24 91.06 512.68 91.06 509.86V502.62ZM104.24 502.62H105.72V517.56C105.72 518.54 105.48 519 104.82 519.26C104.14 519.5 102.98 519.52 101.08 519.5C101.02 519.1 100.78 518.44 100.56 518.04C101.98 518.1 103.34 518.08 103.72 518.08C104.1 518.06 104.24 517.94 104.24 517.56V502.62ZM97.34 503.16H98.86V519.42H97.34V503.16ZM110.62 504.42H116.7V517.5H110.62V516.14H115.3V505.76H110.62V504.42ZM109.72 504.42H111.12V519.1H109.72V504.42ZM110.52 509.98H116.04V511.32H110.52V509.98ZM112.78 501.16L114.4 501.46C114 502.7 113.5 504.08 113.1 504.98L111.9 504.68C112.24 503.72 112.62 502.2 112.78 501.16ZM119.54 504.36H125.68V505.76H119.54V504.36ZM125.16 504.36H126.56C126.56 504.36 126.56 504.92 126.56 505.14C126.24 514.32 125.96 517.42 125.16 518.4C124.72 518.98 124.26 519.16 123.56 519.22C122.88 519.3 121.7 519.26 120.58 519.2C120.54 518.76 120.36 518.14 120.08 517.74C121.38 517.84 122.58 517.86 123.04 517.86C123.44 517.86 123.68 517.8 123.9 517.54C124.56 516.82 124.88 513.5 125.16 504.68V504.36ZM119.96 501.12L121.4 501.46C120.66 504.44 119.48 507.38 118.1 509.28C117.84 509.04 117.22 508.62 116.86 508.42C118.22 506.66 119.32 503.9 119.96 501.12ZM119.04 509.56L120.2 508.88C121.34 510.3 122.72 512.24 123.36 513.42L122.08 514.22C121.48 513 120.14 511.02 119.04 509.56ZM139.14 503H146.98V504.22H139.14V503ZM138.94 513.7H147.2V514.94H138.94V513.7ZM140.52 509.42V511.02H145.56V509.42H140.52ZM140.52 506.82V508.4H145.56V506.82H140.52ZM139.44 505.74H146.66V512.12H139.44V505.74ZM138.38 515.86C138.94 517.1 140 517.92 141.52 518C142.92 518.06 145.76 518.02 147.34 517.9C147.2 518.22 147 518.84 146.94 519.26C145.48 519.32 142.9 519.34 141.46 519.28C139.7 519.2 138.56 518.34 137.78 517.04C137.08 517.84 136.4 518.62 135.58 519.5L134.84 518.2C135.58 517.56 136.46 516.7 137.22 515.86H138.38ZM138.42 510.62V516.5H137.16V511.86H135.58V510.62H138.42ZM135.62 506.66L136.46 505.78C137.24 506.44 138.22 507.38 138.68 508.02L137.8 509C137.36 508.36 136.4 507.36 135.62 506.66ZM136.08 502.38L137 501.58C137.74 502.28 138.64 503.24 139.04 503.88L138.1 504.82C137.68 504.16 136.82 503.12 136.08 502.38ZM142.3 501.2H143.66V506.26H143.58V511.5H142.38V506.26H142.3V501.2ZM142.3 511.5H143.66V517.34H142.3V511.5ZM128.76 517.66C130.48 517.36 133.08 516.86 135.6 516.34L135.72 517.62C133.38 518.12 130.94 518.62 129.1 519L128.76 517.66ZM129.8 506.18H135.02V507.44H129.8V506.18ZM128.98 509.56H135.38V510.86H128.98V509.56ZM129.32 512.2L130.28 511.98C130.68 513.18 130.96 514.74 131.02 515.76L129.98 516.02C129.94 514.98 129.66 513.4 129.32 512.2ZM134.24 511.76L135.28 511.98C135 513.2 134.7 514.64 134.42 515.58L133.5 515.36C133.76 514.4 134.1 512.8 134.24 511.76ZM131.74 506.74H133V517.38L131.74 517.56V506.74ZM131.86 501.22H132.64V501.54H133.06V501.92C132.34 503.46 131.14 505.58 129.26 507.34C129.06 507.04 128.62 506.6 128.32 506.4C130.04 504.88 131.24 502.82 131.86 501.22ZM132.04 501.22H133.1C134.18 502.3 135.46 503.84 136.04 504.84L135.06 505.92C134.48 504.92 133.3 503.22 132.28 502.2H132.04V501.22ZM150.28 510.04C149.907 510.04 149.587 509.913 149.32 509.66C149.053 509.393 148.92 509.06 148.92 508.66C148.92 508.26 149.053 507.933 149.32 507.68C149.587 507.427 149.907 507.3 150.28 507.3C150.64 507.3 150.947 507.427 151.2 507.68C151.467 507.933 151.6 508.26 151.6 508.66C151.6 509.06 151.467 509.393 151.2 509.66C150.947 509.913 150.64 510.04 150.28 510.04ZM150.28 518.12C149.907 518.12 149.587 517.993 149.32 517.74C149.053 517.473 148.92 517.14 148.92 516.74C148.92 516.34 149.053 516.013 149.32 515.76C149.587 515.507 149.907 515.38 150.28 515.38C150.64 515.38 150.947 515.507 151.2 515.76C151.467 516.013 151.6 516.34 151.6 516.74C151.6 517.14 151.467 517.473 151.2 517.74C150.947 517.993 150.64 518.12 150.28 518.12Z" fill="white"/>
<path d="M176.144 507.379C175.778 507.17 175.308 507.17 174.89 507.379L171.966 509.102L169.982 510.198L167.11 511.922C166.744 512.131 166.274 512.131 165.856 511.922L163.611 510.564C163.245 510.355 162.984 509.937 162.984 509.467V506.856C162.984 506.439 163.193 506.021 163.611 505.76L165.856 504.454C166.222 504.245 166.692 504.245 167.11 504.454L169.355 505.812C169.721 506.021 169.982 506.439 169.982 506.909V508.632L171.966 507.483V505.708C171.966 505.29 171.757 504.872 171.339 504.611L167.162 502.157C166.796 501.948 166.326 501.948 165.909 502.157L161.627 504.663C161.209 504.872 161 505.29 161 505.708V510.616C161 511.034 161.209 511.452 161.627 511.713L165.856 514.167C166.222 514.376 166.692 514.376 167.11 514.167L169.982 512.496L171.966 511.347L174.838 509.676C175.204 509.467 175.674 509.467 176.091 509.676L178.337 510.982C178.702 511.191 178.963 511.608 178.963 512.078V514.689C178.963 515.107 178.755 515.525 178.337 515.786L176.144 517.091C175.778 517.3 175.308 517.3 174.89 517.091L172.645 515.786C172.279 515.577 172.018 515.159 172.018 514.689V513.018L170.034 514.167V515.89C170.034 516.308 170.243 516.726 170.661 516.987L174.89 519.441C175.256 519.65 175.726 519.65 176.144 519.441L180.373 516.987C180.739 516.778 181 516.36 181 515.89V510.93C181 510.512 180.791 510.094 180.373 509.833L176.144 507.379Z" fill="#8247E5"/>
<path d="M185.68 517V505.8H190.048C191.029 505.8 191.867 505.955 192.56 506.264C193.253 506.573 193.787 507.021 194.16 507.608C194.533 508.195 194.72 508.893 194.72 509.704C194.72 510.515 194.533 511.213 194.16 511.8C193.787 512.376 193.253 512.824 192.56 513.144C191.867 513.453 191.029 513.608 190.048 513.608H186.56L187.28 512.856V517H185.68ZM187.28 513.016L186.56 512.216H190C191.024 512.216 191.797 511.997 192.32 511.56C192.853 511.123 193.12 510.504 193.12 509.704C193.12 508.904 192.853 508.285 192.32 507.848C191.797 507.411 191.024 507.192 190 507.192H186.56L187.28 506.392V513.016ZM200.447 517.096C199.594 517.096 198.837 516.909 198.175 516.536C197.514 516.163 196.991 515.651 196.607 515C196.223 514.339 196.031 513.592 196.031 512.76C196.031 511.917 196.223 511.171 196.607 510.52C196.991 509.869 197.514 509.363 198.175 509C198.837 508.627 199.594 508.44 200.447 508.44C201.29 508.44 202.042 508.627 202.703 509C203.375 509.363 203.898 509.869 204.271 510.52C204.655 511.16 204.847 511.907 204.847 512.76C204.847 513.603 204.655 514.349 204.271 515C203.898 515.651 203.375 516.163 202.703 516.536C202.042 516.909 201.29 517.096 200.447 517.096ZM200.447 515.752C200.991 515.752 201.477 515.629 201.903 515.384C202.341 515.139 202.682 514.792 202.927 514.344C203.173 513.885 203.295 513.357 203.295 512.76C203.295 512.152 203.173 511.629 202.927 511.192C202.682 510.744 202.341 510.397 201.903 510.152C201.477 509.907 200.991 509.784 200.447 509.784C199.903 509.784 199.418 509.907 198.991 510.152C198.565 510.397 198.223 510.744 197.967 511.192C197.711 511.629 197.583 512.152 197.583 512.76C197.583 513.357 197.711 513.885 197.967 514.344C198.223 514.792 198.565 515.139 198.991 515.384C199.418 515.629 199.903 515.752 200.447 515.752ZM206.972 517V505.128H208.508V517H206.972ZM211.808 520.2C211.403 520.2 211.008 520.131 210.624 519.992C210.24 519.864 209.91 519.672 209.632 519.416L210.288 518.264C210.502 518.467 210.736 518.621 210.992 518.728C211.248 518.835 211.52 518.888 211.808 518.888C212.182 518.888 212.491 518.792 212.736 518.6C212.982 518.408 213.211 518.067 213.424 517.576L213.952 516.408L214.112 516.216L217.44 508.52H218.944L214.832 517.848C214.587 518.445 214.31 518.915 214 519.256C213.702 519.597 213.371 519.837 213.008 519.976C212.646 520.125 212.246 520.2 211.808 520.2ZM213.824 517.272L209.952 508.52H211.552L214.848 516.072L213.824 517.272ZM223.856 520.2C223.077 520.2 222.32 520.088 221.584 519.864C220.858 519.651 220.266 519.341 219.808 518.936L220.544 517.752C220.938 518.093 221.424 518.36 222 518.552C222.576 518.755 223.178 518.856 223.808 518.856C224.81 518.856 225.546 518.621 226.016 518.152C226.485 517.683 226.72 516.968 226.72 516.008V514.216L226.88 512.536L226.8 510.84V508.52H228.256V515.848C228.256 517.341 227.882 518.44 227.135 519.144C226.389 519.848 225.296 520.2 223.856 520.2ZM223.664 516.648C222.842 516.648 222.106 516.477 221.456 516.136C220.816 515.784 220.304 515.299 219.92 514.68C219.546 514.061 219.36 513.347 219.36 512.536C219.36 511.715 219.546 511 219.92 510.392C220.304 509.773 220.816 509.293 221.456 508.952C222.106 508.611 222.842 508.44 223.664 508.44C224.389 508.44 225.05 508.589 225.648 508.888C226.245 509.176 226.72 509.624 227.072 510.232C227.434 510.84 227.616 511.608 227.616 512.536C227.616 513.453 227.434 514.216 227.072 514.824C226.72 515.432 226.245 515.891 225.648 516.2C225.05 516.499 224.389 516.648 223.664 516.648ZM223.84 515.304C224.405 515.304 224.906 515.187 225.344 514.952C225.781 514.717 226.122 514.392 226.368 513.976C226.624 513.56 226.752 513.08 226.752 512.536C226.752 511.992 226.624 511.512 226.368 511.096C226.122 510.68 225.781 510.36 225.344 510.136C224.906 509.901 224.405 509.784 223.84 509.784C223.274 509.784 222.768 509.901 222.32 510.136C221.882 510.36 221.536 510.68 221.28 511.096C221.034 511.512 220.912 511.992 220.912 512.536C220.912 513.08 221.034 513.56 221.28 513.976C221.536 514.392 221.882 514.717 222.32 514.952C222.768 515.187 223.274 515.304 223.84 515.304ZM234.822 517.096C233.969 517.096 233.212 516.909 232.55 516.536C231.889 516.163 231.366 515.651 230.982 515C230.598 514.339 230.406 513.592 230.406 512.76C230.406 511.917 230.598 511.171 230.982 510.52C231.366 509.869 231.889 509.363 232.55 509C233.212 508.627 233.969 508.44 234.822 508.44C235.665 508.44 236.417 508.627 237.078 509C237.75 509.363 238.273 509.869 238.646 510.52C239.03 511.16 239.222 511.907 239.222 512.76C239.222 513.603 239.03 514.349 238.646 515C238.273 515.651 237.75 516.163 237.078 516.536C236.417 516.909 235.665 517.096 234.822 517.096ZM234.822 515.752C235.366 515.752 235.852 515.629 236.278 515.384C236.716 515.139 237.057 514.792 237.302 514.344C237.548 513.885 237.67 513.357 237.67 512.76C237.67 512.152 237.548 511.629 237.302 511.192C237.057 510.744 236.716 510.397 236.278 510.152C235.852 509.907 235.366 509.784 234.822 509.784C234.278 509.784 233.793 509.907 233.366 510.152C232.94 510.397 232.598 510.744 232.342 511.192C232.086 511.629 231.958 512.152 231.958 512.76C231.958 513.357 232.086 513.885 232.342 514.344C232.598 514.792 232.94 515.139 233.366 515.384C233.793 515.629 234.278 515.752 234.822 515.752ZM245.875 508.44C246.568 508.44 247.176 508.573 247.699 508.84C248.232 509.107 248.648 509.512 248.947 510.056C249.245 510.6 249.395 511.288 249.395 512.12V517H247.859V512.296C247.859 511.475 247.656 510.856 247.251 510.44C246.856 510.024 246.296 509.816 245.571 509.816C245.027 509.816 244.552 509.923 244.147 510.136C243.741 510.349 243.427 510.664 243.203 511.08C242.989 511.496 242.883 512.013 242.883 512.632V517H241.347V508.52H242.819V510.808L242.579 510.2C242.856 509.645 243.283 509.213 243.859 508.904C244.435 508.595 245.107 508.44 245.875 508.44Z" fill="white"/>
<path d="M269.017 522C274.602 522 279.035 517.487 279.035 512C279.035 506.425 274.513 502 269.017 502C263.432 502 259 506.513 259 512C259 517.487 263.521 522 269.017 522Z" fill="#2C374B"/>
<path fill-rule="evenodd" clip-rule="evenodd" d="M274.513 508.372C274.425 508.283 270.081 505.717 269.549 505.54C269.372 505.451 268.929 505.363 268.663 505.451C268.397 505.54 263.787 508.195 263.61 508.372C263.521 508.46 263.432 508.637 263.344 508.726C263.255 508.903 263.255 508.991 263.255 512.088V515.274L263.876 515.628C264.23 515.805 264.496 515.982 264.496 515.982C264.585 515.982 268.751 509.345 268.751 509.257C268.751 509.168 267.776 509.168 267.51 509.257C267.156 509.345 266.89 509.522 266.712 509.699C266.624 509.788 266.092 510.673 265.383 511.646C264.762 512.619 264.23 513.504 264.23 513.504C264.23 513.504 264.23 512.619 264.23 511.381V509.168L264.319 509.08C264.496 508.903 269.017 506.336 269.195 506.336C269.283 506.336 269.372 506.336 270.436 506.956C270.79 507.133 271.765 507.664 272.563 508.195C273.361 508.637 274.07 509.08 274.159 509.168L274.248 509.257V513.858L272.031 510.407C271.943 510.23 271.854 510.053 271.765 509.965C271.765 509.965 271.677 510.142 271.145 511.027C271.056 511.115 270.968 511.292 270.968 511.381L270.879 511.558L270.968 511.646L271.056 511.735C271.056 511.735 271.056 511.823 271.145 511.823L271.322 512.088C271.322 512.088 271.322 512.177 271.411 512.177C271.499 512.265 271.588 512.442 271.588 512.531C271.588 512.531 271.588 512.531 271.588 512.619L273.45 515.628L273.272 515.717C273.184 515.805 273.095 515.805 273.006 515.805L270.702 512.265L270.613 512.177L270.436 512.531L269.549 513.947L271.322 516.779C271.056 516.956 269.549 518.018 269.461 518.018C269.372 518.018 267.333 516.69 267.422 516.602C267.422 516.602 268.042 515.54 268.751 514.301C269.372 513.239 270.17 511.912 270.702 511.027C271.322 509.965 271.588 509.434 271.588 509.434C271.588 509.434 271.145 509.434 270.613 509.434H269.726L267.688 512.796C266.978 514.035 266.269 515.186 265.915 515.805C265.294 515.894 265.117 516.071 265.117 516.071L265.028 516.248L266.624 517.133C267.51 517.664 268.308 518.106 268.485 518.195C268.751 518.372 269.195 518.372 269.372 518.372C269.549 518.283 274.159 515.628 274.425 515.451C274.513 515.363 274.602 515.274 274.691 515.097L274.779 514.832V511.912V508.991L274.691 508.814C274.691 508.637 274.513 508.46 274.513 508.372Z" fill="white"/>
<path d="M274.07 513.77L271.411 509.699L270.436 511.292L273.006 515.451L274.159 514.92L274.07 513.77Z" fill="#24A2EE"/>
<path d="M272.829 515.982L270.17 511.911L269.017 513.681L271.145 517.044L272.475 516.513L272.829 515.982Z" fill="#24A2EE"/>
<path fill-rule="evenodd" clip-rule="evenodd" d="M264.142 509.168L269.017 506.336L273.893 509.168V514.832L269.017 517.664L265.383 515.628L264.939 516.425L268.929 518.726C269.017 518.814 269.106 518.814 269.195 518.726L274.779 515.54C274.868 515.451 274.957 515.363 274.957 515.274V508.903C274.957 508.814 274.868 508.726 274.779 508.637L269.195 505.451C269.106 505.363 269.017 505.363 268.929 505.451L263.344 508.549C263.255 508.637 263.167 508.726 263.167 508.814V515.186C263.167 515.274 263.255 515.363 263.344 515.451L264.496 516.071L265.028 515.274L264.23 514.832V509.168H264.142Z" fill="#98BCDC"/>
<path d="M271.145 509.168H269.283L264.939 516.248L266.446 517.133L271.145 509.168Z" fill="white"/>
<path d="M266.446 509.876C266.89 509.168 268.131 509.168 268.663 509.257L264.408 516.071C264.23 515.982 263.876 515.805 263.61 515.628C263.255 515.451 263.167 515.451 263.167 515.186V514.832C264.142 513.416 266.003 510.584 266.446 509.876Z" fill="white"/>
<path d="M270.984 541L276.056 529.8H277.64L282.728 541H281.048L276.52 530.696H277.16L272.632 541H270.984ZM273.144 538.2L273.576 536.92H279.88L280.344 538.2H273.144ZM285.961 541L282.249 532.52H283.849L287.145 540.2H286.377L289.737 532.52H291.241L287.529 541H285.961ZM297.673 541V539.208L297.593 538.872V535.816C297.593 535.165 297.401 534.664 297.017 534.312C296.644 533.949 296.078 533.768 295.321 533.768C294.82 533.768 294.329 533.853 293.849 534.024C293.369 534.184 292.964 534.403 292.633 534.68L291.993 533.528C292.43 533.176 292.953 532.909 293.561 532.728C294.18 532.536 294.825 532.44 295.497 532.44C296.66 532.44 297.556 532.723 298.185 533.288C298.814 533.853 299.129 534.717 299.129 535.88V541H297.673ZM294.889 541.096C294.26 541.096 293.705 540.989 293.225 540.776C292.756 540.563 292.393 540.269 292.137 539.896C291.881 539.512 291.753 539.08 291.753 538.6C291.753 538.141 291.86 537.725 292.073 537.352C292.297 536.979 292.654 536.68 293.145 536.456C293.646 536.232 294.318 536.12 295.161 536.12H297.849V537.224H295.225C294.457 537.224 293.94 537.352 293.673 537.608C293.406 537.864 293.273 538.173 293.273 538.536C293.273 538.952 293.438 539.288 293.769 539.544C294.1 539.789 294.558 539.912 295.145 539.912C295.721 539.912 296.222 539.784 296.649 539.528C297.086 539.272 297.401 538.899 297.593 538.408L297.897 539.464C297.694 539.965 297.337 540.365 296.825 540.664C296.313 540.952 295.668 541.096 294.889 541.096ZM301.972 541V529.128H303.508V541H301.972ZM311.704 541V539.208L311.624 538.872V535.816C311.624 535.165 311.432 534.664 311.048 534.312C310.675 533.949 310.11 533.768 309.352 533.768C308.851 533.768 308.36 533.853 307.88 534.024C307.4 534.184 306.995 534.403 306.664 534.68L306.024 533.528C306.462 533.176 306.984 532.909 307.592 532.728C308.211 532.536 308.856 532.44 309.528 532.44C310.691 532.44 311.587 532.723 312.216 533.288C312.846 533.853 313.16 534.717 313.16 535.88V541H311.704ZM308.92 541.096C308.291 541.096 307.736 540.989 307.256 540.776C306.787 540.563 306.424 540.269 306.168 539.896C305.912 539.512 305.784 539.08 305.784 538.6C305.784 538.141 305.891 537.725 306.104 537.352C306.328 536.979 306.686 536.68 307.176 536.456C307.678 536.232 308.35 536.12 309.192 536.12H311.88V537.224H309.256C308.488 537.224 307.971 537.352 307.704 537.608C307.438 537.864 307.304 538.173 307.304 538.536C307.304 538.952 307.47 539.288 307.8 539.544C308.131 539.789 308.59 539.912 309.176 539.912C309.752 539.912 310.254 539.784 310.68 539.528C311.118 539.272 311.432 538.899 311.624 538.408L311.928 539.464C311.726 539.965 311.368 540.365 310.856 540.664C310.344 540.952 309.699 541.096 308.92 541.096ZM320.531 532.44C321.224 532.44 321.832 532.573 322.355 532.84C322.888 533.107 323.304 533.512 323.603 534.056C323.902 534.6 324.051 535.288 324.051 536.12V541H322.515V536.296C322.515 535.475 322.312 534.856 321.907 534.44C321.512 534.024 320.952 533.816 320.227 533.816C319.683 533.816 319.208 533.923 318.803 534.136C318.398 534.349 318.083 534.664 317.859 535.08C317.646 535.496 317.539 536.013 317.539 536.632V541H316.003V532.52H317.475V534.808L317.235 534.2C317.512 533.645 317.939 533.213 318.515 532.904C319.091 532.595 319.763 532.44 320.531 532.44ZM330.59 541.096C329.726 541.096 328.952 540.909 328.27 540.536C327.598 540.163 327.07 539.651 326.686 539C326.302 538.349 326.11 537.603 326.11 536.76C326.11 535.917 326.302 535.171 326.686 534.52C327.07 533.869 327.598 533.363 328.27 533C328.952 532.627 329.726 532.44 330.59 532.44C331.358 532.44 332.04 532.595 332.638 532.904C333.246 533.203 333.715 533.651 334.046 534.248L332.878 535C332.6 534.584 332.259 534.28 331.854 534.088C331.459 533.885 331.032 533.784 330.574 533.784C330.019 533.784 329.523 533.907 329.086 534.152C328.648 534.397 328.302 534.744 328.046 535.192C327.79 535.629 327.662 536.152 327.662 536.76C327.662 537.368 327.79 537.896 328.046 538.344C328.302 538.792 328.648 539.139 329.086 539.384C329.523 539.629 330.019 539.752 330.574 539.752C331.032 539.752 331.459 539.656 331.854 539.464C332.259 539.261 332.6 538.952 332.878 538.536L334.046 539.272C333.715 539.859 333.246 540.312 332.638 540.632C332.04 540.941 331.358 541.096 330.59 541.096ZM340.453 532.44C341.146 532.44 341.754 532.573 342.277 532.84C342.81 533.107 343.226 533.512 343.525 534.056C343.823 534.6 343.973 535.288 343.973 536.12V541H342.437V536.296C342.437 535.475 342.234 534.856 341.829 534.44C341.434 534.024 340.874 533.816 340.149 533.816C339.605 533.816 339.13 533.923 338.725 534.136C338.319 534.349 338.005 534.664 337.781 535.08C337.567 535.496 337.461 536.013 337.461 536.632V541H335.925V529.128H337.461V534.808L337.157 534.2C337.434 533.645 337.861 533.213 338.437 532.904C339.013 532.595 339.685 532.44 340.453 532.44ZM350.591 541.096C349.685 541.096 348.885 540.909 348.191 540.536C347.509 540.163 346.975 539.651 346.591 539C346.218 538.349 346.031 537.603 346.031 536.76C346.031 535.917 346.213 535.171 346.575 534.52C346.949 533.869 347.455 533.363 348.095 533C348.746 532.627 349.477 532.44 350.287 532.44C351.109 532.44 351.834 532.621 352.463 532.984C353.093 533.347 353.583 533.859 353.935 534.52C354.298 535.171 354.479 535.933 354.479 536.808C354.479 536.872 354.474 536.947 354.463 537.032C354.463 537.117 354.458 537.197 354.447 537.272H347.231V536.168H353.647L353.023 536.552C353.034 536.008 352.922 535.523 352.687 535.096C352.453 534.669 352.127 534.339 351.711 534.104C351.306 533.859 350.831 533.736 350.287 533.736C349.754 533.736 349.279 533.859 348.863 534.104C348.447 534.339 348.122 534.675 347.887 535.112C347.653 535.539 347.535 536.029 347.535 536.584V536.84C347.535 537.405 347.663 537.912 347.919 538.36C348.186 538.797 348.554 539.139 349.023 539.384C349.493 539.629 350.031 539.752 350.639 539.752C351.141 539.752 351.594 539.667 351.999 539.496C352.415 539.325 352.778 539.069 353.087 538.728L353.935 539.72C353.551 540.168 353.071 540.509 352.495 540.744C351.93 540.979 351.295 541.096 350.591 541.096Z" fill="white"/>
<path d="M72.6664 528.083L78 525L83.3336 528.083L81.3336 529.166L78 527.25L74.5832 529.166L72.6664 528.083ZM83.2496 531.917L81.3328 530.834L78 532.75L74.5832 530.834L72.6664 531.917V534.167L76 536.084V540.001L77.9168 541.167L79.8336 540.001V536.167L83.1672 534.25V531.917H83.2496ZM83.2496 538.083V535.834L81.3336 537V539.166L83.2496 538.083ZM84.6664 538.834L81.3328 540.75V543L86.6664 539.917V533.75L84.6664 535V538.834ZM82.7504 530L84.6672 531.166V533.417L86.584 532.25V530L84.6672 528.834L82.7504 530ZM76 541.583V543.833L77.9168 544.999L79.8336 543.833V541.583L77.9168 542.75L76 541.583ZM72.6664 538.083L74.5832 539.166V536.917L72.6664 535.75V538.083ZM76 530L77.9168 531.166L79.9168 530L78 528.834L76 530ZM71.2496 531.166L73.2496 530L71.2496 528.834L69.3336 530V532.25L71.2504 533.416V531.166H71.2496ZM71.2496 535L69.3328 533.834V540L74.6664 543.083V540.834L71.3328 538.917V535H71.2496Z" fill="#F0B90B"/>
<path d="M144 545C149.523 545 154 540.523 154 535C154 529.477 149.523 525 144 525C138.477 525 134 529.477 134 535C134 540.523 138.477 545 144 545Z" fill="#FF0420"/>
<path d="M141.084 537.656C140.488 537.656 140 537.516 139.62 537.236C139.244 536.952 139.056 536.544 139.056 536.02C139.056 535.908 139.068 535.776 139.092 535.616C139.156 535.256 139.248 534.824 139.368 534.316C139.708 532.94 140.588 532.252 142.004 532.252C142.388 532.252 142.736 532.316 143.04 532.448C143.344 532.572 143.584 532.764 143.76 533.02C143.936 533.272 144.024 533.572 144.024 533.92C144.024 534.024 144.012 534.156 143.988 534.316C143.912 534.76 143.824 535.196 143.716 535.616C143.54 536.3 143.24 536.816 142.808 537.156C142.38 537.492 141.804 537.656 141.084 537.656ZM141.192 536.576C141.472 536.576 141.708 536.492 141.904 536.328C142.104 536.164 142.248 535.912 142.332 535.568C142.448 535.096 142.536 534.688 142.596 534.336C142.616 534.232 142.628 534.124 142.628 534.012C142.628 533.556 142.392 533.328 141.916 533.328C141.636 533.328 141.396 533.412 141.196 533.576C141 533.74 140.86 533.992 140.776 534.336C140.684 534.672 140.596 535.08 140.504 535.568C140.484 535.668 140.472 535.772 140.472 535.884C140.468 536.348 140.712 536.576 141.192 536.576Z" fill="white"/>
<path d="M144.372 537.584C144.316 537.584 144.276 537.568 144.244 537.532C144.22 537.492 144.212 537.448 144.22 537.396L145.256 532.516C145.264 532.46 145.292 532.416 145.34 532.38C145.384 532.344 145.432 532.328 145.484 532.328H147.48C148.036 532.328 148.48 532.444 148.816 532.672C149.156 532.904 149.328 533.236 149.328 533.672C149.328 533.796 149.312 533.928 149.284 534.064C149.16 534.64 148.908 535.064 148.524 535.34C148.148 535.616 147.632 535.752 146.976 535.752H145.964L145.62 537.396C145.608 537.452 145.584 537.496 145.536 537.532C145.492 537.568 145.444 537.584 145.392 537.584H144.372ZM147.028 534.716C147.24 534.716 147.42 534.66 147.576 534.544C147.736 534.428 147.84 534.264 147.892 534.048C147.908 533.964 147.916 533.888 147.916 533.824C147.916 533.68 147.872 533.568 147.788 533.492C147.704 533.412 147.556 533.372 147.352 533.372H146.452L146.168 534.716H147.028Z" fill="white"/>
<path d="M92.68 541V529.8H97.704C98.9947 529.8 99.9867 530.061 100.68 530.584C101.373 531.096 101.72 531.8 101.72 532.696C101.72 533.304 101.581 533.816 101.304 534.232C101.037 534.648 100.675 534.968 100.216 535.192C99.7573 535.416 99.2613 535.528 98.728 535.528L99.016 535.048C99.656 535.048 100.221 535.16 100.712 535.384C101.203 535.608 101.592 535.939 101.88 536.376C102.168 536.803 102.312 537.336 102.312 537.976C102.312 538.936 101.949 539.683 101.224 540.216C100.509 540.739 99.4427 541 98.024 541H92.68ZM94.28 539.704H97.96C98.8453 539.704 99.5227 539.555 99.992 539.256C100.461 538.957 100.696 538.488 100.696 537.848C100.696 537.197 100.461 536.723 99.992 536.424C99.5227 536.125 98.8453 535.976 97.96 535.976H94.136V534.68H97.56C98.3707 534.68 99 534.531 99.448 534.232C99.896 533.933 100.12 533.485 100.12 532.888C100.12 532.291 99.896 531.843 99.448 531.544C99 531.245 98.3707 531.096 97.56 531.096H94.28V539.704ZM108.053 541.128C107.2 541.128 106.384 541 105.605 540.744C104.827 540.477 104.213 540.136 103.765 539.72L104.357 538.472C104.784 538.845 105.328 539.155 105.989 539.4C106.651 539.645 107.339 539.768 108.053 539.768C108.704 539.768 109.232 539.693 109.637 539.544C110.043 539.395 110.341 539.192 110.533 538.936C110.725 538.669 110.821 538.371 110.821 538.04C110.821 537.656 110.693 537.347 110.437 537.112C110.192 536.877 109.867 536.691 109.461 536.552C109.067 536.403 108.629 536.275 108.149 536.168C107.669 536.061 107.184 535.939 106.693 535.8C106.213 535.651 105.771 535.464 105.365 535.24C104.971 535.016 104.651 534.717 104.405 534.344C104.16 533.96 104.037 533.469 104.037 532.872C104.037 532.296 104.187 531.768 104.485 531.288C104.795 530.797 105.264 530.408 105.893 530.12C106.533 529.821 107.344 529.672 108.325 529.672C108.976 529.672 109.621 529.757 110.261 529.928C110.901 530.099 111.456 530.344 111.925 530.664L111.397 531.944C110.917 531.624 110.411 531.395 109.877 531.256C109.344 531.107 108.827 531.032 108.325 531.032C107.696 531.032 107.179 531.112 106.773 531.272C106.368 531.432 106.069 531.645 105.877 531.912C105.696 532.179 105.605 532.477 105.605 532.808C105.605 533.203 105.728 533.517 105.973 533.752C106.229 533.987 106.555 534.173 106.949 534.312C107.355 534.451 107.797 534.579 108.277 534.696C108.757 534.803 109.237 534.925 109.717 535.064C110.208 535.203 110.651 535.384 111.045 535.608C111.451 535.832 111.776 536.131 112.021 536.504C112.267 536.877 112.389 537.357 112.389 537.944C112.389 538.509 112.235 539.037 111.925 539.528C111.616 540.008 111.136 540.397 110.485 540.696C109.845 540.984 109.035 541.128 108.053 541.128ZM119.735 541.128C118.882 541.128 118.092 540.989 117.367 540.712C116.652 540.424 116.028 540.024 115.495 539.512C114.972 538.989 114.562 538.381 114.263 537.688C113.964 536.995 113.815 536.232 113.815 535.4C113.815 534.568 113.964 533.805 114.263 533.112C114.562 532.419 114.978 531.816 115.511 531.304C116.044 530.781 116.668 530.381 117.383 530.104C118.108 529.816 118.898 529.672 119.751 529.672C120.615 529.672 121.41 529.821 122.135 530.12C122.871 530.408 123.495 530.84 124.007 531.416L122.967 532.424C122.54 531.976 122.06 531.645 121.527 531.432C120.994 531.208 120.423 531.096 119.815 531.096C119.186 531.096 118.599 531.203 118.055 531.416C117.522 531.629 117.058 531.928 116.663 532.312C116.268 532.696 115.959 533.155 115.735 533.688C115.522 534.211 115.415 534.781 115.415 535.4C115.415 536.019 115.522 536.595 115.735 537.128C115.959 537.651 116.268 538.104 116.663 538.488C117.058 538.872 117.522 539.171 118.055 539.384C118.599 539.597 119.186 539.704 119.815 539.704C120.423 539.704 120.994 539.597 121.527 539.384C122.06 539.16 122.54 538.819 122.967 538.36L124.007 539.368C123.495 539.944 122.871 540.381 122.135 540.68C121.41 540.979 120.61 541.128 119.735 541.128Z" fill="white"/>
<path d="M163.736 541.128C162.883 541.128 162.088 540.984 161.352 540.696C160.627 540.408 159.997 540.008 159.464 539.496C158.931 538.973 158.515 538.365 158.216 537.672C157.917 536.979 157.768 536.221 157.768 535.4C157.768 534.579 157.917 533.821 158.216 533.128C158.515 532.435 158.931 531.832 159.464 531.32C159.997 530.797 160.627 530.392 161.352 530.104C162.077 529.816 162.872 529.672 163.736 529.672C164.589 529.672 165.373 529.816 166.088 530.104C166.813 530.381 167.443 530.781 167.976 531.304C168.52 531.816 168.936 532.419 169.224 533.112C169.523 533.805 169.672 534.568 169.672 535.4C169.672 536.232 169.523 536.995 169.224 537.688C168.936 538.381 168.52 538.989 167.976 539.512C167.443 540.024 166.813 540.424 166.088 540.712C165.373 540.989 164.589 541.128 163.736 541.128ZM163.736 539.704C164.355 539.704 164.925 539.597 165.448 539.384C165.981 539.171 166.44 538.872 166.824 538.488C167.219 538.093 167.523 537.635 167.736 537.112C167.96 536.589 168.072 536.019 168.072 535.4C168.072 534.781 167.96 534.211 167.736 533.688C167.523 533.165 167.219 532.712 166.824 532.328C166.44 531.933 165.981 531.629 165.448 531.416C164.925 531.203 164.355 531.096 163.736 531.096C163.107 531.096 162.525 531.203 161.992 531.416C161.469 531.629 161.011 531.933 160.616 532.328C160.221 532.712 159.912 533.165 159.688 533.688C159.475 534.211 159.368 534.781 159.368 535.4C159.368 536.019 159.475 536.589 159.688 537.112C159.912 537.635 160.221 538.093 160.616 538.488C161.011 538.872 161.469 539.171 161.992 539.384C162.525 539.597 163.107 539.704 163.736 539.704ZM176.39 541.096C175.686 541.096 175.04 540.936 174.454 540.616C173.878 540.285 173.414 539.8 173.062 539.16C172.72 538.52 172.549 537.72 172.549 536.76C172.549 535.8 172.715 535 173.046 534.36C173.387 533.72 173.846 533.24 174.422 532.92C175.008 532.6 175.664 532.44 176.39 532.44C177.222 532.44 177.958 532.621 178.598 532.984C179.238 533.347 179.744 533.853 180.118 534.504C180.491 535.144 180.678 535.896 180.678 536.76C180.678 537.624 180.491 538.381 180.118 539.032C179.744 539.683 179.238 540.189 178.598 540.552C177.958 540.915 177.222 541.096 176.39 541.096ZM171.894 544.104V532.52H173.366V534.808L173.27 536.776L173.43 538.744V544.104H171.894ZM176.262 539.752C176.806 539.752 177.291 539.629 177.718 539.384C178.155 539.139 178.496 538.792 178.742 538.344C178.998 537.885 179.126 537.357 179.126 536.76C179.126 536.152 178.998 535.629 178.742 535.192C178.496 534.744 178.155 534.397 177.718 534.152C177.291 533.907 176.806 533.784 176.262 533.784C175.728 533.784 175.243 533.907 174.806 534.152C174.379 534.397 174.038 534.744 173.782 535.192C173.536 535.629 173.414 536.152 173.414 536.76C173.414 537.357 173.536 537.885 173.782 538.344C174.038 538.792 174.379 539.139 174.806 539.384C175.243 539.629 175.728 539.752 176.262 539.752ZM185.712 541.096C184.858 541.096 184.197 540.867 183.728 540.408C183.258 539.949 183.024 539.293 183.024 538.44V530.664H184.56V538.376C184.56 538.835 184.672 539.187 184.896 539.432C185.13 539.677 185.461 539.8 185.888 539.8C186.368 539.8 186.768 539.667 187.088 539.4L187.568 540.504C187.333 540.707 187.05 540.856 186.72 540.952C186.4 541.048 186.064 541.096 185.712 541.096ZM181.584 533.784V532.52H186.992V533.784H181.584ZM189.425 541V532.52H190.961V541H189.425ZM190.193 530.888C189.894 530.888 189.643 530.792 189.441 530.6C189.249 530.408 189.153 530.173 189.153 529.896C189.153 529.608 189.249 529.368 189.441 529.176C189.643 528.984 189.894 528.888 190.193 528.888C190.491 528.888 190.737 528.984 190.929 529.176C191.131 529.357 191.233 529.587 191.233 529.864C191.233 530.152 191.137 530.397 190.945 530.6C190.753 530.792 190.502 530.888 190.193 530.888ZM204.502 532.44C205.184 532.44 205.787 532.573 206.31 532.84C206.832 533.107 207.238 533.512 207.526 534.056C207.824 534.6 207.974 535.288 207.974 536.12V541H206.438V536.296C206.438 535.475 206.246 534.856 205.862 534.44C205.478 534.024 204.939 533.816 204.246 533.816C203.734 533.816 203.286 533.923 202.902 534.136C202.518 534.349 202.219 534.664 202.006 535.08C201.803 535.496 201.702 536.013 201.702 536.632V541H200.166V536.296C200.166 535.475 199.974 534.856 199.59 534.44C199.216 534.024 198.678 533.816 197.974 533.816C197.472 533.816 197.03 533.923 196.646 534.136C196.262 534.349 195.963 534.664 195.75 535.08C195.536 535.496 195.43 536.013 195.43 536.632V541H193.894V532.52H195.366V534.776L195.126 534.2C195.392 533.645 195.803 533.213 196.358 532.904C196.912 532.595 197.558 532.44 198.294 532.44C199.104 532.44 199.803 532.643 200.39 533.048C200.976 533.443 201.36 534.045 201.542 534.856L200.918 534.6C201.174 533.949 201.622 533.427 202.262 533.032C202.902 532.637 203.648 532.44 204.502 532.44ZM210.8 541V532.52H212.336V541H210.8ZM211.568 530.888C211.269 530.888 211.018 530.792 210.816 530.6C210.624 530.408 210.528 530.173 210.528 529.896C210.528 529.608 210.624 529.368 210.816 529.176C211.018 528.984 211.269 528.888 211.568 528.888C211.866 528.888 212.112 528.984 212.304 529.176C212.506 529.357 212.608 529.587 212.608 529.864C212.608 530.152 212.512 530.397 212.32 530.6C212.128 530.792 211.877 530.888 211.568 530.888ZM217.701 541.096C216.997 541.096 216.325 541 215.685 540.808C215.055 540.616 214.559 540.381 214.197 540.104L214.837 538.888C215.199 539.133 215.647 539.341 216.181 539.512C216.714 539.683 217.258 539.768 217.812 539.768C218.527 539.768 219.039 539.667 219.349 539.464C219.669 539.261 219.829 538.979 219.829 538.616C219.829 538.349 219.733 538.141 219.541 537.992C219.349 537.843 219.093 537.731 218.773 537.656C218.463 537.581 218.117 537.517 217.733 537.464C217.349 537.4 216.965 537.325 216.581 537.24C216.197 537.144 215.845 537.016 215.525 536.856C215.205 536.685 214.949 536.456 214.757 536.168C214.565 535.869 214.469 535.475 214.469 534.984C214.469 534.472 214.613 534.024 214.901 533.64C215.189 533.256 215.594 532.963 216.117 532.76C216.65 532.547 217.279 532.44 218.005 532.44C218.559 532.44 219.119 532.509 219.685 532.648C220.261 532.776 220.73 532.963 221.093 533.208L220.437 534.424C220.053 534.168 219.653 533.992 219.237 533.896C218.821 533.8 218.405 533.752 217.989 533.752C217.317 533.752 216.815 533.864 216.485 534.088C216.154 534.301 215.989 534.579 215.989 534.92C215.989 535.208 216.085 535.432 216.277 535.592C216.479 535.741 216.735 535.859 217.045 535.944C217.365 536.029 217.717 536.104 218.101 536.168C218.485 536.221 218.869 536.296 219.253 536.392C219.637 536.477 219.983 536.6 220.293 536.76C220.613 536.92 220.869 537.144 221.061 537.432C221.263 537.72 221.365 538.104 221.365 538.584C221.365 539.096 221.215 539.539 220.917 539.912C220.618 540.285 220.197 540.579 219.653 540.792C219.109 540.995 218.458 541.096 217.701 541.096ZM233.892 532.44C234.575 532.44 235.177 532.573 235.7 532.84C236.223 533.107 236.628 533.512 236.916 534.056C237.215 534.6 237.364 535.288 237.364 536.12V541H235.828V536.296C235.828 535.475 235.636 534.856 235.252 534.44C234.868 534.024 234.329 533.816 233.636 533.816C233.124 533.816 232.676 533.923 232.292 534.136C231.908 534.349 231.609 534.664 231.396 535.08C231.193 535.496 231.092 536.013 231.092 536.632V541H229.556V536.296C229.556 535.475 229.364 534.856 228.98 534.44C228.607 534.024 228.068 533.816 227.364 533.816C226.863 533.816 226.42 533.923 226.036 534.136C225.652 534.349 225.353 534.664 225.14 535.08C224.927 535.496 224.82 536.013 224.82 536.632V541H223.284V532.52H224.756V534.776L224.516 534.2C224.783 533.645 225.193 533.213 225.748 532.904C226.303 532.595 226.948 532.44 227.684 532.44C228.495 532.44 229.193 532.643 229.78 533.048C230.367 533.443 230.751 534.045 230.932 534.856L230.308 534.6C230.564 533.949 231.012 533.427 231.652 533.032C232.292 532.637 233.039 532.44 233.892 532.44Z" fill="white"/>
<path d="M280.984 518L286.056 506.8H287.64L292.728 518H291.048L286.52 507.696H287.16L282.632 518H280.984ZM283.144 515.2L283.576 513.92H289.88L290.344 515.2H283.144ZM294.175 518V509.52H295.647V511.824L295.503 511.248C295.737 510.661 296.132 510.213 296.687 509.904C297.241 509.595 297.924 509.44 298.735 509.44V510.928C298.671 510.917 298.607 510.912 298.543 510.912C298.489 510.912 298.436 510.912 298.383 510.912C297.561 510.912 296.911 511.157 296.431 511.648C295.951 512.139 295.711 512.848 295.711 513.776V518H294.175ZM305.124 518.096C304.399 518.096 303.743 517.936 303.156 517.616C302.58 517.285 302.121 516.8 301.78 516.16C301.449 515.52 301.284 514.72 301.284 513.76C301.284 512.8 301.455 512 301.796 511.36C302.148 510.72 302.612 510.24 303.188 509.92C303.775 509.6 304.42 509.44 305.124 509.44C305.956 509.44 306.692 509.621 307.332 509.984C307.972 510.347 308.479 510.853 308.852 511.504C309.225 512.144 309.412 512.896 309.412 513.76C309.412 514.624 309.225 515.381 308.852 516.032C308.479 516.683 307.972 517.189 307.332 517.552C306.692 517.915 305.956 518.096 305.124 518.096ZM300.628 518V506.128H302.164V511.776L302.004 513.744L302.1 515.712V518H300.628ZM304.996 516.752C305.54 516.752 306.025 516.629 306.452 516.384C306.889 516.139 307.231 515.792 307.476 515.344C307.732 514.885 307.86 514.357 307.86 513.76C307.86 513.152 307.732 512.629 307.476 512.192C307.231 511.744 306.889 511.397 306.452 511.152C306.025 510.907 305.54 510.784 304.996 510.784C304.463 510.784 303.977 510.907 303.54 511.152C303.113 511.397 302.772 511.744 302.516 512.192C302.271 512.629 302.148 513.152 302.148 513.76C302.148 514.357 302.271 514.885 302.516 515.344C302.772 515.792 303.113 516.139 303.54 516.384C303.977 516.629 304.463 516.752 304.996 516.752ZM311.534 518V509.52H313.07V518H311.534ZM312.302 507.888C312.003 507.888 311.753 507.792 311.55 507.6C311.358 507.408 311.262 507.173 311.262 506.896C311.262 506.608 311.358 506.368 311.55 506.176C311.753 505.984 312.003 505.888 312.302 505.888C312.601 505.888 312.846 505.984 313.038 506.176C313.241 506.357 313.342 506.587 313.342 506.864C313.342 507.152 313.246 507.397 313.054 507.6C312.862 507.792 312.611 507.888 312.302 507.888ZM318.915 518.096C318.062 518.096 317.4 517.867 316.931 517.408C316.462 516.949 316.227 516.293 316.227 515.44V507.664H317.763V515.376C317.763 515.835 317.875 516.187 318.099 516.432C318.334 516.677 318.664 516.8 319.091 516.8C319.571 516.8 319.971 516.667 320.291 516.4L320.771 517.504C320.536 517.707 320.254 517.856 319.923 517.952C319.603 518.048 319.267 518.096 318.915 518.096ZM314.787 510.784V509.52H320.195V510.784H314.787ZM322.628 518V509.52H324.1V511.824L323.956 511.248C324.191 510.661 324.585 510.213 325.14 509.904C325.695 509.595 326.377 509.44 327.188 509.44V510.928C327.124 510.917 327.06 510.912 326.996 510.912C326.943 510.912 326.889 510.912 326.836 510.912C326.015 510.912 325.364 511.157 324.884 511.648C324.404 512.139 324.164 512.848 324.164 513.776V518H322.628ZM332.758 518.096C332.033 518.096 331.393 517.963 330.838 517.696C330.294 517.429 329.868 517.024 329.558 516.48C329.26 515.925 329.11 515.232 329.11 514.4V509.52H330.646V514.224C330.646 515.056 330.844 515.68 331.238 516.096C331.644 516.512 332.209 516.72 332.934 516.72C333.468 516.72 333.932 516.613 334.326 516.4C334.721 516.176 335.025 515.856 335.238 515.44C335.452 515.013 335.558 514.501 335.558 513.904V509.52H337.094V518H335.638V515.712L335.878 516.32C335.601 516.885 335.185 517.323 334.63 517.632C334.076 517.941 333.452 518.096 332.758 518.096ZM350.627 509.44C351.309 509.44 351.912 509.573 352.435 509.84C352.957 510.107 353.363 510.512 353.651 511.056C353.949 511.6 354.099 512.288 354.099 513.12V518H352.563V513.296C352.563 512.475 352.371 511.856 351.987 511.44C351.603 511.024 351.064 510.816 350.371 510.816C349.859 510.816 349.411 510.923 349.027 511.136C348.643 511.349 348.344 511.664 348.131 512.08C347.928 512.496 347.827 513.013 347.827 513.632V518H346.291V513.296C346.291 512.475 346.099 511.856 345.715 511.44C345.341 511.024 344.803 510.816 344.099 510.816C343.597 510.816 343.155 510.923 342.771 511.136C342.387 511.349 342.088 511.664 341.875 512.08C341.661 512.496 341.555 513.013 341.555 513.632V518H340.019V509.52H341.491V511.776L341.251 511.2C341.517 510.645 341.928 510.213 342.483 509.904C343.037 509.595 343.683 509.44 344.419 509.44C345.229 509.44 345.928 509.643 346.515 510.048C347.101 510.443 347.485 511.045 347.667 511.856L347.043 511.6C347.299 510.949 347.747 510.427 348.387 510.032C349.027 509.637 349.773 509.44 350.627 509.44Z" fill="white"/>
<path d="M190.32 486.128C188.848 486.128 187.691 485.707 186.848 484.864C186.005 484.021 185.584 482.789 185.584 481.168V474.8H187.184V481.104C187.184 482.352 187.456 483.264 188 483.84C188.555 484.416 189.333 484.704 190.336 484.704C191.349 484.704 192.128 484.416 192.672 483.84C193.227 483.264 193.504 482.352 193.504 481.104V474.8H195.056V481.168C195.056 482.789 194.635 484.021 193.792 484.864C192.96 485.707 191.803 486.128 190.32 486.128ZM201.6 486.128C200.747 486.128 199.931 486 199.152 485.744C198.374 485.477 197.76 485.136 197.312 484.72L197.904 483.472C198.331 483.845 198.875 484.155 199.536 484.4C200.198 484.645 200.886 484.768 201.6 484.768C202.251 484.768 202.779 484.693 203.184 484.544C203.59 484.395 203.888 484.192 204.08 483.936C204.272 483.669 204.368 483.371 204.368 483.04C204.368 482.656 204.24 482.347 203.984 482.112C203.739 481.877 203.414 481.691 203.008 481.552C202.614 481.403 202.176 481.275 201.696 481.168C201.216 481.061 200.731 480.939 200.24 480.8C199.76 480.651 199.318 480.464 198.912 480.24C198.518 480.016 198.198 479.717 197.952 479.344C197.707 478.96 197.584 478.469 197.584 477.872C197.584 477.296 197.734 476.768 198.032 476.288C198.342 475.797 198.811 475.408 199.44 475.12C200.08 474.821 200.891 474.672 201.872 474.672C202.523 474.672 203.168 474.757 203.808 474.928C204.448 475.099 205.003 475.344 205.472 475.664L204.944 476.944C204.464 476.624 203.958 476.395 203.424 476.256C202.891 476.107 202.374 476.032 201.872 476.032C201.243 476.032 200.726 476.112 200.32 476.272C199.915 476.432 199.616 476.645 199.424 476.912C199.243 477.179 199.152 477.477 199.152 477.808C199.152 478.203 199.275 478.517 199.52 478.752C199.776 478.987 200.102 479.173 200.496 479.312C200.902 479.451 201.344 479.579 201.824 479.696C202.304 479.803 202.784 479.925 203.264 480.064C203.755 480.203 204.198 480.384 204.592 480.608C204.998 480.832 205.323 481.131 205.568 481.504C205.814 481.877 205.936 482.357 205.936 482.944C205.936 483.509 205.782 484.037 205.472 484.528C205.163 485.008 204.683 485.397 204.032 485.696C203.392 485.984 202.582 486.128 201.6 486.128ZM208.274 486V474.8H212.994C214.188 474.8 215.239 475.035 216.146 475.504C217.063 475.973 217.772 476.629 218.274 477.472C218.786 478.315 219.042 479.291 219.042 480.4C219.042 481.509 218.786 482.485 218.274 483.328C217.772 484.171 217.063 484.827 216.146 485.296C215.239 485.765 214.188 486 212.994 486H208.274ZM209.874 484.608H212.898C213.826 484.608 214.626 484.432 215.298 484.08C215.98 483.728 216.508 483.237 216.882 482.608C217.255 481.968 217.442 481.232 217.442 480.4C217.442 479.557 217.255 478.821 216.882 478.192C216.508 477.563 215.98 477.072 215.298 476.72C214.626 476.368 213.826 476.192 212.898 476.192H209.874V484.608ZM226.501 486.128C225.647 486.128 224.858 485.989 224.133 485.712C223.418 485.424 222.794 485.024 222.261 484.512C221.738 483.989 221.327 483.381 221.029 482.688C220.73 481.995 220.581 481.232 220.581 480.4C220.581 479.568 220.73 478.805 221.029 478.112C221.327 477.419 221.743 476.816 222.277 476.304C222.81 475.781 223.434 475.381 224.149 475.104C224.874 474.816 225.663 474.672 226.517 474.672C227.381 474.672 228.175 474.821 228.901 475.12C229.637 475.408 230.261 475.84 230.773 476.416L229.733 477.424C229.306 476.976 228.826 476.645 228.293 476.432C227.759 476.208 227.189 476.096 226.581 476.096C225.951 476.096 225.365 476.203 224.821 476.416C224.287 476.629 223.823 476.928 223.429 477.312C223.034 477.696 222.725 478.155 222.501 478.688C222.287 479.211 222.181 479.781 222.181 480.4C222.181 481.019 222.287 481.595 222.501 482.128C222.725 482.651 223.034 483.104 223.429 483.488C223.823 483.872 224.287 484.171 224.821 484.384C225.365 484.597 225.951 484.704 226.581 484.704C227.189 484.704 227.759 484.597 228.293 484.384C228.826 484.16 229.306 483.819 229.733 483.36L230.773 484.368C230.261 484.944 229.637 485.381 228.901 485.68C228.175 485.979 227.375 486.128 226.501 486.128Z" fill="white"/>
<path d="M172 490C177.542 490 182 485.542 182 480C182 474.458 177.542 470 172 470C166.458 470 162 474.458 162 480C162 485.542 166.458 490 172 490Z" fill="#2775CA"/>
<path d="M174.751 481.591C174.751 480.133 173.876 479.633 172.126 479.424C170.876 479.258 170.626 478.924 170.626 478.341C170.626 477.758 171.043 477.383 171.876 477.383C172.626 477.383 173.043 477.633 173.251 478.258C173.293 478.383 173.418 478.466 173.543 478.466H174.21C174.376 478.466 174.501 478.341 174.501 478.174V478.133C174.335 477.216 173.585 476.508 172.626 476.424V475.424C172.626 475.258 172.501 475.133 172.293 475.091H171.668C171.501 475.091 171.376 475.216 171.335 475.424V476.383C170.085 476.549 169.293 477.383 169.293 478.424C169.293 479.799 170.126 480.341 171.876 480.549C173.043 480.758 173.418 481.008 173.418 481.674C173.418 482.341 172.835 482.799 172.043 482.799C170.96 482.799 170.585 482.341 170.46 481.716C170.418 481.549 170.293 481.466 170.168 481.466H169.46C169.293 481.466 169.168 481.591 169.168 481.758V481.799C169.335 482.841 170.001 483.591 171.376 483.799V484.799C171.376 484.966 171.501 485.091 171.71 485.133H172.335C172.501 485.133 172.626 485.008 172.668 484.799V483.799C173.918 483.591 174.751 482.716 174.751 481.591Z" fill="white"/>
<path d="M169.876 485.951C166.626 484.784 164.959 481.159 166.168 477.951C166.793 476.201 168.168 474.867 169.876 474.242C170.043 474.159 170.126 474.034 170.126 473.826V473.242C170.126 473.076 170.043 472.951 169.876 472.909C169.834 472.909 169.751 472.909 169.709 472.951C165.751 474.201 163.584 478.409 164.834 482.367C165.584 484.701 167.376 486.492 169.709 487.242C169.876 487.326 170.043 487.242 170.084 487.076C170.126 487.034 170.126 486.992 170.126 486.909V486.326C170.126 486.201 170.001 486.034 169.876 485.951ZM174.293 472.951C174.126 472.867 173.959 472.951 173.918 473.117C173.876 473.159 173.876 473.201 173.876 473.284V473.867C173.876 474.034 174.001 474.201 174.126 474.284C177.376 475.451 179.043 479.076 177.834 482.284C177.209 484.034 175.834 485.367 174.126 485.992C173.959 486.076 173.876 486.201 173.876 486.409V486.992C173.876 487.159 173.959 487.284 174.126 487.326C174.168 487.326 174.251 487.326 174.293 487.284C178.251 486.034 180.418 481.826 179.168 477.867C178.418 475.492 176.584 473.701 174.293 472.951Z" fill="white"/>
<path fill-rule="evenodd" clip-rule="evenodd" d="M243.209 470.098L239.017 478.904C239.001 478.936 238.996 478.973 239.003 479.009C239.009 479.045 239.027 479.078 239.054 479.103L250.376 489.952C250.408 489.983 250.451 490 250.495 490C250.54 490 250.583 489.983 250.615 489.952L261.937 479.104C261.963 479.079 261.981 479.046 261.988 479.01C261.994 478.974 261.989 478.937 261.973 478.904L257.781 470.099C257.768 470.069 257.746 470.044 257.718 470.027C257.691 470.009 257.659 470 257.627 470H243.365C243.332 470 243.3 470.009 243.273 470.026C243.245 470.044 243.223 470.069 243.209 470.098Z" fill="#50AF95"/>
<path fill-rule="evenodd" clip-rule="evenodd" d="M251.95 479.808C251.868 479.814 251.449 479.839 250.512 479.839C249.767 479.839 249.238 479.817 249.052 479.808C246.173 479.681 244.023 479.18 244.023 478.58C244.023 477.98 246.173 477.479 249.052 477.351V479.309C249.24 479.322 249.78 479.354 250.525 479.354C251.419 479.354 251.866 479.317 251.947 479.309V477.352C254.82 477.48 256.965 477.981 256.965 478.58C256.965 479.179 254.821 479.68 251.947 479.807L251.95 479.808ZM251.95 477.149V475.397H255.96V472.725H245.042V475.397H249.051V477.149C245.793 477.298 243.342 477.944 243.342 478.717C243.342 479.491 245.793 480.136 249.051 480.286V485.901H251.949V480.284C255.2 480.134 257.647 479.49 257.647 478.717C257.647 477.944 255.202 477.299 251.949 477.149L251.95 477.149Z" fill="white"/>
<path d="M270.32 486.128C268.848 486.128 267.691 485.707 266.848 484.864C266.005 484.021 265.584 482.789 265.584 481.168V474.8H267.184V481.104C267.184 482.352 267.456 483.264 268 483.84C268.555 484.416 269.333 484.704 270.336 484.704C271.349 484.704 272.128 484.416 272.672 483.84C273.227 483.264 273.504 482.352 273.504 481.104V474.8H275.056V481.168C275.056 482.789 274.635 484.021 273.792 484.864C272.96 485.707 271.803 486.128 270.32 486.128ZM281.6 486.128C280.747 486.128 279.931 486 279.152 485.744C278.374 485.477 277.76 485.136 277.312 484.72L277.904 483.472C278.331 483.845 278.875 484.155 279.536 484.4C280.198 484.645 280.886 484.768 281.6 484.768C282.251 484.768 282.779 484.693 283.184 484.544C283.59 484.395 283.888 484.192 284.08 483.936C284.272 483.669 284.368 483.371 284.368 483.04C284.368 482.656 284.24 482.347 283.984 482.112C283.739 481.877 283.414 481.691 283.008 481.552C282.614 481.403 282.176 481.275 281.696 481.168C281.216 481.061 280.731 480.939 280.24 480.8C279.76 480.651 279.318 480.464 278.912 480.24C278.518 480.016 278.198 479.717 277.952 479.344C277.707 478.96 277.584 478.469 277.584 477.872C277.584 477.296 277.734 476.768 278.032 476.288C278.342 475.797 278.811 475.408 279.44 475.12C280.08 474.821 280.891 474.672 281.872 474.672C282.523 474.672 283.168 474.757 283.808 474.928C284.448 475.099 285.003 475.344 285.472 475.664L284.944 476.944C284.464 476.624 283.958 476.395 283.424 476.256C282.891 476.107 282.374 476.032 281.872 476.032C281.243 476.032 280.726 476.112 280.32 476.272C279.915 476.432 279.616 476.645 279.424 476.912C279.243 477.179 279.152 477.477 279.152 477.808C279.152 478.203 279.275 478.517 279.52 478.752C279.776 478.987 280.102 479.173 280.496 479.312C280.902 479.451 281.344 479.579 281.824 479.696C282.304 479.803 282.784 479.925 283.264 480.064C283.755 480.203 284.198 480.384 284.592 480.608C284.998 480.832 285.323 481.131 285.568 481.504C285.814 481.877 285.936 482.357 285.936 482.944C285.936 483.509 285.782 484.037 285.472 484.528C285.163 485.008 284.683 485.397 284.032 485.696C283.392 485.984 282.582 486.128 281.6 486.128ZM288.274 486V474.8H292.994C294.188 474.8 295.239 475.035 296.146 475.504C297.063 475.973 297.772 476.629 298.274 477.472C298.786 478.315 299.042 479.291 299.042 480.4C299.042 481.509 298.786 482.485 298.274 483.328C297.772 484.171 297.063 484.827 296.146 485.296C295.239 485.765 294.188 486 292.994 486H288.274ZM289.874 484.608H292.898C293.826 484.608 294.626 484.432 295.298 484.08C295.98 483.728 296.508 483.237 296.882 482.608C297.255 481.968 297.442 481.232 297.442 480.4C297.442 479.557 297.255 478.821 296.882 478.192C296.508 477.563 295.98 477.072 295.298 476.72C294.626 476.368 293.826 476.192 292.898 476.192H289.874V484.608ZM303.56 486V476.192H299.72V474.8H308.984V476.192H305.144V486H303.56Z" fill="white"/>
<path d="M80.22 471.2H81.74V473.94H80.22V471.2ZM75.48 473.34H86.6V474.64H75.48V473.34ZM74.68 478.02H87.16V479.34H74.68V478.02ZM77.36 474.82L78.66 474.56C79.1 475.64 79.48 477.04 79.56 477.9L78.2 478.24C78.14 477.36 77.78 475.92 77.36 474.82ZM83.3 474.52L84.78 474.74C84.36 475.92 83.88 477.28 83.46 478.18L82.18 477.96C82.58 477.02 83.06 475.52 83.3 474.52ZM74.78 481.32H87.08V482.62H74.78V481.32ZM79.36 478.98L80.86 479.28C79.84 481.58 78.42 484.5 77.4 486.34L76.1 485.9C77.1 484.12 78.48 481.16 79.36 478.98ZM77.12 485.64L78 484.62C81.02 485.48 84.78 487.08 86.72 488.48L85.76 489.62C83.92 488.26 80.18 486.56 77.12 485.64ZM83.3 482.16L84.76 482.38C83.8 486.84 81.06 488.78 74.88 489.6C74.78 489.18 74.52 488.66 74.28 488.34C80.04 487.76 82.44 486.06 83.3 482.16ZM68.54 481.84C70.16 481.44 72.6 480.72 74.96 480.04L75.14 481.38C72.96 482.06 70.66 482.78 68.88 483.32L68.54 481.84ZM68.88 475.24H74.98V476.64H68.88V475.24ZM71.6 471.22H73.04V487.78C73.04 488.64 72.86 489.06 72.34 489.3C71.82 489.56 71 489.6 69.7 489.6C69.64 489.22 69.44 488.56 69.24 488.14C70.14 488.18 70.98 488.18 71.22 488.16C71.48 488.16 71.6 488.08 71.6 487.78V471.22ZM89.44 476.98H106.56V481.06H105.1V478.32H90.84V481.06H89.44V476.98ZM91.86 480.58H103.04V481.98H91.86V480.58ZM104.38 471.14L105.44 472.34C101.42 473.18 95.18 473.7 89.98 473.9C89.94 473.52 89.76 472.96 89.62 472.62C94.8 472.38 100.96 471.86 104.38 471.14ZM91.3 474.32L92.6 473.94C93.18 474.76 93.78 475.88 94.02 476.6L92.66 477.04C92.42 476.32 91.84 475.18 91.3 474.32ZM96.62 473.9L97.98 473.6C98.44 474.52 98.92 475.74 99.04 476.52L97.62 476.86C97.5 476.08 97.08 474.84 96.62 473.9ZM103.46 473.56L104.98 474C104.26 475.28 103.32 476.76 102.6 477.7L101.4 477.28C102.1 476.28 102.98 474.68 103.46 473.56ZM102.5 480.58H102.84L103.12 480.52L104.12 481.14C101.66 486.22 96 488.54 89.9 489.56C89.74 489.18 89.32 488.52 89.02 488.2C95.02 487.38 100.42 485.26 102.5 480.84V480.58ZM93.82 481.5C96.1 485.18 100.92 487.42 106.94 488.14C106.64 488.48 106.22 489.12 106.04 489.54C99.94 488.66 95.12 486.22 92.5 482.06L93.82 481.5ZM110.62 474.42H116.7V487.5H110.62V486.14H115.3V475.76H110.62V474.42ZM109.72 474.42H111.12V489.1H109.72V474.42ZM110.52 479.98H116.04V481.32H110.52V479.98ZM112.78 471.16L114.4 471.46C114 472.7 113.5 474.08 113.1 474.98L111.9 474.68C112.24 473.72 112.62 472.2 112.78 471.16ZM119.54 474.36H125.68V475.76H119.54V474.36ZM125.16 474.36H126.56C126.56 474.36 126.56 474.92 126.56 475.14C126.24 484.32 125.96 487.42 125.16 488.4C124.72 488.98 124.26 489.16 123.56 489.22C122.88 489.3 121.7 489.26 120.58 489.2C120.54 488.76 120.36 488.14 120.08 487.74C121.38 487.84 122.58 487.86 123.04 487.86C123.44 487.86 123.68 487.8 123.9 487.54C124.56 486.82 124.88 483.5 125.16 474.68V474.36ZM119.96 471.12L121.4 471.46C120.66 474.44 119.48 477.38 118.1 479.28C117.84 479.04 117.22 478.62 116.86 478.42C118.22 476.66 119.32 473.9 119.96 471.12ZM119.04 479.56L120.2 478.88C121.34 480.3 122.72 482.24 123.36 483.42L122.08 484.22C121.48 483 120.14 481.02 119.04 479.56ZM129.78 474.54H137.36V475.54H130.94V481.5H129.78V474.54ZM136.94 474.54H138.1V480.04C138.1 480.6 138 480.9 137.6 481.08C137.22 481.28 136.64 481.28 135.74 481.28C135.68 480.98 135.52 480.54 135.38 480.24C136 480.26 136.54 480.26 136.72 480.24C136.9 480.24 136.94 480.2 136.94 480.04V474.54ZM140.6 473.28H147.06V474.46H140.6V473.28ZM133.28 471.22H134.6V475.1H134.46V481.28H133.42V475.1H133.28V471.22ZM140.98 471.22L142.26 471.48C141.62 473.58 140.46 475.48 139.06 476.7C138.88 476.46 138.38 475.98 138.1 475.76C139.4 474.68 140.42 473.04 140.98 471.22ZM131.94 476.28L132.82 476.44C132.66 477.66 132.36 478.92 131.9 479.76C131.72 479.64 131.34 479.44 131.08 479.34C131.6 478.48 131.8 477.4 131.94 476.28ZM129.84 472.12L130.92 471.64C131.48 472.32 132.08 473.26 132.3 473.88L131.18 474.44C130.96 473.8 130.38 472.82 129.84 472.12ZM144.62 473.82L145.96 474.02C145 477.7 142.62 479.9 139.2 481.2C139.06 480.9 138.68 480.3 138.42 480.04C141.62 479 143.82 477.04 144.62 473.82ZM140.92 474.16C141.94 477.1 144.22 479.42 147.22 480.4C146.94 480.64 146.56 481.14 146.38 481.48C143.26 480.3 140.96 477.74 139.8 474.46L140.92 474.16ZM135.06 476.5L135.82 476.3C136.18 477.14 136.48 478.26 136.56 478.96L135.74 479.2C135.66 478.48 135.38 477.36 135.06 476.5ZM136.98 471.58L138.22 472.06C137.66 472.92 137.02 473.84 136.5 474.44L135.58 474.04C136.04 473.34 136.66 472.3 136.98 471.58ZM137.18 481.3H138.68V489.6H137.18V481.3ZM131.08 482.54H144.4V483.84H132.54V488.62H131.08V482.54ZM143.7 482.54H145.16V487C145.16 487.74 144.98 488.14 144.36 488.36C143.72 488.58 142.68 488.56 141 488.56C140.9 488.2 140.68 487.68 140.48 487.32C141.76 487.34 142.94 487.34 143.26 487.32C143.6 487.3 143.7 487.24 143.7 486.98V482.54ZM150.28 480.04C149.907 480.04 149.587 479.913 149.32 479.66C149.053 479.393 148.92 479.06 148.92 478.66C148.92 478.26 149.053 477.933 149.32 477.68C149.587 477.427 149.907 477.3 150.28 477.3C150.64 477.3 150.947 477.427 151.2 477.68C151.467 477.933 151.6 478.26 151.6 478.66C151.6 479.06 151.467 479.393 151.2 479.66C150.947 479.913 150.64 480.04 150.28 480.04ZM150.28 488.12C149.907 488.12 149.587 487.993 149.32 487.74C149.053 487.473 148.92 487.14 148.92 486.74C148.92 486.34 149.053 486.013 149.32 485.76C149.587 485.507 149.907 485.38 150.28 485.38C150.64 485.38 150.947 485.507 151.2 485.76C151.467 486.013 151.6 486.34 151.6 486.74C151.6 487.14 151.467 487.473 151.2 487.74C150.947 487.993 150.64 488.12 150.28 488.12Z" fill="white"/>
<path d="M258 545C263.523 545 268 540.523 268 535C268 529.477 263.523 525 258 525C252.477 525 248 529.477 248 535C248 540.523 252.477 545 258 545Z" fill="#E84142"/>
<path d="M261.527 535.26C261.874 534.661 262.433 534.661 262.779 535.26L264.937 539.047C265.283 539.646 265 540.134 264.307 540.134H259.961C259.276 540.134 258.992 539.646 259.331 539.047L261.527 535.26ZM257.354 527.968C257.701 527.37 258.252 527.37 258.598 527.968L259.079 528.835L260.213 530.827C260.488 531.394 260.488 532.063 260.213 532.63L256.409 539.22C256.063 539.756 255.488 540.094 254.85 540.134H251.693C251 540.134 250.716 539.654 251.063 539.047L257.354 527.968Z" fill="white"/>
<path d="M229.2 73.96C237.92 91.72 256.64 102.44 282.88 105.96C281.52 107.32 279.92 109.96 279.04 111.64C252.32 107.56 233.68 96.04 223.68 75.96L229.2 73.96ZM215.76 68.36H267.92V74.2H215.76V68.36ZM212.08 50.04H279.6V56.04H212.08V50.04ZM242.72 37.88H248.88V71.08H242.72V37.88ZM266 68.36H267.36L268.56 68.12L272.64 70.6C262.72 95.24 238.96 106.6 212.4 111.4C211.84 109.88 210.24 107.08 209.12 105.72C235.12 101.64 257.68 91.48 266 69.56V68.36ZM313.52 55.64H362.32V61.72H313.52V55.64ZM346.08 38.76H352.16V103.24C352.16 107.8 350.88 109.64 347.84 110.52C344.72 111.56 339.28 111.64 330.56 111.56C330.24 109.96 329.12 107.24 328.16 105.56C334.96 105.8 341.6 105.8 343.44 105.72C345.36 105.56 346.08 105.08 346.08 103.24V38.76ZM318.56 72.6L323.76 70.12C327.92 76.36 333.28 84.68 335.84 89.56L330.24 92.6C327.84 87.64 322.64 79 318.56 72.6ZM300.8 59.64L306.8 53.56L306.88 53.72V111.24H300.8V59.64ZM309.52 38.36L315.36 40.12C310 54.04 301.6 67.8 292.72 76.84C292 75.4 290.08 72.36 288.96 70.92C297.2 63.08 304.88 50.84 309.52 38.36Z" fill="white"/>
<path d="M161.989 109.655C161.119 109.08 160.147 108.664 159.227 108.16C158.616 107.864 158.032 107.515 157.483 107.117C156.607 106.4 156.783 104.99 157.708 104.374C159.021 103.5 161.204 103.995 161.429 105.774C161.431 105.792 161.439 105.81 161.453 105.822C161.467 105.835 161.485 105.842 161.503 105.842H163.486C163.497 105.842 163.508 105.84 163.519 105.835C163.529 105.831 163.538 105.824 163.545 105.816C163.553 105.808 163.559 105.798 163.562 105.788C163.566 105.777 163.567 105.766 163.566 105.755C163.459 104.526 162.989 103.505 162.116 102.851C161.308 102.234 160.318 101.897 159.298 101.893C154.045 101.893 153.567 107.408 156.393 109.149C156.723 109.35 159.493 110.731 160.474 111.328C161.454 111.924 161.762 113.03 161.336 113.904C160.949 114.705 159.944 115.241 158.939 115.19C157.84 115.133 156.989 114.539 156.69 113.615C156.641 113.411 156.615 113.202 156.613 112.992C156.611 112.972 156.602 112.953 156.588 112.939C156.573 112.926 156.553 112.918 156.533 112.918H154.375C154.353 112.919 154.333 112.928 154.318 112.943C154.303 112.958 154.295 112.979 154.295 113C154.295 114.547 154.685 115.402 155.734 116.184C156.653 116.876 157.779 117.244 158.933 117.23C161.869 117.23 163.401 115.579 163.703 113.869C164.005 112.158 163.508 110.652 161.989 109.655Z" fill="white"/>
<path d="M68.4934 102.157H66.5025C66.4858 102.156 66.4693 102.161 66.4559 102.171C66.4424 102.181 66.4327 102.195 66.4284 102.211L64.6545 107.988C64.65 108.004 64.6403 108.019 64.6269 108.029C64.6135 108.039 64.5972 108.044 64.5803 108.044C64.5635 108.044 64.5471 108.039 64.5337 108.029C64.5203 108.019 64.5106 108.004 64.5062 107.988L62.735 102.211C62.7297 102.195 62.7194 102.181 62.7056 102.172C62.6917 102.162 62.6751 102.157 62.6581 102.157H59.3821C59.3615 102.157 59.3416 102.165 59.3268 102.179C59.3119 102.193 59.3032 102.213 59.3025 102.233V116.993C59.3025 117.014 59.3109 117.034 59.3258 117.049C59.3408 117.063 59.361 117.072 59.3821 117.072H61.5405C61.5508 117.072 61.561 117.07 61.5706 117.066C61.5801 117.062 61.5887 117.056 61.5959 117.048C61.603 117.041 61.6086 117.032 61.6123 117.023C61.616 117.013 61.6177 117.003 61.6174 116.993V105.779C61.6188 105.762 61.6264 105.745 61.6387 105.732C61.6511 105.719 61.6676 105.71 61.6855 105.708C61.7034 105.705 61.7216 105.709 61.7372 105.718C61.7527 105.727 61.7647 105.741 61.7712 105.758L63.5561 111.573L63.6796 111.978C63.6849 111.995 63.6952 112.008 63.709 112.018C63.7229 112.028 63.7395 112.033 63.7565 112.033H65.4041C65.4211 112.033 65.4378 112.028 65.4516 112.018C65.4654 112.008 65.4757 111.995 65.481 111.978L65.6046 111.573L67.3895 105.758C67.3959 105.741 67.4079 105.727 67.4235 105.718C67.439 105.709 67.4573 105.705 67.4751 105.708C67.493 105.71 67.5095 105.719 67.5219 105.732C67.5343 105.745 67.5418 105.762 67.5433 105.779V116.993C67.5429 117.003 67.5446 117.013 67.5483 117.023C67.552 117.032 67.5576 117.041 67.5648 117.048C67.572 117.056 67.5806 117.062 67.5901 117.066C67.5996 117.07 67.6098 117.072 67.6202 117.072H69.7785C69.7996 117.072 69.8199 117.063 69.8348 117.049C69.8498 117.034 69.8581 117.014 69.8581 116.993V102.233C69.8574 102.213 69.8487 102.193 69.8339 102.179C69.819 102.165 69.7992 102.157 69.7785 102.157H68.4934Z" fill="white"/>
<path d="M129.013 102.157C128.996 102.157 128.98 102.163 128.967 102.172C128.954 102.182 128.944 102.196 128.939 102.211L127.167 107.988C127.162 108.004 127.152 108.018 127.138 108.027C127.125 108.037 127.109 108.042 127.092 108.042C127.075 108.042 127.059 108.037 127.045 108.027C127.032 108.018 127.022 108.004 127.016 107.988L125.245 102.211C125.24 102.196 125.231 102.182 125.217 102.172C125.204 102.162 125.188 102.157 125.171 102.157H121.895C121.874 102.157 121.855 102.165 121.84 102.179C121.825 102.193 121.816 102.213 121.815 102.233V116.993C121.815 117.014 121.824 117.034 121.839 117.049C121.854 117.063 121.874 117.072 121.895 117.072H124.053C124.074 117.071 124.094 117.062 124.108 117.048C124.122 117.033 124.13 117.013 124.13 116.993V105.779C124.132 105.762 124.139 105.745 124.152 105.732C124.164 105.719 124.181 105.71 124.198 105.708C124.216 105.705 124.235 105.709 124.25 105.718C124.266 105.727 124.278 105.741 124.284 105.758L126.069 111.573L126.193 111.978C126.198 111.994 126.208 112.008 126.221 112.017C126.234 112.027 126.25 112.033 126.267 112.033H127.914C127.931 112.034 127.948 112.028 127.961 112.019C127.974 112.009 127.984 111.995 127.988 111.978L128.115 111.573L129.897 105.758C129.903 105.741 129.915 105.727 129.931 105.718C129.946 105.709 129.965 105.705 129.983 105.708C130 105.71 130.017 105.719 130.029 105.732C130.042 105.745 130.049 105.762 130.051 105.779V116.993C130.051 117.014 130.059 117.034 130.074 117.049C130.089 117.063 130.109 117.072 130.13 117.072H132.289C132.309 117.071 132.329 117.062 132.343 117.048C132.358 117.033 132.366 117.013 132.366 116.993V102.233C132.365 102.213 132.357 102.194 132.342 102.18C132.328 102.166 132.309 102.158 132.289 102.157H129.013Z" fill="white"/>
<path d="M101.237 102.157H91.0765C91.0558 102.157 91.036 102.165 91.0211 102.179C91.0062 102.193 90.9975 102.213 90.9968 102.233V104.08C90.9975 104.1 91.0062 104.12 91.0211 104.134C91.036 104.148 91.0558 104.156 91.0765 104.156H95.0115V116.993C95.0115 117.003 95.0136 117.013 95.0176 117.023C95.0216 117.033 95.0274 117.041 95.0348 117.049C95.0422 117.056 95.051 117.062 95.0607 117.066C95.0703 117.07 95.0807 117.072 95.0911 117.072H97.2495C97.2701 117.071 97.2897 117.062 97.304 117.048C97.3184 117.033 97.3264 117.013 97.3264 116.993V104.156H101.237C101.257 104.156 101.277 104.148 101.292 104.134C101.307 104.12 101.316 104.1 101.316 104.08V102.233C101.316 102.213 101.307 102.193 101.292 102.179C101.277 102.165 101.257 102.157 101.237 102.157Z" fill="white"/>
<path d="M113.948 117.072H115.909C115.921 117.072 115.933 117.069 115.943 117.064C115.954 117.059 115.964 117.051 115.971 117.041C115.978 117.032 115.983 117.021 115.985 117.009C115.987 116.997 115.986 116.985 115.983 116.974L111.946 102.165C111.941 102.149 111.931 102.134 111.918 102.124C111.904 102.113 111.887 102.108 111.869 102.108H109.052C109.035 102.108 109.018 102.113 109.004 102.124C108.99 102.134 108.98 102.149 108.975 102.165L104.925 116.974C104.922 116.985 104.922 116.997 104.924 117.009C104.927 117.021 104.932 117.032 104.939 117.041C104.947 117.051 104.956 117.058 104.967 117.064C104.978 117.069 104.99 117.072 105.002 117.072H106.962C106.979 117.071 106.996 117.065 107.009 117.054C107.023 117.043 107.032 117.028 107.036 117.012L108.214 112.708C108.219 112.692 108.228 112.678 108.242 112.667C108.255 112.657 108.272 112.651 108.289 112.651H112.622C112.639 112.652 112.655 112.658 112.668 112.668C112.682 112.678 112.691 112.692 112.696 112.708L113.868 117.009C113.872 117.027 113.882 117.044 113.896 117.055C113.911 117.067 113.929 117.073 113.948 117.072ZM108.802 110.554L110.378 104.788C110.384 104.772 110.394 104.759 110.407 104.749C110.421 104.739 110.437 104.734 110.454 104.734C110.471 104.734 110.487 104.739 110.5 104.749C110.514 104.759 110.524 104.772 110.529 104.788L112.106 110.554C112.109 110.565 112.11 110.577 112.108 110.589C112.105 110.601 112.101 110.612 112.093 110.622C112.086 110.631 112.077 110.639 112.066 110.644C112.055 110.649 112.043 110.652 112.031 110.652H108.879C108.867 110.652 108.855 110.649 108.844 110.644C108.833 110.639 108.824 110.631 108.817 110.622C108.809 110.612 108.804 110.601 108.801 110.589C108.799 110.578 108.799 110.566 108.802 110.554Z" fill="white"/>
<path d="M147.37 117.072H149.328C149.34 117.072 149.352 117.069 149.362 117.064C149.373 117.058 149.383 117.051 149.39 117.041C149.398 117.032 149.403 117.021 149.405 117.009C149.408 116.997 149.407 116.985 149.405 116.974L145.354 102.165C145.35 102.148 145.34 102.133 145.326 102.123C145.312 102.113 145.295 102.107 145.277 102.108H142.471C142.454 102.108 142.437 102.113 142.423 102.124C142.409 102.134 142.399 102.149 142.394 102.165L138.346 116.974C138.344 116.985 138.343 116.997 138.346 117.008C138.348 117.02 138.353 117.031 138.36 117.04C138.367 117.05 138.376 117.057 138.387 117.063C138.397 117.068 138.409 117.071 138.421 117.072H140.381C140.399 117.072 140.415 117.066 140.429 117.055C140.442 117.044 140.452 117.029 140.455 117.012L141.633 112.708C141.638 112.692 141.648 112.677 141.662 112.667C141.676 112.657 141.693 112.651 141.71 112.651H146.041C146.058 112.651 146.074 112.657 146.088 112.667C146.101 112.678 146.111 112.692 146.115 112.708L147.293 117.012C147.297 117.029 147.307 117.044 147.321 117.055C147.335 117.066 147.352 117.072 147.37 117.072ZM142.224 110.554L143.8 104.788C143.805 104.772 143.815 104.759 143.829 104.749C143.842 104.739 143.859 104.734 143.875 104.734C143.892 104.734 143.908 104.739 143.922 104.749C143.936 104.759 143.946 104.772 143.951 104.788L145.527 110.554C145.53 110.566 145.53 110.578 145.528 110.589C145.525 110.601 145.52 110.612 145.513 110.622C145.505 110.631 145.496 110.639 145.485 110.644C145.474 110.649 145.462 110.652 145.45 110.652H142.298C142.286 110.652 142.274 110.649 142.263 110.644C142.252 110.639 142.243 110.631 142.236 110.622C142.229 110.612 142.224 110.601 142.222 110.589C142.22 110.577 142.22 110.565 142.224 110.554Z" fill="white"/>
<path d="M78.5713 114.89V110.309C78.5709 110.299 78.5726 110.289 78.5763 110.279C78.5801 110.27 78.5857 110.261 78.5929 110.254C78.6002 110.247 78.6088 110.241 78.6183 110.238C78.6278 110.234 78.638 110.232 78.6482 110.233H84.3818C84.4025 110.232 84.422 110.223 84.4364 110.209C84.4507 110.194 84.4587 110.174 84.4587 110.154V108.31C84.4587 108.289 84.4507 108.27 84.4364 108.255C84.422 108.24 84.4025 108.231 84.3818 108.231H78.6482C78.6278 108.231 78.6082 108.223 78.5938 108.208C78.5794 108.194 78.5713 108.175 78.5713 108.154V104.235C78.5709 104.225 78.5726 104.215 78.5763 104.205C78.58 104.195 78.5856 104.187 78.5928 104.179C78.6 104.172 78.6086 104.166 78.6181 104.162C78.6276 104.158 78.6378 104.156 78.6482 104.156H85.1727C85.1933 104.156 85.2132 104.148 85.228 104.134C85.2429 104.12 85.2516 104.1 85.2523 104.08V102.233C85.2516 102.213 85.2429 102.193 85.228 102.179C85.2132 102.165 85.1933 102.157 85.1727 102.157H76.3333C76.3129 102.157 76.2933 102.165 76.2789 102.179C76.2645 102.194 76.2564 102.213 76.2564 102.233V116.993C76.256 117.003 76.2577 117.013 76.2614 117.023C76.2651 117.032 76.2707 117.041 76.2779 117.048C76.2851 117.056 76.2937 117.062 76.3032 117.066C76.3127 117.07 76.323 117.072 76.3333 117.072H85.4528C85.4739 117.072 85.4942 117.063 85.5091 117.049C85.524 117.034 85.5324 117.014 85.5324 116.993V115.045C85.5324 115.024 85.524 115.004 85.5091 114.99C85.4942 114.975 85.4739 114.966 85.4528 114.966H78.6482C78.638 114.967 78.6278 114.965 78.6183 114.961C78.6088 114.958 78.6002 114.952 78.5929 114.945C78.5857 114.938 78.5801 114.929 78.5763 114.92C78.5726 114.91 78.5709 114.9 78.5713 114.89Z" fill="white"/>
<path d="M181.673 116.938L174.22 109.298C174.213 109.291 174.207 109.283 174.203 109.273C174.199 109.264 174.197 109.254 174.197 109.244C174.197 109.234 174.199 109.224 174.203 109.214C174.207 109.205 174.213 109.197 174.22 109.189L180.923 102.301C180.934 102.291 180.942 102.277 180.945 102.262C180.948 102.247 180.946 102.232 180.94 102.217C180.934 102.203 180.924 102.191 180.911 102.183C180.899 102.175 180.883 102.17 180.868 102.171H178.125C178.114 102.171 178.103 102.173 178.093 102.177C178.084 102.181 178.075 102.187 178.067 102.195L172.377 108.054C172.366 108.065 172.352 108.073 172.337 108.076C172.321 108.08 172.305 108.078 172.29 108.073C172.275 108.067 172.263 108.057 172.254 108.043C172.245 108.03 172.24 108.015 172.24 107.999V102.233C172.24 102.213 172.232 102.194 172.218 102.179C172.203 102.165 172.184 102.157 172.163 102.157H170.005C169.984 102.157 169.964 102.165 169.95 102.179C169.935 102.193 169.926 102.213 169.925 102.233V116.993C169.925 117.014 169.934 117.034 169.949 117.049C169.964 117.063 169.984 117.072 170.005 117.072H172.163C172.174 117.072 172.184 117.07 172.193 117.066C172.203 117.062 172.211 117.056 172.219 117.048C172.226 117.041 172.231 117.032 172.235 117.023C172.239 117.013 172.241 117.003 172.24 116.993V110.497C172.241 110.482 172.246 110.467 172.254 110.454C172.263 110.442 172.275 110.432 172.29 110.426C172.304 110.421 172.319 110.419 172.335 110.422C172.35 110.425 172.364 110.432 172.375 110.442L178.82 117.047C178.834 117.062 178.854 117.071 178.875 117.072H181.621C181.636 117.071 181.65 117.066 181.662 117.057C181.675 117.048 181.684 117.036 181.689 117.022C181.695 117.008 181.696 116.992 181.693 116.977C181.69 116.963 181.683 116.949 181.673 116.938Z" fill="white"/>
<path d="M152.518 26.7445L124.751 47.1776L129.908 35.1226L152.518 26.7445Z" fill="#E17726" stroke="#E17726" stroke-linecap="round" stroke-linejoin="round"/>
<path d="M88.4814 26.7445L115.996 47.371L111.092 35.1226L88.4814 26.7445Z" fill="#E27625" stroke="#E27625" stroke-linecap="round" stroke-linejoin="round"/>
<path d="M142.537 74.1121L135.15 85.3391L150.956 89.6507L155.473 74.3599L142.537 74.1121Z" fill="#E27625" stroke="#E27625" stroke-linecap="round" stroke-linejoin="round"/>
<path d="M85.5542 74.3599L90.0439 89.6507L105.85 85.3391L98.4906 74.1121L85.5542 74.3599Z" fill="#E27625" stroke="#E27625" stroke-linecap="round" stroke-linejoin="round"/>
<path d="M104.985 55.1416L100.581 61.752L116.249 62.4438L115.719 45.7122L104.985 55.1416Z" fill="#E27625" stroke="#E27625" stroke-linecap="round" stroke-linejoin="round"/>
<path d="M136.015 55.1416L125.113 45.5189L124.751 62.4438L140.419 61.752L136.015 55.1416Z" fill="#E27625" stroke="#E27625" stroke-linecap="round" stroke-linejoin="round"/>
<path d="M105.85 85.3391L115.302 80.7742L107.16 74.4716L105.85 85.3391Z" fill="#E27625" stroke="#E27625" stroke-linecap="round" stroke-linejoin="round"/>
<path d="M125.698 80.7742L135.15 85.3391L133.84 74.4716L125.698 80.7742Z" fill="#E27625" stroke="#E27625" stroke-linecap="round" stroke-linejoin="round"/>
<path d="M135.15 85.3391L125.698 80.7742L126.451 86.8861L126.368 89.4573L135.15 85.3391Z" fill="#D5BFB2" stroke="#D5BFB2" stroke-linecap="round" stroke-linejoin="round"/>
<path d="M105.85 85.3391L114.632 89.4573L114.577 86.8861L115.302 80.7742L105.85 85.3391Z" fill="#D5BFB2" stroke="#D5BFB2" stroke-linecap="round" stroke-linejoin="round"/>
<path d="M114.799 70.4324L106.938 68.1391L112.484 65.6224L114.799 70.4324Z" fill="#233447" stroke="#233447" stroke-linecap="round" stroke-linejoin="round"/>
<path d="M126.201 70.4324L128.516 65.6224L134.09 68.1391L126.201 70.4324Z" fill="#233447" stroke="#233447" stroke-linecap="round" stroke-linejoin="round"/>
<path d="M105.85 85.3391L107.215 74.1121L98.4907 74.3599L105.85 85.3391Z" fill="#CC6228" stroke="#CC6228" stroke-linecap="round" stroke-linejoin="round"/>
<path d="M133.785 74.1121L135.15 85.3391L142.537 74.3599L133.785 74.1121Z" fill="#CC6228" stroke="#CC6228" stroke-linecap="round" stroke-linejoin="round"/>
<path d="M140.419 61.752L124.751 62.4438L126.201 70.4324L128.516 65.6224L134.09 68.139L140.419 61.752Z" fill="#CC6228" stroke="#CC6228" stroke-linecap="round" stroke-linejoin="round"/>
<path d="M106.938 68.139L112.485 65.6224L114.799 70.4324L116.249 62.4438L100.581 61.752L106.938 68.139Z" fill="#CC6228" stroke="#CC6228" stroke-linecap="round" stroke-linejoin="round"/>
<path d="M100.581 61.752L107.16 74.4716L106.938 68.139L100.581 61.752Z" fill="#E27525" stroke="#E27525" stroke-linecap="round" stroke-linejoin="round"/>
<path d="M134.09 68.139L133.84 74.4716L140.42 61.752L134.09 68.139Z" fill="#E27525" stroke="#E27525" stroke-linecap="round" stroke-linejoin="round"/>
<path d="M116.249 62.4438L114.799 70.4324L116.639 79.8618L117.029 67.4473L116.249 62.4438Z" fill="#E27525" stroke="#E27525" stroke-linecap="round" stroke-linejoin="round"/>
<path d="M124.751 62.4438L123.999 67.42L124.361 79.8618L126.201 70.4324L124.751 62.4438Z" fill="#E27525" stroke="#E27525" stroke-linecap="round" stroke-linejoin="round"/>
<path d="M126.201 70.4324L124.361 79.8618L125.698 80.7742L133.84 74.4716L134.09 68.139L126.201 70.4324Z" fill="#F5841F" stroke="#F5841F" stroke-linecap="round" stroke-linejoin="round"/>
<path d="M106.938 68.139L107.16 74.4716L115.302 80.7742L116.639 79.8618L114.799 70.4324L106.938 68.139Z" fill="#F5841F" stroke="#F5841F" stroke-linecap="round" stroke-linejoin="round"/>
<path d="M126.368 89.4573L126.451 86.8861L125.756 86.2788H115.244L114.577 86.8861L114.632 89.4573L105.85 85.3391L108.917 87.8258L115.162 92.1129H125.838L132.083 87.8258L135.15 85.3391L126.368 89.4573Z" fill="#C0AC9D" stroke="#C0AC9D" stroke-linecap="round" stroke-linejoin="round"/>
<path d="M125.698 80.7742L124.361 79.8618H116.639L115.302 80.7742L114.577 86.8862L115.244 86.2788H125.756L126.451 86.8862L125.698 80.7742Z" fill="#161616" stroke="#161616" stroke-linecap="round" stroke-linejoin="round"/>
<path d="M153.688 48.5067L156.031 37.2252L152.519 26.7445L125.698 46.4885L136.015 55.1416L150.594 59.3742L153.801 55.6401L152.406 54.6459L154.636 52.6249L152.936 51.2985L155.166 49.6125L153.688 48.5067Z" fill="#763E1A" stroke="#763E1A" stroke-linecap="round" stroke-linejoin="round"/>
<path d="M84.9695 37.2252L87.3393 48.5067L85.8345 49.6125L88.0642 51.2985L86.3645 52.6249L88.5942 54.6459L87.1992 55.6401L90.4066 59.3742L104.985 55.1416L115.302 46.4885L88.4816 26.7445L84.9695 37.2252Z" fill="#763E1A" stroke="#763E1A" stroke-linecap="round" stroke-linejoin="round"/>
<path d="M150.593 59.3743L136.015 55.1417L140.42 61.752L133.84 74.4716L142.537 74.36H155.473L150.593 59.3743Z" fill="#F5841F" stroke="#F5841F" stroke-linecap="round" stroke-linejoin="round"/>
<path d="M104.985 55.1417L90.4064 59.3743L85.5542 74.36H98.4906L107.16 74.4716L100.58 61.752L104.985 55.1417Z" fill="#F5841F" stroke="#F5841F" stroke-linecap="round" stroke-linejoin="round"/>
<path d="M124.751 62.4438L125.698 46.4885L129.908 35.1226H111.092L115.302 46.4885L116.249 62.4438L116.612 67.4745L116.639 79.8618H124.361L124.388 67.4745L124.751 62.4438Z" fill="#F5841F" stroke="#F5841F" stroke-linecap="round" stroke-linejoin="round"/>
<path d="M157.76 150.824H168.344V152.756H157.76V150.824ZM157.788 157.6H168.372V159.532H157.788V157.6ZM157.76 164.404H168.372V166.336H157.76V164.404ZM156.724 144.132H169.38V167.988H167.28V146.148H158.74V168.072H156.724V144.132ZM144.908 148.5H155.492V150.516H144.908V148.5ZM149.472 142.48H151.488V168.212H149.472V142.48ZM149.36 149.732L150.76 150.208C149.752 154.744 147.596 160.204 145.384 163.032C145.16 162.444 144.628 161.604 144.264 161.128C146.364 158.608 148.492 153.792 149.36 149.732ZM151.292 152.812C152.104 153.596 154.988 156.956 155.66 157.74L154.344 159.476C153.56 158.104 151.208 154.968 150.228 153.82L151.292 152.812ZM189.904 156.816H206.9V158.524H189.904V156.816ZM192.116 161.24L193.236 159.952C194.692 160.792 196.568 162.052 197.492 162.92L196.316 164.376C195.42 163.48 193.572 162.136 192.116 161.24ZM201.188 155.164L202.224 154.156C203.26 154.716 204.548 155.556 205.192 156.2L204.1 157.292C203.484 156.676 202.224 155.752 201.188 155.164ZM191.976 157.6H193.88C193.572 161.94 192.732 165.888 189.596 168.184C189.316 167.764 188.756 167.12 188.308 166.812C191.08 164.852 191.752 161.268 191.976 157.6ZM197.016 142.508H198.892C198.752 156.452 200.796 166.476 204.604 166.476C205.416 166.476 205.696 165.832 205.836 163.284C206.228 163.676 206.872 164.04 207.32 164.208C206.956 167.372 206.34 168.296 204.464 168.296C198.836 168.268 197.072 156.816 197.016 142.508ZM203.288 158.972L205.08 159.644C203.26 163.508 199.816 166.448 195.504 168.24C195.252 167.876 194.72 167.232 194.328 166.896C198.528 165.272 201.72 162.444 203.288 158.972ZM199.032 147.38L199.9 146.232C201.132 147.072 202.532 148.36 203.176 149.256L202.28 150.572C201.636 149.648 200.236 148.304 199.032 147.38ZM204.268 150.768L205.556 150.264C206.34 151.552 207.096 153.232 207.32 154.296L205.948 154.94C205.696 153.848 204.996 152.084 204.268 150.768ZM199.396 152.728C201.132 152.616 203.456 152.476 205.92 152.308V153.764C203.68 153.988 201.552 154.184 199.704 154.352L199.396 152.728ZM202.28 142.76L203.904 143.404C203.12 144.972 202.168 146.792 201.384 147.94L200.18 147.38C200.88 146.148 201.804 144.132 202.28 142.76ZM204.576 145.56L206.144 146.316C204.716 148.724 202.812 151.72 201.3 153.624L200.124 152.952C201.608 151.02 203.512 147.828 204.576 145.56ZM189.54 147.38L190.436 146.232C191.64 147.072 193.068 148.36 193.684 149.256L192.788 150.572C192.144 149.648 190.744 148.304 189.54 147.38ZM194.412 150.936L195.7 150.46C196.428 151.748 197.1 153.456 197.268 154.52L195.896 155.108C195.7 154.016 195.084 152.28 194.412 150.936ZM189.652 153.036C191.416 152.952 193.712 152.784 196.204 152.588V154.1C193.964 154.324 191.808 154.52 189.96 154.688L189.652 153.036ZM192.816 142.76L194.44 143.432C193.628 144.972 192.676 146.82 191.92 147.968L190.716 147.436C191.416 146.176 192.312 144.132 192.816 142.76ZM195.112 145.56L196.652 146.316C195.196 148.808 193.236 151.916 191.64 153.848L190.436 153.204C192.004 151.216 193.992 147.912 195.112 145.56ZM181.588 148.556H190.072V150.516H181.588V148.556ZM185.144 142.48H187.048V168.212H185.144V142.48ZM185.06 149.732L186.32 150.124C185.536 154.548 183.884 160.064 182.036 162.864C181.812 162.36 181.336 161.576 181 161.128C182.708 158.608 184.388 153.708 185.06 149.732ZM186.908 151.58C187.468 152.336 189.652 155.836 190.1 156.648L189.036 158.188C188.476 156.788 186.712 153.484 186.04 152.392L186.908 151.58ZM228.292 143.404H241.396V152.028H228.04V150.404H239.436V145.028H228.292V143.404ZM228.768 146.904H240.612V148.388H228.768V146.904ZM226.584 153.456H243.272V158.58H241.368V155.192H228.432V158.608H226.584V153.456ZM228.432 157.936H240.668V159.616H230.336V166.168H228.432V157.936ZM239.688 157.936H241.536V164.264C241.536 165.16 241.396 165.692 240.724 166C240.052 166.308 239.044 166.308 237.56 166.308C237.504 165.776 237.252 165.076 237.028 164.6C238.148 164.628 239.016 164.628 239.324 164.6C239.632 164.572 239.688 164.516 239.688 164.236V157.936ZM233.892 155.136H235.796V168.268H233.892V155.136ZM217.596 157.012C219.752 156.396 223 155.388 226.164 154.38L226.444 156.312C223.56 157.292 220.508 158.3 218.156 159.056L217.596 157.012ZM217.988 148.136H226.584V150.096H217.988V148.136ZM221.516 142.508H223.476V165.804C223.476 166.98 223.196 167.54 222.496 167.876C221.852 168.212 220.76 168.268 218.996 168.268C218.912 167.764 218.66 166.896 218.38 166.308C219.612 166.336 220.676 166.336 221.012 166.308C221.348 166.308 221.516 166.224 221.516 165.804V142.508ZM263.516 146.512H280.148V148.444H263.516V146.512ZM267.436 142.508H269.452V152.112H267.436V142.508ZM274.436 142.508H276.48V152.112H274.436V142.508ZM264.776 153.344H279.14V168.072H277.124V155.22H266.68V168.212H264.776V153.344ZM265.812 159.084H278.076V160.932H265.812V159.084ZM265.868 164.88H278.104V166.756H265.868V164.88ZM270.908 154.184H272.84V166.196H270.908V154.184ZM254.276 157.376C256.432 156.788 259.68 155.78 262.816 154.8L263.096 156.704C260.212 157.684 257.188 158.664 254.836 159.42L254.276 157.376ZM254.668 148.136H263.012V150.096H254.668V148.136ZM258.056 142.508H260.016V165.636C260.016 166.784 259.764 167.344 259.064 167.68C258.42 168.016 257.328 168.072 255.536 168.072C255.48 167.568 255.228 166.7 254.948 166.112C256.18 166.14 257.244 166.14 257.58 166.14C257.944 166.14 258.056 166.028 258.056 165.608V142.508Z" fill="white"/>
</svg>
