<svg width="425" height="600" viewBox="0 0 425 600" fill="none" xmlns="http://www.w3.org/2000/svg">
<rect width="424.26" height="600" fill="#636890"/>
<path d="M110.957 181.154C109.945 181.154 109.036 180.978 108.229 180.626C107.437 180.259 106.814 179.761 106.359 179.13C105.905 178.485 105.67 177.744 105.655 176.908H107.789C107.863 177.627 108.156 178.235 108.669 178.734C109.197 179.218 109.96 179.46 110.957 179.46C111.911 179.46 112.659 179.225 113.201 178.756C113.759 178.272 114.037 177.656 114.037 176.908C114.037 176.321 113.876 175.845 113.553 175.478C113.231 175.111 112.827 174.833 112.343 174.642C111.859 174.451 111.207 174.246 110.385 174.026C109.373 173.762 108.559 173.498 107.943 173.234C107.342 172.97 106.821 172.559 106.381 172.002C105.956 171.43 105.743 170.667 105.743 169.714C105.743 168.878 105.956 168.137 106.381 167.492C106.807 166.847 107.401 166.348 108.163 165.996C108.941 165.644 109.828 165.468 110.825 165.468C112.263 165.468 113.436 165.827 114.345 166.546C115.269 167.265 115.79 168.218 115.907 169.406H113.707C113.634 168.819 113.326 168.306 112.783 167.866C112.241 167.411 111.522 167.184 110.627 167.184C109.791 167.184 109.109 167.404 108.581 167.844C108.053 168.269 107.789 168.871 107.789 169.648C107.789 170.205 107.943 170.66 108.251 171.012C108.574 171.364 108.963 171.635 109.417 171.826C109.887 172.002 110.539 172.207 111.375 172.442C112.387 172.721 113.201 172.999 113.817 173.278C114.433 173.542 114.961 173.96 115.401 174.532C115.841 175.089 116.061 175.852 116.061 176.82C116.061 177.568 115.863 178.272 115.467 178.932C115.071 179.592 114.485 180.127 113.707 180.538C112.93 180.949 112.013 181.154 110.957 181.154ZM118.259 173.322C118.259 171.826 118.597 170.484 119.271 169.296C119.946 168.093 120.863 167.155 122.021 166.48C123.195 165.805 124.493 165.468 125.915 165.468C127.587 165.468 129.047 165.871 130.293 166.678C131.54 167.485 132.449 168.629 133.021 170.11H130.623C130.198 169.186 129.582 168.475 128.775 167.976C127.983 167.477 127.03 167.228 125.915 167.228C124.845 167.228 123.884 167.477 123.033 167.976C122.183 168.475 121.515 169.186 121.031 170.11C120.547 171.019 120.305 172.09 120.305 173.322C120.305 174.539 120.547 175.61 121.031 176.534C121.515 177.443 122.183 178.147 123.033 178.646C123.884 179.145 124.845 179.394 125.915 179.394C127.03 179.394 127.983 179.152 128.775 178.668C129.582 178.169 130.198 177.458 130.623 176.534H133.021C132.449 178.001 131.54 179.137 130.293 179.944C129.047 180.736 127.587 181.132 125.915 181.132C124.493 181.132 123.195 180.802 122.021 180.142C120.863 179.467 119.946 178.536 119.271 177.348C118.597 176.16 118.259 174.818 118.259 173.322ZM145.066 177.59H138.378L137.146 181H135.034L140.578 165.754H142.888L148.41 181H146.298L145.066 177.59ZM144.494 175.962L141.722 168.218L138.95 175.962H144.494ZM162.882 181H160.88L152.828 168.79V181H150.826V165.644H152.828L160.88 177.832V165.644H162.882V181ZM191.432 165.666L186.988 181H184.744L181.18 168.658L177.484 181L175.262 181.022L170.972 165.666H173.106L176.45 178.668L180.146 165.666H182.39L185.91 178.624L189.276 165.666H191.432ZM195.625 165.666V181H193.623V165.666H195.625ZM208.475 165.666V167.294H204.295V181H202.293V167.294H198.091V165.666H208.475ZM222.753 165.666V181H220.751V174.048H212.941V181H210.939V165.666H212.941V172.398H220.751V165.666H222.753ZM231.289 173.322C231.289 171.826 231.626 170.484 232.301 169.296C232.975 168.093 233.892 167.155 235.051 166.48C236.224 165.805 237.522 165.468 238.945 165.468C240.617 165.468 242.076 165.871 243.323 166.678C244.569 167.485 245.479 168.629 246.051 170.11H243.653C243.227 169.186 242.611 168.475 241.805 167.976C241.013 167.477 240.059 167.228 238.945 167.228C237.874 167.228 236.913 167.477 236.063 167.976C235.212 168.475 234.545 169.186 234.061 170.11C233.577 171.019 233.335 172.09 233.335 173.322C233.335 174.539 233.577 175.61 234.061 176.534C234.545 177.443 235.212 178.147 236.063 178.646C236.913 179.145 237.874 179.394 238.945 179.394C240.059 179.394 241.013 179.152 241.805 178.668C242.611 178.169 243.227 177.458 243.653 176.534H246.051C245.479 178.001 244.569 179.137 243.323 179.944C242.076 180.736 240.617 181.132 238.945 181.132C237.522 181.132 236.224 180.802 235.051 180.142C233.892 179.467 232.975 178.536 232.301 177.348C231.626 176.16 231.289 174.818 231.289 173.322ZM258.095 177.59H251.407L250.175 181H248.063L253.607 165.754H255.917L261.439 181H259.327L258.095 177.59ZM257.523 175.962L254.751 168.218L251.979 175.962H257.523ZM279.409 165.776V181H277.407V169.648L272.347 181H270.939L265.857 169.626V181H263.855V165.776H266.011L271.643 178.36L277.275 165.776H279.409ZM284.806 167.294V172.42H290.394V174.07H284.806V179.35H291.054V181H282.804V165.644H291.054V167.294H284.806ZM302.158 181L298.506 174.73H296.086V181H294.084V165.666H299.034C300.192 165.666 301.168 165.864 301.96 166.26C302.766 166.656 303.368 167.191 303.764 167.866C304.16 168.541 304.358 169.311 304.358 170.176C304.358 171.232 304.05 172.163 303.434 172.97C302.832 173.777 301.923 174.312 300.706 174.576L304.556 181H302.158ZM296.086 173.124H299.034C300.119 173.124 300.933 172.86 301.476 172.332C302.018 171.789 302.29 171.071 302.29 170.176C302.29 169.267 302.018 168.563 301.476 168.064C300.948 167.565 300.134 167.316 299.034 167.316H296.086V173.124ZM316.532 177.59H309.844L308.612 181H306.5L312.044 165.754H314.354L319.876 181H317.764L316.532 177.59ZM315.96 175.962L313.188 168.218L310.416 175.962H315.96Z" fill="white"/>
<path d="M380.414 109.69C379.498 109.085 378.487 108.655 377.531 108.117C376.911 107.767 376.251 107.458 375.712 107.014C374.796 106.261 374.984 104.782 375.941 104.137C377.315 103.222 379.592 103.733 379.835 105.602C379.835 105.643 379.875 105.67 379.916 105.67H381.99C382.044 105.67 382.085 105.629 382.071 105.575C381.964 104.285 381.465 103.209 380.549 102.523C379.673 101.864 378.676 101.515 377.612 101.515C372.128 101.515 371.629 107.31 374.58 109.139C374.917 109.354 377.814 110.806 378.838 111.438C379.862 112.07 380.185 113.226 379.74 114.14C379.336 114.974 378.285 115.552 377.234 115.485C376.089 115.418 375.2 114.799 374.89 113.831C374.836 113.656 374.809 113.32 374.809 113.172C374.809 113.132 374.769 113.092 374.728 113.092H372.478C372.438 113.092 372.397 113.132 372.397 113.172C372.397 114.799 372.802 115.7 373.906 116.52C374.944 117.3 376.076 117.623 377.248 117.623C380.32 117.623 381.91 115.888 382.233 114.087C382.516 112.325 381.99 110.739 380.414 109.69Z" fill="white"/>
<path d="M282.718 101.811H281.721H280.63C280.589 101.811 280.562 101.838 280.549 101.864L278.703 107.942C278.676 108.023 278.568 108.023 278.541 107.942L276.696 101.864C276.682 101.824 276.655 101.811 276.615 101.811H275.523H274.526H273.179C273.139 101.811 273.098 101.851 273.098 101.891V117.408C273.098 117.448 273.139 117.488 273.179 117.488H275.429C275.47 117.488 275.51 117.448 275.51 117.408V105.616C275.51 105.522 275.645 105.508 275.672 105.589L277.531 111.707L277.666 112.137C277.679 112.177 277.706 112.191 277.747 112.191H279.471C279.512 112.191 279.539 112.164 279.552 112.137L279.687 111.707L281.546 105.589C281.573 105.495 281.708 105.522 281.708 105.616V117.408C281.708 117.448 281.748 117.488 281.789 117.488H284.039C284.079 117.488 284.119 117.448 284.119 117.408V101.891C284.119 101.851 284.079 101.811 284.039 101.811H282.718Z" fill="white"/>
<path d="M345.963 101.811C345.922 101.811 345.895 101.838 345.882 101.864L344.036 107.942C344.009 108.023 343.901 108.023 343.874 107.942L342.028 101.864C342.015 101.824 341.988 101.811 341.947 101.811H338.525C338.485 101.811 338.444 101.851 338.444 101.891V117.408C338.444 117.448 338.485 117.488 338.525 117.488H340.775C340.816 117.488 340.856 117.448 340.856 117.408V105.616C340.856 105.522 340.991 105.508 341.018 105.589L342.877 111.707L343.012 112.137C343.025 112.177 343.052 112.191 343.093 112.191H344.817C344.858 112.191 344.885 112.164 344.898 112.137L345.033 111.707L346.892 105.589C346.919 105.495 347.054 105.522 347.054 105.616V117.408C347.054 117.448 347.094 117.488 347.135 117.488H349.385C349.425 117.488 349.466 117.448 349.466 117.408V101.891C349.466 101.851 349.425 101.811 349.385 101.811H345.963Z" fill="white"/>
<path d="M316.941 101.811H312.751H310.5H306.31C306.27 101.811 306.229 101.851 306.229 101.891V103.828C306.229 103.868 306.27 103.908 306.31 103.908H310.42V117.408C310.42 117.448 310.46 117.488 310.5 117.488H312.751C312.791 117.488 312.831 117.448 312.831 117.408V103.908H316.941C316.981 103.908 317.022 103.868 317.022 103.828V101.891C317.022 101.851 316.995 101.811 316.941 101.811Z" fill="white"/>
<path d="M330.212 117.488H332.26C332.314 117.488 332.354 117.434 332.341 117.381L328.11 101.811C328.097 101.77 328.07 101.757 328.029 101.757H327.248H325.874H325.092C325.052 101.757 325.025 101.784 325.011 101.811L320.781 117.381C320.767 117.434 320.808 117.488 320.862 117.488H322.909C322.95 117.488 322.977 117.461 322.99 117.434L324.216 112.903C324.23 112.863 324.257 112.85 324.297 112.85H328.824C328.865 112.85 328.892 112.876 328.905 112.903L330.131 117.434C330.145 117.461 330.185 117.488 330.212 117.488ZM324.836 110.631L326.48 104.567C326.507 104.486 326.615 104.486 326.642 104.567L328.285 110.631C328.299 110.685 328.258 110.739 328.205 110.739H324.917C324.863 110.739 324.823 110.685 324.836 110.631Z" fill="white"/>
<path d="M365.135 117.488H367.183C367.237 117.488 367.277 117.434 367.264 117.381L363.033 101.811C363.02 101.77 362.993 101.757 362.952 101.757H362.171H360.797H360.015C359.975 101.757 359.948 101.784 359.934 101.811L355.704 117.381C355.69 117.434 355.731 117.488 355.785 117.488H357.833C357.873 117.488 357.9 117.461 357.913 117.434L359.14 112.903C359.153 112.863 359.18 112.85 359.22 112.85H363.747C363.788 112.85 363.815 112.876 363.828 112.903L365.054 117.434C365.068 117.461 365.095 117.488 365.135 117.488ZM359.759 110.631L361.403 104.567C361.43 104.486 361.538 104.486 361.565 104.567L363.208 110.631C363.222 110.685 363.182 110.739 363.128 110.739H359.84C359.786 110.739 359.746 110.685 359.759 110.631Z" fill="white"/>
<path d="M293.254 115.189V110.376C293.254 110.335 293.295 110.295 293.335 110.295H299.331C299.371 110.295 299.412 110.255 299.412 110.214V108.278C299.412 108.238 299.371 108.197 299.331 108.197H293.335C293.295 108.197 293.254 108.157 293.254 108.117V104.002C293.254 103.962 293.295 103.922 293.335 103.922H300.153C300.193 103.922 300.234 103.881 300.234 103.841V101.905C300.234 101.864 300.193 101.824 300.153 101.824H293.254H290.924C290.883 101.824 290.843 101.864 290.843 101.905V103.922V108.211V110.308V115.283V117.408C290.843 117.448 290.883 117.488 290.924 117.488H293.254H300.436C300.476 117.488 300.517 117.448 300.517 117.408V115.364C300.517 115.324 300.476 115.283 300.436 115.283H293.322C293.281 115.27 293.254 115.243 293.254 115.189Z" fill="white"/>
<path d="M400.975 117.354L393.187 109.327C393.16 109.3 393.16 109.246 393.187 109.219L400.193 101.959C400.247 101.905 400.207 101.824 400.139 101.824H397.269C397.242 101.824 397.229 101.838 397.215 101.851L391.274 108.009C391.22 108.063 391.139 108.023 391.139 107.955V101.905C391.139 101.864 391.099 101.824 391.058 101.824H388.808C388.768 101.824 388.727 101.864 388.727 101.905V117.421C388.727 117.461 388.768 117.502 388.808 117.502H391.058C391.099 117.502 391.139 117.461 391.139 117.421V110.591C391.139 110.523 391.233 110.483 391.274 110.537L398.01 117.475C398.024 117.488 398.051 117.502 398.064 117.502H400.934C400.988 117.488 401.028 117.394 400.975 117.354Z" fill="white"/>
<path d="M265.269 98L255.295 105.384L257.15 101.032L265.269 98Z" fill="#E17726" stroke="#E17726" stroke-linecap="round" stroke-linejoin="round"/>
<path d="M242.263 98L252.148 105.453L250.382 101.032L242.263 98Z" fill="#E27625" stroke="#E27625" stroke-linecap="round" stroke-linejoin="round"/>
<path d="M261.678 115.121L259.024 119.177L264.707 120.742L266.335 115.209L261.678 115.121Z" fill="#E27625" stroke="#E27625" stroke-linecap="round" stroke-linejoin="round"/>
<path d="M241.207 115.209L242.825 120.742L248.498 119.177L245.854 115.121L241.207 115.209Z" fill="#E27625" stroke="#E27625" stroke-linecap="round" stroke-linejoin="round"/>
<path d="M248.192 108.268L246.613 110.651L252.237 110.907L252.049 104.852L248.192 108.268Z" fill="#E27625" stroke="#E27625" stroke-linecap="round" stroke-linejoin="round"/>
<path d="M259.34 108.268L255.423 104.783L255.295 110.907L260.918 110.651L259.34 108.268Z" fill="#E27625" stroke="#E27625" stroke-linecap="round" stroke-linejoin="round"/>
<path d="M248.498 119.177L251.901 117.533L248.971 115.249L248.498 119.177Z" fill="#E27625" stroke="#E27625" stroke-linecap="round" stroke-linejoin="round"/>
<path d="M255.63 117.533L259.024 119.177L258.561 115.249L255.63 117.533Z" fill="#E27625" stroke="#E27625" stroke-linecap="round" stroke-linejoin="round"/>
<path d="M259.024 119.177L255.631 117.533L255.907 119.738L255.877 120.673L259.024 119.177Z" fill="#D5BFB2" stroke="#D5BFB2" stroke-linecap="round" stroke-linejoin="round"/>
<path d="M248.498 119.177L251.655 120.673L251.635 119.738L251.901 117.533L248.498 119.177Z" fill="#D5BFB2" stroke="#D5BFB2" stroke-linecap="round" stroke-linejoin="round"/>
<path d="M251.714 113.792L248.892 112.965L250.885 112.049L251.714 113.792Z" fill="#233447" stroke="#233447" stroke-linecap="round" stroke-linejoin="round"/>
<path d="M255.818 113.792L256.647 112.049L258.649 112.965L255.818 113.792Z" fill="#233447" stroke="#233447" stroke-linecap="round" stroke-linejoin="round"/>
<path d="M248.498 119.177L248.991 115.121L245.854 115.209L248.498 119.177Z" fill="#CC6228" stroke="#CC6228" stroke-linecap="round" stroke-linejoin="round"/>
<path d="M258.541 115.121L259.024 119.177L261.678 115.209L258.541 115.121Z" fill="#CC6228" stroke="#CC6228" stroke-linecap="round" stroke-linejoin="round"/>
<path d="M260.918 110.651L255.295 110.907L255.818 113.792L256.647 112.049L258.649 112.965L260.918 110.651Z" fill="#CC6228" stroke="#CC6228" stroke-linecap="round" stroke-linejoin="round"/>
<path d="M248.892 112.965L250.885 112.049L251.714 113.792L252.237 110.907L246.613 110.651L248.892 112.965Z" fill="#CC6228" stroke="#CC6228" stroke-linecap="round" stroke-linejoin="round"/>
<path d="M246.613 110.651L248.971 115.249L248.892 112.965L246.613 110.651Z" fill="#E27525" stroke="#E27525" stroke-linecap="round" stroke-linejoin="round"/>
<path d="M258.649 112.965L258.561 115.249L260.918 110.651L258.649 112.965Z" fill="#E27525" stroke="#E27525" stroke-linecap="round" stroke-linejoin="round"/>
<path d="M252.237 110.907L251.714 113.792L252.375 117.198L252.523 112.709L252.237 110.907Z" fill="#E27525" stroke="#E27525" stroke-linecap="round" stroke-linejoin="round"/>
<path d="M255.295 110.907L255.019 112.699L255.157 117.198L255.818 113.792L255.295 110.907Z" fill="#E27525" stroke="#E27525" stroke-linecap="round" stroke-linejoin="round"/>
<path d="M255.818 113.792L255.157 117.198L255.631 117.533L258.561 115.249L258.649 112.965L255.818 113.792Z" fill="#F5841F" stroke="#F5841F" stroke-linecap="round" stroke-linejoin="round"/>
<path d="M248.892 112.965L248.971 115.249L251.901 117.533L252.375 117.198L251.714 113.792L248.892 112.965Z" fill="#F5841F" stroke="#F5841F" stroke-linecap="round" stroke-linejoin="round"/>
<path d="M255.877 120.673L255.907 119.738L255.65 119.521H251.882L251.635 119.738L251.655 120.673L248.498 119.177L249.603 120.083L251.842 121.628H255.68L257.929 120.083L259.024 119.177L255.877 120.673Z" fill="#C0AC9D" stroke="#C0AC9D" stroke-linecap="round" stroke-linejoin="round"/>
<path d="M255.631 117.533L255.157 117.198H252.375L251.901 117.533L251.635 119.738L251.882 119.521H255.65L255.907 119.738L255.631 117.533Z" fill="#161616" stroke="#161616" stroke-linecap="round" stroke-linejoin="round"/>
<path d="M265.693 105.866L266.532 101.79L265.269 98L255.631 105.138L259.34 108.268L264.579 109.794L265.733 108.446L265.23 108.081L266.029 107.353L265.417 106.88L266.216 106.27L265.693 105.866Z" fill="#763E1A" stroke="#763E1A" stroke-linecap="round" stroke-linejoin="round"/>
<path d="M241 101.79L241.848 105.866L241.306 106.27L242.115 106.88L241.503 107.353L242.302 108.081L241.799 108.446L242.953 109.794L248.192 108.268L251.901 105.138L242.263 98L241 101.79Z" fill="#763E1A" stroke="#763E1A" stroke-linecap="round" stroke-linejoin="round"/>
<path d="M264.579 109.794L259.34 108.268L260.918 110.651L258.561 115.249L261.678 115.209H266.335L264.579 109.794Z" fill="#F5841F" stroke="#F5841F" stroke-linecap="round" stroke-linejoin="round"/>
<path d="M248.192 108.268L242.953 109.794L241.207 115.209H245.854L248.971 115.249L246.613 110.651L248.192 108.268Z" fill="#F5841F" stroke="#F5841F" stroke-linecap="round" stroke-linejoin="round"/>
<path d="M255.295 110.907L255.631 105.138L257.15 101.032H250.382L251.901 105.138L252.237 110.907L252.365 112.718L252.375 117.198H255.157L255.167 112.718L255.295 110.907Z" fill="#F5841F" stroke="#F5841F" stroke-linecap="round" stroke-linejoin="round"/>
<path d="M40.9298 104.944L37.1678 117H35.0998L32.1958 107.43L29.2918 117H27.2238L23.4398 104.944H25.4858L28.2578 115.064L31.2498 104.944H33.2958L36.2218 115.086L38.9498 104.944H40.9298ZM48.9007 104.724C49.81 104.724 50.6313 104.922 51.3647 105.318C52.098 105.699 52.67 106.279 53.0807 107.056C53.506 107.833 53.7187 108.779 53.7187 109.894V117H51.7387V110.18C51.7387 108.977 51.438 108.061 50.8367 107.43C50.2353 106.785 49.414 106.462 48.3727 106.462C47.3167 106.462 46.4733 106.792 45.8427 107.452C45.2267 108.112 44.9187 109.073 44.9187 110.334V117H42.9167V100.72H44.9187V106.66C45.3147 106.044 45.8573 105.567 46.5467 105.23C47.2507 104.893 48.0353 104.724 48.9007 104.724ZM67.9889 110.51C67.9889 110.891 67.9669 111.295 67.9229 111.72H58.2869C58.3603 112.908 58.7636 113.839 59.4969 114.514C60.2449 115.174 61.1469 115.504 62.2029 115.504C63.0683 115.504 63.7869 115.306 64.3589 114.91C64.9456 114.499 65.3563 113.957 65.5909 113.282H67.7469C67.4243 114.441 66.7789 115.387 65.8109 116.12C64.8429 116.839 63.6403 117.198 62.2029 117.198C61.0589 117.198 60.0323 116.941 59.1229 116.428C58.2283 115.915 57.5243 115.189 57.0109 114.25C56.4976 113.297 56.2409 112.197 56.2409 110.95C56.2409 109.703 56.4903 108.611 56.9889 107.672C57.4876 106.733 58.1843 106.015 59.0789 105.516C59.9883 105.003 61.0296 104.746 62.2029 104.746C63.3469 104.746 64.3589 104.995 65.2389 105.494C66.1189 105.993 66.7936 106.682 67.2629 107.562C67.7469 108.427 67.9889 109.41 67.9889 110.51ZM65.9209 110.092C65.9209 109.329 65.7523 108.677 65.4149 108.134C65.0776 107.577 64.6156 107.159 64.0289 106.88C63.4569 106.587 62.8189 106.44 62.1149 106.44C61.1029 106.44 60.2376 106.763 59.5189 107.408C58.8149 108.053 58.4116 108.948 58.3089 110.092H65.9209ZM76.5055 104.724C77.9722 104.724 79.1602 105.171 80.0695 106.066C80.9788 106.946 81.4335 108.222 81.4335 109.894V117H79.4535V110.18C79.4535 108.977 79.1528 108.061 78.5515 107.43C77.9502 106.785 77.1288 106.462 76.0875 106.462C75.0315 106.462 74.1882 106.792 73.5575 107.452C72.9415 108.112 72.6335 109.073 72.6335 110.334V117H70.6315V104.944H72.6335V106.66C73.0295 106.044 73.5648 105.567 74.2395 105.23C74.9288 104.893 75.6842 104.724 76.5055 104.724ZM100.953 104.944L93.693 122.676H91.625L94.001 116.868L89.139 104.944H91.361L95.145 114.712L98.885 104.944H100.953ZM108.223 117.198C107.094 117.198 106.067 116.941 105.143 116.428C104.234 115.915 103.515 115.189 102.987 114.25C102.474 113.297 102.217 112.197 102.217 110.95C102.217 109.718 102.481 108.633 103.009 107.694C103.552 106.741 104.285 106.015 105.209 105.516C106.133 105.003 107.167 104.746 108.311 104.746C109.455 104.746 110.489 105.003 111.413 105.516C112.337 106.015 113.063 106.733 113.591 107.672C114.134 108.611 114.405 109.703 114.405 110.95C114.405 112.197 114.127 113.297 113.569 114.25C113.027 115.189 112.286 115.915 111.347 116.428C110.409 116.941 109.367 117.198 108.223 117.198ZM108.223 115.438C108.942 115.438 109.617 115.269 110.247 114.932C110.878 114.595 111.384 114.089 111.765 113.414C112.161 112.739 112.359 111.918 112.359 110.95C112.359 109.982 112.169 109.161 111.787 108.486C111.406 107.811 110.907 107.313 110.291 106.99C109.675 106.653 109.008 106.484 108.289 106.484C107.556 106.484 106.881 106.653 106.265 106.99C105.664 107.313 105.18 107.811 104.813 108.486C104.447 109.161 104.263 109.982 104.263 110.95C104.263 111.933 104.439 112.761 104.791 113.436C105.158 114.111 105.642 114.617 106.243 114.954C106.845 115.277 107.505 115.438 108.223 115.438ZM127.73 104.944V117H125.728V115.218C125.346 115.834 124.811 116.318 124.122 116.67C123.447 117.007 122.699 117.176 121.878 117.176C120.939 117.176 120.096 116.985 119.348 116.604C118.6 116.208 118.006 115.621 117.566 114.844C117.14 114.067 116.928 113.121 116.928 112.006V104.944H118.908V111.742C118.908 112.93 119.208 113.847 119.81 114.492C120.411 115.123 121.232 115.438 122.274 115.438C123.344 115.438 124.188 115.108 124.804 114.448C125.42 113.788 125.728 112.827 125.728 111.566V104.944H127.73ZM138.977 107.166C139.373 106.477 139.96 105.905 140.737 105.45C141.529 104.981 142.446 104.746 143.487 104.746C144.558 104.746 145.526 105.003 146.391 105.516C147.271 106.029 147.961 106.755 148.459 107.694C148.958 108.618 149.207 109.696 149.207 110.928C149.207 112.145 148.958 113.231 148.459 114.184C147.961 115.137 147.271 115.878 146.391 116.406C145.526 116.934 144.558 117.198 143.487 117.198C142.461 117.198 141.551 116.971 140.759 116.516C139.982 116.047 139.388 115.467 138.977 114.778V122.72H136.975V104.944H138.977V107.166ZM147.161 110.928C147.161 110.019 146.978 109.227 146.611 108.552C146.245 107.877 145.746 107.364 145.115 107.012C144.499 106.66 143.817 106.484 143.069 106.484C142.336 106.484 141.654 106.667 141.023 107.034C140.407 107.386 139.909 107.907 139.527 108.596C139.161 109.271 138.977 110.055 138.977 110.95C138.977 111.859 139.161 112.659 139.527 113.348C139.909 114.023 140.407 114.543 141.023 114.91C141.654 115.262 142.336 115.438 143.069 115.438C143.817 115.438 144.499 115.262 145.115 114.91C145.746 114.543 146.245 114.023 146.611 113.348C146.978 112.659 147.161 111.852 147.161 110.928ZM151.094 110.928C151.094 109.696 151.344 108.618 151.842 107.694C152.341 106.755 153.023 106.029 153.888 105.516C154.768 105.003 155.744 104.746 156.814 104.746C157.87 104.746 158.787 104.973 159.564 105.428C160.342 105.883 160.921 106.455 161.302 107.144V104.944H163.326V117H161.302V114.756C160.906 115.46 160.312 116.047 159.52 116.516C158.743 116.971 157.834 117.198 156.792 117.198C155.722 117.198 154.754 116.934 153.888 116.406C153.023 115.878 152.341 115.137 151.842 114.184C151.344 113.231 151.094 112.145 151.094 110.928ZM161.302 110.95C161.302 110.041 161.119 109.249 160.752 108.574C160.386 107.899 159.887 107.386 159.256 107.034C158.64 106.667 157.958 106.484 157.21 106.484C156.462 106.484 155.78 106.66 155.164 107.012C154.548 107.364 154.057 107.877 153.69 108.552C153.324 109.227 153.14 110.019 153.14 110.928C153.14 111.852 153.324 112.659 153.69 113.348C154.057 114.023 154.548 114.543 155.164 114.91C155.78 115.262 156.462 115.438 157.21 115.438C157.958 115.438 158.64 115.262 159.256 114.91C159.887 114.543 160.386 114.023 160.752 113.348C161.119 112.659 161.302 111.859 161.302 110.95ZM177.094 104.944L169.834 122.676H167.766L170.142 116.868L165.28 104.944H167.502L171.286 114.712L175.026 104.944H177.094ZM201.031 104.944L197.269 117H195.201L192.297 107.43L189.393 117H187.325L183.541 104.944H185.587L188.359 115.064L191.351 104.944H193.397L196.323 115.086L199.051 104.944H201.031ZM204.052 102.986C203.671 102.986 203.348 102.854 203.084 102.59C202.82 102.326 202.688 102.003 202.688 101.622C202.688 101.241 202.82 100.918 203.084 100.654C203.348 100.39 203.671 100.258 204.052 100.258C204.419 100.258 204.727 100.39 204.976 100.654C205.24 100.918 205.372 101.241 205.372 101.622C205.372 102.003 205.24 102.326 204.976 102.59C204.727 102.854 204.419 102.986 204.052 102.986ZM205.02 104.944V117H203.018V104.944H205.02ZM210.874 106.594V113.7C210.874 114.287 210.999 114.705 211.248 114.954C211.498 115.189 211.93 115.306 212.546 115.306H214.02V117H212.216C211.102 117 210.266 116.743 209.708 116.23C209.151 115.717 208.872 114.873 208.872 113.7V106.594H207.31V104.944H208.872V101.908H210.874V104.944H214.02V106.594H210.874ZM222.43 104.724C223.339 104.724 224.161 104.922 224.894 105.318C225.627 105.699 226.199 106.279 226.61 107.056C227.035 107.833 227.248 108.779 227.248 109.894V117H225.268V110.18C225.268 108.977 224.967 108.061 224.366 107.43C223.765 106.785 222.943 106.462 221.902 106.462C220.846 106.462 220.003 106.792 219.372 107.452C218.756 108.112 218.448 109.073 218.448 110.334V117H216.446V100.72H218.448V106.66C218.844 106.044 219.387 105.567 220.076 105.23C220.78 104.893 221.565 104.724 222.43 104.724Z" fill="white"/>
<path d="M217.32 451.06V459.88C217.32 461.12 217.62 462.04 218.22 462.64C218.833 463.24 219.68 463.54 220.76 463.54C221.827 463.54 222.66 463.24 223.26 462.64C223.873 462.04 224.18 461.12 224.18 459.88V451.06H226V459.86C226 461.02 225.767 462 225.3 462.8C224.833 463.587 224.2 464.173 223.4 464.56C222.613 464.947 221.727 465.14 220.74 465.14C219.753 465.14 218.86 464.947 218.06 464.56C217.273 464.173 216.647 463.587 216.18 462.8C215.727 462 215.5 461.02 215.5 459.86V451.06H217.32ZM233.456 465.14C232.536 465.14 231.709 464.98 230.976 464.66C230.256 464.327 229.689 463.873 229.276 463.3C228.863 462.713 228.649 462.04 228.636 461.28H230.576C230.643 461.933 230.909 462.487 231.376 462.94C231.856 463.38 232.549 463.6 233.456 463.6C234.323 463.6 235.003 463.387 235.496 462.96C236.003 462.52 236.256 461.96 236.256 461.28C236.256 460.747 236.109 460.313 235.816 459.98C235.523 459.647 235.156 459.393 234.716 459.22C234.276 459.047 233.683 458.86 232.936 458.66C232.016 458.42 231.276 458.18 230.716 457.94C230.169 457.7 229.696 457.327 229.296 456.82C228.909 456.3 228.716 455.607 228.716 454.74C228.716 453.98 228.909 453.307 229.296 452.72C229.683 452.133 230.223 451.68 230.916 451.36C231.623 451.04 232.429 450.88 233.336 450.88C234.643 450.88 235.709 451.207 236.536 451.86C237.376 452.513 237.849 453.38 237.956 454.46H235.956C235.889 453.927 235.609 453.46 235.116 453.06C234.623 452.647 233.969 452.44 233.156 452.44C232.396 452.44 231.776 452.64 231.296 453.04C230.816 453.427 230.576 453.973 230.576 454.68C230.576 455.187 230.716 455.6 230.996 455.92C231.289 456.24 231.643 456.487 232.056 456.66C232.483 456.82 233.076 457.007 233.836 457.22C234.756 457.473 235.496 457.727 236.056 457.98C236.616 458.22 237.096 458.6 237.496 459.12C237.896 459.627 238.096 460.32 238.096 461.2C238.096 461.88 237.916 462.52 237.556 463.12C237.196 463.72 236.663 464.207 235.956 464.58C235.249 464.953 234.416 465.14 233.456 465.14ZM245.114 451.06C246.634 451.06 247.948 451.347 249.054 451.92C250.174 452.48 251.028 453.287 251.614 454.34C252.214 455.393 252.514 456.633 252.514 458.06C252.514 459.487 252.214 460.727 251.614 461.78C251.028 462.82 250.174 463.62 249.054 464.18C247.948 464.727 246.634 465 245.114 465H240.774V451.06H245.114ZM245.114 463.5C246.914 463.5 248.288 463.027 249.234 462.08C250.181 461.12 250.654 459.78 250.654 458.06C250.654 456.327 250.174 454.973 249.214 454C248.268 453.027 246.901 452.54 245.114 452.54H242.594V463.5H245.114ZM254.235 458.02C254.235 456.66 254.542 455.44 255.155 454.36C255.768 453.267 256.602 452.413 257.655 451.8C258.722 451.187 259.902 450.88 261.195 450.88C262.715 450.88 264.042 451.247 265.175 451.98C266.308 452.713 267.135 453.753 267.655 455.1H265.475C265.088 454.26 264.528 453.613 263.795 453.16C263.075 452.707 262.208 452.48 261.195 452.48C260.222 452.48 259.348 452.707 258.575 453.16C257.802 453.613 257.195 454.26 256.755 455.1C256.315 455.927 256.095 456.9 256.095 458.02C256.095 459.127 256.315 460.1 256.755 460.94C257.195 461.767 257.802 462.407 258.575 462.86C259.348 463.313 260.222 463.54 261.195 463.54C262.208 463.54 263.075 463.32 263.795 462.88C264.528 462.427 265.088 461.78 265.475 460.94H267.655C267.135 462.273 266.308 463.307 265.175 464.04C264.042 464.76 262.715 465.12 261.195 465.12C259.902 465.12 258.722 464.82 257.655 464.22C256.602 463.607 255.768 462.76 255.155 461.68C254.542 460.6 254.235 459.38 254.235 458.02Z" fill="white"/>
<path d="M201 468C206.542 468 211 463.542 211 458C211 452.458 206.542 448 201 448C195.458 448 191 452.458 191 458C191 463.542 195.458 468 201 468Z" fill="#2775CA"/>
<path d="M203.751 459.591C203.751 458.133 202.876 457.633 201.126 457.424C199.876 457.258 199.626 456.924 199.626 456.341C199.626 455.758 200.043 455.383 200.876 455.383C201.626 455.383 202.043 455.633 202.251 456.258C202.293 456.383 202.418 456.466 202.543 456.466H203.21C203.376 456.466 203.501 456.341 203.501 456.174V456.133C203.335 455.216 202.585 454.508 201.626 454.424V453.424C201.626 453.258 201.501 453.133 201.293 453.091H200.668C200.501 453.091 200.376 453.216 200.335 453.424V454.383C199.085 454.549 198.293 455.383 198.293 456.424C198.293 457.799 199.126 458.341 200.876 458.549C202.043 458.758 202.418 459.008 202.418 459.674C202.418 460.341 201.835 460.799 201.043 460.799C199.96 460.799 199.585 460.341 199.46 459.716C199.418 459.549 199.293 459.466 199.168 459.466H198.46C198.293 459.466 198.168 459.591 198.168 459.758V459.799C198.335 460.841 199.001 461.591 200.376 461.799V462.799C200.376 462.966 200.501 463.091 200.71 463.133H201.335C201.501 463.133 201.626 463.008 201.668 462.799V461.799C202.918 461.591 203.751 460.716 203.751 459.591Z" fill="white"/>
<path d="M198.876 463.951C195.626 462.784 193.959 459.159 195.168 455.951C195.793 454.201 197.168 452.867 198.876 452.242C199.043 452.159 199.126 452.034 199.126 451.826V451.242C199.126 451.076 199.043 450.951 198.876 450.909C198.834 450.909 198.751 450.909 198.709 450.951C194.751 452.201 192.584 456.409 193.834 460.367C194.584 462.701 196.376 464.492 198.709 465.242C198.876 465.326 199.043 465.242 199.084 465.076C199.126 465.034 199.126 464.992 199.126 464.909V464.326C199.126 464.201 199.001 464.034 198.876 463.951ZM203.293 450.951C203.126 450.867 202.959 450.951 202.918 451.117C202.876 451.159 202.876 451.201 202.876 451.284V451.867C202.876 452.034 203.001 452.201 203.126 452.284C206.376 453.451 208.043 457.076 206.834 460.284C206.209 462.034 204.834 463.367 203.126 463.992C202.959 464.076 202.876 464.201 202.876 464.409V464.992C202.876 465.159 202.959 465.284 203.126 465.326C203.168 465.326 203.251 465.326 203.293 465.284C207.251 464.034 209.418 459.826 208.168 455.867C207.418 453.492 205.584 451.701 203.293 450.951Z" fill="white"/>
<path d="M30.78 461.9H24.7L23.58 465H21.66L26.7 451.14H28.8L33.82 465H31.9L30.78 461.9ZM30.26 460.42L27.74 453.38L25.22 460.42H30.26ZM34.5366 459.5C34.5366 458.367 34.7632 457.38 35.2166 456.54C35.6699 455.687 36.2966 455.027 37.0966 454.56C37.9099 454.093 38.8366 453.86 39.8766 453.86C41.2232 453.86 42.3299 454.187 43.1966 454.84C44.0766 455.493 44.6566 456.4 44.9366 457.56H42.9766C42.7899 456.893 42.4232 456.367 41.8766 455.98C41.3432 455.593 40.6766 455.4 39.8766 455.4C38.8366 455.4 37.9966 455.76 37.3566 456.48C36.7166 457.187 36.3966 458.193 36.3966 459.5C36.3966 460.82 36.7166 461.84 37.3566 462.56C37.9966 463.28 38.8366 463.64 39.8766 463.64C40.6766 463.64 41.3432 463.453 41.8766 463.08C42.4099 462.707 42.7766 462.173 42.9766 461.48H44.9366C44.6432 462.6 44.0566 463.5 43.1766 464.18C42.2966 464.847 41.1966 465.18 39.8766 465.18C38.8366 465.18 37.9099 464.947 37.0966 464.48C36.2966 464.013 35.6699 463.353 35.2166 462.5C34.7632 461.647 34.5366 460.647 34.5366 459.5ZM45.885 459.5C45.885 458.367 46.1117 457.38 46.565 456.54C47.0183 455.687 47.645 455.027 48.445 454.56C49.2583 454.093 50.185 453.86 51.225 453.86C52.5717 453.86 53.6783 454.187 54.545 454.84C55.425 455.493 56.005 456.4 56.285 457.56H54.325C54.1383 456.893 53.7717 456.367 53.225 455.98C52.6917 455.593 52.025 455.4 51.225 455.4C50.185 455.4 49.345 455.76 48.705 456.48C48.065 457.187 47.745 458.193 47.745 459.5C47.745 460.82 48.065 461.84 48.705 462.56C49.345 463.28 50.185 463.64 51.225 463.64C52.025 463.64 52.6917 463.453 53.225 463.08C53.7583 462.707 54.125 462.173 54.325 461.48H56.285C55.9917 462.6 55.405 463.5 54.525 464.18C53.645 464.847 52.545 465.18 51.225 465.18C50.185 465.18 49.2583 464.947 48.445 464.48C47.645 464.013 47.0183 463.353 46.565 462.5C46.1117 461.647 45.885 460.647 45.885 459.5ZM67.9134 459.1C67.9134 459.447 67.8934 459.813 67.8534 460.2H59.0934C59.1601 461.28 59.5268 462.127 60.1934 462.74C60.8734 463.34 61.6934 463.64 62.6534 463.64C63.4401 463.64 64.0934 463.46 64.6134 463.1C65.1468 462.727 65.5201 462.233 65.7334 461.62H67.6934C67.4001 462.673 66.8134 463.533 65.9334 464.2C65.0534 464.853 63.9601 465.18 62.6534 465.18C61.6134 465.18 60.6801 464.947 59.8534 464.48C59.0401 464.013 58.4001 463.353 57.9334 462.5C57.4668 461.633 57.2334 460.633 57.2334 459.5C57.2334 458.367 57.4601 457.373 57.9134 456.52C58.3668 455.667 59.0001 455.013 59.8134 454.56C60.6401 454.093 61.5868 453.86 62.6534 453.86C63.6934 453.86 64.6134 454.087 65.4134 454.54C66.2134 454.993 66.8268 455.62 67.2534 456.42C67.6934 457.207 67.9134 458.1 67.9134 459.1ZM66.0334 458.72C66.0334 458.027 65.8801 457.433 65.5734 456.94C65.2668 456.433 64.8468 456.053 64.3134 455.8C63.7934 455.533 63.2134 455.4 62.5734 455.4C61.6534 455.4 60.8668 455.693 60.2134 456.28C59.5734 456.867 59.2068 457.68 59.1134 458.72H66.0334ZM71.3358 456.06C71.6958 455.433 72.2291 454.913 72.9358 454.5C73.6558 454.073 74.4891 453.86 75.4358 453.86C76.4091 453.86 77.2891 454.093 78.0758 454.56C78.8758 455.027 79.5024 455.687 79.9558 456.54C80.4091 457.38 80.6358 458.36 80.6358 459.48C80.6358 460.587 80.4091 461.573 79.9558 462.44C79.5024 463.307 78.8758 463.98 78.0758 464.46C77.2891 464.94 76.4091 465.18 75.4358 465.18C74.5024 465.18 73.6758 464.973 72.9558 464.56C72.2491 464.133 71.7091 463.607 71.3358 462.98V470.2H69.5158V454.04H71.3358V456.06ZM78.7758 459.48C78.7758 458.653 78.6091 457.933 78.2758 457.32C77.9424 456.707 77.4891 456.24 76.9158 455.92C76.3558 455.6 75.7358 455.44 75.0558 455.44C74.3891 455.44 73.7691 455.607 73.1958 455.94C72.6358 456.26 72.1824 456.733 71.8358 457.36C71.5024 457.973 71.3358 458.687 71.3358 459.5C71.3358 460.327 71.5024 461.053 71.8358 461.68C72.1824 462.293 72.6358 462.767 73.1958 463.1C73.7691 463.42 74.3891 463.58 75.0558 463.58C75.7358 463.58 76.3558 463.42 76.9158 463.1C77.4891 462.767 77.9424 462.293 78.2758 461.68C78.6091 461.053 78.7758 460.32 78.7758 459.48ZM84.4514 455.54V462C84.4514 462.533 84.5647 462.913 84.7914 463.14C85.0181 463.353 85.4114 463.46 85.9714 463.46H87.3114V465H85.6714C84.6581 465 83.8981 464.767 83.3914 464.3C82.8847 463.833 82.6314 463.067 82.6314 462V455.54H81.2114V454.04H82.6314V451.28H84.4514V454.04H87.3114V455.54H84.4514ZM98.7166 459.1C98.7166 459.447 98.6966 459.813 98.6566 460.2H89.8966C89.9632 461.28 90.3299 462.127 90.9966 462.74C91.6766 463.34 92.4966 463.64 93.4566 463.64C94.2432 463.64 94.8966 463.46 95.4166 463.1C95.9499 462.727 96.3232 462.233 96.5366 461.62H98.4966C98.2032 462.673 97.6166 463.533 96.7366 464.2C95.8566 464.853 94.7632 465.18 93.4566 465.18C92.4166 465.18 91.4832 464.947 90.6566 464.48C89.8432 464.013 89.2032 463.353 88.7366 462.5C88.2699 461.633 88.0366 460.633 88.0366 459.5C88.0366 458.367 88.2632 457.373 88.7166 456.52C89.1699 455.667 89.8032 455.013 90.6166 454.56C91.4432 454.093 92.3899 453.86 93.4566 453.86C94.4966 453.86 95.4166 454.087 96.2166 454.54C97.0166 454.993 97.6299 455.62 98.0566 456.42C98.4966 457.207 98.7166 458.1 98.7166 459.1ZM96.8366 458.72C96.8366 458.027 96.6832 457.433 96.3766 456.94C96.0699 456.433 95.6499 456.053 95.1166 455.8C94.5966 455.533 94.0166 455.4 93.3766 455.4C92.4566 455.4 91.6699 455.693 91.0166 456.28C90.3766 456.867 90.0099 457.68 89.9166 458.72H96.8366ZM99.6389 459.48C99.6389 458.36 99.8656 457.38 100.319 456.54C100.772 455.687 101.392 455.027 102.179 454.56C102.979 454.093 103.872 453.86 104.859 453.86C105.712 453.86 106.506 454.06 107.239 454.46C107.972 454.847 108.532 455.36 108.919 456V450.2H110.759V465H108.919V462.94C108.559 463.593 108.026 464.133 107.319 464.56C106.612 464.973 105.786 465.18 104.839 465.18C103.866 465.18 102.979 464.94 102.179 464.46C101.392 463.98 100.772 463.307 100.319 462.44C99.8656 461.573 99.6389 460.587 99.6389 459.48ZM108.919 459.5C108.919 458.673 108.752 457.953 108.419 457.34C108.086 456.727 107.632 456.26 107.059 455.94C106.499 455.607 105.879 455.44 105.199 455.44C104.519 455.44 103.899 455.6 103.339 455.92C102.779 456.24 102.332 456.707 101.999 457.32C101.666 457.933 101.499 458.653 101.499 459.48C101.499 460.32 101.666 461.053 101.999 461.68C102.332 462.293 102.779 462.767 103.339 463.1C103.899 463.42 104.519 463.58 105.199 463.58C105.879 463.58 106.499 463.42 107.059 463.1C107.632 462.767 108.086 462.293 108.419 461.68C108.752 461.053 108.919 460.327 108.919 459.5ZM119.787 455.54V462C119.787 462.533 119.9 462.913 120.127 463.14C120.353 463.353 120.747 463.46 121.307 463.46H122.647V465H121.007C119.993 465 119.233 464.767 118.727 464.3C118.22 463.833 117.967 463.067 117.967 462V455.54H116.547V454.04H117.967V451.28H119.787V454.04H122.647V455.54H119.787ZM128.832 465.18C127.805 465.18 126.872 464.947 126.032 464.48C125.205 464.013 124.552 463.353 124.072 462.5C123.605 461.633 123.372 460.633 123.372 459.5C123.372 458.38 123.612 457.393 124.092 456.54C124.585 455.673 125.252 455.013 126.092 454.56C126.932 454.093 127.872 453.86 128.912 453.86C129.952 453.86 130.892 454.093 131.732 454.56C132.572 455.013 133.232 455.667 133.712 456.52C134.205 457.373 134.452 458.367 134.452 459.5C134.452 460.633 134.198 461.633 133.692 462.5C133.198 463.353 132.525 464.013 131.672 464.48C130.818 464.947 129.872 465.18 128.832 465.18ZM128.832 463.58C129.485 463.58 130.098 463.427 130.672 463.12C131.245 462.813 131.705 462.353 132.052 461.74C132.412 461.127 132.592 460.38 132.592 459.5C132.592 458.62 132.418 457.873 132.072 457.26C131.725 456.647 131.272 456.193 130.712 455.9C130.152 455.593 129.545 455.44 128.892 455.44C128.225 455.44 127.612 455.593 127.052 455.9C126.505 456.193 126.065 456.647 125.732 457.26C125.398 457.873 125.232 458.62 125.232 459.5C125.232 460.393 125.392 461.147 125.712 461.76C126.045 462.373 126.485 462.833 127.032 463.14C127.578 463.433 128.178 463.58 128.832 463.58ZM142.165 465L137.865 460.16V465H136.045V450.2H137.865V458.9L142.085 454.04H144.625L139.465 459.5L144.645 465H142.165ZM155.538 459.1C155.538 459.447 155.518 459.813 155.478 460.2H146.718C146.784 461.28 147.151 462.127 147.818 462.74C148.498 463.34 149.318 463.64 150.278 463.64C151.064 463.64 151.718 463.46 152.238 463.1C152.771 462.727 153.144 462.233 153.358 461.62H155.318C155.024 462.673 154.438 463.533 153.558 464.2C152.678 464.853 151.584 465.18 150.278 465.18C149.238 465.18 148.304 464.947 147.478 464.48C146.664 464.013 146.024 463.353 145.558 462.5C145.091 461.633 144.858 460.633 144.858 459.5C144.858 458.367 145.084 457.373 145.538 456.52C145.991 455.667 146.624 455.013 147.438 454.56C148.264 454.093 149.211 453.86 150.278 453.86C151.318 453.86 152.238 454.087 153.038 454.54C153.838 454.993 154.451 455.62 154.878 456.42C155.318 457.207 155.538 458.1 155.538 459.1ZM153.658 458.72C153.658 458.027 153.504 457.433 153.198 456.94C152.891 456.433 152.471 456.053 151.938 455.8C151.418 455.533 150.838 455.4 150.198 455.4C149.278 455.4 148.491 455.693 147.838 456.28C147.198 456.867 146.831 457.68 146.738 458.72H153.658ZM162.48 453.84C163.813 453.84 164.893 454.247 165.72 455.06C166.547 455.86 166.96 457.02 166.96 458.54V465H165.16V458.8C165.16 457.707 164.887 456.873 164.34 456.3C163.793 455.713 163.047 455.42 162.1 455.42C161.14 455.42 160.373 455.72 159.8 456.32C159.24 456.92 158.96 457.793 158.96 458.94V465H157.14V454.04H158.96V455.6C159.32 455.04 159.807 454.607 160.42 454.3C161.047 453.993 161.733 453.84 162.48 453.84ZM173.013 465.18C172.173 465.18 171.42 465.04 170.753 464.76C170.086 464.467 169.56 464.067 169.173 463.56C168.786 463.04 168.573 462.447 168.533 461.78H170.413C170.466 462.327 170.72 462.773 171.173 463.12C171.64 463.467 172.246 463.64 172.993 463.64C173.686 463.64 174.233 463.487 174.633 463.18C175.033 462.873 175.233 462.487 175.233 462.02C175.233 461.54 175.02 461.187 174.593 460.96C174.166 460.72 173.506 460.487 172.613 460.26C171.8 460.047 171.133 459.833 170.613 459.62C170.106 459.393 169.666 459.067 169.293 458.64C168.933 458.2 168.753 457.627 168.753 456.92C168.753 456.36 168.92 455.847 169.253 455.38C169.586 454.913 170.06 454.547 170.673 454.28C171.286 454 171.986 453.86 172.773 453.86C173.986 453.86 174.966 454.167 175.713 454.78C176.46 455.393 176.86 456.233 176.913 457.3H175.093C175.053 456.727 174.82 456.267 174.393 455.92C173.98 455.573 173.42 455.4 172.713 455.4C172.06 455.4 171.54 455.54 171.153 455.82C170.766 456.1 170.573 456.467 170.573 456.92C170.573 457.28 170.686 457.58 170.913 457.82C171.153 458.047 171.446 458.233 171.793 458.38C172.153 458.513 172.646 458.667 173.273 458.84C174.06 459.053 174.7 459.267 175.193 459.48C175.686 459.68 176.106 459.987 176.453 460.4C176.813 460.813 177 461.353 177.013 462.02C177.013 462.62 176.846 463.16 176.513 463.64C176.18 464.12 175.706 464.5 175.093 464.78C174.493 465.047 173.8 465.18 173.013 465.18ZM179.362 465.12C179.016 465.12 178.722 465 178.482 464.76C178.242 464.52 178.122 464.227 178.122 463.88C178.122 463.533 178.242 463.24 178.482 463C178.722 462.76 179.016 462.64 179.362 462.64C179.696 462.64 179.976 462.76 180.202 463C180.442 463.24 180.562 463.533 180.562 463.88C180.562 464.227 180.442 464.52 180.202 464.76C179.976 465 179.696 465.12 179.362 465.12ZM179.362 456.56C179.016 456.56 178.722 456.44 178.482 456.2C178.242 455.96 178.122 455.667 178.122 455.32C178.122 454.973 178.242 454.68 178.482 454.44C178.722 454.2 179.016 454.08 179.362 454.08C179.696 454.08 179.976 454.2 180.202 454.44C180.442 454.68 180.562 454.973 180.562 455.32C180.562 455.667 180.442 455.96 180.202 456.2C179.976 456.44 179.696 456.56 179.362 456.56Z" fill="white"/>
<path d="M330.52 490.82C331.027 490.9 331.487 491.107 331.9 491.44C332.327 491.773 332.66 492.187 332.9 492.68C333.153 493.173 333.28 493.7 333.28 494.26C333.28 494.967 333.1 495.607 332.74 496.18C332.38 496.74 331.853 497.187 331.16 497.52C330.48 497.84 329.673 498 328.74 498H323.54V484.06H328.54C329.487 484.06 330.293 484.22 330.96 484.54C331.627 484.847 332.127 485.267 332.46 485.8C332.793 486.333 332.96 486.933 332.96 487.6C332.96 488.427 332.733 489.113 332.28 489.66C331.84 490.193 331.253 490.58 330.52 490.82ZM325.36 490.08H328.42C329.273 490.08 329.933 489.88 330.4 489.48C330.867 489.08 331.1 488.527 331.1 487.82C331.1 487.113 330.867 486.56 330.4 486.16C329.933 485.76 329.26 485.56 328.38 485.56H325.36V490.08ZM328.58 496.5C329.487 496.5 330.193 496.287 330.7 495.86C331.207 495.433 331.46 494.84 331.46 494.08C331.46 493.307 331.193 492.7 330.66 492.26C330.127 491.807 329.413 491.58 328.52 491.58H325.36V496.5H328.58ZM335.126 492.48C335.126 491.36 335.352 490.38 335.806 489.54C336.259 488.687 336.879 488.027 337.666 487.56C338.466 487.093 339.352 486.86 340.326 486.86C341.286 486.86 342.119 487.067 342.826 487.48C343.532 487.893 344.059 488.413 344.406 489.04V487.04H346.246V498H344.406V495.96C344.046 496.6 343.506 497.133 342.786 497.56C342.079 497.973 341.252 498.18 340.306 498.18C339.332 498.18 338.452 497.94 337.666 497.46C336.879 496.98 336.259 496.307 335.806 495.44C335.352 494.573 335.126 493.587 335.126 492.48ZM344.406 492.5C344.406 491.673 344.239 490.953 343.906 490.34C343.572 489.727 343.119 489.26 342.546 488.94C341.986 488.607 341.366 488.44 340.686 488.44C340.006 488.44 339.386 488.6 338.826 488.92C338.266 489.24 337.819 489.707 337.486 490.32C337.152 490.933 336.986 491.653 336.986 492.48C336.986 493.32 337.152 494.053 337.486 494.68C337.819 495.293 338.266 495.767 338.826 496.1C339.386 496.42 340.006 496.58 340.686 496.58C341.366 496.58 341.986 496.42 342.546 496.1C343.119 495.767 343.572 495.293 343.906 494.68C344.239 494.053 344.406 493.327 344.406 492.5ZM353.201 498.18C352.361 498.18 351.608 498.04 350.941 497.76C350.275 497.467 349.748 497.067 349.361 496.56C348.975 496.04 348.761 495.447 348.721 494.78H350.601C350.655 495.327 350.908 495.773 351.361 496.12C351.828 496.467 352.435 496.64 353.181 496.64C353.875 496.64 354.421 496.487 354.821 496.18C355.221 495.873 355.421 495.487 355.421 495.02C355.421 494.54 355.208 494.187 354.781 493.96C354.355 493.72 353.695 493.487 352.801 493.26C351.988 493.047 351.321 492.833 350.801 492.62C350.295 492.393 349.855 492.067 349.481 491.64C349.121 491.2 348.941 490.627 348.941 489.92C348.941 489.36 349.108 488.847 349.441 488.38C349.775 487.913 350.248 487.547 350.861 487.28C351.475 487 352.175 486.86 352.961 486.86C354.175 486.86 355.155 487.167 355.901 487.78C356.648 488.393 357.048 489.233 357.101 490.3H355.281C355.241 489.727 355.008 489.267 354.581 488.92C354.168 488.573 353.608 488.4 352.901 488.4C352.248 488.4 351.728 488.54 351.341 488.82C350.955 489.1 350.761 489.467 350.761 489.92C350.761 490.28 350.875 490.58 351.101 490.82C351.341 491.047 351.635 491.233 351.981 491.38C352.341 491.513 352.835 491.667 353.461 491.84C354.248 492.053 354.888 492.267 355.381 492.48C355.875 492.68 356.295 492.987 356.641 493.4C357.001 493.813 357.188 494.353 357.201 495.02C357.201 495.62 357.035 496.16 356.701 496.64C356.368 497.12 355.895 497.5 355.281 497.78C354.681 498.047 353.988 498.18 353.201 498.18ZM369.77 492.1C369.77 492.447 369.75 492.813 369.71 493.2H360.95C361.017 494.28 361.384 495.127 362.05 495.74C362.73 496.34 363.55 496.64 364.51 496.64C365.297 496.64 365.95 496.46 366.47 496.1C367.004 495.727 367.377 495.233 367.59 494.62H369.55C369.257 495.673 368.67 496.533 367.79 497.2C366.91 497.853 365.817 498.18 364.51 498.18C363.47 498.18 362.537 497.947 361.71 497.48C360.897 497.013 360.257 496.353 359.79 495.5C359.324 494.633 359.09 493.633 359.09 492.5C359.09 491.367 359.317 490.373 359.77 489.52C360.224 488.667 360.857 488.013 361.67 487.56C362.497 487.093 363.444 486.86 364.51 486.86C365.55 486.86 366.47 487.087 367.27 487.54C368.07 487.993 368.684 488.62 369.11 489.42C369.55 490.207 369.77 491.1 369.77 492.1ZM367.89 491.72C367.89 491.027 367.737 490.433 367.43 489.94C367.124 489.433 366.704 489.053 366.17 488.8C365.65 488.533 365.07 488.4 364.43 488.4C363.51 488.4 362.724 488.693 362.07 489.28C361.43 489.867 361.064 490.68 360.97 491.72H367.89Z" fill="white"/>
<path d="M305.78 525.9H299.7L298.58 529H296.66L301.7 515.14H303.8L308.82 529H306.9L305.78 525.9ZM305.26 524.42L302.74 517.38L300.22 524.42H305.26ZM315.097 527.32L318.497 518.04H320.437L316.137 529H314.017L309.717 518.04H311.677L315.097 527.32ZM321.548 523.48C321.548 522.36 321.774 521.38 322.228 520.54C322.681 519.687 323.301 519.027 324.088 518.56C324.888 518.093 325.774 517.86 326.748 517.86C327.708 517.86 328.541 518.067 329.248 518.48C329.954 518.893 330.481 519.413 330.828 520.04V518.04H332.668V529H330.828V526.96C330.468 527.6 329.928 528.133 329.208 528.56C328.501 528.973 327.674 529.18 326.728 529.18C325.754 529.18 324.874 528.94 324.088 528.46C323.301 527.98 322.681 527.307 322.228 526.44C321.774 525.573 321.548 524.587 321.548 523.48ZM330.828 523.5C330.828 522.673 330.661 521.953 330.328 521.34C329.994 520.727 329.541 520.26 328.968 519.94C328.408 519.607 327.788 519.44 327.108 519.44C326.428 519.44 325.808 519.6 325.248 519.92C324.688 520.24 324.241 520.707 323.908 521.32C323.574 521.933 323.408 522.653 323.408 523.48C323.408 524.32 323.574 525.053 323.908 525.68C324.241 526.293 324.688 526.767 325.248 527.1C325.808 527.42 326.428 527.58 327.108 527.58C327.788 527.58 328.408 527.42 328.968 527.1C329.541 526.767 329.994 526.293 330.328 525.68C330.661 525.053 330.828 524.327 330.828 523.5ZM337.563 514.2V529H335.743V514.2H337.563ZM339.985 523.48C339.985 522.36 340.212 521.38 340.665 520.54C341.118 519.687 341.738 519.027 342.525 518.56C343.325 518.093 344.212 517.86 345.185 517.86C346.145 517.86 346.978 518.067 347.685 518.48C348.392 518.893 348.918 519.413 349.265 520.04V518.04H351.105V529H349.265V526.96C348.905 527.6 348.365 528.133 347.645 528.56C346.938 528.973 346.112 529.18 345.165 529.18C344.192 529.18 343.312 528.94 342.525 528.46C341.738 527.98 341.118 527.307 340.665 526.44C340.212 525.573 339.985 524.587 339.985 523.48ZM349.265 523.5C349.265 522.673 349.098 521.953 348.765 521.34C348.432 520.727 347.978 520.26 347.405 519.94C346.845 519.607 346.225 519.44 345.545 519.44C344.865 519.44 344.245 519.6 343.685 519.92C343.125 520.24 342.678 520.707 342.345 521.32C342.012 521.933 341.845 522.653 341.845 523.48C341.845 524.32 342.012 525.053 342.345 525.68C342.678 526.293 343.125 526.767 343.685 527.1C344.245 527.42 344.865 527.58 345.545 527.58C346.225 527.58 346.845 527.42 347.405 527.1C347.978 526.767 348.432 526.293 348.765 525.68C349.098 525.053 349.265 524.327 349.265 523.5ZM359.521 517.84C360.854 517.84 361.934 518.247 362.761 519.06C363.587 519.86 364.001 521.02 364.001 522.54V529H362.201V522.8C362.201 521.707 361.927 520.873 361.381 520.3C360.834 519.713 360.087 519.42 359.141 519.42C358.181 519.42 357.414 519.72 356.841 520.32C356.281 520.92 356.001 521.793 356.001 522.94V529H354.181V518.04H356.001V519.6C356.361 519.04 356.847 518.607 357.461 518.3C358.087 517.993 358.774 517.84 359.521 517.84ZM366.294 523.5C366.294 522.367 366.52 521.38 366.974 520.54C367.427 519.687 368.054 519.027 368.854 518.56C369.667 518.093 370.594 517.86 371.634 517.86C372.98 517.86 374.087 518.187 374.954 518.84C375.834 519.493 376.414 520.4 376.694 521.56H374.734C374.547 520.893 374.18 520.367 373.634 519.98C373.1 519.593 372.434 519.4 371.634 519.4C370.594 519.4 369.754 519.76 369.114 520.48C368.474 521.187 368.154 522.193 368.154 523.5C368.154 524.82 368.474 525.84 369.114 526.56C369.754 527.28 370.594 527.64 371.634 527.64C372.434 527.64 373.1 527.453 373.634 527.08C374.167 526.707 374.534 526.173 374.734 525.48H376.694C376.4 526.6 375.814 527.5 374.934 528.18C374.054 528.847 372.954 529.18 371.634 529.18C370.594 529.18 369.667 528.947 368.854 528.48C368.054 528.013 367.427 527.353 366.974 526.5C366.52 525.647 366.294 524.647 366.294 523.5ZM384.562 517.84C385.389 517.84 386.135 518.02 386.802 518.38C387.469 518.727 387.989 519.253 388.362 519.96C388.749 520.667 388.942 521.527 388.942 522.54V529H387.142V522.8C387.142 521.707 386.869 520.873 386.322 520.3C385.775 519.713 385.029 519.42 384.082 519.42C383.122 519.42 382.355 519.72 381.782 520.32C381.222 520.92 380.942 521.793 380.942 522.94V529H379.122V514.2H380.942V519.6C381.302 519.04 381.795 518.607 382.422 518.3C383.062 517.993 383.775 517.84 384.562 517.84ZM401.915 523.1C401.915 523.447 401.895 523.813 401.855 524.2H393.095C393.162 525.28 393.528 526.127 394.195 526.74C394.875 527.34 395.695 527.64 396.655 527.64C397.442 527.64 398.095 527.46 398.615 527.1C399.148 526.727 399.522 526.233 399.735 525.62H401.695C401.402 526.673 400.815 527.533 399.935 528.2C399.055 528.853 397.962 529.18 396.655 529.18C395.615 529.18 394.682 528.947 393.855 528.48C393.042 528.013 392.402 527.353 391.935 526.5C391.468 525.633 391.235 524.633 391.235 523.5C391.235 522.367 391.462 521.373 391.915 520.52C392.368 519.667 393.002 519.013 393.815 518.56C394.642 518.093 395.588 517.86 396.655 517.86C397.695 517.86 398.615 518.087 399.415 518.54C400.215 518.993 400.828 519.62 401.255 520.42C401.695 521.207 401.915 522.1 401.915 523.1ZM400.035 522.72C400.035 522.027 399.882 521.433 399.575 520.94C399.268 520.433 398.848 520.053 398.315 519.8C397.795 519.533 397.215 519.4 396.575 519.4C395.655 519.4 394.868 519.693 394.215 520.28C393.575 520.867 393.208 521.68 393.115 522.72H400.035Z" fill="white"/>
<path d="M283 532C288.523 532 293 527.523 293 522C293 516.477 288.523 512 283 512C277.477 512 273 516.477 273 522C273 527.523 277.477 532 283 532Z" fill="#E84142"/>
<path d="M286.527 522.26C286.874 521.661 287.433 521.661 287.779 522.26L289.937 526.047C290.283 526.646 290 527.134 289.307 527.134H284.961C284.276 527.134 283.992 526.646 284.331 526.047L286.527 522.26ZM282.354 514.968C282.701 514.37 283.252 514.37 283.598 514.968L284.079 515.835L285.213 517.827C285.488 518.394 285.488 519.063 285.213 519.63L281.409 526.22C281.063 526.756 280.488 527.094 279.85 527.134H276.693C276 527.134 275.716 526.654 276.063 526.047L282.354 514.968Z" fill="white"/>
<path d="M172.86 529.14C171.567 529.14 170.387 528.84 169.32 528.24C168.253 527.627 167.407 526.78 166.78 525.7C166.167 524.607 165.86 523.38 165.86 522.02C165.86 520.66 166.167 519.44 166.78 518.36C167.407 517.267 168.253 516.42 169.32 515.82C170.387 515.207 171.567 514.9 172.86 514.9C174.167 514.9 175.353 515.207 176.42 515.82C177.487 516.42 178.327 517.26 178.94 518.34C179.553 519.42 179.86 520.647 179.86 522.02C179.86 523.393 179.553 524.62 178.94 525.7C178.327 526.78 177.487 527.627 176.42 528.24C175.353 528.84 174.167 529.14 172.86 529.14ZM172.86 527.56C173.833 527.56 174.707 527.333 175.48 526.88C176.267 526.427 176.88 525.78 177.32 524.94C177.773 524.1 178 523.127 178 522.02C178 520.9 177.773 519.927 177.32 519.1C176.88 518.26 176.273 517.613 175.5 517.16C174.727 516.707 173.847 516.48 172.86 516.48C171.873 516.48 170.993 516.707 170.22 517.16C169.447 517.613 168.833 518.26 168.38 519.1C167.94 519.927 167.72 520.9 167.72 522.02C167.72 523.127 167.94 524.1 168.38 524.94C168.833 525.78 169.447 526.427 170.22 526.88C171.007 527.333 171.887 527.56 172.86 527.56ZM184.083 520.06C184.443 519.433 184.976 518.913 185.683 518.5C186.403 518.073 187.236 517.86 188.183 517.86C189.156 517.86 190.036 518.093 190.823 518.56C191.623 519.027 192.249 519.687 192.703 520.54C193.156 521.38 193.383 522.36 193.383 523.48C193.383 524.587 193.156 525.573 192.703 526.44C192.249 527.307 191.623 527.98 190.823 528.46C190.036 528.94 189.156 529.18 188.183 529.18C187.249 529.18 186.423 528.973 185.703 528.56C184.996 528.133 184.456 527.607 184.083 526.98V534.2H182.263V518.04H184.083V520.06ZM191.523 523.48C191.523 522.653 191.356 521.933 191.023 521.32C190.689 520.707 190.236 520.24 189.663 519.92C189.103 519.6 188.483 519.44 187.803 519.44C187.136 519.44 186.516 519.607 185.943 519.94C185.383 520.26 184.929 520.733 184.583 521.36C184.249 521.973 184.083 522.687 184.083 523.5C184.083 524.327 184.249 525.053 184.583 525.68C184.929 526.293 185.383 526.767 185.943 527.1C186.516 527.42 187.136 527.58 187.803 527.58C188.483 527.58 189.103 527.42 189.663 527.1C190.236 526.767 190.689 526.293 191.023 525.68C191.356 525.053 191.523 524.32 191.523 523.48ZM197.998 519.54V526C197.998 526.533 198.112 526.913 198.338 527.14C198.565 527.353 198.958 527.46 199.518 527.46H200.858V529H199.218C198.205 529 197.445 528.767 196.938 528.3C196.432 527.833 196.178 527.067 196.178 526V519.54H194.758V518.04H196.178V515.28H197.998V518.04H200.858V519.54H197.998ZM204.003 516.26C203.657 516.26 203.363 516.14 203.123 515.9C202.883 515.66 202.763 515.367 202.763 515.02C202.763 514.673 202.883 514.38 203.123 514.14C203.363 513.9 203.657 513.78 204.003 513.78C204.337 513.78 204.617 513.9 204.843 514.14C205.083 514.38 205.203 514.673 205.203 515.02C205.203 515.367 205.083 515.66 204.843 515.9C204.617 516.14 204.337 516.26 204.003 516.26ZM204.883 518.04V529H203.063V518.04H204.883ZM221.165 517.84C222.019 517.84 222.779 518.02 223.445 518.38C224.112 518.727 224.639 519.253 225.025 519.96C225.412 520.667 225.605 521.527 225.605 522.54V529H223.805V522.8C223.805 521.707 223.532 520.873 222.985 520.3C222.452 519.713 221.725 519.42 220.805 519.42C219.859 519.42 219.105 519.727 218.545 520.34C217.985 520.94 217.705 521.813 217.705 522.96V529H215.905V522.8C215.905 521.707 215.632 520.873 215.085 520.3C214.552 519.713 213.825 519.42 212.905 519.42C211.959 519.42 211.205 519.727 210.645 520.34C210.085 520.94 209.805 521.813 209.805 522.96V529H207.985V518.04H209.805V519.62C210.165 519.047 210.645 518.607 211.245 518.3C211.859 517.993 212.532 517.84 213.265 517.84C214.185 517.84 214.999 518.047 215.705 518.46C216.412 518.873 216.939 519.48 217.285 520.28C217.592 519.507 218.099 518.907 218.805 518.48C219.512 518.053 220.299 517.84 221.165 517.84ZM229.531 516.26C229.184 516.26 228.891 516.14 228.651 515.9C228.411 515.66 228.291 515.367 228.291 515.02C228.291 514.673 228.411 514.38 228.651 514.14C228.891 513.9 229.184 513.78 229.531 513.78C229.864 513.78 230.144 513.9 230.371 514.14C230.611 514.38 230.731 514.673 230.731 515.02C230.731 515.367 230.611 515.66 230.371 515.9C230.144 516.14 229.864 516.26 229.531 516.26ZM230.411 518.04V529H228.591V518.04H230.411ZM237.393 529.18C236.553 529.18 235.799 529.04 235.133 528.76C234.466 528.467 233.939 528.067 233.553 527.56C233.166 527.04 232.953 526.447 232.913 525.78H234.793C234.846 526.327 235.099 526.773 235.553 527.12C236.019 527.467 236.626 527.64 237.373 527.64C238.066 527.64 238.613 527.487 239.013 527.18C239.413 526.873 239.613 526.487 239.613 526.02C239.613 525.54 239.399 525.187 238.973 524.96C238.546 524.72 237.886 524.487 236.993 524.26C236.179 524.047 235.513 523.833 234.993 523.62C234.486 523.393 234.046 523.067 233.673 522.64C233.313 522.2 233.133 521.627 233.133 520.92C233.133 520.36 233.299 519.847 233.633 519.38C233.966 518.913 234.439 518.547 235.053 518.28C235.666 518 236.366 517.86 237.153 517.86C238.366 517.86 239.346 518.167 240.093 518.78C240.839 519.393 241.239 520.233 241.293 521.3H239.473C239.433 520.727 239.199 520.267 238.773 519.92C238.359 519.573 237.799 519.4 237.093 519.4C236.439 519.4 235.919 519.54 235.533 519.82C235.146 520.1 234.953 520.467 234.953 520.92C234.953 521.28 235.066 521.58 235.293 521.82C235.533 522.047 235.826 522.233 236.173 522.38C236.533 522.513 237.026 522.667 237.653 522.84C238.439 523.053 239.079 523.267 239.573 523.48C240.066 523.68 240.486 523.987 240.833 524.4C241.193 524.813 241.379 525.353 241.393 526.02C241.393 526.62 241.226 527.16 240.893 527.64C240.559 528.12 240.086 528.5 239.473 528.78C238.873 529.047 238.179 529.18 237.393 529.18ZM257.142 517.84C257.995 517.84 258.755 518.02 259.422 518.38C260.089 518.727 260.615 519.253 261.002 519.96C261.389 520.667 261.582 521.527 261.582 522.54V529H259.782V522.8C259.782 521.707 259.509 520.873 258.962 520.3C258.429 519.713 257.702 519.42 256.782 519.42C255.835 519.42 255.082 519.727 254.522 520.34C253.962 520.94 253.682 521.813 253.682 522.96V529H251.882V522.8C251.882 521.707 251.609 520.873 251.062 520.3C250.529 519.713 249.802 519.42 248.882 519.42C247.935 519.42 247.182 519.727 246.622 520.34C246.062 520.94 245.782 521.813 245.782 522.96V529H243.962V518.04H245.782V519.62C246.142 519.047 246.622 518.607 247.222 518.3C247.835 517.993 248.509 517.84 249.242 517.84C250.162 517.84 250.975 518.047 251.682 518.46C252.389 518.873 252.915 519.48 253.262 520.28C253.569 519.507 254.075 518.907 254.782 518.48C255.489 518.053 256.275 517.84 257.142 517.84Z" fill="white"/>
<path d="M152 532C157.523 532 162 527.523 162 522C162 516.477 157.523 512 152 512C146.477 512 142 516.477 142 522C142 527.523 146.477 532 152 532Z" fill="#FF0420"/>
<path d="M149.084 524.656C148.488 524.656 148 524.516 147.62 524.236C147.244 523.952 147.056 523.544 147.056 523.02C147.056 522.908 147.068 522.776 147.092 522.616C147.156 522.256 147.248 521.824 147.368 521.316C147.708 519.94 148.588 519.252 150.004 519.252C150.388 519.252 150.736 519.316 151.04 519.448C151.344 519.572 151.584 519.764 151.76 520.02C151.936 520.272 152.024 520.572 152.024 520.92C152.024 521.024 152.012 521.156 151.988 521.316C151.912 521.76 151.824 522.196 151.716 522.616C151.54 523.3 151.24 523.816 150.808 524.156C150.38 524.492 149.804 524.656 149.084 524.656ZM149.192 523.576C149.472 523.576 149.708 523.492 149.904 523.328C150.104 523.164 150.248 522.912 150.332 522.568C150.448 522.096 150.536 521.688 150.596 521.336C150.616 521.232 150.628 521.124 150.628 521.012C150.628 520.556 150.392 520.328 149.916 520.328C149.636 520.328 149.396 520.412 149.196 520.576C149 520.74 148.86 520.992 148.776 521.336C148.684 521.672 148.596 522.08 148.504 522.568C148.484 522.668 148.472 522.772 148.472 522.884C148.468 523.348 148.712 523.576 149.192 523.576Z" fill="white"/>
<path d="M152.372 524.584C152.316 524.584 152.276 524.568 152.244 524.532C152.22 524.492 152.212 524.448 152.22 524.396L153.256 519.516C153.264 519.46 153.292 519.416 153.34 519.38C153.384 519.344 153.432 519.328 153.484 519.328H155.48C156.036 519.328 156.48 519.444 156.816 519.672C157.156 519.904 157.328 520.236 157.328 520.672C157.328 520.796 157.312 520.928 157.284 521.064C157.16 521.64 156.908 522.064 156.524 522.34C156.148 522.616 155.632 522.752 154.976 522.752H153.964L153.62 524.396C153.608 524.452 153.584 524.496 153.536 524.532C153.492 524.568 153.444 524.584 153.392 524.584H152.372ZM155.028 521.716C155.24 521.716 155.42 521.66 155.576 521.544C155.736 521.428 155.84 521.264 155.892 521.048C155.908 520.964 155.916 520.888 155.916 520.824C155.916 520.68 155.872 520.568 155.788 520.492C155.704 520.412 155.556 520.372 155.352 520.372H154.452L154.168 521.716H155.028Z" fill="white"/>
<path d="M52.78 525.9H46.7L45.58 529H43.66L48.7 515.14H50.8L55.82 529H53.9L52.78 525.9ZM52.26 524.42L49.74 517.38L47.22 524.42H52.26ZM59.8366 519.82C60.1566 519.193 60.6099 518.707 61.1966 518.36C61.7966 518.013 62.5232 517.84 63.3766 517.84V519.72H62.8966C60.8566 519.72 59.8366 520.827 59.8366 523.04V529H58.0166V518.04H59.8366V519.82ZM67.2975 520.08C67.6708 519.427 68.2175 518.893 68.9375 518.48C69.6575 518.067 70.4775 517.86 71.3975 517.86C72.3842 517.86 73.2708 518.093 74.0575 518.56C74.8442 519.027 75.4642 519.687 75.9175 520.54C76.3708 521.38 76.5975 522.36 76.5975 523.48C76.5975 524.587 76.3708 525.573 75.9175 526.44C75.4642 527.307 74.8375 527.98 74.0375 528.46C73.2508 528.94 72.3708 529.18 71.3975 529.18C70.4508 529.18 69.6175 528.973 68.8975 528.56C68.1908 528.147 67.6575 527.62 67.2975 526.98V529H65.4775V514.2H67.2975V520.08ZM74.7375 523.48C74.7375 522.653 74.5708 521.933 74.2375 521.32C73.9042 520.707 73.4508 520.24 72.8775 519.92C72.3175 519.6 71.6975 519.44 71.0175 519.44C70.3508 519.44 69.7308 519.607 69.1575 519.94C68.5975 520.26 68.1442 520.733 67.7975 521.36C67.4642 521.973 67.2975 522.687 67.2975 523.5C67.2975 524.327 67.4642 525.053 67.7975 525.68C68.1442 526.293 68.5975 526.767 69.1575 527.1C69.7308 527.42 70.3508 527.58 71.0175 527.58C71.6975 527.58 72.3175 527.42 72.8775 527.1C73.4508 526.767 73.9042 526.293 74.2375 525.68C74.5708 525.053 74.7375 524.32 74.7375 523.48ZM79.9331 516.26C79.5865 516.26 79.2931 516.14 79.0531 515.9C78.8131 515.66 78.6931 515.367 78.6931 515.02C78.6931 514.673 78.8131 514.38 79.0531 514.14C79.2931 513.9 79.5865 513.78 79.9331 513.78C80.2665 513.78 80.5465 513.9 80.7731 514.14C81.0131 514.38 81.1331 514.673 81.1331 515.02C81.1331 515.367 81.0131 515.66 80.7731 515.9C80.5465 516.14 80.2665 516.26 79.9331 516.26ZM80.8131 518.04V529H78.9931V518.04H80.8131ZM86.135 519.54V526C86.135 526.533 86.2483 526.913 86.475 527.14C86.7017 527.353 87.095 527.46 87.655 527.46H88.995V529H87.355C86.3417 529 85.5817 528.767 85.075 528.3C84.5683 527.833 84.315 527.067 84.315 526V519.54H82.895V518.04H84.315V515.28H86.135V518.04H88.995V519.54H86.135ZM93.0202 519.82C93.3402 519.193 93.7935 518.707 94.3802 518.36C94.9802 518.013 95.7068 517.84 96.5602 517.84V519.72H96.0802C94.0402 519.72 93.0202 520.827 93.0202 523.04V529H91.2002V518.04H93.0202V519.82ZM108.381 518.04V529H106.561V527.38C106.214 527.94 105.728 528.38 105.101 528.7C104.488 529.007 103.808 529.16 103.061 529.16C102.208 529.16 101.441 528.987 100.761 528.64C100.081 528.28 99.5411 527.747 99.1411 527.04C98.7544 526.333 98.5611 525.473 98.5611 524.46V518.04H100.361V524.22C100.361 525.3 100.634 526.133 101.181 526.72C101.728 527.293 102.474 527.58 103.421 527.58C104.394 527.58 105.161 527.28 105.721 526.68C106.281 526.08 106.561 525.207 106.561 524.06V518.04H108.381ZM124.634 517.84C125.487 517.84 126.247 518.02 126.914 518.38C127.581 518.727 128.107 519.253 128.494 519.96C128.881 520.667 129.074 521.527 129.074 522.54V529H127.274V522.8C127.274 521.707 127.001 520.873 126.454 520.3C125.921 519.713 125.194 519.42 124.274 519.42C123.327 519.42 122.574 519.727 122.014 520.34C121.454 520.94 121.174 521.813 121.174 522.96V529H119.374V522.8C119.374 521.707 119.101 520.873 118.554 520.3C118.021 519.713 117.294 519.42 116.374 519.42C115.427 519.42 114.674 519.727 114.114 520.34C113.554 520.94 113.274 521.813 113.274 522.96V529H111.454V518.04H113.274V519.62C113.634 519.047 114.114 518.607 114.714 518.3C115.327 517.993 116.001 517.84 116.734 517.84C117.654 517.84 118.467 518.047 119.174 518.46C119.881 518.873 120.407 519.48 120.754 520.28C121.061 519.507 121.567 518.907 122.274 518.48C122.981 518.053 123.767 517.84 124.634 517.84Z" fill="white"/>
<path d="M31.0172 532C36.6021 532 41.0345 527.487 41.0345 522C41.0345 516.425 36.5134 512 31.0172 512C25.4324 512 21 516.513 21 522C21 527.487 25.5211 532 31.0172 532Z" fill="#2C374B"/>
<path fill-rule="evenodd" clip-rule="evenodd" d="M36.5134 518.372C36.4248 518.283 32.081 515.717 31.5491 515.54C31.3718 515.451 30.9286 515.363 30.6626 515.451C30.3967 515.54 25.787 518.195 25.6097 518.372C25.521 518.46 25.4324 518.637 25.3437 518.726C25.2551 518.903 25.2551 518.991 25.2551 522.088V525.274L25.8756 525.628C26.2302 525.805 26.4962 525.982 26.4962 525.982C26.5848 525.982 30.7513 519.345 30.7513 519.257C30.7513 519.168 29.7762 519.168 29.5102 519.257C29.1556 519.345 28.8897 519.522 28.7124 519.699C28.6237 519.788 28.0918 520.673 27.3827 521.646C26.7621 522.619 26.2302 523.504 26.2302 523.504C26.2302 523.504 26.2302 522.619 26.2302 521.381V519.168L26.3189 519.08C26.4962 518.903 31.0172 516.336 31.1945 516.336C31.2832 516.336 31.3718 516.336 32.4356 516.956C32.7902 517.133 33.7653 517.664 34.5632 518.195C35.361 518.637 36.0702 519.08 36.1588 519.168L36.2475 519.257V523.858L34.0313 520.407C33.9426 520.23 33.854 520.053 33.7653 519.965C33.7653 519.965 33.6767 520.142 33.1448 521.027C33.0561 521.115 32.9675 521.292 32.9675 521.381L32.8788 521.558L32.9675 521.646L33.0561 521.734C33.0561 521.734 33.0561 521.823 33.1448 521.823L33.3221 522.088C33.3221 522.088 33.3221 522.177 33.4107 522.177C33.4994 522.265 33.588 522.442 33.588 522.531C33.588 522.531 33.588 522.531 33.588 522.619L35.4496 525.628L35.2723 525.717C35.1837 525.805 35.0951 525.805 35.0064 525.805L32.7015 522.265L32.6129 522.177L32.4356 522.531L31.5491 523.947L33.3221 526.779C33.0561 526.956 31.5491 528.018 31.4605 528.018C31.3718 528.018 29.3329 526.69 29.4216 526.602C29.4216 526.602 30.0421 525.54 30.7513 524.301C31.3718 523.239 32.1697 521.911 32.7015 521.027C33.3221 519.965 33.588 519.434 33.588 519.434C33.588 519.434 33.1448 519.434 32.6129 519.434H31.7264L29.6875 522.796C28.9783 524.035 28.2691 525.186 27.9145 525.805C27.294 525.894 27.1167 526.071 27.1167 526.071L27.0281 526.248L28.6237 527.133C29.5102 527.664 30.308 528.106 30.4853 528.195C30.7513 528.372 31.1945 528.372 31.3718 528.372C31.5491 528.283 36.1588 525.628 36.4248 525.451C36.5134 525.363 36.6021 525.274 36.6907 525.097L36.7794 524.832V521.911V518.991L36.6907 518.814C36.6907 518.637 36.5134 518.46 36.5134 518.372Z" fill="white"/>
<path d="M36.0702 523.77L33.4108 519.699L32.4356 521.292L35.0064 525.451L36.1589 524.92L36.0702 523.77Z" fill="#24A2EE"/>
<path d="M34.8291 525.982L32.1696 521.911L31.0172 523.681L33.1448 527.044L34.4745 526.513L34.8291 525.982Z" fill="#24A2EE"/>
<path fill-rule="evenodd" clip-rule="evenodd" d="M26.1416 519.168L31.0173 516.336L35.8929 519.168V524.832L31.0173 527.664L27.3827 525.628L26.9394 526.425L30.9286 528.726C31.0173 528.814 31.1059 528.814 31.1946 528.726L36.7794 525.54C36.868 525.451 36.9567 525.363 36.9567 525.274V518.903C36.9567 518.814 36.868 518.726 36.7794 518.637L31.1946 515.451C31.1059 515.363 31.0173 515.363 30.9286 515.451L25.3438 518.549C25.2551 518.637 25.1665 518.726 25.1665 518.814V525.186C25.1665 525.274 25.2551 525.363 25.3438 525.451L26.4962 526.071L27.0281 525.274L26.2303 524.832V519.168H26.1416Z" fill="#98BCDC"/>
<path d="M33.1449 519.168H31.2833L26.9395 526.248L28.4465 527.133L33.1449 519.168Z" fill="white"/>
<path d="M28.4465 519.876C28.8897 519.168 30.1308 519.168 30.6627 519.257L26.4075 526.071C26.2303 525.982 25.8757 525.805 25.6097 525.628C25.2551 525.451 25.1665 525.451 25.1665 525.186V524.832C26.1416 523.416 28.0032 520.584 28.4465 519.876Z" fill="white"/>
<path d="M223.86 488.14C223.86 489.3 223.46 490.267 222.66 491.04C221.873 491.8 220.667 492.18 219.04 492.18H216.36V498H214.54V484.06H219.04C220.613 484.06 221.807 484.44 222.62 485.2C223.447 485.96 223.86 486.94 223.86 488.14ZM219.04 490.68C220.053 490.68 220.8 490.46 221.28 490.02C221.76 489.58 222 488.953 222 488.14C222 486.42 221.013 485.56 219.04 485.56H216.36V490.68H219.04ZM230.902 498.18C229.875 498.18 228.942 497.947 228.102 497.48C227.275 497.013 226.622 496.353 226.142 495.5C225.675 494.633 225.442 493.633 225.442 492.5C225.442 491.38 225.682 490.393 226.162 489.54C226.655 488.673 227.322 488.013 228.162 487.56C229.002 487.093 229.942 486.86 230.982 486.86C232.022 486.86 232.962 487.093 233.802 487.56C234.642 488.013 235.302 488.667 235.782 489.52C236.275 490.373 236.522 491.367 236.522 492.5C236.522 493.633 236.269 494.633 235.762 495.5C235.269 496.353 234.595 497.013 233.742 497.48C232.889 497.947 231.942 498.18 230.902 498.18ZM230.902 496.58C231.555 496.58 232.169 496.427 232.742 496.12C233.315 495.813 233.775 495.353 234.122 494.74C234.482 494.127 234.662 493.38 234.662 492.5C234.662 491.62 234.489 490.873 234.142 490.26C233.795 489.647 233.342 489.193 232.782 488.9C232.222 488.593 231.615 488.44 230.962 488.44C230.295 488.44 229.682 488.593 229.122 488.9C228.575 489.193 228.135 489.647 227.802 490.26C227.469 490.873 227.302 491.62 227.302 492.5C227.302 493.393 227.462 494.147 227.782 494.76C228.115 495.373 228.555 495.833 229.102 496.14C229.649 496.433 230.249 496.58 230.902 496.58ZM240.735 483.2V498H238.915V483.2H240.735ZM253.277 487.04L246.677 503.16H244.797L246.957 497.88L242.537 487.04H244.557L247.997 495.92L251.397 487.04H253.277ZM259.626 486.86C260.573 486.86 261.4 487.067 262.106 487.48C262.826 487.893 263.36 488.413 263.706 489.04V487.04H265.546V498.24C265.546 499.24 265.333 500.127 264.906 500.9C264.48 501.687 263.866 502.3 263.066 502.74C262.28 503.18 261.36 503.4 260.306 503.4C258.866 503.4 257.666 503.06 256.706 502.38C255.746 501.7 255.18 500.773 255.006 499.6H256.806C257.006 500.267 257.42 500.8 258.046 501.2C258.673 501.613 259.426 501.82 260.306 501.82C261.306 501.82 262.12 501.507 262.746 500.88C263.386 500.253 263.706 499.373 263.706 498.24V495.94C263.346 496.58 262.813 497.113 262.106 497.54C261.4 497.967 260.573 498.18 259.626 498.18C258.653 498.18 257.766 497.94 256.966 497.46C256.18 496.98 255.56 496.307 255.106 495.44C254.653 494.573 254.426 493.587 254.426 492.48C254.426 491.36 254.653 490.38 255.106 489.54C255.56 488.687 256.18 488.027 256.966 487.56C257.766 487.093 258.653 486.86 259.626 486.86ZM263.706 492.5C263.706 491.673 263.54 490.953 263.206 490.34C262.873 489.727 262.42 489.26 261.846 488.94C261.286 488.607 260.666 488.44 259.986 488.44C259.306 488.44 258.686 488.6 258.126 488.92C257.566 489.24 257.12 489.707 256.786 490.32C256.453 490.933 256.286 491.653 256.286 492.48C256.286 493.32 256.453 494.053 256.786 494.68C257.12 495.293 257.566 495.767 258.126 496.1C258.686 496.42 259.306 496.58 259.986 496.58C260.666 496.58 261.286 496.42 261.846 496.1C262.42 495.767 262.873 495.293 263.206 494.68C263.54 494.053 263.706 493.327 263.706 492.5ZM273.402 498.18C272.375 498.18 271.442 497.947 270.602 497.48C269.775 497.013 269.122 496.353 268.642 495.5C268.175 494.633 267.942 493.633 267.942 492.5C267.942 491.38 268.182 490.393 268.662 489.54C269.155 488.673 269.822 488.013 270.662 487.56C271.502 487.093 272.442 486.86 273.482 486.86C274.522 486.86 275.462 487.093 276.302 487.56C277.142 488.013 277.802 488.667 278.282 489.52C278.775 490.373 279.022 491.367 279.022 492.5C279.022 493.633 278.769 494.633 278.262 495.5C277.769 496.353 277.095 497.013 276.242 497.48C275.389 497.947 274.442 498.18 273.402 498.18ZM273.402 496.58C274.055 496.58 274.669 496.427 275.242 496.12C275.815 495.813 276.275 495.353 276.622 494.74C276.982 494.127 277.162 493.38 277.162 492.5C277.162 491.62 276.989 490.873 276.642 490.26C276.295 489.647 275.842 489.193 275.282 488.9C274.722 488.593 274.115 488.44 273.462 488.44C272.795 488.44 272.182 488.593 271.622 488.9C271.075 489.193 270.635 489.647 270.302 490.26C269.969 490.873 269.802 491.62 269.802 492.5C269.802 493.393 269.962 494.147 270.282 494.76C270.615 495.373 271.055 495.833 271.602 496.14C272.149 496.433 272.749 496.58 273.402 496.58ZM286.755 486.84C288.088 486.84 289.168 487.247 289.995 488.06C290.822 488.86 291.235 490.02 291.235 491.54V498H289.435V491.8C289.435 490.707 289.162 489.873 288.615 489.3C288.068 488.713 287.322 488.42 286.375 488.42C285.415 488.42 284.648 488.72 284.075 489.32C283.515 489.92 283.235 490.793 283.235 491.94V498H281.415V487.04H283.235V488.6C283.595 488.04 284.082 487.607 284.695 487.3C285.322 486.993 286.008 486.84 286.755 486.84Z" fill="white"/>
<path d="M206.144 487.379C205.778 487.17 205.308 487.17 204.89 487.379L201.966 489.102L199.982 490.198L197.11 491.922C196.744 492.131 196.274 492.131 195.856 491.922L193.611 490.564C193.245 490.355 192.984 489.937 192.984 489.467V486.856C192.984 486.439 193.193 486.021 193.611 485.76L195.856 484.454C196.222 484.245 196.692 484.245 197.11 484.454L199.355 485.812C199.721 486.021 199.982 486.439 199.982 486.909V488.632L201.966 487.483V485.708C201.966 485.29 201.757 484.872 201.339 484.611L197.162 482.157C196.796 481.948 196.326 481.948 195.909 482.157L191.627 484.663C191.209 484.872 191 485.29 191 485.708V490.616C191 491.034 191.209 491.452 191.627 491.713L195.856 494.167C196.222 494.376 196.692 494.376 197.11 494.167L199.982 492.496L201.966 491.347L204.838 489.676C205.204 489.467 205.674 489.467 206.091 489.676L208.337 490.982C208.702 491.191 208.963 491.608 208.963 492.078V494.689C208.963 495.107 208.755 495.525 208.337 495.786L206.144 497.091C205.778 497.3 205.308 497.3 204.89 497.091L202.645 495.786C202.279 495.577 202.018 495.159 202.018 494.689V493.018L200.034 494.167V495.89C200.034 496.308 200.243 496.726 200.661 496.987L204.89 499.441C205.256 499.65 205.726 499.65 206.144 499.441L210.373 496.987C210.739 496.778 211 496.36 211 495.89V490.93C211 490.512 210.791 490.094 210.373 489.833L206.144 487.379Z" fill="#8247E5"/>
<path d="M30.78 494.9H24.7L23.58 498H21.66L26.7 484.14H28.8L33.82 498H31.9L30.78 494.9ZM30.26 493.42L27.74 486.38L25.22 493.42H30.26ZM34.5366 492.5C34.5366 491.367 34.7632 490.38 35.2166 489.54C35.6699 488.687 36.2966 488.027 37.0966 487.56C37.9099 487.093 38.8366 486.86 39.8766 486.86C41.2232 486.86 42.3299 487.187 43.1966 487.84C44.0766 488.493 44.6566 489.4 44.9366 490.56H42.9766C42.7899 489.893 42.4232 489.367 41.8766 488.98C41.3432 488.593 40.6766 488.4 39.8766 488.4C38.8366 488.4 37.9966 488.76 37.3566 489.48C36.7166 490.187 36.3966 491.193 36.3966 492.5C36.3966 493.82 36.7166 494.84 37.3566 495.56C37.9966 496.28 38.8366 496.64 39.8766 496.64C40.6766 496.64 41.3432 496.453 41.8766 496.08C42.4099 495.707 42.7766 495.173 42.9766 494.48H44.9366C44.6432 495.6 44.0566 496.5 43.1766 497.18C42.2966 497.847 41.1966 498.18 39.8766 498.18C38.8366 498.18 37.9099 497.947 37.0966 497.48C36.2966 497.013 35.6699 496.353 35.2166 495.5C34.7632 494.647 34.5366 493.647 34.5366 492.5ZM45.885 492.5C45.885 491.367 46.1117 490.38 46.565 489.54C47.0183 488.687 47.645 488.027 48.445 487.56C49.2583 487.093 50.185 486.86 51.225 486.86C52.5717 486.86 53.6783 487.187 54.545 487.84C55.425 488.493 56.005 489.4 56.285 490.56H54.325C54.1383 489.893 53.7717 489.367 53.225 488.98C52.6917 488.593 52.025 488.4 51.225 488.4C50.185 488.4 49.345 488.76 48.705 489.48C48.065 490.187 47.745 491.193 47.745 492.5C47.745 493.82 48.065 494.84 48.705 495.56C49.345 496.28 50.185 496.64 51.225 496.64C52.025 496.64 52.6917 496.453 53.225 496.08C53.7583 495.707 54.125 495.173 54.325 494.48H56.285C55.9917 495.6 55.405 496.5 54.525 497.18C53.645 497.847 52.545 498.18 51.225 498.18C50.185 498.18 49.2583 497.947 48.445 497.48C47.645 497.013 47.0183 496.353 46.565 495.5C46.1117 494.647 45.885 493.647 45.885 492.5ZM67.9134 492.1C67.9134 492.447 67.8934 492.813 67.8534 493.2H59.0934C59.1601 494.28 59.5268 495.127 60.1934 495.74C60.8734 496.34 61.6934 496.64 62.6534 496.64C63.4401 496.64 64.0934 496.46 64.6134 496.1C65.1468 495.727 65.5201 495.233 65.7334 494.62H67.6934C67.4001 495.673 66.8134 496.533 65.9334 497.2C65.0534 497.853 63.9601 498.18 62.6534 498.18C61.6134 498.18 60.6801 497.947 59.8534 497.48C59.0401 497.013 58.4001 496.353 57.9334 495.5C57.4668 494.633 57.2334 493.633 57.2334 492.5C57.2334 491.367 57.4601 490.373 57.9134 489.52C58.3668 488.667 59.0001 488.013 59.8134 487.56C60.6401 487.093 61.5868 486.86 62.6534 486.86C63.6934 486.86 64.6134 487.087 65.4134 487.54C66.2134 487.993 66.8268 488.62 67.2534 489.42C67.6934 490.207 67.9134 491.1 67.9134 492.1ZM66.0334 491.72C66.0334 491.027 65.8801 490.433 65.5734 489.94C65.2668 489.433 64.8468 489.053 64.3134 488.8C63.7934 488.533 63.2134 488.4 62.5734 488.4C61.6534 488.4 60.8668 488.693 60.2134 489.28C59.5734 489.867 59.2068 490.68 59.1134 491.72H66.0334ZM71.3358 489.06C71.6958 488.433 72.2291 487.913 72.9358 487.5C73.6558 487.073 74.4891 486.86 75.4358 486.86C76.4091 486.86 77.2891 487.093 78.0758 487.56C78.8758 488.027 79.5024 488.687 79.9558 489.54C80.4091 490.38 80.6358 491.36 80.6358 492.48C80.6358 493.587 80.4091 494.573 79.9558 495.44C79.5024 496.307 78.8758 496.98 78.0758 497.46C77.2891 497.94 76.4091 498.18 75.4358 498.18C74.5024 498.18 73.6758 497.973 72.9558 497.56C72.2491 497.133 71.7091 496.607 71.3358 495.98V503.2H69.5158V487.04H71.3358V489.06ZM78.7758 492.48C78.7758 491.653 78.6091 490.933 78.2758 490.32C77.9424 489.707 77.4891 489.24 76.9158 488.92C76.3558 488.6 75.7358 488.44 75.0558 488.44C74.3891 488.44 73.7691 488.607 73.1958 488.94C72.6358 489.26 72.1824 489.733 71.8358 490.36C71.5024 490.973 71.3358 491.687 71.3358 492.5C71.3358 493.327 71.5024 494.053 71.8358 494.68C72.1824 495.293 72.6358 495.767 73.1958 496.1C73.7691 496.42 74.3891 496.58 75.0558 496.58C75.7358 496.58 76.3558 496.42 76.9158 496.1C77.4891 495.767 77.9424 495.293 78.2758 494.68C78.6091 494.053 78.7758 493.32 78.7758 492.48ZM84.4514 488.54V495C84.4514 495.533 84.5647 495.913 84.7914 496.14C85.0181 496.353 85.4114 496.46 85.9714 496.46H87.3114V498H85.6714C84.6581 498 83.8981 497.767 83.3914 497.3C82.8847 496.833 82.6314 496.067 82.6314 495V488.54H81.2114V487.04H82.6314V484.28H84.4514V487.04H87.3114V488.54H84.4514ZM98.7166 492.1C98.7166 492.447 98.6966 492.813 98.6566 493.2H89.8966C89.9632 494.28 90.3299 495.127 90.9966 495.74C91.6766 496.34 92.4966 496.64 93.4566 496.64C94.2432 496.64 94.8966 496.46 95.4166 496.1C95.9499 495.727 96.3232 495.233 96.5366 494.62H98.4966C98.2032 495.673 97.6166 496.533 96.7366 497.2C95.8566 497.853 94.7632 498.18 93.4566 498.18C92.4166 498.18 91.4832 497.947 90.6566 497.48C89.8432 497.013 89.2032 496.353 88.7366 495.5C88.2699 494.633 88.0366 493.633 88.0366 492.5C88.0366 491.367 88.2632 490.373 88.7166 489.52C89.1699 488.667 89.8032 488.013 90.6166 487.56C91.4432 487.093 92.3899 486.86 93.4566 486.86C94.4966 486.86 95.4166 487.087 96.2166 487.54C97.0166 487.993 97.6299 488.62 98.0566 489.42C98.4966 490.207 98.7166 491.1 98.7166 492.1ZM96.8366 491.72C96.8366 491.027 96.6832 490.433 96.3766 489.94C96.0699 489.433 95.6499 489.053 95.1166 488.8C94.5966 488.533 94.0166 488.4 93.3766 488.4C92.4566 488.4 91.6699 488.693 91.0166 489.28C90.3766 489.867 90.0099 490.68 89.9166 491.72H96.8366ZM99.6389 492.48C99.6389 491.36 99.8656 490.38 100.319 489.54C100.772 488.687 101.392 488.027 102.179 487.56C102.979 487.093 103.872 486.86 104.859 486.86C105.712 486.86 106.506 487.06 107.239 487.46C107.972 487.847 108.532 488.36 108.919 489V483.2H110.759V498H108.919V495.94C108.559 496.593 108.026 497.133 107.319 497.56C106.612 497.973 105.786 498.18 104.839 498.18C103.866 498.18 102.979 497.94 102.179 497.46C101.392 496.98 100.772 496.307 100.319 495.44C99.8656 494.573 99.6389 493.587 99.6389 492.48ZM108.919 492.5C108.919 491.673 108.752 490.953 108.419 490.34C108.086 489.727 107.632 489.26 107.059 488.94C106.499 488.607 105.879 488.44 105.199 488.44C104.519 488.44 103.899 488.6 103.339 488.92C102.779 489.24 102.332 489.707 101.999 490.32C101.666 490.933 101.499 491.653 101.499 492.48C101.499 493.32 101.666 494.053 101.999 494.68C102.332 495.293 102.779 495.767 103.339 496.1C103.899 496.42 104.519 496.58 105.199 496.58C105.879 496.58 106.499 496.42 107.059 496.1C107.632 495.767 108.086 495.293 108.419 494.68C108.752 494.053 108.919 493.327 108.919 492.5ZM116.887 492.5C116.887 491.367 117.113 490.38 117.567 489.54C118.02 488.687 118.647 488.027 119.447 487.56C120.26 487.093 121.187 486.86 122.227 486.86C123.573 486.86 124.68 487.187 125.547 487.84C126.427 488.493 127.007 489.4 127.287 490.56H125.327C125.14 489.893 124.773 489.367 124.227 488.98C123.693 488.593 123.027 488.4 122.227 488.4C121.187 488.4 120.347 488.76 119.707 489.48C119.067 490.187 118.747 491.193 118.747 492.5C118.747 493.82 119.067 494.84 119.707 495.56C120.347 496.28 121.187 496.64 122.227 496.64C123.027 496.64 123.693 496.453 124.227 496.08C124.76 495.707 125.127 495.173 125.327 494.48H127.287C126.993 495.6 126.407 496.5 125.527 497.18C124.647 497.847 123.547 498.18 122.227 498.18C121.187 498.18 120.26 497.947 119.447 497.48C118.647 497.013 118.02 496.353 117.567 495.5C117.113 494.647 116.887 493.647 116.887 492.5ZM134.355 486.84C135.182 486.84 135.928 487.02 136.595 487.38C137.262 487.727 137.782 488.253 138.155 488.96C138.542 489.667 138.735 490.527 138.735 491.54V498H136.935V491.8C136.935 490.707 136.662 489.873 136.115 489.3C135.568 488.713 134.822 488.42 133.875 488.42C132.915 488.42 132.148 488.72 131.575 489.32C131.015 489.92 130.735 490.793 130.735 491.94V498H128.915V483.2H130.735V488.6C131.095 488.04 131.588 487.607 132.215 487.3C132.855 486.993 133.568 486.84 134.355 486.84ZM140.228 492.48C140.228 491.36 140.455 490.38 140.908 489.54C141.361 488.687 141.981 488.027 142.768 487.56C143.568 487.093 144.455 486.86 145.428 486.86C146.388 486.86 147.221 487.067 147.928 487.48C148.635 487.893 149.161 488.413 149.508 489.04V487.04H151.348V498H149.508V495.96C149.148 496.6 148.608 497.133 147.888 497.56C147.181 497.973 146.355 498.18 145.408 498.18C144.435 498.18 143.555 497.94 142.768 497.46C141.981 496.98 141.361 496.307 140.908 495.44C140.455 494.573 140.228 493.587 140.228 492.48ZM149.508 492.5C149.508 491.673 149.341 490.953 149.008 490.34C148.675 489.727 148.221 489.26 147.648 488.94C147.088 488.607 146.468 488.44 145.788 488.44C145.108 488.44 144.488 488.6 143.928 488.92C143.368 489.24 142.921 489.707 142.588 490.32C142.255 490.933 142.088 491.653 142.088 492.48C142.088 493.32 142.255 494.053 142.588 494.68C142.921 495.293 143.368 495.767 143.928 496.1C144.488 496.42 145.108 496.58 145.788 496.58C146.468 496.58 147.088 496.42 147.648 496.1C148.221 495.767 148.675 495.293 149.008 494.68C149.341 494.053 149.508 493.327 149.508 492.5ZM154.564 485.26C154.217 485.26 153.924 485.14 153.684 484.9C153.444 484.66 153.324 484.367 153.324 484.02C153.324 483.673 153.444 483.38 153.684 483.14C153.924 482.9 154.217 482.78 154.564 482.78C154.897 482.78 155.177 482.9 155.404 483.14C155.644 483.38 155.764 483.673 155.764 484.02C155.764 484.367 155.644 484.66 155.404 484.9C155.177 485.14 154.897 485.26 154.564 485.26ZM155.444 487.04V498H153.624V487.04H155.444ZM163.085 486.84C164.419 486.84 165.499 487.247 166.325 488.06C167.152 488.86 167.565 490.02 167.565 491.54V498H165.765V491.8C165.765 490.707 165.492 489.873 164.945 489.3C164.399 488.713 163.652 488.42 162.705 488.42C161.745 488.42 160.979 488.72 160.405 489.32C159.845 489.92 159.565 490.793 159.565 491.94V498H157.745V487.04H159.565V488.6C159.925 488.04 160.412 487.607 161.025 487.3C161.652 486.993 162.339 486.84 163.085 486.84ZM173.618 498.18C172.778 498.18 172.025 498.04 171.358 497.76C170.692 497.467 170.165 497.067 169.778 496.56C169.392 496.04 169.178 495.447 169.138 494.78H171.018C171.072 495.327 171.325 495.773 171.778 496.12C172.245 496.467 172.852 496.64 173.598 496.64C174.292 496.64 174.838 496.487 175.238 496.18C175.638 495.873 175.838 495.487 175.838 495.02C175.838 494.54 175.625 494.187 175.198 493.96C174.772 493.72 174.112 493.487 173.218 493.26C172.405 493.047 171.738 492.833 171.218 492.62C170.712 492.393 170.272 492.067 169.898 491.64C169.538 491.2 169.358 490.627 169.358 489.92C169.358 489.36 169.525 488.847 169.858 488.38C170.192 487.913 170.665 487.547 171.278 487.28C171.892 487 172.592 486.86 173.378 486.86C174.592 486.86 175.572 487.167 176.318 487.78C177.065 488.393 177.465 489.233 177.518 490.3H175.698C175.658 489.727 175.425 489.267 174.998 488.92C174.585 488.573 174.025 488.4 173.318 488.4C172.665 488.4 172.145 488.54 171.758 488.82C171.372 489.1 171.178 489.467 171.178 489.92C171.178 490.28 171.292 490.58 171.518 490.82C171.758 491.047 172.052 491.233 172.398 491.38C172.758 491.513 173.252 491.667 173.878 491.84C174.665 492.053 175.305 492.267 175.798 492.48C176.292 492.68 176.712 492.987 177.058 493.4C177.418 493.813 177.605 494.353 177.618 495.02C177.618 495.62 177.452 496.16 177.118 496.64C176.785 497.12 176.312 497.5 175.698 497.78C175.098 498.047 174.405 498.18 173.618 498.18ZM179.968 498.12C179.621 498.12 179.328 498 179.088 497.76C178.848 497.52 178.728 497.227 178.728 496.88C178.728 496.533 178.848 496.24 179.088 496C179.328 495.76 179.621 495.64 179.968 495.64C180.301 495.64 180.581 495.76 180.808 496C181.048 496.24 181.168 496.533 181.168 496.88C181.168 497.227 181.048 497.52 180.808 497.76C180.581 498 180.301 498.12 179.968 498.12ZM179.968 489.56C179.621 489.56 179.328 489.44 179.088 489.2C178.848 488.96 178.728 488.667 178.728 488.32C178.728 487.973 178.848 487.68 179.088 487.44C179.328 487.2 179.621 487.08 179.968 487.08C180.301 487.08 180.581 487.2 180.808 487.44C181.048 487.68 181.168 487.973 181.168 488.32C181.168 488.667 181.048 488.96 180.808 489.2C180.581 489.44 180.301 489.56 179.968 489.56Z" fill="white"/>
<g clip-path="url(#clip0_524_2)">
<path d="M309 501C314.523 501 319 496.523 319 491C319 485.477 314.523 481 309 481C303.477 481 299 485.477 299 491C299 496.523 303.477 501 309 501Z" fill="#0052FF"/>
<path d="M309.044 497.949C312.92 497.949 316.062 494.813 316.062 490.943C316.062 487.074 312.92 483.938 309.044 483.938C305.367 483.938 302.35 486.761 302.051 490.355H311.327V491.532H302.051C302.35 495.126 305.367 497.949 309.044 497.949Z" fill="white"/>
</g>
<path d="M115.46 64.154C115.46 60.482 116.288 57.188 117.944 54.272C119.6 51.32 121.85 49.016 124.694 47.36C127.574 45.704 130.76 44.876 134.252 44.876C138.356 44.876 141.938 45.866 144.998 47.846C148.058 49.826 150.29 52.634 151.694 56.27H145.808C144.764 54.002 143.252 52.256 141.272 51.032C139.328 49.808 136.988 49.196 134.252 49.196C131.624 49.196 129.266 49.808 127.178 51.032C125.09 52.256 123.452 54.002 122.264 56.27C121.076 58.502 120.482 61.13 120.482 64.154C120.482 67.142 121.076 69.77 122.264 72.038C123.452 74.27 125.09 75.998 127.178 77.222C129.266 78.446 131.624 79.058 134.252 79.058C136.988 79.058 139.328 78.464 141.272 77.276C143.252 76.052 144.764 74.306 145.808 72.038H151.694C150.29 75.638 148.058 78.428 144.998 80.408C141.938 82.352 138.356 83.324 134.252 83.324C130.76 83.324 127.574 82.514 124.694 80.894C121.85 79.238 119.6 76.952 117.944 74.036C116.288 71.12 115.46 67.826 115.46 64.154ZM181.257 74.63H164.841L161.817 83H156.633L170.241 45.578H175.911L189.465 83H184.281L181.257 74.63ZM179.853 70.634L173.049 51.626L166.245 70.634H179.853ZM207.329 83.378C204.845 83.378 202.613 82.946 200.633 82.082C198.689 81.182 197.159 79.958 196.043 78.41C194.927 76.826 194.351 75.008 194.315 72.956H199.553C199.733 74.72 200.453 76.214 201.713 77.438C203.009 78.626 204.881 79.22 207.329 79.22C209.669 79.22 211.505 78.644 212.837 77.492C214.205 76.304 214.889 74.792 214.889 72.956C214.889 71.516 214.493 70.346 213.701 69.446C212.909 68.546 211.919 67.862 210.731 67.394C209.543 66.926 207.941 66.422 205.925 65.882C203.441 65.234 201.443 64.586 199.931 63.938C198.455 63.29 197.177 62.282 196.097 60.914C195.053 59.51 194.531 57.638 194.531 55.298C194.531 53.246 195.053 51.428 196.097 49.844C197.141 48.26 198.599 47.036 200.471 46.172C202.379 45.308 204.557 44.876 207.005 44.876C210.533 44.876 213.413 45.758 215.645 47.522C217.913 49.286 219.191 51.626 219.479 54.542H214.079C213.899 53.102 213.143 51.842 211.811 50.762C210.479 49.646 208.715 49.088 206.519 49.088C204.467 49.088 202.793 49.628 201.497 50.708C200.201 51.752 199.553 53.228 199.553 55.136C199.553 56.504 199.931 57.62 200.687 58.484C201.479 59.348 202.433 60.014 203.549 60.482C204.701 60.914 206.303 61.418 208.355 61.994C210.839 62.678 212.837 63.362 214.349 64.046C215.861 64.694 217.157 65.72 218.237 67.124C219.317 68.492 219.857 70.364 219.857 72.74C219.857 74.576 219.371 76.304 218.399 77.924C217.427 79.544 215.987 80.858 214.079 81.866C212.171 82.874 209.921 83.378 207.329 83.378ZM256.087 45.362V83H251.173V65.936H232.003V83H227.089V45.362H232.003V61.886H251.173V45.362H256.087ZM283.323 63.614C284.691 63.83 285.933 64.388 287.049 65.288C288.201 66.188 289.101 67.304 289.749 68.636C290.433 69.968 290.775 71.39 290.775 72.902C290.775 74.81 290.289 76.538 289.317 78.086C288.345 79.598 286.923 80.804 285.051 81.704C283.215 82.568 281.037 83 278.517 83H264.477V45.362H277.977C280.533 45.362 282.711 45.794 284.511 46.658C286.311 47.486 287.661 48.62 288.561 50.06C289.461 51.5 289.911 53.12 289.911 54.92C289.911 57.152 289.299 59.006 288.075 60.482C286.887 61.922 285.303 62.966 283.323 63.614ZM269.391 61.616H277.653C279.957 61.616 281.739 61.076 282.999 59.996C284.259 58.916 284.889 57.422 284.889 55.514C284.889 53.606 284.259 52.112 282.999 51.032C281.739 49.952 279.921 49.412 277.545 49.412H269.391V61.616ZM278.085 78.95C280.533 78.95 282.441 78.374 283.809 77.222C285.177 76.07 285.861 74.468 285.861 72.416C285.861 70.328 285.141 68.69 283.701 67.502C282.261 66.278 280.335 65.666 277.923 65.666H269.391V78.95H278.085ZM319.843 74.63H303.427L300.403 83H295.219L308.827 45.578H314.497L328.051 83H322.867L319.843 74.63ZM318.439 70.634L311.635 51.626L304.831 70.634H318.439ZM332.145 64.154C332.145 60.482 332.973 57.188 334.629 54.272C336.285 51.32 338.535 49.016 341.379 47.36C344.259 45.704 347.445 44.876 350.937 44.876C355.041 44.876 358.623 45.866 361.683 47.846C364.743 49.826 366.975 52.634 368.379 56.27H362.493C361.449 54.002 359.937 52.256 357.957 51.032C356.013 49.808 353.673 49.196 350.937 49.196C348.309 49.196 345.951 49.808 343.863 51.032C341.775 52.256 340.137 54.002 338.949 56.27C337.761 58.502 337.167 61.13 337.167 64.154C337.167 67.142 337.761 69.77 338.949 72.038C340.137 74.27 341.775 75.998 343.863 77.222C345.951 78.446 348.309 79.058 350.937 79.058C353.673 79.058 356.013 78.464 357.957 77.276C359.937 76.052 361.449 74.306 362.493 72.038H368.379C366.975 75.638 364.743 78.428 361.683 80.408C358.623 82.352 355.041 83.324 350.937 83.324C347.445 83.324 344.259 82.514 341.379 80.894C338.535 79.238 336.285 76.952 334.629 74.036C332.973 71.12 332.145 67.826 332.145 64.154ZM396.106 83L380.608 65.828V83H375.694V45.362H380.608V62.804L396.16 45.362H402.37L385.306 64.208L402.532 83H396.106Z" fill="white"/>
<path d="M26.2364 79.058C30.8084 75.386 34.3904 72.38 36.9824 70.04C39.5744 67.664 41.7524 65.198 43.5164 62.642C45.3164 60.05 46.2164 57.512 46.2164 55.028C46.2164 52.688 45.6404 50.852 44.4884 49.52C43.3724 48.152 41.5544 47.468 39.0344 47.468C36.5864 47.468 34.6784 48.242 33.3104 49.79C31.9784 51.302 31.2584 53.336 31.1504 55.892H26.3984C26.5424 51.86 27.7664 48.746 30.0704 46.55C32.3744 44.354 35.3444 43.256 38.9804 43.256C42.6884 43.256 45.6224 44.282 47.7824 46.334C49.9784 48.386 51.0764 51.212 51.0764 54.812C51.0764 57.8 50.1764 60.716 48.3764 63.56C46.6124 66.368 44.5964 68.852 42.3284 71.012C40.0604 73.136 37.1624 75.62 33.6344 78.464H52.2104V82.568H26.2364V79.058ZM56.811 52.76C56.811 50.312 57.549 48.368 59.025 46.928C60.501 45.452 62.391 44.714 64.695 44.714C66.999 44.714 68.889 45.452 70.365 46.928C71.841 48.368 72.579 50.312 72.579 52.76C72.579 55.244 71.841 57.224 70.365 58.7C68.889 60.14 66.999 60.86 64.695 60.86C62.391 60.86 60.501 60.14 59.025 58.7C57.549 57.224 56.811 55.244 56.811 52.76ZM88.347 45.308L66.477 83H61.617L83.487 45.308H88.347ZM64.695 47.738C63.471 47.738 62.499 48.17 61.779 49.034C61.095 49.862 60.753 51.104 60.753 52.76C60.753 54.416 61.095 55.676 61.779 56.54C62.499 57.404 63.471 57.836 64.695 57.836C65.919 57.836 66.891 57.404 67.611 56.54C68.331 55.64 68.691 54.38 68.691 52.76C68.691 51.104 68.331 49.862 67.611 49.034C66.891 48.17 65.919 47.738 64.695 47.738ZM77.493 75.548C77.493 73.064 78.231 71.102 79.707 69.662C81.183 68.186 83.073 67.448 85.377 67.448C87.681 67.448 89.553 68.186 90.993 69.662C92.469 71.102 93.207 73.064 93.207 75.548C93.207 77.996 92.469 79.958 90.993 81.434C89.553 82.91 87.681 83.648 85.377 83.648C83.073 83.648 81.183 82.928 79.707 81.488C78.231 80.012 77.493 78.032 77.493 75.548ZM85.323 70.526C84.099 70.526 83.127 70.958 82.407 71.822C81.687 72.65 81.327 73.892 81.327 75.548C81.327 77.168 81.687 78.41 82.407 79.274C83.127 80.102 84.099 80.516 85.323 80.516C86.547 80.516 87.519 80.102 88.239 79.274C88.959 78.41 89.319 77.168 89.319 75.548C89.319 73.892 88.959 72.65 88.239 71.822C87.519 70.958 86.547 70.526 85.323 70.526Z" fill="white"/>
<defs>
<clipPath id="clip0_524_2">
<rect width="20" height="20" fill="white" transform="translate(299 481)"/>
</clipPath>
</defs>
</svg>
