<svg width="40" height="40" viewBox="0 0 40 40" fill="none" xmlns="http://www.w3.org/2000/svg">
<path d="M22.1176 36.8889C23.872 36.8889 25.2941 35.4711 25.2941 33.7222C25.2941 30.8074 27.6644 28.4444 30.5882 28.4444C32.3426 28.4444 33.7647 27.0267 33.7647 25.2778V18.9444C33.7647 18.3615 34.2388 17.8889 34.8235 17.8889C35.4083 17.8889 35.8824 18.3615 35.8824 18.9444V25.2778C35.8824 32.8564 29.7197 39 22.1176 39H7.29412C4.37026 39 2 36.6371 2 33.7222V6.27778C2 3.36294 4.37026 1 7.29412 1H20C20.5848 1 21.0588 1.47259 21.0588 2.05556C21.0588 2.63852 20.5848 3.11111 20 3.11111H7.29412C5.5398 3.11111 4.11765 4.52888 4.11765 6.27778V33.7222C4.11765 35.4711 5.5398 36.8889 7.29412 36.8889H22.1176ZM26.9699 35.8364C29.5027 34.6777 31.5467 32.64 32.7089 30.1151C32.0596 30.3984 31.3424 30.5556 30.5882 30.5556C28.8339 30.5556 27.4118 31.9733 27.4118 33.7222C27.4118 34.474 27.2541 35.1891 26.9699 35.8364ZM31.6471 7.33333H36.9412C37.5259 7.33333 38 7.80592 38 8.38889C38 8.97186 37.5259 9.44444 36.9412 9.44444H31.6471V14.7222C31.6471 15.3052 31.173 15.7778 30.5882 15.7778C30.0035 15.7778 29.5294 15.3052 29.5294 14.7222V9.44444H24.2353C23.6505 9.44444 23.1765 8.97186 23.1765 8.38889C23.1765 7.80592 23.6505 7.33333 24.2353 7.33333H29.5294V2.05556C29.5294 1.47259 30.0035 1 30.5882 1C31.173 1 31.6471 1.47259 31.6471 2.05556V7.33333ZM11.5294 13.6667C10.9446 13.6667 10.4706 13.1941 10.4706 12.6111C10.4706 12.0281 10.9446 11.5556 11.5294 11.5556H20C20.5848 11.5556 21.0588 12.0281 21.0588 12.6111C21.0588 13.1941 20.5848 13.6667 20 13.6667H11.5294ZM11.5294 20C10.9446 20 10.4706 19.5274 10.4706 18.9444C10.4706 18.3615 10.9446 17.8889 11.5294 17.8889H26.3529C26.9377 17.8889 27.4118 18.3615 27.4118 18.9444C27.4118 19.5274 26.9377 20 26.3529 20H11.5294ZM11.5294 26.3333C10.9446 26.3333 10.4706 25.8607 10.4706 25.2778C10.4706 24.6948 10.9446 24.2222 11.5294 24.2222H22.1176C22.7024 24.2222 23.1765 24.6948 23.1765 25.2778C23.1765 25.8607 22.7024 26.3333 22.1176 26.3333H11.5294Z" fill="black"/>
</svg>
