<svg width="40" height="40" viewBox="0 0 40 40" fill="none" xmlns="http://www.w3.org/2000/svg">
<path d="M22.1176 36.8889C23.872 36.8889 25.2941 35.4711 25.2941 33.7222C25.2941 30.8074 27.6644 28.4444 30.5882 28.4444C32.3426 28.4444 33.7647 27.0267 33.7647 25.2778V18.9444C33.7647 18.3615 34.2388 17.8889 34.8235 17.8889C35.4083 17.8889 35.8824 18.3615 35.8824 18.9444V25.2778C35.8824 32.8564 29.7197 39 22.1176 39H7.29412C4.37026 39 2 36.6371 2 33.7222V6.27778C2 3.36294 4.37026 1 7.29412 1H20C20.5848 1 21.0588 1.47259 21.0588 2.05556C21.0588 2.63852 20.5848 3.11111 20 3.11111H7.29412C5.5398 3.11111 4.11765 4.52888 4.11765 6.27778V33.7222C4.11765 35.4711 5.5398 36.8889 7.29412 36.8889H22.1176ZM26.9699 35.8364C29.5027 34.6777 31.5467 32.64 32.7089 30.1151C32.0596 30.3984 31.3424 30.5556 30.5882 30.5556C28.8339 30.5556 27.4118 31.9733 27.4118 33.7222C27.4118 34.474 27.2541 35.1891 26.9699 35.8364ZM31.6471 7.33333H36.9412C37.5259 7.33333 38 7.80592 38 8.38889C38 8.97186 37.5259 9.44444 36.9412 9.44444H31.6471V14.7222C31.6471 15.3052 31.173 15.7778 30.5882 15.7778C30.0035 15.7778 29.5294 15.3052 29.5294 14.7222V9.44444H24.2353C23.6505 9.44444 23.1765 8.97186 23.1765 8.38889C23.1765 7.80592 23.6505 7.33333 24.2353 7.33333H29.5294V2.05556C29.5294 1.47259 30.0035 1 30.5882 1C31.173 1 31.6471 1.47259 31.6471 2.05556V7.33333Z" fill="black"/>
<path d="M5.18892 12.0227V10.9091H9.61364V12.0227H8.08239V16H6.72017V12.0227H5.18892ZM14.8263 13.4545C14.8263 14.0213 14.7161 14.4994 14.4957 14.8888C14.2753 15.2766 13.9779 15.5708 13.6033 15.7713C13.2288 15.9702 12.8112 16.0696 12.3505 16.0696C11.8865 16.0696 11.4672 15.9693 11.0927 15.7688C10.7198 15.5666 10.4232 15.2717 10.2028 14.8839C9.98402 14.4944 9.87464 14.018 9.87464 13.4545C9.87464 12.8878 9.98402 12.4105 10.2028 12.0227C10.4232 11.6333 10.7198 11.3391 11.0927 11.1403C11.4672 10.9397 11.8865 10.8395 12.3505 10.8395C12.8112 10.8395 13.2288 10.9397 13.6033 11.1403C13.9779 11.3391 14.2753 11.6333 14.4957 12.0227C14.7161 12.4105 14.8263 12.8878 14.8263 13.4545ZM13.4045 13.4545C13.4045 13.1496 13.3639 12.8928 13.2827 12.6839C13.2031 12.4735 13.0846 12.3144 12.9272 12.2067C12.7714 12.0973 12.5792 12.0426 12.3505 12.0426C12.1218 12.0426 11.9287 12.0973 11.7713 12.2067C11.6155 12.3144 11.497 12.4735 11.4158 12.6839C11.3363 12.8928 11.2965 13.1496 11.2965 13.4545C11.2965 13.7595 11.3363 14.0172 11.4158 14.2276C11.497 14.4364 11.6155 14.5955 11.7713 14.7049C11.9287 14.8126 12.1218 14.8665 12.3505 14.8665C12.5792 14.8665 12.7714 14.8126 12.9272 14.7049C13.0846 14.5955 13.2031 14.4364 13.2827 14.2276C13.3639 14.0172 13.4045 13.7595 13.4045 13.4545ZM5.32812 24V18.9091H7.52557C7.90341 18.9091 8.23402 18.9779 8.5174 19.1154C8.80078 19.253 9.02119 19.451 9.17862 19.7095C9.33606 19.968 9.41477 20.2779 9.41477 20.6392C9.41477 21.0038 9.33357 21.3112 9.17116 21.5614C9.01042 21.8117 8.78421 22.0006 8.49254 22.1282C8.20253 22.2558 7.86364 22.3196 7.47585 22.3196H6.16335V21.2457H7.19744C7.35985 21.2457 7.49822 21.2259 7.61257 21.1861C7.72857 21.1446 7.81723 21.0792 7.87855 20.9897C7.94152 20.9002 7.97301 20.7834 7.97301 20.6392C7.97301 20.4934 7.94152 20.3749 7.87855 20.2837C7.81723 20.1909 7.72857 20.123 7.61257 20.0799C7.49822 20.0352 7.35985 20.0128 7.19744 20.0128H6.71023V24H5.32812ZM8.31108 21.6634L9.58381 24H8.08239L6.83949 21.6634H8.31108ZM10.0039 24V18.9091H13.6729V20.0227H11.386V20.8977H13.484V22.0114H11.386V22.8864H13.663V24H10.0039ZM14.3584 24V18.9091H17.9379V20.0227H15.7405V20.8977H17.7192V22.0114H15.7405V24H14.3584ZM21.4591 18.9091H22.8412V22.1705C22.8412 22.5582 22.7484 22.8938 22.5628 23.1772C22.3788 23.4589 22.122 23.6768 21.7922 23.831C21.4624 23.9834 21.0796 24.0597 20.6437 24.0597C20.2046 24.0597 19.8201 23.9834 19.4903 23.831C19.1605 23.6768 18.9037 23.4589 18.7197 23.1772C18.5374 22.8938 18.4463 22.5582 18.4463 22.1705V18.9091H19.8284V22.0511C19.8284 22.2086 19.8632 22.3494 19.9328 22.4737C20.0024 22.5964 20.0985 22.6925 20.2211 22.7621C20.3454 22.8317 20.4863 22.8665 20.6437 22.8665C20.8028 22.8665 20.9437 22.8317 21.0663 22.7621C21.189 22.6925 21.2851 22.5964 21.3547 22.4737C21.4243 22.3494 21.4591 22.2086 21.4591 22.0511V18.9091ZM27.9029 18.9091V24H26.7495L24.91 21.3253H24.8801V24H23.498V18.9091H24.6713L26.481 21.5739H26.5208V18.9091H27.9029ZM30.5154 24H28.5566V18.9091H30.4956C31.0192 18.9091 31.4717 19.011 31.8528 19.2148C32.2356 19.417 32.5306 19.7087 32.7377 20.0898C32.9466 20.4693 33.051 20.9242 33.051 21.4545C33.051 21.9848 32.9474 22.4406 32.7402 22.8217C32.5331 23.2012 32.2398 23.4929 31.8603 23.6967C31.4808 23.8989 31.0325 24 30.5154 24ZM29.9387 22.8267H30.4657C30.7176 22.8267 30.9322 22.7861 31.1096 22.7049C31.2885 22.6237 31.4244 22.4837 31.5172 22.2848C31.6117 22.0859 31.6589 21.8092 31.6589 21.4545C31.6589 21.0999 31.6109 20.8232 31.5147 20.6243C31.4203 20.4254 31.2811 20.2854 31.0971 20.2042C30.9148 20.123 30.6911 20.0824 30.426 20.0824H29.9387V22.8267Z" fill="black"/>
</svg>
