<svg width="72" height="72" viewBox="0 0 72 72" fill="none" xmlns="http://www.w3.org/2000/svg">
<path d="M37 8C22.9224 8 11.1904 18.0318 8.55578 31.3359H16.6058C19.0862 22.3915 27.2658 15.8164 37 15.8164C42.8517 15.8164 48.1396 18.1942 51.9673 22.0327L42.6641 31.3359H57.3942H66V8L57.5039 16.4961C52.2566 11.2471 45.0087 8 37 8ZM8 42.6641V66L16.4961 57.5039C21.7434 62.7529 28.9913 66 37 66C51.0776 66 62.8096 55.9682 65.4442 42.6641H57.3942C54.9138 51.6084 46.7341 58.1836 37 58.1836C31.1483 58.1836 25.8604 55.8058 22.0327 51.9673L31.3359 42.6641H8Z" fill="#3B82F6"/>
</svg>
