<svg width="55" height="72" viewBox="0 0 55 72" fill="none" xmlns="http://www.w3.org/2000/svg">
<path d="M0.5 22.75C0.5 15.4322 6.43223 9.5 13.75 9.5H41.25C43.3637 9.5 45.3606 9.99456 47.1325 10.874L37.1315 20.875H17.6C14.4382 20.875 11.875 23.4382 11.875 26.6V46.1315L1.87401 56.1325C0.99456 54.3606 0.5 52.3637 0.5 50.25V22.75ZM53.102 16.8193C53.9964 18.6032 54.5 20.6172 54.5 22.75V50.25C54.5 57.5678 48.5678 63.5 41.25 63.5H13.75C11.6172 63.5 9.6032 62.9964 7.81931 62.102L17.7963 52.125H37.4C40.5618 52.125 43.125 49.5618 43.125 46.4V26.7963L53.102 16.8193Z" stroke="#9CA3AF"/>
</svg>
