<svg width="72" height="72" viewBox="0 0 72 72" fill="none" xmlns="http://www.w3.org/2000/svg">
<path d="M36 7C21.9224 7 10.1904 17.0318 7.55578 30.3359H15.6058C18.0862 21.3915 26.2658 14.8164 36 14.8164C41.8517 14.8164 47.1396 17.1942 50.9673 21.0327L41.6641 30.3359H56.3942H65V7L56.5039 15.4961C51.2566 10.2471 44.0087 7 36 7ZM7 41.6641V65L15.4961 56.5039C20.7434 61.7529 27.9913 65 36 65C50.0776 65 61.8096 54.9682 64.4442 41.6641H56.3942C53.9138 50.6084 45.7341 57.1836 36 57.1836C30.1483 57.1836 24.8604 54.8058 21.0327 50.9673L30.3359 41.6641H7Z" stroke="#9CA3AF"/>
</svg>
