<svg width="55" height="72" viewBox="0 0 55 72" fill="none" xmlns="http://www.w3.org/2000/svg">
<path d="M0 22.75C0 15.1561 6.15609 9 13.75 9H41.25C43.6888 9 45.9793 9.63492 47.9652 10.7485L37.3386 21.375H17.6C14.7143 21.375 12.375 23.7143 12.375 26.6V46.3386L1.74847 56.9652C0.634916 54.9793 0 52.6888 0 50.25V22.75Z" fill="black"/>
<path d="M17.5892 51.625L6.98865 62.2255C8.9852 63.3552 11.2923 64 13.75 64H41.25C48.8439 64 55 57.8439 55 50.25V22.75C55 20.2923 54.3552 17.9852 53.2255 15.9887L42.625 26.5892C42.625 26.5928 42.625 26.5964 42.625 26.6V46.4C42.625 49.2857 40.2857 51.625 37.4 51.625H17.6C17.5964 51.625 17.5928 51.625 17.5892 51.625Z" fill="black"/>
</svg>
