<svg width="99" height="89" viewBox="0 0 99 89" fill="none" xmlns="http://www.w3.org/2000/svg">
<path d="M49.3634 0L98.7269 52.5H0L49.3634 0Z" fill="black"/>
<rect x="18" y="52" width="62" height="37" fill="black"/>
<path d="M48.1634 79.5455V34.0909H51.0753V79.5455H48.1634ZM55.8871 49.0945C55.745 47.6622 55.1354 46.5495 54.0582 45.7564C52.9811 44.9633 51.5192 44.5668 49.6726 44.5668C48.4179 44.5668 47.3584 44.7443 46.4943 45.0994C45.6302 45.4427 44.9673 45.9221 44.5057 46.5376C44.0559 47.1532 43.831 47.8516 43.831 48.6328C43.8073 49.2839 43.9434 49.852 44.2393 50.3374C44.5471 50.8227 44.9673 51.2429 45.5 51.598C46.0327 51.9413 46.6482 52.2431 47.3466 52.5036C48.045 52.7521 48.7907 52.9652 49.5838 53.1428L52.8509 53.924C54.437 54.2791 55.893 54.7526 57.2188 55.3445C58.5445 55.9363 59.6927 56.6643 60.6634 57.5284C61.634 58.3925 62.3857 59.4105 62.9183 60.5824C63.4628 61.7543 63.741 63.0978 63.7528 64.6129C63.741 66.8383 63.1728 68.7678 62.0483 70.4013C60.9356 72.023 59.3258 73.2836 57.2188 74.1832C55.1236 75.071 52.5964 75.5149 49.6371 75.5149C46.7015 75.5149 44.1446 75.0651 41.9666 74.1655C39.8004 73.2659 38.1077 71.9342 36.8885 70.1705C35.6811 68.3949 35.0478 66.1991 34.9886 63.5831H42.4283C42.5111 64.8023 42.8603 65.8203 43.4759 66.6371C44.1032 67.442 44.9377 68.0516 45.9794 68.4659C47.0329 68.8684 48.2225 69.0696 49.5483 69.0696C50.8504 69.0696 51.9808 68.8802 52.9396 68.5014C53.9103 68.1226 54.6619 67.5959 55.1946 66.9212C55.7273 66.2464 55.9936 65.4711 55.9936 64.5952C55.9936 63.7784 55.7509 63.0919 55.2656 62.5355C54.7921 61.9792 54.0938 61.5057 53.1705 61.1151C52.259 60.7244 51.1404 60.3693 49.8146 60.0497L45.8551 59.0554C42.7893 58.3097 40.3686 57.1437 38.593 55.5575C36.8175 53.9714 35.9356 51.8348 35.9474 49.1477C35.9356 46.946 36.5215 45.0225 37.7053 43.3771C38.9008 41.7318 40.5402 40.4474 42.6236 39.5241C44.7069 38.6009 47.0743 38.1392 49.7259 38.1392C52.4247 38.1392 54.7803 38.6009 56.7926 39.5241C58.8168 40.4474 60.3911 41.7318 61.5156 43.3771C62.6402 45.0225 63.2202 46.9283 63.2557 49.0945H55.8871Z" fill="white"/>
</svg>
