<svg width="40" height="40" viewBox="0 0 40 40" fill="none" xmlns="http://www.w3.org/2000/svg">
<path d="M18.0536 7.625H13.7143C10.077 7.625 8.26029 7.625 7.13014 8.89641C6 10.1678 6 12.2116 6 16.3036V29.8638H33V16.3036C33 12.2116 33 10.1678 31.8699 8.89641C30.7397 7.625 28.923 7.625 25.2857 7.625H20.9464V18.4146L22.2579 16.6919C22.3815 16.5295 22.5323 16.3961 22.7017 16.2993C22.8711 16.2024 23.0558 16.1441 23.2453 16.1276C23.4348 16.1111 23.6253 16.1367 23.806 16.203C23.9866 16.2693 24.1539 16.375 24.2983 16.514C24.4426 16.6531 24.5612 16.8227 24.6473 17.0133C24.7334 17.204 24.7853 17.4118 24.7999 17.6249C24.8146 17.8381 24.7919 18.0524 24.7329 18.2557C24.674 18.4589 24.58 18.6471 24.4564 18.8095L20.5993 23.8713C20.4635 24.0499 20.2949 24.1933 20.1052 24.2917C19.9154 24.39 19.7089 24.4409 19.5 24.4409C19.2911 24.4409 19.0846 24.39 18.8948 24.2917C18.7051 24.1933 18.5365 24.0499 18.4007 23.8713L14.5436 18.8095C14.42 18.6471 14.326 18.4589 14.2671 18.2557C14.2081 18.0524 14.1854 17.8381 14.2001 17.6249C14.2147 17.4118 14.2666 17.204 14.3527 17.0133C14.4388 16.8227 14.5574 16.6531 14.7017 16.514C14.8461 16.375 15.0134 16.2693 15.194 16.203C15.3747 16.1367 15.5652 16.1111 15.7547 16.1276C15.9442 16.1441 16.1289 16.2024 16.2983 16.2993C16.4677 16.3961 16.6185 16.5295 16.7421 16.6919L18.0536 18.4146V7.625ZM6.05786 33.1183H32.9421C32.8419 34.8323 32.5776 35.9323 31.8699 36.7286C30.7397 38 28.923 38 25.2857 38H13.7143C10.077 38 8.26029 38 7.13014 36.7286C6.42236 35.9323 6.15621 34.8345 6.05786 33.1183Z" fill="black"/>
<path d="M8.38918 2H31.609C35.694 2 39 5.94133 39 10.8023C39 13.6269 37.8847 16.1384 36.15 17.75V17.1325C36.15 15.2363 36.15 13.4977 35.9847 12.0854C35.8042 10.5286 35.3767 8.882 34.2025 7.531C33.0283 6.17562 31.5995 5.68296 30.2505 5.47275C29.0231 5.28444 27.5145 5.28444 25.8691 5.28444H14.1291C12.4856 5.28444 10.977 5.28444 9.75147 5.47494C8.40058 5.68296 6.97178 6.17562 5.79948 7.52881C4.62339 8.882 4.19589 10.5286 4.01349 12.0832C3.85009 13.4977 3.85009 15.2363 3.85009 17.1325V17.75C2.95463 16.9111 2.23378 15.8514 1.74056 14.6491C1.24735 13.4467 0.994319 12.1322 1.0001 10.8023C1.0001 5.94133 4.30799 2 8.38918 2Z" fill="black"/>
</svg>
