<svg width="40" height="40" viewBox="0 0 40 40" fill="none" xmlns="http://www.w3.org/2000/svg">
<path d="M32.0641 18.9916C35.4714 18.4289 38.0952 15.0508 38.0952 10.9647C38.0952 6.4874 34.9449 2.85714 31.058 2.85714H8.9438C5.05333 2.85714 1.90475 6.4874 1.90475 10.9647C1.90475 15.0508 4.52676 18.4289 7.9359 18.9916" stroke="black" stroke-width="1.8"/>
<path d="M20 8.90756V23.0252M20 23.0252L23.619 18.32M20 23.0252L16.3809 18.32" stroke="black" stroke-width="1.8" stroke-linecap="round" stroke-linejoin="round"/>
<path d="M7.33333 16.9748C7.33333 13.1711 7.33333 11.2713 8.39371 10.0894C9.45409 8.90756 11.1587 8.90756 14.5714 8.90756H25.4286C28.8413 8.90756 30.5459 8.90756 31.6063 10.0894C32.6667 11.2713 32.6667 13.1711 32.6667 16.9748V29.0756C32.6667 32.8793 32.6667 34.7792 31.6063 35.961C30.5459 37.1429 28.8413 37.1429 25.4286 37.1429H14.5714C11.1587 37.1429 9.45409 37.1429 8.39371 35.961C7.33333 34.7792 7.33333 32.8793 7.33333 29.0756V16.9748Z" stroke="black" stroke-width="1.8"/>
<path d="M7.33333 31.0924H32.6667" stroke="black" stroke-width="1.8" stroke-linecap="round" stroke-linejoin="round"/>
</svg>
