<svg width="104" height="80" viewBox="0 0 104 80" fill="none" xmlns="http://www.w3.org/2000/svg">
<mask id="path-1-inside-1_161_240" fill="white">
<path d="M75.8311 57.7801C71.8144 65.8747 65.1752 72.3708 56.995 76.2101C48.8148 80.0494 39.5756 81.0058 30.7824 78.9235C21.9892 76.8411 14.1602 71.8428 8.57062 64.7426C2.98104 57.6424 -0.0397191 48.8587 0.000394111 39.8224C0.0405074 30.7861 3.13913 22.0297 8.79153 14.9794C14.4439 7.92909 22.317 3.00043 31.1283 0.996236C39.9397 -1.00796 49.17 0.0304177 57.3158 3.94222C65.4616 7.85402 72.0428 14.4087 75.9875 22.5387L70.6638 25.1217C67.3027 18.1945 61.695 12.6094 54.7542 9.27629C47.8135 5.94317 39.9486 5.0584 32.4407 6.76611C24.9329 8.47382 18.2245 12.6734 13.4082 18.6807C8.592 24.688 5.95176 32.1492 5.91758 39.8487C5.8834 47.5482 8.4573 55.0325 13.22 61.0824C17.9827 67.1322 24.6536 71.3912 32.146 73.1655C39.6384 74.9398 47.5108 74.1249 54.4809 70.8535C61.451 67.5821 67.108 62.0471 70.5305 55.1499L75.8311 57.7801Z"/>
</mask>
<path d="M75.8311 57.7801C71.8144 65.8747 65.1752 72.3708 56.995 76.2101C48.8148 80.0494 39.5756 81.0058 30.7824 78.9235C21.9892 76.8411 14.1602 71.8428 8.57062 64.7426C2.98104 57.6424 -0.0397191 48.8587 0.000394111 39.8224C0.0405074 30.7861 3.13913 22.0297 8.79153 14.9794C14.4439 7.92909 22.317 3.00043 31.1283 0.996236C39.9397 -1.00796 49.17 0.0304177 57.3158 3.94222C65.4616 7.85402 72.0428 14.4087 75.9875 22.5387L70.6638 25.1217C67.3027 18.1945 61.695 12.6094 54.7542 9.27629C47.8135 5.94317 39.9486 5.0584 32.4407 6.76611C24.9329 8.47382 18.2245 12.6734 13.4082 18.6807C8.592 24.688 5.95176 32.1492 5.91758 39.8487C5.8834 47.5482 8.4573 55.0325 13.22 61.0824C17.9827 67.1322 24.6536 71.3912 32.146 73.1655C39.6384 74.9398 47.5108 74.1249 54.4809 70.8535C61.451 67.5821 67.108 62.0471 70.5305 55.1499L75.8311 57.7801Z" stroke="black" stroke-width="12" mask="url(#path-1-inside-1_161_240)"/>
<mask id="path-2-outside-2_161_240" maskUnits="userSpaceOnUse" x="25" y="12" width="30" height="54" fill="black">
<rect fill="white" x="25" y="12" width="30" height="54"/>
<path d="M40.5505 64.588C40.0105 64.588 39.5605 64.408 39.2005 64.048C38.8765 63.688 38.7145 63.256 38.7145 62.752V57.352L39.6865 58.27C37.1665 58.234 34.8625 57.892 32.7745 57.244C30.6865 56.56 28.9225 55.696 27.4825 54.652C27.0865 54.364 26.7985 54.022 26.6185 53.626C26.4745 53.194 26.4385 52.78 26.5105 52.384C26.6185 51.988 26.7985 51.646 27.0505 51.358C27.3385 51.07 27.6805 50.908 28.0765 50.872C28.4725 50.8 28.9225 50.926 29.4265 51.25C30.6145 52.078 32.0545 52.798 33.7465 53.41C35.4385 54.022 37.5445 54.328 40.0645 54.328C42.1525 54.328 43.8625 54.058 45.1945 53.518C46.5265 52.978 47.5165 52.222 48.1645 51.25C48.8125 50.278 49.1365 49.144 49.1365 47.848C49.1365 46.84 48.9025 45.958 48.4345 45.202C47.9665 44.446 47.2285 43.798 46.2205 43.258C45.2125 42.718 43.8625 42.268 42.1705 41.908L36.7705 40.774C33.4945 40.054 31.0645 38.884 29.4805 37.264C27.8965 35.608 27.1045 33.448 27.1045 30.784C27.1045 28.696 27.6085 26.842 28.6165 25.222C29.6605 23.566 31.1005 22.27 32.9365 21.334C34.7725 20.362 36.9145 19.822 39.3625 19.714L38.7145 20.47V15.178C38.7145 14.674 38.8765 14.242 39.2005 13.882C39.5605 13.522 40.0105 13.342 40.5505 13.342C41.0545 13.342 41.4865 13.522 41.8465 13.882C42.2065 14.242 42.3865 14.674 42.3865 15.178V20.47L41.6845 19.714C43.3765 19.75 45.1585 20.11 47.0305 20.794C48.9385 21.478 50.5585 22.45 51.8905 23.71C52.2505 24.034 52.4665 24.394 52.5385 24.79C52.6465 25.15 52.6285 25.51 52.4845 25.87C52.3765 26.194 52.1785 26.482 51.8905 26.734C51.6385 26.95 51.2965 27.076 50.8645 27.112C50.4685 27.112 50.0365 26.95 49.5685 26.626C48.3805 25.654 47.0485 24.916 45.5725 24.412C44.1325 23.872 42.3865 23.602 40.3345 23.602C37.6345 23.602 35.4745 24.25 33.8545 25.546C32.2705 26.842 31.4785 28.552 31.4785 30.676C31.4785 32.332 31.9825 33.664 32.9905 34.672C33.9985 35.644 35.6365 36.364 37.9045 36.832L43.3585 38.02C46.8865 38.776 49.4785 39.928 51.1345 41.476C52.7905 42.988 53.6185 45.04 53.6185 47.632C53.6185 49.684 53.0965 51.484 52.0525 53.032C51.0085 54.544 49.5865 55.75 47.7865 56.65C45.9865 57.514 43.8985 58.036 41.5225 58.216L42.3865 57.298V62.752C42.3865 63.256 42.2065 63.688 41.8465 64.048C41.5225 64.408 41.0905 64.588 40.5505 64.588Z"/>
</mask>
<path d="M40.5505 64.588C40.0105 64.588 39.5605 64.408 39.2005 64.048C38.8765 63.688 38.7145 63.256 38.7145 62.752V57.352L39.6865 58.27C37.1665 58.234 34.8625 57.892 32.7745 57.244C30.6865 56.56 28.9225 55.696 27.4825 54.652C27.0865 54.364 26.7985 54.022 26.6185 53.626C26.4745 53.194 26.4385 52.78 26.5105 52.384C26.6185 51.988 26.7985 51.646 27.0505 51.358C27.3385 51.07 27.6805 50.908 28.0765 50.872C28.4725 50.8 28.9225 50.926 29.4265 51.25C30.6145 52.078 32.0545 52.798 33.7465 53.41C35.4385 54.022 37.5445 54.328 40.0645 54.328C42.1525 54.328 43.8625 54.058 45.1945 53.518C46.5265 52.978 47.5165 52.222 48.1645 51.25C48.8125 50.278 49.1365 49.144 49.1365 47.848C49.1365 46.84 48.9025 45.958 48.4345 45.202C47.9665 44.446 47.2285 43.798 46.2205 43.258C45.2125 42.718 43.8625 42.268 42.1705 41.908L36.7705 40.774C33.4945 40.054 31.0645 38.884 29.4805 37.264C27.8965 35.608 27.1045 33.448 27.1045 30.784C27.1045 28.696 27.6085 26.842 28.6165 25.222C29.6605 23.566 31.1005 22.27 32.9365 21.334C34.7725 20.362 36.9145 19.822 39.3625 19.714L38.7145 20.47V15.178C38.7145 14.674 38.8765 14.242 39.2005 13.882C39.5605 13.522 40.0105 13.342 40.5505 13.342C41.0545 13.342 41.4865 13.522 41.8465 13.882C42.2065 14.242 42.3865 14.674 42.3865 15.178V20.47L41.6845 19.714C43.3765 19.75 45.1585 20.11 47.0305 20.794C48.9385 21.478 50.5585 22.45 51.8905 23.71C52.2505 24.034 52.4665 24.394 52.5385 24.79C52.6465 25.15 52.6285 25.51 52.4845 25.87C52.3765 26.194 52.1785 26.482 51.8905 26.734C51.6385 26.95 51.2965 27.076 50.8645 27.112C50.4685 27.112 50.0365 26.95 49.5685 26.626C48.3805 25.654 47.0485 24.916 45.5725 24.412C44.1325 23.872 42.3865 23.602 40.3345 23.602C37.6345 23.602 35.4745 24.25 33.8545 25.546C32.2705 26.842 31.4785 28.552 31.4785 30.676C31.4785 32.332 31.9825 33.664 32.9905 34.672C33.9985 35.644 35.6365 36.364 37.9045 36.832L43.3585 38.02C46.8865 38.776 49.4785 39.928 51.1345 41.476C52.7905 42.988 53.6185 45.04 53.6185 47.632C53.6185 49.684 53.0965 51.484 52.0525 53.032C51.0085 54.544 49.5865 55.75 47.7865 56.65C45.9865 57.514 43.8985 58.036 41.5225 58.216L42.3865 57.298V62.752C42.3865 63.256 42.2065 63.688 41.8465 64.048C41.5225 64.408 41.0905 64.588 40.5505 64.588Z" fill="black"/>
<path d="M39.2005 64.048L38.4573 64.717L38.4748 64.7365L38.4934 64.7551L39.2005 64.048ZM38.7145 57.352L39.4012 56.625L37.7145 55.0321V57.352H38.7145ZM39.6865 58.27L39.6723 59.2699L42.2405 59.3066L40.3732 57.543L39.6865 58.27ZM32.7745 57.244L32.4632 58.1943L32.4707 58.1967L32.4781 58.1991L32.7745 57.244ZM27.4825 54.652L26.8944 55.4607L26.8956 55.4616L27.4825 54.652ZM26.6185 53.626L25.6699 53.9422L25.6865 53.992L25.7082 54.0398L26.6185 53.626ZM26.5105 52.384L25.5458 52.1209L25.5344 52.1626L25.5267 52.2051L26.5105 52.384ZM27.0505 51.358L26.3434 50.6509L26.3199 50.6744L26.298 50.6995L27.0505 51.358ZM28.0765 50.872L28.1671 51.8679L28.2115 51.8639L28.2554 51.8559L28.0765 50.872ZM29.4265 51.25L29.9983 50.4296L29.983 50.4189L29.9673 50.4088L29.4265 51.25ZM33.7465 53.41L33.4064 54.3504L33.4064 54.3504L33.7465 53.41ZM48.1645 51.25L48.9966 51.8047L48.9966 51.8047L48.1645 51.25ZM48.4345 45.202L49.2848 44.6756L49.2848 44.6756L48.4345 45.202ZM46.2205 43.258L45.7483 44.1395L45.7483 44.1395L46.2205 43.258ZM42.1705 41.908L42.3787 40.9299L42.3761 40.9293L42.1705 41.908ZM36.7705 40.774L36.5559 41.7507L36.565 41.7527L36.7705 40.774ZM29.4805 37.264L28.7579 37.9553L28.7655 37.9631L29.4805 37.264ZM28.6165 25.222L27.7706 24.6887L27.7675 24.6937L28.6165 25.222ZM32.9365 21.334L33.3907 22.2249L33.3976 22.2214L33.4044 22.2178L32.9365 21.334ZM39.3625 19.714L40.1218 20.3648L41.6231 18.6133L39.3185 18.715L39.3625 19.714ZM38.7145 20.47H37.7145V23.1733L39.4738 21.1208L38.7145 20.47ZM39.2005 13.882L38.4934 13.1749L38.4748 13.1935L38.4573 13.213L39.2005 13.882ZM41.8465 13.882L42.5537 13.1749L42.5537 13.1749L41.8465 13.882ZM42.3865 20.47L41.6538 21.1504L43.3865 23.0165V20.47H42.3865ZM41.6845 19.714L41.7058 18.7142L39.3449 18.664L40.9518 20.3944L41.6845 19.714ZM47.0305 20.794L46.6873 21.7333L46.6931 21.7353L47.0305 20.794ZM51.8905 23.71L51.2033 24.4365L51.2124 24.445L51.2216 24.4533L51.8905 23.71ZM52.5385 24.79L51.5547 24.9689L51.5647 25.0238L51.5807 25.0773L52.5385 24.79ZM52.4845 25.87L51.5561 25.4986L51.5452 25.5259L51.5359 25.5538L52.4845 25.87ZM51.8905 26.734L52.5414 27.4933L52.5491 27.4866L51.8905 26.734ZM50.8645 27.112V28.112H50.9061L50.9476 28.1085L50.8645 27.112ZM49.5685 26.626L48.9353 27.4L48.9664 27.4254L48.9993 27.4482L49.5685 26.626ZM45.5725 24.412L45.2214 25.3483L45.2353 25.3535L45.2494 25.3583L45.5725 24.412ZM33.8545 25.546L33.2298 24.7651L33.2213 24.772L33.8545 25.546ZM32.9905 34.672L32.2834 35.3791L32.2899 35.3855L32.2964 35.3918L32.9905 34.672ZM37.9045 36.832L38.1174 35.8549L38.1066 35.8526L37.9045 36.832ZM43.3585 38.02L43.1457 38.9971L43.149 38.9978L43.3585 38.02ZM51.1345 41.476L50.4516 42.2066L50.4603 42.2145L51.1345 41.476ZM52.0525 53.032L52.8755 53.6002L52.8816 53.5911L52.0525 53.032ZM47.7865 56.65L48.2193 57.5515L48.2265 57.548L48.2338 57.5444L47.7865 56.65ZM41.5225 58.216L40.7943 57.5306L39.0275 59.4079L41.5981 59.2131L41.5225 58.216ZM42.3865 57.298H43.3865V54.7764L41.6583 56.6126L42.3865 57.298ZM41.8465 64.048L41.1394 63.3409L41.1208 63.3595L41.1033 63.379L41.8465 64.048ZM40.5505 63.588C40.2579 63.588 40.0679 63.5011 39.9077 63.3409L38.4934 64.7551C39.0532 65.3149 39.7632 65.588 40.5505 65.588V63.588ZM39.9438 63.379C39.7923 63.2107 39.7145 63.02 39.7145 62.752H37.7145C37.7145 63.492 37.9608 64.1653 38.4573 64.717L39.9438 63.379ZM39.7145 62.752V57.352H37.7145V62.752H39.7145ZM38.0279 58.079L38.9999 58.997L40.3732 57.543L39.4012 56.625L38.0279 58.079ZM39.7008 57.2701C37.2622 57.2353 35.0548 56.9046 33.0709 56.2889L32.4781 58.1991C34.6703 58.8794 37.0708 59.2327 39.6723 59.2699L39.7008 57.2701ZM33.0859 56.2937C31.0742 55.6347 29.4084 54.8131 28.0695 53.8424L26.8956 55.4616C28.4367 56.5789 30.2989 57.4853 32.4632 58.1943L33.0859 56.2937ZM28.0707 53.8433C27.7965 53.6439 27.6288 53.432 27.5289 53.2122L25.7082 54.0398C25.9683 54.612 26.3766 55.0841 26.8944 55.4607L28.0707 53.8433ZM27.5672 53.3098C27.4693 53.016 27.4563 52.7728 27.4944 52.5629L25.5267 52.2051C25.4208 52.7872 25.4798 53.372 25.6699 53.9422L27.5672 53.3098ZM27.4753 52.6471C27.5464 52.3865 27.658 52.1823 27.8031 52.0165L26.298 50.6995C25.9391 51.1097 25.6907 51.5895 25.5458 52.1209L27.4753 52.6471ZM27.7577 52.0651C27.8846 51.9381 28.0102 51.8822 28.1671 51.8679L27.986 49.8761C27.3509 49.9338 26.7925 50.2019 26.3434 50.6509L27.7577 52.0651ZM28.2554 51.8559C28.304 51.847 28.4927 51.8385 28.8858 52.0912L29.9673 50.4088C29.3523 50.0135 28.6411 49.753 27.8977 49.8881L28.2554 51.8559ZM28.8548 52.0704C30.1293 52.9587 31.6513 53.7155 33.4064 54.3504L34.0867 52.4696C32.4578 51.8805 31.0998 51.1973 29.9983 50.4296L28.8548 52.0704ZM33.4064 54.3504C35.2416 55.0142 37.4714 55.328 40.0645 55.328V53.328C37.6176 53.328 35.6355 53.0298 34.0867 52.4696L33.4064 54.3504ZM40.0645 55.328C42.228 55.328 44.0778 55.0498 45.5703 54.4447L44.8188 52.5913C43.6473 53.0662 42.0771 53.328 40.0645 53.328V55.328ZM45.5703 54.4447C47.045 53.8469 48.2139 52.9787 48.9966 51.8047L47.3325 50.6953C46.8192 51.4653 46.0081 52.1091 44.8188 52.5913L45.5703 54.4447ZM48.9966 51.8047C49.7659 50.6507 50.1365 49.319 50.1365 47.848H48.1365C48.1365 48.969 47.8592 49.9053 47.3325 50.6953L48.9966 51.8047ZM50.1365 47.848C50.1365 46.6795 49.8633 45.6101 49.2848 44.6756L47.5843 45.7284C47.9418 46.3059 48.1365 47.0005 48.1365 47.848H50.1365ZM49.2848 44.6756C48.7013 43.7331 47.8124 42.9763 46.6928 42.3765L45.7483 44.1395C46.6447 44.6197 47.2318 45.1589 47.5843 45.7284L49.2848 44.6756ZM46.6928 42.3765C45.5708 41.7755 44.1208 41.3006 42.3787 40.9299L41.9624 42.8861C43.6043 43.2354 44.8543 43.6605 45.7483 44.1395L46.6928 42.3765ZM42.3761 40.9293L36.9761 39.7953L36.565 41.7527L41.965 42.8867L42.3761 40.9293ZM36.9852 39.7973C33.8134 39.1002 31.5926 37.9937 30.1956 36.5649L28.7655 37.9631C30.5365 39.7743 33.1757 41.0078 36.5559 41.7507L36.9852 39.7973ZM30.2032 36.5728C28.826 35.133 28.1045 33.2354 28.1045 30.784H26.1045C26.1045 33.6606 26.9671 36.083 28.7579 37.9552L30.2032 36.5728ZM28.1045 30.784C28.1045 28.8645 28.5655 27.1969 29.4656 25.7503L27.7675 24.6937C26.6516 26.4871 26.1045 28.5275 26.1045 30.784H28.1045ZM29.4625 25.7553C30.4053 24.2597 31.7063 23.0836 33.3907 22.2249L32.4824 20.4431C30.4948 21.4564 28.9158 22.8722 27.7706 24.6887L29.4625 25.7553ZM33.4044 22.2178C35.088 21.3265 37.0803 20.8157 39.4066 20.713L39.3185 18.715C36.7488 18.8283 34.4571 19.3975 32.4687 20.4502L33.4044 22.2178ZM38.6033 19.0632L37.9553 19.8192L39.4738 21.1208L40.1218 20.3648L38.6033 19.0632ZM39.7145 20.47V15.178H37.7145V20.47H39.7145ZM39.7145 15.178C39.7145 14.91 39.7923 14.7193 39.9438 14.551L38.4573 13.213C37.9608 13.7647 37.7145 14.438 37.7145 15.178H39.7145ZM39.9077 14.5891C40.0679 14.4289 40.2579 14.342 40.5505 14.342V12.342C39.7632 12.342 39.0532 12.6151 38.4934 13.1749L39.9077 14.5891ZM40.5505 14.342C40.7863 14.342 40.9648 14.4145 41.1394 14.5891L42.5537 13.1749C42.0083 12.6295 41.3228 12.342 40.5505 12.342V14.342ZM41.1394 14.5891C41.314 14.7637 41.3865 14.9422 41.3865 15.178H43.3865C43.3865 14.4058 43.0991 13.7203 42.5537 13.1749L41.1394 14.5891ZM41.3865 15.178V20.47H43.3865V15.178H41.3865ZM43.1193 19.7895L42.4173 19.0335L40.9518 20.3944L41.6538 21.1504L43.1193 19.7895ZM41.6633 20.7138C43.2278 20.7471 44.9007 21.0805 46.6874 21.7333L47.3737 19.8547C45.4164 19.1395 43.5253 18.7529 41.7058 18.7142L41.6633 20.7138ZM46.6931 21.7353C48.4847 22.3776 49.982 23.2811 51.2033 24.4365L52.5777 22.9835C51.1351 21.6189 49.3924 20.5784 47.368 19.8527L46.6931 21.7353ZM51.2216 24.4533C51.4515 24.6603 51.5299 24.8323 51.5547 24.9689L53.5224 24.6111C53.4032 23.9557 53.0496 23.4077 52.5595 22.9667L51.2216 24.4533ZM51.5807 25.0773C51.6216 25.2135 51.619 25.3414 51.5561 25.4986L53.413 26.2414C53.6381 25.6786 53.6715 25.0865 53.4964 24.5026L51.5807 25.0773ZM51.5359 25.5538C51.4906 25.6895 51.4027 25.8321 51.232 25.9814L52.5491 27.4866C52.9543 27.1319 53.2625 26.6985 53.4332 26.1862L51.5359 25.5538ZM51.2398 25.9747C51.19 26.0174 51.0679 26.0916 50.7815 26.1155L50.9476 28.1085C51.5252 28.0604 52.0871 27.8826 52.5413 27.4933L51.2398 25.9747ZM50.8645 26.112C50.7431 26.112 50.5086 26.0605 50.1378 25.8038L48.9993 27.4482C49.5645 27.8395 50.194 28.112 50.8645 28.112V26.112ZM50.2018 25.852C48.92 24.8033 47.4827 24.0075 45.8957 23.4656L45.2494 25.3583C46.6144 25.8245 47.8411 26.5047 48.9353 27.4L50.2018 25.852ZM45.9237 23.4757C44.3408 22.8821 42.4688 22.602 40.3345 22.602V24.602C42.3043 24.602 43.9243 24.8619 45.2214 25.3483L45.9237 23.4757ZM40.3345 22.602C37.4766 22.602 35.0745 23.2894 33.2299 24.7651L34.4792 26.3269C35.8746 25.2106 37.7925 24.602 40.3345 24.602V22.602ZM33.2213 24.772C31.3952 26.2661 30.4785 28.2652 30.4785 30.676H32.4785C32.4785 28.8388 33.1459 27.4179 34.4878 26.32L33.2213 24.772ZM30.4785 30.676C30.4785 32.5509 31.0575 34.1532 32.2834 35.3791L33.6977 33.9649C32.9076 33.1748 32.4785 32.1131 32.4785 30.676H30.4785ZM32.2964 35.3918C33.5029 36.5553 35.3578 37.3276 37.7025 37.8114L38.1066 35.8526C35.9153 35.4004 34.4942 34.7327 33.6847 33.9522L32.2964 35.3918ZM37.6917 37.8091L43.1457 38.9971L43.5714 37.0429L38.1174 35.8549L37.6917 37.8091ZM43.149 38.9978C46.5949 39.7362 48.9846 40.8352 50.4517 42.2065L51.8174 40.7455C49.9724 39.0208 47.1782 37.8158 43.5681 37.0422L43.149 38.9978ZM50.4603 42.2145C51.8757 43.5068 52.6185 45.2729 52.6185 47.632H54.6185C54.6185 44.8071 53.7054 42.4692 51.8088 40.7375L50.4603 42.2145ZM52.6185 47.632C52.6185 49.5053 52.1451 51.1063 51.2235 52.4729L52.8816 53.5911C54.048 51.8617 54.6185 49.8627 54.6185 47.632H52.6185ZM51.2296 52.4638C50.2903 53.8242 49.0033 54.9236 47.3393 55.7556L48.2338 57.5444C50.1698 56.5764 51.7268 55.2638 52.8754 53.6002L51.2296 52.4638ZM47.3538 55.7485C45.6853 56.5494 43.7225 57.0465 41.447 57.2189L41.5981 59.2131C44.0746 59.0255 46.2878 58.4786 48.2193 57.5515L47.3538 55.7485ZM42.2507 58.9014L43.1147 57.9834L41.6583 56.6126L40.7943 57.5306L42.2507 58.9014ZM41.3865 57.298V62.752H43.3865V57.298H41.3865ZM41.3865 62.752C41.3865 62.9878 41.314 63.1663 41.1394 63.3409L42.5537 64.7551C43.0991 64.2097 43.3865 63.5242 43.3865 62.752H41.3865ZM41.1033 63.379C40.9919 63.5028 40.8433 63.588 40.5505 63.588V65.588C41.3378 65.588 42.0532 65.3132 42.5898 64.717L41.1033 63.379Z" fill="black" mask="url(#path-2-outside-2_161_240)"/>
<path d="M64 36C62.3431 36 61 37.3431 61 39C61 40.6569 62.3431 42 64 42L64 36ZM64 42L101 42L101 36L64 36L64 42Z" fill="black"/>
<path d="M88 51.7279L100.728 39" stroke="black" stroke-width="6" stroke-linecap="round"/>
<path d="M88 26L100.728 38.7279" stroke="black" stroke-width="6" stroke-linecap="round"/>
</svg>
