<svg width="37" height="37" viewBox="0 0 37 37" fill="none" xmlns="http://www.w3.org/2000/svg">
<path d="M9.26984 14.117C9.26984 12.8315 9.78052 11.5986 10.6895 10.6895C11.5986 9.78052 12.8315 9.26984 14.117 9.26984H29.8671C30.5037 9.26984 31.134 9.39521 31.722 9.63881C32.3101 9.8824 32.8445 10.2394 33.2946 10.6895C33.7447 11.1396 34.1017 11.674 34.3453 12.2621C34.5889 12.8502 34.7143 13.4805 34.7143 14.117V29.8671C34.7143 30.5037 34.5889 31.134 34.3453 31.722C34.1017 32.3101 33.7447 32.8445 33.2946 33.2946C32.8445 33.7447 32.3101 34.1017 31.722 34.3453C31.134 34.5889 30.5037 34.7143 29.8671 34.7143H14.117C13.4805 34.7143 12.8502 34.5889 12.2621 34.3453C11.674 34.1017 11.1396 33.7447 10.6895 33.2946C10.2394 32.8445 9.8824 32.3101 9.63881 31.722C9.39521 31.134 9.26984 30.5037 9.26984 29.8671V14.117Z" stroke="white" stroke-width="2" stroke-linecap="round" stroke-linejoin="round"/>
<path d="M3.83927 26.9665C3.28131 26.6494 2.81722 26.1904 2.49417 25.6359C2.17112 25.0814 2.00062 24.4513 2 23.8095V5.63492C2 3.63571 3.63571 2 5.63492 2H23.8095C25.1726 2 25.9141 2.69972 26.5357 3.81746" stroke="white" stroke-width="2" stroke-linecap="round" stroke-linejoin="round"/>
</svg>
