<svg width="40" height="40" viewBox="0 0 40 40" fill="none" xmlns="http://www.w3.org/2000/svg">
<path d="M21.1176 36.8889C22.872 36.8889 24.2941 35.4711 24.2941 33.7222C24.2941 30.8074 26.6644 28.4444 29.5882 28.4444C31.3426 28.4444 32.7647 27.0267 32.7647 25.2778V18.9444C32.7647 18.3615 33.2388 17.8889 33.8235 17.8889C34.4083 17.8889 34.8824 18.3615 34.8824 18.9444V25.2778C34.8824 32.8564 28.7197 39 21.1176 39H6.29412C3.37026 39 1 36.6371 1 33.7222V6.27778C1 3.36294 3.37026 1 6.29412 1H19C19.5848 1 20.0588 1.47259 20.0588 2.05556C20.0588 2.63852 19.5848 3.11111 19 3.11111H6.29412C4.5398 3.11111 3.11765 4.52888 3.11765 6.27778V33.7222C3.11765 35.4711 4.5398 36.8889 6.29412 36.8889H21.1176ZM25.9699 35.8364C28.5027 34.6777 30.5467 32.64 31.7089 30.1151C31.0596 30.3984 30.3424 30.5556 29.5882 30.5556C27.8339 30.5556 26.4118 31.9733 26.4118 33.7222C26.4118 34.474 26.2541 35.1891 25.9699 35.8364ZM10.5294 13.6667C9.94464 13.6667 9.47059 13.1941 9.47059 12.6111C9.47059 12.0281 9.94464 11.5556 10.5294 11.5556H19C19.5848 11.5556 20.0588 12.0281 20.0588 12.6111C20.0588 13.1941 19.5848 13.6667 19 13.6667H10.5294ZM10.5294 20C9.94464 20 9.47059 19.5274 9.47059 18.9444C9.47059 18.3615 9.94464 17.8889 10.5294 17.8889H25.3529C25.9377 17.8889 26.4118 18.3615 26.4118 18.9444C26.4118 19.5274 25.9377 20 25.3529 20H10.5294ZM10.5294 26.3333C9.94464 26.3333 9.47059 25.8607 9.47059 25.2778C9.47059 24.6948 9.94464 24.2222 10.5294 24.2222H21.1176C21.7024 24.2222 22.1765 24.6948 22.1765 25.2778C22.1765 25.8607 21.7024 26.3333 21.1176 26.3333H10.5294Z" fill="black"/>
<path fill-rule="evenodd" clip-rule="evenodd" d="M26.0091 11.6524L25.0353 14.2493C24.9979 14.3493 24.99 14.4579 25.0127 14.5622C25.0353 14.6664 25.0875 14.762 25.163 14.8374C25.2385 14.9128 25.3341 14.9649 25.4384 14.9875C25.5427 15.01 25.6513 15.002 25.7512 14.9645L28.3474 13.9907C28.6446 13.8794 28.9145 13.7058 29.139 13.4815L36.6594 5.96119C36.6594 5.96119 36.3971 5.17484 35.6115 4.38849C34.8258 3.60288 34.0387 3.34052 34.0387 3.34052L26.5183 10.8609C26.294 11.0854 26.1204 11.3552 26.0091 11.6524ZM35.0875 2.29181L36.1125 1.26681C36.2963 1.08301 36.5416 0.965911 36.798 1.0089C37.159 1.06819 37.7111 1.24754 38.2314 1.76856C38.7525 2.28959 38.9318 2.84099 38.9911 3.20193C39.0341 3.45836 38.917 3.70368 38.7332 3.88748L37.7074 4.91248C37.7074 4.91248 37.4458 4.12687 36.6594 3.34126C35.8738 2.55417 35.0875 2.29181 35.0875 2.29181Z" fill="black"/>
</svg>
