<svg width="1150" height="1150" viewBox="0 0 1150 1150" fill="none" xmlns="http://www.w3.org/2000/svg">
<path fill-rule="evenodd" clip-rule="evenodd" d="M295.537 76.2649C292.632 80.694 292.451 82.9478 294.507 89.1687C297.435 98.0292 300.257 100.723 307.685 101.752C311.657 102.301 313.003 103.692 312.632 106.864C312.353 109.261 311.574 121.032 310.904 133.02C310.232 145.008 308.706 157.882 307.513 161.626C304.944 169.696 311.899 205.428 317.782 214.397C322.113 220.999 327.268 239.527 327.283 248.544C327.292 253.507 325.557 256.265 320.082 259.988C316.117 262.684 311.131 264.892 309.005 264.892C306.878 264.892 305.546 266.117 306.042 267.617C306.644 269.432 312.981 270.555 325.033 270.978L343.121 271.616L341.637 264.439C340.821 260.493 339.243 245.493 338.135 231.107C336.37 208.239 336.66 202.42 340.448 184.825C345.199 162.766 346.6 108.88 342.617 101.445C341.426 99.2237 336.76 96.2157 332.252 94.7662C321.98 91.4618 318.596 88.8156 318.596 84.09C318.596 78.983 309.514 70.8984 303.777 70.8984C301.169 70.8984 297.481 73.3005 295.537 76.2649ZM1066.63 75.1423C1057.95 81.9626 1060.45 99.8427 1070.35 101.785C1073.57 102.417 1074.52 104.047 1073.98 108.021C1073.57 110.981 1072.76 120.025 1072.16 128.116C1071.16 141.854 1069.19 145.834 1065.99 140.649C1063.89 137.255 1058.36 138.083 1056.85 142.018C1055.97 144.293 1057.37 147.022 1060.74 149.632C1065.08 152.995 1065.44 154.048 1062.83 155.741C1060.34 157.35 1060.97 158.113 1065.76 159.314C1070.92 160.606 1071.68 161.718 1070.74 166.548C1070.13 169.687 1068.03 180.769 1066.08 191.177L1062.53 210.097L1069.28 230.815C1075.07 248.616 1075.62 252.178 1073.19 256.114C1071.63 258.634 1068.14 261.254 1065.44 261.941C1062.74 262.625 1060.53 264.55 1060.53 266.217C1060.53 268.615 1065.3 269.251 1083.27 269.251H1106.01L1103.89 261.594C1102.72 257.381 1102.56 252.723 1103.52 251.241C1104.48 249.756 1105.3 235.303 1105.34 219.118C1105.42 185.15 1108.35 147.563 1111.05 145.896C1113.8 144.2 1113.31 135.882 1109.64 121.799C1105.95 107.666 1105.39 106.898 1093.93 100.479C1086.41 96.2658 1085.72 95.1106 1086.34 87.8827C1086.84 82.1043 1085.79 78.6887 1082.51 75.4126C1076.88 69.7955 1073.51 69.7367 1066.63 75.1423ZM813.672 79.4015C808.886 83.2726 808.736 84.0617 811.394 91.3986C814.169 99.0689 814.052 99.4286 806.453 106.587C799.313 113.313 798.672 114.933 798.672 126.263C798.672 133.053 800.175 142.203 802.013 146.597C803.852 150.992 804.684 156.11 803.861 157.971C802.104 161.949 799.27 197.145 797.321 239.165L795.938 269.023L819.125 269.071C842.221 269.116 846.586 267.865 837.578 263.774C833.556 261.949 832.722 259.476 832.068 247.454C831.642 239.662 832.508 224.459 833.99 213.669C835.472 202.88 836.724 184.243 836.772 172.255C836.862 149.978 838.077 145.008 843.432 145.008C850.721 145.008 857.132 139.969 858.293 133.327C858.952 129.561 860.139 123.438 860.931 119.719L862.371 112.956L843.238 108.945C832.716 106.739 825.501 104.485 827.208 103.938C828.917 103.389 831.035 101.861 831.917 100.542C834.492 96.6887 833.824 80.7267 830.968 77.8735C827.107 74.0176 819.498 74.6889 813.672 79.4015ZM627.496 86.6424C622.984 93.0747 623.149 94.3106 629.665 102.844C633.307 107.611 637.08 110.133 640.576 110.133C646.616 110.133 647.182 113.106 642.647 121.032C640.932 124.029 639.494 128.746 639.45 131.514C639.407 134.441 638.42 135.958 637.096 135.141C634.641 133.626 628.463 137.767 628.463 140.93C628.463 141.989 630.918 144.989 633.918 147.596C636.919 150.2 639.374 153.649 639.374 155.257C639.374 156.864 641.72 159.248 644.587 160.554C649.39 162.738 649.918 164.586 651.275 183.938C653.076 209.647 653.863 212.579 658.967 212.579C662.02 212.579 663.347 214.82 664.453 221.843C665.254 226.939 667.434 236.1 669.298 242.201C672.604 253.037 672.565 253.433 667.637 259.094C664.861 262.283 661.294 264.892 659.712 264.892C658.127 264.892 656.831 266.403 656.831 268.247C656.831 271.058 659.919 271.499 675.925 270.971C691.604 270.455 694.873 269.757 694.205 267.072C693.758 265.274 692.64 253.994 691.722 242.005C690.803 230.017 688.785 217.128 687.235 213.362C684.933 207.758 684.946 203.148 687.314 187.944C689.094 176.514 689.631 163.758 688.708 154.769C687.486 142.85 687.835 139.707 690.613 137.68C693.677 135.442 693.686 134.09 690.703 124.053C685.367 106.107 680.711 101.743 666.086 100.976C655.751 100.433 653.259 99.5049 651.236 95.4354C644.421 81.7207 633.724 77.758 627.496 86.6424ZM233.463 88.3644C229.863 91.9609 229.123 94.4436 230.336 98.8793C233.533 110.565 232.693 113.139 224.383 117.093C215.118 121.505 214.147 122.773 209.01 137.198C204.925 148.666 206.64 154.682 213.272 152.14C216.058 151.072 216.447 151.844 215.253 156.083C210.313 173.658 209.195 182.355 211.519 185.152C214.653 188.923 215.227 212.285 212.855 239.483C211.157 258.976 210.518 261.15 205.872 263.264C197.706 266.98 199.906 269.251 211.67 269.251C217.671 269.251 222.581 268.833 222.581 268.319C222.581 266.579 226.945 233.367 229.422 216.248C230.779 206.875 232.673 200.009 233.631 200.99C234.589 201.968 235.687 217.159 236.069 234.747C236.453 252.333 237.256 267.152 237.856 267.68C238.456 268.207 241.402 269.223 244.402 269.94L249.858 271.239V230.732C249.858 192.376 250.093 190.067 254.309 187.271C258.359 184.585 258.63 182.887 257.31 168.492C256.042 154.671 256.361 152.315 259.821 149.893C264.707 146.475 267.339 130.742 264.336 122.88C262.914 119.151 259.461 116.219 254.608 114.621C247.291 112.208 247.095 111.844 247.381 101.107C247.623 92.0176 246.838 89.5066 242.925 86.8648C238.613 83.9527 237.742 84.09 233.463 88.3644ZM56.6882 100.752C53.1139 106.38 50.1898 111.774 50.1898 112.74C50.1898 113.703 48.7604 114.493 47.0147 114.493C45.0399 114.493 43.3356 117.579 42.5042 122.666C41.7688 127.163 40.6559 133.578 40.0296 136.924C39.3553 140.538 40.2806 145.12 42.31 148.217C48.9896 158.398 46.7441 246.794 39.364 264.164C37.8562 267.713 38.1879 269.204 40.6974 270.165C45.5876 272.039 47.9923 269.764 48.1298 263.129C48.1974 259.903 50.1919 252.849 52.564 247.454L56.8781 237.646L55.8656 253.174L54.8552 268.7L64.9455 270.082C76.7838 271.701 82.3068 268.388 73.4014 265.005C70.1762 263.78 66.9597 261.28 66.257 259.452C63.2609 251.653 76.1837 202.361 82.1475 198.847C85.268 197.007 85.7896 182.074 83.1492 170.075C82.309 166.247 82.8655 161.186 84.4956 157.869C86.0274 154.749 87.8408 147.883 88.526 142.611C89.5822 134.472 88.9712 132.181 84.4934 127.475C79.8148 122.56 79.3369 120.478 80.2774 109.137C81.1612 98.4848 80.6724 95.856 77.349 93.43C69.563 87.7432 63.6079 89.8531 56.6882 100.752ZM403.962 93.4693C401.741 96.1416 394.655 108.657 387.057 123.318C385.473 126.374 383.906 134.711 383.574 141.846C383.061 152.847 383.524 154.776 386.62 154.542C389.39 154.333 390.623 156.811 391.722 164.796C392.519 170.585 392.685 176.108 392.091 177.07C391.498 178.031 390.42 185.996 389.697 194.771C388.964 203.684 386.365 215.156 383.808 220.764C381.289 226.283 378.271 237.705 377.102 246.147C375.93 254.586 374.036 263.238 372.892 265.372C371.081 268.752 371.808 269.251 378.529 269.251C386.156 269.251 389.669 264.245 383.515 262.146C381.359 261.409 381.407 259.656 383.747 253.789C385.374 249.706 388.133 242.441 389.874 237.646C391.615 232.85 394.897 225.004 397.167 220.208C399.436 215.413 402.301 208.793 403.532 205.495C404.765 202.197 407.277 199.501 409.114 199.501C412.01 199.501 412.333 204.131 411.549 234.376L410.646 269.251H421.358C432.775 269.251 435.464 266.073 426.825 262.793C418.98 259.813 418.524 257.797 421.254 238.213C425.834 205.356 427.802 197.321 431.265 197.321C433.906 197.321 434.229 195.375 432.983 186.968C432.138 181.274 430.133 172.863 428.525 168.277C426.065 161.267 426.078 158.795 428.612 152.74C430.268 148.779 432.706 144.873 434.028 144.056C437.467 141.933 437.011 136.205 433.509 137.547C427.824 139.727 424.858 132.065 424.42 114.074C424.073 99.7294 423.231 95.8277 419.975 93.4497C414.816 89.6809 407.102 89.6897 403.962 93.4693ZM566.341 94.7989C562.608 98.9185 562.592 101.935 566.245 113.549C567.415 117.267 566.11 118.754 558.778 122.056C551.708 125.241 549.48 127.66 547.865 133.898C543.525 150.671 544.253 153.542 553.772 157.226C554.099 157.352 552.888 163.728 551.081 171.394C548.236 183.476 548.214 185.645 550.924 187.672C552.644 188.96 554.928 195.826 556 202.93C558.289 218.092 556.906 262.871 554.056 265.873C550.505 269.609 551.983 271.431 558.557 271.431C562.516 271.431 565.789 269.951 566.991 267.617C568.072 265.518 569.658 249.089 570.516 231.107C572.495 189.607 572.408 190.549 574.036 192.447C576.279 195.07 580.486 227.865 580.471 242.62C580.462 250.151 581.878 259.715 583.617 263.872C586.384 270.485 587.748 271.431 594.528 271.431C603.043 271.431 603.87 270.263 599.089 264.986C592.281 257.47 589.749 188.602 596.283 188.602C598.48 188.602 597.306 171.54 594.369 160.779C593.345 157.027 593.788 156.136 596.208 157.064C597.961 157.736 600.647 156.779 602.177 154.939C604.446 152.208 604.241 148.949 601.057 137.205C597.101 122.603 597.145 122.651 583.262 117.797C581.293 117.108 581.191 115.214 582.867 110.414C584.615 105.403 584.342 102.454 581.64 97.2358C577.636 89.5022 571.958 88.5976 566.341 94.7989ZM989.766 96.1198C985.823 100.061 985.354 106.404 988.566 112.4C990.456 115.925 989.504 117.372 982.32 121.904C975.61 126.134 973.328 129.299 971.362 137.094C966.591 156.02 969.238 164.68 978.689 161.058C981.404 160.018 981.749 161.585 980.736 170.391C980.068 176.211 979.182 182.693 978.768 184.792C978.353 186.894 979.252 189.346 980.765 190.242C985.162 192.849 986.27 215.313 982.999 235.503C981.338 245.748 980.472 255.413 981.077 256.982C981.679 258.551 980.664 261.084 978.825 262.61C974.257 266.396 976.568 269.251 984.197 269.251C989.683 269.251 990.807 268.162 992.633 261.078C993.792 256.583 995.872 241.133 997.257 226.747C998.643 212.361 1000.53 199.808 1001.45 198.851C1003.23 197.012 1005.94 225.01 1005.96 245.386C1005.98 262.425 1009.56 269.212 1018.52 269.234C1025.93 269.251 1027.32 267.466 1023.15 263.303C1017.1 257.261 1017.89 190.035 1024.06 186.089C1026.24 184.69 1023.89 168.397 1020.28 159.88C1019.04 156.977 1019.65 156.467 1023.24 157.402C1030.21 159.224 1030.88 153.422 1025.53 137.6C1021.32 125.153 1019.82 123.078 1013.55 121.01C1006.65 118.734 1006.46 118.372 1008.46 111.123C1012.19 97.6434 998.909 86.989 989.766 96.1198ZM911.391 98.8619C906.892 103.829 906.722 113.124 911.053 117.45C915.647 122.039 915.149 124.316 908.936 127.144C904.559 129.136 903.189 128.959 901.648 126.206C900.529 124.212 897.613 123.122 894.556 123.56C889.915 124.223 889.343 125.454 889.16 135.2C888.911 148.426 891.861 162.446 894.894 162.446C896.358 162.446 896.603 171.056 895.612 187.75C894.665 203.671 894.905 213.573 896.258 214.452C897.441 215.221 898.966 225.429 899.647 237.14L900.889 258.429L892.917 263.841L884.946 269.251H897.454H909.962L909.995 239.281C910.014 222.763 911.018 207.843 912.234 206.04C913.766 203.769 914.372 212.089 914.222 233.286C914.104 250.07 914.078 265.029 914.167 266.527C914.254 268.027 916.79 269.251 919.799 269.251C924.676 269.251 924.984 268.789 922.623 265.01C920.491 261.601 920.727 257.852 923.828 245.916C925.949 237.746 927.064 229.448 926.304 227.473C925.547 225.498 926.47 219.345 928.356 213.795C930.241 208.248 931.784 200.015 931.784 195.501C931.784 190.987 932.973 186.107 934.429 184.653C935.882 183.201 936.785 178.051 936.434 173.209C936.085 168.366 936.829 163.163 938.09 161.646C939.349 160.129 940.656 152.195 940.992 144.012C941.51 131.409 940.982 128.77 937.525 126.721C926.972 120.461 924.074 117.056 926.874 114.211C930.863 110.161 930.21 104.202 925.237 99.2346C919.819 93.8224 916.048 93.7199 911.391 98.8619ZM143.032 107.757C140.444 112.76 140.254 115.547 142.133 120.936C144.104 126.581 143.872 128.482 140.806 131.867C138.74 134.149 136.296 142.077 135.294 149.751C134.306 157.332 131.353 170.328 128.735 178.63C124.004 193.627 123.999 193.744 128.276 197.158C130.674 199.072 133.136 204.449 133.836 209.31C134.528 214.105 136.621 228.317 138.487 240.891L141.88 263.754L136.95 267.545C132.119 271.259 132.307 271.335 146.478 271.383C160.522 271.429 160.969 271.259 162.122 265.437C163.523 258.366 162.056 238.359 159.42 228.55C157.317 220.729 162.999 188.568 168.871 175.049C173.964 163.322 173.427 139.616 167.66 121.622C161.812 103.383 160.339 101.414 152.54 101.414C147.874 101.414 145.496 103.003 143.032 107.757ZM482.389 108.649C480.534 114.259 480.552 117.511 482.459 121.692C484.624 126.435 484.301 128.148 480.294 133.238C477.025 137.39 475.688 141.931 475.917 148.106C476.1 152.997 474.009 164.746 471.275 174.216C467.053 188.847 466.765 191.796 469.372 193.834C471.491 195.49 472.233 199.806 471.775 207.806C471.332 215.511 473.032 226.052 476.864 239.355L482.618 259.329L478.073 263.004C471.467 268.349 472.331 269.251 484.041 269.251H494.552L498.253 253.449C500.289 244.758 501.941 231.264 501.926 223.462C501.911 215.663 502.969 205.855 504.278 201.665C506.812 193.57 507.748 184.653 509.548 151.547C510.513 133.803 509.967 128.813 505.74 116.672C500.977 102.99 500.534 102.482 492.833 101.839C485.466 101.227 484.669 101.746 482.389 108.649ZM740.36 110.678C736.559 115.585 735.496 120.942 737.338 125.914C738.56 129.216 737.877 133.761 735.23 139.93C733.076 144.95 731.402 152.315 731.511 156.297C731.62 160.277 729.65 170.402 727.134 178.794C724.271 188.334 723.326 194.828 724.609 196.122C725.737 197.262 726.66 203.867 726.66 210.803C726.66 217.848 729.109 231.841 732.21 242.517L737.759 261.623L733.08 265.42C729.229 268.545 728.982 269.441 731.686 270.479C733.495 271.172 738.259 271.425 742.274 271.039C749.185 270.378 749.767 269.644 753.204 257.263C755.203 250.07 756.829 236.639 756.82 227.414C756.811 218.19 757.518 209.486 758.391 208.076C759.264 206.663 760.187 194.564 760.442 181.187C760.715 166.921 762.025 154.782 763.609 151.824C765.815 147.709 765.623 143.921 762.561 131.183C760.499 122.603 757.318 113.865 755.491 111.768C751.629 107.332 743.409 106.741 740.36 110.678ZM896.142 146.462C895.342 147.26 894.687 148.927 894.687 150.168C894.687 151.532 895.704 151.404 897.268 149.841C898.689 148.422 899.344 146.754 898.724 146.135C898.104 145.516 896.941 145.662 896.142 146.462ZM501.313 156.467C500.656 158.174 500.874 160.792 501.795 162.283C503.089 164.371 503.746 164.281 504.665 161.886C505.321 160.179 505.103 157.561 504.182 156.07C502.888 153.982 502.231 154.072 501.313 156.467ZM163.051 160.99C162.187 163.185 161.543 167.108 161.618 169.709C161.751 174.192 161.866 174.162 163.883 169.12C165.05 166.199 165.696 162.276 165.316 160.401C164.747 157.601 164.345 157.705 163.051 160.99ZM473.783 180.25C473.643 182.251 472.964 185.684 472.272 187.879C471.083 191.663 471.149 191.669 473.512 187.99C474.882 185.854 475.561 182.421 475.02 180.361C474.134 176.985 474.012 176.974 473.783 180.25ZM729.015 187.694C729.12 190.233 729.637 190.749 730.333 189.012C730.964 187.438 730.885 185.557 730.161 184.834C729.436 184.11 728.921 185.396 729.015 187.694ZM1081.36 208.789C1078.77 214.238 1078.27 217.802 1079.7 220.583C1080.83 222.774 1082.36 231.364 1083.1 239.671C1084.59 256.389 1086.86 260.578 1092.08 256.25C1097.64 251.639 1095.86 229.951 1088.25 209.504L1085.07 200.977L1081.36 208.789ZM486.533 216.939C485.643 225.163 486.677 233.04 488.953 235.357C491.438 237.888 491.43 232.279 488.929 220.208C487.515 213.377 486.996 212.669 486.533 216.939ZM741.194 222.645C739.718 227.037 743.153 240.427 745.226 238.356C745.767 237.814 745.431 233.018 744.48 227.7C743.081 219.901 742.446 218.922 741.194 222.645ZM57.5524 224.496C56.8781 226.255 56.745 228.951 57.26 230.49C57.775 232.029 58.7133 230.59 59.3461 227.292C60.5812 220.856 59.5622 219.267 57.5524 224.496ZM813.017 232.741C810.277 246.031 810.353 260.637 813.177 262.978C815.621 265.003 816.129 262.185 816.129 246.631C816.129 228.127 815.005 223.109 813.017 232.741ZM680.091 247.89C681.928 257.529 683.017 258.36 683.017 250.127C683.017 246.399 682.05 242.755 680.868 242.025C679.526 241.197 679.233 243.398 680.091 247.89ZM675.925 338.475C669.051 342.732 668.366 347.677 673.553 355.587C676.988 360.823 676.929 361.643 672.462 370.828C668.322 379.337 667.742 384.222 667.742 410.507C667.742 436.921 668.22 440.888 671.759 443.916C674.042 445.869 676.907 453.09 678.395 460.638C680.532 471.487 680.442 476.245 677.904 486.568C676.156 493.683 674.932 508.265 675.107 519.917L675.417 540.625L696.673 541.248C708.365 541.592 717.932 541.283 717.932 540.564C717.932 539.842 715.097 536.869 711.63 533.957C703.859 527.427 702.115 518.791 704.83 500.3C708.677 474.113 709.159 436.232 705.808 423.653C704.103 417.256 702.696 411.874 702.683 411.693C702.667 411.512 706.093 409.337 710.294 406.863C715.872 403.576 717.932 400.849 717.932 396.762C717.932 393.682 719.546 388.499 721.521 385.244C723.494 381.99 720.963 383.985 715.896 389.68C705.568 401.285 702.657 402.42 702.657 394.85C702.657 392.002 701.336 388.573 699.719 387.235C698.105 385.896 694.978 380.798 692.767 375.904C689.332 368.293 689.204 366.728 691.885 365.073C693.878 363.842 695.019 359.467 695.019 353.057C695.019 345.092 693.937 342.102 689.867 338.81C683.665 333.793 683.491 333.79 675.925 338.475ZM132.569 340.504C127.539 341.818 125.741 349.63 128.689 357.375C130.561 362.292 130.376 364.337 127.803 367.177C119.271 376.595 117.763 385.539 120.034 413.293C121.228 427.89 124.2 448.321 126.637 458.694C130.768 476.271 130.838 478.213 127.663 487.202C123.986 497.615 119.227 536.492 121.234 539.735C122.771 542.22 158.637 542.366 160.166 539.894C160.786 538.892 157.923 536.468 153.805 534.506C144.795 530.214 143.285 525.371 144.725 505.403C146.283 483.804 148.202 476.881 152.97 475.635C156.706 474.658 157.116 472.321 157.116 451.991C157.116 439.582 156.147 426.055 154.962 421.929C153.365 416.364 153.504 414.019 155.508 412.853C177.24 400.197 179.631 391.605 163.752 383.241C158.399 380.423 152.413 378.389 150.447 378.723C146.654 379.364 139.658 374.636 139.658 371.432C139.658 370.379 141.011 369.518 142.665 369.518C147.235 369.518 150.231 364.775 151.783 355.071C153.891 341.905 147.056 336.722 132.569 340.504ZM277.621 344.576C268.973 350.624 272.598 371.698 282.285 371.698C286.858 371.698 286.858 376.872 282.287 383.841C279.465 388.143 279.02 392.15 280.177 402.837C282.147 421.059 288.03 481.358 288.039 483.407C288.043 484.305 289.99 485.042 292.368 485.042C295.325 485.042 297.086 486.936 297.946 491.036C298.636 494.332 300.676 502.696 302.481 509.621C306.513 525.103 305.298 529.382 295.552 534.001C291.367 535.984 288.517 538.532 289.215 539.661C289.913 540.79 299.38 541.714 310.251 541.714H330.015L328.566 535.72C327.767 532.425 326.353 521.879 325.424 512.288C324.492 502.698 322.576 492.708 321.162 490.09C314.714 478.128 320.158 437.974 330.866 418.513L338.336 404.938L330.519 389.567C321.249 371.342 320.37 370.512 307.735 368.04C298.332 366.203 297.905 365.775 296.353 356.692C293.737 341.387 287.731 337.502 277.621 344.576ZM545.541 342.771C540.613 344.643 539.064 347.987 539.027 356.817C539.003 362.911 540.629 366.458 545.84 371.661L552.685 378.498L548.022 381.761C544.328 384.344 543.359 387.263 543.359 395.799C543.359 403.519 542.503 406.573 540.341 406.573C537.366 406.573 534.717 400.284 534.661 393.091C534.643 391.071 533.713 387.01 532.592 384.063L530.554 378.71L515.809 381.796C507.698 383.494 500.813 385.131 500.51 385.434C500.206 385.739 501.5 392.102 503.386 399.576C506.314 411.187 507.648 413.365 512.538 414.522C515.687 415.268 519.898 417.293 521.895 419.023C523.894 420.752 527.822 421.846 530.624 421.454C535.684 420.745 535.717 420.885 535.025 440.358C534.586 452.691 535.625 466.02 537.823 476.251C539.743 485.201 540.79 495.01 540.149 498.048C539.507 501.085 539.782 506.477 540.762 510.03C541.763 513.675 541.593 520.621 540.369 525.966C538.554 533.887 537.187 535.646 532.049 536.673C528.668 537.346 525.901 539.249 525.901 540.897C525.901 545.017 569.156 545.28 570.716 541.17C571.834 538.223 567.989 518.631 561.822 495.849L557.964 481.59L563.753 463.032C566.939 452.824 569.545 440.927 569.545 436.596C569.545 432.265 571.157 422.513 573.128 414.923C575.096 407.334 576.816 396.93 576.947 391.805C577.152 383.716 576.102 381.471 568.995 374.773C561.468 367.68 560.921 366.362 562.191 358.423C564.249 345.572 556.74 338.512 545.541 342.771ZM623.555 342.684C619.942 343.627 618.242 347.629 617.251 357.53C616.727 362.78 621.897 374.148 624.171 372.744C625.059 372.195 626.877 373.058 628.208 374.66C630.045 376.872 629.578 378.527 626.272 381.513C623.876 383.679 621.903 387.997 621.886 391.108C621.847 398.514 619.638 406.573 617.644 406.573C616.775 406.573 614.814 400.932 613.286 394.04C611.759 387.147 610.146 380.889 609.701 380.135C608.837 378.668 583.211 383.475 581.204 385.48C579.74 386.942 582.345 406.974 584.418 410.182C587.076 414.296 606.264 421.521 611.145 420.246C615.8 419.03 615.854 419.304 614.355 436.223C613.491 445.986 613.856 460.983 615.2 470.874C616.505 480.465 617.812 497.722 618.106 509.219C618.676 531.391 616.651 537.355 608.557 537.355C606.303 537.355 604.459 538.826 604.459 540.625C604.459 543.323 608.459 543.894 627.372 543.894C646.254 543.894 650.285 543.321 650.285 540.633C650.285 538.842 647.214 524.907 643.461 509.671L636.637 481.969L642.213 462.253C645.279 451.409 647.736 440.077 647.673 437.071C647.609 434.065 649.281 424.525 651.384 415.871C655.823 397.63 654.981 378.725 649.593 375.715C641.325 371.092 639.463 367.297 640.775 357.732C641.899 349.554 641.399 347.858 636.96 344.754C631.778 341.127 630.357 340.907 623.555 342.684ZM824.858 342.797C818.78 345.158 816.066 350.772 817.353 358.321C818.87 367.227 825.126 374.475 829.763 372.696C834.605 370.841 836.43 375.131 833.259 380.916C831.546 384.041 830.374 396.882 830.082 415.747C829.829 432.182 828.447 449.177 827.014 453.513C824.683 460.566 824.893 461.911 828.997 466.277C831.522 468.96 833.586 473.392 833.586 476.123C833.586 479.22 835.192 481.511 837.85 482.204C841.047 483.039 842.433 485.855 843.382 493.445C844.08 499.014 845.451 508.202 846.428 513.862C847.925 522.509 847.55 524.861 844.087 528.575C841.818 531.006 838.202 532.996 836.048 532.996C830.584 532.996 828.823 535.337 831.69 538.789C833.222 540.633 838.893 541.714 847.037 541.714H859.953L858.707 524.822C858.02 515.532 856.936 502.044 856.294 494.851C855.262 483.261 855.5 482.145 858.38 485.042C860.167 486.84 863.543 493.707 865.882 500.3C868.224 506.894 871.22 515.231 872.54 518.828C873.863 522.424 875.504 529.046 876.187 533.541C877.297 540.862 878.1 541.714 883.874 541.714C891.366 541.714 891.933 538.931 886.316 529.726C884.121 526.13 881.668 516.888 880.863 509.189C880.003 500.969 877.457 491.971 874.69 487.392C868.916 477.83 868.571 467.5 872.514 422.09C874.116 403.65 874.794 385.205 874.024 381.099C871.953 370.069 865.948 365.158 854.531 365.158C845.68 365.158 844.733 364.607 842.485 358.168C840.142 351.452 831.996 340.996 829.388 341.354C828.696 341.448 826.658 342.097 824.858 342.797ZM65.9013 345.977C60.0728 351.799 63.8523 364.888 73.7746 373.241L79.4919 378.054L74.4052 383.461C70.5079 387.605 69.5325 390.689 70.2329 396.668C71.6273 408.613 67.1845 404.779 62.7437 390.205C60.603 383.187 58.4667 377.057 57.991 376.584C56.9981 375.591 30.5503 382.744 30.5503 384.006C30.5503 390.044 38.7465 411.638 41.3367 412.43C43.2047 413.001 47.1893 414.559 50.1898 415.893C53.1902 417.227 57.428 418.489 59.6102 418.694C66.7786 419.372 67.6056 422.581 64.0901 436.034C61.3319 446.584 61.0635 453.245 62.687 470.874C64.9085 494.982 64.52 515.464 61.657 525.199C59.8066 531.5 57.4258 533.613 49.2798 536.18C38.297 539.642 58.3052 543.075 83.4678 542.048C91.4196 541.723 91.6487 541.483 91.5985 533.541C91.5701 529.046 89.5734 517.029 87.1622 506.839C84.7509 496.649 82.7585 487.331 82.7324 486.132C82.7084 484.933 85.7525 475.615 89.4971 465.425C93.2417 455.235 98.7058 433.381 101.639 416.863C106.57 389.089 106.717 386.334 103.572 380.259C101.702 376.645 97.8962 372.827 95.1161 371.772C89.6804 369.705 87.2865 365.446 87.2865 357.837C87.2865 346.396 73.2661 338.621 65.9013 345.977ZM1068.45 346.592C1064.45 349.613 1062.47 363.803 1065.38 368.55C1070.04 376.166 1071.17 388.625 1068.11 398.77C1064.35 411.242 1063.99 423.518 1067.12 431.762C1068.71 435.923 1068.59 439.72 1066.71 444.901C1064.45 451.143 1064.61 452.783 1067.83 456.329C1069.89 458.605 1072.18 465.752 1072.91 472.21C1073.64 478.669 1075.57 486.601 1077.2 489.838C1078.9 493.203 1080.17 502.567 1080.17 511.696C1080.17 528.978 1076.61 537.355 1069.26 537.355C1061.62 537.355 1062.53 541.483 1070.51 542.977C1080.77 544.901 1102.23 542.669 1104.21 539.476C1106.15 536.346 1104.88 511.295 1101.57 487.555C1099.36 471.674 1099.54 467.347 1103 453.498C1105.17 444.772 1106.21 436.43 1105.3 434.959C1104.39 433.488 1103.8 423.616 1103.99 413.023C1104.38 391.81 1101.67 382.533 1092.68 374.259C1088.12 370.061 1087.37 367.774 1088.28 360.949C1089.75 349.983 1086.03 343.342 1078.46 343.431C1075.2 343.468 1070.69 344.892 1068.45 346.592ZM765.939 362.981C763.772 369.54 763.655 373.01 765.468 376.983C768.183 382.934 766.526 385.183 756.68 388.922C752.12 390.654 750.119 393.673 747.57 402.671C741.309 424.762 741.277 425.405 746.169 429.961C749.92 433.451 751.035 437.945 752.31 454.729C754.365 481.79 753.281 533.434 750.601 536.11C746.745 539.962 748.39 541.714 755.864 541.714C765.167 541.714 765.18 541.669 768.453 496.479C769.863 476.995 771.406 461.438 771.879 461.913C773.49 463.52 778.635 516.234 777.476 519.25C776.844 520.898 777.553 526.629 779.054 531.982C781.681 541.359 782.09 541.714 790.227 541.714C799.089 541.714 800.793 539.648 795.527 535.282C793.799 533.85 792.948 531.21 793.635 529.419C794.325 527.629 793.64 523.834 792.117 520.992C790.476 517.93 789.79 511.879 790.436 506.164C791.034 500.854 790.74 495.106 789.779 493.393C787.639 489.569 792.143 458.886 794.846 458.886C795.916 458.886 796.553 452.349 796.263 444.36C795.796 431.485 796.241 429.647 800.173 428.196C808.038 425.29 808.094 422.132 800.775 395.284C799.014 388.821 797.088 386.77 790.84 384.713C781.69 381.696 780.224 378.945 783.366 370.688C786.334 362.889 781.35 354.26 773.876 354.26C769.913 354.26 768.198 356.143 765.939 362.981ZM923.14 357.429C915.33 366.826 911.896 395.55 917.67 403.175C921.763 408.58 921.698 418.193 917.486 430.271C914.802 437.971 914.654 441.282 916.709 447.508C919.199 455.039 918.959 463.149 914.835 511.353C913.955 521.629 913.855 532.908 914.614 536.42C915.372 539.931 916.109 541.089 916.251 538.99C916.565 534.327 922.11 533.929 923.845 538.445C924.578 540.357 927.849 541.714 931.716 541.714C939.574 541.714 939.784 540.986 933.684 534.894C929.44 530.655 929.128 528.514 930.082 510.296C930.656 499.321 932.19 488.358 933.49 485.929C934.791 483.503 937.606 467.354 939.744 450.041C942.16 430.508 944.7 417.901 946.439 416.817C950.4 414.354 949.996 411.359 943.567 395.559C939.591 385.781 938.518 380.617 939.98 378.278C942.69 373.943 941.054 358.135 937.673 355.988C933.418 353.286 925.968 354.025 923.14 357.429ZM216.427 363.805C214.526 369.056 214.4 372.853 215.988 377.025C217.215 380.246 218.216 383.2 218.216 383.592C218.216 383.982 214.334 385.855 209.588 387.751C200.301 391.463 198.029 396.228 194.992 418.363C193.772 427.254 194.134 428.758 197.717 429.697C201.383 430.656 201.937 433.407 202.616 454.097C203.037 466.92 203.489 480.356 203.62 483.952C203.96 493.353 198.522 531.215 196.187 535.69C193.233 541.353 193.569 541.714 201.765 541.714C208.674 541.714 209.496 541.015 211.382 533.541C212.517 529.046 214.099 518.143 214.897 509.315C216.597 490.511 221.49 463.609 223.591 461.508C224.398 460.704 224.876 474.741 224.656 492.706C224.435 510.669 224.968 529.046 225.843 533.541C227.353 541.313 227.848 541.714 235.916 541.714C244.749 541.714 246.27 540.093 241.714 535.542C235.143 528.978 239.117 458.886 246.061 458.886C248.509 458.886 248.823 456.17 247.643 445.162C246.218 431.881 246.355 431.354 251.833 428.86C258.281 425.926 258.881 419.788 254.545 401.137C252.35 391.688 250.862 389.647 243.298 385.696C234.755 381.232 234.598 380.933 235.338 370.682C236.16 359.26 234.109 356.529 224.656 356.472C220.305 356.446 218.513 358.044 216.427 363.805ZM375.515 371.467C371.814 376.135 368.786 381.072 368.786 382.441C368.786 383.81 367.18 387.376 365.218 390.369C362.267 394.866 361.914 399.101 363.169 414.814C364.004 425.266 365.532 437.743 366.566 442.538C373.314 473.832 373.892 482.468 370.309 498.609C368.373 507.332 366.44 520.6 366.012 528.091L365.233 541.714H381.193C396.909 541.714 402.461 538.768 391.788 536.093C382.636 533.798 381.763 530.796 385.479 514.353C390.601 491.686 395.401 476.21 398.186 473.392C403.168 468.346 403.604 462.591 400.492 442.95C396.726 419.182 396.18 404.369 398.306 383.614C399.855 368.476 399.801 368.249 394.046 365.631C385.115 361.566 382.784 362.299 375.515 371.467ZM1000.48 368.779C996.95 372.308 996.961 377.199 1000.53 388.425C1001.74 392.228 1000.75 393.828 995.533 396.522C988.651 400.077 987.496 402.837 985.046 421.604L983.51 433.364L989.199 431.938L994.885 430.513L991.791 439.271C990.091 444.09 988.027 455.433 987.206 464.479C985.79 480.075 985.956 480.992 990.39 482.15C992.963 482.821 995.204 484.972 995.37 486.932C995.538 488.889 995.891 494.415 996.16 499.21C996.426 504.006 997.412 513.603 998.351 520.539C999.841 531.551 999.533 533.543 995.924 536.272C992.195 539.092 993.116 539.402 1005.43 539.465C1019.45 539.537 1021.49 538.526 1015.78 534.325C1012.88 532.187 1013.01 530.138 1016.86 516.694C1019.26 508.328 1020.7 499.829 1020.06 497.807C1018.32 492.32 1021.29 482.862 1024.76 482.862C1028.38 482.862 1028.58 475.251 1025.54 453.436C1022.23 429.649 1022.21 429.438 1024.53 429.843C1025.73 430.055 1028.58 430.953 1030.87 431.842C1034.74 433.344 1034.94 432.618 1033.78 421.65C1031.97 404.513 1028.93 398.323 1020.3 394.212C1013.04 390.755 1012.76 390.192 1013.95 381.543C1014.88 374.754 1014.27 371.576 1011.52 368.825C1006.92 364.236 1005.04 364.23 1000.48 368.779ZM451.693 381.524C450.058 383.492 449.445 387.788 450.165 392.222C451.138 398.22 450.224 400.908 445.356 406.355C439.381 413.04 439.339 413.299 438.903 447.427C438.416 485.312 441.692 533.057 445.227 539.657C446.475 541.987 448.832 543.894 450.462 543.894C452.825 543.894 453.362 538.048 453.113 515.013C452.805 486.66 455.206 473.283 458.49 485.064C459.321 488.05 460.098 499.441 460.218 510.381C460.524 538.196 461.905 543.894 468.347 543.894C473.296 543.894 475.358 540.919 471.893 538.783C470.994 538.229 470.911 526.646 471.71 513.043C472.508 499.441 473.276 482.917 473.414 476.323C473.606 467.062 474.169 465.203 475.886 468.149C477.11 470.249 478.799 471.962 479.639 471.96C480.48 471.96 481.167 457.168 481.167 439.092C481.167 411.656 480.597 405.806 477.717 403.676C475.819 402.272 473.597 397.756 472.781 393.638C470.095 380.1 458.438 373.406 451.693 381.524ZM158.117 395.82C157.325 397.098 157.225 398.691 157.895 399.358C159.689 401.152 165.844 398.353 165.844 395.742C165.844 392.784 159.959 392.843 158.117 395.82ZM320.931 410.387C321.055 416.944 321.457 417.698 322.96 414.202C325.566 408.144 325.566 402.213 322.96 402.213C321.76 402.213 320.848 405.893 320.931 410.387ZM1023.61 418.742C1023.71 421.281 1024.23 421.798 1024.93 420.061C1025.56 418.487 1025.48 416.606 1024.75 415.882C1024.03 415.159 1023.51 416.445 1023.61 418.742ZM692.032 486.688C689.555 491.313 685.199 514.037 685.199 522.341C685.199 529.582 691.244 536.549 694.611 533.185C696.186 531.612 696.095 527.505 694.314 519.802C691.189 506.275 691.043 495.893 693.873 488.453C696.298 482.087 695.108 480.947 692.032 486.688ZM314.576 517.738C314.576 520.735 315.072 521.962 315.676 520.462C316.283 518.965 316.283 516.513 315.676 515.013C315.072 513.516 314.576 514.741 314.576 517.738ZM130.963 522.642C131.002 528.423 134.245 534.277 135.912 531.581C137.592 528.865 135.137 517.738 132.857 517.738C131.798 517.738 130.945 519.944 130.963 522.642ZM212.809 615.77C209.616 619.295 209.213 621.967 210.59 630.483C212.599 642.933 212.73 655.316 211.262 694.082C210.26 720.459 210.544 723.685 214.186 727.323C216.403 729.537 218.216 734.256 218.216 737.812C218.216 741.367 219.715 748.688 221.551 754.083C226.037 767.283 224.394 796.563 218.943 800.546C216.885 802.05 213.915 803.279 212.344 803.279C210.773 803.279 209.488 804.297 209.488 805.541C209.488 806.984 216.78 807.575 229.673 807.176L249.858 806.549L249.434 787.027C249.201 776.29 247.911 761.008 246.571 753.069C244.616 741.484 244.76 735.869 247.307 724.637C249.439 715.241 250.17 703.119 249.533 687.755C248.208 655.866 247.276 651.639 239.667 642.981C234.153 636.708 233.208 634.138 234.336 628.502C237.182 614.283 222.19 605.416 212.809 615.77ZM637.218 617.954C635.496 621.169 635.786 624.354 638.361 630.487C641.545 638.07 641.532 638.881 638.176 640.891C627.481 647.297 624.974 650.811 622.207 663.27C618.399 680.422 619.344 684.601 626.912 684.075C632.72 683.672 632.827 683.894 632.827 696.497C632.827 703.555 634.667 719.434 636.915 731.783C639.162 744.133 641.128 757.178 641.283 760.775C641.576 767.499 644.779 785.551 647.129 793.714C648.124 797.171 647.323 798.614 643.915 799.506C641.416 800.158 639.374 801.697 639.374 802.924C639.374 805.635 646.64 806.832 656.495 805.74C664.578 804.846 664.34 806.884 659.308 781.482C656.205 765.812 654.431 729.561 656.7 728.16C657.676 727.558 660.144 735.632 662.186 746.101C664.229 756.568 666.804 769.247 667.912 774.274C669.019 779.3 669.924 786.216 669.924 789.641C669.924 793.067 671.153 798.51 672.652 801.738C674.806 806.37 676.9 807.608 682.6 807.621C687.316 807.632 689.304 806.804 688.333 805.232C687.512 803.909 686.397 797.777 685.852 791.609C685.308 785.44 683.927 774.507 682.784 767.314C679.58 747.141 676.51 708.891 677.76 704.75C678.378 702.707 677.359 695.909 675.495 689.64C671.744 677.028 671.19 672.037 674.038 676.525C676.802 680.884 684.006 678.617 684.789 673.144C685.249 669.936 687.914 667.582 692.974 665.912C697.74 664.34 700.867 661.712 701.548 658.704C702.139 656.101 703.508 649.799 704.59 644.706L706.556 635.442H698.423C693.952 635.442 684.972 636.501 678.472 637.794C662.317 641.011 654.649 638.118 654.649 628.813C654.649 625.108 653.632 620.179 652.39 617.86C649.423 612.324 640.205 612.381 637.218 617.954ZM861.326 620.729C857.42 623.65 855.98 634.103 858.625 640.346C859.962 643.507 859.076 644.161 853.459 644.161C848.558 644.161 846.679 645.178 846.679 647.831C846.679 649.852 844.798 655.491 842.5 660.364C840.203 665.238 837.652 673.462 836.829 678.639C835.491 687.07 835.823 688.178 840.028 689.276C844.017 690.318 844.493 691.517 843.21 697.302C842.378 701.042 841.283 719.796 840.774 738.978C839.273 795.615 839.116 798.447 837.405 800.173C834.28 803.327 835.797 805.459 841.167 805.459C848.685 805.459 852.338 797.191 854.166 776.033C854.996 766.442 856.429 755.162 857.352 750.966L859.033 743.337L860.608 752.143C861.474 756.986 861.887 770.058 861.522 781.192C860.933 799.284 861.322 801.768 865.186 804.6C870.378 808.401 876.472 807.527 875.294 803.15C872.861 794.089 872.516 789.911 873.919 786.423C874.773 784.305 875.822 774.234 876.252 764.044C876.684 753.854 878.061 740.233 879.316 733.777C880.568 727.318 881.594 715.755 881.594 708.078C881.594 698.056 882.925 691.532 886.31 684.943C889.86 678.035 890.938 672.342 890.67 661.925C890.471 654.311 889.764 647.201 889.096 646.122C888.428 645.043 884.505 644.161 880.374 644.161C873.204 644.161 870.522 641.506 874.936 638.781C877.598 637.138 876.108 625.178 872.737 621.119C869.551 617.285 866.092 617.165 861.326 620.729ZM1069.51 624.759C1067.94 629.256 1067.87 632.848 1069.3 635.514C1072.09 640.73 1072.05 641.063 1068.01 645.096C1062.58 650.517 1060.53 649.156 1060.53 640.139C1060.53 623.621 1046.12 619.356 1037.29 633.262C1034.63 637.458 1030.67 642.846 1028.49 645.233C1021.92 652.43 1019.41 662.583 1021.61 672.974C1022.7 678.105 1023.86 689.171 1024.18 697.563C1024.58 707.93 1026.24 715.644 1029.37 721.627C1033.49 729.518 1033.77 732.19 1032.07 747.352C1028.82 776.275 1028.9 795.17 1032.3 800.554C1036.32 806.921 1048.73 809.461 1053.34 804.859C1056.34 801.867 1056.2 801.271 1052.06 799.055C1048.1 796.938 1047.45 794.658 1047.53 783.04C1047.59 775.59 1048.6 765.08 1049.79 759.685C1050.97 754.29 1052.46 745.462 1053.09 740.068C1054.62 726.989 1056.19 719.744 1057.25 720.803C1057.73 721.281 1059.23 736.743 1060.59 755.164C1061.95 773.585 1063.94 790.948 1065 793.749C1066.55 797.808 1066.06 799.312 1062.58 801.169C1055.96 804.709 1059.64 807.638 1070.71 807.638H1080.63L1079.38 798.375C1075.22 767.458 1075.3 723.572 1079.51 727.778C1080.79 729.062 1087.98 769.007 1090.8 790.558C1092.67 804.837 1095.98 809.818 1103.58 809.818C1107.87 809.818 1108.69 809.018 1107.49 806.004C1106.66 803.907 1105.6 795.813 1105.13 788.021C1104.66 780.229 1103.33 767.968 1102.16 760.775C1100.99 753.582 1099.46 737.888 1098.77 725.899C1098.07 713.911 1096.9 698.93 1096.17 692.611C1095.03 682.831 1095.33 681.309 1098.19 682.406C1102.7 684.132 1104.05 681.405 1104.49 669.676C1105.03 655.445 1100.89 647.036 1091.88 644.065C1084.91 641.765 1084.5 641.118 1085.77 634.352C1087.84 623.314 1085.34 618.004 1078.05 618.004C1073.1 618.004 1071.4 619.349 1069.51 624.759ZM54.0435 622.518C46.1091 627.137 41.8866 653.176 44.9067 678.857C45.6967 685.577 45.2537 694.146 43.8768 698.738C41.9346 705.208 42.1419 708.699 44.922 716.352C48.7626 726.933 49.1532 743.76 45.8953 758.288C42.825 771.972 42.6046 803.113 45.5592 806.065C47.3682 807.872 48.0076 807.545 48.0076 804.805C48.0076 800.225 51.4576 799.933 53.1619 804.369C54.4428 807.704 67.6471 809.138 67.6471 805.943C67.6471 805.01 65.6831 802.568 63.2827 800.515C59.6058 797.37 58.9184 794.085 58.9184 779.649C58.9184 770.226 59.872 759.672 61.0395 756.195C62.2069 752.721 64.2974 739.577 65.6875 726.989C70.222 685.943 70.8461 682.192 72.6857 685.03C75.5858 689.507 78.5579 688.127 78.5579 682.305C78.5579 678.399 77.3795 676.856 74.3987 676.856C71.3873 676.856 70.5362 675.714 71.3218 672.719C71.9176 670.443 70.7305 666.032 68.6858 662.915C66.0214 658.852 65.4104 655.238 66.5254 650.159C69.5477 636.418 68.7512 626.381 64.3869 623.194C59.5491 619.661 59.0144 619.626 54.0435 622.518ZM311.277 627.268C305.348 636.787 300.266 661.143 302.616 668.791C303.947 673.124 304.089 682.292 302.982 692.609C301.867 702.991 302.005 711.546 303.343 715.06C306.356 722.979 306.037 735.614 302.389 752.716C298.208 772.305 296.314 801.387 298.954 805.459C300.637 808.057 301.093 807.61 301.178 803.279L301.285 797.83L305.381 802.734C308.1 805.991 311.879 807.638 316.625 807.638H323.776L317.913 801.524C310.655 793.959 310.395 786.269 316.599 762.758C325.869 727.639 327.586 719.038 328.11 705.136C328.402 697.313 329.387 689.712 330.294 688.243C331.204 686.776 331.226 684.409 330.345 682.985C327.746 678.787 327.613 663.739 330.035 648.237C331.279 640.289 331.647 631.217 330.86 628.074C329.657 623.29 328.2 622.364 321.878 622.364C316.414 622.364 313.49 623.715 311.277 627.268ZM494.378 627.329C492.213 630.627 491.423 634.895 492.231 638.927C493.4 644.767 492.687 645.706 483.827 650.004C476.189 653.712 473.852 656.166 472.757 661.644C471.109 669.866 473.298 686.081 476.32 688.053C477.68 688.943 477.477 693.485 475.757 700.645C473.113 711.655 473.357 716.675 477.444 735.165C478.869 741.617 478.644 748.237 476.704 756.962C475.173 763.855 473.516 778.077 473.025 788.566L472.131 807.638H492.34C503.456 807.638 513.057 806.819 513.677 805.818C514.297 804.816 511.34 802.348 507.106 800.332L499.41 796.666L500.835 784.17C501.618 777.297 503.593 765.788 505.223 758.595C511.693 730.056 512.697 722.2 511.423 710.018C510.146 697.838 510.375 697.06 517.24 690.202L524.385 683.066L529.731 688.827C534.781 694.265 535.064 695.942 534.831 718.961C534.695 732.369 535.691 755.038 537.043 769.337C539.302 793.222 539.193 795.565 535.701 798.113C531.019 801.535 532.934 807.638 538.689 807.638C541.345 807.638 543.387 805.637 544.256 802.189C545.008 799.192 546.451 796.74 547.461 796.74C548.474 796.74 548.832 799.192 548.258 802.189C547.328 807.039 547.948 807.638 553.868 807.638C558.664 807.638 560.919 806.387 561.944 803.159C562.728 800.696 564.513 799.066 565.911 799.536C571.653 801.47 572.844 794.242 571.144 767.791C568.347 724.241 568.639 692.561 571.877 688.664C573.084 687.21 574.282 679.79 574.537 672.174C574.969 659.211 574.4 657.398 565.597 643.722C555.267 627.671 550.18 624.613 542.35 629.737C536.976 633.256 535.821 636.922 533.517 657.784C532.153 670.132 532.031 670.317 525.199 670.284C516.872 670.243 515.176 669.173 508.651 659.846C503.905 653.058 503.827 652.413 507.298 648.581C509.529 646.118 511.126 640.366 511.348 633.986C511.711 623.65 511.589 623.44 504.761 622.78C499.392 622.261 497.02 623.301 494.378 627.329ZM757.713 634.463C749.407 640.274 747.699 646.526 745.828 677.946C744.829 694.73 743.443 714.253 742.752 721.329C741.733 731.756 742.156 734.568 744.988 736.151C749.813 738.849 749.361 745.159 743.064 762.954C737.34 779.128 736.251 790.807 739.638 799.704C741.554 804.742 742.739 805.127 756.004 805.051C769.511 804.973 774.14 803.035 767.183 800.369C762.76 798.673 760.632 781.286 763.624 771.292C772.654 741.14 773.088 740.235 777.441 742.563C779.722 743.782 782.201 744.168 782.951 743.418C783.702 742.67 784.163 732.617 783.977 721.078C783.754 707.171 784.627 698.222 786.565 694.525C789.107 689.681 788.924 687.513 785.171 678.005C782.796 671.985 779.936 665.953 778.814 664.604C776.54 661.868 778.419 655.059 781.448 655.059C785.149 655.059 783.384 642.552 778.873 636.826C773.673 630.221 765.138 629.269 757.713 634.463ZM135.731 635.878C132.185 639.42 132.438 645.255 136.475 653.052C140.193 660.234 139.124 664.273 134.022 662.317C125.365 659 114.775 681.222 118.869 694.111C120.691 699.843 123.602 698.202 127.541 689.222L130.574 682.305L130.751 690.338C130.849 694.756 129.985 700.85 128.833 703.88C127.678 706.912 126.096 718.011 125.315 728.543C123.932 747.221 124.023 747.751 129.049 749.876C133.396 751.714 134.41 754.105 135.528 765.134C136.254 772.327 137.614 782.853 138.546 788.522C139.951 797.069 139.63 799.068 136.675 800.199C129.45 802.969 133.446 805.459 145.114 805.459C151.715 805.459 157.116 804.478 157.116 803.279C157.116 802.08 156.239 801.099 155.167 801.099C151.139 801.099 151.006 794.617 154.785 782.258C157.011 774.973 158.242 765.932 157.648 761.2C156.867 754.955 157.563 752.211 160.465 750.09C163.798 747.655 164.16 744.8 163.141 728.958C162.495 718.885 160.714 707.941 159.184 704.639C155.804 697.334 157.345 695.277 163.662 698.653C166.268 700.046 168.995 700.591 169.724 699.863C170.453 699.135 169.633 691.482 167.902 682.855C165.131 669.046 163.97 666.773 158.207 663.839C154.606 662.008 151.209 660.221 150.654 659.868C150.102 659.514 149.81 655.196 150.006 650.27C150.205 645.344 149.395 639.5 148.208 637.288C145.751 632.702 139.604 632.009 135.731 635.878ZM951.86 635.878C947.914 639.819 948.704 647.249 953.747 653.653C958.458 659.639 957.839 663.778 952.228 663.778C949.913 663.778 949.138 661.991 949.629 657.784C950.171 653.161 949.335 651.648 945.968 651.166C941.9 650.584 941.603 651.787 941.603 668.809C941.603 681.207 942.579 688.252 944.641 690.734C947.251 693.882 947.142 695.578 943.858 702.851C939.41 712.706 939.646 716.274 947.982 765.006L953.924 799.75L948.855 803.645L943.786 807.542L954.43 807.59L965.075 807.638L963.733 772.218C962.485 739.27 962.62 737.393 965.649 745.338C967.44 750.035 969.775 765.542 970.838 779.795C971.903 794.05 973.125 806.008 973.555 806.37C973.985 806.729 976.832 807.621 979.885 808.349L985.434 809.674L984.771 783.045C984.407 768.399 983.056 743.289 981.771 727.247C979.986 704.983 980.066 694.891 982.113 684.605C985.399 668.087 983.573 655.985 977.555 654.414C975.113 653.775 973.245 651.436 973.245 649.017C973.245 638.179 958.579 629.166 951.86 635.878ZM398.256 639.766C397.455 642.284 397.459 648.239 398.264 653.001C399.681 661.363 399.465 661.766 391.934 664.909C386.697 667.095 383.766 669.949 383.009 673.6C382.387 676.59 381.342 681.734 380.685 685.03C380.026 688.326 379.068 692.496 378.551 694.294C378.036 696.092 378.448 698.891 379.469 700.512C380.962 702.888 382.291 702.945 386.295 700.805C390.775 698.409 391.096 698.549 389.531 702.215C388.576 704.451 387.343 715.11 386.791 725.899C385.83 744.68 386.031 745.778 391.471 751.624C394.596 754.981 397.154 760.263 397.154 763.36C397.154 766.457 398.33 775.368 399.768 783.162L402.382 797.335L395.949 802.475L389.516 807.617L400.442 807.627L411.371 807.638L411.702 797.285C411.883 791.589 412.859 779.084 413.867 769.494C415.56 753.405 416.104 751.999 420.896 751.321C425.987 750.602 426.061 750.271 424.625 734.453C423.82 725.577 421.729 714.258 419.977 709.299C415.947 697.888 415.922 698.034 421.391 700.957C428.202 704.597 431.034 700.722 427.975 691.955C426.626 688.088 425.507 681.883 425.489 678.166C425.445 669.691 423.676 666.984 416.793 664.868C409.321 662.57 407.894 659.571 411.15 653.008C415.189 644.867 412.462 636.684 405.437 635.86C401.195 635.363 399.334 636.375 398.256 639.766ZM510.626 683.395C510.626 684.594 511.608 685.575 512.808 685.575C514.009 685.575 514.991 684.594 514.991 683.395C514.991 682.196 514.009 681.216 512.808 681.216C511.608 681.216 510.626 682.196 510.626 683.395ZM549.56 743.35C548.936 745.741 549.399 755.543 550.588 765.134C551.775 774.725 552.764 786.282 552.786 790.813C552.812 796.433 553.534 798.346 555.055 796.827C556.284 795.6 557.623 786.005 558.034 775.505C558.627 760.367 557.944 754.613 554.736 747.71C551.389 740.501 550.496 739.752 549.56 743.35ZM749.368 861.08C748.609 864.101 748.454 868.999 749.021 871.966C749.621 875.105 748.753 878.439 746.941 879.941C738.743 886.738 737.198 894.539 737.796 926.125C738.304 952.89 739.053 958.48 743.489 968.581C750.618 984.822 750.518 997.889 742.852 1051.99C741.538 1061.25 741.826 1062.13 746.592 1063.4C753.069 1065.14 769.858 1065.19 776.152 1063.51C778.77 1062.81 780.935 1060.61 780.964 1058.64C781.378 1030.22 786.761 998.53 792.933 988.196L798.344 979.131L801.838 991.137C803.761 997.739 806.296 1010.89 807.475 1020.37C809.903 1039.93 812.895 1055.8 814.438 1057.34C816.956 1059.86 838.616 1059.28 839.535 1056.67C840.063 1055.17 839.094 1053.94 837.379 1053.94C831.363 1053.94 827.537 1046.14 824.026 1026.7C820.183 1005.41 819.265 969.952 822.505 967.951C823.61 967.269 825.172 960.577 825.977 953.081C827.204 941.64 826.497 936.542 821.576 921.364C816.38 905.33 814.872 902.876 808.284 899.737C800.638 896.097 799.233 893.905 803.036 891.557C806.187 889.613 805.72 874.549 802.368 869.969C798.951 865.302 790.29 865.998 787.026 871.203C785.402 873.79 785.629 877.478 787.824 884.122C790.139 891.128 790.26 893.632 788.309 894.282C786.886 894.755 782.279 897.477 778.07 900.33L770.415 905.518L765.97 895.476C763.524 889.953 761.78 885.34 762.094 885.225C769.522 882.524 771.355 879.429 770.786 870.547C770.099 859.855 766.123 855.592 756.835 855.592C752.15 855.592 750.431 856.856 749.368 861.08ZM1037.39 864.33C1031.12 866.769 1028.95 880.332 1033.41 889.26C1036.63 895.703 1036.54 896.021 1029.89 901.44C1023.6 906.571 1023.11 907.911 1023.68 918.614C1024.38 931.812 1022.1 934.595 1007.11 938.865C994.39 942.488 991.518 945.11 996.378 948.659C1000.01 951.309 999.946 951.499 995.483 951.499C992.854 951.499 990.702 952.449 990.702 953.611C990.702 954.771 992.175 955.156 993.975 954.468C998.226 952.837 998.447 951.627 989.524 979.013C981.613 1003.28 978.187 1008.48 971.294 1006.68C969.131 1006.12 962.871 1007.77 957.381 1010.34C945.492 1015.93 939.836 1026.55 942.961 1037.44C949.206 1059.18 980.773 1063.62 990.658 1044.14C992.483 1040.54 994.711 1037.27 995.608 1036.87C998.353 1035.65 994.798 1024.93 989.131 1017.33C986.183 1013.37 984.315 1008.72 984.98 1006.99C985.96 1004.44 987.647 1004.83 993.892 1009.06C998.13 1011.94 1006.92 1016.49 1013.42 1019.18C1021.29 1022.44 1024.86 1025.06 1024.1 1027.02C1023.48 1028.64 1023.67 1031.69 1024.53 1033.78C1025.96 1037.29 1026.24 1037.25 1028.03 1033.24C1029.41 1030.14 1029.59 1031.08 1028.67 1036.51C1027.96 1040.7 1026.21 1046.1 1024.79 1048.5C1023.37 1050.89 1022.55 1055.07 1022.97 1057.77C1023.65 1062.1 1024.91 1062.64 1033.59 1062.31C1044.52 1061.9 1048.02 1058.46 1050.75 1045.4C1052.14 1038.78 1052.56 1038.42 1054.54 1042.14C1055.76 1044.43 1058.83 1048.6 1061.36 1051.38C1065.68 1056.14 1065.72 1056.58 1062.11 1058.6C1059.99 1059.78 1058.83 1061.67 1059.52 1062.8C1061.35 1065.76 1078.83 1065.31 1081.91 1062.23C1083.35 1060.79 1087.63 1058.59 1091.42 1057.33C1101.21 1054.07 1107.01 1045.23 1107.54 1032.77C1108.11 1019.06 1107.65 1018.15 1095.96 1010.42C1088.14 1005.25 1087 1003.81 1090.71 1003.81C1093.31 1003.81 1095.45 1002.73 1095.45 1001.4C1095.45 999.908 1092.14 999.311 1086.72 999.825C1076.71 1000.78 1076.72 1000.8 1081.44 983.017C1083.94 973.597 1084.5 965.423 1083.48 953.271C1082.22 938.19 1082.53 936.067 1086.58 932.019C1092.4 926.203 1092.4 915.673 1086.57 897.159C1079.93 876.066 1077.52 872.029 1071.1 871.277C1063.64 870.401 1059.09 875.299 1057.25 886.175C1055.02 899.365 1050.71 895.799 1050.71 880.765C1050.71 866.61 1046.11 860.941 1037.39 864.33ZM55.7696 869.156C53.9016 871.82 52.3719 875.774 52.3719 877.943C52.3719 880.111 50.8575 882.465 49.0048 883.176C47.1544 883.884 43.8048 888.059 41.5615 892.448C35.9599 903.419 34.775 957.292 39.8812 968.936C45.8582 982.564 46.2488 994.847 41.6117 1023.43C39.1829 1038.41 36.5927 1053.23 35.8595 1056.36C34.6746 1061.41 35.3074 1062.2 41.5397 1063.44C51.3638 1065.41 68.1817 1065.13 71.623 1062.95C75.2846 1060.63 78.4117 1047.31 78.5993 1033.24C78.6801 1027.24 81.4973 1014 84.86 1003.81L90.9766 985.284L93.4708 994.147C94.8434 999.021 95.9192 1015.53 95.8624 1030.82C95.7926 1049.16 96.6349 1059.69 98.3348 1061.74C100.829 1064.74 120.019 1066.32 120.019 1063.52C120.019 1062.8 117.811 1060.47 115.109 1058.35C110.239 1054.52 110.21 1054.18 111.694 1015.53C112.94 983.085 113.937 974.924 117.647 966.757C123.122 954.71 123.207 950.679 118.411 930.088C115.428 917.284 113.333 912.859 108.591 909.356C102.01 904.498 100.851 898.957 105.593 895.027C109.521 891.771 111.142 883.122 108.656 878.686C106.324 874.523 97.4751 874.093 94.2389 877.988C92.9689 879.518 91.6225 885.591 91.245 891.485C90.5903 901.712 90.2128 902.288 82.9222 904.134C78.7215 905.195 74.307 907.015 73.109 908.177C71.6841 909.559 69.7398 907.443 67.4703 902.033C64.1491 894.122 64.1905 893.687 68.4588 891.561C74.8962 888.355 77.6392 873.677 72.7992 868.337C67.8566 862.881 59.9004 863.264 55.7696 869.156ZM171.431 868.526C168.085 872.219 167.928 874.043 170.159 883.239C175.221 904.09 175.191 905.093 169.072 918.01C163.005 930.82 161.524 939.992 165.118 942.484C168.747 944.999 172.162 960.998 173.467 981.616C174.254 994.064 176.454 1006.24 179.149 1013.07C182.977 1022.76 183.223 1025.57 181.05 1034.62C179.675 1040.34 179.116 1045.93 179.806 1047.05C181.772 1050.22 172.559 1060.48 167.739 1060.48C165.356 1060.48 164.011 1061.46 164.753 1062.66C165.495 1063.86 174.486 1064.84 184.731 1064.84H203.36L202.079 1033.78C200.279 990.101 200.246 990.814 204.789 976.487C207.576 967.694 208.329 961.606 207.142 957.465C206.132 953.947 206.358 948.611 207.683 944.818C208.94 941.211 209.599 931.67 209.143 923.618C208.453 911.412 207.059 907.046 200.763 897.338C195.699 889.532 193.425 883.66 193.861 879.512C195.162 867.122 179.605 859.502 171.431 868.526ZM572.034 872.188C567.57 875.312 567.179 876.848 568.464 886.182C569.782 895.753 569.429 896.98 564.434 900.25C556.676 905.328 554.592 913.206 556.936 928.612C558.029 935.805 558.902 944.633 558.876 948.229C558.767 962.942 556.572 999.337 554.931 1013.62C553.966 1022.01 553.178 1036.73 553.178 1046.32V1063.75L575.441 1064.26C588.25 1064.55 598.264 1063.86 599.028 1062.63C599.757 1061.45 598.943 1060.48 597.217 1060.48C595.493 1060.48 592.874 1059.03 591.395 1057.25C588.361 1053.6 587.783 1030.81 590.262 1012.53C591.157 1005.94 592.152 988.12 592.475 972.934C592.798 957.75 593.642 944.391 594.351 943.246C595.061 942.1 598.36 940.572 601.686 939.851C611.558 937.708 613.472 935.297 616.389 921.327C619.584 906.035 621.083 907.438 597.223 903.391C582.398 900.877 582.365 900.853 586.858 896.673C591.971 891.914 592.922 880.199 588.639 874.756C584.396 869.365 577.577 868.31 572.034 872.188ZM328.54 875.695C324.442 881.537 324.416 884.621 328.363 895.687C331.141 903.471 331.047 904.467 327.248 907.676C324.309 910.156 322.923 914.605 322.487 922.967C321.887 934.406 321.607 934.876 313.14 938.721C308.34 940.901 302.26 942.706 299.631 942.732C297.001 942.758 294.062 944.007 293.099 945.505C290.808 949.068 290.614 958.058 292.855 956.673C296.851 954.206 293.767 965.885 284.726 987.464C283.723 989.862 281.848 995.747 280.563 1000.54C278.518 1008.18 277.41 1009.29 271.679 1009.48C250.329 1010.18 236.045 1022.33 238.537 1037.68C242.829 1064.1 274.376 1069.05 287.688 1045.4C293.411 1035.22 292.731 1026.37 285.739 1020.05C281.949 1016.62 279.74 1008.17 282.634 1008.17C283.258 1008.17 287.788 1010.71 292.7 1013.8C297.614 1016.9 306.044 1021.32 311.432 1023.63C318.535 1026.67 320.874 1028.75 319.938 1031.19C319.226 1033.04 320.08 1036.74 321.832 1039.42C324.691 1043.77 324.575 1045.01 320.717 1051.34C318.349 1055.23 316.414 1059.37 316.414 1060.54C316.414 1061.71 321.78 1062.66 328.339 1062.66C341.028 1062.66 343.108 1060.98 346.995 1047.53C348.502 1042.32 348.721 1042.24 350.301 1046.32C351.23 1048.71 353.506 1052.43 355.357 1054.58C358.438 1058.16 358.318 1058.6 353.934 1059.74C344.247 1062.27 349.569 1064.84 364.491 1064.84C383.212 1064.84 393.464 1060.87 399.299 1051.35C407.768 1037.54 401.625 1015.63 388.08 1011.33C385.87 1010.63 384.061 1009.04 384.061 1007.79C384.061 1006.55 385.534 1006.09 387.334 1006.78C389.134 1007.47 390.607 1007.08 390.607 1005.92C390.607 1004.76 387.127 1003.81 382.874 1003.81H375.14L376.288 989.576C376.919 981.744 378.372 973.588 379.517 971.45C381.756 967.273 379.843 955.56 375.642 947.719C373.815 944.308 373.704 940.293 375.249 933.603C378.852 917.995 377.852 911.094 369.733 895.552C360.572 878.017 354.706 872.258 347.782 873.993C345.079 874.671 342.257 874.241 341.513 873.038C339.152 869.222 332.06 870.673 328.54 875.695ZM463.581 889.652C457.639 895.587 455.922 898.883 456.69 902.887C457.475 906.998 456.522 908.67 452.526 910.187C447.952 911.924 447.343 913.541 447.343 923.932C447.343 931.895 448.437 936.611 450.717 938.503C452.572 940.04 453.547 942.708 452.884 944.432C452.223 946.154 450.604 954.5 449.288 962.977C446.612 980.203 448.943 1006.95 455.832 1038.03C459.817 1056 459.125 1060.48 452.362 1060.48C450.802 1060.48 449.526 1061.28 449.526 1062.26C449.526 1063.23 455.734 1064.09 463.321 1064.16L477.117 1064.29L479.757 1052.03C483.759 1033.45 489.555 988.981 489.736 975.476C489.824 968.882 489.082 959.365 488.084 954.326C486.295 945.274 486.367 945.125 494.116 941.891C498.43 940.09 502.511 937.18 503.185 935.426C504.486 932.043 499.883 923.461 491.936 914.444C489.239 911.386 486.485 904.467 485.658 898.674C484.661 891.697 482.653 887.285 479.463 885.051C473.014 880.541 472.574 880.669 463.581 889.652ZM671.447 894.349C666.865 899.406 666.671 906.484 671.015 910.084C672.815 911.578 674.288 913.633 674.288 914.655C674.288 917.471 661.204 923.634 657.907 922.367C656.314 921.757 654.468 922.668 653.807 924.39C653.145 926.112 650.291 927.522 647.468 927.522C643.579 927.522 641.168 925.196 637.552 917.964C634.922 912.707 633.379 906.821 634.124 904.886C635.023 902.545 634.3 901.366 631.97 901.366C630.041 901.366 628.384 899.648 628.291 897.551C628.197 895.454 627.653 894.87 627.086 896.256C625.679 899.694 632.406 925.281 636.312 931.337C638.75 935.118 641.534 936.241 648.465 936.241H657.453L655.64 949.864C653.305 967.4 652.689 1006.43 654.704 1009.26C655.557 1010.46 656.914 1021.4 657.719 1033.56L659.184 1055.68L652.552 1058.62C642.926 1062.87 644.412 1065.18 656.286 1064.42L666.651 1063.75L667.831 1031.06C668.479 1013.08 669.365 998.853 669.8 999.452C670.234 1000.05 671.175 1014.76 671.892 1032.15L673.197 1063.75L679.198 1064.44C686.066 1065.23 686.899 1063.3 681.42 1059.29C677.952 1056.76 677.902 1055.65 680.807 1045.97C682.548 1040.17 683.763 1029.88 683.504 1023.12C683.15 1013.89 683.849 1010.5 686.299 1009.56C688.732 1008.63 689.564 1004.71 689.564 994.199C689.564 986.372 690.622 979.438 691.942 978.623C693.347 977.758 693.775 974.255 692.99 970.07C691.41 961.656 693.223 955.858 697.435 955.858C699.743 955.858 700.474 952.19 700.474 940.6C700.474 924.891 698.798 921.371 688.488 915.427C684.793 913.295 684.763 912.776 688.047 907.77C695.401 896.559 680.418 884.449 671.447 894.349ZM871.336 899.731C863.386 908.45 861.416 914.126 863.886 921.199C865.123 924.745 865.658 928.887 865.075 930.406C864.49 931.923 865.522 937.438 867.366 942.66C869.998 950.11 870.41 957.245 869.282 975.803C868.006 996.804 868.243 999.452 871.405 999.452C876.278 999.452 877.928 1007.63 876.392 1024.18C874.991 1039.28 879.076 1057.86 884.845 1062.65C886.626 1064.12 890.355 1064.76 893.131 1064.07C897.203 1063.04 898.178 1061.33 898.178 1055.17C898.178 1050.51 901.762 1040.49 907.357 1029.49C912.404 1019.56 916.653 1008.5 916.801 1004.9C917.154 996.298 913.107 974.44 909.131 963.487C906.335 955.78 906.353 954.339 909.299 951.059C912.136 947.9 912.236 945.712 909.984 936.33C908.528 930.271 905.809 924.457 903.944 923.416C902.078 922.371 900.177 917.888 899.721 913.45C898.126 897.909 880.684 889.48 871.336 899.731ZM774.059 934.606C775.567 946.642 779.032 950.49 779.032 940.125C779.032 931.302 777.263 925.342 774.642 925.342C773.684 925.342 773.422 929.512 774.059 934.606ZM72.2623 934.061C72.3627 938.257 73.2334 944.142 74.1936 947.139C75.6425 951.658 75.972 950.912 76.1248 942.78C76.2251 937.385 75.3567 931.5 74.1936 929.702C72.618 927.267 72.1249 928.381 72.2623 934.061ZM812.74 940.6C814.346 955.701 817.002 961.231 819.254 954.149C820.952 948.805 817.41 932.232 813.855 928.893C811.824 926.986 811.573 929.619 812.74 940.6ZM487.713 934.061C486.972 935.26 487.406 936.241 488.676 936.241C489.946 936.241 490.987 935.26 490.987 934.061C490.987 932.862 490.555 931.881 490.024 931.881C489.494 931.881 488.455 932.862 487.713 934.061ZM109.141 947.684C109.123 954.609 110.084 960.218 111.29 960.218C114.084 960.218 114.084 942.739 111.29 938.421C109.789 936.099 109.165 938.789 109.141 947.684ZM1016 942.194C1012.52 942.712 1007.87 945.263 1005.67 947.861C1001.87 952.366 988.433 989.99 988.601 995.664C988.734 1000.24 1017.59 1016.92 1020.44 1014.07C1021.18 1013.33 1019.15 1008.24 1015.93 1002.76C1009.41 991.634 1009.55 990.23 1019.34 970.347C1022.79 963.33 1025.62 956.22 1025.62 954.544C1025.62 952.87 1026.49 951.499 1027.54 951.499C1028.6 951.499 1029.94 949.047 1030.52 946.05C1031.63 940.243 1030.74 940.007 1016 942.194ZM319.048 948.377C316.361 950.256 311.971 951.479 309.289 951.096C305.813 950.596 303.222 952.277 300.272 956.942C296.36 963.13 285.966 993.303 285.896 998.681C285.855 1001.91 304.693 1013.93 313.027 1015.99L319.462 1017.58L314.546 1010.15C304.412 994.831 304.407 994.762 312.913 977.514C317.239 968.745 320.778 960.253 320.778 958.646C320.778 957.037 322.251 955.156 324.051 954.468C327.375 953.192 328.739 944.96 325.629 944.96C324.695 944.96 321.734 946.496 319.048 948.377ZM772.658 963.668C772.763 966.207 773.28 966.724 773.976 964.987C774.607 963.413 774.528 961.532 773.804 960.808C773.079 960.085 772.564 961.371 772.658 963.668ZM770.367 980.735C768.962 984.99 768.42 989.454 769.167 990.659C769.913 991.865 769.075 998.995 767.305 1006.51C762.854 1025.39 760.966 1051.13 763.899 1052.94C768.052 1055.51 769.208 1051.71 769.448 1034.69C769.579 1025.5 770.871 1008.32 772.32 996.508C775.142 973.54 774.487 968.265 770.367 980.735ZM66.9684 984.251C66.1741 987.218 65.5107 992.896 65.4955 996.872C65.478 1000.85 64.3564 1006.17 63.0012 1008.7C59.5185 1015.2 56.8934 1049.98 59.6189 1053.5C63.1998 1058.13 65.3929 1052.27 65.4322 1037.97C65.4496 1030.98 66.5494 1016.08 67.874 1004.86C70.2526 984.715 69.7725 973.778 66.9684 984.251ZM1036.53 981.755C1036.53 983.211 1034.1 986.651 1031.13 989.4L1025.73 994.398L1030.82 1001.3L1035.92 1008.2L1037.16 994.583C1037.83 987.096 1037.97 980.55 1037.46 980.04C1036.95 979.528 1036.53 980.299 1036.53 981.755ZM330.257 988.105C329.563 990.749 327.639 992.913 325.978 992.913C321.893 992.913 322.183 995.891 327.045 1003.87L331.128 1010.58L332.226 997.935C333.373 984.704 332.407 979.887 330.257 988.105ZM466.647 1003.81C466.106 1010.41 466.697 1019.23 467.961 1023.43C470.252 1031.04 470.258 1031.04 470.906 1018.69C471.262 1011.88 470.673 1003.05 469.595 999.069C467.694 992.052 467.6 992.2 466.647 1003.81ZM351.328 998.362C351.328 1000.16 349.98 1001.63 348.332 1001.63C346.316 1001.63 344.969 1005.37 344.21 1013.08C342.833 1027.09 343.966 1029.43 348.989 1022.96C353.238 1017.48 356.788 995.093 353.408 995.093C352.264 995.093 351.328 996.564 351.328 998.362ZM1052.35 998.716C1050.59 999.424 1049.67 1004.21 1049.76 1012.17C1049.86 1021.38 1050.38 1023.33 1051.79 1019.84C1052.83 1017.26 1054.73 1014.51 1056.01 1013.71C1058.63 1012.1 1059.27 997.177 1056.71 997.445C1055.81 997.539 1053.85 998.112 1052.35 998.716ZM891.71 1004.31C890.979 1007.03 890.368 1013.66 890.353 1019.03L890.323 1028.8L895.902 1020.6C901.596 1012.23 901.613 1006.47 895.959 1001.78C893.692 999.904 892.74 1000.47 891.71 1004.31ZM1081.42 1019.9C1082.22 1023.64 1084.2 1027.46 1085.81 1028.4C1087.98 1029.66 1088.2 1031.53 1086.64 1035.62C1085.48 1038.66 1084.54 1044.05 1084.54 1047.6V1054.06L1091.18 1050.63C1098.49 1046.85 1102.87 1038.13 1101.07 1030.95C1099.2 1023.51 1091.64 1015.32 1085.56 1014.17C1080.28 1013.16 1080.03 1013.49 1081.42 1019.9ZM955.211 1017.43C948.643 1022.42 946.642 1031.7 950.422 1039.66C956.366 1052.17 970.899 1055.45 981.201 1046.59C985.893 1042.56 987.167 1039.63 986.988 1033.29C986.704 1023.3 983.527 1019.43 978.816 1023.33C975.357 1026.2 976.348 1031 979.942 1028.78C981.059 1028.1 981.973 1028.54 981.973 1029.76C981.973 1032.71 974.683 1036.51 969.025 1036.51C962.936 1036.51 963.342 1032.61 969.972 1027.4C972.972 1025.04 975.427 1021.22 975.427 1018.91C975.427 1015.5 973.869 1014.71 967.115 1014.71C962.544 1014.71 957.188 1015.94 955.211 1017.43ZM254.222 1019.41C245.256 1024.31 241.912 1034.03 245.757 1044.04C247.691 1049.07 258.17 1053.94 267.049 1053.94C280.351 1053.94 288.556 1037.18 280.449 1026.57C277.652 1022.91 276.923 1022.78 275.027 1025.61C273.822 1027.41 272.792 1030.35 272.736 1032.15C272.618 1035.91 261.86 1044.51 261.86 1040.84C261.86 1039.52 260.779 1039.1 259.459 1039.91C257.79 1040.94 257.82 1039.97 259.56 1036.73C260.937 1034.16 261.336 1030.85 260.45 1029.38C259.184 1027.27 259.538 1027.26 262.115 1029.34C264.764 1031.49 266.117 1031.14 269.205 1027.54C276.183 1019.4 265.174 1013.42 254.222 1019.41ZM379.696 1025.43C379.696 1028.92 380.82 1032.16 382.193 1032.62C384.061 1033.24 384.048 1035.39 382.136 1041.17C380.6 1045.83 380.307 1050.86 381.403 1053.81L383.223 1058.73L390.188 1052.87C399.148 1045.34 399.63 1035.42 391.504 1025.78C384.277 1017.2 379.696 1017.06 379.696 1025.43ZM359.101 1024.7C357.205 1026.59 356.16 1028.96 356.777 1029.96C357.397 1030.96 356.668 1032.27 355.16 1032.88C353.652 1033.49 355.121 1034.06 358.42 1034.16C363.671 1034.31 364.421 1033.51 364.421 1027.79C364.421 1020.29 363.85 1019.95 359.101 1024.7ZM569.392 1024.7C568.473 1036.62 568.272 1055.6 569.041 1057.76C569.575 1059.26 570.804 1060.48 571.773 1060.48C573.614 1060.48 572.534 1025.69 570.633 1023.79C570.036 1023.19 569.475 1023.6 569.392 1024.7ZM1060.7 1026.88C1060.81 1029.42 1061.33 1029.94 1062.02 1028.2C1062.65 1026.62 1062.57 1024.74 1061.85 1024.02C1061.12 1023.3 1060.61 1024.58 1060.7 1026.88ZM322.96 1036.25C322.96 1037.45 323.942 1039.04 325.142 1039.78C326.343 1040.52 327.324 1040.14 327.324 1038.94C327.324 1037.75 326.343 1036.16 325.142 1035.42C323.942 1034.68 322.96 1035.05 322.96 1036.25ZM1060.53 1039.33C1060.53 1041.08 1062.1 1043.81 1064.01 1045.4C1067.06 1047.92 1067.4 1047.63 1066.74 1043.11C1065.92 1037.46 1060.53 1034.18 1060.53 1039.33ZM355.693 1042.56C355.693 1044.69 357.657 1048.12 360.057 1050.17C364.238 1053.75 364.421 1053.69 364.421 1048.91C364.421 1043.97 360.812 1038.69 357.438 1038.69C356.478 1038.69 355.693 1040.43 355.693 1042.56Z" fill="black"/>
</svg>
