<svg width="180" height="180" viewBox="0 0 180 180" fill="none" xmlns="http://www.w3.org/2000/svg">
<rect width="180" height="180" fill="black"/>
<path d="M33.75 61.875C33.75 46.342 46.342 33.75 61.875 33.75H118.125C123.113 33.75 127.798 35.0487 131.861 37.3264L110.124 59.0625H69.75C63.8475 59.0625 59.0625 63.8475 59.0625 69.75V110.124L37.3264 131.861C35.0487 127.798 33.75 123.113 33.75 118.125V61.875Z" fill="white"/>
<path d="M69.7278 120.937L48.0449 142.62C52.1288 144.931 56.8479 146.25 61.875 146.25H118.125C133.658 146.25 146.25 133.658 146.25 118.125V61.875C146.25 56.8479 144.931 52.1288 142.62 48.0449L120.937 69.7278C120.937 69.7352 120.938 69.7426 120.938 69.75V110.25C120.938 116.153 116.153 120.938 110.25 120.938H69.75C69.7426 120.938 69.7352 120.937 69.7278 120.937Z" fill="white"/>
</svg>
