<svg width="1030" height="451" viewBox="0 0 1030 451" fill="none" xmlns="http://www.w3.org/2000/svg">
<path d="M233.629 196.912H120.693L202.913 0L0 252.55H112.626L30.0957 451L233.629 196.912Z" fill="black"/>
<path d="M296.8 224C295.333 224 294.133 223.533 293.2 222.6C292.267 221.667 291.8 220.467 291.8 219V89C291.8 87.5333 292.267 86.3333 293.2 85.4C294.133 84.4667 295.333 84 296.8 84H386C387.467 84 388.667 84.4667 389.6 85.4C390.533 86.3333 391 87.5333 391 89V106C391 107.467 390.533 108.667 389.6 109.6C388.667 110.533 387.467 111 386 111H323V144.8H382C383.467 144.8 384.667 145.267 385.6 146.2C386.533 147.133 387 148.333 387 149.8V166.8C387 168.133 386.533 169.267 385.6 170.2C384.667 171.133 383.467 171.6 382 171.6H323V219C323 220.467 322.533 221.667 321.6 222.6C320.667 223.533 319.467 224 318 224H296.8ZM438.675 224C437.208 224 436.008 223.533 435.075 222.6C434.142 221.667 433.675 220.467 433.675 219V89C433.675 87.5333 434.142 86.3333 435.075 85.4C436.008 84.4667 437.208 84 438.675 84H460.875C462.342 84 463.542 84.4667 464.475 85.4C465.408 86.3333 465.875 87.5333 465.875 89V197.2H527.875C529.342 197.2 530.542 197.667 531.475 198.6C532.408 199.533 532.875 200.733 532.875 202.2V219C532.875 220.467 532.408 221.667 531.475 222.6C530.542 223.533 529.342 224 527.875 224H438.675ZM563.053 224C561.853 224 560.853 223.6 560.053 222.8C559.253 221.867 558.853 220.867 558.853 219.8C558.853 219.133 558.92 218.533 559.053 218L606.653 89.4C607.053 87.9333 607.853 86.6667 609.053 85.6C610.253 84.5333 611.92 84 614.053 84H639.653C641.786 84 643.453 84.5333 644.653 85.6C645.853 86.6667 646.653 87.9333 647.053 89.4L694.653 218C694.786 218.533 694.853 219.133 694.853 219.8C694.853 220.867 694.453 221.867 693.653 222.8C692.853 223.6 691.853 224 690.653 224H669.853C667.853 224 666.386 223.533 665.453 222.6C664.52 221.667 663.92 220.8 663.653 220L655.053 197.6H598.653L590.053 220C589.786 220.8 589.186 221.667 588.253 222.6C587.32 223.533 585.853 224 583.853 224H563.053ZM606.053 171.8H647.453L626.853 114.2L606.053 171.8ZM780.325 226C767.525 226 756.792 224.133 748.125 220.4C739.592 216.667 733.125 211.8 728.725 205.8C724.325 199.8 721.992 193.4 721.725 186.6C721.725 185.533 722.125 184.6 722.925 183.8C723.725 182.867 724.725 182.4 725.925 182.4H747.325C749.058 182.4 750.392 182.8 751.325 183.6C752.258 184.267 753.125 185.133 753.925 186.2C754.858 188.467 756.325 190.667 758.325 192.8C760.458 194.933 763.325 196.733 766.925 198.2C770.525 199.533 774.992 200.2 780.325 200.2C788.992 200.2 795.458 198.8 799.725 196C804.125 193.2 806.325 189.4 806.325 184.6C806.325 181.133 805.125 178.333 802.725 176.2C800.458 174.067 796.792 172.133 791.725 170.4C786.792 168.667 780.192 166.8 771.925 164.8C761.925 162.667 753.392 159.933 746.325 156.6C739.392 153.133 734.125 148.733 730.525 143.4C727.058 137.933 725.325 131.2 725.325 123.2C725.325 115.2 727.525 108.133 731.925 102C736.325 95.7333 742.525 90.8667 750.525 87.4C758.525 83.8 768.058 82 779.125 82C788.058 82 795.925 83.2 802.725 85.6C809.658 88 815.392 91.1333 819.925 95C824.592 98.8667 828.125 103 830.525 107.4C832.925 111.8 834.192 116.067 834.325 120.2C834.325 121.267 833.925 122.267 833.125 123.2C832.325 124 831.325 124.4 830.125 124.4H807.725C806.392 124.4 805.192 124.133 804.125 123.6C803.058 123.067 802.192 122.133 801.525 120.8C800.725 117.333 798.325 114.333 794.325 111.8C790.458 109.133 785.392 107.8 779.125 107.8C772.592 107.8 767.392 109 763.525 111.4C759.792 113.8 757.925 117.467 757.925 122.4C757.925 125.6 758.858 128.333 760.725 130.6C762.725 132.733 765.992 134.667 770.525 136.4C775.192 138 781.325 139.8 788.925 141.8C800.658 144.2 810.192 147.067 817.525 150.4C824.858 153.733 830.258 158.067 833.725 163.4C837.192 168.6 838.925 175.2 838.925 183.2C838.925 192.133 836.392 199.8 831.325 206.2C826.392 212.6 819.525 217.533 810.725 221C802.058 224.333 791.925 226 780.325 226ZM885.394 224C883.927 224 882.727 223.533 881.794 222.6C880.86 221.667 880.394 220.467 880.394 219V89C880.394 87.5333 880.86 86.3333 881.794 85.4C882.727 84.4667 883.927 84 885.394 84H907.194C908.66 84 909.86 84.4667 910.794 85.4C911.727 86.3333 912.194 87.5333 912.194 89V139H966.394V89C966.394 87.5333 966.86 86.3333 967.794 85.4C968.727 84.4667 969.927 84 971.394 84H993.194C994.66 84 995.86 84.4667 996.794 85.4C997.727 86.3333 998.194 87.5333 998.194 89V219C998.194 220.467 997.727 221.667 996.794 222.6C995.86 223.533 994.66 224 993.194 224H971.394C969.927 224 968.727 223.533 967.794 222.6C966.86 221.667 966.394 220.467 966.394 219V167.4H912.194V219C912.194 220.467 911.727 221.667 910.794 222.6C909.86 223.533 908.66 224 907.194 224H885.394ZM293.936 370C292.963 370 292.184 369.708 291.6 369.124C291.016 368.54 290.724 367.761 290.724 366.788V271.158C290.724 270.087 291.016 269.26 291.6 268.676C292.184 268.092 292.963 267.8 293.936 267.8H329.414C336.227 267.8 342.116 268.968 347.08 271.304C352.141 273.543 356.035 276.901 358.76 281.378C361.583 285.855 362.994 291.403 362.994 298.022C362.994 304.641 361.583 310.189 358.76 314.666C356.035 319.143 352.141 322.55 347.08 324.886C342.116 327.125 336.227 328.244 329.414 328.244H299.922V366.788C299.922 367.761 299.63 368.54 299.046 369.124C298.462 369.708 297.635 370 296.564 370H293.936ZM299.922 319.484H328.684C337.152 319.484 343.43 317.635 347.518 313.936C351.703 310.237 353.796 304.933 353.796 298.022C353.796 291.111 351.703 285.807 347.518 282.108C343.43 278.409 337.152 276.56 328.684 276.56H299.922V319.484ZM369.684 370C368.905 370 368.224 369.708 367.64 369.124C367.056 368.54 366.764 367.859 366.764 367.08C366.764 366.593 366.861 366.058 367.056 365.474L403.994 270.72C404.383 269.747 404.87 269.017 405.454 268.53C406.135 268.043 407.06 267.8 408.228 267.8H413.192C414.36 267.8 415.236 268.043 415.82 268.53C416.501 269.017 417.036 269.747 417.426 270.72L454.364 365.474C454.558 366.058 454.656 366.593 454.656 367.08C454.656 367.859 454.364 368.54 453.78 369.124C453.196 369.708 452.514 370 451.736 370H448.816C447.842 370 447.112 369.757 446.626 369.27C446.139 368.686 445.798 368.199 445.604 367.81L436.552 344.45H384.868L375.816 367.81C375.718 368.199 375.378 368.686 374.794 369.27C374.307 369.757 373.577 370 372.604 370H369.684ZM388.372 335.69H433.048L410.71 278.166L388.372 335.69ZM492.912 370C491.939 370 491.16 369.708 490.576 369.124C489.992 368.54 489.7 367.761 489.7 366.788V331.018L454.076 272.618C453.979 272.326 453.833 272.034 453.638 271.742C453.541 271.45 453.492 271.109 453.492 270.72C453.492 269.941 453.784 269.26 454.368 268.676C454.952 268.092 455.634 267.8 456.412 267.8H459.332C460.014 267.8 460.646 267.995 461.23 268.384C461.814 268.676 462.301 269.211 462.69 269.99L494.372 321.528L526.054 269.99C526.541 269.211 527.028 268.676 527.514 268.384C528.098 267.995 528.731 267.8 529.412 267.8H532.332C533.111 267.8 533.792 268.092 534.376 268.676C534.96 269.26 535.252 269.941 535.252 270.72C535.252 271.109 535.204 271.45 535.106 271.742C535.009 272.034 534.863 272.326 534.668 272.618L499.044 331.018V366.788C499.044 367.761 498.752 368.54 498.168 369.124C497.584 369.708 496.757 370 495.686 370H492.912ZM557.566 370C556.593 370 555.766 369.708 555.084 369.124C554.5 368.54 554.208 367.761 554.208 366.788V271.158C554.208 270.087 554.5 269.26 555.084 268.676C555.766 268.092 556.593 267.8 557.566 267.8H561.216C562.19 267.8 562.92 268.043 563.406 268.53C563.893 269.017 564.185 269.406 564.282 269.698L597.424 334.23L630.712 269.698C630.907 269.406 631.199 269.017 631.588 268.53C632.075 268.043 632.805 267.8 633.778 267.8H637.282C638.353 267.8 639.18 268.092 639.764 268.676C640.348 269.26 640.64 270.087 640.64 271.158V366.788C640.64 367.761 640.348 368.54 639.764 369.124C639.18 369.708 638.353 370 637.282 370H634.654C633.681 370 632.902 369.708 632.318 369.124C631.734 368.54 631.442 367.761 631.442 366.788V287.656L603.556 342.552C603.167 343.525 602.583 344.255 601.804 344.742C601.123 345.229 600.198 345.472 599.03 345.472H595.818C594.65 345.472 593.726 345.229 593.044 344.742C592.363 344.255 591.779 343.525 591.292 342.552L563.406 287.656V366.788C563.406 367.761 563.114 368.54 562.53 369.124C561.946 369.708 561.168 370 560.194 370H557.566ZM671.34 370C670.367 370 669.588 369.708 669.004 369.124C668.42 368.54 668.128 367.761 668.128 366.788V271.158C668.128 270.087 668.42 269.26 669.004 268.676C669.588 268.092 670.367 267.8 671.34 267.8H728.28C729.351 267.8 730.178 268.092 730.762 268.676C731.346 269.26 731.638 270.087 731.638 271.158V273.348C731.638 274.321 731.346 275.1 730.762 275.684C730.178 276.268 729.351 276.56 728.28 276.56H677.326V313.79H725.068C726.139 313.79 726.966 314.082 727.55 314.666C728.134 315.25 728.426 316.077 728.426 317.148V319.338C728.426 320.311 728.134 321.09 727.55 321.674C726.966 322.258 726.139 322.55 725.068 322.55H677.326V361.24H729.448C730.519 361.24 731.346 361.532 731.93 362.116C732.514 362.7 732.806 363.527 732.806 364.598V366.788C732.806 367.761 732.514 368.54 731.93 369.124C731.346 369.708 730.519 370 729.448 370H671.34ZM757.743 370C756.769 370 755.991 369.708 755.407 369.124C754.823 368.54 754.531 367.761 754.531 366.788V271.158C754.531 270.087 754.823 269.26 755.407 268.676C755.991 268.092 756.769 267.8 757.743 267.8H760.809C761.782 267.8 762.512 268.043 762.999 268.53C763.485 269.017 763.777 269.357 763.875 269.552L817.749 351.896V271.158C817.749 270.087 818.041 269.26 818.625 268.676C819.209 268.092 819.987 267.8 820.961 267.8H823.589C824.659 267.8 825.487 268.092 826.071 268.676C826.655 269.26 826.947 270.087 826.947 271.158V366.642C826.947 367.615 826.655 368.443 826.071 369.124C825.487 369.708 824.708 370 823.735 370H820.523C819.549 370 818.819 369.757 818.333 369.27C817.943 368.783 817.651 368.443 817.457 368.248L763.729 286.196V366.788C763.729 367.761 763.437 368.54 762.853 369.124C762.269 369.708 761.441 370 760.371 370H757.743ZM879.885 370C878.912 370 878.133 369.708 877.549 369.124C876.965 368.54 876.673 367.761 876.673 366.788V276.56H847.765C846.792 276.56 846.013 276.268 845.429 275.684C844.845 275.1 844.553 274.321 844.553 273.348V271.158C844.553 270.087 844.845 269.26 845.429 268.676C846.013 268.092 846.792 267.8 847.765 267.8H914.633C915.704 267.8 916.531 268.092 917.115 268.676C917.699 269.26 917.991 270.087 917.991 271.158V273.348C917.991 274.321 917.699 275.1 917.115 275.684C916.531 276.268 915.704 276.56 914.633 276.56H885.871V366.788C885.871 367.761 885.579 368.54 884.995 369.124C884.411 369.708 883.584 370 882.513 370H879.885ZM965.552 371.46C957.668 371.46 950.952 370.195 945.404 367.664C939.953 365.133 935.768 361.873 932.848 357.882C929.928 353.891 928.371 349.657 928.176 345.18C928.176 344.401 928.468 343.72 929.052 343.136C929.636 342.552 930.366 342.26 931.242 342.26H934.162C935.135 342.26 935.865 342.552 936.352 343.136C936.936 343.72 937.277 344.401 937.374 345.18C937.763 347.905 938.98 350.631 941.024 353.356C943.068 355.984 946.085 358.223 950.076 360.072C954.067 361.824 959.225 362.7 965.552 362.7C975.091 362.7 982.05 360.997 986.43 357.59C990.81 354.086 993 349.414 993 343.574C993 339.681 991.832 336.566 989.496 334.23C987.257 331.797 983.802 329.655 979.13 327.806C974.458 325.859 968.472 323.718 961.172 321.382C954.261 319.143 948.567 316.856 944.09 314.52C939.613 312.087 936.303 309.167 934.162 305.76C932.118 302.353 931.096 297.973 931.096 292.62C931.096 287.656 932.41 283.227 935.038 279.334C937.666 275.343 941.462 272.18 946.426 269.844C951.487 267.508 957.619 266.34 964.822 266.34C970.565 266.34 975.577 267.119 979.86 268.676C984.143 270.233 987.695 272.326 990.518 274.954C993.341 277.485 995.482 280.259 996.942 283.276C998.402 286.196 999.181 289.067 999.278 291.89C999.278 292.571 999.035 293.253 998.548 293.934C998.061 294.518 997.283 294.81 996.212 294.81H993.292C992.805 294.81 992.173 294.615 991.394 294.226C990.713 293.837 990.275 293.058 990.08 291.89C989.496 287.023 986.917 283.033 982.342 279.918C977.865 276.706 972.025 275.1 964.822 275.1C957.619 275.1 951.731 276.511 947.156 279.334C942.581 282.157 940.294 286.585 940.294 292.62C940.294 296.513 941.316 299.725 943.36 302.256C945.404 304.689 948.616 306.879 952.996 308.826C957.376 310.675 963.021 312.719 969.932 314.958C977.232 317.294 983.267 319.63 988.036 321.966C992.805 324.302 996.358 327.173 998.694 330.58C1001.03 333.889 1002.2 338.221 1002.2 343.574C1002.2 349.511 1000.69 354.573 997.672 358.758C994.752 362.846 990.567 366.009 985.116 368.248C979.665 370.389 973.144 371.46 965.552 371.46Z" fill="black"/>
</svg>
