<svg width="636" height="240" viewBox="0 0 636 240" fill="none" xmlns="http://www.w3.org/2000/svg">
<g filter="url(#filter0_d_634_8)">
<path d="M146 94.2461H75V0L4 137.754H75V232L146 94.2461Z" fill="url(#paint0_linear_634_8)"/>
</g>
<path d="M171.321 126V53.2727H219.474V65.9503H186.697V83.2798H216.278V95.9574H186.697V126H171.321ZM244.661 53.2727V126H229.533V53.2727H244.661ZM272.333 127.03C268.853 127.03 265.752 126.426 263.029 125.219C260.307 123.988 258.152 122.177 256.566 119.786C255.004 117.371 254.222 114.364 254.222 110.766C254.222 107.735 254.779 105.19 255.891 103.131C257.004 101.071 258.519 99.4138 260.437 98.1591C262.354 96.9044 264.532 95.9574 266.971 95.3182C269.433 94.679 272.013 94.2292 274.712 93.9688C277.885 93.6373 280.442 93.3295 282.383 93.0455C284.324 92.7377 285.733 92.2879 286.609 91.696C287.485 91.1042 287.923 90.2282 287.923 89.0682V88.8551C287.923 86.6061 287.212 84.866 285.792 83.6349C284.395 82.4039 282.406 81.7884 279.826 81.7884C277.103 81.7884 274.937 82.392 273.327 83.5994C271.718 84.7831 270.652 86.2746 270.131 88.0739L256.14 86.9375C256.85 83.6231 258.247 80.7585 260.33 78.3438C262.414 75.9053 265.101 74.035 268.391 72.733C271.706 71.4072 275.541 70.7443 279.897 70.7443C282.927 70.7443 285.827 71.0994 288.597 71.8097C291.391 72.5199 293.865 73.6207 296.019 75.1122C298.197 76.6037 299.914 78.5213 301.168 80.8651C302.423 83.1851 303.05 85.9669 303.05 89.2102V126H288.704V118.436H288.278C287.402 120.141 286.23 121.644 284.762 122.946C283.294 124.224 281.531 125.231 279.471 125.964C277.411 126.675 275.032 127.03 272.333 127.03ZM276.665 116.589C278.891 116.589 280.856 116.152 282.56 115.276C284.265 114.376 285.603 113.169 286.573 111.653C287.544 110.138 288.029 108.422 288.029 106.504V100.716C287.556 101.024 286.905 101.308 286.076 101.568C285.271 101.805 284.36 102.03 283.342 102.243C282.324 102.432 281.306 102.61 280.288 102.776C279.27 102.918 278.346 103.048 277.518 103.166C275.742 103.427 274.192 103.841 272.866 104.409C271.54 104.977 270.51 105.747 269.776 106.717C269.042 107.664 268.675 108.848 268.675 110.268C268.675 112.328 269.421 113.902 270.913 114.991C272.428 116.057 274.345 116.589 276.665 116.589ZM360.17 87.0085L346.321 87.8608C346.084 86.6771 345.575 85.6117 344.794 84.6648C344.013 83.6941 342.983 82.9247 341.705 82.3565C340.45 81.7647 338.946 81.4688 337.195 81.4688C334.851 81.4688 332.874 81.9659 331.264 82.9602C329.654 83.9309 328.849 85.233 328.849 86.8665C328.849 88.1686 329.37 89.2694 330.412 90.169C331.454 91.0687 333.241 91.7907 335.774 92.3352L345.646 94.3239C350.949 95.4129 354.903 97.1648 357.507 99.5795C360.111 101.994 361.413 105.167 361.413 109.097C361.413 112.671 360.36 115.808 358.253 118.507C356.17 121.206 353.305 123.313 349.659 124.828C346.037 126.32 341.858 127.065 337.124 127.065C329.903 127.065 324.15 125.562 319.865 122.555C315.604 119.525 313.106 115.406 312.372 110.197L327.251 109.416C327.701 111.618 328.79 113.299 330.518 114.459C332.247 115.595 334.46 116.163 337.159 116.163C339.811 116.163 341.941 115.654 343.551 114.636C345.185 113.595 346.013 112.257 346.037 110.624C346.013 109.25 345.433 108.126 344.297 107.25C343.161 106.35 341.409 105.664 339.041 105.19L329.595 103.308C324.268 102.243 320.303 100.396 317.699 97.7685C315.118 95.1406 313.828 91.7907 313.828 87.7188C313.828 84.215 314.775 81.1965 316.669 78.6634C318.587 76.1302 321.274 74.1771 324.73 72.804C328.21 71.4309 332.282 70.7443 336.946 70.7443C343.835 70.7443 349.257 72.2003 353.21 75.1122C357.188 78.0241 359.508 81.9896 360.17 87.0085ZM386.067 94.4659V126H370.939V53.2727H385.641V81.0781H386.28C387.511 77.8584 389.5 75.3371 392.246 73.5142C394.992 71.6676 398.437 70.7443 402.58 70.7443C406.368 70.7443 409.67 71.5729 412.488 73.2301C415.328 74.8636 417.53 77.2192 419.093 80.2969C420.679 83.3509 421.46 87.0085 421.436 91.2699V126H406.309V93.9688C406.332 90.607 405.48 87.991 403.752 86.1207C402.047 84.2505 399.656 83.3153 396.578 83.3153C394.519 83.3153 392.696 83.7533 391.11 84.6293C389.547 85.5052 388.316 86.7836 387.417 88.4645C386.541 90.1217 386.091 92.1222 386.067 94.4659ZM456.77 126V53.2727H485.463C490.98 53.2727 495.679 54.3262 499.561 56.4332C503.444 58.5166 506.403 61.4167 508.439 65.1335C510.499 68.8267 511.529 73.0881 511.529 77.9176C511.529 82.7472 510.487 87.0085 508.404 90.7017C506.32 94.3949 503.302 97.2713 499.348 99.331C495.418 101.391 490.66 102.42 485.073 102.42H466.784V90.098H482.587C485.546 90.098 487.985 89.589 489.902 88.571C491.844 87.5294 493.288 86.0971 494.235 84.2741C495.205 82.4276 495.691 80.3087 495.691 77.9176C495.691 75.5028 495.205 73.3958 494.235 71.5966C493.288 69.7737 491.844 68.3651 489.902 67.3707C487.961 66.3527 485.499 65.8438 482.516 65.8438H472.147V126H456.77ZM535.321 127.03C531.841 127.03 528.74 126.426 526.017 125.219C523.295 123.988 521.141 122.177 519.554 119.786C517.992 117.371 517.211 114.364 517.211 110.766C517.211 107.735 517.767 105.19 518.88 103.131C519.992 101.071 521.507 99.4138 523.425 98.1591C525.343 96.9044 527.521 95.9574 529.959 95.3182C532.421 94.679 535.002 94.2292 537.701 93.9688C540.873 93.6373 543.43 93.3295 545.371 93.0455C547.312 92.7377 548.721 92.2879 549.597 91.696C550.473 91.1042 550.911 90.2282 550.911 89.0682V88.8551C550.911 86.6061 550.201 84.866 548.78 83.6349C547.383 82.4039 545.395 81.7884 542.814 81.7884C540.092 81.7884 537.926 82.392 536.316 83.5994C534.706 84.7831 533.641 86.2746 533.12 88.0739L519.128 86.9375C519.838 83.6231 521.235 80.7585 523.319 78.3438C525.402 75.9053 528.089 74.035 531.38 72.733C534.694 71.4072 538.529 70.7443 542.885 70.7443C545.916 70.7443 548.816 71.0994 551.586 71.8097C554.379 72.5199 556.853 73.6207 559.007 75.1122C561.185 76.6037 562.902 78.5213 564.157 80.8651C565.411 83.1851 566.039 85.9669 566.039 89.2102V126H551.692V118.436H551.266C550.39 120.141 549.218 121.644 547.75 122.946C546.283 124.224 544.519 125.231 542.459 125.964C540.4 126.675 538.02 127.03 535.321 127.03ZM539.654 116.589C541.879 116.589 543.844 116.152 545.549 115.276C547.253 114.376 548.591 113.169 549.561 111.653C550.532 110.138 551.017 108.422 551.017 106.504V100.716C550.544 101.024 549.893 101.308 549.064 101.568C548.259 101.805 547.348 102.03 546.33 102.243C545.312 102.432 544.294 102.61 543.276 102.776C542.258 102.918 541.335 103.048 540.506 103.166C538.73 103.427 537.18 103.841 535.854 104.409C534.528 104.977 533.498 105.747 532.765 106.717C532.031 107.664 531.664 108.848 531.664 110.268C531.664 112.328 532.409 113.902 533.901 114.991C535.416 116.057 537.334 116.589 539.654 116.589ZM585.162 146.455C583.244 146.455 581.445 146.301 579.764 145.993C578.107 145.709 576.734 145.342 575.645 144.892L579.054 133.599C580.829 134.144 582.427 134.44 583.848 134.487C585.292 134.535 586.535 134.203 587.576 133.493C588.642 132.783 589.506 131.575 590.169 129.871L591.056 127.562L571.49 71.4545H587.399L598.691 111.511H599.26L610.659 71.4545H626.674L605.474 131.895C604.456 134.83 603.071 137.387 601.319 139.565C599.591 141.767 597.401 143.46 594.75 144.643C592.098 145.851 588.902 146.455 585.162 146.455Z" fill="#4B4B4B"/>
<path d="M356.065 198L363.31 154.364H380.781C383.991 154.364 386.591 154.839 388.58 155.791C390.582 156.743 391.982 158.064 392.777 159.754C393.572 161.43 393.786 163.362 393.416 165.55C393.118 167.254 392.514 168.746 391.605 170.024C390.71 171.303 389.602 172.354 388.281 173.178C386.96 174.001 385.526 174.584 383.977 174.925L383.892 175.351C385.54 175.422 387.024 175.891 388.345 176.757C389.666 177.609 390.653 178.817 391.307 180.379C391.96 181.942 392.109 183.795 391.754 185.94C391.371 188.256 390.455 190.322 389.006 192.141C387.557 193.945 385.625 195.372 383.21 196.423C380.81 197.474 377.976 198 374.709 198H356.065ZM366.57 190.457H374.091C376.648 190.457 378.601 189.96 379.95 188.966C381.3 187.972 382.109 186.658 382.379 185.024C382.564 183.817 382.443 182.751 382.017 181.828C381.605 180.905 380.902 180.18 379.908 179.655C378.928 179.129 377.685 178.866 376.179 178.866H368.466L366.57 190.457ZM369.531 172.624H376.371C377.621 172.624 378.778 172.403 379.844 171.963C380.923 171.509 381.811 170.869 382.507 170.045C383.217 169.207 383.665 168.22 383.849 167.084C384.105 165.493 383.75 164.222 382.784 163.27C381.832 162.304 380.341 161.821 378.31 161.821H371.321L369.531 172.624ZM418.873 184.065L422.005 165.273H431.081L425.627 198H416.912L417.892 192.055H417.551C416.543 193.973 415.073 195.514 413.141 196.679C411.209 197.844 409.015 198.426 406.557 198.426C404.37 198.426 402.523 197.929 401.017 196.935C399.526 195.94 398.468 194.527 397.843 192.695C397.218 190.862 397.111 188.668 397.523 186.111L401.017 165.273H410.094L406.898 184.491C406.6 186.423 406.87 187.95 407.708 189.072C408.546 190.195 409.824 190.756 411.543 190.756C412.637 190.756 413.695 190.507 414.718 190.01C415.755 189.499 416.65 188.746 417.402 187.751C418.155 186.757 418.645 185.528 418.873 184.065ZM463.974 174.605L455.728 175.116C455.685 174.392 455.487 173.746 455.131 173.178C454.79 172.595 454.286 172.134 453.619 171.793C452.965 171.452 452.141 171.281 451.147 171.281C449.656 171.281 448.327 171.622 447.163 172.304C445.998 172.986 445.337 173.859 445.181 174.925C445.053 175.607 445.231 176.182 445.714 176.651C446.197 177.119 447.17 177.517 448.633 177.844L454.386 179.037C457.454 179.69 459.67 180.777 461.033 182.297C462.411 183.817 462.901 185.805 462.504 188.263C462.148 190.351 461.232 192.176 459.755 193.739C458.278 195.287 456.403 196.494 454.13 197.361C451.857 198.213 449.336 198.639 446.566 198.639C442.12 198.639 438.739 197.73 436.424 195.912C434.109 194.094 432.994 191.629 433.079 188.518L441.942 188.05C442.013 189.385 442.482 190.393 443.349 191.075C444.215 191.743 445.401 192.084 446.907 192.098C448.597 192.126 450.032 191.778 451.211 191.054C452.404 190.315 453.079 189.42 453.235 188.369C453.349 187.631 453.136 187.034 452.596 186.58C452.07 186.125 451.104 185.749 449.698 185.45L444.244 184.321C441.147 183.682 438.924 182.538 437.575 180.891C436.225 179.243 435.763 177.148 436.19 174.605C436.531 172.574 437.376 170.834 438.725 169.385C440.089 167.922 441.843 166.8 443.988 166.018C446.147 165.237 448.583 164.847 451.296 164.847C455.543 164.847 458.739 165.72 460.884 167.467C463.043 169.214 464.073 171.594 463.974 174.605ZM466.578 198L472.033 165.273H481.11L475.655 198H466.578ZM477.509 161.011C476.159 161.011 475.044 160.564 474.164 159.669C473.297 158.76 472.942 157.68 473.098 156.43C473.255 155.152 473.865 154.072 474.931 153.192C475.996 152.297 477.203 151.849 478.553 151.849C479.902 151.849 481.003 152.297 481.855 153.192C482.708 154.072 483.063 155.152 482.921 156.43C482.779 157.68 482.175 158.76 481.11 159.669C480.059 160.564 478.858 161.011 477.509 161.011ZM495.199 179.08L492.045 198H482.99L488.445 165.273H497.074L496.136 171.047H496.499C497.536 169.129 498.999 167.616 500.888 166.509C502.791 165.401 504.957 164.847 507.386 164.847C509.659 164.847 511.555 165.344 513.075 166.338C514.609 167.332 515.689 168.746 516.314 170.578C516.953 172.411 517.06 174.605 516.634 177.162L513.139 198H504.062L507.28 178.781C507.607 176.778 507.351 175.216 506.513 174.094C505.689 172.957 504.361 172.389 502.528 172.389C501.307 172.389 500.185 172.652 499.162 173.178C498.139 173.703 497.28 174.47 496.584 175.479C495.902 176.473 495.44 177.673 495.199 179.08ZM535.08 198.639C531.728 198.639 528.951 197.957 526.749 196.594C524.547 195.216 522.999 193.27 522.104 190.756C521.223 188.227 521.074 185.237 521.657 181.786C522.225 178.419 523.368 175.464 525.087 172.922C526.82 170.379 528.993 168.398 531.607 166.977C534.221 165.557 537.132 164.847 540.343 164.847C542.502 164.847 544.455 165.195 546.202 165.891C547.963 166.572 549.426 167.609 550.591 169.001C551.756 170.379 552.551 172.105 552.978 174.179C553.418 176.253 553.411 178.682 552.956 181.466L552.551 183.959H524.938L525.811 178.334H544.902C545.115 177.027 545.03 175.869 544.647 174.861C544.263 173.852 543.624 173.064 542.729 172.496C541.834 171.913 540.733 171.622 539.426 171.622C538.091 171.622 536.841 171.949 535.676 172.602C534.512 173.256 533.532 174.115 532.736 175.18C531.955 176.232 531.451 177.375 531.223 178.611L530.222 184.193C529.938 185.912 529.995 187.339 530.392 188.476C530.804 189.612 531.515 190.464 532.523 191.033C533.532 191.587 534.81 191.864 536.358 191.864C537.367 191.864 538.311 191.722 539.192 191.438C540.087 191.153 540.882 190.734 541.578 190.18C542.275 189.612 542.843 188.909 543.283 188.071L551.571 188.625C550.804 190.642 549.64 192.403 548.077 193.909C546.515 195.401 544.632 196.565 542.431 197.403C540.243 198.227 537.793 198.639 535.08 198.639ZM587.255 174.605L579.009 175.116C578.967 174.392 578.768 173.746 578.413 173.178C578.072 172.595 577.567 172.134 576.9 171.793C576.246 171.452 575.423 171.281 574.428 171.281C572.937 171.281 571.609 171.622 570.444 172.304C569.279 172.986 568.619 173.859 568.462 174.925C568.335 175.607 568.512 176.182 568.995 176.651C569.478 177.119 570.451 177.517 571.914 177.844L577.667 179.037C580.735 179.69 582.951 180.777 584.315 182.297C585.692 183.817 586.183 185.805 585.785 188.263C585.43 190.351 584.513 192.176 583.036 193.739C581.559 195.287 579.684 196.494 577.411 197.361C575.138 198.213 572.617 198.639 569.847 198.639C565.401 198.639 562.021 197.73 559.705 195.912C557.39 194.094 556.275 191.629 556.36 188.518L565.224 188.05C565.295 189.385 565.763 190.393 566.63 191.075C567.496 191.743 568.683 192.084 570.188 192.098C571.879 192.126 573.313 191.778 574.492 191.054C575.685 190.315 576.36 189.42 576.516 188.369C576.63 187.631 576.417 187.034 575.877 186.58C575.352 186.125 574.386 185.749 572.979 185.45L567.525 184.321C564.428 183.682 562.205 182.538 560.856 180.891C559.506 179.243 559.045 177.148 559.471 174.605C559.812 172.574 560.657 170.834 562.006 169.385C563.37 167.922 565.124 166.8 567.269 166.018C569.428 165.237 571.864 164.847 574.577 164.847C578.825 164.847 582.021 165.72 584.165 167.467C586.325 169.214 587.354 171.594 587.255 174.605ZM620.946 174.605L612.701 175.116C612.658 174.392 612.459 173.746 612.104 173.178C611.763 172.595 611.259 172.134 610.591 171.793C609.938 171.452 609.114 171.281 608.12 171.281C606.628 171.281 605.3 171.622 604.135 172.304C602.971 172.986 602.31 173.859 602.154 174.925C602.026 175.607 602.203 176.182 602.686 176.651C603.169 177.119 604.142 177.517 605.605 177.844L611.358 179.037C614.426 179.69 616.642 180.777 618.006 182.297C619.384 183.817 619.874 185.805 619.476 188.263C619.121 190.351 618.205 192.176 616.728 193.739C615.25 195.287 613.375 196.494 611.103 197.361C608.83 198.213 606.309 198.639 603.539 198.639C599.093 198.639 595.712 197.73 593.397 195.912C591.081 194.094 589.966 191.629 590.051 188.518L598.915 188.05C598.986 189.385 599.455 190.393 600.321 191.075C601.188 191.743 602.374 192.084 603.88 192.098C605.57 192.126 607.005 191.778 608.184 191.054C609.377 190.315 610.051 189.42 610.208 188.369C610.321 187.631 610.108 187.034 609.569 186.58C609.043 186.125 608.077 185.749 606.671 185.45L601.216 184.321C598.12 183.682 595.897 182.538 594.547 180.891C593.198 179.243 592.736 177.148 593.162 174.605C593.503 172.574 594.348 170.834 595.698 169.385C597.061 167.922 598.816 166.8 600.961 166.018C603.12 165.237 605.556 164.847 608.269 164.847C612.516 164.847 615.712 165.72 617.857 167.467C620.016 169.214 621.046 171.594 620.946 174.605Z" fill="#2F343B"/>
<defs>
<filter id="filter0_d_634_8" x="0" y="0" width="150" height="240" filterUnits="userSpaceOnUse" color-interpolation-filters="sRGB">
<feFlood flood-opacity="0" result="BackgroundImageFix"/>
<feColorMatrix in="SourceAlpha" type="matrix" values="0 0 0 0 0 0 0 0 0 0 0 0 0 0 0 0 0 0 127 0" result="hardAlpha"/>
<feOffset dy="4"/>
<feGaussianBlur stdDeviation="2"/>
<feComposite in2="hardAlpha" operator="out"/>
<feColorMatrix type="matrix" values="0 0 0 0 0 0 0 0 0 0 0 0 0 0 0 0 0 0 0.25 0"/>
<feBlend mode="normal" in2="BackgroundImageFix" result="effect1_dropShadow_634_8"/>
<feBlend mode="normal" in="SourceGraphic" in2="effect1_dropShadow_634_8" result="shape"/>
</filter>
<linearGradient id="paint0_linear_634_8" x1="75" y1="0" x2="75" y2="232" gradientUnits="userSpaceOnUse">
<stop stop-color="#BACDFF"/>
<stop offset="1" stop-color="#0047FF"/>
</linearGradient>
</defs>
</svg>
