<svg width="1625" height="400" viewBox="0 0 1625 400" fill="none" xmlns="http://www.w3.org/2000/svg">
<g clip-path="url(#clip0_2037_302)">
<path d="M8 100C8 44.7715 52.7715 0 108 0H308C325.737 0 342.395 4.61757 356.838 12.7161L279.554 90H136C115.013 90 98 107.013 98 128V271.554L20.7161 348.838C12.6176 334.395 8 317.737 8 300V100Z" fill="white"/>
<path d="M135.921 310L58.8266 387.095C73.3469 395.31 90.1258 400 108 400H308C363.228 400 408 355.228 408 300V100C408 82.1258 403.31 65.3469 395.095 50.8266L318 127.921C318 127.948 318 127.974 318 128V272C318 292.987 300.987 310 280 310H136C135.974 310 135.948 310 135.921 310Z" fill="white"/>
<path d="M524.24 329V96.24H584.08L585.84 143.76L573.52 149.04C576.747 138.48 582.467 128.947 590.68 120.44C599.187 111.64 609.307 104.6 621.04 99.32C632.773 94.04 645.093 91.4 658 91.4C675.6 91.4 690.267 94.92 702 101.96C714.027 109 722.973 119.707 728.84 134.08C735 148.16 738.08 165.613 738.08 186.44V329H675.6V191.28C675.6 180.72 674.133 171.92 671.2 164.88C668.267 157.84 663.72 152.707 657.56 149.48C651.693 145.96 644.36 144.493 635.56 145.08C628.52 145.08 621.92 146.253 615.76 148.6C609.893 150.653 604.76 153.733 600.36 157.84C596.253 161.947 592.88 166.64 590.24 171.92C587.893 177.2 586.72 182.92 586.72 189.08V329H555.92C549.173 329 543.16 329 537.88 329C532.6 329 528.053 329 524.24 329ZM895.631 333.4C878.618 333.4 863.951 329.733 851.631 322.4C839.604 314.773 830.218 304.067 823.471 290.28C817.018 276.2 813.791 259.333 813.791 239.68V96.24H876.271V229.56C876.271 240.12 878.031 249.36 881.551 257.28C885.071 264.907 890.058 270.773 896.511 274.88C902.964 278.987 910.884 281.04 920.271 281.04C927.018 281.04 933.324 280.013 939.191 277.96C945.058 275.613 950.044 272.387 954.151 268.28C958.258 264.173 961.484 259.333 963.831 253.76C966.178 248.187 967.351 242.173 967.351 235.72V96.24H1029.83V329H970.431L968.231 281.04L979.671 275.76C976.151 286.613 970.284 296.44 962.071 305.24C953.858 314.04 944.031 320.933 932.591 325.92C921.151 330.907 908.831 333.4 895.631 333.4ZM1110.74 329V3.4H1173.22V329H1110.74ZM1254.67 329V3.4H1317.15V329H1254.67ZM1480.98 333.4C1461.62 333.4 1444.17 328.12 1428.62 317.56C1413.07 307 1400.75 292.627 1391.66 274.44C1382.57 256.253 1378.02 235.427 1378.02 211.96C1378.02 188.493 1382.57 167.813 1391.66 149.92C1401.05 131.733 1413.66 117.507 1429.5 107.24C1445.34 96.68 1463.38 91.4 1483.62 91.4C1495.06 91.4 1505.47 93.16 1514.86 96.68C1524.54 99.9067 1532.9 104.453 1539.94 110.32C1547.27 116.187 1553.43 122.933 1558.42 130.56C1563.41 138.187 1566.93 146.4 1568.98 155.2L1555.78 153V96.24H1617.82V329H1554.9V273.12L1568.98 271.8C1566.63 280.013 1562.82 287.787 1557.54 295.12C1552.26 302.453 1545.66 309.053 1537.74 314.92C1530.11 320.493 1521.46 325.04 1511.78 328.56C1502.1 331.787 1491.83 333.4 1480.98 333.4ZM1498.14 279.28C1509.87 279.28 1520.14 276.493 1528.94 270.92C1537.74 265.347 1544.49 257.573 1549.18 247.6C1554.17 237.333 1556.66 225.453 1556.66 211.96C1556.66 198.76 1554.17 187.173 1549.18 177.2C1544.49 167.227 1537.74 159.453 1528.94 153.88C1520.14 148.013 1509.87 145.08 1498.14 145.08C1486.7 145.08 1476.58 148.013 1467.78 153.88C1459.27 159.453 1452.53 167.227 1447.54 177.2C1442.55 187.173 1440.06 198.76 1440.06 211.96C1440.06 225.453 1442.55 237.333 1447.54 247.6C1452.53 257.573 1459.27 265.347 1467.78 270.92C1476.58 276.493 1486.7 279.28 1498.14 279.28Z" fill="white"/>
</g>
<defs>
<clipPath id="clip0_2037_302">
<rect width="1625" height="400" fill="white"/>
</clipPath>
</defs>
</svg>
