<svg width="400" height="400" viewBox="0 0 400 400" fill="none" xmlns="http://www.w3.org/2000/svg">
<path d="M341.254 8.87932C328.677 3.17587 314.709 0 300 0H100C44.7715 0 0 44.7715 0 100V300C0 314.709 3.17587 328.677 8.87932 341.254L116.156 233.978C116.053 232.665 116 231.339 116 230V170C116 142.386 138.386 120 166 120H230.134L341.254 8.87932Z" fill="url(#paint0_linear_569_24)"/>
<path d="M169.129 280H233C260.614 280 283 257.614 283 230V170C283 168.744 282.954 167.499 282.863 166.266L390.889 58.2393C396.738 70.9479 400 85.093 400 100V300C400 355.228 355.228 400 300 400H100C85.093 400 70.9479 396.738 58.2393 390.889L169.129 280Z" fill="url(#paint1_linear_569_24)"/>
<defs>
<linearGradient id="paint0_linear_569_24" x1="180" y1="181.5" x2="-5.6608e-06" y2="-29" gradientUnits="userSpaceOnUse">
<stop stop-color="#3D96FF"/>
<stop offset="1" stop-color="#3D96FF" stop-opacity="0.3"/>
</linearGradient>
<linearGradient id="paint1_linear_569_24" x1="180" y1="181.5" x2="-5.6608e-06" y2="-29" gradientUnits="userSpaceOnUse">
<stop stop-color="#3D96FF"/>
<stop offset="1" stop-color="#3D96FF" stop-opacity="0.3"/>
</linearGradient>
</defs>
</svg>
