<svg width="944" height="400" viewBox="0 0 944 400" fill="none" xmlns="http://www.w3.org/2000/svg">
<g clip-path="url(#clip0_561_2)">
<path fill-rule="evenodd" clip-rule="evenodd" d="M341.254 8.87932C328.677 3.17587 314.709 0 300 0H100C44.7715 0 0 44.7715 0 100V300C0 314.709 3.17587 328.677 8.87932 341.254L116.156 233.978C116.053 232.665 116 231.339 116 230V170C116 142.386 138.386 120 166 120H230.134L341.254 8.87932ZM169.129 280H233C260.614 280 283 257.614 283 230V170C283 168.744 282.954 167.499 282.863 166.266L390.889 58.2393C396.738 70.9479 400 85.093 400 100V300C400 355.228 355.228 400 300 400H100C85.093 400 70.9479 396.738 58.2393 390.889L169.129 280Z" fill="url(#paint0_linear_561_2)"/>
<mask id="path-2-outside-1_561_2" maskUnits="userSpaceOnUse" x="443" y="37" width="495" height="324" fill="black">
<rect fill="white" x="443" y="37" width="495" height="324"/>
<path d="M478.6 153.6H523.4V180H444.4V39.6H478.6V153.6ZM591.913 39.6V180H557.713V39.6H591.913ZM760.297 180H726.097L668.897 93.4V180H634.697V39.6H668.897L726.097 126.6V39.6H760.297V180ZM896.287 84C893.754 79.3333 890.088 75.8 885.288 73.4C880.621 70.8667 875.088 69.6 868.688 69.6C857.621 69.6 848.754 73.2667 842.087 80.6C835.421 87.8 832.088 97.4667 832.088 109.6C832.088 122.533 835.554 132.667 842.488 140C849.554 147.2 859.221 150.8 871.488 150.8C879.888 150.8 886.954 148.667 892.688 144.4C898.554 140.133 902.821 134 905.488 126H862.088V100.8H936.488V132.6C933.954 141.133 929.621 149.067 923.488 156.4C917.488 163.733 909.821 169.667 900.488 174.2C891.154 178.733 880.621 181 868.888 181C855.021 181 842.621 178 831.688 172C820.888 165.867 812.421 157.4 806.288 146.6C800.288 135.8 797.287 123.467 797.287 109.6C797.287 95.7333 800.288 83.4 806.288 72.6C812.421 61.6667 820.888 53.2 831.688 47.2C842.488 41.0667 854.821 38 868.688 38C885.488 38 899.621 42.0667 911.088 50.2C922.688 58.3333 930.354 69.6 934.088 84H896.287ZM551.4 264.8C551.4 272.933 549.533 280.4 545.8 287.2C542.067 293.867 536.333 299.267 528.6 303.4C520.867 307.533 511.267 309.6 499.8 309.6H478.6V360H444.4V219.6H499.8C511 219.6 520.467 221.533 528.2 225.4C535.933 229.267 541.733 234.6 545.6 241.4C549.467 248.2 551.4 256 551.4 264.8ZM497.2 282.4C503.733 282.4 508.6 280.867 511.8 277.8C515 274.733 516.6 270.4 516.6 264.8C516.6 259.2 515 254.867 511.8 251.8C508.6 248.733 503.733 247.2 497.2 247.2H478.6V282.4H497.2ZM654.605 335.2H602.205L593.805 360H558.005L608.805 219.6H648.405L699.205 360H663.005L654.605 335.2ZM645.805 308.8L628.405 257.4L611.205 308.8H645.805ZM833.066 219.6L784.466 313.6V360H750.266V313.6L701.666 219.6H740.466L767.666 278.4L794.666 219.6H833.066Z"/>
</mask>
<path d="M478.6 153.6H523.4V180H444.4V39.6H478.6V153.6ZM591.913 39.6V180H557.713V39.6H591.913ZM760.297 180H726.097L668.897 93.4V180H634.697V39.6H668.897L726.097 126.6V39.6H760.297V180ZM896.287 84C893.754 79.3333 890.088 75.8 885.288 73.4C880.621 70.8667 875.088 69.6 868.688 69.6C857.621 69.6 848.754 73.2667 842.087 80.6C835.421 87.8 832.088 97.4667 832.088 109.6C832.088 122.533 835.554 132.667 842.488 140C849.554 147.2 859.221 150.8 871.488 150.8C879.888 150.8 886.954 148.667 892.688 144.4C898.554 140.133 902.821 134 905.488 126H862.088V100.8H936.488V132.6C933.954 141.133 929.621 149.067 923.488 156.4C917.488 163.733 909.821 169.667 900.488 174.2C891.154 178.733 880.621 181 868.888 181C855.021 181 842.621 178 831.688 172C820.888 165.867 812.421 157.4 806.288 146.6C800.288 135.8 797.287 123.467 797.287 109.6C797.287 95.7333 800.288 83.4 806.288 72.6C812.421 61.6667 820.888 53.2 831.688 47.2C842.488 41.0667 854.821 38 868.688 38C885.488 38 899.621 42.0667 911.088 50.2C922.688 58.3333 930.354 69.6 934.088 84H896.287ZM551.4 264.8C551.4 272.933 549.533 280.4 545.8 287.2C542.067 293.867 536.333 299.267 528.6 303.4C520.867 307.533 511.267 309.6 499.8 309.6H478.6V360H444.4V219.6H499.8C511 219.6 520.467 221.533 528.2 225.4C535.933 229.267 541.733 234.6 545.6 241.4C549.467 248.2 551.4 256 551.4 264.8ZM497.2 282.4C503.733 282.4 508.6 280.867 511.8 277.8C515 274.733 516.6 270.4 516.6 264.8C516.6 259.2 515 254.867 511.8 251.8C508.6 248.733 503.733 247.2 497.2 247.2H478.6V282.4H497.2ZM654.605 335.2H602.205L593.805 360H558.005L608.805 219.6H648.405L699.205 360H663.005L654.605 335.2ZM645.805 308.8L628.405 257.4L611.205 308.8H645.805ZM833.066 219.6L784.466 313.6V360H750.266V313.6L701.666 219.6H740.466L767.666 278.4L794.666 219.6H833.066Z" fill="black"/>
<path d="M478.6 153.6H477.6V154.6H478.6V153.6ZM523.4 153.6H524.4V152.6H523.4V153.6ZM523.4 180V181H524.4V180H523.4ZM444.4 180H443.4V181H444.4V180ZM444.4 39.6V38.6H443.4V39.6H444.4ZM478.6 39.6H479.6V38.6H478.6V39.6ZM478.6 154.6H523.4V152.6H478.6V154.6ZM522.4 153.6V180H524.4V153.6H522.4ZM523.4 179H444.4V181H523.4V179ZM445.4 180V39.6H443.4V180H445.4ZM444.4 40.6H478.6V38.6H444.4V40.6ZM477.6 39.6V153.6H479.6V39.6H477.6ZM591.913 39.6H592.913V38.6H591.913V39.6ZM591.913 180V181H592.913V180H591.913ZM557.713 180H556.713V181H557.713V180ZM557.713 39.6V38.6H556.713V39.6H557.713ZM590.913 39.6V180H592.913V39.6H590.913ZM591.913 179H557.713V181H591.913V179ZM558.713 180V39.6H556.713V180H558.713ZM557.713 40.6H591.913V38.6H557.713V40.6ZM760.297 180V181H761.297V180H760.297ZM726.097 180L725.262 180.551L725.559 181H726.097V180ZM668.897 93.4L669.731 92.8489L667.897 90.0716V93.4H668.897ZM668.897 180V181H669.897V180H668.897ZM634.697 180H633.697V181H634.697V180ZM634.697 39.6V38.6H633.697V39.6H634.697ZM668.897 39.6L669.732 39.0506L669.436 38.6H668.897V39.6ZM726.097 126.6L725.261 127.149L727.097 129.941V126.6H726.097ZM726.097 39.6V38.6H725.097V39.6H726.097ZM760.297 39.6H761.297V38.6H760.297V39.6ZM760.297 179H726.097V181H760.297V179ZM726.931 179.449L669.731 92.8489L668.062 93.9511L725.262 180.551L726.931 179.449ZM667.897 93.4V180H669.897V93.4H667.897ZM668.897 179H634.697V181H668.897V179ZM635.697 180V39.6H633.697V180H635.697ZM634.697 40.6H668.897V38.6H634.697V40.6ZM668.061 40.1494L725.261 127.149L726.932 126.051L669.732 39.0506L668.061 40.1494ZM727.097 126.6V39.6H725.097V126.6H727.097ZM726.097 40.6H760.297V38.6H726.097V40.6ZM759.297 39.6V180H761.297V39.6H759.297ZM896.287 84L895.409 84.4771L895.693 85H896.287V84ZM885.288 73.4L884.81 74.2788L884.825 74.2869L884.84 74.2944L885.288 73.4ZM842.087 80.6L842.821 81.2794L842.827 81.2727L842.087 80.6ZM842.488 140L841.761 140.687L841.767 140.694L841.774 140.7L842.488 140ZM892.688 144.4L892.099 143.591L892.09 143.598L892.688 144.4ZM905.488 126L906.436 126.316L906.875 125H905.488V126ZM862.088 126H861.088V127H862.088V126ZM862.088 100.8V99.8H861.088V100.8H862.088ZM936.488 100.8H937.488V99.8H936.488V100.8ZM936.488 132.6L937.446 132.885L937.488 132.745V132.6H936.488ZM923.488 156.4L922.72 155.758L922.714 155.767L923.488 156.4ZM900.488 174.2L900.051 173.3L900.051 173.3L900.488 174.2ZM831.688 172L831.194 172.87L831.2 172.873L831.206 172.877L831.688 172ZM806.288 146.6L805.413 147.086L805.418 147.094L806.288 146.6ZM806.288 72.6L805.415 72.1107L805.413 72.1144L806.288 72.6ZM831.688 47.2L832.173 48.0742L832.181 48.0696L831.688 47.2ZM911.088 50.2L910.509 51.0157L910.513 51.0188L911.088 50.2ZM934.088 84V85H935.38L935.055 83.749L934.088 84ZM897.166 83.5229C894.534 78.6741 890.716 74.9961 885.735 72.5056L884.84 74.2944C889.459 76.6038 892.974 79.9925 895.409 84.4771L897.166 83.5229ZM885.765 72.5211C880.924 69.8935 875.22 68.6 868.688 68.6V70.6C874.955 70.6 880.317 71.8398 884.81 74.2788L885.765 72.5211ZM868.688 68.6C857.376 68.6 848.227 72.3599 841.348 79.9273L842.827 81.2727C849.281 74.1734 857.866 70.6 868.688 70.6V68.6ZM841.354 79.9206C834.478 87.3466 831.088 97.2772 831.088 109.6H833.088C833.088 97.6562 836.364 88.2533 842.821 81.2794L841.354 79.9206ZM831.088 109.6C831.088 122.714 834.607 133.12 841.761 140.687L843.214 139.313C836.502 132.213 833.088 122.353 833.088 109.6H831.088ZM841.774 140.7C849.068 148.132 859.014 151.8 871.488 151.8V149.8C859.427 149.8 850.04 146.268 843.201 139.3L841.774 140.7ZM871.488 151.8C880.064 151.8 887.35 149.619 893.285 145.202L892.09 143.598C886.559 147.715 879.711 149.8 871.488 149.8V151.8ZM893.276 145.209C899.337 140.8 903.715 134.481 906.436 126.316L904.539 125.684C901.927 133.519 897.771 139.466 892.099 143.591L893.276 145.209ZM905.488 125H862.088V127H905.488V125ZM863.088 126V100.8H861.088V126H863.088ZM862.088 101.8H936.488V99.8H862.088V101.8ZM935.488 100.8V132.6H937.488V100.8H935.488ZM935.529 132.315C933.037 140.708 928.773 148.522 922.72 155.758L924.255 157.042C930.469 149.611 934.871 141.558 937.446 132.885L935.529 132.315ZM922.714 155.767C916.814 162.978 909.266 168.824 900.051 173.3L900.924 175.1C910.376 170.509 918.161 164.489 924.261 157.033L922.714 155.767ZM900.051 173.3C890.87 177.76 880.489 180 868.888 180V182C880.752 182 891.438 179.707 900.924 175.1L900.051 173.3ZM868.888 180C855.17 180 842.939 177.034 832.169 171.123L831.206 172.877C842.303 178.966 854.872 182 868.888 182V180ZM832.181 171.13C821.538 165.086 813.201 156.749 807.157 146.106L805.418 147.094C811.64 158.051 820.237 166.647 831.194 172.87L832.181 171.13ZM807.162 146.114C801.254 135.48 798.287 123.318 798.287 109.6H796.287C796.287 123.615 799.321 136.12 805.413 147.086L807.162 146.114ZM798.287 109.6C798.287 95.8821 801.254 83.7196 807.162 73.0856L805.413 72.1144C799.321 83.0804 796.287 95.5846 796.287 109.6H798.287ZM807.16 73.0893C813.204 62.315 821.538 53.9828 832.173 48.0742L831.202 46.3258C820.237 52.4172 811.638 61.0183 805.415 72.1107L807.16 73.0893ZM832.181 48.0696C842.814 42.0313 854.973 39 868.688 39V37C854.668 37 842.161 40.102 831.194 46.3304L832.181 48.0696ZM868.688 39C885.322 39 899.242 43.0241 910.509 51.0156L911.666 49.3843C899.999 41.1092 885.653 37 868.688 37V39ZM910.513 51.0188C921.908 59.0084 929.443 70.0685 933.12 84.251L935.055 83.749C931.266 69.1315 923.467 57.6582 911.662 49.3812L910.513 51.0188ZM934.088 83H896.287V85H934.088V83ZM545.8 287.2L546.673 287.689L546.677 287.681L545.8 287.2ZM528.6 303.4L528.129 302.518L528.129 302.518L528.6 303.4ZM478.6 309.6V308.6H477.6V309.6H478.6ZM478.6 360V361H479.6V360H478.6ZM444.4 360H443.4V361H444.4V360ZM444.4 219.6V218.6H443.4V219.6H444.4ZM528.2 225.4L528.647 224.506L528.647 224.506L528.2 225.4ZM478.6 247.2V246.2H477.6V247.2H478.6ZM478.6 282.4H477.6V283.4H478.6V282.4ZM550.4 264.8C550.4 272.774 548.572 280.073 544.923 286.719L546.677 287.681C550.495 280.727 552.4 273.093 552.4 264.8H550.4ZM544.927 286.711C541.301 293.188 535.719 298.461 528.129 302.518L529.071 304.282C536.948 300.072 542.833 294.546 546.673 287.689L544.927 286.711ZM528.129 302.518C520.578 306.554 511.151 308.6 499.8 308.6V310.6C511.382 310.6 521.155 308.513 529.071 304.282L528.129 302.518ZM499.8 308.6H478.6V310.6H499.8V308.6ZM477.6 309.6V360H479.6V309.6H477.6ZM478.6 359H444.4V361H478.6V359ZM445.4 360V219.6H443.4V360H445.4ZM444.4 220.6H499.8V218.6H444.4V220.6ZM499.8 220.6C510.889 220.6 520.193 222.515 527.753 226.294L528.647 224.506C520.74 220.552 511.111 218.6 499.8 218.6V220.6ZM527.753 226.294C535.328 230.082 540.972 235.284 544.731 241.894L546.469 240.906C542.494 233.915 536.538 228.451 528.647 224.506L527.753 226.294ZM544.731 241.894C548.501 248.526 550.4 256.151 550.4 264.8H552.4C552.4 255.849 550.432 247.874 546.469 240.906L544.731 241.894ZM497.2 283.4C503.87 283.4 509.034 281.836 512.492 278.522L511.108 277.078C508.166 279.897 503.596 281.4 497.2 281.4V283.4ZM512.492 278.522C515.938 275.22 517.6 270.596 517.6 264.8H515.6C515.6 270.204 514.062 274.247 511.108 277.078L512.492 278.522ZM517.6 264.8C517.6 259.004 515.938 254.38 512.492 251.078L511.108 252.522C514.062 255.353 515.6 259.396 515.6 264.8H517.6ZM512.492 251.078C509.034 247.764 503.87 246.2 497.2 246.2V248.2C503.596 248.2 508.166 249.703 511.108 252.522L512.492 251.078ZM497.2 246.2H478.6V248.2H497.2V246.2ZM477.6 247.2V282.4H479.6V247.2H477.6ZM478.6 283.4H497.2V281.4H478.6V283.4ZM654.605 335.2L655.552 334.879L655.322 334.2H654.605V335.2ZM602.205 335.2V334.2H601.488L601.258 334.879L602.205 335.2ZM593.805 360V361H594.522L594.752 360.321L593.805 360ZM558.005 360L557.064 359.66L556.579 361H558.005V360ZM608.805 219.6V218.6H608.103L607.864 219.26L608.805 219.6ZM648.405 219.6L649.345 219.26L649.106 218.6H648.405V219.6ZM699.205 360V361H700.63L700.145 359.66L699.205 360ZM663.005 360L662.058 360.321L662.288 361H663.005V360ZM645.805 308.8V309.8H647.199L646.752 308.479L645.805 308.8ZM628.405 257.4L629.352 257.079L628.399 254.265L627.456 257.083L628.405 257.4ZM611.205 308.8L610.256 308.483L609.816 309.8H611.205V308.8ZM654.605 334.2H602.205V336.2H654.605V334.2ZM601.258 334.879L592.858 359.679L594.752 360.321L603.152 335.521L601.258 334.879ZM593.805 359H558.005V361H593.805V359ZM558.945 360.34L609.745 219.94L607.864 219.26L557.064 359.66L558.945 360.34ZM608.805 220.6H648.405V218.6H608.805V220.6ZM647.464 219.94L698.264 360.34L700.145 359.66L649.345 219.26L647.464 219.94ZM699.205 359H663.005V361H699.205V359ZM663.952 359.679L655.552 334.879L653.658 335.521L662.058 360.321L663.952 359.679ZM646.752 308.479L629.352 257.079L627.457 257.721L644.857 309.121L646.752 308.479ZM627.456 257.083L610.256 308.483L612.153 309.117L629.353 257.717L627.456 257.083ZM611.205 309.8H645.805V307.8H611.205V309.8ZM833.066 219.6L833.954 220.059L834.708 218.6H833.066V219.6ZM784.466 313.6L783.577 313.141L783.466 313.357V313.6H784.466ZM784.466 360V361H785.466V360H784.466ZM750.266 360H749.266V361H750.266V360ZM750.266 313.6H751.266V313.357L751.154 313.141L750.266 313.6ZM701.666 219.6V218.6H700.023L700.777 220.059L701.666 219.6ZM740.466 219.6L741.373 219.18L741.105 218.6H740.466V219.6ZM767.666 278.4L766.758 278.82L767.669 280.789L768.574 278.817L767.666 278.4ZM794.666 219.6V218.6H794.024L793.757 219.183L794.666 219.6ZM832.177 219.141L783.577 313.141L785.354 314.059L833.954 220.059L832.177 219.141ZM783.466 313.6V360H785.466V313.6H783.466ZM784.466 359H750.266V361H784.466V359ZM751.266 360V313.6H749.266V360H751.266ZM751.154 313.141L702.554 219.141L700.777 220.059L749.377 314.059L751.154 313.141ZM701.666 220.6H740.466V218.6H701.666V220.6ZM739.558 220.02L766.758 278.82L768.573 277.98L741.373 219.18L739.558 220.02ZM768.574 278.817L795.574 220.017L793.757 219.183L766.757 277.983L768.574 278.817ZM794.666 220.6H833.066V218.6H794.666V220.6Z" fill="black" mask="url(#path-2-outside-1_561_2)"/>
</g>
<defs>
<linearGradient id="paint0_linear_561_2" x1="180" y1="181.5" x2="-5.6608e-06" y2="-29" gradientUnits="userSpaceOnUse">
<stop stop-color="#3D96FF"/>
<stop offset="1" stop-color="#3D96FF" stop-opacity="0.3"/>
</linearGradient>
<clipPath id="clip0_561_2">
<rect width="944" height="400" fill="white"/>
</clipPath>
</defs>
</svg>
