<svg width="989" height="408" viewBox="0 0 989 408" fill="none" xmlns="http://www.w3.org/2000/svg">
<path d="M211.21 178.645H111.045L183.967 4L4 227.991H103.89L30.6924 404L211.21 178.645Z" fill="white"/>
<path d="M267.8 204C266.333 204 265.133 203.533 264.2 202.6C263.267 201.667 262.8 200.467 262.8 199V69C262.8 67.5333 263.267 66.3333 264.2 65.4C265.133 64.4667 266.333 64 267.8 64H357C358.467 64 359.667 64.4667 360.6 65.4C361.533 66.3333 362 67.5333 362 69V86C362 87.4667 361.533 88.6667 360.6 89.6C359.667 90.5333 358.467 91 357 91H294V124.8H353C354.467 124.8 355.667 125.267 356.6 126.2C357.533 127.133 358 128.333 358 129.8V146.8C358 148.133 357.533 149.267 356.6 150.2C355.667 151.133 354.467 151.6 353 151.6H294V199C294 200.467 293.533 201.667 292.6 202.6C291.667 203.533 290.467 204 289 204H267.8ZM409.675 204C408.208 204 407.008 203.533 406.075 202.6C405.142 201.667 404.675 200.467 404.675 199V69C404.675 67.5333 405.142 66.3333 406.075 65.4C407.008 64.4667 408.208 64 409.675 64H431.875C433.342 64 434.542 64.4667 435.475 65.4C436.408 66.3333 436.875 67.5333 436.875 69V177.2H498.875C500.342 177.2 501.542 177.667 502.475 178.6C503.408 179.533 503.875 180.733 503.875 182.2V199C503.875 200.467 503.408 201.667 502.475 202.6C501.542 203.533 500.342 204 498.875 204H409.675ZM534.053 204C532.853 204 531.853 203.6 531.053 202.8C530.253 201.867 529.853 200.867 529.853 199.8C529.853 199.133 529.92 198.533 530.053 198L577.653 69.4C578.053 67.9333 578.853 66.6667 580.053 65.6C581.253 64.5333 582.92 64 585.053 64H610.653C612.786 64 614.453 64.5333 615.653 65.6C616.853 66.6667 617.653 67.9333 618.053 69.4L665.653 198C665.786 198.533 665.853 199.133 665.853 199.8C665.853 200.867 665.453 201.867 664.653 202.8C663.853 203.6 662.853 204 661.653 204H640.853C638.853 204 637.386 203.533 636.453 202.6C635.52 201.667 634.92 200.8 634.653 200L626.053 177.6H569.653L561.053 200C560.786 200.8 560.186 201.667 559.253 202.6C558.32 203.533 556.853 204 554.853 204H534.053ZM577.053 151.8H618.453L597.853 94.2L577.053 151.8ZM751.325 206C738.525 206 727.792 204.133 719.125 200.4C710.592 196.667 704.125 191.8 699.725 185.8C695.325 179.8 692.992 173.4 692.725 166.6C692.725 165.533 693.125 164.6 693.925 163.8C694.725 162.867 695.725 162.4 696.925 162.4H718.325C720.058 162.4 721.392 162.8 722.325 163.6C723.258 164.267 724.125 165.133 724.925 166.2C725.858 168.467 727.325 170.667 729.325 172.8C731.458 174.933 734.325 176.733 737.925 178.2C741.525 179.533 745.992 180.2 751.325 180.2C759.992 180.2 766.458 178.8 770.725 176C775.125 173.2 777.325 169.4 777.325 164.6C777.325 161.133 776.125 158.333 773.725 156.2C771.458 154.067 767.792 152.133 762.725 150.4C757.792 148.667 751.192 146.8 742.925 144.8C732.925 142.667 724.392 139.933 717.325 136.6C710.392 133.133 705.125 128.733 701.525 123.4C698.058 117.933 696.325 111.2 696.325 103.2C696.325 95.2 698.525 88.1333 702.925 82C707.325 75.7333 713.525 70.8667 721.525 67.4C729.525 63.8 739.058 62 750.125 62C759.058 62 766.925 63.2 773.725 65.6C780.658 68 786.392 71.1333 790.925 75C795.592 78.8667 799.125 83 801.525 87.4C803.925 91.8 805.192 96.0667 805.325 100.2C805.325 101.267 804.925 102.267 804.125 103.2C803.325 104 802.325 104.4 801.125 104.4H778.725C777.392 104.4 776.192 104.133 775.125 103.6C774.058 103.067 773.192 102.133 772.525 100.8C771.725 97.3333 769.325 94.3333 765.325 91.8C761.458 89.1333 756.392 87.8 750.125 87.8C743.592 87.8 738.392 89 734.525 91.4C730.792 93.8 728.925 97.4667 728.925 102.4C728.925 105.6 729.858 108.333 731.725 110.6C733.725 112.733 736.992 114.667 741.525 116.4C746.192 118 752.325 119.8 759.925 121.8C771.658 124.2 781.192 127.067 788.525 130.4C795.858 133.733 801.258 138.067 804.725 143.4C808.192 148.6 809.925 155.2 809.925 163.2C809.925 172.133 807.392 179.8 802.325 186.2C797.392 192.6 790.525 197.533 781.725 201C773.058 204.333 762.925 206 751.325 206ZM856.394 204C854.927 204 853.727 203.533 852.794 202.6C851.86 201.667 851.394 200.467 851.394 199V69C851.394 67.5333 851.86 66.3333 852.794 65.4C853.727 64.4667 854.927 64 856.394 64H878.194C879.66 64 880.86 64.4667 881.794 65.4C882.727 66.3333 883.194 67.5333 883.194 69V119H937.394V69C937.394 67.5333 937.86 66.3333 938.794 65.4C939.727 64.4667 940.927 64 942.394 64H964.194C965.66 64 966.86 64.4667 967.794 65.4C968.727 66.3333 969.194 67.5333 969.194 69V199C969.194 200.467 968.727 201.667 967.794 202.6C966.86 203.533 965.66 204 964.194 204H942.394C940.927 204 939.727 203.533 938.794 202.6C937.86 201.667 937.394 200.467 937.394 199V147.4H883.194V199C883.194 200.467 882.727 201.667 881.794 202.6C880.86 203.533 879.66 204 878.194 204H856.394ZM264.936 350C263.963 350 263.184 349.708 262.6 349.124C262.016 348.54 261.724 347.761 261.724 346.788V251.158C261.724 250.087 262.016 249.26 262.6 248.676C263.184 248.092 263.963 247.8 264.936 247.8H300.414C307.227 247.8 313.116 248.968 318.08 251.304C323.141 253.543 327.035 256.901 329.76 261.378C332.583 265.855 333.994 271.403 333.994 278.022C333.994 284.641 332.583 290.189 329.76 294.666C327.035 299.143 323.141 302.55 318.08 304.886C313.116 307.125 307.227 308.244 300.414 308.244H270.922V346.788C270.922 347.761 270.63 348.54 270.046 349.124C269.462 349.708 268.635 350 267.564 350H264.936ZM270.922 299.484H299.684C308.152 299.484 314.43 297.635 318.518 293.936C322.703 290.237 324.796 284.933 324.796 278.022C324.796 271.111 322.703 265.807 318.518 262.108C314.43 258.409 308.152 256.56 299.684 256.56H270.922V299.484ZM340.684 350C339.905 350 339.224 349.708 338.64 349.124C338.056 348.54 337.764 347.859 337.764 347.08C337.764 346.593 337.861 346.058 338.056 345.474L374.994 250.72C375.383 249.747 375.87 249.017 376.454 248.53C377.135 248.043 378.06 247.8 379.228 247.8H384.192C385.36 247.8 386.236 248.043 386.82 248.53C387.501 249.017 388.036 249.747 388.426 250.72L425.364 345.474C425.558 346.058 425.656 346.593 425.656 347.08C425.656 347.859 425.364 348.54 424.78 349.124C424.196 349.708 423.514 350 422.736 350H419.816C418.842 350 418.112 349.757 417.626 349.27C417.139 348.686 416.798 348.199 416.604 347.81L407.552 324.45H355.868L346.816 347.81C346.718 348.199 346.378 348.686 345.794 349.27C345.307 349.757 344.577 350 343.604 350H340.684ZM359.372 315.69H404.048L381.71 258.166L359.372 315.69ZM463.912 350C462.939 350 462.16 349.708 461.576 349.124C460.992 348.54 460.7 347.761 460.7 346.788V311.018L425.076 252.618C424.979 252.326 424.833 252.034 424.638 251.742C424.541 251.45 424.492 251.109 424.492 250.72C424.492 249.941 424.784 249.26 425.368 248.676C425.952 248.092 426.634 247.8 427.412 247.8H430.332C431.014 247.8 431.646 247.995 432.23 248.384C432.814 248.676 433.301 249.211 433.69 249.99L465.372 301.528L497.054 249.99C497.541 249.211 498.028 248.676 498.514 248.384C499.098 247.995 499.731 247.8 500.412 247.8H503.332C504.111 247.8 504.792 248.092 505.376 248.676C505.96 249.26 506.252 249.941 506.252 250.72C506.252 251.109 506.204 251.45 506.106 251.742C506.009 252.034 505.863 252.326 505.668 252.618L470.044 311.018V346.788C470.044 347.761 469.752 348.54 469.168 349.124C468.584 349.708 467.757 350 466.686 350H463.912ZM528.566 350C527.593 350 526.766 349.708 526.084 349.124C525.5 348.54 525.208 347.761 525.208 346.788V251.158C525.208 250.087 525.5 249.26 526.084 248.676C526.766 248.092 527.593 247.8 528.566 247.8H532.216C533.19 247.8 533.92 248.043 534.406 248.53C534.893 249.017 535.185 249.406 535.282 249.698L568.424 314.23L601.712 249.698C601.907 249.406 602.199 249.017 602.588 248.53C603.075 248.043 603.805 247.8 604.778 247.8H608.282C609.353 247.8 610.18 248.092 610.764 248.676C611.348 249.26 611.64 250.087 611.64 251.158V346.788C611.64 347.761 611.348 348.54 610.764 349.124C610.18 349.708 609.353 350 608.282 350H605.654C604.681 350 603.902 349.708 603.318 349.124C602.734 348.54 602.442 347.761 602.442 346.788V267.656L574.556 322.552C574.167 323.525 573.583 324.255 572.804 324.742C572.123 325.229 571.198 325.472 570.03 325.472H566.818C565.65 325.472 564.726 325.229 564.044 324.742C563.363 324.255 562.779 323.525 562.292 322.552L534.406 267.656V346.788C534.406 347.761 534.114 348.54 533.53 349.124C532.946 349.708 532.168 350 531.194 350H528.566ZM642.34 350C641.367 350 640.588 349.708 640.004 349.124C639.42 348.54 639.128 347.761 639.128 346.788V251.158C639.128 250.087 639.42 249.26 640.004 248.676C640.588 248.092 641.367 247.8 642.34 247.8H699.28C700.351 247.8 701.178 248.092 701.762 248.676C702.346 249.26 702.638 250.087 702.638 251.158V253.348C702.638 254.321 702.346 255.1 701.762 255.684C701.178 256.268 700.351 256.56 699.28 256.56H648.326V293.79H696.068C697.139 293.79 697.966 294.082 698.55 294.666C699.134 295.25 699.426 296.077 699.426 297.148V299.338C699.426 300.311 699.134 301.09 698.55 301.674C697.966 302.258 697.139 302.55 696.068 302.55H648.326V341.24H700.448C701.519 341.24 702.346 341.532 702.93 342.116C703.514 342.7 703.806 343.527 703.806 344.598V346.788C703.806 347.761 703.514 348.54 702.93 349.124C702.346 349.708 701.519 350 700.448 350H642.34ZM728.743 350C727.769 350 726.991 349.708 726.407 349.124C725.823 348.54 725.531 347.761 725.531 346.788V251.158C725.531 250.087 725.823 249.26 726.407 248.676C726.991 248.092 727.769 247.8 728.743 247.8H731.809C732.782 247.8 733.512 248.043 733.999 248.53C734.485 249.017 734.777 249.357 734.875 249.552L788.749 331.896V251.158C788.749 250.087 789.041 249.26 789.625 248.676C790.209 248.092 790.987 247.8 791.961 247.8H794.589C795.659 247.8 796.487 248.092 797.071 248.676C797.655 249.26 797.947 250.087 797.947 251.158V346.642C797.947 347.615 797.655 348.443 797.071 349.124C796.487 349.708 795.708 350 794.735 350H791.523C790.549 350 789.819 349.757 789.333 349.27C788.943 348.783 788.651 348.443 788.457 348.248L734.729 266.196V346.788C734.729 347.761 734.437 348.54 733.853 349.124C733.269 349.708 732.441 350 731.371 350H728.743ZM850.885 350C849.912 350 849.133 349.708 848.549 349.124C847.965 348.54 847.673 347.761 847.673 346.788V256.56H818.765C817.792 256.56 817.013 256.268 816.429 255.684C815.845 255.1 815.553 254.321 815.553 253.348V251.158C815.553 250.087 815.845 249.26 816.429 248.676C817.013 248.092 817.792 247.8 818.765 247.8H885.633C886.704 247.8 887.531 248.092 888.115 248.676C888.699 249.26 888.991 250.087 888.991 251.158V253.348C888.991 254.321 888.699 255.1 888.115 255.684C887.531 256.268 886.704 256.56 885.633 256.56H856.871V346.788C856.871 347.761 856.579 348.54 855.995 349.124C855.411 349.708 854.584 350 853.513 350H850.885ZM936.552 351.46C928.668 351.46 921.952 350.195 916.404 347.664C910.953 345.133 906.768 341.873 903.848 337.882C900.928 333.891 899.371 329.657 899.176 325.18C899.176 324.401 899.468 323.72 900.052 323.136C900.636 322.552 901.366 322.26 902.242 322.26H905.162C906.135 322.26 906.865 322.552 907.352 323.136C907.936 323.72 908.277 324.401 908.374 325.18C908.763 327.905 909.98 330.631 912.024 333.356C914.068 335.984 917.085 338.223 921.076 340.072C925.067 341.824 930.225 342.7 936.552 342.7C946.091 342.7 953.05 340.997 957.43 337.59C961.81 334.086 964 329.414 964 323.574C964 319.681 962.832 316.566 960.496 314.23C958.257 311.797 954.802 309.655 950.13 307.806C945.458 305.859 939.472 303.718 932.172 301.382C925.261 299.143 919.567 296.856 915.09 294.52C910.613 292.087 907.303 289.167 905.162 285.76C903.118 282.353 902.096 277.973 902.096 272.62C902.096 267.656 903.41 263.227 906.038 259.334C908.666 255.343 912.462 252.18 917.426 249.844C922.487 247.508 928.619 246.34 935.822 246.34C941.565 246.34 946.577 247.119 950.86 248.676C955.143 250.233 958.695 252.326 961.518 254.954C964.341 257.485 966.482 260.259 967.942 263.276C969.402 266.196 970.181 269.067 970.278 271.89C970.278 272.571 970.035 273.253 969.548 273.934C969.061 274.518 968.283 274.81 967.212 274.81H964.292C963.805 274.81 963.173 274.615 962.394 274.226C961.713 273.837 961.275 273.058 961.08 271.89C960.496 267.023 957.917 263.033 953.342 259.918C948.865 256.706 943.025 255.1 935.822 255.1C928.619 255.1 922.731 256.511 918.156 259.334C913.581 262.157 911.294 266.585 911.294 272.62C911.294 276.513 912.316 279.725 914.36 282.256C916.404 284.689 919.616 286.879 923.996 288.826C928.376 290.675 934.021 292.719 940.932 294.958C948.232 297.294 954.267 299.63 959.036 301.966C963.805 304.302 967.358 307.173 969.694 310.58C972.03 313.889 973.198 318.221 973.198 323.574C973.198 329.511 971.689 334.573 968.672 338.758C965.752 342.846 961.567 346.009 956.116 348.248C950.665 350.389 944.144 351.46 936.552 351.46Z" fill="white"/>
</svg>
