<svg width="1287" height="408" viewBox="0 0 1287 408" fill="none" xmlns="http://www.w3.org/2000/svg">
<g clip-path="url(#clip0_401_2)">
<g clip-path="url(#clip1_401_2)">
<path d="M263 54C318.234 54 363 98.7754 363 154C363 209.234 318.234 254 263 254C207.775 254 163 209.229 163 154C163 98.7754 207.775 54 263 54Z" fill="#F5AC37"/>
<path d="M266.686 161.061H304.684C305.494 161.061 305.876 161.061 305.935 159.999C306.245 156.133 306.245 152.245 305.935 148.375C305.935 147.623 305.561 147.313 304.747 147.313H229.124C228.188 147.313 227.936 147.623 227.936 148.501V159.625C227.936 161.061 227.936 161.061 229.434 161.061H266.686ZM301.691 134.312C301.799 134.029 301.799 133.718 301.691 133.439C301.057 132.058 300.305 130.739 299.432 129.502C298.118 127.387 296.57 125.438 294.806 123.688C293.974 122.63 293.011 121.681 291.931 120.875C286.522 116.272 280.091 113.014 273.179 111.376C269.692 110.593 266.128 110.219 262.555 110.251H228.993C228.057 110.251 227.931 110.624 227.931 111.439V133.624C227.931 134.56 227.931 134.812 229.119 134.812H301.241C301.241 134.812 301.867 134.686 301.993 134.312H301.687H301.691ZM301.691 174.061C300.629 173.944 299.558 173.944 298.496 174.061H229.187C228.251 174.061 227.936 174.061 227.936 175.312V197.002C227.936 198.001 227.936 198.253 229.187 198.253H261.187C262.717 198.37 264.247 198.262 265.745 197.943C270.389 197.61 274.957 196.602 279.313 194.941C280.897 194.392 282.427 193.677 283.871 192.817H284.308C291.809 188.916 297.902 182.787 301.745 175.263C301.745 175.263 302.182 174.318 301.691 174.07V174.061ZM215.376 209.499V209.126V194.563V189.627V174.939C215.376 174.124 215.376 174.003 214.377 174.003H200.814C200.062 174.003 199.752 174.003 199.752 173.004V161.128H214.251C215.061 161.128 215.376 161.128 215.376 160.066V148.316C215.376 147.565 215.376 147.38 214.377 147.38H200.814C200.062 147.38 199.752 147.38 199.752 146.381V135.383C199.752 134.695 199.752 134.51 200.751 134.51H214.188C215.124 134.51 215.376 134.51 215.376 133.322V99.6349C215.376 98.6359 215.376 98.3839 216.627 98.3839H263.5C266.902 98.5189 270.281 98.8924 273.625 99.5089C280.514 100.782 287.134 103.244 293.186 106.758C297.2 109.121 300.895 111.974 304.184 115.259C306.659 117.829 308.891 120.61 310.872 123.571C312.838 126.572 314.472 129.781 315.754 133.133C315.912 134.006 316.749 134.596 317.622 134.447H328.809C330.244 134.447 330.244 134.447 330.307 135.824V146.075C330.307 147.074 329.934 147.326 328.93 147.326H320.304C319.431 147.326 319.179 147.326 319.242 148.451C319.584 152.258 319.584 156.079 319.242 159.886C319.242 160.948 319.242 161.074 320.434 161.074H330.303C330.739 161.637 330.303 162.199 330.303 162.766C330.366 163.491 330.366 164.224 330.303 164.949V172.513C330.303 173.575 329.992 173.89 329.052 173.89H317.239C316.416 173.733 315.615 174.259 315.426 175.078C312.613 182.391 308.113 188.947 302.299 194.203C300.175 196.116 297.943 197.916 295.612 199.576C293.11 201.016 290.675 202.515 288.11 203.703C283.39 205.827 278.44 207.393 273.359 208.388C268.535 209.252 263.644 209.643 258.734 209.576H215.358V209.513L215.376 209.499Z" fill="#FEFEFD"/>
</g>
<g clip-path="url(#clip2_401_2)">
<path fill-rule="evenodd" clip-rule="evenodd" d="M36.6202 57.8544L0.153189 134.453C0.014422 134.738 -0.0295526 135.06 0.0276967 135.372C0.084946 135.683 0.240416 135.969 0.47137 136.186L98.96 230.562C99.2398 230.83 99.6124 230.98 100 230.98C100.388 230.98 100.76 230.83 101.04 230.562L199.529 136.192C199.76 135.975 199.915 135.689 199.972 135.378C200.03 135.066 199.986 134.744 199.847 134.459L163.38 57.8603C163.262 57.603 163.073 57.3851 162.835 57.2325C162.596 57.08 162.319 56.9992 162.036 57H37.9754C37.6912 56.9965 37.412 57.0752 37.1715 57.2268C36.931 57.3784 36.7396 57.5964 36.6202 57.8544Z" fill="#50AF95"/>
<path fill-rule="evenodd" clip-rule="evenodd" d="M112.654 142.32C111.946 142.373 108.293 142.591 100.144 142.591C93.6629 142.591 89.0611 142.396 87.4466 142.32C62.3987 141.218 43.7027 136.857 43.7027 131.637C43.7027 126.416 62.3987 122.062 87.4466 120.943V137.977C89.0846 138.095 93.7748 138.372 100.256 138.372C108.034 138.372 111.929 138.048 112.63 137.983V120.954C137.625 122.068 156.28 126.428 156.28 131.637C156.28 136.846 137.631 141.206 112.63 142.314L112.654 142.32ZM112.654 119.193V103.949H147.536V80.7045H52.5646V103.949H87.4407V119.187C59.0932 120.489 37.7751 126.104 37.7751 132.833C37.7751 139.562 59.0932 145.171 87.4407 146.479V195.326H112.648V146.462C140.93 145.16 162.213 139.55 162.213 132.827C162.213 126.104 140.948 120.495 112.648 119.187L112.654 119.193Z" fill="white"/>
</g>
<g clip-path="url(#clip3_401_2)">
<path d="M188 340C243.417 340 288 295.417 288 240C288 184.583 243.417 140 188 140C132.583 140 88 184.583 88 240C88 295.417 132.583 340 188 340Z" fill="#2775CA"/>
<path d="M215.5 255.833C215.5 241.25 206.75 236.25 189.25 234.167C176.75 232.5 174.25 229.167 174.25 223.333C174.25 217.499 178.417 213.75 186.75 213.75C194.25 213.75 198.417 216.25 200.5 222.5C200.917 223.75 202.167 224.583 203.417 224.583H210.083C211.75 224.583 213 223.333 213 221.667V221.25C211.333 212.083 203.833 205 194.25 204.167V194.167C194.25 192.5 193 191.25 190.917 190.833H184.667C183 190.833 181.75 192.083 181.333 194.167V203.75C168.833 205.417 160.917 213.75 160.917 224.167C160.917 237.917 169.25 243.333 186.75 245.417C198.417 247.5 202.167 250 202.167 256.667C202.167 263.334 196.333 267.917 188.417 267.917C177.583 267.917 173.833 263.333 172.583 257.083C172.167 255.417 170.917 254.583 169.667 254.583H162.583C160.917 254.583 159.667 255.833 159.667 257.5V257.917C161.333 268.333 168 275.833 181.75 277.917V287.917C181.75 289.583 183 290.833 185.083 291.25H191.333C193 291.25 194.25 290 194.667 287.917V277.917C207.167 275.833 215.5 267.083 215.5 255.833Z" fill="white"/>
<path d="M166.75 299.583C134.25 287.917 117.583 251.667 129.667 219.583C135.917 202.083 149.667 188.75 166.75 182.5C168.417 181.667 169.25 180.417 169.25 178.333V172.5C169.25 170.833 168.417 169.583 166.75 169.167C166.333 169.167 165.5 169.167 165.083 169.583C125.5 182.083 103.833 224.167 116.333 263.75C123.833 287.083 141.75 305 165.083 312.5C166.75 313.333 168.417 312.5 168.833 310.833C169.25 310.417 169.25 310 169.25 309.167V303.333C169.25 302.083 168 300.417 166.75 299.583ZM210.917 169.583C209.25 168.75 207.583 169.583 207.167 171.25C206.75 171.667 206.75 172.083 206.75 172.917V178.75C206.75 180.417 208 182.083 209.25 182.917C241.75 194.583 258.417 230.833 246.333 262.917C240.083 280.417 226.333 293.75 209.25 300C207.583 300.833 206.75 302.083 206.75 304.167V310C206.75 311.667 207.583 312.917 209.25 313.333C209.667 313.333 210.5 313.333 210.917 312.917C250.5 300.417 272.167 258.333 259.667 218.75C252.167 195 233.833 177.083 210.917 169.583Z" fill="white"/>
</g>
<path d="M442.72 188.19C433.993 188.19 426.173 186.773 419.26 183.94C412.347 181.107 406.793 176.913 402.6 171.36C398.52 165.807 396.367 159.12 396.14 151.3H427.08C427.533 155.72 429.063 159.12 431.67 161.5C434.277 163.767 437.677 164.9 441.87 164.9C446.177 164.9 449.577 163.937 452.07 162.01C454.563 159.97 455.81 157.193 455.81 153.68C455.81 150.733 454.79 148.297 452.75 146.37C450.823 144.443 448.387 142.857 445.44 141.61C442.607 140.363 438.527 138.947 433.2 137.36C425.493 134.98 419.203 132.6 414.33 130.22C409.457 127.84 405.263 124.327 401.75 119.68C398.237 115.033 396.48 108.97 396.48 101.49C396.48 90.3833 400.503 81.7133 408.55 75.48C416.597 69.1333 427.08 65.96 440 65.96C453.147 65.96 463.743 69.1333 471.79 75.48C479.837 81.7133 484.143 90.44 484.71 101.66H453.26C453.033 97.8067 451.617 94.8033 449.01 92.65C446.403 90.3833 443.06 89.25 438.98 89.25C435.467 89.25 432.633 90.2133 430.48 92.14C428.327 93.9533 427.25 96.6167 427.25 100.13C427.25 103.983 429.063 106.987 432.69 109.14C436.317 111.293 441.983 113.617 449.69 116.11C457.397 118.717 463.63 121.21 468.39 123.59C473.263 125.97 477.457 129.427 480.97 133.96C484.483 138.493 486.24 144.33 486.24 151.47C486.24 158.27 484.483 164.447 480.97 170C477.57 175.553 472.583 179.973 466.01 183.26C459.437 186.547 451.673 188.19 442.72 188.19ZM552.75 162.35V187H537.96C527.42 187 519.203 184.45 513.31 179.35C507.417 174.137 504.47 165.693 504.47 154.02V116.28H492.91V92.14H504.47V69.02H533.54V92.14H552.58V116.28H533.54V154.36C533.54 157.193 534.22 159.233 535.58 160.48C536.94 161.727 539.207 162.35 542.38 162.35H552.75ZM558.912 139.4C558.912 129.653 560.726 121.097 564.352 113.73C568.092 106.363 573.136 100.697 579.482 96.73C585.829 92.7633 592.912 90.78 600.732 90.78C607.419 90.78 613.256 92.14 618.242 94.86C623.342 97.58 627.252 101.15 629.972 105.57V92.14H659.042V187H629.972V173.57C627.139 177.99 623.172 181.56 618.072 184.28C613.086 187 607.249 188.36 600.562 188.36C592.856 188.36 585.829 186.377 579.482 182.41C573.136 178.33 568.092 172.607 564.352 165.24C560.726 157.76 558.912 149.147 558.912 139.4ZM629.972 139.57C629.972 132.317 627.932 126.593 623.852 122.4C619.886 118.207 615.012 116.11 609.232 116.11C603.452 116.11 598.522 118.207 594.442 122.4C590.476 126.48 588.492 132.147 588.492 139.4C588.492 146.653 590.476 152.433 594.442 156.74C598.522 160.933 603.452 163.03 609.232 163.03C615.012 163.03 619.886 160.933 623.852 156.74C627.932 152.547 629.972 146.823 629.972 139.57ZM704.893 105.57C707.613 101.15 711.523 97.58 716.623 94.86C721.723 92.14 727.56 90.78 734.133 90.78C741.953 90.78 749.037 92.7633 755.383 96.73C761.73 100.697 766.717 106.363 770.343 113.73C774.083 121.097 775.953 129.653 775.953 139.4C775.953 149.147 774.083 157.76 770.343 165.24C766.717 172.607 761.73 178.33 755.383 182.41C749.037 186.377 741.953 188.36 734.133 188.36C727.447 188.36 721.61 187.057 716.623 184.45C711.637 181.73 707.727 178.16 704.893 173.74V187H675.823V61.2H704.893V105.57ZM746.373 139.4C746.373 132.147 744.333 126.48 740.253 122.4C736.287 118.207 731.357 116.11 725.463 116.11C719.683 116.11 714.753 118.207 710.673 122.4C706.707 126.593 704.723 132.317 704.723 139.57C704.723 146.823 706.707 152.547 710.673 156.74C714.753 160.933 719.683 163.03 725.463 163.03C731.243 163.03 736.173 160.933 740.253 156.74C744.333 152.433 746.373 146.653 746.373 139.4ZM816.024 61.2V187H786.954V61.2H816.024ZM922.261 138.04C922.261 140.76 922.091 143.593 921.751 146.54H855.961C856.414 152.433 858.284 156.967 861.571 160.14C864.971 163.2 869.107 164.73 873.981 164.73C881.234 164.73 886.277 161.67 889.111 155.55H920.051C918.464 161.783 915.574 167.393 911.381 172.38C907.301 177.367 902.144 181.277 895.911 184.11C889.677 186.943 882.707 188.36 875.001 188.36C865.707 188.36 857.434 186.377 850.181 182.41C842.927 178.443 837.261 172.777 833.181 165.41C829.101 158.043 827.061 149.43 827.061 139.57C827.061 129.71 829.044 121.097 833.011 113.73C837.091 106.363 842.757 100.697 850.011 96.73C857.264 92.7633 865.594 90.78 875.001 90.78C884.181 90.78 892.341 92.7067 899.481 96.56C906.621 100.413 912.174 105.91 916.141 113.05C920.221 120.19 922.261 128.52 922.261 138.04ZM892.511 130.39C892.511 125.403 890.811 121.437 887.411 118.49C884.011 115.543 879.761 114.07 874.661 114.07C869.787 114.07 865.651 115.487 862.251 118.32C858.964 121.153 856.924 125.177 856.131 130.39H892.511ZM927.567 139.57C927.567 129.71 929.55 121.097 933.517 113.73C937.597 106.363 943.207 100.697 950.347 96.73C957.6 92.7633 965.873 90.78 975.167 90.78C987.067 90.78 996.983 93.8967 1004.92 100.13C1012.96 106.363 1018.23 115.147 1020.73 126.48H989.787C987.18 119.227 982.137 115.6 974.657 115.6C969.33 115.6 965.08 117.697 961.907 121.89C958.733 125.97 957.147 131.863 957.147 139.57C957.147 147.277 958.733 153.227 961.907 157.42C965.08 161.5 969.33 163.54 974.657 163.54C982.137 163.54 987.18 159.913 989.787 152.66H1020.73C1018.23 163.767 1012.96 172.493 1004.92 178.84C996.87 185.187 986.953 188.36 975.167 188.36C965.873 188.36 957.6 186.377 950.347 182.41C943.207 178.443 937.597 172.777 933.517 165.41C929.55 158.043 927.567 149.43 927.567 139.57ZM1075.21 188.36C1065.91 188.36 1057.53 186.377 1050.05 182.41C1042.68 178.443 1036.84 172.777 1032.54 165.41C1028.34 158.043 1026.25 149.43 1026.25 139.57C1026.25 129.823 1028.4 121.267 1032.71 113.9C1037.01 106.42 1042.91 100.697 1050.39 96.73C1057.87 92.7633 1066.25 90.78 1075.55 90.78C1084.84 90.78 1093.23 92.7633 1100.71 96.73C1108.19 100.697 1114.08 106.42 1118.39 113.9C1122.69 121.267 1124.85 129.823 1124.85 139.57C1124.85 149.317 1122.64 157.93 1118.22 165.41C1113.91 172.777 1107.96 178.443 1100.37 182.41C1092.89 186.377 1084.5 188.36 1075.21 188.36ZM1075.21 163.2C1080.76 163.2 1085.46 161.16 1089.32 157.08C1093.28 153 1095.27 147.163 1095.27 139.57C1095.27 131.977 1093.34 126.14 1089.49 122.06C1085.75 117.98 1081.1 115.94 1075.55 115.94C1069.88 115.94 1065.18 117.98 1061.44 122.06C1057.7 126.027 1055.83 131.863 1055.83 139.57C1055.83 147.163 1057.64 153 1061.27 157.08C1065.01 161.16 1069.65 163.2 1075.21 163.2ZM1150.64 82.28C1145.54 82.28 1141.35 80.8067 1138.06 77.86C1134.89 74.8 1133.3 71.06 1133.3 66.64C1133.3 62.1067 1134.89 58.3667 1138.06 55.42C1141.35 52.36 1145.54 50.83 1150.64 50.83C1155.63 50.83 1159.71 52.36 1162.88 55.42C1166.17 58.3667 1167.81 62.1067 1167.81 66.64C1167.81 71.06 1166.17 74.8 1162.88 77.86C1159.71 80.8067 1155.63 82.28 1150.64 82.28ZM1165.09 92.14V187H1136.02V92.14H1165.09ZM1239.71 91.12C1250.81 91.12 1259.65 94.7467 1266.23 102C1272.91 109.14 1276.26 119 1276.26 131.58V187H1247.36V135.49C1247.36 129.143 1245.71 124.213 1242.43 120.7C1239.14 117.187 1234.72 115.43 1229.17 115.43C1223.61 115.43 1219.19 117.187 1215.91 120.7C1212.62 124.213 1210.98 129.143 1210.98 135.49V187H1181.91V92.14H1210.98V104.72C1213.92 100.527 1217.89 97.24 1222.88 94.86C1227.86 92.3667 1233.47 91.12 1239.71 91.12Z" fill="white"/>
<path d="M1058.69 220.66V340H1029.62V268.43L1002.93 340H979.47L952.61 268.26V340H923.54V220.66H957.88L991.37 303.28L1024.52 220.66H1058.69ZM1067.01 292.4C1067.01 282.653 1068.83 274.097 1072.45 266.73C1076.19 259.363 1081.24 253.697 1087.58 249.73C1093.93 245.763 1101.01 243.78 1108.83 243.78C1115.52 243.78 1121.36 245.14 1126.34 247.86C1131.44 250.58 1135.35 254.15 1138.07 258.57V245.14H1167.14V340H1138.07V326.57C1135.24 330.99 1131.27 334.56 1126.17 337.28C1121.19 340 1115.35 341.36 1108.66 341.36C1100.96 341.36 1093.93 339.377 1087.58 335.41C1081.24 331.33 1076.19 325.607 1072.45 318.24C1068.83 310.76 1067.01 302.147 1067.01 292.4ZM1138.07 292.57C1138.07 285.317 1136.03 279.593 1131.95 275.4C1127.99 271.207 1123.11 269.11 1117.33 269.11C1111.55 269.11 1106.62 271.207 1102.54 275.4C1098.58 279.48 1096.59 285.147 1096.59 292.4C1096.59 299.653 1098.58 305.433 1102.54 309.74C1106.62 313.933 1111.55 316.03 1117.33 316.03C1123.11 316.03 1127.99 313.933 1131.95 309.74C1136.03 305.547 1138.07 299.823 1138.07 292.57ZM1210.45 258.57C1213.28 254.15 1217.19 250.58 1222.18 247.86C1227.16 245.14 1233 243.78 1239.69 243.78C1247.51 243.78 1254.59 245.763 1260.94 249.73C1267.28 253.697 1272.27 259.363 1275.9 266.73C1279.64 274.097 1281.51 282.653 1281.51 292.4C1281.51 302.147 1279.64 310.76 1275.9 318.24C1272.27 325.607 1267.28 331.33 1260.94 335.41C1254.59 339.377 1247.51 341.36 1239.69 341.36C1233.11 341.36 1227.28 340 1222.18 337.28C1217.19 334.56 1213.28 331.047 1210.45 326.74V385.22H1181.38V245.14H1210.45V258.57ZM1251.93 292.4C1251.93 285.147 1249.89 279.48 1245.81 275.4C1241.84 271.207 1236.91 269.11 1231.02 269.11C1225.24 269.11 1220.31 271.207 1216.23 275.4C1212.26 279.593 1210.28 285.317 1210.28 292.57C1210.28 299.823 1212.26 305.547 1216.23 309.74C1220.31 313.933 1225.24 316.03 1231.02 316.03C1236.8 316.03 1241.73 313.933 1245.81 309.74C1249.89 305.433 1251.93 299.653 1251.93 292.4Z" fill="white"/>
</g>
<defs>
<clipPath id="clip0_401_2">
<rect width="1287" height="408" fill="white"/>
</clipPath>
<clipPath id="clip1_401_2">
<rect width="200" height="200" fill="white" transform="translate(163 54)"/>
</clipPath>
<clipPath id="clip2_401_2">
<rect width="200" height="173.98" fill="white" transform="translate(0 57)"/>
</clipPath>
<clipPath id="clip3_401_2">
<rect width="200" height="200" fill="white" transform="translate(88 140)"/>
</clipPath>
</defs>
</svg>
