<svg width="160" height="160" viewBox="0 0 160 160" fill="none" xmlns="http://www.w3.org/2000/svg">
<rect width="160" height="160" fill="#2E4592"/>
<path d="M124.518 15.648L141.248 44.6272L141.267 44.6144L158.528 74.5088C160.589 78.0608 160.422 82.2912 158.47 85.5936L141.267 115.386L140.915 115.955L124.006 145.242C121.984 148.755 118.31 150.726 114.528 150.733V150.778H45.4784C41.0432 150.778 37.216 148.147 35.488 144.352L18.7584 115.373L18.7392 115.386L1.47839 85.4912C-0.582408 81.9392 -0.416008 77.7088 1.53599 74.4064L18.7392 44.6144L19.0912 44.0448L36 14.7584C38.0224 11.2448 41.696 9.27361 45.4784 9.26721V9.22241H114.522C118.957 9.22241 122.784 11.8592 124.518 15.648Z" fill="#2E4592"/>
<path d="M58.4448 108.947C60.7104 108.947 62.5536 110.79 62.5536 113.056C62.5536 115.322 60.7104 117.165 58.4448 117.165H49.6896C45.7728 117.165 42.2144 115.539 39.6352 112.915C37.0752 110.31 35.4816 106.726 35.4816 102.79V69.9264C35.4816 65.9904 37.0752 62.4064 39.6352 59.8016C42.2144 57.1776 45.7792 55.5456 49.6896 55.5456H70.2912V44.0384H39.9488C37.6832 44.0384 35.84 42.1952 35.84 39.9296C35.84 37.664 37.6832 35.8208 39.9488 35.8208H120.051C122.317 35.8208 124.16 37.664 124.16 39.9296C124.16 42.1952 122.317 44.0384 120.051 44.0384H89.7088V55.552H110.31C114.227 55.552 117.786 57.184 120.365 59.808C122.925 62.4128 124.518 65.9968 124.518 69.9328V102.797C124.518 106.733 122.925 110.317 120.365 112.922C117.786 115.546 114.221 117.171 110.31 117.171H101.402C99.136 117.171 97.2928 115.328 97.2928 113.062C97.2928 110.797 99.136 108.954 101.402 108.954H110.31C111.949 108.954 113.446 108.269 114.522 107.174C115.622 106.061 116.301 104.506 116.301 102.797V69.9328C116.301 68.2176 115.616 66.6688 114.522 65.5552C113.44 64.4544 111.949 63.776 110.31 63.776H89.7088V121.114C89.7088 122.81 88.3264 124.192 86.6304 124.192H82.5216V63.776H77.4784V124.192H73.3696C71.6736 124.192 70.2912 122.81 70.2912 121.114V63.7632H49.6896C48.0512 63.7632 46.5536 64.448 45.4784 65.5424C44.384 66.656 43.6992 68.2112 43.6992 69.92V102.784C43.6992 104.499 44.384 106.048 45.4784 107.162C46.56 108.262 48.0512 108.941 49.6896 108.941H58.4448V108.947ZM82.5216 44.032H77.4784V55.552H82.5216V44.032Z" fill="white"/>
</svg>
