<svg width="40" height="40" viewBox="0 0 40 40" fill="none" xmlns="http://www.w3.org/2000/svg">
<path d="M25.7822 37.4167C25.7822 38.2907 25.0436 39 24.13 39H9.26072C4.70576 39 1 35.4486 1 31.0833V8.91667C1 4.55142 4.70576 1 9.26072 1H16.7201C19.808 1 22.7125 2.15267 24.8983 4.24583L30.6543 9.76533C31.1021 10.1944 31.5184 10.6647 31.8901 11.1634C32.4205 11.8743 32.2486 12.8639 31.5068 13.3722C30.765 13.8788 29.7308 13.7157 29.2021 13.0032C28.9361 12.647 28.6387 12.3098 28.3198 12.0058L22.5621 6.48625C22.0367 5.98275 21.4535 5.55683 20.8257 5.21167V12.0833C20.8257 12.9558 21.5659 13.6667 22.4779 13.6667H27.4343C28.3479 13.6667 29.0864 14.376 29.0864 15.25C29.0864 16.124 28.3479 16.8333 27.4343 16.8333H22.4779C19.7452 16.8333 17.5214 14.7022 17.5214 12.0833V4.20308C17.2571 4.17933 16.9894 4.16667 16.7201 4.16667H9.26072C6.52807 4.16667 4.30429 6.29783 4.30429 8.91667V31.0833C4.30429 33.7022 6.52807 35.8333 9.26072 35.8333H24.13C25.0436 35.8333 25.7822 36.5427 25.7822 37.4167ZM35.1746 26.7561L30.1504 25.9533C29.5342 25.8552 29.0864 25.3485 29.0864 24.75C29.0864 23.8776 29.8266 23.1667 30.7386 23.1667H34.4856C35.0738 23.1667 35.6223 23.4707 35.9181 23.9583C36.3724 24.7152 37.3802 24.9733 38.1749 24.5363C38.9646 24.0977 39.2356 23.1302 38.7763 22.3734C37.894 20.9088 36.2485 19.9984 34.484 19.9984H34.0412V18.4151C34.0412 17.5411 33.3027 16.8317 32.3891 16.8317C31.4754 16.8317 30.7369 17.5411 30.7369 18.4151V19.9984C28.0043 19.9984 25.7805 22.1296 25.7805 24.7484C25.7805 26.9017 27.3897 28.7226 29.6052 29.0757L34.6294 29.8784C35.2456 29.9766 35.6934 30.4833 35.6934 31.0818C35.6934 31.9542 34.9532 32.6651 34.0412 32.6651H30.2942C29.706 32.6651 29.1575 32.3611 28.8618 31.8734C28.4074 31.115 27.398 30.8569 26.6049 31.2955C25.8152 31.7341 25.5442 32.7015 26.0035 33.4583C26.8858 34.9229 28.5313 35.8318 30.2958 35.8318H30.7386V37.4151C30.7386 38.2891 31.4771 38.9984 32.3907 38.9984C33.3044 38.9984 34.0429 38.2891 34.0429 37.4151V35.8318C36.7755 35.8318 38.9993 33.7006 38.9993 31.0818C38.9993 28.9284 37.3901 27.1092 35.1746 26.7561ZM11.7389 24.75H20.8257C21.7394 24.75 22.4779 24.0407 22.4779 23.1667C22.4779 22.2927 21.7394 21.5833 20.8257 21.5833H11.7389C9.46228 21.5833 7.60858 23.3598 7.60858 25.5417V28.7083C7.60858 30.8902 9.46228 32.6667 11.7389 32.6667H20.8257C21.7394 32.6667 22.4779 31.9573 22.4779 31.0833C22.4779 30.2093 21.7394 29.5 20.8257 29.5H11.7389C11.2829 29.5 10.9129 29.1453 10.9129 28.7083V25.5417C10.9129 25.1047 11.2829 24.75 11.7389 24.75ZM9.26072 18.4167H12.565C13.477 18.4167 14.2172 17.7073 14.2172 16.8333C14.2172 15.9593 13.477 15.25 12.565 15.25H9.26072C8.34874 15.25 7.60858 15.9593 7.60858 16.8333C7.60858 17.7073 8.34874 18.4167 9.26072 18.4167ZM9.26072 12.0833H12.565C13.477 12.0833 14.2172 11.374 14.2172 10.5C14.2172 9.626 13.477 8.91667 12.565 8.91667H9.26072C8.34874 8.91667 7.60858 9.626 7.60858 10.5C7.60858 11.374 8.34874 12.0833 9.26072 12.0833Z" fill="black"/>
</svg>
