<svg width="40" height="40" viewBox="0 0 40 40" fill="none" xmlns="http://www.w3.org/2000/svg">
<path d="M39 31.0833C39 33.7022 36.8688 35.8333 34.25 35.8333V37.4167C34.25 38.2907 33.5423 39 32.6667 39C31.7911 39 31.0833 38.2907 31.0833 37.4167V35.8333H30.659C28.9696 35.8333 27.3926 34.9245 26.5455 33.4599C26.1069 32.7031 26.3666 31.7357 27.1218 31.2971C27.8818 30.8585 28.8493 31.1182 29.2847 31.875C29.5681 32.3627 30.0938 32.6667 30.6574 32.6667H34.2484C35.1224 32.6667 35.8318 31.9558 35.8318 31.0833C35.8318 30.4848 35.4027 29.9782 34.8121 29.88L29.9972 29.0773C27.8723 28.7242 26.3317 26.9033 26.3317 24.75C26.3317 22.1312 28.4629 20 31.0818 20V18.4167C31.0818 17.5427 31.7895 16.8333 32.6651 16.8333C33.5407 16.8333 34.2484 17.5427 34.2484 18.4167V20H34.6728C36.3622 20 37.9392 20.9104 38.7863 22.375C39.2248 23.1318 38.9652 24.0993 38.2099 24.5378C37.4483 24.9748 36.4825 24.7152 36.0471 23.9599C35.7637 23.4707 35.238 23.1683 34.6743 23.1683H31.0833C30.2093 23.1683 29.5 23.8792 29.5 24.7516C29.5 25.3501 29.9291 25.8568 30.5197 25.9549L35.3346 26.7577C37.4594 27.1108 39 28.93 39 31.0833ZM21.5833 13.6667H31.9383C31.3889 12.2211 30.545 10.8911 29.4192 9.76533L23.9029 4.24583C22.7756 3.12008 21.4456 2.27617 20 1.72833V12.0833C20 12.9558 20.7093 13.6667 21.5833 13.6667ZM27.7092 38.4252C26.7941 38.7957 25.7966 39 24.75 39H8.91667C4.55142 39 1 35.4486 1 31.0833V8.91667C1 4.55142 4.55142 1 8.91667 1H16.0654C16.3235 1 16.5784 1.02058 16.8333 1.038V12.0833C16.8333 14.7022 18.9645 16.8333 21.5833 16.8333H28.189C28.1178 17.0344 28.0592 17.2403 28.0148 17.4524C26.0673 18.2742 24.5141 19.8559 23.7272 21.8224C23.3044 21.6688 22.8484 21.5833 22.3734 21.5833H11.2917C9.10983 21.5833 7.33333 23.3598 7.33333 25.5417V28.7083C7.33333 30.8902 9.10983 32.6667 11.2917 32.6667H22.375C22.6458 32.6667 22.9102 32.6398 23.1651 32.5875C23.1492 33.4425 23.3662 34.288 23.8048 35.0448C24.7009 36.5965 26.0911 37.7745 27.7092 38.4268V38.4252ZM7.33333 10.5C7.33333 11.374 8.04267 12.0833 8.91667 12.0833H12.0833C12.9573 12.0833 13.6667 11.374 13.6667 10.5C13.6667 9.626 12.9573 8.91667 12.0833 8.91667H8.91667C8.04267 8.91667 7.33333 9.626 7.33333 10.5ZM7.33333 16.8333C7.33333 17.7073 8.04267 18.4167 8.91667 18.4167H12.0833C12.9573 18.4167 13.6667 17.7073 13.6667 16.8333C13.6667 15.9593 12.9573 15.25 12.0833 15.25H8.91667C8.04267 15.25 7.33333 15.9593 7.33333 16.8333ZM11.2917 24.75C10.8547 24.75 10.5 25.1047 10.5 25.5417V28.7083C10.5 29.1453 10.8547 29.5 11.2917 29.5H22.375C22.812 29.5 23.1667 29.1453 23.1667 28.7083V25.5417C23.1667 25.1047 22.812 24.75 22.375 24.75H11.2917Z" fill="black"/>
</svg>
