<svg width="425" height="600" viewBox="0 0 425 600" fill="none" xmlns="http://www.w3.org/2000/svg">
<rect width="424.26" height="600" fill="#636890"/>
<path d="M110.957 180.154C109.945 180.154 109.036 179.978 108.229 179.626C107.437 179.259 106.814 178.761 106.359 178.13C105.905 177.485 105.67 176.744 105.655 175.908H107.789C107.863 176.627 108.156 177.235 108.669 177.734C109.197 178.218 109.96 178.46 110.957 178.46C111.911 178.46 112.659 178.225 113.201 177.756C113.759 177.272 114.037 176.656 114.037 175.908C114.037 175.321 113.876 174.845 113.553 174.478C113.231 174.111 112.827 173.833 112.343 173.642C111.859 173.451 111.207 173.246 110.385 173.026C109.373 172.762 108.559 172.498 107.943 172.234C107.342 171.97 106.821 171.559 106.381 171.002C105.956 170.43 105.743 169.667 105.743 168.714C105.743 167.878 105.956 167.137 106.381 166.492C106.807 165.847 107.401 165.348 108.163 164.996C108.941 164.644 109.828 164.468 110.825 164.468C112.263 164.468 113.436 164.827 114.345 165.546C115.269 166.265 115.79 167.218 115.907 168.406H113.707C113.634 167.819 113.326 167.306 112.783 166.866C112.241 166.411 111.522 166.184 110.627 166.184C109.791 166.184 109.109 166.404 108.581 166.844C108.053 167.269 107.789 167.871 107.789 168.648C107.789 169.205 107.943 169.66 108.251 170.012C108.574 170.364 108.963 170.635 109.417 170.826C109.887 171.002 110.539 171.207 111.375 171.442C112.387 171.721 113.201 171.999 113.817 172.278C114.433 172.542 114.961 172.96 115.401 173.532C115.841 174.089 116.061 174.852 116.061 175.82C116.061 176.568 115.863 177.272 115.467 177.932C115.071 178.592 114.485 179.127 113.707 179.538C112.93 179.949 112.013 180.154 110.957 180.154ZM118.259 172.322C118.259 170.826 118.597 169.484 119.271 168.296C119.946 167.093 120.863 166.155 122.021 165.48C123.195 164.805 124.493 164.468 125.915 164.468C127.587 164.468 129.047 164.871 130.293 165.678C131.54 166.485 132.449 167.629 133.021 169.11H130.623C130.198 168.186 129.582 167.475 128.775 166.976C127.983 166.477 127.03 166.228 125.915 166.228C124.845 166.228 123.884 166.477 123.033 166.976C122.183 167.475 121.515 168.186 121.031 169.11C120.547 170.019 120.305 171.09 120.305 172.322C120.305 173.539 120.547 174.61 121.031 175.534C121.515 176.443 122.183 177.147 123.033 177.646C123.884 178.145 124.845 178.394 125.915 178.394C127.03 178.394 127.983 178.152 128.775 177.668C129.582 177.169 130.198 176.458 130.623 175.534H133.021C132.449 177.001 131.54 178.137 130.293 178.944C129.047 179.736 127.587 180.132 125.915 180.132C124.493 180.132 123.195 179.802 122.021 179.142C120.863 178.467 119.946 177.536 119.271 176.348C118.597 175.16 118.259 173.818 118.259 172.322ZM145.066 176.59H138.378L137.146 180H135.034L140.578 164.754H142.888L148.41 180H146.298L145.066 176.59ZM144.494 174.962L141.722 167.218L138.95 174.962H144.494ZM162.882 180H160.88L152.828 167.79V180H150.826V164.644H152.828L160.88 176.832V164.644H162.882V180ZM191.432 164.666L186.988 180H184.744L181.18 167.658L177.484 180L175.262 180.022L170.972 164.666H173.106L176.45 177.668L180.146 164.666H182.39L185.91 177.624L189.276 164.666H191.432ZM195.625 164.666V180H193.623V164.666H195.625ZM208.475 164.666V166.294H204.295V180H202.293V166.294H198.091V164.666H208.475ZM222.753 164.666V180H220.751V173.048H212.941V180H210.939V164.666H212.941V171.398H220.751V164.666H222.753ZM231.289 172.322C231.289 170.826 231.626 169.484 232.301 168.296C232.975 167.093 233.892 166.155 235.051 165.48C236.224 164.805 237.522 164.468 238.945 164.468C240.617 164.468 242.076 164.871 243.323 165.678C244.569 166.485 245.479 167.629 246.051 169.11H243.653C243.227 168.186 242.611 167.475 241.805 166.976C241.013 166.477 240.059 166.228 238.945 166.228C237.874 166.228 236.913 166.477 236.063 166.976C235.212 167.475 234.545 168.186 234.061 169.11C233.577 170.019 233.335 171.09 233.335 172.322C233.335 173.539 233.577 174.61 234.061 175.534C234.545 176.443 235.212 177.147 236.063 177.646C236.913 178.145 237.874 178.394 238.945 178.394C240.059 178.394 241.013 178.152 241.805 177.668C242.611 177.169 243.227 176.458 243.653 175.534H246.051C245.479 177.001 244.569 178.137 243.323 178.944C242.076 179.736 240.617 180.132 238.945 180.132C237.522 180.132 236.224 179.802 235.051 179.142C233.892 178.467 232.975 177.536 232.301 176.348C231.626 175.16 231.289 173.818 231.289 172.322ZM258.095 176.59H251.407L250.175 180H248.063L253.607 164.754H255.917L261.439 180H259.327L258.095 176.59ZM257.523 174.962L254.751 167.218L251.979 174.962H257.523ZM279.409 164.776V180H277.407V168.648L272.347 180H270.939L265.857 168.626V180H263.855V164.776H266.011L271.643 177.36L277.275 164.776H279.409ZM284.806 166.294V171.42H290.394V173.07H284.806V178.35H291.054V180H282.804V164.644H291.054V166.294H284.806ZM302.158 180L298.506 173.73H296.086V180H294.084V164.666H299.034C300.192 164.666 301.168 164.864 301.96 165.26C302.766 165.656 303.368 166.191 303.764 166.866C304.16 167.541 304.358 168.311 304.358 169.176C304.358 170.232 304.05 171.163 303.434 171.97C302.832 172.777 301.923 173.312 300.706 173.576L304.556 180H302.158ZM296.086 172.124H299.034C300.119 172.124 300.933 171.86 301.476 171.332C302.018 170.789 302.29 170.071 302.29 169.176C302.29 168.267 302.018 167.563 301.476 167.064C300.948 166.565 300.134 166.316 299.034 166.316H296.086V172.124ZM316.532 176.59H309.844L308.612 180H306.5L312.044 164.754H314.354L319.876 180H317.764L316.532 176.59ZM315.96 174.962L313.188 167.218L310.416 174.962H315.96Z" fill="white"/>
<path d="M39.9777 471.666L35.5337 487H33.2897L29.7257 474.658L26.0297 487L23.8077 487.022L19.5177 471.666H21.6517L24.9957 484.668L28.6917 471.666H30.9357L34.4557 484.624L37.8217 471.666H39.9777ZM53.1686 480.51C53.1686 480.891 53.1466 481.295 53.1026 481.72H43.4666C43.5399 482.908 43.9433 483.839 44.6766 484.514C45.4246 485.174 46.3266 485.504 47.3826 485.504C48.2479 485.504 48.9666 485.306 49.5386 484.91C50.1253 484.499 50.5359 483.957 50.7706 483.282H52.9266C52.6039 484.441 51.9586 485.387 50.9906 486.12C50.0226 486.839 48.8199 487.198 47.3826 487.198C46.2386 487.198 45.2119 486.941 44.3026 486.428C43.4079 485.915 42.7039 485.189 42.1906 484.25C41.6773 483.297 41.4206 482.197 41.4206 480.95C41.4206 479.703 41.6699 478.611 42.1686 477.672C42.6673 476.733 43.3639 476.015 44.2586 475.516C45.1679 475.003 46.2093 474.746 47.3826 474.746C48.5266 474.746 49.5386 474.995 50.4186 475.494C51.2986 475.993 51.9733 476.682 52.4426 477.562C52.9266 478.427 53.1686 479.41 53.1686 480.51ZM51.1006 480.092C51.1006 479.329 50.9319 478.677 50.5946 478.134C50.2573 477.577 49.7953 477.159 49.2086 476.88C48.6366 476.587 47.9986 476.44 47.2946 476.44C46.2826 476.44 45.4173 476.763 44.6986 477.408C43.9946 478.053 43.5913 478.948 43.4886 480.092H51.1006ZM60.9284 480.928C60.9284 479.696 61.1778 478.618 61.6764 477.694C62.1751 476.755 62.8571 476.029 63.7224 475.516C64.6024 475.003 65.5778 474.746 66.6484 474.746C67.7044 474.746 68.6211 474.973 69.3984 475.428C70.1758 475.883 70.7551 476.455 71.1364 477.144V474.944H73.1604V487H71.1364V484.756C70.7404 485.46 70.1464 486.047 69.3544 486.516C68.5771 486.971 67.6678 487.198 66.6264 487.198C65.5558 487.198 64.5878 486.934 63.7224 486.406C62.8571 485.878 62.1751 485.137 61.6764 484.184C61.1778 483.231 60.9284 482.145 60.9284 480.928ZM71.1364 480.95C71.1364 480.041 70.9531 479.249 70.5864 478.574C70.2198 477.899 69.7211 477.386 69.0904 477.034C68.4744 476.667 67.7924 476.484 67.0444 476.484C66.2964 476.484 65.6144 476.66 64.9984 477.012C64.3824 477.364 63.8911 477.877 63.5244 478.552C63.1578 479.227 62.9744 480.019 62.9744 480.928C62.9744 481.852 63.1578 482.659 63.5244 483.348C63.8911 484.023 64.3824 484.543 64.9984 484.91C65.6144 485.262 66.2964 485.438 67.0444 485.438C67.7924 485.438 68.4744 485.262 69.0904 484.91C69.7211 484.543 70.2198 484.023 70.5864 483.348C70.9531 482.659 71.1364 481.859 71.1364 480.95ZM75.7956 480.95C75.7956 479.703 76.0449 478.618 76.5436 477.694C77.0423 476.755 77.7316 476.029 78.6116 475.516C79.5063 475.003 80.5256 474.746 81.6696 474.746C83.1509 474.746 84.3683 475.105 85.3216 475.824C86.2896 476.543 86.9276 477.54 87.2356 478.816H85.0796C84.8743 478.083 84.4709 477.503 83.8696 477.078C83.2829 476.653 82.5496 476.44 81.6696 476.44C80.5256 476.44 79.6016 476.836 78.8976 477.628C78.1936 478.405 77.8416 479.513 77.8416 480.95C77.8416 482.402 78.1936 483.524 78.8976 484.316C79.6016 485.108 80.5256 485.504 81.6696 485.504C82.5496 485.504 83.2829 485.299 83.8696 484.888C84.4563 484.477 84.8596 483.891 85.0796 483.128H87.2356C86.9129 484.36 86.2676 485.35 85.2996 486.098C84.3316 486.831 83.1216 487.198 81.6696 487.198C80.5256 487.198 79.5063 486.941 78.6116 486.428C77.7316 485.915 77.0423 485.189 76.5436 484.25C76.0449 483.311 75.7956 482.211 75.7956 480.95ZM89.1589 480.95C89.1589 479.703 89.4082 478.618 89.9069 477.694C90.4056 476.755 91.0949 476.029 91.9749 475.516C92.8696 475.003 93.8889 474.746 95.0329 474.746C96.5142 474.746 97.7316 475.105 98.6849 475.824C99.6529 476.543 100.291 477.54 100.599 478.816H98.4429C98.2376 478.083 97.8342 477.503 97.2329 477.078C96.6462 476.653 95.9129 476.44 95.0329 476.44C93.8889 476.44 92.9649 476.836 92.2609 477.628C91.5569 478.405 91.2049 479.513 91.2049 480.95C91.2049 482.402 91.5569 483.524 92.2609 484.316C92.9649 485.108 93.8889 485.504 95.0329 485.504C95.9129 485.504 96.6462 485.299 97.2329 484.888C97.8196 484.477 98.2229 483.891 98.4429 483.128H100.599C100.276 484.36 99.6309 485.35 98.6629 486.098C97.6949 486.831 96.4849 487.198 95.0329 487.198C93.8889 487.198 92.8696 486.941 91.9749 486.428C91.0949 485.915 90.4056 485.189 89.9069 484.25C89.4082 483.311 89.1589 482.211 89.1589 480.95ZM114.27 480.51C114.27 480.891 114.248 481.295 114.204 481.72H104.568C104.642 482.908 105.045 483.839 105.778 484.514C106.526 485.174 107.428 485.504 108.484 485.504C109.35 485.504 110.068 485.306 110.64 484.91C111.227 484.499 111.638 483.957 111.872 483.282H114.028C113.706 484.441 113.06 485.387 112.092 486.12C111.124 486.839 109.922 487.198 108.484 487.198C107.34 487.198 106.314 486.941 105.404 486.428C104.51 485.915 103.806 485.189 103.292 484.25C102.779 483.297 102.522 482.197 102.522 480.95C102.522 479.703 102.772 478.611 103.27 477.672C103.769 476.733 104.466 476.015 105.36 475.516C106.27 475.003 107.311 474.746 108.484 474.746C109.628 474.746 110.64 474.995 111.52 475.494C112.4 475.993 113.075 476.682 113.544 477.562C114.028 478.427 114.27 479.41 114.27 480.51ZM112.202 480.092C112.202 479.329 112.034 478.677 111.696 478.134C111.359 477.577 110.897 477.159 110.31 476.88C109.738 476.587 109.1 476.44 108.396 476.44C107.384 476.44 106.519 476.763 105.8 477.408C105.096 478.053 104.693 478.948 104.59 480.092H112.202ZM118.915 477.166C119.311 476.477 119.897 475.905 120.675 475.45C121.467 474.981 122.383 474.746 123.425 474.746C124.495 474.746 125.463 475.003 126.329 475.516C127.209 476.029 127.898 476.755 128.397 477.694C128.895 478.618 129.145 479.696 129.145 480.928C129.145 482.145 128.895 483.231 128.397 484.184C127.898 485.137 127.209 485.878 126.329 486.406C125.463 486.934 124.495 487.198 123.425 487.198C122.398 487.198 121.489 486.971 120.697 486.516C119.919 486.047 119.325 485.467 118.915 484.778V492.72H116.913V474.944H118.915V477.166ZM127.099 480.928C127.099 480.019 126.915 479.227 126.549 478.552C126.182 477.877 125.683 477.364 125.053 477.012C124.437 476.66 123.755 476.484 123.007 476.484C122.273 476.484 121.591 476.667 120.961 477.034C120.345 477.386 119.846 477.907 119.465 478.596C119.098 479.271 118.915 480.055 118.915 480.95C118.915 481.859 119.098 482.659 119.465 483.348C119.846 484.023 120.345 484.543 120.961 484.91C121.591 485.262 122.273 485.438 123.007 485.438C123.755 485.438 124.437 485.262 125.053 484.91C125.683 484.543 126.182 484.023 126.549 483.348C126.915 482.659 127.099 481.852 127.099 480.928ZM134.222 476.594V483.7C134.222 484.287 134.347 484.705 134.596 484.954C134.845 485.189 135.278 485.306 135.894 485.306H137.368V487H135.564C134.449 487 133.613 486.743 133.056 486.23C132.499 485.717 132.22 484.873 132.22 483.7V476.594H130.658V474.944H132.22V471.908H134.222V474.944H137.368V476.594H134.222ZM151.533 474.724C153 474.724 154.188 475.171 155.097 476.066C156.006 476.946 156.461 478.222 156.461 479.894V487H154.481V480.18C154.481 478.977 154.18 478.061 153.579 477.43C152.978 476.785 152.156 476.462 151.115 476.462C150.059 476.462 149.216 476.792 148.585 477.452C147.969 478.112 147.661 479.073 147.661 480.334V487H145.659V474.944H147.661V476.66C148.057 476.044 148.592 475.567 149.267 475.23C149.956 474.893 150.712 474.724 151.533 474.724ZM158.983 480.928C158.983 479.696 159.232 478.618 159.731 477.694C160.23 476.755 160.912 476.029 161.777 475.516C162.657 475.003 163.632 474.746 164.703 474.746C165.759 474.746 166.676 474.973 167.453 475.428C168.23 475.883 168.81 476.455 169.191 477.144V474.944H171.215V487H169.191V484.756C168.795 485.46 168.201 486.047 167.409 486.516C166.632 486.971 165.722 487.198 164.681 487.198C163.61 487.198 162.642 486.934 161.777 486.406C160.912 485.878 160.23 485.137 159.731 484.184C159.232 483.231 158.983 482.145 158.983 480.928ZM169.191 480.95C169.191 480.041 169.008 479.249 168.641 478.574C168.274 477.899 167.776 477.386 167.145 477.034C166.529 476.667 165.847 476.484 165.099 476.484C164.351 476.484 163.669 476.66 163.053 477.012C162.437 477.364 161.946 477.877 161.579 478.552C161.212 479.227 161.029 480.019 161.029 480.928C161.029 481.852 161.212 482.659 161.579 483.348C161.946 484.023 162.437 484.543 163.053 484.91C163.669 485.262 164.351 485.438 165.099 485.438C165.847 485.438 166.529 485.262 167.145 484.91C167.776 484.543 168.274 484.023 168.641 483.348C169.008 482.659 169.191 481.859 169.191 480.95ZM177.04 476.594V483.7C177.04 484.287 177.165 484.705 177.414 484.954C177.664 485.189 178.096 485.306 178.712 485.306H180.186V487H178.382C177.268 487 176.432 486.743 175.874 486.23C175.317 485.717 175.038 484.873 175.038 483.7V476.594H173.476V474.944H175.038V471.908H177.04V474.944H180.186V476.594H177.04ZM183.646 472.986C183.265 472.986 182.942 472.854 182.678 472.59C182.414 472.326 182.282 472.003 182.282 471.622C182.282 471.241 182.414 470.918 182.678 470.654C182.942 470.39 183.265 470.258 183.646 470.258C184.013 470.258 184.321 470.39 184.57 470.654C184.834 470.918 184.966 471.241 184.966 471.622C184.966 472.003 184.834 472.326 184.57 472.59C184.321 472.854 184.013 472.986 183.646 472.986ZM184.614 474.944V487H182.612V474.944H184.614ZM192.514 485.152L196.254 474.944H198.388L193.658 487H191.326L186.596 474.944H188.752L192.514 485.152ZM211.358 480.51C211.358 480.891 211.336 481.295 211.292 481.72H201.656C201.729 482.908 202.133 483.839 202.866 484.514C203.614 485.174 204.516 485.504 205.572 485.504C206.437 485.504 207.156 485.306 207.728 484.91C208.315 484.499 208.725 483.957 208.96 483.282H211.116C210.793 484.441 210.148 485.387 209.18 486.12C208.212 486.839 207.009 487.198 205.572 487.198C204.428 487.198 203.401 486.941 202.492 486.428C201.597 485.915 200.893 485.189 200.38 484.25C199.867 483.297 199.61 482.197 199.61 480.95C199.61 479.703 199.859 478.611 200.358 477.672C200.857 476.733 201.553 476.015 202.448 475.516C203.357 475.003 204.399 474.746 205.572 474.746C206.716 474.746 207.728 474.995 208.608 475.494C209.488 475.993 210.163 476.682 210.632 477.562C211.116 478.427 211.358 479.41 211.358 480.51ZM209.29 480.092C209.29 479.329 209.121 478.677 208.784 478.134C208.447 477.577 207.985 477.159 207.398 476.88C206.826 476.587 206.188 476.44 205.484 476.44C204.472 476.44 203.607 476.763 202.888 477.408C202.184 478.053 201.781 478.948 201.678 480.092H209.29ZM221.824 471.666V481.368C221.824 482.732 222.154 483.744 222.814 484.404C223.489 485.064 224.42 485.394 225.608 485.394C226.781 485.394 227.698 485.064 228.358 484.404C229.033 483.744 229.37 482.732 229.37 481.368V471.666H231.372V481.346C231.372 482.622 231.115 483.7 230.602 484.58C230.089 485.445 229.392 486.091 228.512 486.516C227.647 486.941 226.671 487.154 225.586 487.154C224.501 487.154 223.518 486.941 222.638 486.516C221.773 486.091 221.083 485.445 220.57 484.58C220.071 483.7 219.822 482.622 219.822 481.346V471.666H221.824ZM239.574 487.154C238.562 487.154 237.652 486.978 236.846 486.626C236.054 486.259 235.43 485.761 234.976 485.13C234.521 484.485 234.286 483.744 234.272 482.908H236.406C236.479 483.627 236.772 484.235 237.286 484.734C237.814 485.218 238.576 485.46 239.574 485.46C240.527 485.46 241.275 485.225 241.818 484.756C242.375 484.272 242.654 483.656 242.654 482.908C242.654 482.321 242.492 481.845 242.17 481.478C241.847 481.111 241.444 480.833 240.96 480.642C240.476 480.451 239.823 480.246 239.002 480.026C237.99 479.762 237.176 479.498 236.56 479.234C235.958 478.97 235.438 478.559 234.998 478.002C234.572 477.43 234.36 476.667 234.36 475.714C234.36 474.878 234.572 474.137 234.998 473.492C235.423 472.847 236.017 472.348 236.78 471.996C237.557 471.644 238.444 471.468 239.442 471.468C240.879 471.468 242.052 471.827 242.962 472.546C243.886 473.265 244.406 474.218 244.524 475.406H242.324C242.25 474.819 241.942 474.306 241.4 473.866C240.857 473.411 240.138 473.184 239.244 473.184C238.408 473.184 237.726 473.404 237.198 473.844C236.67 474.269 236.406 474.871 236.406 475.648C236.406 476.205 236.56 476.66 236.868 477.012C237.19 477.364 237.579 477.635 238.034 477.826C238.503 478.002 239.156 478.207 239.992 478.442C241.004 478.721 241.818 478.999 242.434 479.278C243.05 479.542 243.578 479.96 244.018 480.532C244.458 481.089 244.678 481.852 244.678 482.82C244.678 483.568 244.48 484.272 244.084 484.932C243.688 485.592 243.101 486.127 242.324 486.538C241.546 486.949 240.63 487.154 239.574 487.154ZM252.398 471.666C254.07 471.666 255.514 471.981 256.732 472.612C257.964 473.228 258.902 474.115 259.548 475.274C260.208 476.433 260.538 477.797 260.538 479.366C260.538 480.935 260.208 482.299 259.548 483.458C258.902 484.602 257.964 485.482 256.732 486.098C255.514 486.699 254.07 487 252.398 487H247.624V471.666H252.398ZM252.398 485.35C254.378 485.35 255.888 484.829 256.93 483.788C257.971 482.732 258.492 481.258 258.492 479.366C258.492 477.459 257.964 475.971 256.908 474.9C255.866 473.829 254.363 473.294 252.398 473.294H249.626V485.35H252.398ZM262.43 479.322C262.43 477.826 262.768 476.484 263.442 475.296C264.117 474.093 265.034 473.155 266.192 472.48C267.366 471.805 268.664 471.468 270.086 471.468C271.758 471.468 273.218 471.871 274.464 472.678C275.711 473.485 276.62 474.629 277.192 476.11H274.794C274.369 475.186 273.753 474.475 272.946 473.976C272.154 473.477 271.201 473.228 270.086 473.228C269.016 473.228 268.055 473.477 267.204 473.976C266.354 474.475 265.686 475.186 265.202 476.11C264.718 477.019 264.476 478.09 264.476 479.322C264.476 480.539 264.718 481.61 265.202 482.534C265.686 483.443 266.354 484.147 267.204 484.646C268.055 485.145 269.016 485.394 270.086 485.394C271.201 485.394 272.154 485.152 272.946 484.668C273.753 484.169 274.369 483.458 274.794 482.534H277.192C276.62 484.001 275.711 485.137 274.464 485.944C273.218 486.736 271.758 487.132 270.086 487.132C268.664 487.132 267.366 486.802 266.192 486.142C265.034 485.467 264.117 484.536 263.442 483.348C262.768 482.16 262.43 480.818 262.43 479.322ZM291.296 487.198C290.166 487.198 289.14 486.941 288.216 486.428C287.306 485.915 286.588 485.189 286.06 484.25C285.546 483.297 285.29 482.197 285.29 480.95C285.29 479.718 285.554 478.633 286.082 477.694C286.624 476.741 287.358 476.015 288.282 475.516C289.206 475.003 290.24 474.746 291.384 474.746C292.528 474.746 293.562 475.003 294.486 475.516C295.41 476.015 296.136 476.733 296.664 477.672C297.206 478.611 297.478 479.703 297.478 480.95C297.478 482.197 297.199 483.297 296.642 484.25C296.099 485.189 295.358 485.915 294.42 486.428C293.481 486.941 292.44 487.198 291.296 487.198ZM291.296 485.438C292.014 485.438 292.689 485.269 293.32 484.932C293.95 484.595 294.456 484.089 294.838 483.414C295.234 482.739 295.432 481.918 295.432 480.95C295.432 479.982 295.241 479.161 294.86 478.486C294.478 477.811 293.98 477.313 293.364 476.99C292.748 476.653 292.08 476.484 291.362 476.484C290.628 476.484 289.954 476.653 289.338 476.99C288.736 477.313 288.252 477.811 287.886 478.486C287.519 479.161 287.336 479.982 287.336 480.95C287.336 481.933 287.512 482.761 287.864 483.436C288.23 484.111 288.714 484.617 289.316 484.954C289.917 485.277 290.577 485.438 291.296 485.438ZM305.984 474.724C307.451 474.724 308.639 475.171 309.548 476.066C310.457 476.946 310.912 478.222 310.912 479.894V487H308.932V480.18C308.932 478.977 308.631 478.061 308.03 477.43C307.429 476.785 306.607 476.462 305.566 476.462C304.51 476.462 303.667 476.792 303.036 477.452C302.42 478.112 302.112 479.073 302.112 480.334V487H300.11V474.944H302.112V476.66C302.508 476.044 303.043 475.567 303.718 475.23C304.407 474.893 305.163 474.724 305.984 474.724ZM330.3 476.154C330.3 477.43 329.86 478.493 328.98 479.344C328.114 480.18 326.787 480.598 324.998 480.598H322.05V487H320.048V471.666H324.998C326.728 471.666 328.041 472.084 328.936 472.92C329.845 473.756 330.3 474.834 330.3 476.154ZM324.998 478.948C326.112 478.948 326.934 478.706 327.462 478.222C327.99 477.738 328.254 477.049 328.254 476.154C328.254 474.262 327.168 473.316 324.998 473.316H322.05V478.948H324.998ZM338.046 487.198C336.916 487.198 335.89 486.941 334.966 486.428C334.056 485.915 333.338 485.189 332.81 484.25C332.296 483.297 332.04 482.197 332.04 480.95C332.04 479.718 332.304 478.633 332.832 477.694C333.374 476.741 334.108 476.015 335.032 475.516C335.956 475.003 336.99 474.746 338.134 474.746C339.278 474.746 340.312 475.003 341.236 475.516C342.16 476.015 342.886 476.733 343.414 477.672C343.956 478.611 344.228 479.703 344.228 480.95C344.228 482.197 343.949 483.297 343.392 484.25C342.849 485.189 342.108 485.915 341.17 486.428C340.231 486.941 339.19 487.198 338.046 487.198ZM338.046 485.438C338.764 485.438 339.439 485.269 340.07 484.932C340.7 484.595 341.206 484.089 341.588 483.414C341.984 482.739 342.182 481.918 342.182 480.95C342.182 479.982 341.991 479.161 341.61 478.486C341.228 477.811 340.73 477.313 340.114 476.99C339.498 476.653 338.83 476.484 338.112 476.484C337.378 476.484 336.704 476.653 336.088 476.99C335.486 477.313 335.002 477.811 334.636 478.486C334.269 479.161 334.086 479.982 334.086 480.95C334.086 481.933 334.262 482.761 334.614 483.436C334.98 484.111 335.464 484.617 336.066 484.954C336.667 485.277 337.327 485.438 338.046 485.438ZM348.862 470.72V487H346.86V470.72H348.862ZM362.658 474.944L355.398 492.676H353.33L355.706 486.868L350.844 474.944H353.066L356.85 484.712L360.59 474.944H362.658ZM369.643 474.746C370.684 474.746 371.593 474.973 372.371 475.428C373.163 475.883 373.749 476.455 374.131 477.144V474.944H376.155V487.264C376.155 488.364 375.92 489.339 375.451 490.19C374.981 491.055 374.307 491.73 373.427 492.214C372.561 492.698 371.549 492.94 370.391 492.94C368.807 492.94 367.487 492.566 366.431 491.818C365.375 491.07 364.751 490.051 364.561 488.76H366.541C366.761 489.493 367.215 490.08 367.905 490.52C368.594 490.975 369.423 491.202 370.391 491.202C371.491 491.202 372.385 490.857 373.075 490.168C373.779 489.479 374.131 488.511 374.131 487.264V484.734C373.735 485.438 373.148 486.025 372.371 486.494C371.593 486.963 370.684 487.198 369.643 487.198C368.572 487.198 367.597 486.934 366.717 486.406C365.851 485.878 365.169 485.137 364.671 484.184C364.172 483.231 363.923 482.145 363.923 480.928C363.923 479.696 364.172 478.618 364.671 477.694C365.169 476.755 365.851 476.029 366.717 475.516C367.597 475.003 368.572 474.746 369.643 474.746ZM374.131 480.95C374.131 480.041 373.947 479.249 373.581 478.574C373.214 477.899 372.715 477.386 372.085 477.034C371.469 476.667 370.787 476.484 370.039 476.484C369.291 476.484 368.609 476.66 367.993 477.012C367.377 477.364 366.885 477.877 366.519 478.552C366.152 479.227 365.969 480.019 365.969 480.928C365.969 481.852 366.152 482.659 366.519 483.348C366.885 484.023 367.377 484.543 367.993 484.91C368.609 485.262 369.291 485.438 370.039 485.438C370.787 485.438 371.469 485.262 372.085 484.91C372.715 484.543 373.214 484.023 373.581 483.348C373.947 482.659 374.131 481.859 374.131 480.95ZM384.796 487.198C383.666 487.198 382.64 486.941 381.716 486.428C380.806 485.915 380.088 485.189 379.56 484.25C379.046 483.297 378.79 482.197 378.79 480.95C378.79 479.718 379.054 478.633 379.582 477.694C380.124 476.741 380.858 476.015 381.782 475.516C382.706 475.003 383.74 474.746 384.884 474.746C386.028 474.746 387.062 475.003 387.986 475.516C388.91 476.015 389.636 476.733 390.164 477.672C390.706 478.611 390.978 479.703 390.978 480.95C390.978 482.197 390.699 483.297 390.142 484.25C389.599 485.189 388.858 485.915 387.92 486.428C386.981 486.941 385.94 487.198 384.796 487.198ZM384.796 485.438C385.514 485.438 386.189 485.269 386.82 484.932C387.45 484.595 387.956 484.089 388.338 483.414C388.734 482.739 388.932 481.918 388.932 480.95C388.932 479.982 388.741 479.161 388.36 478.486C387.978 477.811 387.48 477.313 386.864 476.99C386.248 476.653 385.58 476.484 384.862 476.484C384.128 476.484 383.454 476.653 382.838 476.99C382.236 477.313 381.752 477.811 381.386 478.486C381.019 479.161 380.836 479.982 380.836 480.95C380.836 481.933 381.012 482.761 381.364 483.436C381.73 484.111 382.214 484.617 382.816 484.954C383.417 485.277 384.077 485.438 384.796 485.438ZM399.484 474.724C400.951 474.724 402.139 475.171 403.048 476.066C403.957 476.946 404.412 478.222 404.412 479.894V487H402.432V480.18C402.432 478.977 402.131 478.061 401.53 477.43C400.929 476.785 400.107 476.462 399.066 476.462C398.01 476.462 397.167 476.792 396.536 477.452C395.92 478.112 395.612 479.073 395.612 480.334V487H393.61V474.944H395.612V476.66C396.008 476.044 396.543 475.567 397.218 475.23C397.907 474.893 398.663 474.724 399.484 474.724Z" fill="white"/>
<path d="M379.414 95.6898C378.498 95.0848 377.487 94.6545 376.531 94.1167C375.911 93.7671 375.251 93.4578 374.712 93.0141C373.796 92.2612 373.984 90.7822 374.941 90.1368C376.315 89.2225 378.592 89.7334 378.835 91.6024C378.835 91.6427 378.875 91.6696 378.916 91.6696H380.99C381.044 91.6696 381.085 91.6292 381.071 91.5755C380.964 90.2847 380.465 89.209 379.549 88.5233C378.673 87.8645 377.676 87.5149 376.612 87.5149C371.128 87.5149 370.629 93.3099 373.58 95.1385C373.917 95.3537 376.814 96.8058 377.838 97.4377C378.862 98.0697 379.185 99.226 378.74 100.14C378.336 100.974 377.285 101.552 376.234 101.485C375.089 101.418 374.2 100.799 373.89 99.8311C373.836 99.6563 373.809 99.3201 373.809 99.1722C373.809 99.1319 373.769 99.0915 373.728 99.0915H371.478C371.438 99.0915 371.397 99.1319 371.397 99.1722C371.397 100.799 371.802 101.7 372.906 102.52C373.944 103.3 375.076 103.623 376.248 103.623C379.32 103.623 380.91 101.888 381.233 100.087C381.516 98.3251 380.99 96.7386 379.414 95.6898Z" fill="white"/>
<path d="M281.718 87.8107H280.721H279.63C279.589 87.8107 279.562 87.8376 279.549 87.8645L277.703 93.9419C277.676 94.0226 277.568 94.0226 277.541 93.9419L275.696 87.8645C275.682 87.8241 275.655 87.8107 275.615 87.8107H274.523H273.526H272.179C272.139 87.8107 272.098 87.851 272.098 87.8914V103.408C272.098 103.448 272.139 103.488 272.179 103.488H274.429C274.47 103.488 274.51 103.448 274.51 103.408V91.6158C274.51 91.5217 274.645 91.5082 274.672 91.5889L276.531 97.7067L276.666 98.1369C276.679 98.1772 276.706 98.1907 276.747 98.1907H278.471C278.512 98.1907 278.539 98.1638 278.552 98.1369L278.687 97.7067L280.546 91.5889C280.573 91.4948 280.708 91.5217 280.708 91.6158V103.408C280.708 103.448 280.748 103.488 280.789 103.488H283.039C283.079 103.488 283.119 103.448 283.119 103.408V87.8914C283.119 87.851 283.079 87.8107 283.039 87.8107H281.718Z" fill="white"/>
<path d="M344.963 87.8107C344.922 87.8107 344.895 87.8376 344.882 87.8645L343.036 93.9419C343.009 94.0226 342.901 94.0226 342.874 93.9419L341.028 87.8645C341.015 87.8241 340.988 87.8107 340.947 87.8107H337.525C337.485 87.8107 337.444 87.851 337.444 87.8914V103.408C337.444 103.448 337.485 103.488 337.525 103.488H339.775C339.816 103.488 339.856 103.448 339.856 103.408V91.6158C339.856 91.5217 339.991 91.5082 340.018 91.5889L341.877 97.7067L342.012 98.1369C342.025 98.1772 342.052 98.1907 342.093 98.1907H343.817C343.858 98.1907 343.885 98.1638 343.898 98.1369L344.033 97.7067L345.892 91.5889C345.919 91.4948 346.054 91.5217 346.054 91.6158V103.408C346.054 103.448 346.094 103.488 346.135 103.488H348.385C348.425 103.488 348.466 103.448 348.466 103.408V87.8914C348.466 87.851 348.425 87.8107 348.385 87.8107H344.963Z" fill="white"/>
<path d="M315.941 87.8107H311.751H309.5H305.31C305.27 87.8107 305.229 87.851 305.229 87.8914V89.8275C305.229 89.8679 305.27 89.9082 305.31 89.9082H309.42V103.408C309.42 103.448 309.46 103.488 309.5 103.488H311.751C311.791 103.488 311.831 103.448 311.831 103.408V89.9082H315.941C315.981 89.9082 316.022 89.8679 316.022 89.8275V87.8914C316.022 87.851 315.995 87.8107 315.941 87.8107Z" fill="white"/>
<path d="M329.212 103.488H331.26C331.314 103.488 331.354 103.434 331.341 103.381L327.11 87.8107C327.097 87.7703 327.07 87.7569 327.029 87.7569H326.248H324.874H324.092C324.052 87.7569 324.025 87.7838 324.011 87.8107L319.781 103.381C319.767 103.434 319.808 103.488 319.862 103.488H321.909C321.95 103.488 321.977 103.461 321.99 103.434L323.216 98.9033C323.23 98.863 323.257 98.8495 323.297 98.8495H327.824C327.865 98.8495 327.892 98.8764 327.905 98.9033L329.131 103.434C329.145 103.461 329.185 103.488 329.212 103.488ZM323.836 96.631L325.48 90.567C325.507 90.4864 325.615 90.4864 325.642 90.567L327.285 96.631C327.299 96.6848 327.258 96.7386 327.205 96.7386H323.917C323.863 96.7386 323.823 96.6848 323.836 96.631Z" fill="white"/>
<path d="M364.135 103.488H366.183C366.237 103.488 366.277 103.434 366.264 103.381L362.033 87.8107C362.02 87.7703 361.993 87.7569 361.953 87.7569H361.171H359.797H359.015C358.975 87.7569 358.948 87.7838 358.934 87.8107L354.704 103.381C354.69 103.434 354.731 103.488 354.785 103.488H356.833C356.873 103.488 356.9 103.461 356.913 103.434L358.14 98.9033C358.153 98.863 358.18 98.8495 358.22 98.8495H362.747C362.788 98.8495 362.815 98.8764 362.828 98.9033L364.054 103.434C364.068 103.461 364.095 103.488 364.135 103.488ZM358.759 96.631L360.403 90.567C360.43 90.4864 360.538 90.4864 360.565 90.567L362.209 96.631C362.222 96.6848 362.182 96.7386 362.128 96.7386H358.84C358.786 96.7386 358.746 96.6848 358.759 96.631Z" fill="white"/>
<path d="M292.254 101.189V96.3755C292.254 96.3352 292.295 96.2948 292.335 96.2948H298.331C298.371 96.2948 298.412 96.2545 298.412 96.2142V94.278C298.412 94.2377 298.371 94.1973 298.331 94.1973H292.335C292.295 94.1973 292.254 94.157 292.254 94.1167V90.0023C292.254 89.962 292.295 89.9216 292.335 89.9216H299.153C299.193 89.9216 299.234 89.8813 299.234 89.841V87.9048C299.234 87.8645 299.193 87.8241 299.153 87.8241H292.254H289.924C289.883 87.8241 289.843 87.8645 289.843 87.9048V89.9216V94.2108V96.3083V101.283V103.408C289.843 103.448 289.883 103.488 289.924 103.488H292.254H299.436C299.476 103.488 299.517 103.448 299.517 103.408V101.364C299.517 101.323 299.476 101.283 299.436 101.283H292.322C292.281 101.27 292.254 101.243 292.254 101.189Z" fill="white"/>
<path d="M399.975 103.354L392.187 95.3268C392.16 95.2999 392.16 95.2461 392.187 95.2192L399.193 87.9586C399.247 87.9048 399.207 87.8241 399.139 87.8241H396.269C396.242 87.8241 396.229 87.8376 396.215 87.851L390.274 94.0091C390.22 94.0629 390.139 94.0225 390.139 93.9553V87.9048C390.139 87.8645 390.099 87.8241 390.058 87.8241H387.808C387.768 87.8241 387.727 87.8645 387.727 87.9048V103.421C387.727 103.461 387.768 103.502 387.808 103.502H390.058C390.099 103.502 390.139 103.461 390.139 103.421V96.5907C390.139 96.5234 390.233 96.4831 390.274 96.5369L397.01 103.475C397.024 103.488 397.051 103.502 397.064 103.502H399.934C399.988 103.488 400.028 103.394 399.975 103.354Z" fill="white"/>
<path d="M264.269 84L254.295 91.3838L256.15 87.0323L264.269 84Z" fill="#E17726" stroke="#E17726" stroke-linecap="round" stroke-linejoin="round"/>
<path d="M241.263 84L251.148 91.4528L249.382 87.0323L241.263 84Z" fill="#E27625" stroke="#E27625" stroke-linecap="round" stroke-linejoin="round"/>
<path d="M260.678 101.121L258.024 105.177L263.707 106.742L265.335 101.209L260.678 101.121Z" fill="#E27625" stroke="#E27625" stroke-linecap="round" stroke-linejoin="round"/>
<path d="M240.207 101.209L241.825 106.742L247.498 105.177L244.854 101.121L240.207 101.209Z" fill="#E27625" stroke="#E27625" stroke-linecap="round" stroke-linejoin="round"/>
<path d="M247.192 94.2685L245.613 96.651L251.237 96.9069L251.049 90.8522L247.192 94.2685Z" fill="#E27625" stroke="#E27625" stroke-linecap="round" stroke-linejoin="round"/>
<path d="M258.34 94.2685L254.423 90.7833L254.295 96.907L259.918 96.651L258.34 94.2685Z" fill="#E27625" stroke="#E27625" stroke-linecap="round" stroke-linejoin="round"/>
<path d="M247.498 105.177L250.901 103.533L247.971 101.249L247.498 105.177Z" fill="#E27625" stroke="#E27625" stroke-linecap="round" stroke-linejoin="round"/>
<path d="M254.631 103.533L258.024 105.177L257.561 101.249L254.631 103.533Z" fill="#E27625" stroke="#E27625" stroke-linecap="round" stroke-linejoin="round"/>
<path d="M258.024 105.177L254.631 103.533L254.907 105.738L254.877 106.673L258.024 105.177Z" fill="#D5BFB2" stroke="#D5BFB2" stroke-linecap="round" stroke-linejoin="round"/>
<path d="M247.498 105.177L250.655 106.673L250.635 105.738L250.901 103.533L247.498 105.177Z" fill="#D5BFB2" stroke="#D5BFB2" stroke-linecap="round" stroke-linejoin="round"/>
<path d="M250.714 99.7916L247.892 98.9646L249.885 98.049L250.714 99.7916Z" fill="#233447" stroke="#233447" stroke-linecap="round" stroke-linejoin="round"/>
<path d="M254.818 99.7916L255.647 98.049L257.649 98.9646L254.818 99.7916Z" fill="#233447" stroke="#233447" stroke-linecap="round" stroke-linejoin="round"/>
<path d="M247.498 105.177L247.991 101.121L244.854 101.209L247.498 105.177Z" fill="#CC6228" stroke="#CC6228" stroke-linecap="round" stroke-linejoin="round"/>
<path d="M257.541 101.121L258.024 105.177L260.678 101.209L257.541 101.121Z" fill="#CC6228" stroke="#CC6228" stroke-linecap="round" stroke-linejoin="round"/>
<path d="M259.918 96.651L254.295 96.9069L254.818 99.7915L255.647 98.049L257.649 98.9646L259.918 96.651Z" fill="#CC6228" stroke="#CC6228" stroke-linecap="round" stroke-linejoin="round"/>
<path d="M247.892 98.9646L249.885 98.049L250.714 99.7915L251.237 96.9069L245.613 96.651L247.892 98.9646Z" fill="#CC6228" stroke="#CC6228" stroke-linecap="round" stroke-linejoin="round"/>
<path d="M245.613 96.651L247.971 101.249L247.892 98.9646L245.613 96.651Z" fill="#E27525" stroke="#E27525" stroke-linecap="round" stroke-linejoin="round"/>
<path d="M257.649 98.9646L257.561 101.249L259.918 96.651L257.649 98.9646Z" fill="#E27525" stroke="#E27525" stroke-linecap="round" stroke-linejoin="round"/>
<path d="M251.237 96.907L250.714 99.7916L251.375 103.198L251.523 98.7087L251.237 96.907Z" fill="#E27525" stroke="#E27525" stroke-linecap="round" stroke-linejoin="round"/>
<path d="M254.295 96.907L254.019 98.6988L254.157 103.198L254.818 99.7916L254.295 96.907Z" fill="#E27525" stroke="#E27525" stroke-linecap="round" stroke-linejoin="round"/>
<path d="M254.818 99.7916L254.157 103.198L254.631 103.533L257.561 101.249L257.649 98.9646L254.818 99.7916Z" fill="#F5841F" stroke="#F5841F" stroke-linecap="round" stroke-linejoin="round"/>
<path d="M247.892 98.9646L247.971 101.249L250.901 103.533L251.375 103.198L250.714 99.7916L247.892 98.9646Z" fill="#F5841F" stroke="#F5841F" stroke-linecap="round" stroke-linejoin="round"/>
<path d="M254.877 106.673L254.907 105.738L254.65 105.521H250.882L250.635 105.738L250.655 106.673L247.498 105.177L248.603 106.083L250.842 107.628H254.68L256.929 106.083L258.024 105.177L254.877 106.673Z" fill="#C0AC9D" stroke="#C0AC9D" stroke-linecap="round" stroke-linejoin="round"/>
<path d="M254.631 103.533L254.157 103.198H251.375L250.901 103.533L250.635 105.738L250.882 105.521H254.65L254.907 105.738L254.631 103.533Z" fill="#161616" stroke="#161616" stroke-linecap="round" stroke-linejoin="round"/>
<path d="M264.693 91.8662L265.532 87.7904L264.269 84L254.631 91.1377L258.34 94.2685L263.579 95.7944L264.733 94.4457L264.23 94.0814L265.029 93.3529L264.417 92.8803L265.216 92.2699L264.693 91.8662Z" fill="#763E1A" stroke="#763E1A" stroke-linecap="round" stroke-linejoin="round"/>
<path d="M240 87.7904L240.848 91.8662L240.306 92.2699L241.115 92.8803L240.503 93.3529L241.302 94.0814L240.799 94.4457L241.953 95.7944L247.192 94.2685L250.901 91.1377L241.263 84L240 87.7904Z" fill="#763E1A" stroke="#763E1A" stroke-linecap="round" stroke-linejoin="round"/>
<path d="M263.579 95.7945L258.34 94.2685L259.918 96.651L257.561 101.249L260.678 101.209H265.335L263.579 95.7945Z" fill="#F5841F" stroke="#F5841F" stroke-linecap="round" stroke-linejoin="round"/>
<path d="M247.192 94.2685L241.953 95.7945L240.207 101.209H244.854L247.971 101.249L245.613 96.651L247.192 94.2685Z" fill="#F5841F" stroke="#F5841F" stroke-linecap="round" stroke-linejoin="round"/>
<path d="M254.295 96.907L254.631 91.1377L256.15 87.0323H249.382L250.901 91.1377L251.237 96.907L251.365 98.7185L251.375 103.198H254.157L254.167 98.7185L254.295 96.907Z" fill="#F5841F" stroke="#F5841F" stroke-linecap="round" stroke-linejoin="round"/>
<path d="M39.9298 90.944L36.1678 103H34.0998L31.1958 93.43L28.2918 103H26.2238L22.4398 90.944H24.4858L27.2578 101.064L30.2498 90.944H32.2958L35.2218 101.086L37.9498 90.944H39.9298ZM47.9007 90.724C48.81 90.724 49.6313 90.922 50.3647 91.318C51.098 91.6993 51.67 92.2787 52.0807 93.056C52.506 93.8333 52.7187 94.7793 52.7187 95.894V103H50.7387V96.18C50.7387 94.9773 50.438 94.0607 49.8367 93.43C49.2353 92.7847 48.414 92.462 47.3727 92.462C46.3167 92.462 45.4733 92.792 44.8427 93.452C44.2267 94.112 43.9187 95.0727 43.9187 96.334V103H41.9167V86.72H43.9187V92.66C44.3147 92.044 44.8573 91.5673 45.5467 91.23C46.2507 90.8927 47.0353 90.724 47.9007 90.724ZM66.9889 96.51C66.9889 96.8913 66.9669 97.2947 66.9229 97.72H57.2869C57.3603 98.908 57.7636 99.8393 58.4969 100.514C59.2449 101.174 60.1469 101.504 61.2029 101.504C62.0683 101.504 62.7869 101.306 63.3589 100.91C63.9456 100.499 64.3563 99.9567 64.5909 99.282H66.7469C66.4243 100.441 65.7789 101.387 64.8109 102.12C63.8429 102.839 62.6403 103.198 61.2029 103.198C60.0589 103.198 59.0323 102.941 58.1229 102.428C57.2283 101.915 56.5243 101.189 56.0109 100.25C55.4976 99.2967 55.2409 98.1967 55.2409 96.95C55.2409 95.7033 55.4903 94.6107 55.9889 93.672C56.4876 92.7333 57.1843 92.0147 58.0789 91.516C58.9883 91.0027 60.0296 90.746 61.2029 90.746C62.3469 90.746 63.3589 90.9953 64.2389 91.494C65.1189 91.9927 65.7936 92.682 66.2629 93.562C66.7469 94.4273 66.9889 95.41 66.9889 96.51ZM64.9209 96.092C64.9209 95.3293 64.7523 94.6767 64.4149 94.134C64.0776 93.5767 63.6156 93.1587 63.0289 92.88C62.4569 92.5867 61.8189 92.44 61.1149 92.44C60.1029 92.44 59.2376 92.7627 58.5189 93.408C57.8149 94.0533 57.4116 94.948 57.3089 96.092H64.9209ZM75.5055 90.724C76.9722 90.724 78.1602 91.1713 79.0695 92.066C79.9788 92.946 80.4335 94.222 80.4335 95.894V103H78.4535V96.18C78.4535 94.9773 78.1528 94.0607 77.5515 93.43C76.9502 92.7847 76.1288 92.462 75.0875 92.462C74.0315 92.462 73.1882 92.792 72.5575 93.452C71.9415 94.112 71.6335 95.0727 71.6335 96.334V103H69.6315V90.944H71.6335V92.66C72.0295 92.044 72.5648 91.5673 73.2395 91.23C73.9288 90.8927 74.6842 90.724 75.5055 90.724ZM99.953 90.944L92.693 108.676H90.625L93.001 102.868L88.139 90.944H90.361L94.145 100.712L97.885 90.944H99.953ZM107.223 103.198C106.094 103.198 105.067 102.941 104.143 102.428C103.234 101.915 102.515 101.189 101.987 100.25C101.474 99.2967 101.217 98.1967 101.217 96.95C101.217 95.718 101.481 94.6327 102.009 93.694C102.552 92.7407 103.285 92.0147 104.209 91.516C105.133 91.0027 106.167 90.746 107.311 90.746C108.455 90.746 109.489 91.0027 110.413 91.516C111.337 92.0147 112.063 92.7333 112.591 93.672C113.134 94.6107 113.405 95.7033 113.405 96.95C113.405 98.1967 113.127 99.2967 112.569 100.25C112.027 101.189 111.286 101.915 110.347 102.428C109.409 102.941 108.367 103.198 107.223 103.198ZM107.223 101.438C107.942 101.438 108.617 101.269 109.247 100.932C109.878 100.595 110.384 100.089 110.765 99.414C111.161 98.7393 111.359 97.918 111.359 96.95C111.359 95.982 111.169 95.1607 110.787 94.486C110.406 93.8113 109.907 93.3127 109.291 92.99C108.675 92.6527 108.008 92.484 107.289 92.484C106.556 92.484 105.881 92.6527 105.265 92.99C104.664 93.3127 104.18 93.8113 103.813 94.486C103.447 95.1607 103.263 95.982 103.263 96.95C103.263 97.9327 103.439 98.7613 103.791 99.436C104.158 100.111 104.642 100.617 105.243 100.954C105.845 101.277 106.505 101.438 107.223 101.438ZM126.73 90.944V103H124.728V101.218C124.346 101.834 123.811 102.318 123.122 102.67C122.447 103.007 121.699 103.176 120.878 103.176C119.939 103.176 119.096 102.985 118.348 102.604C117.6 102.208 117.006 101.621 116.566 100.844C116.14 100.067 115.928 99.1207 115.928 98.006V90.944H117.908V97.742C117.908 98.93 118.208 99.8467 118.81 100.492C119.411 101.123 120.232 101.438 121.274 101.438C122.344 101.438 123.188 101.108 123.804 100.448C124.42 99.788 124.728 98.8273 124.728 97.566V90.944H126.73ZM137.977 93.166C138.373 92.4767 138.96 91.9047 139.737 91.45C140.529 90.9807 141.446 90.746 142.487 90.746C143.558 90.746 144.526 91.0027 145.391 91.516C146.271 92.0293 146.961 92.7553 147.459 93.694C147.958 94.618 148.207 95.696 148.207 96.928C148.207 98.1453 147.958 99.2307 147.459 100.184C146.961 101.137 146.271 101.878 145.391 102.406C144.526 102.934 143.558 103.198 142.487 103.198C141.461 103.198 140.551 102.971 139.759 102.516C138.982 102.047 138.388 101.467 137.977 100.778V108.72H135.975V90.944H137.977V93.166ZM146.161 96.928C146.161 96.0187 145.978 95.2267 145.611 94.552C145.245 93.8773 144.746 93.364 144.115 93.012C143.499 92.66 142.817 92.484 142.069 92.484C141.336 92.484 140.654 92.6673 140.023 93.034C139.407 93.386 138.909 93.9067 138.527 94.596C138.161 95.2707 137.977 96.0553 137.977 96.95C137.977 97.8593 138.161 98.6587 138.527 99.348C138.909 100.023 139.407 100.543 140.023 100.91C140.654 101.262 141.336 101.438 142.069 101.438C142.817 101.438 143.499 101.262 144.115 100.91C144.746 100.543 145.245 100.023 145.611 99.348C145.978 98.6587 146.161 97.852 146.161 96.928ZM150.094 96.928C150.094 95.696 150.344 94.618 150.842 93.694C151.341 92.7553 152.023 92.0293 152.888 91.516C153.768 91.0027 154.744 90.746 155.814 90.746C156.87 90.746 157.787 90.9733 158.564 91.428C159.342 91.8827 159.921 92.4547 160.302 93.144V90.944H162.326V103H160.302V100.756C159.906 101.46 159.312 102.047 158.52 102.516C157.743 102.971 156.834 103.198 155.792 103.198C154.722 103.198 153.754 102.934 152.888 102.406C152.023 101.878 151.341 101.137 150.842 100.184C150.344 99.2307 150.094 98.1453 150.094 96.928ZM160.302 96.95C160.302 96.0407 160.119 95.2487 159.752 94.574C159.386 93.8993 158.887 93.386 158.256 93.034C157.64 92.6673 156.958 92.484 156.21 92.484C155.462 92.484 154.78 92.66 154.164 93.012C153.548 93.364 153.057 93.8773 152.69 94.552C152.324 95.2267 152.14 96.0187 152.14 96.928C152.14 97.852 152.324 98.6587 152.69 99.348C153.057 100.023 153.548 100.543 154.164 100.91C154.78 101.262 155.462 101.438 156.21 101.438C156.958 101.438 157.64 101.262 158.256 100.91C158.887 100.543 159.386 100.023 159.752 99.348C160.119 98.6587 160.302 97.8593 160.302 96.95ZM176.094 90.944L168.834 108.676H166.766L169.142 102.868L164.28 90.944H166.502L170.286 100.712L174.026 90.944H176.094ZM200.031 90.944L196.269 103H194.201L191.297 93.43L188.393 103H186.325L182.541 90.944H184.587L187.359 101.064L190.351 90.944H192.397L195.323 101.086L198.051 90.944H200.031ZM203.052 88.986C202.671 88.986 202.348 88.854 202.084 88.59C201.82 88.326 201.688 88.0033 201.688 87.622C201.688 87.2407 201.82 86.918 202.084 86.654C202.348 86.39 202.671 86.258 203.052 86.258C203.419 86.258 203.727 86.39 203.976 86.654C204.24 86.918 204.372 87.2407 204.372 87.622C204.372 88.0033 204.24 88.326 203.976 88.59C203.727 88.854 203.419 88.986 203.052 88.986ZM204.02 90.944V103H202.018V90.944H204.02ZM209.874 92.594V99.7C209.874 100.287 209.999 100.705 210.248 100.954C210.498 101.189 210.93 101.306 211.546 101.306H213.02V103H211.216C210.102 103 209.266 102.743 208.708 102.23C208.151 101.717 207.872 100.873 207.872 99.7V92.594H206.31V90.944H207.872V87.908H209.874V90.944H213.02V92.594H209.874ZM221.43 90.724C222.339 90.724 223.161 90.922 223.894 91.318C224.627 91.6993 225.199 92.2787 225.61 93.056C226.035 93.8333 226.248 94.7793 226.248 95.894V103H224.268V96.18C224.268 94.9773 223.967 94.0607 223.366 93.43C222.765 92.7847 221.943 92.462 220.902 92.462C219.846 92.462 219.003 92.792 218.372 93.452C217.756 94.112 217.448 95.0727 217.448 96.334V103H215.446V86.72H217.448V92.66C217.844 92.044 218.387 91.5673 219.076 91.23C219.78 90.8927 220.565 90.724 221.43 90.724Z" fill="white"/>
<path d="M114.46 50.154C114.46 46.482 115.288 43.188 116.944 40.272C118.6 37.32 120.85 35.016 123.694 33.36C126.574 31.704 129.76 30.876 133.252 30.876C137.356 30.876 140.938 31.866 143.998 33.846C147.058 35.826 149.29 38.634 150.694 42.27H144.808C143.764 40.002 142.252 38.256 140.272 37.032C138.328 35.808 135.988 35.196 133.252 35.196C130.624 35.196 128.266 35.808 126.178 37.032C124.09 38.256 122.452 40.002 121.264 42.27C120.076 44.502 119.482 47.13 119.482 50.154C119.482 53.142 120.076 55.77 121.264 58.038C122.452 60.27 124.09 61.998 126.178 63.222C128.266 64.446 130.624 65.058 133.252 65.058C135.988 65.058 138.328 64.464 140.272 63.276C142.252 62.052 143.764 60.306 144.808 58.038H150.694C149.29 61.638 147.058 64.428 143.998 66.408C140.938 68.352 137.356 69.324 133.252 69.324C129.76 69.324 126.574 68.514 123.694 66.894C120.85 65.238 118.6 62.952 116.944 60.036C115.288 57.12 114.46 53.826 114.46 50.154ZM180.257 60.63H163.841L160.817 69H155.633L169.241 31.578H174.911L188.465 69H183.281L180.257 60.63ZM178.853 56.634L172.049 37.626L165.245 56.634H178.853ZM206.329 69.378C203.845 69.378 201.613 68.946 199.633 68.082C197.689 67.182 196.159 65.958 195.043 64.41C193.927 62.826 193.351 61.008 193.315 58.956H198.553C198.733 60.72 199.453 62.214 200.713 63.438C202.009 64.626 203.881 65.22 206.329 65.22C208.669 65.22 210.505 64.644 211.837 63.492C213.205 62.304 213.889 60.792 213.889 58.956C213.889 57.516 213.493 56.346 212.701 55.446C211.909 54.546 210.919 53.862 209.731 53.394C208.543 52.926 206.941 52.422 204.925 51.882C202.441 51.234 200.443 50.586 198.931 49.938C197.455 49.29 196.177 48.282 195.097 46.914C194.053 45.51 193.531 43.638 193.531 41.298C193.531 39.246 194.053 37.428 195.097 35.844C196.141 34.26 197.599 33.036 199.471 32.172C201.379 31.308 203.557 30.876 206.005 30.876C209.533 30.876 212.413 31.758 214.645 33.522C216.913 35.286 218.191 37.626 218.479 40.542H213.079C212.899 39.102 212.143 37.842 210.811 36.762C209.479 35.646 207.715 35.088 205.519 35.088C203.467 35.088 201.793 35.628 200.497 36.708C199.201 37.752 198.553 39.228 198.553 41.136C198.553 42.504 198.931 43.62 199.687 44.484C200.479 45.348 201.433 46.014 202.549 46.482C203.701 46.914 205.303 47.418 207.355 47.994C209.839 48.678 211.837 49.362 213.349 50.046C214.861 50.694 216.157 51.72 217.237 53.124C218.317 54.492 218.857 56.364 218.857 58.74C218.857 60.576 218.371 62.304 217.399 63.924C216.427 65.544 214.987 66.858 213.079 67.866C211.171 68.874 208.921 69.378 206.329 69.378ZM255.087 31.362V69H250.173V51.936H231.003V69H226.089V31.362H231.003V47.886H250.173V31.362H255.087ZM282.323 49.614C283.691 49.83 284.933 50.388 286.049 51.288C287.201 52.188 288.101 53.304 288.749 54.636C289.433 55.968 289.775 57.39 289.775 58.902C289.775 60.81 289.289 62.538 288.317 64.086C287.345 65.598 285.923 66.804 284.051 67.704C282.215 68.568 280.037 69 277.517 69H263.477V31.362H276.977C279.533 31.362 281.711 31.794 283.511 32.658C285.311 33.486 286.661 34.62 287.561 36.06C288.461 37.5 288.911 39.12 288.911 40.92C288.911 43.152 288.299 45.006 287.075 46.482C285.887 47.922 284.303 48.966 282.323 49.614ZM268.391 47.616H276.653C278.957 47.616 280.739 47.076 281.999 45.996C283.259 44.916 283.889 43.422 283.889 41.514C283.889 39.606 283.259 38.112 281.999 37.032C280.739 35.952 278.921 35.412 276.545 35.412H268.391V47.616ZM277.085 64.95C279.533 64.95 281.441 64.374 282.809 63.222C284.177 62.07 284.861 60.468 284.861 58.416C284.861 56.328 284.141 54.69 282.701 53.502C281.261 52.278 279.335 51.666 276.923 51.666H268.391V64.95H277.085ZM318.843 60.63H302.427L299.403 69H294.219L307.827 31.578H313.497L327.051 69H321.867L318.843 60.63ZM317.439 56.634L310.635 37.626L303.831 56.634H317.439ZM331.145 50.154C331.145 46.482 331.973 43.188 333.629 40.272C335.285 37.32 337.535 35.016 340.379 33.36C343.259 31.704 346.445 30.876 349.937 30.876C354.041 30.876 357.623 31.866 360.683 33.846C363.743 35.826 365.975 38.634 367.379 42.27H361.493C360.449 40.002 358.937 38.256 356.957 37.032C355.013 35.808 352.673 35.196 349.937 35.196C347.309 35.196 344.951 35.808 342.863 37.032C340.775 38.256 339.137 40.002 337.949 42.27C336.761 44.502 336.167 47.13 336.167 50.154C336.167 53.142 336.761 55.77 337.949 58.038C339.137 60.27 340.775 61.998 342.863 63.222C344.951 64.446 347.309 65.058 349.937 65.058C352.673 65.058 355.013 64.464 356.957 63.276C358.937 62.052 360.449 60.306 361.493 58.038H367.379C365.975 61.638 363.743 64.428 360.683 66.408C357.623 68.352 354.041 69.324 349.937 69.324C346.445 69.324 343.259 68.514 340.379 66.894C337.535 65.238 335.285 62.952 333.629 60.036C331.973 57.12 331.145 53.826 331.145 50.154ZM395.106 69L379.608 51.828V69H374.694V31.362H379.608V48.804L395.16 31.362H401.37L384.306 50.208L401.532 69H395.106Z" fill="white"/>
<path d="M25.2364 65.058C29.8084 61.386 33.3904 58.38 35.9824 56.04C38.5744 53.664 40.7524 51.198 42.5164 48.642C44.3164 46.05 45.2164 43.512 45.2164 41.028C45.2164 38.688 44.6404 36.852 43.4884 35.52C42.3724 34.152 40.5544 33.468 38.0344 33.468C35.5864 33.468 33.6784 34.242 32.3104 35.79C30.9784 37.302 30.2584 39.336 30.1504 41.892H25.3984C25.5424 37.86 26.7664 34.746 29.0704 32.55C31.3744 30.354 34.3444 29.256 37.9804 29.256C41.6884 29.256 44.6224 30.282 46.7824 32.334C48.9784 34.386 50.0764 37.212 50.0764 40.812C50.0764 43.8 49.1764 46.716 47.3764 49.56C45.6124 52.368 43.5964 54.852 41.3284 57.012C39.0604 59.136 36.1624 61.62 32.6344 64.464H51.2104V68.568H25.2364V65.058ZM55.811 38.76C55.811 36.312 56.549 34.368 58.025 32.928C59.501 31.452 61.391 30.714 63.695 30.714C65.999 30.714 67.889 31.452 69.365 32.928C70.841 34.368 71.579 36.312 71.579 38.76C71.579 41.244 70.841 43.224 69.365 44.7C67.889 46.14 65.999 46.86 63.695 46.86C61.391 46.86 59.501 46.14 58.025 44.7C56.549 43.224 55.811 41.244 55.811 38.76ZM87.347 31.308L65.477 69H60.617L82.487 31.308H87.347ZM63.695 33.738C62.471 33.738 61.499 34.17 60.779 35.034C60.095 35.862 59.753 37.104 59.753 38.76C59.753 40.416 60.095 41.676 60.779 42.54C61.499 43.404 62.471 43.836 63.695 43.836C64.919 43.836 65.891 43.404 66.611 42.54C67.331 41.64 67.691 40.38 67.691 38.76C67.691 37.104 67.331 35.862 66.611 35.034C65.891 34.17 64.919 33.738 63.695 33.738ZM76.493 61.548C76.493 59.064 77.231 57.102 78.707 55.662C80.183 54.186 82.073 53.448 84.377 53.448C86.681 53.448 88.553 54.186 89.993 55.662C91.469 57.102 92.207 59.064 92.207 61.548C92.207 63.996 91.469 65.958 89.993 67.434C88.553 68.91 86.681 69.648 84.377 69.648C82.073 69.648 80.183 68.928 78.707 67.488C77.231 66.012 76.493 64.032 76.493 61.548ZM84.323 56.526C83.099 56.526 82.127 56.958 81.407 57.822C80.687 58.65 80.327 59.892 80.327 61.548C80.327 63.168 80.687 64.41 81.407 65.274C82.127 66.102 83.099 66.516 84.323 66.516C85.547 66.516 86.519 66.102 87.239 65.274C87.959 64.41 88.319 63.168 88.319 61.548C88.319 59.892 87.959 58.65 87.239 57.822C86.519 56.958 85.547 56.526 84.323 56.526Z" fill="white"/>
</svg>
