<svg width="425" height="600" viewBox="0 0 425 600" fill="none" xmlns="http://www.w3.org/2000/svg">
<rect width="424.26" height="600" fill="#636890"/>
<path d="M49.984 519L55.056 507.8H56.64L61.728 519H60.048L55.52 508.696H56.16L51.632 519H49.984ZM52.144 516.2L52.576 514.92H58.88L59.344 516.2H52.144ZM66.1526 519.096C65.2886 519.096 64.5153 518.909 63.8326 518.536C63.1606 518.163 62.6326 517.651 62.2486 517C61.8646 516.349 61.6726 515.603 61.6726 514.76C61.6726 513.917 61.8646 513.171 62.2486 512.52C62.6326 511.869 63.1606 511.363 63.8326 511C64.5153 510.627 65.2886 510.44 66.1526 510.44C66.9206 510.44 67.6033 510.595 68.2006 510.904C68.8086 511.203 69.278 511.651 69.6086 512.248L68.4406 513C68.1633 512.584 67.822 512.28 67.4166 512.088C67.022 511.885 66.5953 511.784 66.1366 511.784C65.582 511.784 65.086 511.907 64.6486 512.152C64.2113 512.397 63.8646 512.744 63.6086 513.192C63.3526 513.629 63.2246 514.152 63.2246 514.76C63.2246 515.368 63.3526 515.896 63.6086 516.344C63.8646 516.792 64.2113 517.139 64.6486 517.384C65.086 517.629 65.582 517.752 66.1366 517.752C66.5953 517.752 67.022 517.656 67.4166 517.464C67.822 517.261 68.1633 516.952 68.4406 516.536L69.6086 517.272C69.278 517.859 68.8086 518.312 68.2006 518.632C67.6033 518.941 66.9206 519.096 66.1526 519.096ZM74.5282 519.096C73.6642 519.096 72.8909 518.909 72.2082 518.536C71.5362 518.163 71.0082 517.651 70.6242 517C70.2402 516.349 70.0482 515.603 70.0482 514.76C70.0482 513.917 70.2402 513.171 70.6242 512.52C71.0082 511.869 71.5362 511.363 72.2082 511C72.8909 510.627 73.6642 510.44 74.5282 510.44C75.2962 510.44 75.9789 510.595 76.5762 510.904C77.1842 511.203 77.6536 511.651 77.9843 512.248L76.8162 513C76.5389 512.584 76.1976 512.28 75.7922 512.088C75.3976 511.885 74.9709 511.784 74.5122 511.784C73.9576 511.784 73.4616 511.907 73.0242 512.152C72.5869 512.397 72.2402 512.744 71.9842 513.192C71.7282 513.629 71.6002 514.152 71.6002 514.76C71.6002 515.368 71.7282 515.896 71.9842 516.344C72.2402 516.792 72.5869 517.139 73.0242 517.384C73.4616 517.629 73.9576 517.752 74.5122 517.752C74.9709 517.752 75.3976 517.656 75.7922 517.464C76.1976 517.261 76.5389 516.952 76.8162 516.536L77.9843 517.272C77.6536 517.859 77.1842 518.312 76.5762 518.632C75.9789 518.941 75.2962 519.096 74.5282 519.096ZM82.9839 519.096C82.0772 519.096 81.2772 518.909 80.5839 518.536C79.9012 518.163 79.3679 517.651 78.9839 517C78.6105 516.349 78.4239 515.603 78.4239 514.76C78.4239 513.917 78.6052 513.171 78.9679 512.52C79.3412 511.869 79.8479 511.363 80.4879 511C81.1385 510.627 81.8692 510.44 82.6799 510.44C83.5012 510.44 84.2265 510.621 84.8559 510.984C85.4852 511.347 85.9759 511.859 86.3279 512.52C86.6905 513.171 86.8719 513.933 86.8719 514.808C86.8719 514.872 86.8665 514.947 86.8559 515.032C86.8559 515.117 86.8505 515.197 86.8399 515.272H79.6239V514.168H86.0399L85.4159 514.552C85.4265 514.008 85.3145 513.523 85.0799 513.096C84.8452 512.669 84.5199 512.339 84.1039 512.104C83.6985 511.859 83.2239 511.736 82.6799 511.736C82.1465 511.736 81.6719 511.859 81.2559 512.104C80.8399 512.339 80.5145 512.675 80.2799 513.112C80.0452 513.539 79.9279 514.029 79.9279 514.584V514.84C79.9279 515.405 80.0559 515.912 80.3119 516.36C80.5785 516.797 80.9465 517.139 81.4159 517.384C81.8852 517.629 82.4239 517.752 83.0319 517.752C83.5332 517.752 83.9865 517.667 84.3919 517.496C84.8079 517.325 85.1705 517.069 85.4799 516.728L86.3279 517.72C85.9439 518.168 85.4639 518.509 84.8879 518.744C84.3225 518.979 83.6879 519.096 82.9839 519.096ZM92.8607 519.096C92.1567 519.096 91.5114 518.936 90.9247 518.616C90.3487 518.285 89.8847 517.8 89.5327 517.16C89.1914 516.52 89.0207 515.72 89.0207 514.76C89.0207 513.8 89.1861 513 89.5167 512.36C89.8581 511.72 90.3167 511.24 90.8927 510.92C91.4794 510.6 92.1354 510.44 92.8607 510.44C93.6927 510.44 94.4287 510.621 95.0687 510.984C95.7087 511.347 96.2154 511.853 96.5887 512.504C96.9621 513.144 97.1487 513.896 97.1487 514.76C97.1487 515.624 96.9621 516.381 96.5887 517.032C96.2154 517.683 95.7087 518.189 95.0687 518.552C94.4287 518.915 93.6927 519.096 92.8607 519.096ZM88.3647 522.104V510.52H89.8367V512.808L89.7407 514.776L89.9007 516.744V522.104H88.3647ZM92.7327 517.752C93.2767 517.752 93.7621 517.629 94.1887 517.384C94.6261 517.139 94.9674 516.792 95.2127 516.344C95.4687 515.885 95.5967 515.357 95.5967 514.76C95.5967 514.152 95.4687 513.629 95.2127 513.192C94.9674 512.744 94.6261 512.397 94.1887 512.152C93.7621 511.907 93.2767 511.784 92.7327 511.784C92.1994 511.784 91.7141 511.907 91.2767 512.152C90.8501 512.397 90.5087 512.744 90.2527 513.192C90.0074 513.629 89.8847 514.152 89.8847 514.76C89.8847 515.357 90.0074 515.885 90.2527 516.344C90.5087 516.792 90.8501 517.139 91.2767 517.384C91.7141 517.629 92.1994 517.752 92.7327 517.752ZM101.543 519.096C100.69 519.096 100.028 518.867 99.559 518.408C99.0897 517.949 98.855 517.293 98.855 516.44V508.664H100.391V516.376C100.391 516.835 100.503 517.187 100.727 517.432C100.962 517.677 101.292 517.8 101.719 517.8C102.199 517.8 102.599 517.667 102.919 517.4L103.399 518.504C103.164 518.707 102.882 518.856 102.551 518.952C102.231 519.048 101.895 519.096 101.543 519.096ZM97.415 511.784V510.52H102.823V511.784H97.415ZM108.111 519.096C107.204 519.096 106.404 518.909 105.711 518.536C105.028 518.163 104.495 517.651 104.111 517C103.737 516.349 103.551 515.603 103.551 514.76C103.551 513.917 103.732 513.171 104.095 512.52C104.468 511.869 104.975 511.363 105.615 511C106.265 510.627 106.996 510.44 107.807 510.44C108.628 510.44 109.353 510.621 109.983 510.984C110.612 511.347 111.103 511.859 111.455 512.52C111.817 513.171 111.999 513.933 111.999 514.808C111.999 514.872 111.993 514.947 111.983 515.032C111.983 515.117 111.977 515.197 111.967 515.272H104.751V514.168H111.167L110.543 514.552C110.553 514.008 110.441 513.523 110.207 513.096C109.972 512.669 109.647 512.339 109.231 512.104C108.825 511.859 108.351 511.736 107.807 511.736C107.273 511.736 106.799 511.859 106.383 512.104C105.967 512.339 105.641 512.675 105.407 513.112C105.172 513.539 105.055 514.029 105.055 514.584V514.84C105.055 515.405 105.183 515.912 105.439 516.36C105.705 516.797 106.073 517.139 106.543 517.384C107.012 517.629 107.551 517.752 108.159 517.752C108.66 517.752 109.113 517.667 109.519 517.496C109.935 517.325 110.297 517.069 110.607 516.728L111.455 517.72C111.071 518.168 110.591 518.509 110.015 518.744C109.449 518.979 108.815 519.096 108.111 519.096ZM116.996 519.096C116.174 519.096 115.438 518.915 114.788 518.552C114.148 518.189 113.641 517.683 113.268 517.032C112.894 516.381 112.708 515.624 112.708 514.76C112.708 513.896 112.894 513.144 113.268 512.504C113.641 511.853 114.148 511.347 114.788 510.984C115.438 510.621 116.174 510.44 116.996 510.44C117.71 510.44 118.356 510.6 118.932 510.92C119.508 511.24 119.966 511.72 120.308 512.36C120.66 513 120.836 513.8 120.836 514.76C120.836 515.72 120.665 516.52 120.324 517.16C119.993 517.8 119.54 518.285 118.964 518.616C118.388 518.936 117.732 519.096 116.996 519.096ZM117.124 517.752C117.657 517.752 118.137 517.629 118.564 517.384C119.001 517.139 119.342 516.792 119.588 516.344C119.844 515.885 119.972 515.357 119.972 514.76C119.972 514.152 119.844 513.629 119.588 513.192C119.342 512.744 119.001 512.397 118.564 512.152C118.137 511.907 117.657 511.784 117.124 511.784C116.58 511.784 116.094 511.907 115.668 512.152C115.241 512.397 114.9 512.744 114.644 513.192C114.388 513.629 114.26 514.152 114.26 514.76C114.26 515.357 114.388 515.885 114.644 516.344C114.9 516.792 115.241 517.139 115.668 517.384C116.094 517.629 116.58 517.752 117.124 517.752ZM120.02 519V516.712L120.116 514.744L119.956 512.776V507.128H121.492V519H120.02ZM131.111 519.096C130.247 519.096 129.473 518.909 128.791 518.536C128.119 518.163 127.591 517.651 127.207 517C126.823 516.349 126.631 515.603 126.631 514.76C126.631 513.917 126.823 513.171 127.207 512.52C127.591 511.869 128.119 511.363 128.791 511C129.473 510.627 130.247 510.44 131.111 510.44C131.879 510.44 132.561 510.595 133.159 510.904C133.767 511.203 134.236 511.651 134.567 512.248L133.399 513C133.121 512.584 132.78 512.28 132.375 512.088C131.98 511.885 131.553 511.784 131.095 511.784C130.54 511.784 130.044 511.907 129.607 512.152C129.169 512.397 128.823 512.744 128.567 513.192C128.311 513.629 128.183 514.152 128.183 514.76C128.183 515.368 128.311 515.896 128.567 516.344C128.823 516.792 129.169 517.139 129.607 517.384C130.044 517.629 130.54 517.752 131.095 517.752C131.553 517.752 131.98 517.656 132.375 517.464C132.78 517.261 133.121 516.952 133.399 516.536L134.567 517.272C134.236 517.859 133.767 518.312 133.159 518.632C132.561 518.941 131.879 519.096 131.111 519.096ZM140.334 510.44C141.027 510.44 141.635 510.573 142.158 510.84C142.691 511.107 143.107 511.512 143.406 512.056C143.705 512.6 143.854 513.288 143.854 514.12V519H142.318V514.296C142.318 513.475 142.115 512.856 141.71 512.44C141.315 512.024 140.755 511.816 140.03 511.816C139.486 511.816 139.011 511.923 138.606 512.136C138.201 512.349 137.886 512.664 137.662 513.08C137.449 513.496 137.342 514.013 137.342 514.632V519H135.806V507.128H137.342V512.808L137.038 512.2C137.315 511.645 137.742 511.213 138.318 510.904C138.894 510.595 139.566 510.44 140.334 510.44ZM151.321 519V517.208L151.241 516.872V513.816C151.241 513.165 151.049 512.664 150.665 512.312C150.291 511.949 149.726 511.768 148.969 511.768C148.467 511.768 147.977 511.853 147.497 512.024C147.017 512.184 146.611 512.403 146.281 512.68L145.641 511.528C146.078 511.176 146.601 510.909 147.209 510.728C147.827 510.536 148.473 510.44 149.145 510.44C150.307 510.44 151.203 510.723 151.833 511.288C152.462 511.853 152.777 512.717 152.777 513.88V519H151.321ZM148.537 519.096C147.907 519.096 147.353 518.989 146.873 518.776C146.403 518.563 146.041 518.269 145.785 517.896C145.529 517.512 145.401 517.08 145.401 516.6C145.401 516.141 145.507 515.725 145.721 515.352C145.945 514.979 146.302 514.68 146.793 514.456C147.294 514.232 147.966 514.12 148.809 514.12H151.497V515.224H148.873C148.105 515.224 147.587 515.352 147.321 515.608C147.054 515.864 146.921 516.173 146.921 516.536C146.921 516.952 147.086 517.288 147.417 517.544C147.747 517.789 148.206 517.912 148.793 517.912C149.369 517.912 149.87 517.784 150.297 517.528C150.734 517.272 151.049 516.899 151.241 516.408L151.545 517.464C151.342 517.965 150.985 518.365 150.473 518.664C149.961 518.952 149.315 519.096 148.537 519.096ZM154.979 519V510.52H156.515V519H154.979ZM155.747 508.888C155.448 508.888 155.198 508.792 154.995 508.6C154.803 508.408 154.707 508.173 154.707 507.896C154.707 507.608 154.803 507.368 154.995 507.176C155.198 506.984 155.448 506.888 155.747 506.888C156.046 506.888 156.291 506.984 156.483 507.176C156.686 507.357 156.787 507.587 156.787 507.864C156.787 508.152 156.691 508.397 156.499 508.6C156.307 508.792 156.056 508.888 155.747 508.888ZM163.336 510.44C164.029 510.44 164.637 510.573 165.16 510.84C165.693 511.107 166.109 511.512 166.408 512.056C166.707 512.6 166.856 513.288 166.856 514.12V519H165.32V514.296C165.32 513.475 165.117 512.856 164.712 512.44C164.317 512.024 163.757 511.816 163.032 511.816C162.488 511.816 162.013 511.923 161.608 512.136C161.203 512.349 160.888 512.664 160.664 513.08C160.451 513.496 160.344 514.013 160.344 514.632V519H158.808V510.52H160.28V512.808L160.04 512.2C160.317 511.645 160.744 511.213 161.32 510.904C161.896 510.595 162.568 510.44 163.336 510.44ZM171.491 519.096C170.787 519.096 170.115 519 169.475 518.808C168.845 518.616 168.349 518.381 167.987 518.104L168.627 516.888C168.989 517.133 169.437 517.341 169.971 517.512C170.504 517.683 171.048 517.768 171.603 517.768C172.317 517.768 172.829 517.667 173.139 517.464C173.459 517.261 173.619 516.979 173.619 516.616C173.619 516.349 173.523 516.141 173.331 515.992C173.139 515.843 172.883 515.731 172.563 515.656C172.253 515.581 171.907 515.517 171.523 515.464C171.139 515.4 170.755 515.325 170.371 515.24C169.987 515.144 169.635 515.016 169.315 514.856C168.995 514.685 168.739 514.456 168.547 514.168C168.355 513.869 168.259 513.475 168.259 512.984C168.259 512.472 168.403 512.024 168.691 511.64C168.979 511.256 169.384 510.963 169.907 510.76C170.44 510.547 171.069 510.44 171.795 510.44C172.349 510.44 172.909 510.509 173.475 510.648C174.051 510.776 174.52 510.963 174.883 511.208L174.227 512.424C173.843 512.168 173.443 511.992 173.027 511.896C172.611 511.8 172.195 511.752 171.779 511.752C171.107 511.752 170.605 511.864 170.275 512.088C169.944 512.301 169.779 512.579 169.779 512.92C169.779 513.208 169.875 513.432 170.067 513.592C170.269 513.741 170.525 513.859 170.835 513.944C171.155 514.029 171.507 514.104 171.891 514.168C172.275 514.221 172.659 514.296 173.043 514.392C173.427 514.477 173.773 514.6 174.083 514.76C174.403 514.92 174.659 515.144 174.851 515.432C175.053 515.72 175.155 516.104 175.155 516.584C175.155 517.096 175.005 517.539 174.707 517.912C174.408 518.285 173.987 518.579 173.443 518.792C172.899 518.995 172.248 519.096 171.491 519.096ZM176.802 512.632C176.503 512.632 176.247 512.531 176.034 512.328C175.821 512.115 175.714 511.848 175.714 511.528C175.714 511.208 175.821 510.947 176.034 510.744C176.247 510.541 176.503 510.44 176.802 510.44C177.09 510.44 177.335 510.541 177.538 510.744C177.751 510.947 177.858 511.208 177.858 511.528C177.858 511.848 177.751 512.115 177.538 512.328C177.335 512.531 177.09 512.632 176.802 512.632ZM176.802 519.096C176.503 519.096 176.247 518.995 176.034 518.792C175.821 518.579 175.714 518.312 175.714 517.992C175.714 517.672 175.821 517.411 176.034 517.208C176.247 517.005 176.503 516.904 176.802 516.904C177.09 516.904 177.335 517.005 177.538 517.208C177.751 517.411 177.858 517.672 177.858 517.992C177.858 518.312 177.751 518.579 177.538 518.792C177.335 518.995 177.09 519.096 176.802 519.096Z" fill="white"/>
<path d="M198.144 510.379C197.778 510.17 197.308 510.17 196.89 510.379L193.966 512.102L191.982 513.198L189.11 514.922C188.744 515.131 188.274 515.131 187.856 514.922L185.611 513.564C185.245 513.355 184.984 512.937 184.984 512.467V509.856C184.984 509.439 185.193 509.021 185.611 508.76L187.856 507.454C188.222 507.245 188.692 507.245 189.11 507.454L191.355 508.812C191.721 509.021 191.982 509.439 191.982 509.909V511.632L193.966 510.483V508.708C193.966 508.29 193.757 507.872 193.339 507.611L189.162 505.157C188.796 504.948 188.326 504.948 187.909 505.157L183.627 507.663C183.209 507.872 183 508.29 183 508.708V513.616C183 514.034 183.209 514.452 183.627 514.713L187.856 517.167C188.222 517.376 188.692 517.376 189.11 517.167L191.982 515.496L193.966 514.347L196.838 512.676C197.204 512.467 197.674 512.467 198.091 512.676L200.337 513.982C200.702 514.191 200.963 514.608 200.963 515.078V517.689C200.963 518.107 200.755 518.525 200.337 518.786L198.144 520.091C197.778 520.3 197.308 520.3 196.89 520.091L194.645 518.786C194.279 518.577 194.018 518.159 194.018 517.689V516.018L192.034 517.167V518.89C192.034 519.308 192.243 519.726 192.661 519.987L196.89 522.441C197.256 522.65 197.726 522.65 198.144 522.441L202.373 519.987C202.739 519.778 203 519.36 203 518.89V513.93C203 513.512 202.791 513.094 202.373 512.833L198.144 510.379Z" fill="#8247E5"/>
<path d="M206.68 520V508.8H211.048C212.029 508.8 212.867 508.955 213.56 509.264C214.253 509.573 214.787 510.021 215.16 510.608C215.533 511.195 215.72 511.893 215.72 512.704C215.72 513.515 215.533 514.213 215.16 514.8C214.787 515.376 214.253 515.824 213.56 516.144C212.867 516.453 212.029 516.608 211.048 516.608H207.56L208.28 515.856V520H206.68ZM208.28 516.016L207.56 515.216H211C212.024 515.216 212.797 514.997 213.32 514.56C213.853 514.123 214.12 513.504 214.12 512.704C214.12 511.904 213.853 511.285 213.32 510.848C212.797 510.411 212.024 510.192 211 510.192H207.56L208.28 509.392V516.016ZM221.447 520.096C220.594 520.096 219.837 519.909 219.175 519.536C218.514 519.163 217.991 518.651 217.607 518C217.223 517.339 217.031 516.592 217.031 515.76C217.031 514.917 217.223 514.171 217.607 513.52C217.991 512.869 218.514 512.363 219.175 512C219.837 511.627 220.594 511.44 221.447 511.44C222.29 511.44 223.042 511.627 223.703 512C224.375 512.363 224.898 512.869 225.271 513.52C225.655 514.16 225.847 514.907 225.847 515.76C225.847 516.603 225.655 517.349 225.271 518C224.898 518.651 224.375 519.163 223.703 519.536C223.042 519.909 222.29 520.096 221.447 520.096ZM221.447 518.752C221.991 518.752 222.477 518.629 222.903 518.384C223.341 518.139 223.682 517.792 223.927 517.344C224.173 516.885 224.295 516.357 224.295 515.76C224.295 515.152 224.173 514.629 223.927 514.192C223.682 513.744 223.341 513.397 222.903 513.152C222.477 512.907 221.991 512.784 221.447 512.784C220.903 512.784 220.418 512.907 219.991 513.152C219.565 513.397 219.223 513.744 218.967 514.192C218.711 514.629 218.583 515.152 218.583 515.76C218.583 516.357 218.711 516.885 218.967 517.344C219.223 517.792 219.565 518.139 219.991 518.384C220.418 518.629 220.903 518.752 221.447 518.752ZM227.972 520V508.128H229.508V520H227.972ZM232.808 523.2C232.403 523.2 232.008 523.131 231.624 522.992C231.24 522.864 230.91 522.672 230.632 522.416L231.288 521.264C231.502 521.467 231.736 521.621 231.992 521.728C232.248 521.835 232.52 521.888 232.808 521.888C233.182 521.888 233.491 521.792 233.736 521.6C233.982 521.408 234.211 521.067 234.424 520.576L234.952 519.408L235.112 519.216L238.44 511.52H239.944L235.832 520.848C235.587 521.445 235.31 521.915 235 522.256C234.702 522.597 234.371 522.837 234.008 522.976C233.646 523.125 233.246 523.2 232.808 523.2ZM234.824 520.272L230.952 511.52H232.552L235.848 519.072L234.824 520.272ZM244.856 523.2C244.077 523.2 243.32 523.088 242.584 522.864C241.858 522.651 241.266 522.341 240.808 521.936L241.544 520.752C241.938 521.093 242.424 521.36 243 521.552C243.576 521.755 244.178 521.856 244.808 521.856C245.81 521.856 246.546 521.621 247.016 521.152C247.485 520.683 247.72 519.968 247.72 519.008V517.216L247.88 515.536L247.8 513.84V511.52H249.256V518.848C249.256 520.341 248.882 521.44 248.135 522.144C247.389 522.848 246.296 523.2 244.856 523.2ZM244.664 519.648C243.842 519.648 243.106 519.477 242.456 519.136C241.816 518.784 241.304 518.299 240.92 517.68C240.546 517.061 240.36 516.347 240.36 515.536C240.36 514.715 240.546 514 240.92 513.392C241.304 512.773 241.816 512.293 242.456 511.952C243.106 511.611 243.842 511.44 244.664 511.44C245.389 511.44 246.05 511.589 246.648 511.888C247.245 512.176 247.72 512.624 248.072 513.232C248.434 513.84 248.616 514.608 248.616 515.536C248.616 516.453 248.434 517.216 248.072 517.824C247.72 518.432 247.245 518.891 246.648 519.2C246.05 519.499 245.389 519.648 244.664 519.648ZM244.84 518.304C245.405 518.304 245.906 518.187 246.344 517.952C246.781 517.717 247.122 517.392 247.368 516.976C247.624 516.56 247.752 516.08 247.752 515.536C247.752 514.992 247.624 514.512 247.368 514.096C247.122 513.68 246.781 513.36 246.344 513.136C245.906 512.901 245.405 512.784 244.84 512.784C244.274 512.784 243.768 512.901 243.32 513.136C242.882 513.36 242.536 513.68 242.28 514.096C242.034 514.512 241.912 514.992 241.912 515.536C241.912 516.08 242.034 516.56 242.28 516.976C242.536 517.392 242.882 517.717 243.32 517.952C243.768 518.187 244.274 518.304 244.84 518.304ZM255.822 520.096C254.969 520.096 254.212 519.909 253.55 519.536C252.889 519.163 252.366 518.651 251.982 518C251.598 517.339 251.406 516.592 251.406 515.76C251.406 514.917 251.598 514.171 251.982 513.52C252.366 512.869 252.889 512.363 253.55 512C254.212 511.627 254.969 511.44 255.822 511.44C256.665 511.44 257.417 511.627 258.078 512C258.75 512.363 259.273 512.869 259.646 513.52C260.03 514.16 260.222 514.907 260.222 515.76C260.222 516.603 260.03 517.349 259.646 518C259.273 518.651 258.75 519.163 258.078 519.536C257.417 519.909 256.665 520.096 255.822 520.096ZM255.822 518.752C256.366 518.752 256.852 518.629 257.278 518.384C257.716 518.139 258.057 517.792 258.302 517.344C258.548 516.885 258.67 516.357 258.67 515.76C258.67 515.152 258.548 514.629 258.302 514.192C258.057 513.744 257.716 513.397 257.278 513.152C256.852 512.907 256.366 512.784 255.822 512.784C255.278 512.784 254.793 512.907 254.366 513.152C253.94 513.397 253.598 513.744 253.342 514.192C253.086 514.629 252.958 515.152 252.958 515.76C252.958 516.357 253.086 516.885 253.342 517.344C253.598 517.792 253.94 518.139 254.366 518.384C254.793 518.629 255.278 518.752 255.822 518.752ZM266.875 511.44C267.568 511.44 268.176 511.573 268.699 511.84C269.232 512.107 269.648 512.512 269.947 513.056C270.245 513.6 270.395 514.288 270.395 515.12V520H268.859V515.296C268.859 514.475 268.656 513.856 268.251 513.44C267.856 513.024 267.296 512.816 266.571 512.816C266.027 512.816 265.552 512.923 265.147 513.136C264.741 513.349 264.427 513.664 264.203 514.08C263.989 514.496 263.883 515.013 263.883 515.632V520H262.347V511.52H263.819V513.808L263.579 513.2C263.856 512.645 264.283 512.213 264.859 511.904C265.435 511.595 266.107 511.44 266.875 511.44Z" fill="white"/>
<path d="M290.017 525C295.602 525 300.035 520.487 300.035 515C300.035 509.425 295.513 505 290.017 505C284.432 505 280 509.513 280 515C280 520.487 284.521 525 290.017 525Z" fill="#2C374B"/>
<path fill-rule="evenodd" clip-rule="evenodd" d="M295.513 511.372C295.425 511.283 291.081 508.717 290.549 508.54C290.372 508.451 289.929 508.363 289.663 508.451C289.397 508.54 284.787 511.195 284.61 511.372C284.521 511.46 284.432 511.637 284.344 511.726C284.255 511.903 284.255 511.991 284.255 515.088V518.274L284.876 518.628C285.23 518.805 285.496 518.982 285.496 518.982C285.585 518.982 289.751 512.345 289.751 512.257C289.751 512.168 288.776 512.168 288.51 512.257C288.156 512.345 287.89 512.522 287.712 512.699C287.624 512.788 287.092 513.673 286.383 514.646C285.762 515.619 285.23 516.504 285.23 516.504C285.23 516.504 285.23 515.619 285.23 514.381V512.168L285.319 512.08C285.496 511.903 290.017 509.336 290.195 509.336C290.283 509.336 290.372 509.336 291.436 509.956C291.79 510.133 292.765 510.664 293.563 511.195C294.361 511.637 295.07 512.08 295.159 512.168L295.247 512.257V516.858L293.031 513.407C292.943 513.23 292.854 513.053 292.765 512.965C292.765 512.965 292.677 513.142 292.145 514.027C292.056 514.115 291.967 514.292 291.967 514.381L291.879 514.558L291.967 514.646L292.056 514.734C292.056 514.734 292.056 514.823 292.145 514.823L292.322 515.088C292.322 515.088 292.322 515.177 292.411 515.177C292.499 515.265 292.588 515.442 292.588 515.531C292.588 515.531 292.588 515.531 292.588 515.619L294.45 518.628L294.272 518.717C294.184 518.805 294.095 518.805 294.006 518.805L291.702 515.265L291.613 515.177L291.436 515.531L290.549 516.947L292.322 519.779C292.056 519.956 290.549 521.018 290.46 521.018C290.372 521.018 288.333 519.69 288.422 519.602C288.422 519.602 289.042 518.54 289.751 517.301C290.372 516.239 291.17 514.911 291.702 514.027C292.322 512.965 292.588 512.434 292.588 512.434C292.588 512.434 292.145 512.434 291.613 512.434H290.726L288.688 515.796C287.978 517.035 287.269 518.186 286.915 518.805C286.294 518.894 286.117 519.071 286.117 519.071L286.028 519.248L287.624 520.133C288.51 520.664 289.308 521.106 289.485 521.195C289.751 521.372 290.195 521.372 290.372 521.372C290.549 521.283 295.159 518.628 295.425 518.451C295.513 518.363 295.602 518.274 295.691 518.097L295.779 517.832V514.911V511.991L295.691 511.814C295.691 511.637 295.513 511.46 295.513 511.372Z" fill="white"/>
<path d="M295.07 516.77L292.411 512.699L291.436 514.292L294.006 518.451L295.159 517.92L295.07 516.77Z" fill="#24A2EE"/>
<path d="M293.829 518.982L291.17 514.911L290.017 516.681L292.145 520.044L293.475 519.513L293.829 518.982Z" fill="#24A2EE"/>
<path fill-rule="evenodd" clip-rule="evenodd" d="M285.142 512.168L290.017 509.336L294.893 512.168V517.832L290.017 520.664L286.383 518.628L285.939 519.425L289.929 521.726C290.017 521.814 290.106 521.814 290.195 521.726L295.779 518.54C295.868 518.451 295.957 518.363 295.957 518.274V511.903C295.957 511.814 295.868 511.726 295.779 511.637L290.195 508.451C290.106 508.363 290.017 508.363 289.929 508.451L284.344 511.549C284.255 511.637 284.166 511.726 284.166 511.814V518.186C284.166 518.274 284.255 518.363 284.344 518.451L285.496 519.071L286.028 518.274L285.23 517.832V512.168H285.142Z" fill="#98BCDC"/>
<path d="M292.145 512.168H290.283L285.94 519.248L287.447 520.133L292.145 512.168Z" fill="white"/>
<path d="M287.446 512.876C287.89 512.168 289.131 512.168 289.663 512.257L285.408 519.071C285.23 518.982 284.876 518.805 284.61 518.628C284.255 518.451 284.166 518.451 284.166 518.186V517.832C285.142 516.416 287.003 513.584 287.446 512.876Z" fill="white"/>
<path d="M291.984 546L297.056 534.8H298.64L303.728 546H302.048L297.52 535.696H298.16L293.632 546H291.984ZM294.144 543.2L294.576 541.92H300.88L301.344 543.2H294.144ZM306.961 546L303.249 537.52H304.849L308.145 545.2H307.377L310.737 537.52H312.241L308.529 546H306.961ZM318.673 546V544.208L318.593 543.872V540.816C318.593 540.165 318.401 539.664 318.017 539.312C317.644 538.949 317.078 538.768 316.321 538.768C315.82 538.768 315.329 538.853 314.849 539.024C314.369 539.184 313.964 539.403 313.633 539.68L312.993 538.528C313.43 538.176 313.953 537.909 314.561 537.728C315.18 537.536 315.825 537.44 316.497 537.44C317.66 537.44 318.556 537.723 319.185 538.288C319.814 538.853 320.129 539.717 320.129 540.88V546H318.673ZM315.889 546.096C315.26 546.096 314.705 545.989 314.225 545.776C313.756 545.563 313.393 545.269 313.137 544.896C312.881 544.512 312.753 544.08 312.753 543.6C312.753 543.141 312.86 542.725 313.073 542.352C313.297 541.979 313.654 541.68 314.145 541.456C314.646 541.232 315.318 541.12 316.161 541.12H318.849V542.224H316.225C315.457 542.224 314.94 542.352 314.673 542.608C314.406 542.864 314.273 543.173 314.273 543.536C314.273 543.952 314.438 544.288 314.769 544.544C315.1 544.789 315.558 544.912 316.145 544.912C316.721 544.912 317.222 544.784 317.649 544.528C318.086 544.272 318.401 543.899 318.593 543.408L318.897 544.464C318.694 544.965 318.337 545.365 317.825 545.664C317.313 545.952 316.668 546.096 315.889 546.096ZM322.972 546V534.128H324.508V546H322.972ZM332.704 546V544.208L332.624 543.872V540.816C332.624 540.165 332.432 539.664 332.048 539.312C331.675 538.949 331.11 538.768 330.352 538.768C329.851 538.768 329.36 538.853 328.88 539.024C328.4 539.184 327.995 539.403 327.664 539.68L327.024 538.528C327.462 538.176 327.984 537.909 328.592 537.728C329.211 537.536 329.856 537.44 330.528 537.44C331.691 537.44 332.587 537.723 333.216 538.288C333.846 538.853 334.16 539.717 334.16 540.88V546H332.704ZM329.92 546.096C329.291 546.096 328.736 545.989 328.256 545.776C327.787 545.563 327.424 545.269 327.168 544.896C326.912 544.512 326.784 544.08 326.784 543.6C326.784 543.141 326.891 542.725 327.104 542.352C327.328 541.979 327.686 541.68 328.176 541.456C328.678 541.232 329.35 541.12 330.192 541.12H332.88V542.224H330.256C329.488 542.224 328.971 542.352 328.704 542.608C328.438 542.864 328.304 543.173 328.304 543.536C328.304 543.952 328.47 544.288 328.8 544.544C329.131 544.789 329.59 544.912 330.176 544.912C330.752 544.912 331.254 544.784 331.68 544.528C332.118 544.272 332.432 543.899 332.624 543.408L332.928 544.464C332.726 544.965 332.368 545.365 331.856 545.664C331.344 545.952 330.699 546.096 329.92 546.096ZM341.531 537.44C342.224 537.44 342.832 537.573 343.355 537.84C343.888 538.107 344.304 538.512 344.603 539.056C344.902 539.6 345.051 540.288 345.051 541.12V546H343.515V541.296C343.515 540.475 343.312 539.856 342.907 539.44C342.512 539.024 341.952 538.816 341.227 538.816C340.683 538.816 340.208 538.923 339.803 539.136C339.398 539.349 339.083 539.664 338.859 540.08C338.646 540.496 338.539 541.013 338.539 541.632V546H337.003V537.52H338.475V539.808L338.235 539.2C338.512 538.645 338.939 538.213 339.515 537.904C340.091 537.595 340.763 537.44 341.531 537.44ZM351.59 546.096C350.726 546.096 349.952 545.909 349.27 545.536C348.598 545.163 348.07 544.651 347.686 544C347.302 543.349 347.11 542.603 347.11 541.76C347.11 540.917 347.302 540.171 347.686 539.52C348.07 538.869 348.598 538.363 349.27 538C349.952 537.627 350.726 537.44 351.59 537.44C352.358 537.44 353.04 537.595 353.638 537.904C354.246 538.203 354.715 538.651 355.046 539.248L353.878 540C353.6 539.584 353.259 539.28 352.854 539.088C352.459 538.885 352.032 538.784 351.574 538.784C351.019 538.784 350.523 538.907 350.086 539.152C349.648 539.397 349.302 539.744 349.046 540.192C348.79 540.629 348.662 541.152 348.662 541.76C348.662 542.368 348.79 542.896 349.046 543.344C349.302 543.792 349.648 544.139 350.086 544.384C350.523 544.629 351.019 544.752 351.574 544.752C352.032 544.752 352.459 544.656 352.854 544.464C353.259 544.261 353.6 543.952 353.878 543.536L355.046 544.272C354.715 544.859 354.246 545.312 353.638 545.632C353.04 545.941 352.358 546.096 351.59 546.096ZM361.453 537.44C362.146 537.44 362.754 537.573 363.277 537.84C363.81 538.107 364.226 538.512 364.525 539.056C364.823 539.6 364.973 540.288 364.973 541.12V546H363.437V541.296C363.437 540.475 363.234 539.856 362.829 539.44C362.434 539.024 361.874 538.816 361.149 538.816C360.605 538.816 360.13 538.923 359.725 539.136C359.319 539.349 359.005 539.664 358.781 540.08C358.567 540.496 358.461 541.013 358.461 541.632V546H356.925V534.128H358.461V539.808L358.157 539.2C358.434 538.645 358.861 538.213 359.437 537.904C360.013 537.595 360.685 537.44 361.453 537.44ZM371.591 546.096C370.685 546.096 369.885 545.909 369.191 545.536C368.509 545.163 367.975 544.651 367.591 544C367.218 543.349 367.031 542.603 367.031 541.76C367.031 540.917 367.213 540.171 367.575 539.52C367.949 538.869 368.455 538.363 369.095 538C369.746 537.627 370.477 537.44 371.287 537.44C372.109 537.44 372.834 537.621 373.463 537.984C374.093 538.347 374.583 538.859 374.935 539.52C375.298 540.171 375.479 540.933 375.479 541.808C375.479 541.872 375.474 541.947 375.463 542.032C375.463 542.117 375.458 542.197 375.447 542.272H368.231V541.168H374.647L374.023 541.552C374.034 541.008 373.922 540.523 373.687 540.096C373.453 539.669 373.127 539.339 372.711 539.104C372.306 538.859 371.831 538.736 371.287 538.736C370.754 538.736 370.279 538.859 369.863 539.104C369.447 539.339 369.122 539.675 368.887 540.112C368.653 540.539 368.535 541.029 368.535 541.584V541.84C368.535 542.405 368.663 542.912 368.919 543.36C369.186 543.797 369.554 544.139 370.023 544.384C370.493 544.629 371.031 544.752 371.639 544.752C372.141 544.752 372.594 544.667 372.999 544.496C373.415 544.325 373.778 544.069 374.087 543.728L374.935 544.72C374.551 545.168 374.071 545.509 373.495 545.744C372.93 545.979 372.295 546.096 371.591 546.096Z" fill="white"/>
<path d="M93.6664 533.083L99 530L104.334 533.083L102.334 534.166L99 532.25L95.5832 534.166L93.6664 533.083ZM104.25 536.917L102.333 535.834L99 537.75L95.5832 535.834L93.6664 536.917V539.167L97 541.084V545.001L98.9168 546.167L100.834 545.001V541.167L104.167 539.25V536.917H104.25ZM104.25 543.083V540.834L102.334 542V544.166L104.25 543.083ZM105.666 543.834L102.333 545.75V548L107.666 544.917V538.75L105.666 540V543.834ZM103.75 535L105.667 536.166V538.417L107.584 537.25V535L105.667 533.834L103.75 535ZM97 546.583V548.833L98.9168 549.999L100.834 548.833V546.583L98.9168 547.75L97 546.583ZM93.6664 543.083L95.5832 544.166V541.917L93.6664 540.75V543.083ZM97 535L98.9168 536.166L100.917 535L99 533.834L97 535ZM92.2496 536.166L94.2496 535L92.2496 533.834L90.3336 535V537.25L92.2504 538.416V536.166H92.2496ZM92.2496 540L90.3328 538.834V545L95.6664 548.083V545.834L92.3328 543.917V540H92.2496Z" fill="#F0B90B"/>
<path d="M165 550C170.523 550 175 545.523 175 540C175 534.477 170.523 530 165 530C159.477 530 155 534.477 155 540C155 545.523 159.477 550 165 550Z" fill="#FF0420"/>
<path d="M162.084 542.656C161.488 542.656 161 542.516 160.62 542.236C160.244 541.952 160.056 541.544 160.056 541.02C160.056 540.908 160.068 540.776 160.092 540.616C160.156 540.256 160.248 539.824 160.368 539.316C160.708 537.94 161.588 537.252 163.004 537.252C163.388 537.252 163.736 537.316 164.04 537.448C164.344 537.572 164.584 537.764 164.76 538.02C164.936 538.272 165.024 538.572 165.024 538.92C165.024 539.024 165.012 539.156 164.988 539.316C164.912 539.76 164.824 540.196 164.716 540.616C164.54 541.3 164.24 541.816 163.808 542.156C163.38 542.492 162.804 542.656 162.084 542.656ZM162.192 541.576C162.472 541.576 162.708 541.492 162.904 541.328C163.104 541.164 163.248 540.912 163.332 540.568C163.448 540.096 163.536 539.688 163.596 539.336C163.616 539.232 163.628 539.124 163.628 539.012C163.628 538.556 163.392 538.328 162.916 538.328C162.636 538.328 162.396 538.412 162.196 538.576C162 538.74 161.86 538.992 161.776 539.336C161.684 539.672 161.596 540.08 161.504 540.568C161.484 540.668 161.472 540.772 161.472 540.884C161.468 541.348 161.712 541.576 162.192 541.576Z" fill="white"/>
<path d="M165.372 542.584C165.316 542.584 165.276 542.568 165.244 542.532C165.22 542.492 165.212 542.448 165.22 542.396L166.256 537.516C166.264 537.46 166.292 537.416 166.34 537.38C166.384 537.344 166.432 537.328 166.484 537.328H168.48C169.036 537.328 169.48 537.444 169.816 537.672C170.156 537.904 170.328 538.236 170.328 538.672C170.328 538.796 170.312 538.928 170.284 539.064C170.16 539.64 169.908 540.064 169.524 540.34C169.148 540.616 168.632 540.752 167.976 540.752H166.964L166.62 542.396C166.608 542.452 166.584 542.496 166.536 542.532C166.492 542.568 166.444 542.584 166.392 542.584H165.372ZM168.028 539.716C168.24 539.716 168.42 539.66 168.576 539.544C168.736 539.428 168.84 539.264 168.892 539.048C168.908 538.964 168.916 538.888 168.916 538.824C168.916 538.68 168.872 538.568 168.788 538.492C168.704 538.412 168.556 538.372 168.352 538.372H167.452L167.168 539.716H168.028Z" fill="white"/>
<path d="M113.68 546V534.8H118.704C119.995 534.8 120.987 535.061 121.68 535.584C122.373 536.096 122.72 536.8 122.72 537.696C122.72 538.304 122.581 538.816 122.304 539.232C122.037 539.648 121.675 539.968 121.216 540.192C120.757 540.416 120.261 540.528 119.728 540.528L120.016 540.048C120.656 540.048 121.221 540.16 121.712 540.384C122.203 540.608 122.592 540.939 122.88 541.376C123.168 541.803 123.312 542.336 123.312 542.976C123.312 543.936 122.949 544.683 122.224 545.216C121.509 545.739 120.443 546 119.024 546H113.68ZM115.28 544.704H118.96C119.845 544.704 120.523 544.555 120.992 544.256C121.461 543.957 121.696 543.488 121.696 542.848C121.696 542.197 121.461 541.723 120.992 541.424C120.523 541.125 119.845 540.976 118.96 540.976H115.136V539.68H118.56C119.371 539.68 120 539.531 120.448 539.232C120.896 538.933 121.12 538.485 121.12 537.888C121.12 537.291 120.896 536.843 120.448 536.544C120 536.245 119.371 536.096 118.56 536.096H115.28V544.704ZM129.053 546.128C128.2 546.128 127.384 546 126.605 545.744C125.827 545.477 125.213 545.136 124.765 544.72L125.357 543.472C125.784 543.845 126.328 544.155 126.989 544.4C127.651 544.645 128.339 544.768 129.053 544.768C129.704 544.768 130.232 544.693 130.637 544.544C131.043 544.395 131.341 544.192 131.533 543.936C131.725 543.669 131.821 543.371 131.821 543.04C131.821 542.656 131.693 542.347 131.437 542.112C131.192 541.877 130.867 541.691 130.461 541.552C130.067 541.403 129.629 541.275 129.149 541.168C128.669 541.061 128.184 540.939 127.693 540.8C127.213 540.651 126.771 540.464 126.365 540.24C125.971 540.016 125.651 539.717 125.405 539.344C125.16 538.96 125.037 538.469 125.037 537.872C125.037 537.296 125.187 536.768 125.485 536.288C125.795 535.797 126.264 535.408 126.893 535.12C127.533 534.821 128.344 534.672 129.325 534.672C129.976 534.672 130.621 534.757 131.261 534.928C131.901 535.099 132.456 535.344 132.925 535.664L132.397 536.944C131.917 536.624 131.411 536.395 130.877 536.256C130.344 536.107 129.827 536.032 129.325 536.032C128.696 536.032 128.179 536.112 127.773 536.272C127.368 536.432 127.069 536.645 126.877 536.912C126.696 537.179 126.605 537.477 126.605 537.808C126.605 538.203 126.728 538.517 126.973 538.752C127.229 538.987 127.555 539.173 127.949 539.312C128.355 539.451 128.797 539.579 129.277 539.696C129.757 539.803 130.237 539.925 130.717 540.064C131.208 540.203 131.651 540.384 132.045 540.608C132.451 540.832 132.776 541.131 133.021 541.504C133.267 541.877 133.389 542.357 133.389 542.944C133.389 543.509 133.235 544.037 132.925 544.528C132.616 545.008 132.136 545.397 131.485 545.696C130.845 545.984 130.035 546.128 129.053 546.128ZM140.735 546.128C139.882 546.128 139.092 545.989 138.367 545.712C137.652 545.424 137.028 545.024 136.495 544.512C135.972 543.989 135.562 543.381 135.263 542.688C134.964 541.995 134.815 541.232 134.815 540.4C134.815 539.568 134.964 538.805 135.263 538.112C135.562 537.419 135.978 536.816 136.511 536.304C137.044 535.781 137.668 535.381 138.383 535.104C139.108 534.816 139.898 534.672 140.751 534.672C141.615 534.672 142.41 534.821 143.135 535.12C143.871 535.408 144.495 535.84 145.007 536.416L143.967 537.424C143.54 536.976 143.06 536.645 142.527 536.432C141.994 536.208 141.423 536.096 140.815 536.096C140.186 536.096 139.599 536.203 139.055 536.416C138.522 536.629 138.058 536.928 137.663 537.312C137.268 537.696 136.959 538.155 136.735 538.688C136.522 539.211 136.415 539.781 136.415 540.4C136.415 541.019 136.522 541.595 136.735 542.128C136.959 542.651 137.268 543.104 137.663 543.488C138.058 543.872 138.522 544.171 139.055 544.384C139.599 544.597 140.186 544.704 140.815 544.704C141.423 544.704 141.994 544.597 142.527 544.384C143.06 544.16 143.54 543.819 143.967 543.36L145.007 544.368C144.495 544.944 143.871 545.381 143.135 545.68C142.41 545.979 141.61 546.128 140.735 546.128Z" fill="white"/>
<path d="M184.736 546.128C183.883 546.128 183.088 545.984 182.352 545.696C181.627 545.408 180.997 545.008 180.464 544.496C179.931 543.973 179.515 543.365 179.216 542.672C178.917 541.979 178.768 541.221 178.768 540.4C178.768 539.579 178.917 538.821 179.216 538.128C179.515 537.435 179.931 536.832 180.464 536.32C180.997 535.797 181.627 535.392 182.352 535.104C183.077 534.816 183.872 534.672 184.736 534.672C185.589 534.672 186.373 534.816 187.088 535.104C187.813 535.381 188.443 535.781 188.976 536.304C189.52 536.816 189.936 537.419 190.224 538.112C190.523 538.805 190.672 539.568 190.672 540.4C190.672 541.232 190.523 541.995 190.224 542.688C189.936 543.381 189.52 543.989 188.976 544.512C188.443 545.024 187.813 545.424 187.088 545.712C186.373 545.989 185.589 546.128 184.736 546.128ZM184.736 544.704C185.355 544.704 185.925 544.597 186.448 544.384C186.981 544.171 187.44 543.872 187.824 543.488C188.219 543.093 188.523 542.635 188.736 542.112C188.96 541.589 189.072 541.019 189.072 540.4C189.072 539.781 188.96 539.211 188.736 538.688C188.523 538.165 188.219 537.712 187.824 537.328C187.44 536.933 186.981 536.629 186.448 536.416C185.925 536.203 185.355 536.096 184.736 536.096C184.107 536.096 183.525 536.203 182.992 536.416C182.469 536.629 182.011 536.933 181.616 537.328C181.221 537.712 180.912 538.165 180.688 538.688C180.475 539.211 180.368 539.781 180.368 540.4C180.368 541.019 180.475 541.589 180.688 542.112C180.912 542.635 181.221 543.093 181.616 543.488C182.011 543.872 182.469 544.171 182.992 544.384C183.525 544.597 184.107 544.704 184.736 544.704ZM197.39 546.096C196.686 546.096 196.04 545.936 195.454 545.616C194.878 545.285 194.414 544.8 194.062 544.16C193.72 543.52 193.549 542.72 193.549 541.76C193.549 540.8 193.715 540 194.046 539.36C194.387 538.72 194.846 538.24 195.422 537.92C196.008 537.6 196.664 537.44 197.39 537.44C198.222 537.44 198.958 537.621 199.598 537.984C200.238 538.347 200.744 538.853 201.118 539.504C201.491 540.144 201.678 540.896 201.678 541.76C201.678 542.624 201.491 543.381 201.118 544.032C200.744 544.683 200.238 545.189 199.598 545.552C198.958 545.915 198.222 546.096 197.39 546.096ZM192.894 549.104V537.52H194.366V539.808L194.27 541.776L194.43 543.744V549.104H192.894ZM197.262 544.752C197.806 544.752 198.291 544.629 198.718 544.384C199.155 544.139 199.496 543.792 199.742 543.344C199.998 542.885 200.126 542.357 200.126 541.76C200.126 541.152 199.998 540.629 199.742 540.192C199.496 539.744 199.155 539.397 198.718 539.152C198.291 538.907 197.806 538.784 197.262 538.784C196.728 538.784 196.243 538.907 195.806 539.152C195.379 539.397 195.038 539.744 194.782 540.192C194.536 540.629 194.414 541.152 194.414 541.76C194.414 542.357 194.536 542.885 194.782 543.344C195.038 543.792 195.379 544.139 195.806 544.384C196.243 544.629 196.728 544.752 197.262 544.752ZM206.712 546.096C205.858 546.096 205.197 545.867 204.728 545.408C204.258 544.949 204.024 544.293 204.024 543.44V535.664H205.56V543.376C205.56 543.835 205.672 544.187 205.896 544.432C206.13 544.677 206.461 544.8 206.888 544.8C207.368 544.8 207.768 544.667 208.088 544.4L208.568 545.504C208.333 545.707 208.05 545.856 207.72 545.952C207.4 546.048 207.064 546.096 206.712 546.096ZM202.584 538.784V537.52H207.992V538.784H202.584ZM210.425 546V537.52H211.961V546H210.425ZM211.193 535.888C210.894 535.888 210.643 535.792 210.441 535.6C210.249 535.408 210.153 535.173 210.153 534.896C210.153 534.608 210.249 534.368 210.441 534.176C210.643 533.984 210.894 533.888 211.193 533.888C211.491 533.888 211.737 533.984 211.929 534.176C212.131 534.357 212.233 534.587 212.233 534.864C212.233 535.152 212.137 535.397 211.945 535.6C211.753 535.792 211.502 535.888 211.193 535.888ZM225.502 537.44C226.184 537.44 226.787 537.573 227.31 537.84C227.832 538.107 228.238 538.512 228.526 539.056C228.824 539.6 228.974 540.288 228.974 541.12V546H227.438V541.296C227.438 540.475 227.246 539.856 226.862 539.44C226.478 539.024 225.939 538.816 225.246 538.816C224.734 538.816 224.286 538.923 223.902 539.136C223.518 539.349 223.219 539.664 223.006 540.08C222.803 540.496 222.702 541.013 222.702 541.632V546H221.166V541.296C221.166 540.475 220.974 539.856 220.59 539.44C220.216 539.024 219.678 538.816 218.974 538.816C218.472 538.816 218.03 538.923 217.646 539.136C217.262 539.349 216.963 539.664 216.75 540.08C216.536 540.496 216.43 541.013 216.43 541.632V546H214.894V537.52H216.366V539.776L216.126 539.2C216.392 538.645 216.803 538.213 217.358 537.904C217.912 537.595 218.558 537.44 219.294 537.44C220.104 537.44 220.803 537.643 221.39 538.048C221.976 538.443 222.36 539.045 222.542 539.856L221.918 539.6C222.174 538.949 222.622 538.427 223.262 538.032C223.902 537.637 224.648 537.44 225.502 537.44ZM231.8 546V537.52H233.336V546H231.8ZM232.568 535.888C232.269 535.888 232.018 535.792 231.816 535.6C231.624 535.408 231.528 535.173 231.528 534.896C231.528 534.608 231.624 534.368 231.816 534.176C232.018 533.984 232.269 533.888 232.568 533.888C232.866 533.888 233.112 533.984 233.304 534.176C233.506 534.357 233.608 534.587 233.608 534.864C233.608 535.152 233.512 535.397 233.32 535.6C233.128 535.792 232.877 535.888 232.568 535.888ZM238.701 546.096C237.997 546.096 237.325 546 236.685 545.808C236.055 545.616 235.559 545.381 235.197 545.104L235.837 543.888C236.199 544.133 236.647 544.341 237.181 544.512C237.714 544.683 238.258 544.768 238.812 544.768C239.527 544.768 240.039 544.667 240.349 544.464C240.669 544.261 240.829 543.979 240.829 543.616C240.829 543.349 240.733 543.141 240.541 542.992C240.349 542.843 240.093 542.731 239.773 542.656C239.463 542.581 239.117 542.517 238.733 542.464C238.349 542.4 237.965 542.325 237.581 542.24C237.197 542.144 236.845 542.016 236.525 541.856C236.205 541.685 235.949 541.456 235.757 541.168C235.565 540.869 235.469 540.475 235.469 539.984C235.469 539.472 235.613 539.024 235.901 538.64C236.189 538.256 236.594 537.963 237.117 537.76C237.65 537.547 238.279 537.44 239.005 537.44C239.559 537.44 240.119 537.509 240.685 537.648C241.261 537.776 241.73 537.963 242.093 538.208L241.437 539.424C241.053 539.168 240.653 538.992 240.237 538.896C239.821 538.8 239.405 538.752 238.989 538.752C238.317 538.752 237.815 538.864 237.485 539.088C237.154 539.301 236.989 539.579 236.989 539.92C236.989 540.208 237.085 540.432 237.277 540.592C237.479 540.741 237.735 540.859 238.045 540.944C238.365 541.029 238.717 541.104 239.101 541.168C239.485 541.221 239.869 541.296 240.253 541.392C240.637 541.477 240.983 541.6 241.293 541.76C241.613 541.92 241.869 542.144 242.061 542.432C242.263 542.72 242.365 543.104 242.365 543.584C242.365 544.096 242.215 544.539 241.917 544.912C241.618 545.285 241.197 545.579 240.653 545.792C240.109 545.995 239.458 546.096 238.701 546.096ZM254.892 537.44C255.575 537.44 256.177 537.573 256.7 537.84C257.223 538.107 257.628 538.512 257.916 539.056C258.215 539.6 258.364 540.288 258.364 541.12V546H256.828V541.296C256.828 540.475 256.636 539.856 256.252 539.44C255.868 539.024 255.329 538.816 254.636 538.816C254.124 538.816 253.676 538.923 253.292 539.136C252.908 539.349 252.609 539.664 252.396 540.08C252.193 540.496 252.092 541.013 252.092 541.632V546H250.556V541.296C250.556 540.475 250.364 539.856 249.98 539.44C249.607 539.024 249.068 538.816 248.364 538.816C247.863 538.816 247.42 538.923 247.036 539.136C246.652 539.349 246.353 539.664 246.14 540.08C245.927 540.496 245.82 541.013 245.82 541.632V546H244.284V537.52H245.756V539.776L245.516 539.2C245.783 538.645 246.193 538.213 246.748 537.904C247.303 537.595 247.948 537.44 248.684 537.44C249.495 537.44 250.193 537.643 250.78 538.048C251.367 538.443 251.751 539.045 251.932 539.856L251.308 539.6C251.564 538.949 252.012 538.427 252.652 538.032C253.292 537.637 254.039 537.44 254.892 537.44Z" fill="white"/>
<path d="M301.984 521L307.056 509.8H308.64L313.728 521H312.048L307.52 510.696H308.16L303.632 521H301.984ZM304.144 518.2L304.576 516.92H310.88L311.344 518.2H304.144ZM315.175 521V512.52H316.647V514.824L316.503 514.248C316.737 513.661 317.132 513.213 317.687 512.904C318.241 512.595 318.924 512.44 319.735 512.44V513.928C319.671 513.917 319.607 513.912 319.543 513.912C319.489 513.912 319.436 513.912 319.383 513.912C318.561 513.912 317.911 514.157 317.431 514.648C316.951 515.139 316.711 515.848 316.711 516.776V521H315.175ZM326.124 521.096C325.399 521.096 324.743 520.936 324.156 520.616C323.58 520.285 323.121 519.8 322.78 519.16C322.449 518.52 322.284 517.72 322.284 516.76C322.284 515.8 322.455 515 322.796 514.36C323.148 513.72 323.612 513.24 324.188 512.92C324.775 512.6 325.42 512.44 326.124 512.44C326.956 512.44 327.692 512.621 328.332 512.984C328.972 513.347 329.479 513.853 329.852 514.504C330.225 515.144 330.412 515.896 330.412 516.76C330.412 517.624 330.225 518.381 329.852 519.032C329.479 519.683 328.972 520.189 328.332 520.552C327.692 520.915 326.956 521.096 326.124 521.096ZM321.628 521V509.128H323.164V514.776L323.004 516.744L323.1 518.712V521H321.628ZM325.996 519.752C326.54 519.752 327.025 519.629 327.452 519.384C327.889 519.139 328.231 518.792 328.476 518.344C328.732 517.885 328.86 517.357 328.86 516.76C328.86 516.152 328.732 515.629 328.476 515.192C328.231 514.744 327.889 514.397 327.452 514.152C327.025 513.907 326.54 513.784 325.996 513.784C325.463 513.784 324.977 513.907 324.54 514.152C324.113 514.397 323.772 514.744 323.516 515.192C323.271 515.629 323.148 516.152 323.148 516.76C323.148 517.357 323.271 517.885 323.516 518.344C323.772 518.792 324.113 519.139 324.54 519.384C324.977 519.629 325.463 519.752 325.996 519.752ZM332.534 521V512.52H334.07V521H332.534ZM333.302 510.888C333.003 510.888 332.753 510.792 332.55 510.6C332.358 510.408 332.262 510.173 332.262 509.896C332.262 509.608 332.358 509.368 332.55 509.176C332.753 508.984 333.003 508.888 333.302 508.888C333.601 508.888 333.846 508.984 334.038 509.176C334.241 509.357 334.342 509.587 334.342 509.864C334.342 510.152 334.246 510.397 334.054 510.6C333.862 510.792 333.611 510.888 333.302 510.888ZM339.915 521.096C339.062 521.096 338.4 520.867 337.931 520.408C337.462 519.949 337.227 519.293 337.227 518.44V510.664H338.763V518.376C338.763 518.835 338.875 519.187 339.099 519.432C339.334 519.677 339.664 519.8 340.091 519.8C340.571 519.8 340.971 519.667 341.291 519.4L341.771 520.504C341.536 520.707 341.254 520.856 340.923 520.952C340.603 521.048 340.267 521.096 339.915 521.096ZM335.787 513.784V512.52H341.195V513.784H335.787ZM343.628 521V512.52H345.1V514.824L344.956 514.248C345.191 513.661 345.585 513.213 346.14 512.904C346.695 512.595 347.377 512.44 348.188 512.44V513.928C348.124 513.917 348.06 513.912 347.996 513.912C347.943 513.912 347.889 513.912 347.836 513.912C347.015 513.912 346.364 514.157 345.884 514.648C345.404 515.139 345.164 515.848 345.164 516.776V521H343.628ZM353.758 521.096C353.033 521.096 352.393 520.963 351.838 520.696C351.294 520.429 350.868 520.024 350.558 519.48C350.26 518.925 350.11 518.232 350.11 517.4V512.52H351.646V517.224C351.646 518.056 351.844 518.68 352.238 519.096C352.644 519.512 353.209 519.72 353.934 519.72C354.468 519.72 354.932 519.613 355.326 519.4C355.721 519.176 356.025 518.856 356.238 518.44C356.452 518.013 356.558 517.501 356.558 516.904V512.52H358.094V521H356.638V518.712L356.878 519.32C356.601 519.885 356.185 520.323 355.63 520.632C355.076 520.941 354.452 521.096 353.758 521.096ZM371.627 512.44C372.309 512.44 372.912 512.573 373.435 512.84C373.957 513.107 374.363 513.512 374.651 514.056C374.949 514.6 375.099 515.288 375.099 516.12V521H373.563V516.296C373.563 515.475 373.371 514.856 372.987 514.44C372.603 514.024 372.064 513.816 371.371 513.816C370.859 513.816 370.411 513.923 370.027 514.136C369.643 514.349 369.344 514.664 369.131 515.08C368.928 515.496 368.827 516.013 368.827 516.632V521H367.291V516.296C367.291 515.475 367.099 514.856 366.715 514.44C366.341 514.024 365.803 513.816 365.099 513.816C364.597 513.816 364.155 513.923 363.771 514.136C363.387 514.349 363.088 514.664 362.875 515.08C362.661 515.496 362.555 516.013 362.555 516.632V521H361.019V512.52H362.491V514.776L362.251 514.2C362.517 513.645 362.928 513.213 363.483 512.904C364.037 512.595 364.683 512.44 365.419 512.44C366.229 512.44 366.928 512.643 367.515 513.048C368.101 513.443 368.485 514.045 368.667 514.856L368.043 514.6C368.299 513.949 368.747 513.427 369.387 513.032C370.027 512.637 370.773 512.44 371.627 512.44Z" fill="white"/>
<path d="M211.32 494.128C209.848 494.128 208.691 493.707 207.848 492.864C207.005 492.021 206.584 490.789 206.584 489.168V482.8H208.184V489.104C208.184 490.352 208.456 491.264 209 491.84C209.555 492.416 210.333 492.704 211.336 492.704C212.349 492.704 213.128 492.416 213.672 491.84C214.227 491.264 214.504 490.352 214.504 489.104V482.8H216.056V489.168C216.056 490.789 215.635 492.021 214.792 492.864C213.96 493.707 212.803 494.128 211.32 494.128ZM222.6 494.128C221.747 494.128 220.931 494 220.152 493.744C219.374 493.477 218.76 493.136 218.312 492.72L218.904 491.472C219.331 491.845 219.875 492.155 220.536 492.4C221.198 492.645 221.886 492.768 222.6 492.768C223.251 492.768 223.779 492.693 224.184 492.544C224.59 492.395 224.888 492.192 225.08 491.936C225.272 491.669 225.368 491.371 225.368 491.04C225.368 490.656 225.24 490.347 224.984 490.112C224.739 489.877 224.414 489.691 224.008 489.552C223.614 489.403 223.176 489.275 222.696 489.168C222.216 489.061 221.731 488.939 221.24 488.8C220.76 488.651 220.318 488.464 219.912 488.24C219.518 488.016 219.198 487.717 218.952 487.344C218.707 486.96 218.584 486.469 218.584 485.872C218.584 485.296 218.734 484.768 219.032 484.288C219.342 483.797 219.811 483.408 220.44 483.12C221.08 482.821 221.891 482.672 222.872 482.672C223.523 482.672 224.168 482.757 224.808 482.928C225.448 483.099 226.003 483.344 226.472 483.664L225.944 484.944C225.464 484.624 224.958 484.395 224.424 484.256C223.891 484.107 223.374 484.032 222.872 484.032C222.243 484.032 221.726 484.112 221.32 484.272C220.915 484.432 220.616 484.645 220.424 484.912C220.243 485.179 220.152 485.477 220.152 485.808C220.152 486.203 220.275 486.517 220.52 486.752C220.776 486.987 221.102 487.173 221.496 487.312C221.902 487.451 222.344 487.579 222.824 487.696C223.304 487.803 223.784 487.925 224.264 488.064C224.755 488.203 225.198 488.384 225.592 488.608C225.998 488.832 226.323 489.131 226.568 489.504C226.814 489.877 226.936 490.357 226.936 490.944C226.936 491.509 226.782 492.037 226.472 492.528C226.163 493.008 225.683 493.397 225.032 493.696C224.392 493.984 223.582 494.128 222.6 494.128ZM229.274 494V482.8H233.994C235.188 482.8 236.239 483.035 237.146 483.504C238.063 483.973 238.772 484.629 239.274 485.472C239.786 486.315 240.042 487.291 240.042 488.4C240.042 489.509 239.786 490.485 239.274 491.328C238.772 492.171 238.063 492.827 237.146 493.296C236.239 493.765 235.188 494 233.994 494H229.274ZM230.874 492.608H233.898C234.826 492.608 235.626 492.432 236.298 492.08C236.98 491.728 237.508 491.237 237.882 490.608C238.255 489.968 238.442 489.232 238.442 488.4C238.442 487.557 238.255 486.821 237.882 486.192C237.508 485.563 236.98 485.072 236.298 484.72C235.626 484.368 234.826 484.192 233.898 484.192H230.874V492.608ZM247.501 494.128C246.647 494.128 245.858 493.989 245.133 493.712C244.418 493.424 243.794 493.024 243.261 492.512C242.738 491.989 242.327 491.381 242.029 490.688C241.73 489.995 241.581 489.232 241.581 488.4C241.581 487.568 241.73 486.805 242.029 486.112C242.327 485.419 242.743 484.816 243.277 484.304C243.81 483.781 244.434 483.381 245.149 483.104C245.874 482.816 246.663 482.672 247.517 482.672C248.381 482.672 249.175 482.821 249.901 483.12C250.637 483.408 251.261 483.84 251.773 484.416L250.733 485.424C250.306 484.976 249.826 484.645 249.293 484.432C248.759 484.208 248.189 484.096 247.581 484.096C246.951 484.096 246.365 484.203 245.821 484.416C245.287 484.629 244.823 484.928 244.429 485.312C244.034 485.696 243.725 486.155 243.501 486.688C243.287 487.211 243.181 487.781 243.181 488.4C243.181 489.019 243.287 489.595 243.501 490.128C243.725 490.651 244.034 491.104 244.429 491.488C244.823 491.872 245.287 492.171 245.821 492.384C246.365 492.597 246.951 492.704 247.581 492.704C248.189 492.704 248.759 492.597 249.293 492.384C249.826 492.16 250.306 491.819 250.733 491.36L251.773 492.368C251.261 492.944 250.637 493.381 249.901 493.68C249.175 493.979 248.375 494.128 247.501 494.128Z" fill="white"/>
<path d="M193 498C198.542 498 203 493.542 203 488C203 482.458 198.542 478 193 478C187.458 478 183 482.458 183 488C183 493.542 187.458 498 193 498Z" fill="#2775CA"/>
<path d="M195.751 489.591C195.751 488.133 194.876 487.633 193.126 487.424C191.876 487.258 191.626 486.924 191.626 486.341C191.626 485.758 192.043 485.383 192.876 485.383C193.626 485.383 194.043 485.633 194.251 486.258C194.293 486.383 194.418 486.466 194.543 486.466H195.21C195.376 486.466 195.501 486.341 195.501 486.174V486.133C195.335 485.216 194.585 484.508 193.626 484.424V483.424C193.626 483.258 193.501 483.133 193.293 483.091H192.668C192.501 483.091 192.376 483.216 192.335 483.424V484.383C191.085 484.549 190.293 485.383 190.293 486.424C190.293 487.799 191.126 488.341 192.876 488.549C194.043 488.758 194.418 489.008 194.418 489.674C194.418 490.341 193.835 490.799 193.043 490.799C191.96 490.799 191.585 490.341 191.46 489.716C191.418 489.549 191.293 489.466 191.168 489.466H190.46C190.293 489.466 190.168 489.591 190.168 489.758V489.799C190.335 490.841 191.001 491.591 192.376 491.799V492.799C192.376 492.966 192.501 493.091 192.71 493.133H193.335C193.501 493.133 193.626 493.008 193.668 492.799V491.799C194.918 491.591 195.751 490.716 195.751 489.591Z" fill="white"/>
<path d="M190.876 493.951C187.626 492.784 185.959 489.159 187.168 485.951C187.793 484.201 189.168 482.867 190.876 482.242C191.043 482.159 191.126 482.034 191.126 481.826V481.242C191.126 481.076 191.043 480.951 190.876 480.909C190.834 480.909 190.751 480.909 190.709 480.951C186.751 482.201 184.584 486.409 185.834 490.367C186.584 492.701 188.376 494.492 190.709 495.242C190.876 495.326 191.043 495.242 191.084 495.076C191.126 495.034 191.126 494.992 191.126 494.909V494.326C191.126 494.201 191.001 494.034 190.876 493.951ZM195.293 480.951C195.126 480.867 194.959 480.951 194.918 481.117C194.876 481.159 194.876 481.201 194.876 481.284V481.867C194.876 482.034 195.001 482.201 195.126 482.284C198.376 483.451 200.043 487.076 198.834 490.284C198.209 492.034 196.834 493.367 195.126 493.992C194.959 494.076 194.876 494.201 194.876 494.409V494.992C194.876 495.159 194.959 495.284 195.126 495.326C195.168 495.326 195.251 495.326 195.293 495.284C199.251 494.034 201.418 489.826 200.168 485.867C199.418 483.492 197.584 481.701 195.293 480.951Z" fill="white"/>
<path fill-rule="evenodd" clip-rule="evenodd" d="M264.209 478.098L260.017 486.904C260.001 486.936 259.996 486.973 260.003 487.009C260.009 487.045 260.027 487.078 260.054 487.103L271.376 497.952C271.408 497.983 271.451 498 271.495 498C271.54 498 271.583 497.983 271.615 497.952L282.937 487.104C282.963 487.079 282.981 487.046 282.988 487.01C282.994 486.974 282.989 486.937 282.973 486.904L278.781 478.099C278.768 478.069 278.746 478.044 278.718 478.027C278.691 478.009 278.659 478 278.627 478H264.365C264.332 478 264.3 478.009 264.273 478.026C264.245 478.044 264.223 478.069 264.209 478.098Z" fill="#50AF95"/>
<path fill-rule="evenodd" clip-rule="evenodd" d="M272.95 487.808C272.869 487.814 272.449 487.839 271.512 487.839C270.767 487.839 270.238 487.817 270.052 487.808C267.173 487.681 265.024 487.18 265.024 486.58C265.024 485.98 267.173 485.479 270.052 485.351V487.309C270.24 487.322 270.78 487.354 271.525 487.354C272.419 487.354 272.867 487.317 272.947 487.309V485.352C275.82 485.48 277.965 485.981 277.965 486.58C277.965 487.179 275.821 487.68 272.947 487.807L272.95 487.808ZM272.95 485.149V483.397H276.96V480.725H266.042V483.397H270.051V485.149C266.793 485.298 264.342 485.944 264.342 486.717C264.342 487.491 266.793 488.136 270.051 488.286V493.901H272.949V488.284C276.2 488.134 278.647 487.49 278.647 486.717C278.647 485.944 276.202 485.299 272.949 485.149L272.95 485.149Z" fill="white"/>
<path d="M292.32 494.128C290.848 494.128 289.691 493.707 288.848 492.864C288.005 492.021 287.584 490.789 287.584 489.168V482.8H289.184V489.104C289.184 490.352 289.456 491.264 290 491.84C290.555 492.416 291.333 492.704 292.336 492.704C293.349 492.704 294.128 492.416 294.672 491.84C295.227 491.264 295.504 490.352 295.504 489.104V482.8H297.056V489.168C297.056 490.789 296.635 492.021 295.792 492.864C294.96 493.707 293.803 494.128 292.32 494.128ZM303.6 494.128C302.747 494.128 301.931 494 301.152 493.744C300.374 493.477 299.76 493.136 299.312 492.72L299.904 491.472C300.331 491.845 300.875 492.155 301.536 492.4C302.198 492.645 302.886 492.768 303.6 492.768C304.251 492.768 304.779 492.693 305.184 492.544C305.59 492.395 305.888 492.192 306.08 491.936C306.272 491.669 306.368 491.371 306.368 491.04C306.368 490.656 306.24 490.347 305.984 490.112C305.739 489.877 305.414 489.691 305.008 489.552C304.614 489.403 304.176 489.275 303.696 489.168C303.216 489.061 302.731 488.939 302.24 488.8C301.76 488.651 301.318 488.464 300.912 488.24C300.518 488.016 300.198 487.717 299.952 487.344C299.707 486.96 299.584 486.469 299.584 485.872C299.584 485.296 299.734 484.768 300.032 484.288C300.342 483.797 300.811 483.408 301.44 483.12C302.08 482.821 302.891 482.672 303.872 482.672C304.523 482.672 305.168 482.757 305.808 482.928C306.448 483.099 307.003 483.344 307.472 483.664L306.944 484.944C306.464 484.624 305.958 484.395 305.424 484.256C304.891 484.107 304.374 484.032 303.872 484.032C303.243 484.032 302.726 484.112 302.32 484.272C301.915 484.432 301.616 484.645 301.424 484.912C301.243 485.179 301.152 485.477 301.152 485.808C301.152 486.203 301.275 486.517 301.52 486.752C301.776 486.987 302.102 487.173 302.496 487.312C302.902 487.451 303.344 487.579 303.824 487.696C304.304 487.803 304.784 487.925 305.264 488.064C305.755 488.203 306.198 488.384 306.592 488.608C306.998 488.832 307.323 489.131 307.568 489.504C307.814 489.877 307.936 490.357 307.936 490.944C307.936 491.509 307.782 492.037 307.472 492.528C307.163 493.008 306.683 493.397 306.032 493.696C305.392 493.984 304.582 494.128 303.6 494.128ZM310.274 494V482.8H314.994C316.188 482.8 317.239 483.035 318.146 483.504C319.063 483.973 319.772 484.629 320.274 485.472C320.786 486.315 321.042 487.291 321.042 488.4C321.042 489.509 320.786 490.485 320.274 491.328C319.772 492.171 319.063 492.827 318.146 493.296C317.239 493.765 316.188 494 314.994 494H310.274ZM311.874 492.608H314.898C315.826 492.608 316.626 492.432 317.298 492.08C317.98 491.728 318.508 491.237 318.882 490.608C319.255 489.968 319.442 489.232 319.442 488.4C319.442 487.557 319.255 486.821 318.882 486.192C318.508 485.563 317.98 485.072 317.298 484.72C316.626 484.368 315.826 484.192 314.898 484.192H311.874V492.608ZM325.56 494V484.192H321.72V482.8H330.984V484.192H327.144V494H325.56Z" fill="white"/>
<path d="M47.984 493L53.056 481.8H54.64L59.728 493H58.048L53.52 482.696H54.16L49.632 493H47.984ZM50.144 490.2L50.576 488.92H56.88L57.344 490.2H50.144ZM64.1526 493.096C63.2886 493.096 62.5153 492.909 61.8326 492.536C61.1606 492.163 60.6326 491.651 60.2486 491C59.8646 490.349 59.6726 489.603 59.6726 488.76C59.6726 487.917 59.8646 487.171 60.2486 486.52C60.6326 485.869 61.1606 485.363 61.8326 485C62.5153 484.627 63.2886 484.44 64.1526 484.44C64.9206 484.44 65.6033 484.595 66.2006 484.904C66.8086 485.203 67.278 485.651 67.6086 486.248L66.4406 487C66.1633 486.584 65.822 486.28 65.4166 486.088C65.022 485.885 64.5953 485.784 64.1366 485.784C63.582 485.784 63.086 485.907 62.6486 486.152C62.2113 486.397 61.8646 486.744 61.6086 487.192C61.3526 487.629 61.2246 488.152 61.2246 488.76C61.2246 489.368 61.3526 489.896 61.6086 490.344C61.8646 490.792 62.2113 491.139 62.6486 491.384C63.086 491.629 63.582 491.752 64.1366 491.752C64.5953 491.752 65.022 491.656 65.4166 491.464C65.822 491.261 66.1633 490.952 66.4406 490.536L67.6086 491.272C67.278 491.859 66.8086 492.312 66.2006 492.632C65.6033 492.941 64.9206 493.096 64.1526 493.096ZM72.5282 493.096C71.6642 493.096 70.8909 492.909 70.2082 492.536C69.5362 492.163 69.0082 491.651 68.6242 491C68.2402 490.349 68.0482 489.603 68.0482 488.76C68.0482 487.917 68.2402 487.171 68.6242 486.52C69.0082 485.869 69.5362 485.363 70.2082 485C70.8909 484.627 71.6642 484.44 72.5282 484.44C73.2962 484.44 73.9789 484.595 74.5762 484.904C75.1842 485.203 75.6536 485.651 75.9843 486.248L74.8162 487C74.5389 486.584 74.1976 486.28 73.7922 486.088C73.3976 485.885 72.9709 485.784 72.5122 485.784C71.9576 485.784 71.4616 485.907 71.0242 486.152C70.5869 486.397 70.2402 486.744 69.9842 487.192C69.7282 487.629 69.6002 488.152 69.6002 488.76C69.6002 489.368 69.7282 489.896 69.9842 490.344C70.2402 490.792 70.5869 491.139 71.0242 491.384C71.4616 491.629 71.9576 491.752 72.5122 491.752C72.9709 491.752 73.3976 491.656 73.7922 491.464C74.1976 491.261 74.5389 490.952 74.8162 490.536L75.9843 491.272C75.6536 491.859 75.1842 492.312 74.5762 492.632C73.9789 492.941 73.2962 493.096 72.5282 493.096ZM80.9839 493.096C80.0772 493.096 79.2772 492.909 78.5839 492.536C77.9012 492.163 77.3679 491.651 76.9839 491C76.6105 490.349 76.4239 489.603 76.4239 488.76C76.4239 487.917 76.6052 487.171 76.9679 486.52C77.3412 485.869 77.8479 485.363 78.4879 485C79.1385 484.627 79.8692 484.44 80.6799 484.44C81.5012 484.44 82.2265 484.621 82.8559 484.984C83.4852 485.347 83.9759 485.859 84.3279 486.52C84.6905 487.171 84.8719 487.933 84.8719 488.808C84.8719 488.872 84.8665 488.947 84.8559 489.032C84.8559 489.117 84.8505 489.197 84.8399 489.272H77.6239V488.168H84.0399L83.4159 488.552C83.4265 488.008 83.3145 487.523 83.0799 487.096C82.8452 486.669 82.5199 486.339 82.1039 486.104C81.6985 485.859 81.2239 485.736 80.6799 485.736C80.1465 485.736 79.6719 485.859 79.2559 486.104C78.8399 486.339 78.5145 486.675 78.2799 487.112C78.0452 487.539 77.9279 488.029 77.9279 488.584V488.84C77.9279 489.405 78.0559 489.912 78.3119 490.36C78.5785 490.797 78.9465 491.139 79.4159 491.384C79.8852 491.629 80.4239 491.752 81.0319 491.752C81.5332 491.752 81.9865 491.667 82.3919 491.496C82.8079 491.325 83.1705 491.069 83.4799 490.728L84.3279 491.72C83.9439 492.168 83.4639 492.509 82.8879 492.744C82.3225 492.979 81.6879 493.096 80.9839 493.096ZM90.8607 493.096C90.1567 493.096 89.5114 492.936 88.9247 492.616C88.3487 492.285 87.8847 491.8 87.5327 491.16C87.1914 490.52 87.0207 489.72 87.0207 488.76C87.0207 487.8 87.1861 487 87.5167 486.36C87.8581 485.72 88.3167 485.24 88.8927 484.92C89.4794 484.6 90.1354 484.44 90.8607 484.44C91.6927 484.44 92.4287 484.621 93.0687 484.984C93.7087 485.347 94.2154 485.853 94.5887 486.504C94.9621 487.144 95.1487 487.896 95.1487 488.76C95.1487 489.624 94.9621 490.381 94.5887 491.032C94.2154 491.683 93.7087 492.189 93.0687 492.552C92.4287 492.915 91.6927 493.096 90.8607 493.096ZM86.3647 496.104V484.52H87.8367V486.808L87.7407 488.776L87.9007 490.744V496.104H86.3647ZM90.7327 491.752C91.2767 491.752 91.7621 491.629 92.1887 491.384C92.6261 491.139 92.9674 490.792 93.2127 490.344C93.4687 489.885 93.5967 489.357 93.5967 488.76C93.5967 488.152 93.4687 487.629 93.2127 487.192C92.9674 486.744 92.6261 486.397 92.1887 486.152C91.7621 485.907 91.2767 485.784 90.7327 485.784C90.1994 485.784 89.7141 485.907 89.2767 486.152C88.8501 486.397 88.5087 486.744 88.2527 487.192C88.0074 487.629 87.8847 488.152 87.8847 488.76C87.8847 489.357 88.0074 489.885 88.2527 490.344C88.5087 490.792 88.8501 491.139 89.2767 491.384C89.7141 491.629 90.1994 491.752 90.7327 491.752ZM99.543 493.096C98.6897 493.096 98.0283 492.867 97.559 492.408C97.0897 491.949 96.855 491.293 96.855 490.44V482.664H98.391V490.376C98.391 490.835 98.503 491.187 98.727 491.432C98.9617 491.677 99.2923 491.8 99.719 491.8C100.199 491.8 100.599 491.667 100.919 491.4L101.399 492.504C101.164 492.707 100.882 492.856 100.551 492.952C100.231 493.048 99.895 493.096 99.543 493.096ZM95.415 485.784V484.52H100.823V485.784H95.415ZM106.111 493.096C105.204 493.096 104.404 492.909 103.711 492.536C103.028 492.163 102.495 491.651 102.111 491C101.737 490.349 101.551 489.603 101.551 488.76C101.551 487.917 101.732 487.171 102.095 486.52C102.468 485.869 102.975 485.363 103.615 485C104.265 484.627 104.996 484.44 105.807 484.44C106.628 484.44 107.353 484.621 107.983 484.984C108.612 485.347 109.103 485.859 109.455 486.52C109.817 487.171 109.999 487.933 109.999 488.808C109.999 488.872 109.993 488.947 109.983 489.032C109.983 489.117 109.977 489.197 109.967 489.272H102.751V488.168H109.167L108.543 488.552C108.553 488.008 108.441 487.523 108.207 487.096C107.972 486.669 107.647 486.339 107.231 486.104C106.825 485.859 106.351 485.736 105.807 485.736C105.273 485.736 104.799 485.859 104.383 486.104C103.967 486.339 103.641 486.675 103.407 487.112C103.172 487.539 103.055 488.029 103.055 488.584V488.84C103.055 489.405 103.183 489.912 103.439 490.36C103.705 490.797 104.073 491.139 104.543 491.384C105.012 491.629 105.551 491.752 106.159 491.752C106.66 491.752 107.113 491.667 107.519 491.496C107.935 491.325 108.297 491.069 108.607 490.728L109.455 491.72C109.071 492.168 108.591 492.509 108.015 492.744C107.449 492.979 106.815 493.096 106.111 493.096ZM114.996 493.096C114.174 493.096 113.438 492.915 112.788 492.552C112.148 492.189 111.641 491.683 111.268 491.032C110.894 490.381 110.708 489.624 110.708 488.76C110.708 487.896 110.894 487.144 111.268 486.504C111.641 485.853 112.148 485.347 112.788 484.984C113.438 484.621 114.174 484.44 114.996 484.44C115.71 484.44 116.356 484.6 116.932 484.92C117.508 485.24 117.966 485.72 118.308 486.36C118.66 487 118.836 487.8 118.836 488.76C118.836 489.72 118.665 490.52 118.324 491.16C117.993 491.8 117.54 492.285 116.964 492.616C116.388 492.936 115.732 493.096 114.996 493.096ZM115.124 491.752C115.657 491.752 116.137 491.629 116.564 491.384C117.001 491.139 117.342 490.792 117.588 490.344C117.844 489.885 117.972 489.357 117.972 488.76C117.972 488.152 117.844 487.629 117.588 487.192C117.342 486.744 117.001 486.397 116.564 486.152C116.137 485.907 115.657 485.784 115.124 485.784C114.58 485.784 114.094 485.907 113.668 486.152C113.241 486.397 112.9 486.744 112.644 487.192C112.388 487.629 112.26 488.152 112.26 488.76C112.26 489.357 112.388 489.885 112.644 490.344C112.9 490.792 113.241 491.139 113.668 491.384C114.094 491.629 114.58 491.752 115.124 491.752ZM118.02 493V490.712L118.116 488.744L117.956 486.776V481.128H119.492V493H118.02ZM128.327 493.096C127.473 493.096 126.812 492.867 126.343 492.408C125.873 491.949 125.639 491.293 125.639 490.44V482.664H127.175V490.376C127.175 490.835 127.287 491.187 127.511 491.432C127.745 491.677 128.076 491.8 128.503 491.8C128.983 491.8 129.383 491.667 129.703 491.4L130.183 492.504C129.948 492.707 129.665 492.856 129.335 492.952C129.015 493.048 128.679 493.096 128.327 493.096ZM124.199 485.784V484.52H129.607V485.784H124.199ZM134.75 493.096C133.897 493.096 133.14 492.909 132.478 492.536C131.817 492.163 131.294 491.651 130.91 491C130.526 490.339 130.334 489.592 130.334 488.76C130.334 487.917 130.526 487.171 130.91 486.52C131.294 485.869 131.817 485.363 132.478 485C133.14 484.627 133.897 484.44 134.75 484.44C135.593 484.44 136.345 484.627 137.006 485C137.678 485.363 138.201 485.869 138.574 486.52C138.958 487.16 139.15 487.907 139.15 488.76C139.15 489.603 138.958 490.349 138.574 491C138.201 491.651 137.678 492.163 137.006 492.536C136.345 492.909 135.593 493.096 134.75 493.096ZM134.75 491.752C135.294 491.752 135.78 491.629 136.206 491.384C136.644 491.139 136.985 490.792 137.23 490.344C137.476 489.885 137.598 489.357 137.598 488.76C137.598 488.152 137.476 487.629 137.23 487.192C136.985 486.744 136.644 486.397 136.206 486.152C135.78 485.907 135.294 485.784 134.75 485.784C134.206 485.784 133.721 485.907 133.294 486.152C132.868 486.397 132.526 486.744 132.27 487.192C132.014 487.629 131.886 488.152 131.886 488.76C131.886 489.357 132.014 489.885 132.27 490.344C132.526 490.792 132.868 491.139 133.294 491.384C133.721 491.629 134.206 491.752 134.75 491.752ZM141.883 490.952L141.915 488.984L146.795 484.52H148.651L144.907 488.2L144.075 488.904L141.883 490.952ZM140.635 493V481.128H142.171V493H140.635ZM147.115 493L143.787 488.872L144.779 487.64L149.003 493H147.115ZM153.286 493.096C152.38 493.096 151.58 492.909 150.886 492.536C150.204 492.163 149.67 491.651 149.286 491C148.913 490.349 148.726 489.603 148.726 488.76C148.726 487.917 148.908 487.171 149.27 486.52C149.644 485.869 150.15 485.363 150.79 485C151.441 484.627 152.172 484.44 152.982 484.44C153.804 484.44 154.529 484.621 155.158 484.984C155.788 485.347 156.278 485.859 156.63 486.52C156.993 487.171 157.174 487.933 157.174 488.808C157.174 488.872 157.169 488.947 157.158 489.032C157.158 489.117 157.153 489.197 157.142 489.272H149.926V488.168H156.342L155.718 488.552C155.729 488.008 155.617 487.523 155.382 487.096C155.148 486.669 154.822 486.339 154.406 486.104C154.001 485.859 153.526 485.736 152.982 485.736C152.449 485.736 151.974 485.859 151.558 486.104C151.142 486.339 150.817 486.675 150.582 487.112C150.348 487.539 150.23 488.029 150.23 488.584V488.84C150.23 489.405 150.358 489.912 150.614 490.36C150.881 490.797 151.249 491.139 151.718 491.384C152.188 491.629 152.726 491.752 153.334 491.752C153.836 491.752 154.289 491.667 154.694 491.496C155.11 491.325 155.473 491.069 155.782 490.728L156.63 491.72C156.246 492.168 155.766 492.509 155.19 492.744C154.625 492.979 153.99 493.096 153.286 493.096ZM163.195 484.44C163.889 484.44 164.497 484.573 165.019 484.84C165.553 485.107 165.969 485.512 166.267 486.056C166.566 486.6 166.715 487.288 166.715 488.12V493H165.179V488.296C165.179 487.475 164.977 486.856 164.571 486.44C164.177 486.024 163.617 485.816 162.891 485.816C162.347 485.816 161.873 485.923 161.467 486.136C161.062 486.349 160.747 486.664 160.523 487.08C160.31 487.496 160.203 488.013 160.203 488.632V493H158.667V484.52H160.139V486.808L159.899 486.2C160.177 485.645 160.603 485.213 161.179 484.904C161.755 484.595 162.427 484.44 163.195 484.44ZM171.35 493.096C170.646 493.096 169.974 493 169.334 492.808C168.705 492.616 168.209 492.381 167.846 492.104L168.486 490.888C168.849 491.133 169.297 491.341 169.83 491.512C170.363 491.683 170.907 491.768 171.462 491.768C172.177 491.768 172.689 491.667 172.998 491.464C173.318 491.261 173.478 490.979 173.478 490.616C173.478 490.349 173.382 490.141 173.19 489.992C172.998 489.843 172.742 489.731 172.422 489.656C172.113 489.581 171.766 489.517 171.382 489.464C170.998 489.4 170.614 489.325 170.23 489.24C169.846 489.144 169.494 489.016 169.174 488.856C168.854 488.685 168.598 488.456 168.406 488.168C168.214 487.869 168.118 487.475 168.118 486.984C168.118 486.472 168.262 486.024 168.55 485.64C168.838 485.256 169.243 484.963 169.766 484.76C170.299 484.547 170.929 484.44 171.654 484.44C172.209 484.44 172.769 484.509 173.334 484.648C173.91 484.776 174.379 484.963 174.742 485.208L174.086 486.424C173.702 486.168 173.302 485.992 172.886 485.896C172.47 485.8 172.054 485.752 171.638 485.752C170.966 485.752 170.465 485.864 170.134 486.088C169.803 486.301 169.638 486.579 169.638 486.92C169.638 487.208 169.734 487.432 169.926 487.592C170.129 487.741 170.385 487.859 170.694 487.944C171.014 488.029 171.366 488.104 171.75 488.168C172.134 488.221 172.518 488.296 172.902 488.392C173.286 488.477 173.633 488.6 173.942 488.76C174.262 488.92 174.518 489.144 174.71 489.432C174.913 489.72 175.014 490.104 175.014 490.584C175.014 491.096 174.865 491.539 174.566 491.912C174.267 492.285 173.846 492.579 173.302 492.792C172.758 492.995 172.107 493.096 171.35 493.096ZM176.662 486.632C176.363 486.632 176.107 486.531 175.894 486.328C175.68 486.115 175.574 485.848 175.574 485.528C175.574 485.208 175.68 484.947 175.894 484.744C176.107 484.541 176.363 484.44 176.662 484.44C176.95 484.44 177.195 484.541 177.398 484.744C177.611 484.947 177.718 485.208 177.718 485.528C177.718 485.848 177.611 486.115 177.398 486.328C177.195 486.531 176.95 486.632 176.662 486.632ZM176.662 493.096C176.363 493.096 176.107 492.995 175.894 492.792C175.68 492.579 175.574 492.312 175.574 491.992C175.574 491.672 175.68 491.411 175.894 491.208C176.107 491.005 176.363 490.904 176.662 490.904C176.95 490.904 177.195 491.005 177.398 491.208C177.611 491.411 177.718 491.672 177.718 491.992C177.718 492.312 177.611 492.579 177.398 492.792C177.195 492.995 176.95 493.096 176.662 493.096Z" fill="white"/>
<path d="M278 551C283.523 551 288 546.523 288 541C288 535.477 283.523 531 278 531C272.477 531 268 535.477 268 541C268 546.523 272.477 551 278 551Z" fill="#E84142"/>
<path d="M281.528 541.26C281.874 540.661 282.433 540.661 282.78 541.26L284.937 545.047C285.283 545.646 285 546.134 284.307 546.134H279.961C279.276 546.134 278.992 545.646 279.331 545.047L281.528 541.26ZM277.354 533.969C277.701 533.37 278.252 533.37 278.598 533.969L279.079 534.835L280.213 536.827C280.488 537.394 280.488 538.063 280.213 538.63L276.409 545.22C276.063 545.756 275.488 546.094 274.85 546.134H271.693C271 546.134 270.717 545.654 271.063 545.047L277.354 533.969Z" fill="white"/>
<g clip-path="url(#clip0_1_2)">
<path d="M351.783 85.0593C349.799 83.7492 347.611 82.8175 345.54 81.653C344.198 80.896 342.768 80.2264 341.601 79.2656C339.617 77.6352 340.026 74.4326 342.097 73.0351C345.073 71.0554 350.004 72.1617 350.529 76.2086C350.529 76.2959 350.616 76.3542 350.704 76.3542H355.197C355.313 76.3542 355.401 76.2668 355.372 76.1504C355.138 73.3554 354.059 71.0262 352.075 69.5414C350.179 68.1148 348.02 67.3578 345.715 67.3578C333.841 67.3578 332.761 79.9061 339.151 83.8657C339.88 84.3315 346.153 87.4758 348.37 88.8442C350.587 90.2126 351.287 92.7164 350.325 94.6962C349.449 96.5013 347.174 97.7532 344.898 97.6076C342.418 97.462 340.493 96.1228 339.822 94.0266C339.705 93.6481 339.647 92.9202 339.647 92.6C339.647 92.5126 339.559 92.4253 339.472 92.4253H334.599C334.512 92.4253 334.424 92.5126 334.424 92.6C334.424 96.1228 335.3 98.0734 337.692 99.8494C339.938 101.538 342.389 102.237 344.927 102.237C351.579 102.237 355.022 98.481 355.722 94.5797C356.335 90.7657 355.197 87.3303 351.783 85.0593Z" fill="white"/>
<path d="M140.238 67.9984H138.079H135.716C135.629 67.9984 135.57 68.0566 135.541 68.1148L131.544 81.2745C131.486 81.4492 131.252 81.4492 131.194 81.2745L127.197 68.1148C127.168 68.0275 127.11 67.9984 127.022 67.9984H124.659H122.5H119.583C119.495 67.9984 119.407 68.0857 119.407 68.173V101.771C119.407 101.858 119.495 101.946 119.583 101.946H124.455C124.542 101.946 124.63 101.858 124.63 101.771V76.2377C124.63 76.0339 124.921 76.0048 124.98 76.1795L129.006 89.4265L129.298 90.3582C129.327 90.4455 129.385 90.4746 129.473 90.4746H133.207C133.295 90.4746 133.353 90.4164 133.382 90.3582L133.674 89.4265L137.7 76.1795C137.758 75.9757 138.05 76.0339 138.05 76.2377V101.771C138.05 101.858 138.138 101.946 138.225 101.946H143.097C143.185 101.946 143.272 101.858 143.272 101.771V68.173C143.272 68.0857 143.185 67.9984 143.097 67.9984H140.238Z" fill="white"/>
<path d="M277.184 67.9984C277.096 67.9984 277.038 68.0566 277.009 68.1148L273.012 81.2745C272.954 81.4492 272.72 81.4492 272.662 81.2745L268.665 68.1148C268.636 68.0275 268.577 67.9984 268.49 67.9984H261.079C260.992 67.9984 260.904 68.0857 260.904 68.173V101.771C260.904 101.858 260.992 101.946 261.079 101.946H265.952C266.039 101.946 266.127 101.858 266.127 101.771V76.2377C266.127 76.0339 266.418 76.0048 266.477 76.1795L270.503 89.4265L270.795 90.3582C270.824 90.4455 270.882 90.4746 270.97 90.4746H274.704C274.792 90.4746 274.85 90.4164 274.879 90.3582L275.171 89.4265L279.197 76.1795C279.255 75.9757 279.547 76.0339 279.547 76.2377V101.771C279.547 101.858 279.634 101.946 279.722 101.946H284.594C284.682 101.946 284.769 101.858 284.769 101.771V68.173C284.769 68.0857 284.682 67.9984 284.594 67.9984H277.184Z" fill="white"/>
<path d="M214.342 67.9984H205.268H200.396H191.323C191.235 67.9984 191.148 68.0857 191.148 68.173V72.3655C191.148 72.4528 191.235 72.5402 191.323 72.5402H200.221V101.771C200.221 101.858 200.309 101.946 200.396 101.946H205.268C205.356 101.946 205.443 101.858 205.443 101.771V72.5402H214.342C214.429 72.5402 214.517 72.4528 214.517 72.3655V68.173C214.517 68.0857 214.458 67.9984 214.342 67.9984Z" fill="white"/>
<path d="M243.079 101.946H247.513C247.63 101.946 247.717 101.829 247.688 101.713L238.527 67.9984C238.498 67.911 238.44 67.8819 238.352 67.8819H236.66H233.684H231.992C231.905 67.8819 231.846 67.9401 231.817 67.9984L222.656 101.713C222.627 101.829 222.715 101.946 222.831 101.946H227.266C227.354 101.946 227.412 101.887 227.441 101.829L230.096 92.0177C230.125 91.9303 230.183 91.9012 230.271 91.9012H240.074C240.161 91.9012 240.22 91.9594 240.249 92.0177L242.904 101.829C242.933 101.887 243.02 101.946 243.079 101.946ZM231.438 87.0974L234.997 73.9668C235.056 73.7921 235.289 73.7921 235.347 73.9668L238.907 87.0974C238.936 87.2138 238.848 87.3303 238.732 87.3303H231.613C231.496 87.3303 231.409 87.2138 231.438 87.0974Z" fill="white"/>
<path d="M318.699 101.946H323.134C323.251 101.946 323.338 101.829 323.309 101.713L314.148 67.9984C314.119 67.911 314.061 67.8819 313.973 67.8819H312.281H309.305H307.613C307.525 67.8819 307.467 67.9401 307.438 67.9984L298.277 101.713C298.248 101.829 298.335 101.946 298.452 101.946H302.887C302.974 101.946 303.033 101.887 303.062 101.829L305.717 92.0177C305.746 91.9303 305.804 91.9012 305.892 91.9012H315.694C315.782 91.9012 315.84 91.9594 315.869 92.0177L318.524 101.829C318.553 101.887 318.612 101.946 318.699 101.946ZM307.059 87.0974L310.618 73.9668C310.676 73.7921 310.91 73.7921 310.968 73.9668L314.527 87.0974C314.557 87.2138 314.469 87.3303 314.352 87.3303H307.234C307.117 87.3303 307.029 87.2138 307.059 87.0974Z" fill="white"/>
<path d="M163.053 96.9671V86.5442C163.053 86.4568 163.14 86.3695 163.228 86.3695H176.21C176.298 86.3695 176.386 86.2821 176.386 86.1948V82.0023C176.386 81.915 176.298 81.8277 176.21 81.8277H163.228C163.14 81.8277 163.053 81.7403 163.053 81.653V72.744C163.053 72.6566 163.14 72.5693 163.228 72.5693H177.99C178.078 72.5693 178.165 72.482 178.165 72.3946V68.2022C178.165 68.1148 178.078 68.0275 177.99 68.0275H163.053H158.006C157.918 68.0275 157.83 68.1148 157.83 68.2022V72.5693V81.8568V86.3986V97.1709V101.771C157.83 101.858 157.918 101.946 158.006 101.946H163.053H178.603C178.69 101.946 178.778 101.858 178.778 101.771V97.3456C178.778 97.2582 178.69 97.1709 178.603 97.1709H163.199C163.111 97.1418 163.053 97.0836 163.053 96.9671Z" fill="white"/>
<path d="M396.304 101.655L379.441 84.2733C379.383 84.215 379.383 84.0986 379.441 84.0403L394.612 68.3186C394.728 68.2022 394.641 68.0275 394.495 68.0275H388.281C388.222 68.0275 388.193 68.0566 388.164 68.0857L375.298 81.4201C375.181 81.5365 375.006 81.4492 375.006 81.3036V68.2022C375.006 68.1148 374.919 68.0275 374.831 68.0275H369.959C369.872 68.0275 369.784 68.1148 369.784 68.2022V101.8C369.784 101.887 369.872 101.975 369.959 101.975H374.831C374.919 101.975 375.006 101.887 375.006 101.8V87.01C375.006 86.8644 375.211 86.7771 375.298 86.8935L389.885 101.917C389.915 101.946 389.973 101.975 390.002 101.975H396.216C396.333 101.946 396.42 101.742 396.304 101.655Z" fill="white"/>
<path d="M99.5593 49.9184L70.0637 71.7541L75.5486 58.8856L99.5593 49.9184Z" fill="#E17726" stroke="#E17726" stroke-linecap="round" stroke-linejoin="round"/>
<path d="M31.5241 49.9184L60.757 71.9579L55.5348 58.8856L31.5241 49.9184Z" fill="#E27625" stroke="#E27625" stroke-linecap="round" stroke-linejoin="round"/>
<path d="M88.9397 100.548L81.0917 112.543L97.8963 117.172L102.71 100.81L88.9397 100.548Z" fill="#E27625" stroke="#E27625" stroke-linecap="round" stroke-linejoin="round"/>
<path d="M28.4024 100.81L33.187 117.172L49.9624 112.543L42.1436 100.548L28.4024 100.81Z" fill="#E27625" stroke="#E27625" stroke-linecap="round" stroke-linejoin="round"/>
<path d="M49.058 80.2846L44.3901 87.3303L61.0196 88.0872L60.4653 70.1819L49.058 80.2846Z" fill="#E27625" stroke="#E27625" stroke-linecap="round" stroke-linejoin="round"/>
<path d="M82.0253 80.2846L70.443 69.9781L70.0637 88.0872L86.6933 87.3303L82.0253 80.2846Z" fill="#E27625" stroke="#E27625" stroke-linecap="round" stroke-linejoin="round"/>
<path d="M49.9624 112.543L60.0277 107.681L51.3628 100.927L49.9624 112.543Z" fill="#E27625" stroke="#E27625" stroke-linecap="round" stroke-linejoin="round"/>
<path d="M71.0557 107.681L81.0917 112.543L79.7205 100.927L71.0557 107.681Z" fill="#E27625" stroke="#E27625" stroke-linecap="round" stroke-linejoin="round"/>
<path d="M81.0917 112.543L71.0556 107.681L71.8725 114.203L71.785 116.969L81.0917 112.543Z" fill="#D5BFB2" stroke="#D5BFB2" stroke-linecap="round" stroke-linejoin="round"/>
<path d="M49.9624 112.543L59.2983 116.969L59.2399 114.203L60.0276 107.681L49.9624 112.543Z" fill="#D5BFB2" stroke="#D5BFB2" stroke-linecap="round" stroke-linejoin="round"/>
<path d="M59.4733 96.6177L51.1294 94.1721L57.0227 91.4645L59.4733 96.6177Z" fill="#233447" stroke="#233447" stroke-linecap="round" stroke-linejoin="round"/>
<path d="M71.61 96.6177L74.0607 91.4645L79.9831 94.1721L71.61 96.6177Z" fill="#233447" stroke="#233447" stroke-linecap="round" stroke-linejoin="round"/>
<path d="M49.9624 112.543L51.4211 100.548L42.1436 100.81L49.9624 112.543Z" fill="#CC6228" stroke="#CC6228" stroke-linecap="round" stroke-linejoin="round"/>
<path d="M79.6622 100.548L81.0917 112.543L88.9397 100.81L79.6622 100.548Z" fill="#CC6228" stroke="#CC6228" stroke-linecap="round" stroke-linejoin="round"/>
<path d="M86.6933 87.3303L70.0637 88.0872L71.61 96.6177L74.0606 91.4645L79.9831 94.1721L86.6933 87.3303Z" fill="#CC6228" stroke="#CC6228" stroke-linecap="round" stroke-linejoin="round"/>
<path d="M51.1294 94.1721L57.0227 91.4645L59.4733 96.6177L61.0196 88.0872L44.3901 87.3303L51.1294 94.1721Z" fill="#CC6228" stroke="#CC6228" stroke-linecap="round" stroke-linejoin="round"/>
<path d="M44.3901 87.3303L51.3628 100.927L51.1294 94.1721L44.3901 87.3303Z" fill="#E27525" stroke="#E27525" stroke-linecap="round" stroke-linejoin="round"/>
<path d="M79.9831 94.1721L79.7205 100.927L86.6933 87.3303L79.9831 94.1721Z" fill="#E27525" stroke="#E27525" stroke-linecap="round" stroke-linejoin="round"/>
<path d="M61.0196 88.0872L59.4733 96.6177L61.428 106.691L61.8657 93.4152L61.0196 88.0872Z" fill="#E27525" stroke="#E27525" stroke-linecap="round" stroke-linejoin="round"/>
<path d="M70.0637 88.0872L69.2468 93.386L69.6553 106.691L71.61 96.6177L70.0637 88.0872Z" fill="#E27525" stroke="#E27525" stroke-linecap="round" stroke-linejoin="round"/>
<path d="M71.61 96.6177L69.6553 106.691L71.0557 107.681L79.7205 100.927L79.9831 94.1721L71.61 96.6177Z" fill="#F5841F" stroke="#F5841F" stroke-linecap="round" stroke-linejoin="round"/>
<path d="M51.1294 94.1721L51.3628 100.927L60.0277 107.681L61.428 106.691L59.4733 96.6177L51.1294 94.1721Z" fill="#F5841F" stroke="#F5841F" stroke-linecap="round" stroke-linejoin="round"/>
<path d="M71.785 116.969L71.8725 114.203L71.114 113.562H59.9693L59.2399 114.203L59.2983 116.969L49.9624 112.543L53.23 115.222L59.8526 119.793H71.2015L77.8533 115.222L81.0917 112.543L71.785 116.969Z" fill="#C0AC9D" stroke="#C0AC9D" stroke-linecap="round" stroke-linejoin="round"/>
<path d="M71.0557 107.681L69.6553 106.691H61.428L60.0277 107.681L59.2399 114.203L59.9693 113.562H71.114L71.8726 114.203L71.0557 107.681Z" fill="#161616" stroke="#161616" stroke-linecap="round" stroke-linejoin="round"/>
<path d="M100.814 73.1807L103.294 61.1274L99.5593 49.9184L71.0556 71.0262L82.0253 80.2846L97.517 84.7973L100.93 80.8086L99.4426 79.7314L101.806 77.577L99.9969 76.1795L102.36 74.3744L100.814 73.1807Z" fill="#763E1A" stroke="#763E1A" stroke-linecap="round" stroke-linejoin="round"/>
<path d="M27.7897 61.1274L30.2987 73.1807L28.6941 74.3744L31.0864 76.1795L29.2776 77.577L31.6408 79.7314L30.1528 80.8086L33.5663 84.7973L49.058 80.2846L60.0277 71.0262L31.5241 49.9184L27.7897 61.1274Z" fill="#763E1A" stroke="#763E1A" stroke-linecap="round" stroke-linejoin="round"/>
<path d="M97.517 84.7973L82.0253 80.2846L86.6933 87.3303L79.7205 100.927L88.9397 100.81H102.71L97.517 84.7973Z" fill="#F5841F" stroke="#F5841F" stroke-linecap="round" stroke-linejoin="round"/>
<path d="M49.058 80.2846L33.5663 84.7973L28.4024 100.81H42.1436L51.3628 100.927L44.3901 87.3303L49.058 80.2846Z" fill="#F5841F" stroke="#F5841F" stroke-linecap="round" stroke-linejoin="round"/>
<path d="M70.0637 88.0872L71.0557 71.0262L75.5485 58.8856H55.5348L60.0276 71.0262L61.0196 88.0872L61.3989 93.4443L61.428 106.691H69.6553L69.6844 93.4443L70.0637 88.0872Z" fill="#F5841F" stroke="#F5841F" stroke-linecap="round" stroke-linejoin="round"/>
</g>
<path d="M153.79 42V25.2H160.342C161.814 25.2 163.07 25.432 164.11 25.896C165.15 26.36 165.95 27.032 166.51 27.912C167.07 28.792 167.35 29.84 167.35 31.056C167.35 32.272 167.07 33.32 166.51 34.2C165.95 35.064 165.15 35.736 164.11 36.216C163.07 36.68 161.814 36.912 160.342 36.912H155.11L156.19 35.784V42H153.79ZM156.19 36.024L155.11 34.824H160.27C161.806 34.824 162.966 34.496 163.75 33.84C164.55 33.184 164.95 32.256 164.95 31.056C164.95 29.856 164.55 28.928 163.75 28.272C162.966 27.616 161.806 27.288 160.27 27.288H155.11L156.19 26.088V36.024ZM167.488 42L175.096 25.2H177.472L185.104 42H182.584L175.792 26.544H176.752L169.96 42H167.488ZM170.728 37.8L171.376 35.88H180.832L181.528 37.8H170.728ZM190.658 42V35.568L191.21 37.056L183.986 25.2H186.554L192.626 35.208H191.234L197.33 25.2H199.706L192.506 37.056L193.034 35.568V42H190.658ZM212.45 42L206.834 25.2H209.306L214.466 40.704H213.218L218.57 25.2H220.778L226.01 40.704H224.81L230.042 25.2H232.322L226.706 42H224.186L219.29 27.624H219.938L215.018 42H212.45ZM235.258 42V25.2H237.658V42H235.258ZM246.024 42V27.288H240.264V25.2H254.16V27.288H248.4V42H246.024ZM268.822 25.2H271.222V42H268.822V25.2ZM259.174 42H256.774V25.2H259.174V42ZM269.038 34.512H258.934V32.424H269.038V34.512Z" fill="white"/>
<path d="M90.416 167.192C89.136 167.192 87.912 167 86.744 166.616C85.576 166.216 84.656 165.704 83.984 165.08L84.872 163.208C85.512 163.768 86.328 164.232 87.32 164.6C88.312 164.968 89.344 165.152 90.416 165.152C91.392 165.152 92.184 165.04 92.792 164.816C93.4 164.592 93.848 164.288 94.136 163.904C94.424 163.504 94.568 163.056 94.568 162.56C94.568 161.984 94.376 161.52 93.992 161.168C93.624 160.816 93.136 160.536 92.528 160.328C91.936 160.104 91.28 159.912 90.56 159.752C89.84 159.592 89.112 159.408 88.376 159.2C87.656 158.976 86.992 158.696 86.384 158.36C85.792 158.024 85.312 157.576 84.944 157.016C84.576 156.44 84.392 155.704 84.392 154.808C84.392 153.944 84.616 153.152 85.064 152.432C85.528 151.696 86.232 151.112 87.176 150.68C88.136 150.232 89.352 150.008 90.824 150.008C91.8 150.008 92.768 150.136 93.728 150.392C94.688 150.648 95.52 151.016 96.224 151.496L95.432 153.416C94.712 152.936 93.952 152.592 93.152 152.384C92.352 152.16 91.576 152.048 90.824 152.048C89.88 152.048 89.104 152.168 88.496 152.408C87.888 152.648 87.44 152.968 87.152 153.368C86.88 153.768 86.744 154.216 86.744 154.712C86.744 155.304 86.928 155.776 87.296 156.128C87.68 156.48 88.168 156.76 88.76 156.968C89.368 157.176 90.032 157.368 90.752 157.544C91.472 157.704 92.192 157.888 92.912 158.096C93.648 158.304 94.312 158.576 94.904 158.912C95.512 159.248 96 159.696 96.368 160.256C96.736 160.816 96.92 161.536 96.92 162.416C96.92 163.264 96.688 164.056 96.224 164.792C95.76 165.512 95.04 166.096 94.064 166.544C93.104 166.976 91.888 167.192 90.416 167.192ZM107.938 167.192C106.658 167.192 105.474 166.984 104.386 166.568C103.314 166.136 102.378 165.536 101.578 164.768C100.794 163.984 100.178 163.072 99.7303 162.032C99.2823 160.992 99.0583 159.848 99.0583 158.6C99.0583 157.352 99.2823 156.208 99.7303 155.168C100.178 154.128 100.802 153.224 101.602 152.456C102.402 151.672 103.338 151.072 104.41 150.656C105.498 150.224 106.682 150.008 107.962 150.008C109.258 150.008 110.45 150.232 111.538 150.68C112.642 151.112 113.578 151.76 114.346 152.624L112.786 154.136C112.146 153.464 111.426 152.968 110.626 152.648C109.826 152.312 108.97 152.144 108.058 152.144C107.114 152.144 106.234 152.304 105.418 152.624C104.618 152.944 103.922 153.392 103.33 153.968C102.738 154.544 102.274 155.232 101.938 156.032C101.618 156.816 101.458 157.672 101.458 158.6C101.458 159.528 101.618 160.392 101.938 161.192C102.274 161.976 102.738 162.656 103.33 163.232C103.922 163.808 104.618 164.256 105.418 164.576C106.234 164.896 107.114 165.056 108.058 165.056C108.97 165.056 109.826 164.896 110.626 164.576C111.426 164.24 112.146 163.728 112.786 163.04L114.346 164.552C113.578 165.416 112.642 166.072 111.538 166.52C110.45 166.968 109.25 167.192 107.938 167.192ZM114.828 167L122.436 150.2H124.812L132.444 167H129.924L123.132 151.544H124.092L117.3 167H114.828ZM118.068 162.8L118.716 160.88H128.172L128.868 162.8H118.068ZM134.95 167V150.2H136.918L148.03 164H146.998V150.2H149.398V167H147.43L136.318 153.2H137.35V167H134.95ZM164.736 167L159.12 150.2H161.592L166.752 165.704H165.504L170.856 150.2H173.064L178.296 165.704H177.096L182.328 150.2H184.608L178.992 167H176.472L171.576 152.624H172.224L167.304 167H164.736ZM187.543 167V150.2H189.943V167H187.543ZM198.309 167V152.288H192.549V150.2H206.445V152.288H200.685V167H198.309ZM221.107 150.2H223.507V167H221.107V150.2ZM211.459 167H209.059V150.2H211.459V167ZM221.323 159.512H211.219V157.424H221.323V159.512ZM242.493 167.192C241.213 167.192 240.029 166.984 238.941 166.568C237.869 166.136 236.933 165.536 236.133 164.768C235.349 163.984 234.733 163.072 234.285 162.032C233.837 160.992 233.613 159.848 233.613 158.6C233.613 157.352 233.837 156.208 234.285 155.168C234.733 154.128 235.357 153.224 236.157 152.456C236.957 151.672 237.893 151.072 238.965 150.656C240.053 150.224 241.237 150.008 242.517 150.008C243.813 150.008 245.005 150.232 246.093 150.68C247.197 151.112 248.133 151.76 248.901 152.624L247.341 154.136C246.701 153.464 245.981 152.968 245.181 152.648C244.381 152.312 243.525 152.144 242.613 152.144C241.669 152.144 240.789 152.304 239.973 152.624C239.173 152.944 238.477 153.392 237.885 153.968C237.293 154.544 236.829 155.232 236.493 156.032C236.173 156.816 236.013 157.672 236.013 158.6C236.013 159.528 236.173 160.392 236.493 161.192C236.829 161.976 237.293 162.656 237.885 163.232C238.477 163.808 239.173 164.256 239.973 164.576C240.789 164.896 241.669 165.056 242.613 165.056C243.525 165.056 244.381 164.896 245.181 164.576C245.981 164.24 246.701 163.728 247.341 163.04L248.901 164.552C248.133 165.416 247.197 166.072 246.093 166.52C245.005 166.968 243.805 167.192 242.493 167.192ZM249.382 167L256.99 150.2H259.366L266.998 167H264.478L257.686 151.544H258.646L251.854 167H249.382ZM252.622 162.8L253.27 160.88H262.726L263.422 162.8H252.622ZM269.504 167V150.2H271.472L279.008 162.896H277.952L285.392 150.2H287.36L287.384 167H285.08L285.056 153.824H285.608L278.984 164.96H277.88L271.208 153.824H271.808V167H269.504ZM294.61 157.448H303.25V159.488H294.61V157.448ZM294.826 164.912H304.618V167H292.426V150.2H304.282V152.288H294.826V164.912ZM308.504 167V150.2H315.056C316.528 150.2 317.784 150.432 318.824 150.896C319.864 151.36 320.664 152.032 321.224 152.912C321.784 153.792 322.064 154.84 322.064 156.056C322.064 157.272 321.784 158.32 321.224 159.2C320.664 160.064 319.864 160.728 318.824 161.192C317.784 161.656 316.528 161.888 315.056 161.888H309.824L310.904 160.784V167H308.504ZM319.736 167L315.464 160.904H318.032L322.352 167H319.736ZM310.904 161.024L309.824 159.848H314.984C316.52 159.848 317.68 159.52 318.464 158.864C319.264 158.192 319.664 157.256 319.664 156.056C319.664 154.856 319.264 153.928 318.464 153.272C317.68 152.616 316.52 152.288 314.984 152.288H309.824L310.904 151.088V161.024ZM323.398 167L331.006 150.2H333.382L341.014 167H338.494L331.702 151.544H332.662L325.87 167H323.398ZM326.638 162.8L327.286 160.88H336.742L337.438 162.8H326.638Z" fill="white"/>
<defs>
<clipPath id="clip0_1_2">
<rect width="369.6" height="72" fill="white" transform="translate(27 49)"/>
</clipPath>
</defs>
</svg>
