<svg width="425" height="600" viewBox="0 0 425 600" fill="none" xmlns="http://www.w3.org/2000/svg">
<rect width="424.26" height="600" fill="#636890"/>
<path d="M110.957 181.154C109.945 181.154 109.036 180.978 108.229 180.626C107.437 180.259 106.814 179.761 106.359 179.13C105.905 178.485 105.67 177.744 105.655 176.908H107.789C107.863 177.627 108.156 178.235 108.669 178.734C109.197 179.218 109.96 179.46 110.957 179.46C111.911 179.46 112.659 179.225 113.201 178.756C113.759 178.272 114.037 177.656 114.037 176.908C114.037 176.321 113.876 175.845 113.553 175.478C113.231 175.111 112.827 174.833 112.343 174.642C111.859 174.451 111.207 174.246 110.385 174.026C109.373 173.762 108.559 173.498 107.943 173.234C107.342 172.97 106.821 172.559 106.381 172.002C105.956 171.43 105.743 170.667 105.743 169.714C105.743 168.878 105.956 168.137 106.381 167.492C106.807 166.847 107.401 166.348 108.163 165.996C108.941 165.644 109.828 165.468 110.825 165.468C112.263 165.468 113.436 165.827 114.345 166.546C115.269 167.265 115.79 168.218 115.907 169.406H113.707C113.634 168.819 113.326 168.306 112.783 167.866C112.241 167.411 111.522 167.184 110.627 167.184C109.791 167.184 109.109 167.404 108.581 167.844C108.053 168.269 107.789 168.871 107.789 169.648C107.789 170.205 107.943 170.66 108.251 171.012C108.574 171.364 108.963 171.635 109.417 171.826C109.887 172.002 110.539 172.207 111.375 172.442C112.387 172.721 113.201 172.999 113.817 173.278C114.433 173.542 114.961 173.96 115.401 174.532C115.841 175.089 116.061 175.852 116.061 176.82C116.061 177.568 115.863 178.272 115.467 178.932C115.071 179.592 114.485 180.127 113.707 180.538C112.93 180.949 112.013 181.154 110.957 181.154ZM118.259 173.322C118.259 171.826 118.597 170.484 119.271 169.296C119.946 168.093 120.863 167.155 122.021 166.48C123.195 165.805 124.493 165.468 125.915 165.468C127.587 165.468 129.047 165.871 130.293 166.678C131.54 167.485 132.449 168.629 133.021 170.11H130.623C130.198 169.186 129.582 168.475 128.775 167.976C127.983 167.477 127.03 167.228 125.915 167.228C124.845 167.228 123.884 167.477 123.033 167.976C122.183 168.475 121.515 169.186 121.031 170.11C120.547 171.019 120.305 172.09 120.305 173.322C120.305 174.539 120.547 175.61 121.031 176.534C121.515 177.443 122.183 178.147 123.033 178.646C123.884 179.145 124.845 179.394 125.915 179.394C127.03 179.394 127.983 179.152 128.775 178.668C129.582 178.169 130.198 177.458 130.623 176.534H133.021C132.449 178.001 131.54 179.137 130.293 179.944C129.047 180.736 127.587 181.132 125.915 181.132C124.493 181.132 123.195 180.802 122.021 180.142C120.863 179.467 119.946 178.536 119.271 177.348C118.597 176.16 118.259 174.818 118.259 173.322ZM145.066 177.59H138.378L137.146 181H135.034L140.578 165.754H142.888L148.41 181H146.298L145.066 177.59ZM144.494 175.962L141.722 168.218L138.95 175.962H144.494ZM162.882 181H160.88L152.828 168.79V181H150.826V165.644H152.828L160.88 177.832V165.644H162.882V181ZM191.432 165.666L186.988 181H184.744L181.18 168.658L177.484 181L175.262 181.022L170.972 165.666H173.106L176.45 178.668L180.146 165.666H182.39L185.91 178.624L189.276 165.666H191.432ZM195.625 165.666V181H193.623V165.666H195.625ZM208.475 165.666V167.294H204.295V181H202.293V167.294H198.091V165.666H208.475ZM222.753 165.666V181H220.751V174.048H212.941V181H210.939V165.666H212.941V172.398H220.751V165.666H222.753ZM231.289 173.322C231.289 171.826 231.626 170.484 232.301 169.296C232.975 168.093 233.892 167.155 235.051 166.48C236.224 165.805 237.522 165.468 238.945 165.468C240.617 165.468 242.076 165.871 243.323 166.678C244.569 167.485 245.479 168.629 246.051 170.11H243.653C243.227 169.186 242.611 168.475 241.805 167.976C241.013 167.477 240.059 167.228 238.945 167.228C237.874 167.228 236.913 167.477 236.063 167.976C235.212 168.475 234.545 169.186 234.061 170.11C233.577 171.019 233.335 172.09 233.335 173.322C233.335 174.539 233.577 175.61 234.061 176.534C234.545 177.443 235.212 178.147 236.063 178.646C236.913 179.145 237.874 179.394 238.945 179.394C240.059 179.394 241.013 179.152 241.805 178.668C242.611 178.169 243.227 177.458 243.653 176.534H246.051C245.479 178.001 244.569 179.137 243.323 179.944C242.076 180.736 240.617 181.132 238.945 181.132C237.522 181.132 236.224 180.802 235.051 180.142C233.892 179.467 232.975 178.536 232.301 177.348C231.626 176.16 231.289 174.818 231.289 173.322ZM258.095 177.59H251.407L250.175 181H248.063L253.607 165.754H255.917L261.439 181H259.327L258.095 177.59ZM257.523 175.962L254.751 168.218L251.979 175.962H257.523ZM279.409 165.776V181H277.407V169.648L272.347 181H270.939L265.857 169.626V181H263.855V165.776H266.011L271.643 178.36L277.275 165.776H279.409ZM284.806 167.294V172.42H290.394V174.07H284.806V179.35H291.054V181H282.804V165.644H291.054V167.294H284.806ZM302.158 181L298.506 174.73H296.086V181H294.084V165.666H299.034C300.192 165.666 301.168 165.864 301.96 166.26C302.766 166.656 303.368 167.191 303.764 167.866C304.16 168.541 304.358 169.311 304.358 170.176C304.358 171.232 304.05 172.163 303.434 172.97C302.832 173.777 301.923 174.312 300.706 174.576L304.556 181H302.158ZM296.086 173.124H299.034C300.119 173.124 300.933 172.86 301.476 172.332C302.018 171.789 302.29 171.071 302.29 170.176C302.29 169.267 302.018 168.563 301.476 168.064C300.948 167.565 300.134 167.316 299.034 167.316H296.086V173.124ZM316.532 177.59H309.844L308.612 181H306.5L312.044 165.754H314.354L319.876 181H317.764L316.532 177.59ZM315.96 175.962L313.188 168.218L310.416 175.962H315.96Z" fill="white"/>
<path d="M380.414 109.69C379.498 109.085 378.487 108.655 377.531 108.117C376.911 107.767 376.251 107.458 375.712 107.014C374.796 106.261 374.984 104.782 375.941 104.137C377.315 103.222 379.592 103.733 379.835 105.602C379.835 105.643 379.875 105.67 379.916 105.67H381.99C382.044 105.67 382.085 105.629 382.071 105.575C381.964 104.285 381.465 103.209 380.549 102.523C379.673 101.864 378.676 101.515 377.612 101.515C372.128 101.515 371.629 107.31 374.58 109.139C374.917 109.354 377.814 110.806 378.838 111.438C379.862 112.07 380.185 113.226 379.74 114.14C379.336 114.974 378.285 115.552 377.234 115.485C376.089 115.418 375.2 114.799 374.89 113.831C374.836 113.656 374.809 113.32 374.809 113.172C374.809 113.132 374.769 113.092 374.728 113.092H372.478C372.438 113.092 372.397 113.132 372.397 113.172C372.397 114.799 372.802 115.7 373.906 116.52C374.944 117.3 376.076 117.623 377.248 117.623C380.32 117.623 381.91 115.888 382.233 114.087C382.516 112.325 381.99 110.739 380.414 109.69Z" fill="white"/>
<path d="M282.718 101.811H281.721H280.63C280.589 101.811 280.562 101.838 280.549 101.864L278.703 107.942C278.676 108.023 278.568 108.023 278.541 107.942L276.696 101.864C276.682 101.824 276.655 101.811 276.615 101.811H275.523H274.526H273.179C273.139 101.811 273.098 101.851 273.098 101.891V117.408C273.098 117.448 273.139 117.488 273.179 117.488H275.429C275.47 117.488 275.51 117.448 275.51 117.408V105.616C275.51 105.522 275.645 105.508 275.672 105.589L277.531 111.707L277.666 112.137C277.679 112.177 277.706 112.191 277.747 112.191H279.471C279.512 112.191 279.539 112.164 279.552 112.137L279.687 111.707L281.546 105.589C281.573 105.495 281.708 105.522 281.708 105.616V117.408C281.708 117.448 281.748 117.488 281.789 117.488H284.039C284.079 117.488 284.119 117.448 284.119 117.408V101.891C284.119 101.851 284.079 101.811 284.039 101.811H282.718Z" fill="white"/>
<path d="M345.963 101.811C345.922 101.811 345.895 101.838 345.882 101.864L344.036 107.942C344.009 108.023 343.901 108.023 343.874 107.942L342.028 101.864C342.015 101.824 341.988 101.811 341.947 101.811H338.525C338.485 101.811 338.444 101.851 338.444 101.891V117.408C338.444 117.448 338.485 117.488 338.525 117.488H340.775C340.816 117.488 340.856 117.448 340.856 117.408V105.616C340.856 105.522 340.991 105.508 341.018 105.589L342.877 111.707L343.012 112.137C343.025 112.177 343.052 112.191 343.093 112.191H344.817C344.858 112.191 344.885 112.164 344.898 112.137L345.033 111.707L346.892 105.589C346.919 105.495 347.054 105.522 347.054 105.616V117.408C347.054 117.448 347.094 117.488 347.135 117.488H349.385C349.425 117.488 349.466 117.448 349.466 117.408V101.891C349.466 101.851 349.425 101.811 349.385 101.811H345.963Z" fill="white"/>
<path d="M316.941 101.811H312.751H310.5H306.31C306.27 101.811 306.229 101.851 306.229 101.891V103.828C306.229 103.868 306.27 103.908 306.31 103.908H310.42V117.408C310.42 117.448 310.46 117.488 310.5 117.488H312.751C312.791 117.488 312.831 117.448 312.831 117.408V103.908H316.941C316.981 103.908 317.022 103.868 317.022 103.828V101.891C317.022 101.851 316.995 101.811 316.941 101.811Z" fill="white"/>
<path d="M330.212 117.488H332.26C332.314 117.488 332.354 117.434 332.341 117.381L328.11 101.811C328.097 101.77 328.07 101.757 328.029 101.757H327.248H325.874H325.092C325.052 101.757 325.025 101.784 325.011 101.811L320.781 117.381C320.767 117.434 320.808 117.488 320.862 117.488H322.909C322.95 117.488 322.977 117.461 322.99 117.434L324.216 112.903C324.23 112.863 324.257 112.85 324.297 112.85H328.824C328.865 112.85 328.892 112.876 328.905 112.903L330.131 117.434C330.145 117.461 330.185 117.488 330.212 117.488ZM324.836 110.631L326.48 104.567C326.507 104.486 326.615 104.486 326.642 104.567L328.285 110.631C328.299 110.685 328.258 110.739 328.205 110.739H324.917C324.863 110.739 324.823 110.685 324.836 110.631Z" fill="white"/>
<path d="M365.135 117.488H367.183C367.237 117.488 367.277 117.434 367.264 117.381L363.033 101.811C363.02 101.77 362.993 101.757 362.953 101.757H362.171H360.797H360.015C359.975 101.757 359.948 101.784 359.934 101.811L355.704 117.381C355.69 117.434 355.731 117.488 355.785 117.488H357.833C357.873 117.488 357.9 117.461 357.913 117.434L359.14 112.903C359.153 112.863 359.18 112.85 359.22 112.85H363.747C363.788 112.85 363.815 112.876 363.828 112.903L365.054 117.434C365.068 117.461 365.095 117.488 365.135 117.488ZM359.759 110.631L361.403 104.567C361.43 104.486 361.538 104.486 361.565 104.567L363.209 110.631C363.222 110.685 363.182 110.739 363.128 110.739H359.84C359.786 110.739 359.746 110.685 359.759 110.631Z" fill="white"/>
<path d="M293.254 115.189V110.376C293.254 110.335 293.295 110.295 293.335 110.295H299.331C299.371 110.295 299.412 110.255 299.412 110.214V108.278C299.412 108.238 299.371 108.197 299.331 108.197H293.335C293.295 108.197 293.254 108.157 293.254 108.117V104.002C293.254 103.962 293.295 103.922 293.335 103.922H300.153C300.193 103.922 300.234 103.881 300.234 103.841V101.905C300.234 101.864 300.193 101.824 300.153 101.824H293.254H290.924C290.883 101.824 290.843 101.864 290.843 101.905V103.922V108.211V110.308V115.283V117.408C290.843 117.448 290.883 117.488 290.924 117.488H293.254H300.436C300.476 117.488 300.517 117.448 300.517 117.408V115.364C300.517 115.324 300.476 115.283 300.436 115.283H293.322C293.281 115.27 293.254 115.243 293.254 115.189Z" fill="white"/>
<path d="M400.975 117.354L393.187 109.327C393.16 109.3 393.16 109.246 393.187 109.219L400.193 101.959C400.247 101.905 400.207 101.824 400.139 101.824H397.269C397.242 101.824 397.229 101.838 397.215 101.851L391.274 108.009C391.22 108.063 391.139 108.023 391.139 107.955V101.905C391.139 101.864 391.099 101.824 391.058 101.824H388.808C388.768 101.824 388.727 101.864 388.727 101.905V117.421C388.727 117.461 388.768 117.502 388.808 117.502H391.058C391.099 117.502 391.139 117.461 391.139 117.421V110.591C391.139 110.523 391.233 110.483 391.274 110.537L398.01 117.475C398.024 117.488 398.051 117.502 398.064 117.502H400.934C400.988 117.488 401.028 117.394 400.975 117.354Z" fill="white"/>
<path d="M265.269 98L255.295 105.384L257.15 101.032L265.269 98Z" fill="#E17726" stroke="#E17726" stroke-linecap="round" stroke-linejoin="round"/>
<path d="M242.263 98L252.148 105.453L250.382 101.032L242.263 98Z" fill="#E27625" stroke="#E27625" stroke-linecap="round" stroke-linejoin="round"/>
<path d="M261.678 115.121L259.024 119.177L264.707 120.742L266.335 115.209L261.678 115.121Z" fill="#E27625" stroke="#E27625" stroke-linecap="round" stroke-linejoin="round"/>
<path d="M241.207 115.209L242.825 120.742L248.498 119.177L245.854 115.121L241.207 115.209Z" fill="#E27625" stroke="#E27625" stroke-linecap="round" stroke-linejoin="round"/>
<path d="M248.192 108.268L246.613 110.651L252.237 110.907L252.049 104.852L248.192 108.268Z" fill="#E27625" stroke="#E27625" stroke-linecap="round" stroke-linejoin="round"/>
<path d="M259.34 108.268L255.423 104.783L255.295 110.907L260.918 110.651L259.34 108.268Z" fill="#E27625" stroke="#E27625" stroke-linecap="round" stroke-linejoin="round"/>
<path d="M248.498 119.177L251.901 117.533L248.971 115.249L248.498 119.177Z" fill="#E27625" stroke="#E27625" stroke-linecap="round" stroke-linejoin="round"/>
<path d="M255.631 117.533L259.024 119.177L258.561 115.249L255.631 117.533Z" fill="#E27625" stroke="#E27625" stroke-linecap="round" stroke-linejoin="round"/>
<path d="M259.024 119.177L255.631 117.533L255.907 119.738L255.877 120.673L259.024 119.177Z" fill="#D5BFB2" stroke="#D5BFB2" stroke-linecap="round" stroke-linejoin="round"/>
<path d="M248.498 119.177L251.655 120.673L251.635 119.738L251.901 117.533L248.498 119.177Z" fill="#D5BFB2" stroke="#D5BFB2" stroke-linecap="round" stroke-linejoin="round"/>
<path d="M251.714 113.792L248.892 112.965L250.885 112.049L251.714 113.792Z" fill="#233447" stroke="#233447" stroke-linecap="round" stroke-linejoin="round"/>
<path d="M255.818 113.792L256.647 112.049L258.649 112.965L255.818 113.792Z" fill="#233447" stroke="#233447" stroke-linecap="round" stroke-linejoin="round"/>
<path d="M248.498 119.177L248.991 115.121L245.854 115.209L248.498 119.177Z" fill="#CC6228" stroke="#CC6228" stroke-linecap="round" stroke-linejoin="round"/>
<path d="M258.541 115.121L259.024 119.177L261.678 115.209L258.541 115.121Z" fill="#CC6228" stroke="#CC6228" stroke-linecap="round" stroke-linejoin="round"/>
<path d="M260.918 110.651L255.295 110.907L255.818 113.792L256.647 112.049L258.649 112.965L260.918 110.651Z" fill="#CC6228" stroke="#CC6228" stroke-linecap="round" stroke-linejoin="round"/>
<path d="M248.892 112.965L250.885 112.049L251.714 113.792L252.237 110.907L246.613 110.651L248.892 112.965Z" fill="#CC6228" stroke="#CC6228" stroke-linecap="round" stroke-linejoin="round"/>
<path d="M246.613 110.651L248.971 115.249L248.892 112.965L246.613 110.651Z" fill="#E27525" stroke="#E27525" stroke-linecap="round" stroke-linejoin="round"/>
<path d="M258.649 112.965L258.561 115.249L260.918 110.651L258.649 112.965Z" fill="#E27525" stroke="#E27525" stroke-linecap="round" stroke-linejoin="round"/>
<path d="M252.237 110.907L251.714 113.792L252.375 117.198L252.523 112.709L252.237 110.907Z" fill="#E27525" stroke="#E27525" stroke-linecap="round" stroke-linejoin="round"/>
<path d="M255.295 110.907L255.019 112.699L255.157 117.198L255.818 113.792L255.295 110.907Z" fill="#E27525" stroke="#E27525" stroke-linecap="round" stroke-linejoin="round"/>
<path d="M255.818 113.792L255.157 117.198L255.631 117.533L258.561 115.249L258.649 112.965L255.818 113.792Z" fill="#F5841F" stroke="#F5841F" stroke-linecap="round" stroke-linejoin="round"/>
<path d="M248.892 112.965L248.971 115.249L251.901 117.533L252.375 117.198L251.714 113.792L248.892 112.965Z" fill="#F5841F" stroke="#F5841F" stroke-linecap="round" stroke-linejoin="round"/>
<path d="M255.877 120.673L255.907 119.738L255.65 119.521H251.882L251.635 119.738L251.655 120.673L248.498 119.177L249.603 120.083L251.842 121.628H255.68L257.929 120.083L259.024 119.177L255.877 120.673Z" fill="#C0AC9D" stroke="#C0AC9D" stroke-linecap="round" stroke-linejoin="round"/>
<path d="M255.631 117.533L255.157 117.198H252.375L251.901 117.533L251.635 119.738L251.882 119.521H255.65L255.907 119.738L255.631 117.533Z" fill="#161616" stroke="#161616" stroke-linecap="round" stroke-linejoin="round"/>
<path d="M265.693 105.866L266.532 101.79L265.269 98L255.631 105.138L259.34 108.268L264.579 109.794L265.733 108.446L265.23 108.081L266.029 107.353L265.417 106.88L266.216 106.27L265.693 105.866Z" fill="#763E1A" stroke="#763E1A" stroke-linecap="round" stroke-linejoin="round"/>
<path d="M241 101.79L241.848 105.866L241.306 106.27L242.115 106.88L241.503 107.353L242.302 108.081L241.799 108.446L242.953 109.794L248.192 108.268L251.901 105.138L242.263 98L241 101.79Z" fill="#763E1A" stroke="#763E1A" stroke-linecap="round" stroke-linejoin="round"/>
<path d="M264.579 109.794L259.34 108.268L260.918 110.651L258.561 115.249L261.678 115.209H266.335L264.579 109.794Z" fill="#F5841F" stroke="#F5841F" stroke-linecap="round" stroke-linejoin="round"/>
<path d="M248.192 108.268L242.953 109.794L241.207 115.209H245.854L248.971 115.249L246.613 110.651L248.192 108.268Z" fill="#F5841F" stroke="#F5841F" stroke-linecap="round" stroke-linejoin="round"/>
<path d="M255.295 110.907L255.631 105.138L257.15 101.032H250.382L251.901 105.138L252.237 110.907L252.365 112.718L252.375 117.198H255.157L255.167 112.718L255.295 110.907Z" fill="#F5841F" stroke="#F5841F" stroke-linecap="round" stroke-linejoin="round"/>
<path d="M40.9298 104.944L37.1678 117H35.0998L32.1958 107.43L29.2918 117H27.2238L23.4398 104.944H25.4858L28.2578 115.064L31.2498 104.944H33.2958L36.2218 115.086L38.9498 104.944H40.9298ZM48.9007 104.724C49.81 104.724 50.6313 104.922 51.3647 105.318C52.098 105.699 52.67 106.279 53.0807 107.056C53.506 107.833 53.7187 108.779 53.7187 109.894V117H51.7387V110.18C51.7387 108.977 51.438 108.061 50.8367 107.43C50.2353 106.785 49.414 106.462 48.3727 106.462C47.3167 106.462 46.4733 106.792 45.8427 107.452C45.2267 108.112 44.9187 109.073 44.9187 110.334V117H42.9167V100.72H44.9187V106.66C45.3147 106.044 45.8573 105.567 46.5467 105.23C47.2507 104.893 48.0353 104.724 48.9007 104.724ZM67.9889 110.51C67.9889 110.891 67.9669 111.295 67.9229 111.72H58.2869C58.3603 112.908 58.7636 113.839 59.4969 114.514C60.2449 115.174 61.1469 115.504 62.2029 115.504C63.0683 115.504 63.7869 115.306 64.3589 114.91C64.9456 114.499 65.3563 113.957 65.5909 113.282H67.7469C67.4243 114.441 66.7789 115.387 65.8109 116.12C64.8429 116.839 63.6403 117.198 62.2029 117.198C61.0589 117.198 60.0323 116.941 59.1229 116.428C58.2283 115.915 57.5243 115.189 57.0109 114.25C56.4976 113.297 56.2409 112.197 56.2409 110.95C56.2409 109.703 56.4903 108.611 56.9889 107.672C57.4876 106.733 58.1843 106.015 59.0789 105.516C59.9883 105.003 61.0296 104.746 62.2029 104.746C63.3469 104.746 64.3589 104.995 65.2389 105.494C66.1189 105.993 66.7936 106.682 67.2629 107.562C67.7469 108.427 67.9889 109.41 67.9889 110.51ZM65.9209 110.092C65.9209 109.329 65.7523 108.677 65.4149 108.134C65.0776 107.577 64.6156 107.159 64.0289 106.88C63.4569 106.587 62.8189 106.44 62.1149 106.44C61.1029 106.44 60.2376 106.763 59.5189 107.408C58.8149 108.053 58.4116 108.948 58.3089 110.092H65.9209ZM76.5055 104.724C77.9722 104.724 79.1602 105.171 80.0695 106.066C80.9788 106.946 81.4335 108.222 81.4335 109.894V117H79.4535V110.18C79.4535 108.977 79.1528 108.061 78.5515 107.43C77.9502 106.785 77.1288 106.462 76.0875 106.462C75.0315 106.462 74.1882 106.792 73.5575 107.452C72.9415 108.112 72.6335 109.073 72.6335 110.334V117H70.6315V104.944H72.6335V106.66C73.0295 106.044 73.5648 105.567 74.2395 105.23C74.9288 104.893 75.6842 104.724 76.5055 104.724ZM100.953 104.944L93.693 122.676H91.625L94.001 116.868L89.139 104.944H91.361L95.145 114.712L98.885 104.944H100.953ZM108.223 117.198C107.094 117.198 106.067 116.941 105.143 116.428C104.234 115.915 103.515 115.189 102.987 114.25C102.474 113.297 102.217 112.197 102.217 110.95C102.217 109.718 102.481 108.633 103.009 107.694C103.552 106.741 104.285 106.015 105.209 105.516C106.133 105.003 107.167 104.746 108.311 104.746C109.455 104.746 110.489 105.003 111.413 105.516C112.337 106.015 113.063 106.733 113.591 107.672C114.134 108.611 114.405 109.703 114.405 110.95C114.405 112.197 114.127 113.297 113.569 114.25C113.027 115.189 112.286 115.915 111.347 116.428C110.409 116.941 109.367 117.198 108.223 117.198ZM108.223 115.438C108.942 115.438 109.617 115.269 110.247 114.932C110.878 114.595 111.384 114.089 111.765 113.414C112.161 112.739 112.359 111.918 112.359 110.95C112.359 109.982 112.169 109.161 111.787 108.486C111.406 107.811 110.907 107.313 110.291 106.99C109.675 106.653 109.008 106.484 108.289 106.484C107.556 106.484 106.881 106.653 106.265 106.99C105.664 107.313 105.18 107.811 104.813 108.486C104.447 109.161 104.263 109.982 104.263 110.95C104.263 111.933 104.439 112.761 104.791 113.436C105.158 114.111 105.642 114.617 106.243 114.954C106.845 115.277 107.505 115.438 108.223 115.438ZM127.73 104.944V117H125.728V115.218C125.346 115.834 124.811 116.318 124.122 116.67C123.447 117.007 122.699 117.176 121.878 117.176C120.939 117.176 120.096 116.985 119.348 116.604C118.6 116.208 118.006 115.621 117.566 114.844C117.14 114.067 116.928 113.121 116.928 112.006V104.944H118.908V111.742C118.908 112.93 119.208 113.847 119.81 114.492C120.411 115.123 121.232 115.438 122.274 115.438C123.344 115.438 124.188 115.108 124.804 114.448C125.42 113.788 125.728 112.827 125.728 111.566V104.944H127.73ZM138.977 107.166C139.373 106.477 139.96 105.905 140.737 105.45C141.529 104.981 142.446 104.746 143.487 104.746C144.558 104.746 145.526 105.003 146.391 105.516C147.271 106.029 147.961 106.755 148.459 107.694C148.958 108.618 149.207 109.696 149.207 110.928C149.207 112.145 148.958 113.231 148.459 114.184C147.961 115.137 147.271 115.878 146.391 116.406C145.526 116.934 144.558 117.198 143.487 117.198C142.461 117.198 141.551 116.971 140.759 116.516C139.982 116.047 139.388 115.467 138.977 114.778V122.72H136.975V104.944H138.977V107.166ZM147.161 110.928C147.161 110.019 146.978 109.227 146.611 108.552C146.245 107.877 145.746 107.364 145.115 107.012C144.499 106.66 143.817 106.484 143.069 106.484C142.336 106.484 141.654 106.667 141.023 107.034C140.407 107.386 139.909 107.907 139.527 108.596C139.161 109.271 138.977 110.055 138.977 110.95C138.977 111.859 139.161 112.659 139.527 113.348C139.909 114.023 140.407 114.543 141.023 114.91C141.654 115.262 142.336 115.438 143.069 115.438C143.817 115.438 144.499 115.262 145.115 114.91C145.746 114.543 146.245 114.023 146.611 113.348C146.978 112.659 147.161 111.852 147.161 110.928ZM151.094 110.928C151.094 109.696 151.344 108.618 151.842 107.694C152.341 106.755 153.023 106.029 153.888 105.516C154.768 105.003 155.744 104.746 156.814 104.746C157.87 104.746 158.787 104.973 159.564 105.428C160.342 105.883 160.921 106.455 161.302 107.144V104.944H163.326V117H161.302V114.756C160.906 115.46 160.312 116.047 159.52 116.516C158.743 116.971 157.834 117.198 156.792 117.198C155.722 117.198 154.754 116.934 153.888 116.406C153.023 115.878 152.341 115.137 151.842 114.184C151.344 113.231 151.094 112.145 151.094 110.928ZM161.302 110.95C161.302 110.041 161.119 109.249 160.752 108.574C160.386 107.899 159.887 107.386 159.256 107.034C158.64 106.667 157.958 106.484 157.21 106.484C156.462 106.484 155.78 106.66 155.164 107.012C154.548 107.364 154.057 107.877 153.69 108.552C153.324 109.227 153.14 110.019 153.14 110.928C153.14 111.852 153.324 112.659 153.69 113.348C154.057 114.023 154.548 114.543 155.164 114.91C155.78 115.262 156.462 115.438 157.21 115.438C157.958 115.438 158.64 115.262 159.256 114.91C159.887 114.543 160.386 114.023 160.752 113.348C161.119 112.659 161.302 111.859 161.302 110.95ZM177.094 104.944L169.834 122.676H167.766L170.142 116.868L165.28 104.944H167.502L171.286 114.712L175.026 104.944H177.094ZM201.031 104.944L197.269 117H195.201L192.297 107.43L189.393 117H187.325L183.541 104.944H185.587L188.359 115.064L191.351 104.944H193.397L196.323 115.086L199.051 104.944H201.031ZM204.052 102.986C203.671 102.986 203.348 102.854 203.084 102.59C202.82 102.326 202.688 102.003 202.688 101.622C202.688 101.241 202.82 100.918 203.084 100.654C203.348 100.39 203.671 100.258 204.052 100.258C204.419 100.258 204.727 100.39 204.976 100.654C205.24 100.918 205.372 101.241 205.372 101.622C205.372 102.003 205.24 102.326 204.976 102.59C204.727 102.854 204.419 102.986 204.052 102.986ZM205.02 104.944V117H203.018V104.944H205.02ZM210.874 106.594V113.7C210.874 114.287 210.999 114.705 211.248 114.954C211.498 115.189 211.93 115.306 212.546 115.306H214.02V117H212.216C211.102 117 210.266 116.743 209.708 116.23C209.151 115.717 208.872 114.873 208.872 113.7V106.594H207.31V104.944H208.872V101.908H210.874V104.944H214.02V106.594H210.874ZM222.43 104.724C223.339 104.724 224.161 104.922 224.894 105.318C225.627 105.699 226.199 106.279 226.61 107.056C227.035 107.833 227.248 108.779 227.248 109.894V117H225.268V110.18C225.268 108.977 224.967 108.061 224.366 107.43C223.765 106.785 222.943 106.462 221.902 106.462C220.846 106.462 220.003 106.792 219.372 107.452C218.756 108.112 218.448 109.073 218.448 110.334V117H216.446V100.72H218.448V106.66C218.844 106.044 219.387 105.567 220.076 105.23C220.78 104.893 221.565 104.724 222.43 104.724Z" fill="white"/>
<path d="M115.46 64.154C115.46 60.482 116.288 57.188 117.944 54.272C119.6 51.32 121.85 49.016 124.694 47.36C127.574 45.704 130.76 44.876 134.252 44.876C138.356 44.876 141.938 45.866 144.998 47.846C148.058 49.826 150.29 52.634 151.694 56.27H145.808C144.764 54.002 143.252 52.256 141.272 51.032C139.328 49.808 136.988 49.196 134.252 49.196C131.624 49.196 129.266 49.808 127.178 51.032C125.09 52.256 123.452 54.002 122.264 56.27C121.076 58.502 120.482 61.13 120.482 64.154C120.482 67.142 121.076 69.77 122.264 72.038C123.452 74.27 125.09 75.998 127.178 77.222C129.266 78.446 131.624 79.058 134.252 79.058C136.988 79.058 139.328 78.464 141.272 77.276C143.252 76.052 144.764 74.306 145.808 72.038H151.694C150.29 75.638 148.058 78.428 144.998 80.408C141.938 82.352 138.356 83.324 134.252 83.324C130.76 83.324 127.574 82.514 124.694 80.894C121.85 79.238 119.6 76.952 117.944 74.036C116.288 71.12 115.46 67.826 115.46 64.154ZM181.257 74.63H164.841L161.817 83H156.633L170.241 45.578H175.911L189.465 83H184.281L181.257 74.63ZM179.853 70.634L173.049 51.626L166.245 70.634H179.853ZM207.329 83.378C204.845 83.378 202.613 82.946 200.633 82.082C198.689 81.182 197.159 79.958 196.043 78.41C194.927 76.826 194.351 75.008 194.315 72.956H199.553C199.733 74.72 200.453 76.214 201.713 77.438C203.009 78.626 204.881 79.22 207.329 79.22C209.669 79.22 211.505 78.644 212.837 77.492C214.205 76.304 214.889 74.792 214.889 72.956C214.889 71.516 214.493 70.346 213.701 69.446C212.909 68.546 211.919 67.862 210.731 67.394C209.543 66.926 207.941 66.422 205.925 65.882C203.441 65.234 201.443 64.586 199.931 63.938C198.455 63.29 197.177 62.282 196.097 60.914C195.053 59.51 194.531 57.638 194.531 55.298C194.531 53.246 195.053 51.428 196.097 49.844C197.141 48.26 198.599 47.036 200.471 46.172C202.379 45.308 204.557 44.876 207.005 44.876C210.533 44.876 213.413 45.758 215.645 47.522C217.913 49.286 219.191 51.626 219.479 54.542H214.079C213.899 53.102 213.143 51.842 211.811 50.762C210.479 49.646 208.715 49.088 206.519 49.088C204.467 49.088 202.793 49.628 201.497 50.708C200.201 51.752 199.553 53.228 199.553 55.136C199.553 56.504 199.931 57.62 200.687 58.484C201.479 59.348 202.433 60.014 203.549 60.482C204.701 60.914 206.303 61.418 208.355 61.994C210.839 62.678 212.837 63.362 214.349 64.046C215.861 64.694 217.157 65.72 218.237 67.124C219.317 68.492 219.857 70.364 219.857 72.74C219.857 74.576 219.371 76.304 218.399 77.924C217.427 79.544 215.987 80.858 214.079 81.866C212.171 82.874 209.921 83.378 207.329 83.378ZM256.087 45.362V83H251.173V65.936H232.003V83H227.089V45.362H232.003V61.886H251.173V45.362H256.087ZM283.323 63.614C284.691 63.83 285.933 64.388 287.049 65.288C288.201 66.188 289.101 67.304 289.749 68.636C290.433 69.968 290.775 71.39 290.775 72.902C290.775 74.81 290.289 76.538 289.317 78.086C288.345 79.598 286.923 80.804 285.051 81.704C283.215 82.568 281.037 83 278.517 83H264.477V45.362H277.977C280.533 45.362 282.711 45.794 284.511 46.658C286.311 47.486 287.661 48.62 288.561 50.06C289.461 51.5 289.911 53.12 289.911 54.92C289.911 57.152 289.299 59.006 288.075 60.482C286.887 61.922 285.303 62.966 283.323 63.614ZM269.391 61.616H277.653C279.957 61.616 281.739 61.076 282.999 59.996C284.259 58.916 284.889 57.422 284.889 55.514C284.889 53.606 284.259 52.112 282.999 51.032C281.739 49.952 279.921 49.412 277.545 49.412H269.391V61.616ZM278.085 78.95C280.533 78.95 282.441 78.374 283.809 77.222C285.177 76.07 285.861 74.468 285.861 72.416C285.861 70.328 285.141 68.69 283.701 67.502C282.261 66.278 280.335 65.666 277.923 65.666H269.391V78.95H278.085ZM319.843 74.63H303.427L300.403 83H295.219L308.827 45.578H314.497L328.051 83H322.867L319.843 74.63ZM318.439 70.634L311.635 51.626L304.831 70.634H318.439ZM332.145 64.154C332.145 60.482 332.973 57.188 334.629 54.272C336.285 51.32 338.535 49.016 341.379 47.36C344.259 45.704 347.445 44.876 350.937 44.876C355.041 44.876 358.623 45.866 361.683 47.846C364.743 49.826 366.975 52.634 368.379 56.27H362.493C361.449 54.002 359.937 52.256 357.957 51.032C356.013 49.808 353.673 49.196 350.937 49.196C348.309 49.196 345.951 49.808 343.863 51.032C341.775 52.256 340.137 54.002 338.949 56.27C337.761 58.502 337.167 61.13 337.167 64.154C337.167 67.142 337.761 69.77 338.949 72.038C340.137 74.27 341.775 75.998 343.863 77.222C345.951 78.446 348.309 79.058 350.937 79.058C353.673 79.058 356.013 78.464 357.957 77.276C359.937 76.052 361.449 74.306 362.493 72.038H368.379C366.975 75.638 364.743 78.428 361.683 80.408C358.623 82.352 355.041 83.324 350.937 83.324C347.445 83.324 344.259 82.514 341.379 80.894C338.535 79.238 336.285 76.952 334.629 74.036C332.973 71.12 332.145 67.826 332.145 64.154ZM396.106 83L380.608 65.828V83H375.694V45.362H380.608V62.804L396.16 45.362H402.37L385.306 64.208L402.532 83H396.106Z" fill="white"/>
<path d="M26.2364 79.058C30.8084 75.386 34.3904 72.38 36.9824 70.04C39.5744 67.664 41.7524 65.198 43.5164 62.642C45.3164 60.05 46.2164 57.512 46.2164 55.028C46.2164 52.688 45.6404 50.852 44.4884 49.52C43.3724 48.152 41.5544 47.468 39.0344 47.468C36.5864 47.468 34.6784 48.242 33.3104 49.79C31.9784 51.302 31.2584 53.336 31.1504 55.892H26.3984C26.5424 51.86 27.7664 48.746 30.0704 46.55C32.3744 44.354 35.3444 43.256 38.9804 43.256C42.6884 43.256 45.6224 44.282 47.7824 46.334C49.9784 48.386 51.0764 51.212 51.0764 54.812C51.0764 57.8 50.1764 60.716 48.3764 63.56C46.6124 66.368 44.5964 68.852 42.3284 71.012C40.0604 73.136 37.1624 75.62 33.6344 78.464H52.2104V82.568H26.2364V79.058ZM56.811 52.76C56.811 50.312 57.549 48.368 59.025 46.928C60.501 45.452 62.391 44.714 64.695 44.714C66.999 44.714 68.889 45.452 70.365 46.928C71.841 48.368 72.579 50.312 72.579 52.76C72.579 55.244 71.841 57.224 70.365 58.7C68.889 60.14 66.999 60.86 64.695 60.86C62.391 60.86 60.501 60.14 59.025 58.7C57.549 57.224 56.811 55.244 56.811 52.76ZM88.347 45.308L66.477 83H61.617L83.487 45.308H88.347ZM64.695 47.738C63.471 47.738 62.499 48.17 61.779 49.034C61.095 49.862 60.753 51.104 60.753 52.76C60.753 54.416 61.095 55.676 61.779 56.54C62.499 57.404 63.471 57.836 64.695 57.836C65.919 57.836 66.891 57.404 67.611 56.54C68.331 55.64 68.691 54.38 68.691 52.76C68.691 51.104 68.331 49.862 67.611 49.034C66.891 48.17 65.919 47.738 64.695 47.738ZM77.493 75.548C77.493 73.064 78.231 71.102 79.707 69.662C81.183 68.186 83.073 67.448 85.377 67.448C87.681 67.448 89.553 68.186 90.993 69.662C92.469 71.102 93.207 73.064 93.207 75.548C93.207 77.996 92.469 79.958 90.993 81.434C89.553 82.91 87.681 83.648 85.377 83.648C83.073 83.648 81.183 82.928 79.707 81.488C78.231 80.012 77.493 78.032 77.493 75.548ZM85.323 70.526C84.099 70.526 83.127 70.958 82.407 71.822C81.687 72.65 81.327 73.892 81.327 75.548C81.327 77.168 81.687 78.41 82.407 79.274C83.127 80.102 84.099 80.516 85.323 80.516C86.547 80.516 87.519 80.102 88.239 79.274C88.959 78.41 89.319 77.168 89.319 75.548C89.319 73.892 88.959 72.65 88.239 71.822C87.519 70.958 86.547 70.526 85.323 70.526Z" fill="white"/>
<path d="M305.78 528.9H299.7L298.58 532H296.66L301.7 518.14H303.8L308.82 532H306.9L305.78 528.9ZM305.26 527.42L302.74 520.38L300.22 527.42H305.26ZM315.097 530.32L318.497 521.04H320.437L316.137 532H314.017L309.717 521.04H311.677L315.097 530.32ZM321.548 526.48C321.548 525.36 321.774 524.38 322.228 523.54C322.681 522.687 323.301 522.027 324.088 521.56C324.888 521.093 325.774 520.86 326.748 520.86C327.708 520.86 328.541 521.067 329.248 521.48C329.954 521.893 330.481 522.413 330.828 523.04V521.04H332.668V532H330.828V529.96C330.468 530.6 329.928 531.133 329.208 531.56C328.501 531.973 327.674 532.18 326.728 532.18C325.754 532.18 324.874 531.94 324.088 531.46C323.301 530.98 322.681 530.307 322.228 529.44C321.774 528.573 321.548 527.587 321.548 526.48ZM330.828 526.5C330.828 525.673 330.661 524.953 330.328 524.34C329.994 523.727 329.541 523.26 328.968 522.94C328.408 522.607 327.788 522.44 327.108 522.44C326.428 522.44 325.808 522.6 325.248 522.92C324.688 523.24 324.241 523.707 323.908 524.32C323.574 524.933 323.408 525.653 323.408 526.48C323.408 527.32 323.574 528.053 323.908 528.68C324.241 529.293 324.688 529.767 325.248 530.1C325.808 530.42 326.428 530.58 327.108 530.58C327.788 530.58 328.408 530.42 328.968 530.1C329.541 529.767 329.994 529.293 330.328 528.68C330.661 528.053 330.828 527.327 330.828 526.5ZM337.563 517.2V532H335.743V517.2H337.563ZM339.985 526.48C339.985 525.36 340.212 524.38 340.665 523.54C341.118 522.687 341.738 522.027 342.525 521.56C343.325 521.093 344.212 520.86 345.185 520.86C346.145 520.86 346.978 521.067 347.685 521.48C348.392 521.893 348.918 522.413 349.265 523.04V521.04H351.105V532H349.265V529.96C348.905 530.6 348.365 531.133 347.645 531.56C346.938 531.973 346.112 532.18 345.165 532.18C344.192 532.18 343.312 531.94 342.525 531.46C341.738 530.98 341.118 530.307 340.665 529.44C340.212 528.573 339.985 527.587 339.985 526.48ZM349.265 526.5C349.265 525.673 349.098 524.953 348.765 524.34C348.432 523.727 347.978 523.26 347.405 522.94C346.845 522.607 346.225 522.44 345.545 522.44C344.865 522.44 344.245 522.6 343.685 522.92C343.125 523.24 342.678 523.707 342.345 524.32C342.012 524.933 341.845 525.653 341.845 526.48C341.845 527.32 342.012 528.053 342.345 528.68C342.678 529.293 343.125 529.767 343.685 530.1C344.245 530.42 344.865 530.58 345.545 530.58C346.225 530.58 346.845 530.42 347.405 530.1C347.978 529.767 348.432 529.293 348.765 528.68C349.098 528.053 349.265 527.327 349.265 526.5ZM359.521 520.84C360.854 520.84 361.934 521.247 362.761 522.06C363.587 522.86 364.001 524.02 364.001 525.54V532H362.201V525.8C362.201 524.707 361.927 523.873 361.381 523.3C360.834 522.713 360.087 522.42 359.141 522.42C358.181 522.42 357.414 522.72 356.841 523.32C356.281 523.92 356.001 524.793 356.001 525.94V532H354.181V521.04H356.001V522.6C356.361 522.04 356.847 521.607 357.461 521.3C358.087 520.993 358.774 520.84 359.521 520.84ZM366.294 526.5C366.294 525.367 366.52 524.38 366.974 523.54C367.427 522.687 368.054 522.027 368.854 521.56C369.667 521.093 370.594 520.86 371.634 520.86C372.98 520.86 374.087 521.187 374.954 521.84C375.834 522.493 376.414 523.4 376.694 524.56H374.734C374.547 523.893 374.18 523.367 373.634 522.98C373.1 522.593 372.434 522.4 371.634 522.4C370.594 522.4 369.754 522.76 369.114 523.48C368.474 524.187 368.154 525.193 368.154 526.5C368.154 527.82 368.474 528.84 369.114 529.56C369.754 530.28 370.594 530.64 371.634 530.64C372.434 530.64 373.1 530.453 373.634 530.08C374.167 529.707 374.534 529.173 374.734 528.48H376.694C376.4 529.6 375.814 530.5 374.934 531.18C374.054 531.847 372.954 532.18 371.634 532.18C370.594 532.18 369.667 531.947 368.854 531.48C368.054 531.013 367.427 530.353 366.974 529.5C366.52 528.647 366.294 527.647 366.294 526.5ZM384.562 520.84C385.389 520.84 386.135 521.02 386.802 521.38C387.469 521.727 387.989 522.253 388.362 522.96C388.749 523.667 388.942 524.527 388.942 525.54V532H387.142V525.8C387.142 524.707 386.869 523.873 386.322 523.3C385.775 522.713 385.029 522.42 384.082 522.42C383.122 522.42 382.355 522.72 381.782 523.32C381.222 523.92 380.942 524.793 380.942 525.94V532H379.122V517.2H380.942V522.6C381.302 522.04 381.795 521.607 382.422 521.3C383.062 520.993 383.775 520.84 384.562 520.84ZM401.915 526.1C401.915 526.447 401.895 526.813 401.855 527.2H393.095C393.162 528.28 393.528 529.127 394.195 529.74C394.875 530.34 395.695 530.64 396.655 530.64C397.442 530.64 398.095 530.46 398.615 530.1C399.148 529.727 399.522 529.233 399.735 528.62H401.695C401.402 529.673 400.815 530.533 399.935 531.2C399.055 531.853 397.962 532.18 396.655 532.18C395.615 532.18 394.682 531.947 393.855 531.48C393.042 531.013 392.402 530.353 391.935 529.5C391.468 528.633 391.235 527.633 391.235 526.5C391.235 525.367 391.462 524.373 391.915 523.52C392.368 522.667 393.002 522.013 393.815 521.56C394.642 521.093 395.588 520.86 396.655 520.86C397.695 520.86 398.615 521.087 399.415 521.54C400.215 521.993 400.828 522.62 401.255 523.42C401.695 524.207 401.915 525.1 401.915 526.1ZM400.035 525.72C400.035 525.027 399.882 524.433 399.575 523.94C399.268 523.433 398.848 523.053 398.315 522.8C397.795 522.533 397.215 522.4 396.575 522.4C395.655 522.4 394.868 522.693 394.215 523.28C393.575 523.867 393.208 524.68 393.115 525.72H400.035Z" fill="white"/>
<path d="M283 535C288.523 535 293 530.523 293 525C293 519.477 288.523 515 283 515C277.477 515 273 519.477 273 525C273 530.523 277.477 535 283 535Z" fill="#E84142"/>
<path d="M286.527 525.26C286.874 524.661 287.433 524.661 287.779 525.26L289.937 529.047C290.283 529.646 290 530.134 289.307 530.134H284.961C284.276 530.134 283.992 529.646 284.331 529.047L286.527 525.26ZM282.354 517.968C282.701 517.37 283.252 517.37 283.598 517.968L284.079 518.835L285.213 520.827C285.488 521.394 285.488 522.063 285.213 522.63L281.409 529.22C281.063 529.756 280.488 530.094 279.85 530.134H276.693C276 530.134 275.716 529.654 276.063 529.047L282.354 517.968Z" fill="white"/>
<path d="M172.86 532.14C171.567 532.14 170.387 531.84 169.32 531.24C168.253 530.627 167.407 529.78 166.78 528.7C166.167 527.607 165.86 526.38 165.86 525.02C165.86 523.66 166.167 522.44 166.78 521.36C167.407 520.267 168.253 519.42 169.32 518.82C170.387 518.207 171.567 517.9 172.86 517.9C174.167 517.9 175.353 518.207 176.42 518.82C177.487 519.42 178.327 520.26 178.94 521.34C179.553 522.42 179.86 523.647 179.86 525.02C179.86 526.393 179.553 527.62 178.94 528.7C178.327 529.78 177.487 530.627 176.42 531.24C175.353 531.84 174.167 532.14 172.86 532.14ZM172.86 530.56C173.833 530.56 174.707 530.333 175.48 529.88C176.267 529.427 176.88 528.78 177.32 527.94C177.773 527.1 178 526.127 178 525.02C178 523.9 177.773 522.927 177.32 522.1C176.88 521.26 176.273 520.613 175.5 520.16C174.727 519.707 173.847 519.48 172.86 519.48C171.873 519.48 170.993 519.707 170.22 520.16C169.447 520.613 168.833 521.26 168.38 522.1C167.94 522.927 167.72 523.9 167.72 525.02C167.72 526.127 167.94 527.1 168.38 527.94C168.833 528.78 169.447 529.427 170.22 529.88C171.007 530.333 171.887 530.56 172.86 530.56ZM184.083 523.06C184.443 522.433 184.976 521.913 185.683 521.5C186.403 521.073 187.236 520.86 188.183 520.86C189.156 520.86 190.036 521.093 190.823 521.56C191.623 522.027 192.249 522.687 192.703 523.54C193.156 524.38 193.383 525.36 193.383 526.48C193.383 527.587 193.156 528.573 192.703 529.44C192.249 530.307 191.623 530.98 190.823 531.46C190.036 531.94 189.156 532.18 188.183 532.18C187.249 532.18 186.423 531.973 185.703 531.56C184.996 531.133 184.456 530.607 184.083 529.98V537.2H182.263V521.04H184.083V523.06ZM191.523 526.48C191.523 525.653 191.356 524.933 191.023 524.32C190.689 523.707 190.236 523.24 189.663 522.92C189.103 522.6 188.483 522.44 187.803 522.44C187.136 522.44 186.516 522.607 185.943 522.94C185.383 523.26 184.929 523.733 184.583 524.36C184.249 524.973 184.083 525.687 184.083 526.5C184.083 527.327 184.249 528.053 184.583 528.68C184.929 529.293 185.383 529.767 185.943 530.1C186.516 530.42 187.136 530.58 187.803 530.58C188.483 530.58 189.103 530.42 189.663 530.1C190.236 529.767 190.689 529.293 191.023 528.68C191.356 528.053 191.523 527.32 191.523 526.48ZM197.998 522.54V529C197.998 529.533 198.112 529.913 198.338 530.14C198.565 530.353 198.958 530.46 199.518 530.46H200.858V532H199.218C198.205 532 197.445 531.767 196.938 531.3C196.432 530.833 196.178 530.067 196.178 529V522.54H194.758V521.04H196.178V518.28H197.998V521.04H200.858V522.54H197.998ZM204.003 519.26C203.657 519.26 203.363 519.14 203.123 518.9C202.883 518.66 202.763 518.367 202.763 518.02C202.763 517.673 202.883 517.38 203.123 517.14C203.363 516.9 203.657 516.78 204.003 516.78C204.337 516.78 204.617 516.9 204.843 517.14C205.083 517.38 205.203 517.673 205.203 518.02C205.203 518.367 205.083 518.66 204.843 518.9C204.617 519.14 204.337 519.26 204.003 519.26ZM204.883 521.04V532H203.063V521.04H204.883ZM221.165 520.84C222.019 520.84 222.779 521.02 223.445 521.38C224.112 521.727 224.639 522.253 225.025 522.96C225.412 523.667 225.605 524.527 225.605 525.54V532H223.805V525.8C223.805 524.707 223.532 523.873 222.985 523.3C222.452 522.713 221.725 522.42 220.805 522.42C219.859 522.42 219.105 522.727 218.545 523.34C217.985 523.94 217.705 524.813 217.705 525.96V532H215.905V525.8C215.905 524.707 215.632 523.873 215.085 523.3C214.552 522.713 213.825 522.42 212.905 522.42C211.959 522.42 211.205 522.727 210.645 523.34C210.085 523.94 209.805 524.813 209.805 525.96V532H207.985V521.04H209.805V522.62C210.165 522.047 210.645 521.607 211.245 521.3C211.859 520.993 212.532 520.84 213.265 520.84C214.185 520.84 214.999 521.047 215.705 521.46C216.412 521.873 216.939 522.48 217.285 523.28C217.592 522.507 218.099 521.907 218.805 521.48C219.512 521.053 220.299 520.84 221.165 520.84ZM229.531 519.26C229.184 519.26 228.891 519.14 228.651 518.9C228.411 518.66 228.291 518.367 228.291 518.02C228.291 517.673 228.411 517.38 228.651 517.14C228.891 516.9 229.184 516.78 229.531 516.78C229.864 516.78 230.144 516.9 230.371 517.14C230.611 517.38 230.731 517.673 230.731 518.02C230.731 518.367 230.611 518.66 230.371 518.9C230.144 519.14 229.864 519.26 229.531 519.26ZM230.411 521.04V532H228.591V521.04H230.411ZM237.393 532.18C236.553 532.18 235.799 532.04 235.133 531.76C234.466 531.467 233.939 531.067 233.553 530.56C233.166 530.04 232.953 529.447 232.913 528.78H234.793C234.846 529.327 235.099 529.773 235.553 530.12C236.019 530.467 236.626 530.64 237.373 530.64C238.066 530.64 238.613 530.487 239.013 530.18C239.413 529.873 239.613 529.487 239.613 529.02C239.613 528.54 239.399 528.187 238.973 527.96C238.546 527.72 237.886 527.487 236.993 527.26C236.179 527.047 235.513 526.833 234.993 526.62C234.486 526.393 234.046 526.067 233.673 525.64C233.313 525.2 233.133 524.627 233.133 523.92C233.133 523.36 233.299 522.847 233.633 522.38C233.966 521.913 234.439 521.547 235.053 521.28C235.666 521 236.366 520.86 237.153 520.86C238.366 520.86 239.346 521.167 240.093 521.78C240.839 522.393 241.239 523.233 241.293 524.3H239.473C239.433 523.727 239.199 523.267 238.773 522.92C238.359 522.573 237.799 522.4 237.093 522.4C236.439 522.4 235.919 522.54 235.533 522.82C235.146 523.1 234.953 523.467 234.953 523.92C234.953 524.28 235.066 524.58 235.293 524.82C235.533 525.047 235.826 525.233 236.173 525.38C236.533 525.513 237.026 525.667 237.653 525.84C238.439 526.053 239.079 526.267 239.573 526.48C240.066 526.68 240.486 526.987 240.833 527.4C241.193 527.813 241.379 528.353 241.393 529.02C241.393 529.62 241.226 530.16 240.893 530.64C240.559 531.12 240.086 531.5 239.473 531.78C238.873 532.047 238.179 532.18 237.393 532.18ZM257.142 520.84C257.995 520.84 258.755 521.02 259.422 521.38C260.089 521.727 260.615 522.253 261.002 522.96C261.389 523.667 261.582 524.527 261.582 525.54V532H259.782V525.8C259.782 524.707 259.509 523.873 258.962 523.3C258.429 522.713 257.702 522.42 256.782 522.42C255.835 522.42 255.082 522.727 254.522 523.34C253.962 523.94 253.682 524.813 253.682 525.96V532H251.882V525.8C251.882 524.707 251.609 523.873 251.062 523.3C250.529 522.713 249.802 522.42 248.882 522.42C247.935 522.42 247.182 522.727 246.622 523.34C246.062 523.94 245.782 524.813 245.782 525.96V532H243.962V521.04H245.782V522.62C246.142 522.047 246.622 521.607 247.222 521.3C247.835 520.993 248.509 520.84 249.242 520.84C250.162 520.84 250.975 521.047 251.682 521.46C252.389 521.873 252.915 522.48 253.262 523.28C253.569 522.507 254.075 521.907 254.782 521.48C255.489 521.053 256.275 520.84 257.142 520.84Z" fill="white"/>
<path d="M152 535C157.523 535 162 530.523 162 525C162 519.477 157.523 515 152 515C146.477 515 142 519.477 142 525C142 530.523 146.477 535 152 535Z" fill="#FF0420"/>
<path d="M149.084 527.656C148.488 527.656 148 527.516 147.62 527.236C147.244 526.952 147.056 526.544 147.056 526.02C147.056 525.908 147.068 525.776 147.092 525.616C147.156 525.256 147.248 524.824 147.368 524.316C147.708 522.94 148.588 522.252 150.004 522.252C150.388 522.252 150.736 522.316 151.04 522.448C151.344 522.572 151.584 522.764 151.76 523.02C151.936 523.272 152.024 523.572 152.024 523.92C152.024 524.024 152.012 524.156 151.988 524.316C151.912 524.76 151.824 525.196 151.716 525.616C151.54 526.3 151.24 526.816 150.808 527.156C150.38 527.492 149.804 527.656 149.084 527.656ZM149.192 526.576C149.472 526.576 149.708 526.492 149.904 526.328C150.104 526.164 150.248 525.912 150.332 525.568C150.448 525.096 150.536 524.688 150.596 524.336C150.616 524.232 150.628 524.124 150.628 524.012C150.628 523.556 150.392 523.328 149.916 523.328C149.636 523.328 149.396 523.412 149.196 523.576C149 523.74 148.86 523.992 148.776 524.336C148.684 524.672 148.596 525.08 148.504 525.568C148.484 525.668 148.472 525.772 148.472 525.884C148.468 526.348 148.712 526.576 149.192 526.576Z" fill="white"/>
<path d="M152.372 527.584C152.316 527.584 152.276 527.568 152.244 527.532C152.22 527.492 152.212 527.448 152.22 527.396L153.256 522.516C153.264 522.46 153.292 522.416 153.34 522.38C153.384 522.344 153.432 522.328 153.484 522.328H155.48C156.036 522.328 156.48 522.444 156.816 522.672C157.156 522.904 157.328 523.236 157.328 523.672C157.328 523.796 157.312 523.928 157.284 524.064C157.16 524.64 156.908 525.064 156.524 525.34C156.148 525.616 155.632 525.752 154.976 525.752H153.964L153.62 527.396C153.608 527.452 153.584 527.496 153.536 527.532C153.492 527.568 153.444 527.584 153.392 527.584H152.372ZM155.028 524.716C155.24 524.716 155.42 524.66 155.576 524.544C155.736 524.428 155.84 524.264 155.892 524.048C155.908 523.964 155.916 523.888 155.916 523.824C155.916 523.68 155.872 523.568 155.788 523.492C155.704 523.412 155.556 523.372 155.352 523.372H154.452L154.168 524.716H155.028Z" fill="white"/>
<path d="M52.78 528.9H46.7L45.58 532H43.66L48.7 518.14H50.8L55.82 532H53.9L52.78 528.9ZM52.26 527.42L49.74 520.38L47.22 527.42H52.26ZM59.8366 522.82C60.1566 522.193 60.6099 521.707 61.1966 521.36C61.7966 521.013 62.5232 520.84 63.3766 520.84V522.72H62.8966C60.8566 522.72 59.8366 523.827 59.8366 526.04V532H58.0166V521.04H59.8366V522.82ZM67.2975 523.08C67.6708 522.427 68.2175 521.893 68.9375 521.48C69.6575 521.067 70.4775 520.86 71.3975 520.86C72.3842 520.86 73.2708 521.093 74.0575 521.56C74.8442 522.027 75.4642 522.687 75.9175 523.54C76.3708 524.38 76.5975 525.36 76.5975 526.48C76.5975 527.587 76.3708 528.573 75.9175 529.44C75.4642 530.307 74.8375 530.98 74.0375 531.46C73.2508 531.94 72.3708 532.18 71.3975 532.18C70.4508 532.18 69.6175 531.973 68.8975 531.56C68.1908 531.147 67.6575 530.62 67.2975 529.98V532H65.4775V517.2H67.2975V523.08ZM74.7375 526.48C74.7375 525.653 74.5708 524.933 74.2375 524.32C73.9042 523.707 73.4508 523.24 72.8775 522.92C72.3175 522.6 71.6975 522.44 71.0175 522.44C70.3508 522.44 69.7308 522.607 69.1575 522.94C68.5975 523.26 68.1442 523.733 67.7975 524.36C67.4642 524.973 67.2975 525.687 67.2975 526.5C67.2975 527.327 67.4642 528.053 67.7975 528.68C68.1442 529.293 68.5975 529.767 69.1575 530.1C69.7308 530.42 70.3508 530.58 71.0175 530.58C71.6975 530.58 72.3175 530.42 72.8775 530.1C73.4508 529.767 73.9042 529.293 74.2375 528.68C74.5708 528.053 74.7375 527.32 74.7375 526.48ZM79.9331 519.26C79.5865 519.26 79.2931 519.14 79.0531 518.9C78.8131 518.66 78.6931 518.367 78.6931 518.02C78.6931 517.673 78.8131 517.38 79.0531 517.14C79.2931 516.9 79.5865 516.78 79.9331 516.78C80.2665 516.78 80.5465 516.9 80.7731 517.14C81.0131 517.38 81.1331 517.673 81.1331 518.02C81.1331 518.367 81.0131 518.66 80.7731 518.9C80.5465 519.14 80.2665 519.26 79.9331 519.26ZM80.8131 521.04V532H78.9931V521.04H80.8131ZM86.135 522.54V529C86.135 529.533 86.2483 529.913 86.475 530.14C86.7017 530.353 87.095 530.46 87.655 530.46H88.995V532H87.355C86.3417 532 85.5817 531.767 85.075 531.3C84.5683 530.833 84.315 530.067 84.315 529V522.54H82.895V521.04H84.315V518.28H86.135V521.04H88.995V522.54H86.135ZM93.0202 522.82C93.3402 522.193 93.7935 521.707 94.3802 521.36C94.9802 521.013 95.7068 520.84 96.5602 520.84V522.72H96.0802C94.0402 522.72 93.0202 523.827 93.0202 526.04V532H91.2002V521.04H93.0202V522.82ZM108.381 521.04V532H106.561V530.38C106.214 530.94 105.728 531.38 105.101 531.7C104.488 532.007 103.808 532.16 103.061 532.16C102.208 532.16 101.441 531.987 100.761 531.64C100.081 531.28 99.5411 530.747 99.1411 530.04C98.7544 529.333 98.5611 528.473 98.5611 527.46V521.04H100.361V527.22C100.361 528.3 100.634 529.133 101.181 529.72C101.728 530.293 102.474 530.58 103.421 530.58C104.394 530.58 105.161 530.28 105.721 529.68C106.281 529.08 106.561 528.207 106.561 527.06V521.04H108.381ZM124.634 520.84C125.487 520.84 126.247 521.02 126.914 521.38C127.581 521.727 128.107 522.253 128.494 522.96C128.881 523.667 129.074 524.527 129.074 525.54V532H127.274V525.8C127.274 524.707 127.001 523.873 126.454 523.3C125.921 522.713 125.194 522.42 124.274 522.42C123.327 522.42 122.574 522.727 122.014 523.34C121.454 523.94 121.174 524.813 121.174 525.96V532H119.374V525.8C119.374 524.707 119.101 523.873 118.554 523.3C118.021 522.713 117.294 522.42 116.374 522.42C115.427 522.42 114.674 522.727 114.114 523.34C113.554 523.94 113.274 524.813 113.274 525.96V532H111.454V521.04H113.274V522.62C113.634 522.047 114.114 521.607 114.714 521.3C115.327 520.993 116.001 520.84 116.734 520.84C117.654 520.84 118.467 521.047 119.174 521.46C119.881 521.873 120.407 522.48 120.754 523.28C121.061 522.507 121.567 521.907 122.274 521.48C122.981 521.053 123.767 520.84 124.634 520.84Z" fill="white"/>
<path d="M31.0173 535C36.6021 535 41.0345 530.487 41.0345 525C41.0345 519.425 36.5134 515 31.0173 515C25.4324 515 21 519.513 21 525C21 530.487 25.5211 535 31.0173 535Z" fill="#2C374B"/>
<path fill-rule="evenodd" clip-rule="evenodd" d="M36.5134 521.372C36.4248 521.283 32.081 518.717 31.5491 518.54C31.3718 518.451 30.9286 518.363 30.6626 518.451C30.3967 518.54 25.787 521.195 25.6097 521.372C25.521 521.46 25.4324 521.637 25.3437 521.726C25.2551 521.903 25.2551 521.991 25.2551 525.088V528.274L25.8756 528.628C26.2302 528.805 26.4962 528.982 26.4962 528.982C26.5848 528.982 30.7513 522.345 30.7513 522.257C30.7513 522.168 29.7762 522.168 29.5102 522.257C29.1556 522.345 28.8897 522.522 28.7124 522.699C28.6237 522.788 28.0918 523.673 27.3827 524.646C26.7621 525.619 26.2302 526.504 26.2302 526.504C26.2302 526.504 26.2302 525.619 26.2302 524.381V522.168L26.3189 522.08C26.4962 521.903 31.0172 519.336 31.1945 519.336C31.2832 519.336 31.3718 519.336 32.4356 519.956C32.7902 520.133 33.7653 520.664 34.5632 521.195C35.361 521.637 36.0702 522.08 36.1588 522.168L36.2475 522.257V526.858L34.0313 523.407C33.9426 523.23 33.854 523.053 33.7653 522.965C33.7653 522.965 33.6767 523.142 33.1448 524.027C33.0561 524.115 32.9675 524.292 32.9675 524.381L32.8788 524.558L32.9675 524.646L33.0561 524.734C33.0561 524.734 33.0561 524.823 33.1448 524.823L33.3221 525.088C33.3221 525.088 33.3221 525.177 33.4107 525.177C33.4994 525.265 33.588 525.442 33.588 525.531C33.588 525.531 33.588 525.531 33.588 525.619L35.4496 528.628L35.2723 528.717C35.1837 528.805 35.0951 528.805 35.0064 528.805L32.7015 525.265L32.6129 525.177L32.4356 525.531L31.5491 526.947L33.3221 529.779C33.0561 529.956 31.5491 531.018 31.4605 531.018C31.3718 531.018 29.3329 529.69 29.4216 529.602C29.4216 529.602 30.0421 528.54 30.7513 527.301C31.3718 526.239 32.1697 524.911 32.7015 524.027C33.3221 522.965 33.588 522.434 33.588 522.434C33.588 522.434 33.1448 522.434 32.6129 522.434H31.7264L29.6875 525.796C28.9783 527.035 28.2691 528.186 27.9145 528.805C27.294 528.894 27.1167 529.071 27.1167 529.071L27.0281 529.248L28.6237 530.133C29.5102 530.664 30.308 531.106 30.4853 531.195C30.7513 531.372 31.1945 531.372 31.3718 531.372C31.5491 531.283 36.1588 528.628 36.4248 528.451C36.5134 528.363 36.6021 528.274 36.6907 528.097L36.7794 527.832V524.911V521.991L36.6907 521.814C36.6907 521.637 36.5134 521.46 36.5134 521.372Z" fill="white"/>
<path d="M36.0702 526.77L33.4108 522.699L32.4356 524.292L35.0064 528.451L36.1589 527.92L36.0702 526.77Z" fill="#24A2EE"/>
<path d="M34.8291 528.982L32.1697 524.911L31.0172 526.681L33.1448 530.044L34.4745 529.513L34.8291 528.982Z" fill="#24A2EE"/>
<path fill-rule="evenodd" clip-rule="evenodd" d="M26.1416 522.168L31.0173 519.336L35.8929 522.168V527.832L31.0173 530.664L27.3827 528.628L26.9395 529.425L30.9286 531.726C31.0173 531.814 31.1059 531.814 31.1946 531.726L36.7794 528.54C36.8681 528.451 36.9567 528.363 36.9567 528.274V521.903C36.9567 521.814 36.8681 521.726 36.7794 521.637L31.1946 518.451C31.1059 518.363 31.0173 518.363 30.9286 518.451L25.3438 521.549C25.2551 521.637 25.1665 521.726 25.1665 521.814V528.186C25.1665 528.274 25.2551 528.363 25.3438 528.451L26.4962 529.071L27.0281 528.274L26.2303 527.832V522.168H26.1416Z" fill="#98BCDC"/>
<path d="M33.1449 522.168H31.2833L26.9395 529.248L28.4465 530.133L33.1449 522.168Z" fill="white"/>
<path d="M28.4465 522.876C28.8897 522.168 30.1308 522.168 30.6627 522.257L26.4076 529.071C26.2303 528.982 25.8757 528.805 25.6097 528.628C25.2551 528.451 25.1665 528.451 25.1665 528.186V527.832C26.1416 526.416 28.0032 523.584 28.4465 522.876Z" fill="white"/>
<path d="M330.52 493.82C331.027 493.9 331.487 494.107 331.9 494.44C332.327 494.773 332.66 495.187 332.9 495.68C333.153 496.173 333.28 496.7 333.28 497.26C333.28 497.967 333.1 498.607 332.74 499.18C332.38 499.74 331.853 500.187 331.16 500.52C330.48 500.84 329.673 501 328.74 501H323.54V487.06H328.54C329.487 487.06 330.293 487.22 330.96 487.54C331.627 487.847 332.127 488.267 332.46 488.8C332.793 489.333 332.96 489.933 332.96 490.6C332.96 491.427 332.733 492.113 332.28 492.66C331.84 493.193 331.253 493.58 330.52 493.82ZM325.36 493.08H328.42C329.273 493.08 329.933 492.88 330.4 492.48C330.867 492.08 331.1 491.527 331.1 490.82C331.1 490.113 330.867 489.56 330.4 489.16C329.933 488.76 329.26 488.56 328.38 488.56H325.36V493.08ZM328.58 499.5C329.487 499.5 330.193 499.287 330.7 498.86C331.207 498.433 331.46 497.84 331.46 497.08C331.46 496.307 331.193 495.7 330.66 495.26C330.127 494.807 329.413 494.58 328.52 494.58H325.36V499.5H328.58ZM335.126 495.48C335.126 494.36 335.352 493.38 335.806 492.54C336.259 491.687 336.879 491.027 337.666 490.56C338.466 490.093 339.352 489.86 340.326 489.86C341.286 489.86 342.119 490.067 342.826 490.48C343.532 490.893 344.059 491.413 344.406 492.04V490.04H346.246V501H344.406V498.96C344.046 499.6 343.506 500.133 342.786 500.56C342.079 500.973 341.252 501.18 340.306 501.18C339.332 501.18 338.452 500.94 337.666 500.46C336.879 499.98 336.259 499.307 335.806 498.44C335.352 497.573 335.126 496.587 335.126 495.48ZM344.406 495.5C344.406 494.673 344.239 493.953 343.906 493.34C343.572 492.727 343.119 492.26 342.546 491.94C341.986 491.607 341.366 491.44 340.686 491.44C340.006 491.44 339.386 491.6 338.826 491.92C338.266 492.24 337.819 492.707 337.486 493.32C337.152 493.933 336.986 494.653 336.986 495.48C336.986 496.32 337.152 497.053 337.486 497.68C337.819 498.293 338.266 498.767 338.826 499.1C339.386 499.42 340.006 499.58 340.686 499.58C341.366 499.58 341.986 499.42 342.546 499.1C343.119 498.767 343.572 498.293 343.906 497.68C344.239 497.053 344.406 496.327 344.406 495.5ZM353.201 501.18C352.361 501.18 351.608 501.04 350.941 500.76C350.275 500.467 349.748 500.067 349.361 499.56C348.975 499.04 348.761 498.447 348.721 497.78H350.601C350.655 498.327 350.908 498.773 351.361 499.12C351.828 499.467 352.435 499.64 353.181 499.64C353.875 499.64 354.421 499.487 354.821 499.18C355.221 498.873 355.421 498.487 355.421 498.02C355.421 497.54 355.208 497.187 354.781 496.96C354.355 496.72 353.695 496.487 352.801 496.26C351.988 496.047 351.321 495.833 350.801 495.62C350.295 495.393 349.855 495.067 349.481 494.64C349.121 494.2 348.941 493.627 348.941 492.92C348.941 492.36 349.108 491.847 349.441 491.38C349.775 490.913 350.248 490.547 350.861 490.28C351.475 490 352.175 489.86 352.961 489.86C354.175 489.86 355.155 490.167 355.901 490.78C356.648 491.393 357.048 492.233 357.101 493.3H355.281C355.241 492.727 355.008 492.267 354.581 491.92C354.168 491.573 353.608 491.4 352.901 491.4C352.248 491.4 351.728 491.54 351.341 491.82C350.955 492.1 350.761 492.467 350.761 492.92C350.761 493.28 350.875 493.58 351.101 493.82C351.341 494.047 351.635 494.233 351.981 494.38C352.341 494.513 352.835 494.667 353.461 494.84C354.248 495.053 354.888 495.267 355.381 495.48C355.875 495.68 356.295 495.987 356.641 496.4C357.001 496.813 357.188 497.353 357.201 498.02C357.201 498.62 357.035 499.16 356.701 499.64C356.368 500.12 355.895 500.5 355.281 500.78C354.681 501.047 353.988 501.18 353.201 501.18ZM369.77 495.1C369.77 495.447 369.75 495.813 369.71 496.2H360.95C361.017 497.28 361.384 498.127 362.05 498.74C362.73 499.34 363.55 499.64 364.51 499.64C365.297 499.64 365.95 499.46 366.47 499.1C367.004 498.727 367.377 498.233 367.59 497.62H369.55C369.257 498.673 368.67 499.533 367.79 500.2C366.91 500.853 365.817 501.18 364.51 501.18C363.47 501.18 362.537 500.947 361.71 500.48C360.897 500.013 360.257 499.353 359.79 498.5C359.324 497.633 359.09 496.633 359.09 495.5C359.09 494.367 359.317 493.373 359.77 492.52C360.224 491.667 360.857 491.013 361.67 490.56C362.497 490.093 363.444 489.86 364.51 489.86C365.55 489.86 366.47 490.087 367.27 490.54C368.07 490.993 368.684 491.62 369.11 492.42C369.55 493.207 369.77 494.1 369.77 495.1ZM367.89 494.72C367.89 494.027 367.737 493.433 367.43 492.94C367.124 492.433 366.704 492.053 366.17 491.8C365.65 491.533 365.07 491.4 364.43 491.4C363.51 491.4 362.724 491.693 362.07 492.28C361.43 492.867 361.064 493.68 360.97 494.72H367.89Z" fill="white"/>
<path d="M223.86 491.14C223.86 492.3 223.46 493.267 222.66 494.04C221.873 494.8 220.667 495.18 219.04 495.18H216.36V501H214.54V487.06H219.04C220.613 487.06 221.807 487.44 222.62 488.2C223.447 488.96 223.86 489.94 223.86 491.14ZM219.04 493.68C220.053 493.68 220.8 493.46 221.28 493.02C221.76 492.58 222 491.953 222 491.14C222 489.42 221.013 488.56 219.04 488.56H216.36V493.68H219.04ZM230.902 501.18C229.875 501.18 228.942 500.947 228.102 500.48C227.275 500.013 226.622 499.353 226.142 498.5C225.675 497.633 225.442 496.633 225.442 495.5C225.442 494.38 225.682 493.393 226.162 492.54C226.655 491.673 227.322 491.013 228.162 490.56C229.002 490.093 229.942 489.86 230.982 489.86C232.022 489.86 232.962 490.093 233.802 490.56C234.642 491.013 235.302 491.667 235.782 492.52C236.275 493.373 236.522 494.367 236.522 495.5C236.522 496.633 236.269 497.633 235.762 498.5C235.269 499.353 234.595 500.013 233.742 500.48C232.889 500.947 231.942 501.18 230.902 501.18ZM230.902 499.58C231.555 499.58 232.169 499.427 232.742 499.12C233.315 498.813 233.775 498.353 234.122 497.74C234.482 497.127 234.662 496.38 234.662 495.5C234.662 494.62 234.489 493.873 234.142 493.26C233.795 492.647 233.342 492.193 232.782 491.9C232.222 491.593 231.615 491.44 230.962 491.44C230.295 491.44 229.682 491.593 229.122 491.9C228.575 492.193 228.135 492.647 227.802 493.26C227.469 493.873 227.302 494.62 227.302 495.5C227.302 496.393 227.462 497.147 227.782 497.76C228.115 498.373 228.555 498.833 229.102 499.14C229.649 499.433 230.249 499.58 230.902 499.58ZM240.735 486.2V501H238.915V486.2H240.735ZM253.277 490.04L246.677 506.16H244.797L246.957 500.88L242.537 490.04H244.557L247.997 498.92L251.397 490.04H253.277ZM259.626 489.86C260.573 489.86 261.4 490.067 262.106 490.48C262.826 490.893 263.36 491.413 263.706 492.04V490.04H265.546V501.24C265.546 502.24 265.333 503.127 264.906 503.9C264.48 504.687 263.866 505.3 263.066 505.74C262.28 506.18 261.36 506.4 260.306 506.4C258.866 506.4 257.666 506.06 256.706 505.38C255.746 504.7 255.18 503.773 255.006 502.6H256.806C257.006 503.267 257.42 503.8 258.046 504.2C258.673 504.613 259.426 504.82 260.306 504.82C261.306 504.82 262.12 504.507 262.746 503.88C263.386 503.253 263.706 502.373 263.706 501.24V498.94C263.346 499.58 262.813 500.113 262.106 500.54C261.4 500.967 260.573 501.18 259.626 501.18C258.653 501.18 257.766 500.94 256.966 500.46C256.18 499.98 255.56 499.307 255.106 498.44C254.653 497.573 254.426 496.587 254.426 495.48C254.426 494.36 254.653 493.38 255.106 492.54C255.56 491.687 256.18 491.027 256.966 490.56C257.766 490.093 258.653 489.86 259.626 489.86ZM263.706 495.5C263.706 494.673 263.54 493.953 263.206 493.34C262.873 492.727 262.42 492.26 261.846 491.94C261.286 491.607 260.666 491.44 259.986 491.44C259.306 491.44 258.686 491.6 258.126 491.92C257.566 492.24 257.12 492.707 256.786 493.32C256.453 493.933 256.286 494.653 256.286 495.48C256.286 496.32 256.453 497.053 256.786 497.68C257.12 498.293 257.566 498.767 258.126 499.1C258.686 499.42 259.306 499.58 259.986 499.58C260.666 499.58 261.286 499.42 261.846 499.1C262.42 498.767 262.873 498.293 263.206 497.68C263.54 497.053 263.706 496.327 263.706 495.5ZM273.402 501.18C272.375 501.18 271.442 500.947 270.602 500.48C269.775 500.013 269.122 499.353 268.642 498.5C268.175 497.633 267.942 496.633 267.942 495.5C267.942 494.38 268.182 493.393 268.662 492.54C269.155 491.673 269.822 491.013 270.662 490.56C271.502 490.093 272.442 489.86 273.482 489.86C274.522 489.86 275.462 490.093 276.302 490.56C277.142 491.013 277.802 491.667 278.282 492.52C278.775 493.373 279.022 494.367 279.022 495.5C279.022 496.633 278.769 497.633 278.262 498.5C277.769 499.353 277.095 500.013 276.242 500.48C275.389 500.947 274.442 501.18 273.402 501.18ZM273.402 499.58C274.055 499.58 274.669 499.427 275.242 499.12C275.815 498.813 276.275 498.353 276.622 497.74C276.982 497.127 277.162 496.38 277.162 495.5C277.162 494.62 276.989 493.873 276.642 493.26C276.295 492.647 275.842 492.193 275.282 491.9C274.722 491.593 274.115 491.44 273.462 491.44C272.795 491.44 272.182 491.593 271.622 491.9C271.075 492.193 270.635 492.647 270.302 493.26C269.969 493.873 269.802 494.62 269.802 495.5C269.802 496.393 269.962 497.147 270.282 497.76C270.615 498.373 271.055 498.833 271.602 499.14C272.149 499.433 272.749 499.58 273.402 499.58ZM286.755 489.84C288.088 489.84 289.168 490.247 289.995 491.06C290.822 491.86 291.235 493.02 291.235 494.54V501H289.435V494.8C289.435 493.707 289.162 492.873 288.615 492.3C288.068 491.713 287.322 491.42 286.375 491.42C285.415 491.42 284.648 491.72 284.075 492.32C283.515 492.92 283.235 493.793 283.235 494.94V501H281.415V490.04H283.235V491.6C283.595 491.04 284.082 490.607 284.695 490.3C285.322 489.993 286.008 489.84 286.755 489.84Z" fill="white"/>
<path d="M206.144 490.379C205.778 490.17 205.308 490.17 204.89 490.379L201.966 492.102L199.982 493.198L197.11 494.922C196.744 495.131 196.274 495.131 195.856 494.922L193.611 493.564C193.245 493.355 192.984 492.937 192.984 492.467V489.856C192.984 489.439 193.193 489.021 193.611 488.76L195.856 487.454C196.222 487.245 196.692 487.245 197.11 487.454L199.355 488.812C199.721 489.021 199.982 489.439 199.982 489.909V491.632L201.966 490.483V488.708C201.966 488.29 201.757 487.872 201.339 487.611L197.162 485.157C196.796 484.948 196.326 484.948 195.909 485.157L191.627 487.663C191.209 487.872 191 488.29 191 488.708V493.616C191 494.034 191.209 494.452 191.627 494.713L195.856 497.167C196.222 497.376 196.692 497.376 197.11 497.167L199.982 495.496L201.966 494.347L204.838 492.676C205.204 492.467 205.674 492.467 206.091 492.676L208.337 493.982C208.702 494.191 208.963 494.608 208.963 495.078V497.689C208.963 498.107 208.755 498.525 208.337 498.786L206.144 500.091C205.778 500.3 205.308 500.3 204.89 500.091L202.645 498.786C202.279 498.577 202.018 498.159 202.018 497.689V496.018L200.034 497.167V498.89C200.034 499.308 200.243 499.726 200.661 499.987L204.89 502.441C205.256 502.65 205.726 502.65 206.144 502.441L210.373 499.987C210.739 499.778 211 499.36 211 498.89V493.93C211 493.512 210.791 493.094 210.373 492.833L206.144 490.379Z" fill="#8247E5"/>
<path d="M30.78 497.9H24.7L23.58 501H21.66L26.7 487.14H28.8L33.82 501H31.9L30.78 497.9ZM30.26 496.42L27.74 489.38L25.22 496.42H30.26ZM34.5366 495.5C34.5366 494.367 34.7632 493.38 35.2166 492.54C35.6699 491.687 36.2966 491.027 37.0966 490.56C37.9099 490.093 38.8366 489.86 39.8766 489.86C41.2232 489.86 42.3299 490.187 43.1966 490.84C44.0766 491.493 44.6566 492.4 44.9366 493.56H42.9766C42.7899 492.893 42.4232 492.367 41.8766 491.98C41.3432 491.593 40.6766 491.4 39.8766 491.4C38.8366 491.4 37.9966 491.76 37.3566 492.48C36.7166 493.187 36.3966 494.193 36.3966 495.5C36.3966 496.82 36.7166 497.84 37.3566 498.56C37.9966 499.28 38.8366 499.64 39.8766 499.64C40.6766 499.64 41.3432 499.453 41.8766 499.08C42.4099 498.707 42.7766 498.173 42.9766 497.48H44.9366C44.6432 498.6 44.0566 499.5 43.1766 500.18C42.2966 500.847 41.1966 501.18 39.8766 501.18C38.8366 501.18 37.9099 500.947 37.0966 500.48C36.2966 500.013 35.6699 499.353 35.2166 498.5C34.7632 497.647 34.5366 496.647 34.5366 495.5ZM45.885 495.5C45.885 494.367 46.1117 493.38 46.565 492.54C47.0183 491.687 47.645 491.027 48.445 490.56C49.2583 490.093 50.185 489.86 51.225 489.86C52.5717 489.86 53.6783 490.187 54.545 490.84C55.425 491.493 56.005 492.4 56.285 493.56H54.325C54.1383 492.893 53.7717 492.367 53.225 491.98C52.6917 491.593 52.025 491.4 51.225 491.4C50.185 491.4 49.345 491.76 48.705 492.48C48.065 493.187 47.745 494.193 47.745 495.5C47.745 496.82 48.065 497.84 48.705 498.56C49.345 499.28 50.185 499.64 51.225 499.64C52.025 499.64 52.6917 499.453 53.225 499.08C53.7583 498.707 54.125 498.173 54.325 497.48H56.285C55.9917 498.6 55.405 499.5 54.525 500.18C53.645 500.847 52.545 501.18 51.225 501.18C50.185 501.18 49.2583 500.947 48.445 500.48C47.645 500.013 47.0183 499.353 46.565 498.5C46.1117 497.647 45.885 496.647 45.885 495.5ZM67.9134 495.1C67.9134 495.447 67.8934 495.813 67.8534 496.2H59.0934C59.1601 497.28 59.5268 498.127 60.1934 498.74C60.8734 499.34 61.6934 499.64 62.6534 499.64C63.4401 499.64 64.0934 499.46 64.6134 499.1C65.1468 498.727 65.5201 498.233 65.7334 497.62H67.6934C67.4001 498.673 66.8134 499.533 65.9334 500.2C65.0534 500.853 63.9601 501.18 62.6534 501.18C61.6134 501.18 60.6801 500.947 59.8534 500.48C59.0401 500.013 58.4001 499.353 57.9334 498.5C57.4668 497.633 57.2334 496.633 57.2334 495.5C57.2334 494.367 57.4601 493.373 57.9134 492.52C58.3668 491.667 59.0001 491.013 59.8134 490.56C60.6401 490.093 61.5868 489.86 62.6534 489.86C63.6934 489.86 64.6134 490.087 65.4134 490.54C66.2134 490.993 66.8268 491.62 67.2534 492.42C67.6934 493.207 67.9134 494.1 67.9134 495.1ZM66.0334 494.72C66.0334 494.027 65.8801 493.433 65.5734 492.94C65.2668 492.433 64.8468 492.053 64.3134 491.8C63.7934 491.533 63.2134 491.4 62.5734 491.4C61.6534 491.4 60.8668 491.693 60.2134 492.28C59.5734 492.867 59.2068 493.68 59.1134 494.72H66.0334ZM71.3358 492.06C71.6958 491.433 72.2291 490.913 72.9358 490.5C73.6558 490.073 74.4891 489.86 75.4358 489.86C76.4091 489.86 77.2891 490.093 78.0758 490.56C78.8758 491.027 79.5024 491.687 79.9558 492.54C80.4091 493.38 80.6358 494.36 80.6358 495.48C80.6358 496.587 80.4091 497.573 79.9558 498.44C79.5024 499.307 78.8758 499.98 78.0758 500.46C77.2891 500.94 76.4091 501.18 75.4358 501.18C74.5024 501.18 73.6758 500.973 72.9558 500.56C72.2491 500.133 71.7091 499.607 71.3358 498.98V506.2H69.5158V490.04H71.3358V492.06ZM78.7758 495.48C78.7758 494.653 78.6091 493.933 78.2758 493.32C77.9424 492.707 77.4891 492.24 76.9158 491.92C76.3558 491.6 75.7358 491.44 75.0558 491.44C74.3891 491.44 73.7691 491.607 73.1958 491.94C72.6358 492.26 72.1824 492.733 71.8358 493.36C71.5024 493.973 71.3358 494.687 71.3358 495.5C71.3358 496.327 71.5024 497.053 71.8358 497.68C72.1824 498.293 72.6358 498.767 73.1958 499.1C73.7691 499.42 74.3891 499.58 75.0558 499.58C75.7358 499.58 76.3558 499.42 76.9158 499.1C77.4891 498.767 77.9424 498.293 78.2758 497.68C78.6091 497.053 78.7758 496.32 78.7758 495.48ZM84.4514 491.54V498C84.4514 498.533 84.5647 498.913 84.7914 499.14C85.0181 499.353 85.4114 499.46 85.9714 499.46H87.3114V501H85.6714C84.6581 501 83.8981 500.767 83.3914 500.3C82.8847 499.833 82.6314 499.067 82.6314 498V491.54H81.2114V490.04H82.6314V487.28H84.4514V490.04H87.3114V491.54H84.4514ZM98.7166 495.1C98.7166 495.447 98.6966 495.813 98.6566 496.2H89.8966C89.9632 497.28 90.3299 498.127 90.9966 498.74C91.6766 499.34 92.4966 499.64 93.4566 499.64C94.2432 499.64 94.8966 499.46 95.4166 499.1C95.9499 498.727 96.3232 498.233 96.5366 497.62H98.4966C98.2032 498.673 97.6166 499.533 96.7366 500.2C95.8566 500.853 94.7632 501.18 93.4566 501.18C92.4166 501.18 91.4832 500.947 90.6566 500.48C89.8432 500.013 89.2032 499.353 88.7366 498.5C88.2699 497.633 88.0366 496.633 88.0366 495.5C88.0366 494.367 88.2632 493.373 88.7166 492.52C89.1699 491.667 89.8032 491.013 90.6166 490.56C91.4432 490.093 92.3899 489.86 93.4566 489.86C94.4966 489.86 95.4166 490.087 96.2166 490.54C97.0166 490.993 97.6299 491.62 98.0566 492.42C98.4966 493.207 98.7166 494.1 98.7166 495.1ZM96.8366 494.72C96.8366 494.027 96.6832 493.433 96.3766 492.94C96.0699 492.433 95.6499 492.053 95.1166 491.8C94.5966 491.533 94.0166 491.4 93.3766 491.4C92.4566 491.4 91.6699 491.693 91.0166 492.28C90.3766 492.867 90.0099 493.68 89.9166 494.72H96.8366ZM99.6389 495.48C99.6389 494.36 99.8656 493.38 100.319 492.54C100.772 491.687 101.392 491.027 102.179 490.56C102.979 490.093 103.872 489.86 104.859 489.86C105.712 489.86 106.506 490.06 107.239 490.46C107.972 490.847 108.532 491.36 108.919 492V486.2H110.759V501H108.919V498.94C108.559 499.593 108.026 500.133 107.319 500.56C106.612 500.973 105.786 501.18 104.839 501.18C103.866 501.18 102.979 500.94 102.179 500.46C101.392 499.98 100.772 499.307 100.319 498.44C99.8656 497.573 99.6389 496.587 99.6389 495.48ZM108.919 495.5C108.919 494.673 108.752 493.953 108.419 493.34C108.086 492.727 107.632 492.26 107.059 491.94C106.499 491.607 105.879 491.44 105.199 491.44C104.519 491.44 103.899 491.6 103.339 491.92C102.779 492.24 102.332 492.707 101.999 493.32C101.666 493.933 101.499 494.653 101.499 495.48C101.499 496.32 101.666 497.053 101.999 497.68C102.332 498.293 102.779 498.767 103.339 499.1C103.899 499.42 104.519 499.58 105.199 499.58C105.879 499.58 106.499 499.42 107.059 499.1C107.632 498.767 108.086 498.293 108.419 497.68C108.752 497.053 108.919 496.327 108.919 495.5ZM116.887 495.5C116.887 494.367 117.113 493.38 117.567 492.54C118.02 491.687 118.647 491.027 119.447 490.56C120.26 490.093 121.187 489.86 122.227 489.86C123.573 489.86 124.68 490.187 125.547 490.84C126.427 491.493 127.007 492.4 127.287 493.56H125.327C125.14 492.893 124.773 492.367 124.227 491.98C123.693 491.593 123.027 491.4 122.227 491.4C121.187 491.4 120.347 491.76 119.707 492.48C119.067 493.187 118.747 494.193 118.747 495.5C118.747 496.82 119.067 497.84 119.707 498.56C120.347 499.28 121.187 499.64 122.227 499.64C123.027 499.64 123.693 499.453 124.227 499.08C124.76 498.707 125.127 498.173 125.327 497.48H127.287C126.993 498.6 126.407 499.5 125.527 500.18C124.647 500.847 123.547 501.18 122.227 501.18C121.187 501.18 120.26 500.947 119.447 500.48C118.647 500.013 118.02 499.353 117.567 498.5C117.113 497.647 116.887 496.647 116.887 495.5ZM134.355 489.84C135.182 489.84 135.928 490.02 136.595 490.38C137.262 490.727 137.782 491.253 138.155 491.96C138.542 492.667 138.735 493.527 138.735 494.54V501H136.935V494.8C136.935 493.707 136.662 492.873 136.115 492.3C135.568 491.713 134.822 491.42 133.875 491.42C132.915 491.42 132.148 491.72 131.575 492.32C131.015 492.92 130.735 493.793 130.735 494.94V501H128.915V486.2H130.735V491.6C131.095 491.04 131.588 490.607 132.215 490.3C132.855 489.993 133.568 489.84 134.355 489.84ZM140.228 495.48C140.228 494.36 140.455 493.38 140.908 492.54C141.361 491.687 141.981 491.027 142.768 490.56C143.568 490.093 144.455 489.86 145.428 489.86C146.388 489.86 147.221 490.067 147.928 490.48C148.635 490.893 149.161 491.413 149.508 492.04V490.04H151.348V501H149.508V498.96C149.148 499.6 148.608 500.133 147.888 500.56C147.181 500.973 146.355 501.18 145.408 501.18C144.435 501.18 143.555 500.94 142.768 500.46C141.981 499.98 141.361 499.307 140.908 498.44C140.455 497.573 140.228 496.587 140.228 495.48ZM149.508 495.5C149.508 494.673 149.341 493.953 149.008 493.34C148.675 492.727 148.221 492.26 147.648 491.94C147.088 491.607 146.468 491.44 145.788 491.44C145.108 491.44 144.488 491.6 143.928 491.92C143.368 492.24 142.921 492.707 142.588 493.32C142.255 493.933 142.088 494.653 142.088 495.48C142.088 496.32 142.255 497.053 142.588 497.68C142.921 498.293 143.368 498.767 143.928 499.1C144.488 499.42 145.108 499.58 145.788 499.58C146.468 499.58 147.088 499.42 147.648 499.1C148.221 498.767 148.675 498.293 149.008 497.68C149.341 497.053 149.508 496.327 149.508 495.5ZM154.564 488.26C154.217 488.26 153.924 488.14 153.684 487.9C153.444 487.66 153.324 487.367 153.324 487.02C153.324 486.673 153.444 486.38 153.684 486.14C153.924 485.9 154.217 485.78 154.564 485.78C154.897 485.78 155.177 485.9 155.404 486.14C155.644 486.38 155.764 486.673 155.764 487.02C155.764 487.367 155.644 487.66 155.404 487.9C155.177 488.14 154.897 488.26 154.564 488.26ZM155.444 490.04V501H153.624V490.04H155.444ZM163.085 489.84C164.419 489.84 165.499 490.247 166.325 491.06C167.152 491.86 167.565 493.02 167.565 494.54V501H165.765V494.8C165.765 493.707 165.492 492.873 164.945 492.3C164.399 491.713 163.652 491.42 162.705 491.42C161.745 491.42 160.979 491.72 160.405 492.32C159.845 492.92 159.565 493.793 159.565 494.94V501H157.745V490.04H159.565V491.6C159.925 491.04 160.412 490.607 161.025 490.3C161.652 489.993 162.339 489.84 163.085 489.84ZM173.618 501.18C172.778 501.18 172.025 501.04 171.358 500.76C170.692 500.467 170.165 500.067 169.778 499.56C169.392 499.04 169.178 498.447 169.138 497.78H171.018C171.072 498.327 171.325 498.773 171.778 499.12C172.245 499.467 172.852 499.64 173.598 499.64C174.292 499.64 174.838 499.487 175.238 499.18C175.638 498.873 175.838 498.487 175.838 498.02C175.838 497.54 175.625 497.187 175.198 496.96C174.772 496.72 174.112 496.487 173.218 496.26C172.405 496.047 171.738 495.833 171.218 495.62C170.712 495.393 170.272 495.067 169.898 494.64C169.538 494.2 169.358 493.627 169.358 492.92C169.358 492.36 169.525 491.847 169.858 491.38C170.192 490.913 170.665 490.547 171.278 490.28C171.892 490 172.592 489.86 173.378 489.86C174.592 489.86 175.572 490.167 176.318 490.78C177.065 491.393 177.465 492.233 177.518 493.3H175.698C175.658 492.727 175.425 492.267 174.998 491.92C174.585 491.573 174.025 491.4 173.318 491.4C172.665 491.4 172.145 491.54 171.758 491.82C171.372 492.1 171.178 492.467 171.178 492.92C171.178 493.28 171.292 493.58 171.518 493.82C171.758 494.047 172.052 494.233 172.398 494.38C172.758 494.513 173.252 494.667 173.878 494.84C174.665 495.053 175.305 495.267 175.798 495.48C176.292 495.68 176.712 495.987 177.058 496.4C177.418 496.813 177.605 497.353 177.618 498.02C177.618 498.62 177.452 499.16 177.118 499.64C176.785 500.12 176.312 500.5 175.698 500.78C175.098 501.047 174.405 501.18 173.618 501.18ZM179.968 501.12C179.621 501.12 179.328 501 179.088 500.76C178.848 500.52 178.728 500.227 178.728 499.88C178.728 499.533 178.848 499.24 179.088 499C179.328 498.76 179.621 498.64 179.968 498.64C180.301 498.64 180.581 498.76 180.808 499C181.048 499.24 181.168 499.533 181.168 499.88C181.168 500.227 181.048 500.52 180.808 500.76C180.581 501 180.301 501.12 179.968 501.12ZM179.968 492.56C179.621 492.56 179.328 492.44 179.088 492.2C178.848 491.96 178.728 491.667 178.728 491.32C178.728 490.973 178.848 490.68 179.088 490.44C179.328 490.2 179.621 490.08 179.968 490.08C180.301 490.08 180.581 490.2 180.808 490.44C181.048 490.68 181.168 490.973 181.168 491.32C181.168 491.667 181.048 491.96 180.808 492.2C180.581 492.44 180.301 492.56 179.968 492.56Z" fill="white"/>
<g clip-path="url(#clip0_8_2)">
<path d="M309 504C314.523 504 319 499.523 319 494C319 488.477 314.523 484 309 484C303.477 484 299 488.477 299 494C299 499.523 303.477 504 309 504Z" fill="#0052FF"/>
<path d="M309.044 500.949C312.92 500.949 316.062 497.813 316.062 493.943C316.062 490.074 312.92 486.938 309.044 486.938C305.367 486.938 302.35 489.761 302.051 493.355H311.327V494.532H302.051C302.35 498.126 305.367 500.949 309.044 500.949Z" fill="white"/>
</g>
<path d="M217.32 454.06V462.88C217.32 464.12 217.62 465.04 218.22 465.64C218.833 466.24 219.68 466.54 220.76 466.54C221.827 466.54 222.66 466.24 223.26 465.64C223.873 465.04 224.18 464.12 224.18 462.88V454.06H226V462.86C226 464.02 225.767 465 225.3 465.8C224.833 466.587 224.2 467.173 223.4 467.56C222.613 467.947 221.727 468.14 220.74 468.14C219.753 468.14 218.86 467.947 218.06 467.56C217.273 467.173 216.647 466.587 216.18 465.8C215.727 465 215.5 464.02 215.5 462.86V454.06H217.32ZM233.456 468.14C232.536 468.14 231.709 467.98 230.976 467.66C230.256 467.327 229.689 466.873 229.276 466.3C228.863 465.713 228.649 465.04 228.636 464.28H230.576C230.643 464.933 230.909 465.487 231.376 465.94C231.856 466.38 232.549 466.6 233.456 466.6C234.323 466.6 235.003 466.387 235.496 465.96C236.003 465.52 236.256 464.96 236.256 464.28C236.256 463.747 236.109 463.313 235.816 462.98C235.523 462.647 235.156 462.393 234.716 462.22C234.276 462.047 233.683 461.86 232.936 461.66C232.016 461.42 231.276 461.18 230.716 460.94C230.169 460.7 229.696 460.327 229.296 459.82C228.909 459.3 228.716 458.607 228.716 457.74C228.716 456.98 228.909 456.307 229.296 455.72C229.683 455.133 230.223 454.68 230.916 454.36C231.623 454.04 232.429 453.88 233.336 453.88C234.643 453.88 235.709 454.207 236.536 454.86C237.376 455.513 237.849 456.38 237.956 457.46H235.956C235.889 456.927 235.609 456.46 235.116 456.06C234.623 455.647 233.969 455.44 233.156 455.44C232.396 455.44 231.776 455.64 231.296 456.04C230.816 456.427 230.576 456.973 230.576 457.68C230.576 458.187 230.716 458.6 230.996 458.92C231.289 459.24 231.643 459.487 232.056 459.66C232.483 459.82 233.076 460.007 233.836 460.22C234.756 460.473 235.496 460.727 236.056 460.98C236.616 461.22 237.096 461.6 237.496 462.12C237.896 462.627 238.096 463.32 238.096 464.2C238.096 464.88 237.916 465.52 237.556 466.12C237.196 466.72 236.663 467.207 235.956 467.58C235.249 467.953 234.416 468.14 233.456 468.14ZM245.114 454.06C246.634 454.06 247.948 454.347 249.054 454.92C250.174 455.48 251.028 456.287 251.614 457.34C252.214 458.393 252.514 459.633 252.514 461.06C252.514 462.487 252.214 463.727 251.614 464.78C251.028 465.82 250.174 466.62 249.054 467.18C247.948 467.727 246.634 468 245.114 468H240.774V454.06H245.114ZM245.114 466.5C246.914 466.5 248.288 466.027 249.234 465.08C250.181 464.12 250.654 462.78 250.654 461.06C250.654 459.327 250.174 457.973 249.214 457C248.268 456.027 246.901 455.54 245.114 455.54H242.594V466.5H245.114ZM254.235 461.02C254.235 459.66 254.542 458.44 255.155 457.36C255.768 456.267 256.602 455.413 257.655 454.8C258.722 454.187 259.902 453.88 261.195 453.88C262.715 453.88 264.042 454.247 265.175 454.98C266.308 455.713 267.135 456.753 267.655 458.1H265.475C265.088 457.26 264.528 456.613 263.795 456.16C263.075 455.707 262.208 455.48 261.195 455.48C260.222 455.48 259.348 455.707 258.575 456.16C257.802 456.613 257.195 457.26 256.755 458.1C256.315 458.927 256.095 459.9 256.095 461.02C256.095 462.127 256.315 463.1 256.755 463.94C257.195 464.767 257.802 465.407 258.575 465.86C259.348 466.313 260.222 466.54 261.195 466.54C262.208 466.54 263.075 466.32 263.795 465.88C264.528 465.427 265.088 464.78 265.475 463.94H267.655C267.135 465.273 266.308 466.307 265.175 467.04C264.042 467.76 262.715 468.12 261.195 468.12C259.902 468.12 258.722 467.82 257.655 467.22C256.602 466.607 255.768 465.76 255.155 464.68C254.542 463.6 254.235 462.38 254.235 461.02Z" fill="white"/>
<path d="M201 471C206.542 471 211 466.542 211 461C211 455.458 206.542 451 201 451C195.458 451 191 455.458 191 461C191 466.542 195.458 471 201 471Z" fill="#2775CA"/>
<path d="M203.751 462.591C203.751 461.133 202.876 460.633 201.126 460.424C199.876 460.258 199.626 459.924 199.626 459.341C199.626 458.758 200.043 458.383 200.876 458.383C201.626 458.383 202.043 458.633 202.251 459.258C202.293 459.383 202.418 459.466 202.543 459.466H203.21C203.376 459.466 203.501 459.341 203.501 459.174V459.133C203.335 458.216 202.585 457.508 201.626 457.424V456.424C201.626 456.258 201.501 456.133 201.293 456.091H200.668C200.501 456.091 200.376 456.216 200.335 456.424V457.383C199.085 457.549 198.293 458.383 198.293 459.424C198.293 460.799 199.126 461.341 200.876 461.549C202.043 461.758 202.418 462.008 202.418 462.674C202.418 463.341 201.835 463.799 201.043 463.799C199.96 463.799 199.585 463.341 199.46 462.716C199.418 462.549 199.293 462.466 199.168 462.466H198.46C198.293 462.466 198.168 462.591 198.168 462.758V462.799C198.335 463.841 199.001 464.591 200.376 464.799V465.799C200.376 465.966 200.501 466.091 200.71 466.133H201.335C201.501 466.133 201.626 466.008 201.668 465.799V464.799C202.918 464.591 203.751 463.716 203.751 462.591Z" fill="white"/>
<path d="M198.876 466.951C195.626 465.784 193.959 462.159 195.168 458.951C195.793 457.201 197.168 455.867 198.876 455.242C199.043 455.159 199.126 455.034 199.126 454.826V454.242C199.126 454.076 199.043 453.951 198.876 453.909C198.834 453.909 198.751 453.909 198.709 453.951C194.751 455.201 192.584 459.409 193.834 463.367C194.584 465.701 196.376 467.492 198.709 468.242C198.876 468.326 199.043 468.242 199.084 468.076C199.126 468.034 199.126 467.992 199.126 467.909V467.326C199.126 467.201 199.001 467.034 198.876 466.951ZM203.293 453.951C203.126 453.867 202.959 453.951 202.918 454.117C202.876 454.159 202.876 454.201 202.876 454.284V454.867C202.876 455.034 203.001 455.201 203.126 455.284C206.376 456.451 208.043 460.076 206.834 463.284C206.209 465.034 204.834 466.367 203.126 466.992C202.959 467.076 202.876 467.201 202.876 467.409V467.992C202.876 468.159 202.959 468.284 203.126 468.326C203.168 468.326 203.251 468.326 203.293 468.284C207.251 467.034 209.418 462.826 208.168 458.867C207.418 456.492 205.584 454.701 203.293 453.951Z" fill="white"/>
<path d="M30.78 464.9H24.7L23.58 468H21.66L26.7 454.14H28.8L33.82 468H31.9L30.78 464.9ZM30.26 463.42L27.74 456.38L25.22 463.42H30.26ZM34.5366 462.5C34.5366 461.367 34.7632 460.38 35.2166 459.54C35.6699 458.687 36.2966 458.027 37.0966 457.56C37.9099 457.093 38.8366 456.86 39.8766 456.86C41.2232 456.86 42.3299 457.187 43.1966 457.84C44.0766 458.493 44.6566 459.4 44.9366 460.56H42.9766C42.7899 459.893 42.4232 459.367 41.8766 458.98C41.3432 458.593 40.6766 458.4 39.8766 458.4C38.8366 458.4 37.9966 458.76 37.3566 459.48C36.7166 460.187 36.3966 461.193 36.3966 462.5C36.3966 463.82 36.7166 464.84 37.3566 465.56C37.9966 466.28 38.8366 466.64 39.8766 466.64C40.6766 466.64 41.3432 466.453 41.8766 466.08C42.4099 465.707 42.7766 465.173 42.9766 464.48H44.9366C44.6432 465.6 44.0566 466.5 43.1766 467.18C42.2966 467.847 41.1966 468.18 39.8766 468.18C38.8366 468.18 37.9099 467.947 37.0966 467.48C36.2966 467.013 35.6699 466.353 35.2166 465.5C34.7632 464.647 34.5366 463.647 34.5366 462.5ZM45.885 462.5C45.885 461.367 46.1117 460.38 46.565 459.54C47.0183 458.687 47.645 458.027 48.445 457.56C49.2583 457.093 50.185 456.86 51.225 456.86C52.5717 456.86 53.6783 457.187 54.545 457.84C55.425 458.493 56.005 459.4 56.285 460.56H54.325C54.1383 459.893 53.7717 459.367 53.225 458.98C52.6917 458.593 52.025 458.4 51.225 458.4C50.185 458.4 49.345 458.76 48.705 459.48C48.065 460.187 47.745 461.193 47.745 462.5C47.745 463.82 48.065 464.84 48.705 465.56C49.345 466.28 50.185 466.64 51.225 466.64C52.025 466.64 52.6917 466.453 53.225 466.08C53.7583 465.707 54.125 465.173 54.325 464.48H56.285C55.9917 465.6 55.405 466.5 54.525 467.18C53.645 467.847 52.545 468.18 51.225 468.18C50.185 468.18 49.2583 467.947 48.445 467.48C47.645 467.013 47.0183 466.353 46.565 465.5C46.1117 464.647 45.885 463.647 45.885 462.5ZM67.9134 462.1C67.9134 462.447 67.8934 462.813 67.8534 463.2H59.0934C59.1601 464.28 59.5268 465.127 60.1934 465.74C60.8734 466.34 61.6934 466.64 62.6534 466.64C63.4401 466.64 64.0934 466.46 64.6134 466.1C65.1468 465.727 65.5201 465.233 65.7334 464.62H67.6934C67.4001 465.673 66.8134 466.533 65.9334 467.2C65.0534 467.853 63.9601 468.18 62.6534 468.18C61.6134 468.18 60.6801 467.947 59.8534 467.48C59.0401 467.013 58.4001 466.353 57.9334 465.5C57.4668 464.633 57.2334 463.633 57.2334 462.5C57.2334 461.367 57.4601 460.373 57.9134 459.52C58.3668 458.667 59.0001 458.013 59.8134 457.56C60.6401 457.093 61.5868 456.86 62.6534 456.86C63.6934 456.86 64.6134 457.087 65.4134 457.54C66.2134 457.993 66.8268 458.62 67.2534 459.42C67.6934 460.207 67.9134 461.1 67.9134 462.1ZM66.0334 461.72C66.0334 461.027 65.8801 460.433 65.5734 459.94C65.2668 459.433 64.8468 459.053 64.3134 458.8C63.7934 458.533 63.2134 458.4 62.5734 458.4C61.6534 458.4 60.8668 458.693 60.2134 459.28C59.5734 459.867 59.2068 460.68 59.1134 461.72H66.0334ZM71.3358 459.06C71.6958 458.433 72.2291 457.913 72.9358 457.5C73.6558 457.073 74.4891 456.86 75.4358 456.86C76.4091 456.86 77.2891 457.093 78.0758 457.56C78.8758 458.027 79.5024 458.687 79.9558 459.54C80.4091 460.38 80.6358 461.36 80.6358 462.48C80.6358 463.587 80.4091 464.573 79.9558 465.44C79.5024 466.307 78.8758 466.98 78.0758 467.46C77.2891 467.94 76.4091 468.18 75.4358 468.18C74.5024 468.18 73.6758 467.973 72.9558 467.56C72.2491 467.133 71.7091 466.607 71.3358 465.98V473.2H69.5158V457.04H71.3358V459.06ZM78.7758 462.48C78.7758 461.653 78.6091 460.933 78.2758 460.32C77.9424 459.707 77.4891 459.24 76.9158 458.92C76.3558 458.6 75.7358 458.44 75.0558 458.44C74.3891 458.44 73.7691 458.607 73.1958 458.94C72.6358 459.26 72.1824 459.733 71.8358 460.36C71.5024 460.973 71.3358 461.687 71.3358 462.5C71.3358 463.327 71.5024 464.053 71.8358 464.68C72.1824 465.293 72.6358 465.767 73.1958 466.1C73.7691 466.42 74.3891 466.58 75.0558 466.58C75.7358 466.58 76.3558 466.42 76.9158 466.1C77.4891 465.767 77.9424 465.293 78.2758 464.68C78.6091 464.053 78.7758 463.32 78.7758 462.48ZM84.4514 458.54V465C84.4514 465.533 84.5647 465.913 84.7914 466.14C85.0181 466.353 85.4114 466.46 85.9714 466.46H87.3114V468H85.6714C84.6581 468 83.8981 467.767 83.3914 467.3C82.8847 466.833 82.6314 466.067 82.6314 465V458.54H81.2114V457.04H82.6314V454.28H84.4514V457.04H87.3114V458.54H84.4514ZM98.7166 462.1C98.7166 462.447 98.6966 462.813 98.6566 463.2H89.8966C89.9632 464.28 90.3299 465.127 90.9966 465.74C91.6766 466.34 92.4966 466.64 93.4566 466.64C94.2432 466.64 94.8966 466.46 95.4166 466.1C95.9499 465.727 96.3232 465.233 96.5366 464.62H98.4966C98.2032 465.673 97.6166 466.533 96.7366 467.2C95.8566 467.853 94.7632 468.18 93.4566 468.18C92.4166 468.18 91.4832 467.947 90.6566 467.48C89.8432 467.013 89.2032 466.353 88.7366 465.5C88.2699 464.633 88.0366 463.633 88.0366 462.5C88.0366 461.367 88.2632 460.373 88.7166 459.52C89.1699 458.667 89.8032 458.013 90.6166 457.56C91.4432 457.093 92.3899 456.86 93.4566 456.86C94.4966 456.86 95.4166 457.087 96.2166 457.54C97.0166 457.993 97.6299 458.62 98.0566 459.42C98.4966 460.207 98.7166 461.1 98.7166 462.1ZM96.8366 461.72C96.8366 461.027 96.6832 460.433 96.3766 459.94C96.0699 459.433 95.6499 459.053 95.1166 458.8C94.5966 458.533 94.0166 458.4 93.3766 458.4C92.4566 458.4 91.6699 458.693 91.0166 459.28C90.3766 459.867 90.0099 460.68 89.9166 461.72H96.8366ZM99.6389 462.48C99.6389 461.36 99.8656 460.38 100.319 459.54C100.772 458.687 101.392 458.027 102.179 457.56C102.979 457.093 103.872 456.86 104.859 456.86C105.712 456.86 106.506 457.06 107.239 457.46C107.972 457.847 108.532 458.36 108.919 459V453.2H110.759V468H108.919V465.94C108.559 466.593 108.026 467.133 107.319 467.56C106.612 467.973 105.786 468.18 104.839 468.18C103.866 468.18 102.979 467.94 102.179 467.46C101.392 466.98 100.772 466.307 100.319 465.44C99.8656 464.573 99.6389 463.587 99.6389 462.48ZM108.919 462.5C108.919 461.673 108.752 460.953 108.419 460.34C108.086 459.727 107.632 459.26 107.059 458.94C106.499 458.607 105.879 458.44 105.199 458.44C104.519 458.44 103.899 458.6 103.339 458.92C102.779 459.24 102.332 459.707 101.999 460.32C101.666 460.933 101.499 461.653 101.499 462.48C101.499 463.32 101.666 464.053 101.999 464.68C102.332 465.293 102.779 465.767 103.339 466.1C103.899 466.42 104.519 466.58 105.199 466.58C105.879 466.58 106.499 466.42 107.059 466.1C107.632 465.767 108.086 465.293 108.419 464.68C108.752 464.053 108.919 463.327 108.919 462.5ZM119.787 458.54V465C119.787 465.533 119.9 465.913 120.127 466.14C120.353 466.353 120.747 466.46 121.307 466.46H122.647V468H121.007C119.993 468 119.233 467.767 118.727 467.3C118.22 466.833 117.967 466.067 117.967 465V458.54H116.547V457.04H117.967V454.28H119.787V457.04H122.647V458.54H119.787ZM128.832 468.18C127.805 468.18 126.872 467.947 126.032 467.48C125.205 467.013 124.552 466.353 124.072 465.5C123.605 464.633 123.372 463.633 123.372 462.5C123.372 461.38 123.612 460.393 124.092 459.54C124.585 458.673 125.252 458.013 126.092 457.56C126.932 457.093 127.872 456.86 128.912 456.86C129.952 456.86 130.892 457.093 131.732 457.56C132.572 458.013 133.232 458.667 133.712 459.52C134.205 460.373 134.452 461.367 134.452 462.5C134.452 463.633 134.198 464.633 133.692 465.5C133.198 466.353 132.525 467.013 131.672 467.48C130.818 467.947 129.872 468.18 128.832 468.18ZM128.832 466.58C129.485 466.58 130.098 466.427 130.672 466.12C131.245 465.813 131.705 465.353 132.052 464.74C132.412 464.127 132.592 463.38 132.592 462.5C132.592 461.62 132.418 460.873 132.072 460.26C131.725 459.647 131.272 459.193 130.712 458.9C130.152 458.593 129.545 458.44 128.892 458.44C128.225 458.44 127.612 458.593 127.052 458.9C126.505 459.193 126.065 459.647 125.732 460.26C125.398 460.873 125.232 461.62 125.232 462.5C125.232 463.393 125.392 464.147 125.712 464.76C126.045 465.373 126.485 465.833 127.032 466.14C127.578 466.433 128.178 466.58 128.832 466.58ZM142.165 468L137.865 463.16V468H136.045V453.2H137.865V461.9L142.085 457.04H144.625L139.465 462.5L144.645 468H142.165ZM155.538 462.1C155.538 462.447 155.518 462.813 155.478 463.2H146.718C146.784 464.28 147.151 465.127 147.818 465.74C148.498 466.34 149.318 466.64 150.278 466.64C151.064 466.64 151.718 466.46 152.238 466.1C152.771 465.727 153.144 465.233 153.358 464.62H155.318C155.024 465.673 154.438 466.533 153.558 467.2C152.678 467.853 151.584 468.18 150.278 468.18C149.238 468.18 148.304 467.947 147.478 467.48C146.664 467.013 146.024 466.353 145.558 465.5C145.091 464.633 144.858 463.633 144.858 462.5C144.858 461.367 145.084 460.373 145.538 459.52C145.991 458.667 146.624 458.013 147.438 457.56C148.264 457.093 149.211 456.86 150.278 456.86C151.318 456.86 152.238 457.087 153.038 457.54C153.838 457.993 154.451 458.62 154.878 459.42C155.318 460.207 155.538 461.1 155.538 462.1ZM153.658 461.72C153.658 461.027 153.504 460.433 153.198 459.94C152.891 459.433 152.471 459.053 151.938 458.8C151.418 458.533 150.838 458.4 150.198 458.4C149.278 458.4 148.491 458.693 147.838 459.28C147.198 459.867 146.831 460.68 146.738 461.72H153.658ZM162.48 456.84C163.813 456.84 164.893 457.247 165.72 458.06C166.547 458.86 166.96 460.02 166.96 461.54V468H165.16V461.8C165.16 460.707 164.887 459.873 164.34 459.3C163.793 458.713 163.047 458.42 162.1 458.42C161.14 458.42 160.373 458.72 159.8 459.32C159.24 459.92 158.96 460.793 158.96 461.94V468H157.14V457.04H158.96V458.6C159.32 458.04 159.807 457.607 160.42 457.3C161.047 456.993 161.733 456.84 162.48 456.84ZM173.013 468.18C172.173 468.18 171.42 468.04 170.753 467.76C170.086 467.467 169.56 467.067 169.173 466.56C168.786 466.04 168.573 465.447 168.533 464.78H170.413C170.466 465.327 170.72 465.773 171.173 466.12C171.64 466.467 172.246 466.64 172.993 466.64C173.686 466.64 174.233 466.487 174.633 466.18C175.033 465.873 175.233 465.487 175.233 465.02C175.233 464.54 175.02 464.187 174.593 463.96C174.166 463.72 173.506 463.487 172.613 463.26C171.8 463.047 171.133 462.833 170.613 462.62C170.106 462.393 169.666 462.067 169.293 461.64C168.933 461.2 168.753 460.627 168.753 459.92C168.753 459.36 168.92 458.847 169.253 458.38C169.586 457.913 170.06 457.547 170.673 457.28C171.286 457 171.986 456.86 172.773 456.86C173.986 456.86 174.966 457.167 175.713 457.78C176.46 458.393 176.86 459.233 176.913 460.3H175.093C175.053 459.727 174.82 459.267 174.393 458.92C173.98 458.573 173.42 458.4 172.713 458.4C172.06 458.4 171.54 458.54 171.153 458.82C170.766 459.1 170.573 459.467 170.573 459.92C170.573 460.28 170.686 460.58 170.913 460.82C171.153 461.047 171.446 461.233 171.793 461.38C172.153 461.513 172.646 461.667 173.273 461.84C174.06 462.053 174.7 462.267 175.193 462.48C175.686 462.68 176.106 462.987 176.453 463.4C176.813 463.813 177 464.353 177.013 465.02C177.013 465.62 176.846 466.16 176.513 466.64C176.18 467.12 175.706 467.5 175.093 467.78C174.493 468.047 173.8 468.18 173.013 468.18ZM179.362 468.12C179.016 468.12 178.722 468 178.482 467.76C178.242 467.52 178.122 467.227 178.122 466.88C178.122 466.533 178.242 466.24 178.482 466C178.722 465.76 179.016 465.64 179.362 465.64C179.696 465.64 179.976 465.76 180.202 466C180.442 466.24 180.562 466.533 180.562 466.88C180.562 467.227 180.442 467.52 180.202 467.76C179.976 468 179.696 468.12 179.362 468.12ZM179.362 459.56C179.016 459.56 178.722 459.44 178.482 459.2C178.242 458.96 178.122 458.667 178.122 458.32C178.122 457.973 178.242 457.68 178.482 457.44C178.722 457.2 179.016 457.08 179.362 457.08C179.696 457.08 179.976 457.2 180.202 457.44C180.442 457.68 180.562 457.973 180.562 458.32C180.562 458.667 180.442 458.96 180.202 459.2C179.976 459.44 179.696 459.56 179.362 459.56Z" fill="white"/>
<path d="M308.32 454.06V462.88C308.32 464.12 308.62 465.04 309.22 465.64C309.833 466.24 310.68 466.54 311.76 466.54C312.827 466.54 313.66 466.24 314.26 465.64C314.873 465.04 315.18 464.12 315.18 462.88V454.06H317V462.86C317 464.02 316.767 465 316.3 465.8C315.833 466.587 315.2 467.173 314.4 467.56C313.613 467.947 312.727 468.14 311.74 468.14C310.753 468.14 309.86 467.947 309.06 467.56C308.273 467.173 307.647 466.587 307.18 465.8C306.727 465 306.5 464.02 306.5 462.86V454.06H308.32ZM324.456 468.14C323.536 468.14 322.709 467.98 321.976 467.66C321.256 467.327 320.689 466.873 320.276 466.3C319.863 465.713 319.649 465.04 319.636 464.28H321.576C321.643 464.933 321.909 465.487 322.376 465.94C322.856 466.38 323.549 466.6 324.456 466.6C325.323 466.6 326.003 466.387 326.496 465.96C327.003 465.52 327.256 464.96 327.256 464.28C327.256 463.747 327.109 463.313 326.816 462.98C326.523 462.647 326.156 462.393 325.716 462.22C325.276 462.047 324.683 461.86 323.936 461.66C323.016 461.42 322.276 461.18 321.716 460.94C321.169 460.7 320.696 460.327 320.296 459.82C319.909 459.3 319.716 458.607 319.716 457.74C319.716 456.98 319.909 456.307 320.296 455.72C320.683 455.133 321.223 454.68 321.916 454.36C322.623 454.04 323.429 453.88 324.336 453.88C325.643 453.88 326.709 454.207 327.536 454.86C328.376 455.513 328.849 456.38 328.956 457.46H326.956C326.889 456.927 326.609 456.46 326.116 456.06C325.623 455.647 324.969 455.44 324.156 455.44C323.396 455.44 322.776 455.64 322.296 456.04C321.816 456.427 321.576 456.973 321.576 457.68C321.576 458.187 321.716 458.6 321.996 458.92C322.289 459.24 322.643 459.487 323.056 459.66C323.483 459.82 324.076 460.007 324.836 460.22C325.756 460.473 326.496 460.727 327.056 460.98C327.616 461.22 328.096 461.6 328.496 462.12C328.896 462.627 329.096 463.32 329.096 464.2C329.096 464.88 328.916 465.52 328.556 466.12C328.196 466.72 327.663 467.207 326.956 467.58C326.249 467.953 325.416 468.14 324.456 468.14ZM336.114 454.06C337.634 454.06 338.948 454.347 340.054 454.92C341.174 455.48 342.028 456.287 342.614 457.34C343.214 458.393 343.514 459.633 343.514 461.06C343.514 462.487 343.214 463.727 342.614 464.78C342.028 465.82 341.174 466.62 340.054 467.18C338.948 467.727 337.634 468 336.114 468H331.774V454.06H336.114ZM336.114 466.5C337.914 466.5 339.288 466.027 340.234 465.08C341.181 464.12 341.654 462.78 341.654 461.06C341.654 459.327 341.174 457.973 340.214 457C339.268 456.027 337.901 455.54 336.114 455.54H333.594V466.5H336.114ZM354.495 454.06V455.54H350.695V468H348.875V455.54H345.055V454.06H354.495Z" fill="white"/>
<path fill-rule="evenodd" clip-rule="evenodd" d="M282.209 451.098L278.017 459.904C278.001 459.936 277.996 459.973 278.003 460.009C278.009 460.045 278.027 460.078 278.054 460.103L289.376 470.952C289.408 470.983 289.451 471 289.495 471C289.54 471 289.583 470.983 289.615 470.952L300.937 460.104C300.963 460.079 300.981 460.046 300.988 460.01C300.994 459.974 300.989 459.937 300.973 459.904L296.781 451.099C296.768 451.069 296.746 451.044 296.718 451.027C296.691 451.009 296.659 451 296.627 451H282.365C282.332 451 282.3 451.009 282.273 451.026C282.245 451.044 282.223 451.069 282.209 451.098Z" fill="#50AF95"/>
<path fill-rule="evenodd" clip-rule="evenodd" d="M290.95 460.808C290.869 460.814 290.449 460.839 289.512 460.839C288.767 460.839 288.238 460.817 288.052 460.808C285.173 460.681 283.024 460.18 283.024 459.58C283.024 458.98 285.173 458.479 288.052 458.351V460.309C288.24 460.322 288.78 460.354 289.525 460.354C290.419 460.354 290.867 460.317 290.947 460.309V458.352C293.82 458.48 295.965 458.981 295.965 459.58C295.965 460.179 293.821 460.68 290.947 460.807L290.95 460.808ZM290.95 458.149V456.397H294.96V453.725H284.042V456.397H288.051V458.149C284.793 458.298 282.342 458.944 282.342 459.717C282.342 460.491 284.793 461.136 288.051 461.286V466.901H290.949V461.284C294.2 461.134 296.647 460.49 296.647 459.717C296.647 458.944 294.202 458.299 290.949 458.149L290.95 458.149Z" fill="white"/>
<defs>
<clipPath id="clip0_8_2">
<rect width="20" height="20" fill="white" transform="translate(299 484)"/>
</clipPath>
</defs>
</svg>
