<svg width="1100" height="1100" viewBox="0 0 1100 1100" fill="none" xmlns="http://www.w3.org/2000/svg">
<g clip-path="url(#clip0_21_2)">
<path d="M250 450H450V250H250V450ZM283.333 283.333H416.667V416.667H283.333V283.333ZM316.667 316.667H383.333V383.333H316.667V316.667ZM650 450H850V250H650V450ZM683.333 283.333H816.667V416.667H683.333V283.333ZM716.667 316.667H783.333V383.333H716.667V316.667ZM250 850H450V650H250V850ZM283.333 683.333H416.667V816.667H283.333V683.333ZM316.667 716.667H383.333V783.333H316.667V716.667ZM816.667 783.333H850V850H783.333V750H816.667V783.333ZM816.667 683.333H850V716.667H816.667V683.333ZM816.667 650V683.333H783.333V650H816.667ZM483.333 716.667H516.667V850H483.333V716.667ZM350 483.333V550H283.333V516.667H250V483.333H350ZM483.333 383.333H516.667V416.667H483.333V383.333ZM583.333 283.333V350H550V250H616.667V283.333H583.333ZM483.333 283.333H516.667V316.667H483.333V283.333ZM816.667 550H850V616.667H783.333V583.333H816.667V550ZM783.333 483.333V516.667H716.667V583.333H650V550H683.333V483.333H783.333ZM550 616.667H516.667V583.333H483.333V550H550V616.667ZM750 683.333H783.333V716.667H750V683.333ZM816.667 516.667V550H783.333V516.667H816.667ZM516.667 616.667V650H483.333V616.667H516.667ZM716.667 783.333H750V850H683.333V783.333H716.667ZM616.667 783.333H650V816.667H616.667V850H550V816.667H583.333V783.333H616.667ZM616.667 750V716.667H683.333V750H616.667ZM616.667 583.333H650V683.333H616.667V716.667H583.333V750H550V683.333H516.667V650H616.667V616.667H583.333V583.333H616.667ZM316.667 583.333V616.667H283.333V583.333H316.667ZM716.667 716.667H683.333V683.333H716.667V716.667ZM750 650H683.333V616.667H750V650ZM416.667 483.333H450V516.667H416.667V550H450V616.667H416.667V583.333H383.333V616.667H350V550H383.333V483.333H416.667ZM516.667 483.333V416.667H616.667V516.667H550V483.333H583.333V450H550V483.333H516.667ZM516.667 350H550V383.333H516.667V350ZM483.333 483.333H516.667V516.667H483.333V483.333ZM583.333 383.333V350H616.667V383.333H583.333Z" fill="black"/>
</g>
<defs>
<clipPath id="clip0_21_2">
<rect width="1100" height="1100" fill="white"/>
</clipPath>
</defs>
</svg>
