<svg width="22" height="22" viewBox="0 0 22 22" fill="none" xmlns="http://www.w3.org/2000/svg">
<path d="M7.75 12C8.34674 12 8.91903 12.2371 9.34099 12.659C9.76295 13.081 10 13.6533 10 14.25V19.75C10 20.3467 9.76295 20.919 9.34099 21.341C8.91903 21.7629 8.34674 22 7.75 22H2.25C1.65326 22 1.08097 21.7629 0.65901 21.341C0.237053 20.919 0 20.3467 0 19.75V14.25C0 13.6533 0.237053 13.081 0.65901 12.659C1.08097 12.2371 1.65326 12 2.25 12H7.75ZM15.335 12V15.333H18.667V18.667H15.335V21.999H12V18.666H15.333V15.333H12V12H15.335ZM22 18.666V22H18.667V18.667L22 18.666ZM7.75 13.5H2.25C2.05109 13.5 1.86032 13.579 1.71967 13.7197C1.57902 13.8603 1.5 14.0511 1.5 14.25V19.75C1.5 20.164 1.836 20.5 2.25 20.5H7.75C7.94891 20.5 8.13968 20.421 8.28033 20.2803C8.42098 20.1397 8.5 19.9489 8.5 19.75V14.25C8.5 14.0511 8.42098 13.8603 8.28033 13.7197C8.13968 13.579 7.94891 13.5 7.75 13.5ZM6.5 15.5V18.5H3.5V15.5H6.5ZM22 12V15.333H18.667V12H22ZM7.75 0C8.34674 0 8.91903 0.237053 9.34099 0.65901C9.76295 1.08097 10 1.65326 10 2.25V7.75C10 8.34674 9.76295 8.91903 9.34099 9.34099C8.91903 9.76295 8.34674 10 7.75 10H2.25C1.65326 10 1.08097 9.76295 0.65901 9.34099C0.237053 8.91903 0 8.34674 0 7.75V2.25C0 1.65326 0.237053 1.08097 0.65901 0.65901C1.08097 0.237053 1.65326 0 2.25 0H7.75ZM19.75 0C20.3467 0 20.919 0.237053 21.341 0.65901C21.7629 1.08097 22 1.65326 22 2.25V7.75C22 8.34674 21.7629 8.91903 21.341 9.34099C20.919 9.76295 20.3467 10 19.75 10H14.25C13.6533 10 13.081 9.76295 12.659 9.34099C12.2371 8.91903 12 8.34674 12 7.75V2.25C12 1.65326 12.2371 1.08097 12.659 0.65901C13.081 0.237053 13.6533 0 14.25 0H19.75ZM7.75 1.5H2.25C2.05109 1.5 1.86032 1.57902 1.71967 1.71967C1.57902 1.86032 1.5 2.05109 1.5 2.25V7.75C1.5 8.164 1.836 8.5 2.25 8.5H7.75C7.94891 8.5 8.13968 8.42098 8.28033 8.28033C8.42098 8.13968 8.5 7.94891 8.5 7.75V2.25C8.5 2.05109 8.42098 1.86032 8.28033 1.71967C8.13968 1.57902 7.94891 1.5 7.75 1.5ZM19.75 1.5H14.25C14.0511 1.5 13.8603 1.57902 13.7197 1.71967C13.579 1.86032 13.5 2.05109 13.5 2.25V7.75C13.5 8.164 13.836 8.5 14.25 8.5H19.75C19.9489 8.5 20.1397 8.42098 20.2803 8.28033C20.421 8.13968 20.5 7.94891 20.5 7.75V2.25C20.5 2.05109 20.421 1.86032 20.2803 1.71967C20.1397 1.57902 19.9489 1.5 19.75 1.5ZM6.5 3.5V6.5H3.5V3.5H6.5ZM18.5 3.5V6.5H15.5V3.5H18.5Z" fill="black"/>
</svg>
