<svg width="40" height="40" viewBox="0 0 40 40" fill="none" xmlns="http://www.w3.org/2000/svg">
<path d="M14.3864 21.7273C15.4171 21.7273 16.4056 22.1367 17.1344 22.8656C17.8633 23.5944 18.2727 24.5829 18.2727 25.6136V35.1136C18.2727 36.1444 17.8633 37.1329 17.1344 37.8617C16.4056 38.5905 15.4171 39 14.3864 39H4.88636C3.85564 39 2.86712 38.5905 2.13829 37.8617C1.40945 37.1329 1 36.1444 1 35.1136V25.6136C1 24.5829 1.40945 23.5944 2.13829 22.8656C2.86712 22.1367 3.85564 21.7273 4.88636 21.7273H14.3864ZM27.4877 21.7273V27.4843H33.243V33.243H27.4877V38.9983H21.7273V33.2413H27.4843V27.4843H21.7273V21.7273H27.4877ZM39 33.2413V39H33.243V33.243L39 33.2413ZM14.3864 24.3182H4.88636C4.54279 24.3182 4.21328 24.4547 3.97034 24.6976C3.72739 24.9406 3.59091 25.2701 3.59091 25.6136V35.1136C3.59091 35.8287 4.17127 36.4091 4.88636 36.4091H14.3864C14.7299 36.4091 15.0594 36.2726 15.3024 36.0297C15.5453 35.7867 15.6818 35.4572 15.6818 35.1136V25.6136C15.6818 25.2701 15.5453 24.9406 15.3024 24.6976C15.0594 24.4547 14.7299 24.3182 14.3864 24.3182ZM12.2273 27.7727V32.9545H7.04545V27.7727H12.2273ZM39 21.7273V27.4843H33.243V21.7273H39ZM14.3864 1C15.4171 1 16.4056 1.40945 17.1344 2.13829C17.8633 2.86712 18.2727 3.85564 18.2727 4.88636V14.3864C18.2727 15.4171 17.8633 16.4056 17.1344 17.1344C16.4056 17.8633 15.4171 18.2727 14.3864 18.2727H4.88636C3.85564 18.2727 2.86712 17.8633 2.13829 17.1344C1.40945 16.4056 1 15.4171 1 14.3864V4.88636C1 3.85564 1.40945 2.86712 2.13829 2.13829C2.86712 1.40945 3.85564 1 4.88636 1H14.3864ZM35.1136 1C36.1444 1 37.1329 1.40945 37.8617 2.13829C38.5905 2.86712 39 3.85564 39 4.88636V14.3864C39 15.4171 38.5905 16.4056 37.8617 17.1344C37.1329 17.8633 36.1444 18.2727 35.1136 18.2727H25.6136C24.5829 18.2727 23.5944 17.8633 22.8656 17.1344C22.1367 16.4056 21.7273 15.4171 21.7273 14.3864V4.88636C21.7273 3.85564 22.1367 2.86712 22.8656 2.13829C23.5944 1.40945 24.5829 1 25.6136 1H35.1136ZM14.3864 3.59091H4.88636C4.54279 3.59091 4.21328 3.72739 3.97034 3.97034C3.72739 4.21328 3.59091 4.54279 3.59091 4.88636V14.3864C3.59091 15.1015 4.17127 15.6818 4.88636 15.6818H14.3864C14.7299 15.6818 15.0594 15.5453 15.3024 15.3024C15.5453 15.0594 15.6818 14.7299 15.6818 14.3864V4.88636C15.6818 4.54279 15.5453 4.21328 15.3024 3.97034C15.0594 3.72739 14.7299 3.59091 14.3864 3.59091ZM35.1136 3.59091H25.6136C25.2701 3.59091 24.9406 3.72739 24.6976 3.97034C24.4547 4.21328 24.3182 4.54279 24.3182 4.88636V14.3864C24.3182 15.1015 24.8985 15.6818 25.6136 15.6818H35.1136C35.4572 15.6818 35.7867 15.5453 36.0297 15.3024C36.2726 15.0594 36.4091 14.7299 36.4091 14.3864V4.88636C36.4091 4.54279 36.2726 4.21328 36.0297 3.97034C35.7867 3.72739 35.4572 3.59091 35.1136 3.59091ZM12.2273 7.04545V12.2273H7.04545V7.04545H12.2273ZM32.9545 7.04545V12.2273H27.7727V7.04545H32.9545Z" fill="black"/>
</svg>
