<svg width="40" height="40" viewBox="0 0 40 40" fill="none" xmlns="http://www.w3.org/2000/svg">
<path d="M33.2613 10.7066C32.8817 10.3054 32.2488 10.2879 31.8476 10.6674C31.4464 11.047 31.4289 11.6799 31.8085 12.0811L33.2613 10.7066ZM36.9874 21.8849L37.9867 21.8452L37.9867 21.8452L36.9874 21.8849ZM33.3794 32.6814L32.6018 32.0526L32.6018 32.0526L33.3794 32.6814ZM11.842 36.9848L11.3742 37.8687L11.3742 37.8687L11.842 36.9848ZM4.13225 28.4498L3.20278 28.8187L3.20278 28.8187L4.13225 28.4498ZM3.95183 17.1051L4.89253 17.4443L4.89253 17.4443L3.95183 17.1051ZM11.3864 8.33395L10.8911 7.46521L10.8911 7.46521L11.3864 8.33395ZM22.7428 7.28453C23.2875 7.37581 23.8031 7.00824 23.8943 6.46355C23.9856 5.91886 23.618 5.40331 23.0734 5.31204L22.7428 7.28453ZM19.193 0.345388C18.8315 -0.07212 18.1999 -0.117497 17.7824 0.244035C17.3649 0.605567 17.3195 1.2371 17.6811 1.65461L19.193 0.345388ZM16.9314 9.87429C16.5029 10.2227 16.438 10.8525 16.7864 11.281C17.1348 11.7096 17.7647 11.7745 18.1932 11.4261L16.9314 9.87429ZM31.8085 12.0811C34.3649 14.783 35.8433 18.2717 35.9882 21.9245L37.9867 21.8452C37.8223 17.7012 36.145 13.7544 33.2613 10.7066L31.8085 12.0811ZM35.9882 21.9245C36.1331 25.5773 34.9356 29.1664 32.6018 32.0526L34.157 33.3102C36.7915 30.0521 38.1511 25.9893 37.9867 21.8452L35.9882 21.9245ZM32.6018 32.0526C30.2674 34.9396 26.9465 36.9366 23.2268 37.6798L23.6187 39.641C27.7874 38.8081 31.5232 36.5674 34.157 33.3102L32.6018 32.0526ZM23.2268 37.6798C19.5069 38.4231 15.6376 37.8625 12.3098 36.101L11.3742 37.8687C15.1118 39.847 19.4503 40.4739 23.6187 39.641L23.2268 37.6798ZM12.3098 36.101C8.98263 34.3399 6.41696 31.4955 5.06172 28.0809L3.20278 28.8187C4.73741 32.6853 7.63597 35.89 11.3742 37.8687L12.3098 36.101ZM5.06172 28.0809C3.70676 24.667 3.64686 20.8986 4.89253 17.4443L3.01113 16.7659C1.59989 20.6793 1.66786 24.9513 3.20278 28.8187L5.06172 28.0809ZM4.89253 17.4443C6.13846 13.9893 8.61227 11.0665 11.8816 9.20269L10.8911 7.46521C7.21747 9.55951 4.4221 12.8532 3.01113 16.7659L4.89253 17.4443ZM11.8816 9.20269C15.1516 7.33852 19.001 6.65754 22.7428 7.28453L23.0734 5.31204C18.8806 4.60947 14.5641 5.37125 10.8911 7.46521L11.8816 9.20269ZM24.3421 6.29175L23.7353 5.59097L22.2234 6.90019L22.8302 7.60098L24.3421 6.29175ZM23.7353 5.59097L19.193 0.345388L17.6811 1.65461L22.2234 6.90019L23.7353 5.59097ZM18.1932 11.4261L23.6102 7.02147L22.3485 5.46969L16.9314 9.87429L18.1932 11.4261ZM23.6102 7.02147L24.3339 6.43303L23.0722 4.88126L22.3485 5.46969L23.6102 7.02147Z" fill="black"/>
<path fill-rule="evenodd" clip-rule="evenodd" d="M20.9167 14.3542C20.9167 13.8249 20.5063 13.3958 20 13.3958C19.4937 13.3958 19.0833 13.8249 19.0833 14.3542V14.8901C18.0108 15.0244 17.0239 15.394 16.2381 15.9615C15.2292 16.6901 14.5 17.7948 14.5 19.1458C14.5 20.3667 14.9507 21.5005 15.9463 22.3012C16.7315 22.9327 17.7887 23.3036 19.0833 23.419V28.1751C18.3648 28.0548 17.7454 27.7976 17.2801 27.4615C16.6301 26.9921 16.3333 26.4199 16.3333 25.8542C16.3333 25.3249 15.9229 24.8958 15.4167 24.8958C14.9104 24.8958 14.5 25.3249 14.5 25.8542C14.5 27.2051 15.2292 28.31 16.2381 29.0385C17.0239 29.6059 18.0108 29.9756 19.0833 30.1099V30.6458C19.0833 31.1751 19.4937 31.6042 20 31.6042C20.5063 31.6042 20.9167 31.1751 20.9167 30.6458V30.1125C21.982 29.9847 22.9678 29.6324 23.756 29.0727C24.7779 28.3471 25.5 27.2376 25.5 25.8542C25.5 24.602 25.0549 23.4604 24.0478 22.6641C23.2606 22.0415 22.2036 21.6887 20.9167 21.579V16.8249C21.6352 16.9452 22.2546 17.2025 22.7199 17.5385C23.3699 18.0079 23.6667 18.5802 23.6667 19.1458C23.6667 19.6751 24.0771 20.1042 24.5833 20.1042C25.0896 20.1042 25.5 19.6751 25.5 19.1458C25.5 17.7948 24.7708 16.6901 23.7619 15.9615C22.9761 15.394 21.9893 15.0244 20.9167 14.8901V14.3542ZM19.0833 16.8249C18.3648 16.9452 17.7454 17.2025 17.2801 17.5385C16.6301 18.0079 16.3333 18.5802 16.3333 19.1458C16.3333 19.8416 16.5701 20.3848 17.0641 20.7821C17.4727 21.1107 18.118 21.3868 19.0833 21.4939V16.8249ZM20.9167 23.5034V28.1794C21.6418 28.0645 22.2625 27.8163 22.7259 27.4872C23.3628 27.0349 23.6667 26.4673 23.6667 25.8542C23.6667 25.1097 23.4243 24.5742 22.9419 24.1927C22.5353 23.8713 21.8898 23.6056 20.9167 23.5034Z" fill="black" stroke="black" stroke-width="0.00064"/>
</svg>
