<svg width="138" height="138" viewBox="0 0 138 138" fill="none" xmlns="http://www.w3.org/2000/svg">
<g clip-path="url(#clip0_7_2)">
<path d="M73.9065 0.800049C76.5184 0.800049 78.8856 2.34084 79.9424 4.72978L83.8356 13.5298C85.7654 17.8932 82.571 22.8 77.7996 22.8H60.1996C55.5967 22.8 52.4074 18.207 54.0156 13.8941L57.297 5.0941C58.2599 2.51209 60.7254 0.800049 63.4811 0.800049H73.9065Z" fill="black"/>
<path d="M64.0944 137.2C61.4821 137.2 59.1156 135.659 58.0587 133.27L54.1654 124.47C52.2351 120.107 55.4299 115.2 60.2012 115.2H77.801C82.4043 115.2 85.5934 119.793 83.9856 124.106L80.7041 132.906C79.7414 135.487 77.2756 137.2 74.5195 137.2H64.0944Z" fill="black"/>
<path d="M137.201 73.906C137.201 76.5187 135.66 78.885 133.271 79.9419L124.471 83.835C120.108 85.7657 115.201 82.5704 115.201 77.7991V60.1994C115.201 55.5965 119.794 52.4071 124.107 54.0154L132.907 57.2968C135.489 58.2596 137.201 60.7252 137.201 63.4809V73.906Z" fill="black"/>
<path d="M0.800781 64.0938C0.800781 61.4815 2.34157 59.115 4.73051 58.0581L13.5305 54.1648C17.8939 52.2345 22.8008 55.4292 22.8008 60.2006V77.8009C22.8008 82.4033 18.2077 85.5924 13.8948 83.9847L5.09483 80.7032C2.51282 79.7404 0.800781 77.2747 0.800781 74.5194V64.0938Z" fill="black"/>
<path d="M120.695 24.2447C122.542 26.0919 123.125 28.8547 122.184 31.2913L118.714 40.2668C116.994 44.7172 111.265 45.9278 107.891 42.554L95.4458 30.1089C92.1916 26.8541 93.1842 21.3511 97.3704 19.4386L105.913 15.5364C108.421 14.3915 111.374 14.9243 113.323 16.8728L120.695 24.2447Z" fill="black"/>
<path d="M17.3064 113.755C15.4591 111.908 14.8753 109.146 15.8172 106.709L19.2868 97.7329C21.0072 93.2827 26.7359 92.0718 30.1097 95.4458L42.5549 107.891C45.8096 111.146 44.817 116.648 40.6301 118.562L32.0873 122.464C29.5808 123.608 26.6267 123.076 24.6782 121.127L17.3064 113.755Z" fill="black"/>
<path d="M113.757 120.694C111.909 122.541 109.146 123.124 106.709 122.183L97.7343 118.713C93.2833 116.993 92.0733 111.264 95.4472 107.89L107.892 95.4449C111.146 92.1898 116.65 93.1824 118.562 97.3695L122.464 105.912C123.609 108.419 123.077 111.373 121.128 113.321L113.757 120.694Z" fill="black"/>
<path d="M24.2446 17.3066C26.0918 15.4594 28.8546 14.8755 31.2912 15.8175L40.2666 19.287C44.7171 21.0074 45.9277 26.7361 42.5538 30.11L30.1088 42.5551C26.8539 45.8099 21.3509 44.8172 19.4385 40.6304L15.5363 32.0875C14.3914 29.581 14.9242 26.6269 16.8727 24.6784L24.2446 17.3066Z" fill="black"/>
<path fill-rule="evenodd" clip-rule="evenodd" d="M30.1091 107.891C40.3442 118.126 54.232 124 69 124C83.7682 124 97.6554 118.126 107.891 107.891C118.126 97.6554 124 83.7682 124 69C124 54.232 118.126 40.3442 107.891 30.1091C97.6554 19.874 83.7682 14 69 14C54.232 14 40.3442 19.874 30.1091 30.1091C19.874 40.3442 14 54.232 14 69C14 83.7682 19.874 97.6554 30.1091 107.891ZM79.8891 79.8891C77.0071 82.772 73.1571 84.4 69 84.4C64.8425 84.4 60.9928 82.772 58.1105 79.8891C55.2283 77.0071 53.6 73.1571 53.6 69C53.6 64.8425 55.2283 60.9928 58.1105 58.1105C60.9928 55.2283 64.8425 53.6 69 53.6C73.1571 53.6 77.0071 55.2283 79.8891 58.1105C82.772 60.9928 84.4 64.8425 84.4 69C84.4 73.1571 82.772 77.0071 79.8891 79.8891Z" fill="black"/>
</g>
<defs>
<clipPath id="clip0_7_2">
<rect width="138" height="138" fill="white"/>
</clipPath>
</defs>
</svg>
