<svg width="36" height="36" viewBox="0 0 36 36" fill="none" xmlns="http://www.w3.org/2000/svg">
<mask id="path-1-outside-1_1103_1083" maskUnits="userSpaceOnUse" x="0" y="0" width="36" height="36" fill="black">
<rect fill="white" width="36" height="36"/>
<path d="M18.0191 1C19.3519 1.01395 20.6793 1.16215 21.9812 1.44113C22.2582 1.5005 22.509 1.64147 22.6984 1.84435C22.8879 2.04723 23.0066 2.30188 23.038 2.57272L23.3467 5.23519C23.3903 5.61056 23.5251 5.97086 23.7401 6.28711C23.9552 6.60336 24.2445 6.86672 24.5849 7.056C24.9253 7.24529 25.3072 7.35521 25.6999 7.37693C26.0926 7.39865 26.4851 7.33155 26.8459 7.18104L29.388 6.10873C29.6463 5.99949 29.9336 5.97001 30.2101 6.02436C30.4866 6.07871 30.7387 6.21421 30.9315 6.41211C32.7693 8.29721 34.1382 10.5577 34.9354 13.0238C35.0187 13.2832 35.0159 13.561 34.9274 13.8187C34.8389 14.0764 34.6691 14.3014 34.4415 14.4623L32.1881 16.0594C31.8706 16.2829 31.6124 16.575 31.4344 16.9122C31.2564 17.2494 31.1637 17.622 31.1637 18C31.1637 18.378 31.2564 18.7507 31.4344 19.0879C31.6124 19.425 31.8706 19.7172 32.1881 19.9407L34.4451 21.536C34.6731 21.6971 34.8432 21.9223 34.9317 22.1804C35.0202 22.4385 35.0228 22.7167 34.939 22.9762C34.1423 25.4422 32.774 27.7027 30.9369 29.588C30.7445 29.7858 30.4928 29.9214 30.2167 29.976C29.9405 30.0307 29.6535 30.0017 29.3953 29.8931L26.8422 28.8173C26.4819 28.6656 26.0895 28.5975 25.6968 28.6185C25.304 28.6395 24.9219 28.7489 24.5813 28.9381C24.2408 29.1272 23.9514 29.3907 23.7366 29.7071C23.5218 30.0236 23.3876 30.3841 23.3449 30.7597L23.0362 33.4204C23.0054 33.688 22.8893 33.94 22.7037 34.142C22.5181 34.3439 22.2721 34.4858 21.9994 34.5485C19.3694 35.1505 16.6288 35.1505 13.9988 34.5485C13.7257 34.4861 13.4793 34.3443 13.2934 34.1424C13.1075 33.9404 12.9911 33.6883 12.9601 33.4204L12.6533 30.7631C12.6087 30.3888 12.4733 30.0297 12.258 29.7147C12.0427 29.3997 11.7535 29.1376 11.4136 28.9494C11.0737 28.7612 10.6925 28.6521 10.3007 28.631C9.90897 28.6099 9.51751 28.6773 9.15777 28.8277L6.60471 29.9018C6.34623 30.0108 6.05886 30.04 5.78235 29.9854C5.50583 29.9307 5.25384 29.7949 5.06124 29.5967C3.22384 27.7092 1.85612 25.4462 1.06095 22.978C0.977236 22.7184 0.979814 22.4402 1.06833 22.1821C1.15685 21.924 1.3269 21.6988 1.55486 21.5378L3.81195 19.9407C4.12944 19.7172 4.38764 19.425 4.56561 19.0879C4.74359 18.7507 4.83633 18.378 4.83633 18C4.83633 17.622 4.74359 17.2494 4.56561 16.9122C4.38764 16.575 4.12944 16.2829 3.81195 16.0594L1.55486 14.4658C1.3269 14.3047 1.15685 14.0795 1.06833 13.8214C0.979814 13.5633 0.977236 13.2851 1.06095 13.0256C1.85818 10.5595 3.22711 8.29896 5.06488 6.41386C5.25769 6.21595 5.50978 6.08045 5.78628 6.0261C6.06279 5.97175 6.35004 6.00124 6.60834 6.11047L9.15051 7.18278C9.5119 7.3332 9.90499 7.40014 10.2982 7.37822C10.6914 7.35629 11.0738 7.24611 11.4146 7.05654C11.7555 6.86696 12.0452 6.60327 12.2607 6.28665C12.4761 5.97002 12.6112 5.6093 12.6551 5.23344L12.9638 2.57272C12.9949 2.30134 13.1138 2.04613 13.3036 1.84288C13.4935 1.63963 13.7448 1.49854 14.0224 1.43939C15.3225 1.16274 16.6548 1.01627 18.0191 1ZM18.0191 3.61539C17.1953 3.62379 16.3734 3.69199 15.5604 3.81939L15.3607 5.52288C15.2698 6.30628 14.9886 7.05824 14.5396 7.71815C14.0907 8.37805 13.4865 8.92745 12.7759 9.32207C12.0653 9.71669 11.268 9.94549 10.4485 9.99002C9.62886 10.0346 8.80983 9.89359 8.05738 9.57848L6.42494 8.8915C5.38726 10.1015 4.56119 11.4653 3.979 12.9297L5.42623 13.9532C6.08803 14.4195 6.6262 15.0289 6.99721 15.732C7.36821 16.4351 7.56163 17.2122 7.5618 18.0005C7.56198 18.7887 7.36891 19.5659 6.99822 20.2692C6.62753 20.9724 6.08963 21.582 5.42804 22.0487L3.97719 23.0739C4.55826 24.542 5.38628 25.909 6.42494 27.1225L8.06827 26.4303C8.8191 26.1155 9.63642 25.9744 10.4544 26.0183C11.2724 26.0623 12.0683 26.29 12.7779 26.6832C13.4875 27.0763 14.091 27.624 14.5399 28.2821C14.9889 28.9402 15.2706 29.6902 15.3625 30.472L15.5604 32.1876C17.1765 32.4492 18.8271 32.4492 20.4414 32.1876L20.6411 30.472C20.7312 29.6891 21.0117 28.9375 21.4601 28.278C21.9086 27.6184 22.5123 27.0694 23.2225 26.6753C23.9327 26.2812 24.7295 26.0531 25.5485 26.0093C26.3675 25.9655 27.1858 26.1073 27.9372 26.4233L29.5787 27.1138C30.6174 25.9029 31.4441 24.5378 32.0264 23.0721L30.5774 22.0469C29.9156 21.5806 29.3774 20.9712 29.0064 20.2681C28.6354 19.5649 28.442 18.7878 28.4418 17.9996C28.4416 17.2114 28.6347 16.4342 29.0054 15.7309C29.3761 15.0276 29.914 14.418 30.5756 13.9514L32.0228 12.9279C31.4402 11.4628 30.6135 10.0984 29.5751 8.88802L27.9463 9.57325C27.194 9.88945 26.3749 10.0314 25.5551 9.98755C24.7352 9.94373 23.9376 9.71541 23.2265 9.32101C22.5155 8.92661 21.911 8.37719 21.4619 7.71711C21.0128 7.05703 20.7317 6.30479 20.6411 5.52114L20.4432 3.81939C19.6422 3.69372 18.8307 3.62554 18.0191 3.61539ZM17.9973 11.4616C19.8032 11.4616 21.5352 12.1504 22.8122 13.3766C24.0893 14.6028 24.8067 16.2659 24.8067 18C24.8067 19.7341 24.0893 21.3972 22.8122 22.6234C21.5352 23.8496 19.8032 24.5385 17.9973 24.5385C16.1913 24.5385 14.4593 23.8496 13.1823 22.6234C11.9053 21.3972 11.1879 19.7341 11.1879 18C11.1879 16.2659 11.9053 14.6028 13.1823 13.3766C14.4593 12.1504 16.1913 11.4616 17.9973 11.4616ZM17.9973 14.0769C16.9137 14.0769 15.8745 14.4903 15.1083 15.226C14.3421 15.9617 13.9116 16.9596 13.9116 18C13.9116 19.0405 14.3421 20.0384 15.1083 20.7741C15.8745 21.5098 16.9137 21.9231 17.9973 21.9231C19.0809 21.9231 20.1201 21.5098 20.8863 20.7741C21.6525 20.0384 22.0829 19.0405 22.0829 18C22.0829 16.9596 21.6525 15.9617 20.8863 15.226C20.1201 14.4903 19.0809 14.0769 17.9973 14.0769Z"/>
</mask>
<path d="M18.0191 1C19.3519 1.01395 20.6793 1.16215 21.9812 1.44113C22.2582 1.5005 22.509 1.64147 22.6984 1.84435C22.8879 2.04723 23.0066 2.30188 23.038 2.57272L23.3467 5.23519C23.3903 5.61056 23.5251 5.97086 23.7401 6.28711C23.9552 6.60336 24.2445 6.86672 24.5849 7.056C24.9253 7.24529 25.3072 7.35521 25.6999 7.37693C26.0926 7.39865 26.4851 7.33155 26.8459 7.18104L29.388 6.10873C29.6463 5.99949 29.9336 5.97001 30.2101 6.02436C30.4866 6.07871 30.7387 6.21421 30.9315 6.41211C32.7693 8.29721 34.1382 10.5577 34.9354 13.0238C35.0187 13.2832 35.0159 13.561 34.9274 13.8187C34.8389 14.0764 34.6691 14.3014 34.4415 14.4623L32.1881 16.0594C31.8706 16.2829 31.6124 16.575 31.4344 16.9122C31.2564 17.2494 31.1637 17.622 31.1637 18C31.1637 18.378 31.2564 18.7507 31.4344 19.0879C31.6124 19.425 31.8706 19.7172 32.1881 19.9407L34.4451 21.536C34.6731 21.6971 34.8432 21.9223 34.9317 22.1804C35.0202 22.4385 35.0228 22.7167 34.939 22.9762C34.1423 25.4422 32.774 27.7027 30.9369 29.588C30.7445 29.7858 30.4928 29.9214 30.2167 29.976C29.9405 30.0307 29.6535 30.0017 29.3953 29.8931L26.8422 28.8173C26.4819 28.6656 26.0895 28.5975 25.6968 28.6185C25.304 28.6395 24.9219 28.7489 24.5813 28.9381C24.2408 29.1272 23.9514 29.3907 23.7366 29.7071C23.5218 30.0236 23.3876 30.3841 23.3449 30.7597L23.0362 33.4204C23.0054 33.688 22.8893 33.94 22.7037 34.142C22.5181 34.3439 22.2721 34.4858 21.9994 34.5485C19.3694 35.1505 16.6288 35.1505 13.9988 34.5485C13.7257 34.4861 13.4793 34.3443 13.2934 34.1424C13.1075 33.9404 12.9911 33.6883 12.9601 33.4204L12.6533 30.7631C12.6087 30.3888 12.4733 30.0297 12.258 29.7147C12.0427 29.3997 11.7535 29.1376 11.4136 28.9494C11.0737 28.7612 10.6925 28.6521 10.3007 28.631C9.90897 28.6099 9.51751 28.6773 9.15777 28.8277L6.60471 29.9018C6.34623 30.0108 6.05886 30.04 5.78235 29.9854C5.50583 29.9307 5.25384 29.7949 5.06124 29.5967C3.22384 27.7092 1.85612 25.4462 1.06095 22.978C0.977236 22.7184 0.979814 22.4402 1.06833 22.1821C1.15685 21.924 1.3269 21.6988 1.55486 21.5378L3.81195 19.9407C4.12944 19.7172 4.38764 19.425 4.56561 19.0879C4.74359 18.7507 4.83633 18.378 4.83633 18C4.83633 17.622 4.74359 17.2494 4.56561 16.9122C4.38764 16.575 4.12944 16.2829 3.81195 16.0594L1.55486 14.4658C1.3269 14.3047 1.15685 14.0795 1.06833 13.8214C0.979814 13.5633 0.977236 13.2851 1.06095 13.0256C1.85818 10.5595 3.22711 8.29896 5.06488 6.41386C5.25769 6.21595 5.50978 6.08045 5.78628 6.0261C6.06279 5.97175 6.35004 6.00124 6.60834 6.11047L9.15051 7.18278C9.5119 7.3332 9.90499 7.40014 10.2982 7.37822C10.6914 7.35629 11.0738 7.24611 11.4146 7.05654C11.7555 6.86696 12.0452 6.60327 12.2607 6.28665C12.4761 5.97002 12.6112 5.6093 12.6551 5.23344L12.9638 2.57272C12.9949 2.30134 13.1138 2.04613 13.3036 1.84288C13.4935 1.63963 13.7448 1.49854 14.0224 1.43939C15.3225 1.16274 16.6548 1.01627 18.0191 1ZM18.0191 3.61539C17.1953 3.62379 16.3734 3.69199 15.5604 3.81939L15.3607 5.52288C15.2698 6.30628 14.9886 7.05824 14.5396 7.71815C14.0907 8.37805 13.4865 8.92745 12.7759 9.32207C12.0653 9.71669 11.268 9.94549 10.4485 9.99002C9.62886 10.0346 8.80983 9.89359 8.05738 9.57848L6.42494 8.8915C5.38726 10.1015 4.56119 11.4653 3.979 12.9297L5.42623 13.9532C6.08803 14.4195 6.6262 15.0289 6.99721 15.732C7.36821 16.4351 7.56163 17.2122 7.5618 18.0005C7.56198 18.7887 7.36891 19.5659 6.99822 20.2692C6.62753 20.9724 6.08963 21.582 5.42804 22.0487L3.97719 23.0739C4.55826 24.542 5.38628 25.909 6.42494 27.1225L8.06827 26.4303C8.8191 26.1155 9.63642 25.9744 10.4544 26.0183C11.2724 26.0623 12.0683 26.29 12.7779 26.6832C13.4875 27.0763 14.091 27.624 14.5399 28.2821C14.9889 28.9402 15.2706 29.6902 15.3625 30.472L15.5604 32.1876C17.1765 32.4492 18.8271 32.4492 20.4414 32.1876L20.6411 30.472C20.7312 29.6891 21.0117 28.9375 21.4601 28.278C21.9086 27.6184 22.5123 27.0694 23.2225 26.6753C23.9327 26.2812 24.7295 26.0531 25.5485 26.0093C26.3675 25.9655 27.1858 26.1073 27.9372 26.4233L29.5787 27.1138C30.6174 25.9029 31.4441 24.5378 32.0264 23.0721L30.5774 22.0469C29.9156 21.5806 29.3774 20.9712 29.0064 20.2681C28.6354 19.5649 28.442 18.7878 28.4418 17.9996C28.4416 17.2114 28.6347 16.4342 29.0054 15.7309C29.3761 15.0276 29.914 14.418 30.5756 13.9514L32.0228 12.9279C31.4402 11.4628 30.6135 10.0984 29.5751 8.88802L27.9463 9.57325C27.194 9.88945 26.3749 10.0314 25.5551 9.98755C24.7352 9.94373 23.9376 9.71541 23.2265 9.32101C22.5155 8.92661 21.911 8.37719 21.4619 7.71711C21.0128 7.05703 20.7317 6.30479 20.6411 5.52114L20.4432 3.81939C19.6422 3.69372 18.8307 3.62554 18.0191 3.61539ZM17.9973 11.4616C19.8032 11.4616 21.5352 12.1504 22.8122 13.3766C24.0893 14.6028 24.8067 16.2659 24.8067 18C24.8067 19.7341 24.0893 21.3972 22.8122 22.6234C21.5352 23.8496 19.8032 24.5385 17.9973 24.5385C16.1913 24.5385 14.4593 23.8496 13.1823 22.6234C11.9053 21.3972 11.1879 19.7341 11.1879 18C11.1879 16.2659 11.9053 14.6028 13.1823 13.3766C14.4593 12.1504 16.1913 11.4616 17.9973 11.4616ZM17.9973 14.0769C16.9137 14.0769 15.8745 14.4903 15.1083 15.226C14.3421 15.9617 13.9116 16.9596 13.9116 18C13.9116 19.0405 14.3421 20.0384 15.1083 20.7741C15.8745 21.5098 16.9137 21.9231 17.9973 21.9231C19.0809 21.9231 20.1201 21.5098 20.8863 20.7741C21.6525 20.0384 22.0829 19.0405 22.0829 18C22.0829 16.9596 21.6525 15.9617 20.8863 15.226C20.1201 14.4903 19.0809 14.0769 17.9973 14.0769Z" fill="black"/>
<path d="M18.0191 1C19.3519 1.01395 20.6793 1.16215 21.9812 1.44113C22.2582 1.5005 22.509 1.64147 22.6984 1.84435C22.8879 2.04723 23.0066 2.30188 23.038 2.57272L23.3467 5.23519C23.3903 5.61056 23.5251 5.97086 23.7401 6.28711C23.9552 6.60336 24.2445 6.86672 24.5849 7.056C24.9253 7.24529 25.3072 7.35521 25.6999 7.37693C26.0926 7.39865 26.4851 7.33155 26.8459 7.18104L29.388 6.10873C29.6463 5.99949 29.9336 5.97001 30.2101 6.02436C30.4866 6.07871 30.7387 6.21421 30.9315 6.41211C32.7693 8.29721 34.1382 10.5577 34.9354 13.0238C35.0187 13.2832 35.0159 13.561 34.9274 13.8187C34.8389 14.0764 34.6691 14.3014 34.4415 14.4623L32.1881 16.0594C31.8706 16.2829 31.6124 16.575 31.4344 16.9122C31.2564 17.2494 31.1637 17.622 31.1637 18C31.1637 18.378 31.2564 18.7507 31.4344 19.0879C31.6124 19.425 31.8706 19.7172 32.1881 19.9407L34.4451 21.536C34.6731 21.6971 34.8432 21.9223 34.9317 22.1804C35.0202 22.4385 35.0228 22.7167 34.939 22.9762C34.1423 25.4422 32.774 27.7027 30.9369 29.588C30.7445 29.7858 30.4928 29.9214 30.2167 29.976C29.9405 30.0307 29.6535 30.0017 29.3953 29.8931L26.8422 28.8173C26.4819 28.6656 26.0895 28.5975 25.6968 28.6185C25.304 28.6395 24.9219 28.7489 24.5813 28.9381C24.2408 29.1272 23.9514 29.3907 23.7366 29.7071C23.5218 30.0236 23.3876 30.3841 23.3449 30.7597L23.0362 33.4204C23.0054 33.688 22.8893 33.94 22.7037 34.142C22.5181 34.3439 22.2721 34.4858 21.9994 34.5485C19.3694 35.1505 16.6288 35.1505 13.9988 34.5485C13.7257 34.4861 13.4793 34.3443 13.2934 34.1424C13.1075 33.9404 12.9911 33.6883 12.9601 33.4204L12.6533 30.7631C12.6087 30.3888 12.4733 30.0297 12.258 29.7147C12.0427 29.3997 11.7535 29.1376 11.4136 28.9494C11.0737 28.7612 10.6925 28.6521 10.3007 28.631C9.90897 28.6099 9.51751 28.6773 9.15777 28.8277L6.60471 29.9018C6.34623 30.0108 6.05886 30.04 5.78235 29.9854C5.50583 29.9307 5.25384 29.7949 5.06124 29.5967C3.22384 27.7092 1.85612 25.4462 1.06095 22.978C0.977236 22.7184 0.979814 22.4402 1.06833 22.1821C1.15685 21.924 1.3269 21.6988 1.55486 21.5378L3.81195 19.9407C4.12944 19.7172 4.38764 19.425 4.56561 19.0879C4.74359 18.7507 4.83633 18.378 4.83633 18C4.83633 17.622 4.74359 17.2494 4.56561 16.9122C4.38764 16.575 4.12944 16.2829 3.81195 16.0594L1.55486 14.4658C1.3269 14.3047 1.15685 14.0795 1.06833 13.8214C0.979814 13.5633 0.977236 13.2851 1.06095 13.0256C1.85818 10.5595 3.22711 8.29896 5.06488 6.41386C5.25769 6.21595 5.50978 6.08045 5.78628 6.0261C6.06279 5.97175 6.35004 6.00124 6.60834 6.11047L9.15051 7.18278C9.5119 7.3332 9.90499 7.40014 10.2982 7.37822C10.6914 7.35629 11.0738 7.24611 11.4146 7.05654C11.7555 6.86696 12.0452 6.60327 12.2607 6.28665C12.4761 5.97002 12.6112 5.6093 12.6551 5.23344L12.9638 2.57272C12.9949 2.30134 13.1138 2.04613 13.3036 1.84288C13.4935 1.63963 13.7448 1.49854 14.0224 1.43939C15.3225 1.16274 16.6548 1.01627 18.0191 1ZM18.0191 3.61539C17.1953 3.62379 16.3734 3.69199 15.5604 3.81939L15.3607 5.52288C15.2698 6.30628 14.9886 7.05824 14.5396 7.71815C14.0907 8.37805 13.4865 8.92745 12.7759 9.32207C12.0653 9.71669 11.268 9.94549 10.4485 9.99002C9.62886 10.0346 8.80983 9.89359 8.05738 9.57848L6.42494 8.8915C5.38726 10.1015 4.56119 11.4653 3.979 12.9297L5.42623 13.9532C6.08803 14.4195 6.6262 15.0289 6.99721 15.732C7.36821 16.4351 7.56163 17.2122 7.5618 18.0005C7.56198 18.7887 7.36891 19.5659 6.99822 20.2692C6.62753 20.9724 6.08963 21.582 5.42804 22.0487L3.97719 23.0739C4.55826 24.542 5.38628 25.909 6.42494 27.1225L8.06827 26.4303C8.8191 26.1155 9.63642 25.9744 10.4544 26.0183C11.2724 26.0623 12.0683 26.29 12.7779 26.6832C13.4875 27.0763 14.091 27.624 14.5399 28.2821C14.9889 28.9402 15.2706 29.6902 15.3625 30.472L15.5604 32.1876C17.1765 32.4492 18.8271 32.4492 20.4414 32.1876L20.6411 30.472C20.7312 29.6891 21.0117 28.9375 21.4601 28.278C21.9086 27.6184 22.5123 27.0694 23.2225 26.6753C23.9327 26.2812 24.7295 26.0531 25.5485 26.0093C26.3675 25.9655 27.1858 26.1073 27.9372 26.4233L29.5787 27.1138C30.6174 25.9029 31.4441 24.5378 32.0264 23.0721L30.5774 22.0469C29.9156 21.5806 29.3774 20.9712 29.0064 20.2681C28.6354 19.5649 28.442 18.7878 28.4418 17.9996C28.4416 17.2114 28.6347 16.4342 29.0054 15.7309C29.3761 15.0276 29.914 14.418 30.5756 13.9514L32.0228 12.9279C31.4402 11.4628 30.6135 10.0984 29.5751 8.88802L27.9463 9.57325C27.194 9.88945 26.3749 10.0314 25.5551 9.98755C24.7352 9.94373 23.9376 9.71541 23.2265 9.32101C22.5155 8.92661 21.911 8.37719 21.4619 7.71711C21.0128 7.05703 20.7317 6.30479 20.6411 5.52114L20.4432 3.81939C19.6422 3.69372 18.8307 3.62554 18.0191 3.61539ZM17.9973 11.4616C19.8032 11.4616 21.5352 12.1504 22.8122 13.3766C24.0893 14.6028 24.8067 16.2659 24.8067 18C24.8067 19.7341 24.0893 21.3972 22.8122 22.6234C21.5352 23.8496 19.8032 24.5385 17.9973 24.5385C16.1913 24.5385 14.4593 23.8496 13.1823 22.6234C11.9053 21.3972 11.1879 19.7341 11.1879 18C11.1879 16.2659 11.9053 14.6028 13.1823 13.3766C14.4593 12.1504 16.1913 11.4616 17.9973 11.4616ZM17.9973 14.0769C16.9137 14.0769 15.8745 14.4903 15.1083 15.226C14.3421 15.9617 13.9116 16.9596 13.9116 18C13.9116 19.0405 14.3421 20.0384 15.1083 20.7741C15.8745 21.5098 16.9137 21.9231 17.9973 21.9231C19.0809 21.9231 20.1201 21.5098 20.8863 20.7741C21.6525 20.0384 22.0829 19.0405 22.0829 18C22.0829 16.9596 21.6525 15.9617 20.8863 15.226C20.1201 14.4903 19.0809 14.0769 17.9973 14.0769Z" stroke="black" mask="url(#path-1-outside-1_1103_1083)"/>
</svg>
