<svg width="40" height="40" viewBox="0 0 40 40" fill="none" xmlns="http://www.w3.org/2000/svg">
<path d="M38.1848 23.6348L38.1449 23.6034L35.468 21.5588C35.2985 21.4282 35.1632 21.2603 35.0732 21.0689C34.9833 20.8774 34.9412 20.668 34.9506 20.4577V19.5027C34.9421 19.2937 34.9846 19.0857 35.0747 18.8959C35.1648 18.706 35.2999 18.5397 35.4688 18.4106L38.1449 16.3652L38.1848 16.3338C38.5975 15.999 38.8745 15.5321 38.9662 15.0166C39.0579 14.5011 38.9583 13.9707 38.6853 13.5202L35.0625 7.41539C35.0584 7.40963 35.0547 7.40355 35.0515 7.39722C34.777 6.95292 34.3514 6.61628 33.8486 6.44575C33.3458 6.27523 32.7976 6.28159 32.2991 6.46374L32.2694 6.47448L29.1225 7.70783C28.9239 7.78604 28.709 7.81716 28.4956 7.79864C28.2822 7.78011 28.0764 7.71246 27.8951 7.60126C27.6169 7.43054 27.3342 7.26917 27.0469 7.11717C26.8607 7.01881 26.7008 6.87919 26.5801 6.70959C26.4594 6.53998 26.3814 6.34512 26.3523 6.14074L25.8781 2.87026L25.8679 2.81078C25.7647 2.30422 25.4856 1.84771 25.0775 1.51795C24.6694 1.1882 24.1572 1.0053 23.6269 1H16.373C15.8353 1.00168 15.3155 1.18811 14.9051 1.52647C14.4946 1.86482 14.22 2.33339 14.1295 2.84961L14.1219 2.89587L13.6494 6.17296C13.6204 6.37675 13.543 6.57115 13.4233 6.74066C13.3036 6.91018 13.1449 7.05014 12.9598 7.14939C12.6717 7.30051 12.3888 7.46086 12.1116 7.63017C11.9307 7.74069 11.7254 7.80783 11.5126 7.82606C11.2998 7.8443 11.0856 7.81312 10.8876 7.73509L7.73824 6.49596L7.70855 6.48439C7.20934 6.30205 6.6603 6.29592 6.15694 6.46708C5.65357 6.63824 5.22775 6.97585 4.95356 7.42117L4.94253 7.43935L1.31473 13.5483C1.04129 13.9993 0.941489 14.5303 1.03317 15.0463C1.12486 15.5624 1.40205 16.0299 1.81517 16.3652L1.85504 16.3966L4.532 18.4412C4.70152 18.5718 4.83681 18.7397 4.92676 18.9311C5.0167 19.1225 5.05874 19.332 5.04941 19.5423V20.4973C5.0579 20.7063 5.01535 20.9143 4.92526 21.1041C4.83516 21.294 4.70009 21.4603 4.53115 21.5894L1.85504 23.6348L1.81517 23.6662C1.40246 24.001 1.12549 24.4679 1.03381 24.9834C0.942124 25.4989 1.0417 26.0293 1.31473 26.4798L4.93744 32.5846C4.94161 32.5904 4.9453 32.5964 4.94847 32.6028C5.22297 33.0471 5.64857 33.3837 6.15138 33.5542C6.65418 33.7248 7.20243 33.7184 7.70092 33.5363L7.7306 33.5255L10.8749 32.2922C11.0735 32.214 11.2884 32.1828 11.5018 32.2014C11.7152 32.2199 11.921 32.2875 12.1023 32.3987C12.3805 32.57 12.6632 32.7314 12.9505 32.8828C13.1368 32.9812 13.2967 33.1208 13.4173 33.2904C13.538 33.46 13.616 33.6549 13.6452 33.8593L14.1168 37.1297L14.127 37.1892C14.2304 37.6966 14.5102 38.1537 14.9194 38.4836C15.3285 38.8135 15.8419 38.9958 16.373 39H23.6269C24.1647 38.9983 24.6845 38.8119 25.0949 38.4735C25.5053 38.1352 25.78 37.6666 25.8705 37.1504L25.8781 37.1041L26.3506 33.827C26.38 33.6229 26.4581 33.4282 26.5785 33.2587C26.699 33.0891 26.8586 32.9494 27.0444 32.8506C27.3345 32.6986 27.6178 32.5375 27.8926 32.3698C28.0736 32.2593 28.2789 32.1922 28.4916 32.1739C28.7044 32.1557 28.9186 32.1869 29.1166 32.2649L32.266 33.4999L32.2957 33.5115C32.7948 33.6942 33.344 33.7004 33.8475 33.5293C34.3509 33.3581 34.7767 33.0203 35.0507 32.5747C35.054 32.5685 35.0577 32.5624 35.0617 32.5565L38.6844 26.4526C38.9583 26.0016 39.0585 25.4705 38.967 24.9541C38.8754 24.4378 38.5982 23.9701 38.1848 23.6348ZM26.7781 20.3106C26.7163 21.5899 26.2742 22.8241 25.5055 23.8632C24.7369 24.9023 23.6748 25.7015 22.4484 26.1636C21.2221 26.6257 19.8842 26.7309 18.5976 26.4662C17.311 26.2016 16.1311 25.5786 15.2013 24.6729C14.2716 23.7673 13.632 22.6181 13.3604 21.365C13.0889 20.112 13.197 18.8091 13.6716 17.6147C14.1463 16.4204 14.967 15.3861 16.034 14.6376C17.1011 13.8892 18.3684 13.4587 19.6819 13.3987C20.6249 13.3583 21.5663 13.5094 22.446 13.8425C23.3258 14.1755 24.1248 14.6832 24.7923 15.3333C25.4597 15.9834 25.9809 16.7616 26.3228 17.6185C26.6646 18.4754 26.8197 19.3922 26.7781 20.3106Z" fill="black"/>
<path d="M20 24C22.2091 24 24 22.2091 24 20C24 17.7909 22.2091 16 20 16C17.7909 16 16 17.7909 16 20C16 22.2091 17.7909 24 20 24Z" fill="black"/>
</svg>
