<svg width="80" height="80" viewBox="0 0 80 80" fill="none" xmlns="http://www.w3.org/2000/svg">
<path d="M40.0449 0C43.1809 0.0328206 46.3042 0.381539 49.3676 1.03795C50.0193 1.17764 50.6093 1.50935 51.0551 1.98671C51.501 2.46408 51.7803 3.06326 51.8542 3.70052L52.5806 9.96515C52.6831 10.8484 53.0001 11.6961 53.5061 12.4403C54.0121 13.1844 54.693 13.804 55.4939 14.2494C56.2948 14.6948 57.1934 14.9534 58.1174 15.0045C59.0413 15.0556 59.9649 14.8978 60.8138 14.5436L66.7954 12.0205C67.4031 11.7635 68.079 11.6941 68.7296 11.822C69.3802 11.9499 69.9734 12.2687 70.427 12.7344C74.7512 17.1699 77.9722 22.4888 79.848 28.2913C80.044 28.9015 80.0375 29.5552 79.8292 30.1617C79.621 30.7681 79.2214 31.2973 78.6859 31.676L73.3837 35.4339C72.6366 35.9597 72.0291 36.6472 71.6103 37.4405C71.1916 38.2338 70.9733 39.1107 70.9733 40.0001C70.9733 40.8895 71.1916 41.7664 71.6103 42.5597C72.0291 43.353 72.6366 44.0404 73.3837 44.5662L78.6944 48.3201C79.2308 48.699 79.631 49.2289 79.8392 49.8362C80.0475 50.4435 80.0536 51.0981 79.8566 51.7088C77.982 57.511 74.7625 62.8298 70.4399 67.2658C69.987 67.7313 69.3949 68.0503 68.7451 68.1789C68.0954 68.3075 67.4201 68.2393 66.8125 67.9837L60.8052 65.4524C59.9575 65.0955 59.0342 64.9353 58.11 64.9847C57.1858 65.034 56.2867 65.2916 55.4855 65.7366C54.6842 66.1817 54.0033 66.8015 53.4979 67.5461C52.9925 68.2908 52.6768 69.1392 52.5763 70.0227L51.8499 76.2832C51.7774 76.913 51.5042 77.506 51.0675 77.9811C50.6309 78.4562 50.0521 78.7902 49.4103 78.9376C43.2221 80.3541 36.7737 80.3541 30.5854 78.9376C29.9428 78.7909 29.3631 78.4572 28.9257 77.9821C28.4882 77.5069 28.2143 76.9136 28.1415 76.2832L27.4194 70.0309C27.3146 69.1501 26.996 68.3052 26.4895 67.5641C25.9829 66.8229 25.3024 66.2061 24.5025 65.7633C23.7027 65.3205 22.8059 65.0639 21.8841 65.0142C20.9623 64.9644 20.0412 65.123 19.1948 65.4771L13.1875 68.0042C12.5794 68.2608 11.9032 68.3295 11.2526 68.2009C10.602 68.0722 10.009 67.7526 9.55587 67.2863C5.23257 62.8452 2.01439 57.5206 0.143418 51.7129C-0.0535631 51.1022 -0.0474961 50.4476 0.160776 49.8403C0.369047 49.233 0.769177 48.7031 1.30555 48.3242L6.61635 44.5662C7.36339 44.0404 7.97091 43.353 8.38967 42.5597C8.80844 41.7664 9.02666 40.8895 9.02666 40.0001C9.02666 39.1107 8.80844 38.2338 8.38967 37.4405C7.97091 36.6472 7.36339 35.9597 6.61635 35.4339L1.30555 31.6842C0.769177 31.3053 0.369047 30.7754 0.160776 30.168C-0.0474961 29.5607 -0.0535631 28.9062 0.143418 28.2954C2.01925 22.4929 5.24026 17.174 9.56441 12.7385C10.0181 12.2728 10.6112 11.954 11.2618 11.8261C11.9124 11.6982 12.5883 11.7676 13.1961 12.0246L19.1777 14.5477C20.028 14.9017 20.9529 15.0592 21.8781 15.0076C22.8034 14.956 23.7031 14.6967 24.505 14.2507C25.307 13.8046 25.9888 13.1842 26.4957 12.4392C27.0026 11.6942 27.3204 10.8454 27.4237 9.96105L28.1501 3.70052C28.2234 3.06197 28.503 2.46148 28.9497 1.98324C29.3964 1.50501 29.9878 1.17302 30.641 1.03385C33.7001 0.382907 36.8347 0.0382907 40.0449 0ZM40.0449 6.15386C38.1067 6.17363 36.1728 6.33409 34.2598 6.63386L33.7898 10.6421C33.5761 12.4854 32.9144 14.2547 31.858 15.8074C30.8016 17.3601 29.3801 18.6528 27.708 19.5813C26.036 20.5099 24.1601 21.0482 22.2317 21.153C20.3032 21.2578 18.3761 20.9261 16.6056 20.1847L12.7646 18.5682C10.323 21.4153 8.37927 24.6242 7.00942 28.0698L10.4147 30.478C11.9718 31.5753 13.2381 33.0091 14.1111 34.6635C14.984 36.318 15.4391 38.1465 15.4395 40.0011C15.44 41.8557 14.9857 43.6844 14.1135 45.3392C13.2413 46.994 11.9756 48.4283 10.4189 49.5263L7.00515 51.9386C8.37237 55.3929 10.3207 58.6094 12.7646 61.4647L16.6312 59.836C18.3979 59.0954 20.321 58.7633 22.2457 58.8667C24.1704 58.97 26.0429 59.5058 27.7126 60.431C29.3823 61.3561 30.8024 62.6447 31.8587 64.1931C32.915 65.7415 33.5779 67.5064 33.7941 69.3458L34.2598 73.3827C38.0624 73.9981 41.9461 73.9981 45.7445 73.3827L46.2144 69.3458C46.4263 67.5037 47.0864 65.7353 48.1415 64.1834C49.1966 62.6316 50.6171 61.3398 52.2882 60.4125C53.9593 59.4852 55.8341 58.9484 57.7612 58.8454C59.6883 58.7424 61.6136 59.0761 63.3816 59.8196L67.244 61.4442C69.6879 58.595 71.6331 55.3832 73.0034 51.9345L69.5939 49.5222C68.0367 48.4249 66.7704 46.991 65.8975 45.3366C65.0245 43.6822 64.5694 41.8537 64.569 39.9991C64.5686 38.1444 65.0229 36.3157 65.8951 34.661C66.7673 33.0062 68.0329 31.5718 69.5896 30.4739L72.9949 28.0657C71.6241 24.6184 69.6789 21.408 67.2354 18.56L63.403 20.1723C61.633 20.9163 59.7057 21.2503 57.7766 21.1472C55.8475 21.0441 53.9707 20.5068 52.2977 19.5788C50.6248 18.6508 49.2025 17.3581 48.1457 15.805C47.089 14.2518 46.4274 12.4819 46.2144 10.638L45.7487 6.63386C43.8639 6.33818 41.9545 6.17773 40.0449 6.15386ZM39.9936 24.6154C44.2429 24.6154 48.3182 26.2363 51.3229 29.1215C54.3277 32.0067 56.0157 35.9198 56.0157 40.0001C56.0157 44.0803 54.3277 47.9935 51.3229 50.8787C48.3182 53.7639 44.2429 55.3847 39.9936 55.3847C35.7443 55.3847 31.669 53.7639 28.6643 50.8787C25.6595 47.9935 23.9715 44.0803 23.9715 40.0001C23.9715 35.9198 25.6595 32.0067 28.6643 29.1215C31.669 26.2363 35.7443 24.6154 39.9936 24.6154ZM39.9936 30.7693C37.444 30.7693 34.9988 31.7418 33.196 33.4729C31.3932 35.204 30.3803 37.5519 30.3803 40.0001C30.3803 42.4482 31.3932 44.7961 33.196 46.5272C34.9988 48.2583 37.444 49.2309 39.9936 49.2309C42.5432 49.2309 44.9884 48.2583 46.7912 46.5272C48.594 44.7961 49.6069 42.4482 49.6069 40.0001C49.6069 37.5519 48.594 35.204 46.7912 33.4729C44.9884 31.7418 42.5432 30.7693 39.9936 30.7693Z" fill="black"/>
</svg>
