<svg width="40" height="40" viewBox="0 0 40 40" fill="none" xmlns="http://www.w3.org/2000/svg">
<path d="M20.0213 1C21.5109 1.01559 22.9945 1.18123 24.4496 1.49303C24.7592 1.55938 25.0394 1.71694 25.2512 1.94369C25.463 2.17044 25.5957 2.45505 25.6308 2.75775L25.9758 5.73345C26.0245 6.15297 26.1751 6.55567 26.4154 6.90912C26.6558 7.26258 26.9792 7.55692 27.3596 7.76848C27.74 7.98003 28.1669 8.10288 28.6057 8.12716C29.0446 8.15143 29.4833 8.07644 29.8865 7.90822L32.7278 6.70975C33.0165 6.58767 33.3375 6.55472 33.6466 6.61546C33.9556 6.67621 34.2373 6.82764 34.4528 7.04883C36.5068 9.15571 38.0368 11.6822 38.9278 14.4384C39.0209 14.7282 39.0178 15.0387 38.9189 15.3268C38.82 15.6149 38.6302 15.8662 38.3758 16.0461L35.8572 17.8311C35.5024 18.0809 35.2138 18.4074 35.0149 18.7842C34.816 19.161 34.7123 19.5776 34.7123 20C34.7123 20.4225 34.816 20.839 35.0149 21.2159C35.2138 21.5927 35.5024 21.9192 35.8572 22.169L38.3799 23.952C38.6346 24.132 38.8247 24.3837 38.9236 24.6722C39.0226 24.9607 39.0254 25.2716 38.9319 25.5617C38.0415 28.3177 36.5122 30.8442 34.4589 32.9512C34.2438 33.1723 33.9626 33.3239 33.6539 33.385C33.3453 33.4461 33.0245 33.4137 32.7359 33.2923L29.8825 32.0899C29.4798 31.9204 29.0412 31.8443 28.6023 31.8677C28.1633 31.8912 27.7362 32.0135 27.3556 32.2249C26.975 32.4363 26.6516 32.7307 26.4115 33.0844C26.1714 33.4381 26.0215 33.8411 25.9737 34.2608L25.6287 37.2345C25.5943 37.5337 25.4645 37.8153 25.2571 38.041C25.0497 38.2667 24.7748 38.4253 24.4699 38.4954C21.5305 39.1682 18.4675 39.1682 15.5281 38.4954C15.2228 38.4257 14.9475 38.2672 14.7397 38.0415C14.5319 37.8158 14.4018 37.5339 14.3672 37.2345L14.0242 34.2647C13.9744 33.8463 13.8231 33.445 13.5825 33.0929C13.3419 32.7409 13.0186 32.4479 12.6387 32.2376C12.2588 32.0272 11.8328 31.9053 11.3949 31.8817C10.9571 31.8581 10.5196 31.9334 10.1175 32.1016L7.26408 33.302C6.9752 33.4239 6.65402 33.4565 6.34498 33.3954C6.03593 33.3343 5.7543 33.1825 5.53904 32.961C3.48547 30.8515 1.95684 28.3223 1.06812 25.5636C0.974558 25.2735 0.977439 24.9626 1.07637 24.6742C1.1753 24.3857 1.36536 24.134 1.62014 23.954L4.14277 22.169C4.49761 21.9192 4.78618 21.5927 4.9851 21.2159C5.18401 20.839 5.28766 20.4225 5.28766 20C5.28766 19.5776 5.18401 19.161 4.9851 18.7842C4.78618 18.4074 4.49761 18.0809 4.14277 17.8311L1.62014 16.05C1.36536 15.87 1.1753 15.6183 1.07637 15.3298C0.977439 15.0414 0.974558 14.7305 1.06812 14.4403C1.95914 11.6841 3.48912 9.15766 5.5431 7.05078C5.7586 6.82959 6.04034 6.67816 6.34937 6.61741C6.65841 6.55667 6.97946 6.58962 7.26814 6.7117L10.1094 7.91017C10.5133 8.07829 10.9526 8.1531 11.3921 8.12859C11.8316 8.10409 12.259 7.98095 12.6399 7.76907C13.0208 7.55719 13.3447 7.26248 13.5854 6.9086C13.8262 6.55473 13.9772 6.15157 14.0263 5.7315L14.3713 2.75775C14.4061 2.45444 14.5389 2.1692 14.7511 1.94204C14.9633 1.71488 15.2442 1.55719 15.5545 1.49108C17.0076 1.18188 18.4965 1.01819 20.0213 1ZM20.0213 3.92308C19.1007 3.93247 18.1821 4.00869 17.2734 4.15108L17.0502 6.05498C16.9486 6.93055 16.6343 7.77097 16.1325 8.50852C15.6307 9.24606 14.9555 9.8601 14.1613 10.3011C13.3671 10.7422 12.4761 10.9979 11.56 11.0477C10.644 11.0974 9.72864 10.9399 8.88766 10.5877L7.06317 9.81992C5.90341 11.1722 4.98015 12.6965 4.32948 14.3332L5.94696 15.4771C6.68662 15.9983 7.28811 16.6793 7.70276 17.4652C8.11741 18.251 8.33358 19.1196 8.33378 20.0005C8.33398 20.8815 8.1182 21.7501 7.7039 22.5361C7.2896 23.3221 6.68841 24.0035 5.94899 24.525L4.32745 25.6708C4.97688 27.3116 5.90231 28.8394 7.06317 30.1958L8.89983 29.4221C9.739 29.0703 10.6525 28.9126 11.5667 28.9617C12.4809 29.0108 13.3704 29.2653 14.1635 29.7047C14.9566 30.1441 15.6311 30.7563 16.1329 31.4917C16.6346 32.2272 16.9495 33.0656 17.0522 33.9392L17.2734 35.8568C19.0796 36.1491 20.9244 36.1491 22.7286 35.8568L22.9519 33.9392C23.0525 33.0643 23.366 32.2243 23.8672 31.4871C24.3684 30.75 25.0431 30.1364 25.8369 29.6959C26.6307 29.2555 27.5212 29.0005 28.4366 28.9515C29.352 28.9026 30.2665 29.0611 31.1063 29.4143L32.9409 30.186C34.1017 28.8326 35.0257 27.307 35.6766 25.6689L34.0571 24.523C33.3174 24.0018 32.716 23.3207 32.3013 22.5349C31.8866 21.749 31.6705 20.8805 31.6703 19.9996C31.6701 19.1186 31.8859 18.25 32.3002 17.464C32.7145 16.6779 33.3156 15.9966 34.0551 15.4751L35.6726 14.3312C35.0215 12.6938 34.0975 11.1688 32.9368 9.81602L31.1164 10.5819C30.2757 10.9353 29.3602 11.0939 28.4439 11.0449C27.5276 10.9959 26.6361 10.7408 25.8414 10.3C25.0468 9.85915 24.3712 9.24509 23.8692 8.50736C23.3673 7.76963 23.053 6.92889 22.9519 6.05304L22.7306 4.15108C21.8354 4.01063 20.9284 3.93442 20.0213 3.92308ZM19.997 12.6923C22.0154 12.6923 23.9511 13.4622 25.3784 14.8327C26.8056 16.2032 27.6075 18.0619 27.6075 20C27.6075 21.9382 26.8056 23.7969 25.3784 25.1674C23.9511 26.5378 22.0154 27.3077 19.997 27.3077C17.9785 27.3077 16.0428 26.5378 14.6155 25.1674C13.1883 23.7969 12.3865 21.9382 12.3865 20C12.3865 18.0619 13.1883 16.2032 14.6155 14.8327C16.0428 13.4622 17.9785 12.6923 19.997 12.6923ZM19.997 15.6154C18.7859 15.6154 17.6244 16.0774 16.7681 16.8996C15.9117 17.7219 15.4307 18.8372 15.4307 20C15.4307 21.1629 15.9117 22.2782 16.7681 23.1004C17.6244 23.9227 18.7859 24.3847 19.997 24.3847C21.208 24.3847 22.3695 23.9227 23.2258 23.1004C24.0822 22.2782 24.5633 21.1629 24.5633 20C24.5633 18.8372 24.0822 17.7219 23.2258 16.8996C22.3695 16.0774 21.208 15.6154 19.997 15.6154Z" fill="black"/>
</svg>
