<svg width="86" height="80" viewBox="0 0 86 80" fill="none" xmlns="http://www.w3.org/2000/svg">
<path d="M69.6667 53.125L83 40L69.6667 26.875" stroke="black" stroke-width="6" stroke-linecap="round" stroke-linejoin="round"/>
<path d="M83 40H20.7778M51.8889 22.5V9.375C51.8889 8.21468 51.4206 7.10188 50.5871 6.28141C49.7536 5.46094 48.6232 5 47.4444 5H7.44444C6.2657 5 5.13524 5.46094 4.30174 6.28141C3.46825 7.10188 3 8.21468 3 9.375V70.625C3 71.7853 3.46825 72.8981 4.30174 73.7186C5.13524 74.5391 6.2657 75 7.44444 75H47.4444C48.6232 75 49.7536 74.5391 50.5871 73.7186C51.4206 72.8981 51.8889 71.7853 51.8889 70.625V57.5" stroke="black" stroke-width="6" stroke-linecap="round" stroke-linejoin="round"/>
</svg>
