<svg width="40" height="40" viewBox="0 0 40 40" fill="none" xmlns="http://www.w3.org/2000/svg">
<g clip-path="url(#clip0_1660_84)">
<path d="M31.3393 26.0398L37.1893 20.2812L31.3393 14.5227" stroke="black" stroke-width="4" stroke-linecap="round" stroke-linejoin="round"/>
<path d="M37.1893 20.2813H9.88928M23.5393 12.6031V6.84453C23.5393 6.33544 23.3338 5.8472 22.9682 5.48722C22.6025 5.12724 22.1065 4.925 21.5893 4.925H4.03929C3.52212 4.925 3.02613 5.12724 2.66043 5.48722C2.29474 5.8472 2.08929 6.33544 2.08929 6.84453V33.718C2.08929 34.2271 2.29474 34.7153 2.66043 35.0753C3.02613 35.4353 3.52212 35.6375 4.03929 35.6375H21.5893C22.1065 35.6375 22.6025 35.4353 22.9682 35.0753C23.3338 34.7153 23.5393 34.2271 23.5393 33.718V27.9594" stroke="black" stroke-width="4" stroke-linecap="round" stroke-linejoin="round"/>
</g>
<defs>
<clipPath id="clip0_1660_84">
<rect width="40" height="36" fill="white" transform="matrix(-1 0 0 1 40 2)"/>
</clipPath>
</defs>
</svg>
